<svg width="32" height="32" viewBox="0 0 32 32" fill="none" xmlns="http://www.w3.org/2000/svg">
<path d="M27.6931 26.0399C27.6931 26.5199 27.5864 27.0133 27.3597 27.4933C27.1331 27.9733 26.8397 28.4266 26.4531 28.8533C25.7997 29.5733 25.0797 30.0933 24.2664 30.4266C23.4664 30.7599 22.5997 30.9333 21.6664 30.9333C20.3064 30.9333 18.8531 30.6133 17.3197 29.9599C15.7864 29.3066 14.2531 28.4266 12.7331 27.3199C11.1997 26.1999 9.74641 24.9599 8.35974 23.5866C6.98641 22.1999 5.74641 20.7466 4.63974 19.2266C3.54641 17.7066 2.66641 16.1866 2.02641 14.6799C1.38641 13.1599 1.06641 11.7066 1.06641 10.3199C1.06641 9.41327 1.22641 8.5466 1.54641 7.7466C1.86641 6.93327 2.37307 6.1866 3.07974 5.51994C3.93307 4.67994 4.86641 4.2666 5.85307 4.2666C6.22641 4.2666 6.59974 4.3466 6.93307 4.5066C7.27974 4.6666 7.58641 4.9066 7.82641 5.25327L10.9197 9.61327C11.1597 9.9466 11.3331 10.2533 11.4531 10.5466C11.5731 10.8266 11.6397 11.1066 11.6397 11.3599C11.6397 11.6799 11.5464 11.9999 11.3597 12.3066C11.1864 12.6133 10.9331 12.9333 10.6131 13.2533L9.59974 14.3066C9.45307 14.4533 9.38641 14.6266 9.38641 14.8399C9.38641 14.9466 9.39974 15.0399 9.42641 15.1466C9.46641 15.2533 9.50641 15.3333 9.53307 15.4133C9.77307 15.8533 10.1864 16.4266 10.7731 17.1199C11.3731 17.8133 12.0131 18.5199 12.7064 19.2266C13.4264 19.9333 14.1197 20.5866 14.8264 21.1866C15.5197 21.7733 16.0931 22.1733 16.5464 22.4133C16.6131 22.4399 16.6931 22.4799 16.7864 22.5199C16.8931 22.5599 16.9997 22.5733 17.1197 22.5733C17.3464 22.5733 17.5197 22.4933 17.6664 22.3466L18.6797 21.3466C19.0131 21.0133 19.3331 20.7599 19.6397 20.5999C19.9464 20.4133 20.2531 20.3199 20.5864 20.3199C20.8397 20.3199 21.1064 20.3733 21.3997 20.4933C21.6931 20.6133 21.9997 20.7866 22.3331 21.0133L26.7464 24.1466C27.0931 24.3866 27.3331 24.6666 27.4797 24.9999C27.6131 25.3333 27.6931 25.6666 27.6931 26.0399Z" stroke="#181818" stroke-width="1.2" stroke-miterlimit="10"/>
<path d="M23.0671 13.6003C23.0671 12.8003 22.4404 11.5736 21.5071 10.5736C20.6537 9.65359 19.5204 8.93359 18.4004 8.93359" stroke="#181818" stroke-width="1.2" stroke-linecap="round" stroke-linejoin="round"/>
<path d="M27.7337 13.5999C27.7337 8.43993 23.5604 4.2666 18.4004 4.2666" stroke="#181818" stroke-width="1.2" stroke-linecap="round" stroke-linejoin="round"/>
</svg>
