<svg width="16" height="16" viewBox="0 0 16 16" fill="none" xmlns="http://www.w3.org/2000/svg">
<g id="contract 1" clip-path="url(#clip0_2801_3276)">
<g id="Group">
<g id="Group_2">
<path id="Vector" d="M15.5886 5.03522C15.0403 4.48691 14.1482 4.48694 13.5997 5.03534C13.431 5.20419 12.354 6.28209 12.1895 6.44678V2.73206C12.1895 2.35644 12.0432 2.00331 11.7775 1.73772L10.4518 0.411875C10.1862 0.14625 9.83302 0 9.45739 0H1.4082C0.632797 0 0.00195312 0.630844 0.00195312 1.40625V14.5938C0.00195312 15.3692 0.632797 16 1.4082 16H10.7832C11.5586 16 12.1895 15.3692 12.1895 14.5938V10.426L15.5886 7.02397C16.1382 6.47441 16.1383 5.58484 15.5886 5.03522ZM9.37698 0.9375C9.46555 0.9375 9.6362 0.922156 9.78886 1.07478L11.1147 2.40062C11.2634 2.54941 11.252 2.71244 11.252 2.8125H9.37698V0.9375ZM11.252 14.5938C11.252 14.8522 11.0417 15.0625 10.7832 15.0625H1.4082C1.14973 15.0625 0.939453 14.8522 0.939453 14.5938V1.40625C0.939453 1.14778 1.14973 0.9375 1.4082 0.9375H8.43945V3.28125C8.43945 3.54012 8.64933 3.75 8.9082 3.75H11.252V7.38509C11.252 7.38509 9.86902 8.76922 9.86895 8.76925L9.20636 9.43188C9.15492 9.48331 9.11611 9.54606 9.09311 9.61509L8.43017 11.6038C8.37402 11.7723 8.41786 11.958 8.54342 12.0835C8.66914 12.2093 8.85492 12.2529 9.02311 12.1968L11.0119 11.5339C11.0809 11.5109 11.1436 11.4721 11.1951 11.4206L11.252 11.3638V14.5938ZM10.2007 9.76334L10.8636 10.4263L10.6104 10.6795L9.61605 11.0109L9.94748 10.0165L10.2007 9.76334ZM11.5264 9.76319L10.8635 9.10028C11.2165 8.747 12.7843 7.17788 13.1168 6.84509L13.7797 7.508L11.5264 9.76319ZM14.9255 6.36119L14.4423 6.84481L13.7794 6.18191L14.2628 5.69812C14.4457 5.51534 14.743 5.51537 14.9257 5.69812C15.1085 5.88094 15.1094 6.17728 14.9255 6.36119Z" fill="white"/>
</g>
</g>
<g id="Group_3">
<g id="Group_4">
<path id="Vector_2" d="M8.90625 4.6875H2.34375C2.08487 4.6875 1.875 4.89737 1.875 5.15625C1.875 5.41513 2.08487 5.625 2.34375 5.625H8.90625C9.16512 5.625 9.375 5.41513 9.375 5.15625C9.375 4.89737 9.16512 4.6875 8.90625 4.6875Z" fill="white"/>
</g>
</g>
<g id="Group_5">
<g id="Group_6">
<path id="Vector_3" d="M7.03125 6.5625H2.34375C2.08487 6.5625 1.875 6.77237 1.875 7.03125C1.875 7.29013 2.08487 7.5 2.34375 7.5H7.03125C7.29012 7.5 7.5 7.29013 7.5 7.03125C7.5 6.77237 7.29012 6.5625 7.03125 6.5625Z" fill="white"/>
</g>
</g>
<g id="Group_7">
<g id="Group_8">
<path id="Vector_4" d="M7.03125 8.4375H2.34375C2.08487 8.4375 1.875 8.64737 1.875 8.90625C1.875 9.16513 2.08487 9.375 2.34375 9.375H7.03125C7.29012 9.375 7.5 9.16513 7.5 8.90625C7.5 8.64737 7.29012 8.4375 7.03125 8.4375Z" fill="white"/>
</g>
</g>
<g id="Group_9">
<g id="Group_10">
<path id="Vector_5" d="M7.03125 10.3125H2.34375C2.08487 10.3125 1.875 10.5224 1.875 10.7812C1.875 11.0401 2.08487 11.25 2.34375 11.25H7.03125C7.29012 11.25 7.5 11.0401 7.5 10.7812C7.5 10.5224 7.29012 10.3125 7.03125 10.3125Z" fill="white"/>
</g>
</g>
<g id="Group_11">
<g id="Group_12">
<path id="Vector_6" d="M8.90625 13.1875H6.09375C5.83487 13.1875 5.625 13.3974 5.625 13.6562C5.625 13.9151 5.83487 14.125 6.09375 14.125H8.90625C9.16512 14.125 9.375 13.9151 9.375 13.6562C9.375 13.3974 9.16512 13.1875 8.90625 13.1875Z" fill="white"/>
</g>
</g>
</g>
<defs>
<clipPath id="clip0_2801_3276">
<rect width="16" height="16" fill="white"/>
</clipPath>
</defs>
</svg>
