<svg width="80" height="80" viewBox="0 0 80 80" fill="none" xmlns="http://www.w3.org/2000/svg">
<path d="M72.9688 11.875H7.03125C3.16219 11.875 0 15.0233 0 18.9062V61.0938C0 64.9781 3.16422 68.125 7.03125 68.125H72.9688C76.8378 68.125 80 64.9767 80 61.0938V18.9062C80 15.0223 76.8363 11.875 72.9688 11.875ZM71.8891 16.5625C69.6158 18.8433 42.9133 45.6328 41.8162 46.7334C40.9 47.6525 39.1005 47.6531 38.1838 46.7334L8.11094 16.5625H71.8891ZM4.6875 60.232V19.768L24.8539 40L4.6875 60.232ZM8.11094 63.4375L28.1631 43.32L34.8639 50.0427C37.6098 52.7975 42.3913 52.7964 45.1363 50.0427L51.837 43.3202L71.8891 63.4375H8.11094ZM75.3125 60.232L55.1461 40L75.3125 19.768V60.232Z" fill="white"/>
</svg>
