<svg width="20" height="21" viewBox="0 0 20 21" fill="none" xmlns="http://www.w3.org/2000/svg">
<path fill-rule="evenodd" clip-rule="evenodd" d="M14.3591 0C17.733 0 20 2.37452 20 5.90831V14.1436C20 17.6774 17.733 20.0519 14.3591 20.0519H5.64093C2.26698 20.0519 0 17.6774 0 14.1436V5.90831C0 2.37452 2.26698 0 5.64093 0H14.3591ZM14.3591 1.39897H5.64093C3.06233 1.39897 1.39535 3.1682 1.39535 5.90831V14.1436C1.39535 16.8837 3.06233 18.6529 5.64093 18.6529H14.3591C16.9386 18.6529 18.6047 16.8837 18.6047 14.1436V5.90831C18.6047 3.1682 16.9386 1.39897 14.3591 1.39897ZM5.69405 7.65003C6.07916 7.65003 6.39172 7.96339 6.39172 8.34951V14.7475C6.39172 15.1336 6.07916 15.4469 5.69405 15.4469C5.30893 15.4469 4.99637 15.1336 4.99637 14.7475V8.34951C4.99637 7.96339 5.30893 7.65003 5.69405 7.65003ZM10.0354 4.58722C10.4206 4.58722 10.7331 4.90059 10.7331 5.2867V14.7465C10.7331 15.1326 10.4206 15.446 10.0354 15.446C9.65033 15.446 9.33777 15.1326 9.33777 14.7465V5.2867C9.33777 4.90059 9.65033 4.58722 10.0354 4.58722ZM14.3055 11.0309C14.6906 11.0309 15.0032 11.3442 15.0032 11.7303V14.7465C15.0032 15.1326 14.6906 15.446 14.3055 15.446C13.9204 15.446 13.6078 15.1326 13.6078 14.7465V11.7303C13.6078 11.3442 13.9204 11.0309 14.3055 11.0309Z" fill="#E8112B"/>
</svg>
