<svg width="70" height="70" viewBox="0 0 70 70" fill="none" xmlns="http://www.w3.org/2000/svg">
<g clip-path="url(#clip0_2801_6101)">
<path d="M37.05 6.44398C37.05 5.89998 36.834 5.37853 36.4493 4.99394L32.0561 0.600623C31.2554 -0.200139 29.9568 -0.200276 29.1559 0.600623C28.355 1.40152 28.355 2.69994 29.1559 3.50084L30.0552 4.40017C15.8544 4.69453 4.39258 16.3367 4.39258 30.6068C4.39258 31.7394 5.31078 32.6576 6.44336 32.6576C7.57594 32.6576 8.49414 31.7394 8.49414 30.6068C8.49414 18.6031 18.1086 8.80279 30.0412 8.50201L29.1559 9.38713C28.355 10.1879 28.355 11.4864 29.1559 12.2873C29.9569 13.0885 31.2554 13.088 32.0561 12.2873L36.4494 7.89402C36.834 7.50957 37.05 6.98799 37.05 6.44398Z" fill="#E8112B"/>
<path d="M63.555 37.3423C62.4224 37.3423 61.5042 38.2605 61.5042 39.3931C61.5042 51.3968 51.8898 61.1971 39.9572 61.4979L40.8425 60.6128C41.6434 59.812 41.6434 58.5135 40.8425 57.7126C40.0417 56.9117 38.7431 56.9118 37.9422 57.7126L33.5489 62.1059C32.7545 62.8695 32.7546 64.2425 33.5489 65.0061L37.9422 69.3994C38.7433 70.2005 40.0418 70.2 40.8425 69.3994C41.6434 68.5985 41.6434 67.3001 40.8425 66.4992L39.9431 65.5999C54.1438 65.3055 65.6058 53.6634 65.6058 39.3933C65.6058 38.2605 64.6876 37.3423 63.555 37.3423Z" fill="#E8112B"/>
<path d="M63.1033 14.7173C68.4675 9.37456 64.6211 -0.0178842 56.9673 2.59643e-05C49.3139 -0.0180209 45.4673 9.37606 50.8315 14.7173C46.7299 16.9153 43.9336 21.2437 43.9336 26.2135V30.6067C43.9336 31.7393 44.8518 32.6575 45.9844 32.6575H67.9506C69.0831 32.6575 70.0013 31.7393 70.0013 30.6067V26.2135C70.0013 21.2438 67.2049 16.9153 63.1033 14.7173ZM56.9674 4.10159C59.4703 4.10159 61.5065 6.13788 61.5065 8.64065C61.2572 14.6622 52.6769 14.6607 52.4285 8.64065C52.4285 6.13788 54.4646 4.10159 56.9674 4.10159ZM65.8998 28.5561H48.0352V26.2137C48.5272 14.3607 65.4121 14.37 65.8998 26.2137V28.5561Z" fill="#E8112B"/>
<path d="M19.1697 52.0595C24.5339 46.7168 20.6875 37.3244 13.0337 37.3423C5.38029 37.3243 1.53371 46.7183 6.89787 52.0595C2.79631 54.2576 0 58.5861 0 63.5559V67.9491C0 69.0817 0.918203 69.9999 2.05078 69.9999H24.017C25.1496 69.9999 26.0678 69.0817 26.0678 67.9491V63.5559C26.0678 58.5861 23.2714 54.2576 19.1697 52.0595ZM13.0338 41.4439C15.5367 41.4439 17.5729 43.4802 17.5729 45.9829C17.3236 52.0044 8.7433 52.0029 8.49488 45.9829C8.49488 43.4802 10.531 41.4439 13.0338 41.4439ZM21.9662 65.8983H4.10156V63.5559C4.59361 51.703 21.4785 51.7123 21.9662 63.5559V65.8983Z" fill="#E8112B"/>
</g>
<defs>
<clipPath id="clip0_2801_6101">
<rect width="70" height="70" fill="white"/>
</clipPath>
</defs>
</svg>
