<svg width="50" height="50" viewBox="0 0 50 50" fill="none" xmlns="http://www.w3.org/2000/svg">
<g clip-path="url(#clip0_2801_6155)">
<path d="M48.5352 35.4368H47.0724V1.46484C47.0724 0.655859 46.4165 0 45.6075 0H4.39248C3.5835 0 2.92764 0.655859 2.92764 1.46484V35.4368H1.46484C0.655859 35.4368 0 36.0927 0 36.9017V42.7517C0 43.5606 0.655859 44.2165 1.46484 44.2165H10.5686C10.2222 44.9165 10.0266 45.7038 10.0266 46.5363V48.5352C10.0266 49.3441 10.6824 50 11.4914 50C12.3004 50 12.9562 49.3441 12.9562 48.5352V46.5363C12.9562 45.2571 13.9969 44.2165 15.2761 44.2165H34.6994C35.9786 44.2165 37.0192 45.2571 37.0192 46.5363V48.5352C37.0192 49.3441 37.6751 50 38.4841 50C39.2931 50 39.9489 49.3441 39.9489 48.5352V46.5363C39.9489 45.7039 39.7533 44.9165 39.4069 44.2165H48.5352C49.3441 44.2165 50 43.5606 50 42.7517V36.9017C50 36.0927 49.3442 35.4368 48.5352 35.4368ZM5.85732 2.92969H44.1427V35.4368H5.85732V2.92969ZM47.0703 41.2869H2.92969V38.3666H47.0703V41.2869Z" fill="white"/>
<path d="M40.5338 28.274C40.9513 27.7727 41.0244 26.8926 40.4364 26.3096L36.5945 22.4677C36.0225 21.8957 35.095 21.8957 34.5229 22.4677C33.9508 23.0397 33.9508 23.9672 34.5229 24.5393L35.8644 25.8808H29.9964C28.049 25.8808 26.4646 24.2964 26.4646 22.349V15.877C26.4646 12.3141 23.566 9.41545 20.003 9.41545H14.3361L15.6315 8.11995C16.2036 7.54797 16.2036 6.62043 15.6315 6.04836C15.0595 5.47639 14.132 5.47639 13.5599 6.04836L9.76403 9.84426C9.27555 10.326 9.12135 11.2982 9.76403 11.9163L13.606 15.7582C13.8921 16.0443 14.267 16.1873 14.6418 16.1873C15.0166 16.1873 15.3916 16.0443 15.6775 15.7582C16.2496 15.1863 16.2496 14.2587 15.6775 13.6866L14.336 12.3451H20.0029C21.9504 12.3451 23.5348 13.9295 23.5348 15.877V22.3489C23.5348 25.9117 26.4335 28.8104 29.9964 28.8104H35.8643L34.5688 30.1059C33.9967 30.6779 33.9967 31.6054 34.5688 32.1775C34.8548 32.4635 35.2297 32.6066 35.6046 32.6066C35.9794 32.6066 36.3544 32.4635 36.6403 32.1775L40.4362 28.3816C40.4707 28.3474 40.503 28.3115 40.5338 28.274Z" fill="white"/>
<path d="M35.8807 15.5915C38.6299 15.5915 40.8667 13.3547 40.8667 10.6054C40.8667 7.8561 38.63 5.61938 35.8807 5.61938C33.1313 5.61938 30.8945 7.8561 30.8945 10.6054C30.8945 13.3547 33.1313 15.5915 35.8807 15.5915ZM35.8807 8.54907C37.0145 8.54907 37.937 9.47153 37.937 10.6054C37.937 11.7393 37.0146 12.6618 35.8807 12.6618C34.7468 12.6618 33.8242 11.7393 33.8242 10.6054C33.8242 9.47153 34.7467 8.54907 35.8807 8.54907Z" fill="white"/>
<path d="M16.8164 25.1261C16.2443 24.554 15.3168 24.554 14.7448 25.1261L13.2907 26.5802L11.8366 25.1261C11.2646 24.5541 10.3371 24.5541 9.76499 25.1261C9.19292 25.698 9.19292 26.6256 9.76499 27.1977L11.2191 28.6518L9.76499 30.1059C9.19292 30.6778 9.19292 31.6054 9.76499 32.1774C10.051 32.4636 10.4258 32.6065 10.8007 32.6065C11.1755 32.6065 11.5505 32.4635 11.8365 32.1774L13.2906 30.7233L14.7447 32.1774C15.0307 32.4635 15.4056 32.6065 15.7804 32.6065C16.1552 32.6065 16.5302 32.4635 16.8162 32.1774C17.3882 31.6055 17.3882 30.6779 16.8162 30.1059L15.3621 28.6518L16.8162 27.1977C17.3884 26.6257 17.3884 25.6981 16.8164 25.1261Z" fill="white"/>
</g>
<defs>
<clipPath id="clip0_2801_6155">
<rect width="50" height="50" fill="white"/>
</clipPath>
</defs>
</svg>
