<svg width="40" height="40" viewBox="0 0 40 40" fill="none" xmlns="http://www.w3.org/2000/svg">
<g clip-path="url(#clip0_2801_6629)">
<path d="M36.8917 27.5948C37.4077 27.5948 37.8275 27.176 37.8275 26.6612V25.0393H39.0553C39.5761 25.0393 39.9999 24.6154 39.9999 24.0946V21.9509C39.9999 21.4301 39.576 21.0062 39.0553 21.0062H37.3669V14.5658C37.5322 14.6069 37.7017 14.6287 37.8724 14.6287C38.0579 14.6287 38.2448 14.6042 38.429 14.5547C38.9778 14.4072 39.4349 14.0562 39.7151 13.5679C39.9981 13.0788 40.0732 12.5071 39.9263 11.958C39.7793 11.4087 39.4285 10.9504 38.9385 10.6676L21.1381 0.390918C20.8122 0.201309 20.4185 0.101074 19.9998 0.101074C19.581 0.101074 19.1874 0.201309 18.8631 0.38998L1.06049 10.6679C0.0469764 11.2545 -0.301149 12.5551 0.284086 13.5672C0.566898 14.0572 1.02471 14.4081 1.57338 14.5551C1.92698 14.6497 2.2901 14.6518 2.63495 14.5658V21.0062H0.946586C0.425648 21.0062 0.00189829 21.43 0.00189829 21.9508V24.0945C0.00189829 24.6154 0.425726 25.0392 0.946586 25.0392H2.17424V26.6612C2.17424 27.176 2.59307 27.5947 3.10784 27.5947H3.81299V33.3101H3.10784C2.59307 33.3101 2.17424 33.7298 2.17424 34.2458V35.8656H0.946586C0.425648 35.8656 0.00189829 36.2894 0.00189829 36.8103V38.954C0.00189829 39.4748 0.425726 39.8987 0.946586 39.8987H18.7774C19.101 39.8987 19.3634 39.6363 19.3634 39.3127C19.3634 38.9891 19.1011 38.7268 18.7774 38.7268H1.1737V37.0375H38.8281V38.7268H21.4813C21.1577 38.7268 20.8953 38.9891 20.8953 39.3127C20.8953 39.6363 21.1576 39.8987 21.4813 39.8987H39.0553C39.5761 39.8987 39.9999 39.4748 39.9999 38.954V36.8103C39.9999 36.2894 39.576 35.8656 39.0553 35.8656H37.8275V34.2458C37.8275 33.7298 37.4077 33.3101 36.8917 33.3101H36.1867V27.5947H36.8917V27.5948ZM2.59807 13.3294C2.37885 13.4558 2.12276 13.489 1.87651 13.4231C1.63049 13.3572 1.42534 13.2004 1.29909 12.9815C1.29893 12.9812 1.29885 12.9811 1.2987 12.9808C1.03651 12.5278 1.19299 11.9451 1.64698 11.6824L19.4507 1.40389C19.5937 1.32068 19.7939 1.27295 19.9998 1.27295C20.2088 1.27295 20.4038 1.31943 20.5506 1.40482L38.3528 11.6826C38.5716 11.8088 38.7284 12.0142 38.7944 12.2609C38.8603 12.5073 38.8271 12.763 38.6999 12.9828C38.5749 13.2007 38.3707 13.357 38.125 13.4231C37.8787 13.4893 37.6228 13.4562 37.404 13.3296L20.2928 3.45045C20.2021 3.39811 20.101 3.37193 19.9998 3.37193C19.8986 3.37193 19.7974 3.39811 19.7068 3.45045L2.59807 13.3294ZM1.1737 22.1781H18.7774C19.101 22.1781 19.3634 21.9158 19.3634 21.5922C19.3634 21.2686 19.1011 21.0062 18.7774 21.0062H3.80674V13.9846L19.9998 4.63443L36.1951 13.9847V21.0062H21.3839C21.0603 21.0062 20.7979 21.2686 20.7979 21.5922C20.7979 21.9158 21.0602 22.1781 21.3839 22.1781H38.8281V23.8674H1.1737V22.1781ZM16.3671 26.4229V25.0393H23.6324V26.4229H16.3671ZM21.9915 27.5948V33.3101H18.0081V27.5948H21.9915ZM3.34612 26.4229V25.0393H10.6092V26.4229H3.34612ZM8.97049 27.5948V33.3101H4.98487V27.5948H8.97049ZM10.6092 35.8657H3.34612V34.482H10.6092V35.8657ZM15.1953 34.2459V35.8657H11.781V34.2459C11.781 33.7299 11.3622 33.3101 10.8474 33.3101H10.1423V27.5948H10.8474C11.3622 27.5948 11.781 27.176 11.781 26.6612V25.0393H15.1953V26.6612C15.1953 27.1761 15.6151 27.5948 16.131 27.5948H16.8362V33.3101H16.131C15.6151 33.3101 15.1953 33.7299 15.1953 34.2459ZM23.6324 35.8657H16.3671V34.482H23.6324V35.8657ZM28.2185 34.2459V35.8657H24.8042V34.2459C24.8042 33.7299 24.3844 33.3101 23.8685 33.3101H23.1634V27.5948H23.8685C24.3844 27.5948 24.8042 27.176 24.8042 26.6612V25.0393H28.2185V26.6612C28.2185 27.1761 28.6384 27.5948 29.1544 27.5948H29.8595V33.3101H29.1544C28.6384 33.3101 28.2185 33.7299 28.2185 34.2459ZM36.6557 34.482V35.8657H29.3904V34.482H36.6557ZM31.0314 33.3101V27.5948H35.0148V33.3101H31.0314ZM29.3904 26.4229V25.0393H36.6557V26.4229H29.3904Z" fill="white"/>
<path d="M22.5481 9.29709C22.5481 7.93975 21.4439 6.83545 20.0866 6.83545C18.7292 6.83545 17.625 7.93975 17.625 9.29709C17.625 10.6544 18.7292 11.7587 20.0866 11.7587C21.4439 11.7587 22.5481 10.6544 22.5481 9.29709ZM18.7969 9.29709C18.7969 8.58592 19.3755 8.00732 20.0866 8.00732C20.7977 8.00732 21.3762 8.58592 21.3762 9.29709C21.3762 10.0083 20.7977 10.5869 20.0866 10.5869C19.3755 10.5869 18.7969 10.0083 18.7969 9.29709Z" fill="white"/>
<path d="M12.9318 16.0355C13.0926 15.7827 13.1871 15.4837 13.1871 15.1625C13.1871 14.2621 12.4545 13.5295 11.5541 13.5295H10.2324C9.90875 13.5295 9.64648 13.7919 9.64648 14.1155V16.2107V16.2141V18.6657C9.64648 18.8216 9.70859 18.971 9.81906 19.0809C9.92883 19.1903 10.0775 19.2517 10.2324 19.2517H10.235C10.235 19.2517 11.4501 19.2463 11.785 19.2463C12.7834 19.2463 13.5957 18.434 13.5957 17.4356C13.5956 16.872 13.3368 16.3679 12.9318 16.0355ZM11.5541 14.7015C11.8084 14.7015 12.0152 14.9083 12.0152 15.1626C12.0152 15.4169 11.8084 15.6237 11.5541 15.6237C11.4575 15.6237 10.8184 15.6249 10.8184 15.6249V14.7016H11.5541V14.7015ZM11.785 18.0745C11.6067 18.0745 11.1798 18.076 10.8184 18.0774V16.7977C10.9047 16.7974 11.785 16.7967 11.785 16.7967C12.1373 16.7967 12.4238 17.0833 12.4238 17.4356C12.4238 17.7879 12.1372 18.0745 11.785 18.0745Z" fill="white"/>
<path d="M17.6625 13.9725C17.6606 13.9673 17.6585 13.962 17.6564 13.9568C17.5498 13.6972 17.2997 13.5295 17.0191 13.5295C17.0189 13.5295 17.0188 13.5295 17.0187 13.5295C16.7378 13.5297 16.4877 13.6977 16.3813 13.9576C16.3795 13.962 16.3777 13.9665 16.376 13.9709L14.6675 18.4571C14.5522 18.7595 14.7041 19.0981 15.0065 19.2132C15.3085 19.3284 15.6474 19.1767 15.7626 18.8742L16.0444 18.1343H17.9808L18.2594 18.8726C18.3479 19.1072 18.5709 19.2518 18.8077 19.2518C18.8764 19.2518 18.9464 19.2396 19.0145 19.2139C19.3172 19.0996 19.47 18.7616 19.3557 18.4588L17.6625 13.9725ZM16.4907 16.9625L17.017 15.5806L17.5385 16.9625H16.4907Z" fill="white"/>
<path d="M24.3435 13.5295C24.3416 13.5295 24.3396 13.5295 24.3377 13.5295C24.0141 13.5327 23.7543 13.7975 23.7574 14.1211L23.7837 16.8381L21.6795 13.791C21.5338 13.58 21.268 13.4884 21.0229 13.5646C20.7781 13.6409 20.6113 13.8676 20.6113 14.124V18.6658C20.6113 18.9894 20.8736 19.2517 21.1973 19.2517C21.5209 19.2517 21.7832 18.9894 21.7832 18.6658V16.0036L23.7862 18.904C23.9575 19.1517 24.244 19.2572 24.5156 19.1723C24.7927 19.0858 24.9718 18.8268 24.9718 18.5068L24.9293 14.1099C24.9262 13.7881 24.6645 13.5295 24.3435 13.5295Z" fill="white"/>
<path d="M30.3084 18.2441L28.2618 16.2696L30.1346 14.5482C30.3729 14.3292 30.3885 13.9585 30.1695 13.7202C29.9505 13.482 29.5798 13.4663 29.3416 13.6854L27.8457 15.0604V14.0586C27.8457 13.735 27.5834 13.4727 27.2598 13.4727C26.9361 13.4727 26.6738 13.735 26.6738 14.0586V18.6658C26.6738 18.9894 26.9361 19.2517 27.2598 19.2517C27.5834 19.2517 27.8457 18.9894 27.8457 18.6658V17.4964L29.4948 19.0875C29.6085 19.1972 29.7552 19.2518 29.9016 19.2518C30.0551 19.2518 30.2084 19.1919 30.3233 19.0727C30.548 18.8398 30.5414 18.4688 30.3084 18.2441Z" fill="white"/>
</g>
<defs>
<clipPath id="clip0_2801_6629">
<rect width="40" height="40" fill="white"/>
</clipPath>
</defs>
</svg>
