<svg width="40" height="40" viewBox="0 0 40 40" fill="none" xmlns="http://www.w3.org/2000/svg">
<g id="rating 1" clip-path="url(#clip0_2801_1110)">
<g id="Group">
<path id="Vector" d="M15.8204 8.05758L15.5821 11.0797C15.55 11.4863 15.7316 11.8802 16.0615 12.1198C16.3915 12.3595 16.8222 12.4105 17.1989 12.2544L19.9995 11.0938L22.8001 12.2543C23.175 12.4098 23.6068 12.3602 23.9375 12.1198C24.2675 11.8801 24.449 11.4861 24.417 11.0796L24.1787 8.0575L26.1479 5.75258C26.4128 5.44258 26.4974 5.01711 26.3714 4.6293C26.2454 4.24148 25.9268 3.94703 25.5303 3.85188L22.5825 3.14461L20.9989 0.559609C20.7857 0.211953 20.4073 0 19.9995 0C19.5917 0 19.2132 0.211953 19.0002 0.559687L17.4166 3.14469L14.4688 3.85195C14.0722 3.94711 13.7537 4.24148 13.6277 4.62937C13.5017 5.01719 13.5863 5.44266 13.8512 5.75266L15.8204 8.05758ZM18.4356 5.31039C18.7379 5.23789 18.999 5.04812 19.1614 4.78305L19.9995 3.41516L20.8375 4.78305C21 5.04812 21.2611 5.23789 21.5634 5.31039L23.1232 5.68469L22.0813 6.90438C21.8793 7.14078 21.7796 7.44773 21.804 7.75766L21.9301 9.3568L20.4482 8.74273C20.1609 8.62375 19.8382 8.62375 19.551 8.74273L18.069 9.3568L18.1951 7.75766C18.2196 7.44766 18.1198 7.14078 17.9179 6.90438L16.8759 5.68469L18.4356 5.31039Z" fill="white"/>
<path id="Vector_2" d="M39.9435 9.23867C39.8175 8.85086 39.4989 8.55641 39.1024 8.46125L36.1546 7.75399L34.571 5.16899C34.3579 4.82125 33.9795 4.6093 33.5718 4.6093C33.164 4.6093 32.7855 4.82125 32.5725 5.16899L30.9889 7.75399L28.0411 8.46125C27.6445 8.55641 27.326 8.85078 27.2 9.23867C27.0739 9.62649 27.1586 10.052 27.4235 10.362L29.3926 12.6669L29.1543 15.689C29.1223 16.0955 29.3039 16.4895 29.6338 16.7291C29.9638 16.9688 30.3945 17.0198 30.7712 16.8637L33.5718 15.7032L36.3724 16.8637C36.7472 17.0192 37.1791 16.9695 37.5098 16.7291C37.8397 16.4895 38.0213 16.0955 37.9893 15.689L37.751 12.6669L39.7201 10.362C39.9849 10.052 40.0696 9.62649 39.9435 9.23867ZM35.6535 11.5137C35.4515 11.75 35.3518 12.057 35.3762 12.367L35.5023 13.9662L34.0204 13.3521C33.7332 13.2331 33.4104 13.2331 33.1232 13.3521L31.6411 13.9662L31.7672 12.367C31.7917 12.057 31.6919 11.7501 31.49 11.5137L30.4479 10.294L32.0079 9.91977C32.3102 9.84727 32.5713 9.6575 32.7337 9.39242L33.5718 8.02453L34.4097 9.39242C34.5722 9.65758 34.8332 9.84727 35.1356 9.91977L36.6955 10.2941L35.6535 11.5137Z" fill="white"/>
<path id="Vector_3" d="M10.3672 16.7291C10.6971 16.4895 10.8786 16.0955 10.8466 15.689L10.6083 12.6669L12.5775 10.362C12.8424 10.052 12.927 9.62649 12.801 9.23867C12.675 8.85086 12.3564 8.55641 11.9599 8.46125L9.01207 7.75399L7.42848 5.16899C7.21543 4.82125 6.83699 4.6093 6.42918 4.6093C6.02137 4.6093 5.64293 4.82125 5.42988 5.16899L3.84629 7.75399L0.898478 8.46125C0.501916 8.55641 0.1834 8.85078 0.0573846 9.23867C-0.068631 9.62649 0.0159784 10.052 0.2809 10.362L2.25004 12.6669L2.01176 15.689C1.97973 16.0955 2.16129 16.4895 2.49121 16.7291C2.82192 16.9695 3.25379 17.0192 3.62863 16.8637L6.42918 15.7032L9.22981 16.8637C9.60645 17.0198 10.0373 16.9689 10.3672 16.7291ZM8.23363 12.367L8.35973 13.9662L6.8777 13.3521C6.59043 13.2331 6.2677 13.2331 5.98051 13.3521L4.49856 13.9662L4.62465 12.367C4.6491 12.057 4.54934 11.7501 4.34738 11.5137L3.30543 10.2941L4.86535 9.91977C5.1677 9.84727 5.42879 9.6575 5.59121 9.39242L6.42918 8.02453L7.26723 9.39242C7.42965 9.6575 7.69074 9.84727 7.99309 9.91977L9.55301 10.294L8.51098 11.5137C8.30895 11.7501 8.20918 12.057 8.23363 12.367Z" fill="white"/>
<path id="Vector_4" d="M33.3591 25.5765C32.5923 24.664 31.4691 24.1406 30.2773 24.1406H25.9136L26.6769 21.7644C26.8234 21.3175 26.8977 20.8537 26.8977 20.3859C26.8977 18.4641 25.6696 16.7723 23.8425 16.176C22.4798 15.7302 21.0085 16.4762 20.5614 17.843L18.7829 23.3512C18.568 24.0097 18.0501 24.5426 17.3978 24.7765L15.3906 25.4955V24.7656C15.3906 24.1184 14.8659 23.5937 14.2188 23.5937H8.28125C7.63406 23.5937 7.10938 24.1184 7.10938 24.7656V38.8281C7.10938 39.4753 7.63406 40 8.28125 40H14.2188C14.8659 40 15.3906 39.4753 15.3906 38.8281V37.7277C15.9922 37.7779 16.5511 38.0358 16.9822 38.4667C17.8846 39.3789 19.1644 39.9087 20.4492 39.9031H28.2375C30.5988 39.9031 32.6077 38.2148 33.0145 35.8883L34.2418 28.8583C34.4472 27.6848 34.1255 26.4887 33.3591 25.5765ZM13.0469 37.6562H9.45312V25.9375H13.0469V37.6562ZM31.9331 28.4547L30.7059 35.4848C30.4957 36.6869 29.4576 37.5594 28.2376 37.5594H20.4493C19.7782 37.5619 19.1119 37.2866 18.6405 36.8104C17.7656 35.9356 16.6186 35.4327 15.3906 35.3795V27.9852L18.1885 26.9828C19.5179 26.506 20.573 25.4203 21.012 24.0749L22.7903 18.5674C22.8342 18.4332 22.9792 18.3598 23.1145 18.4039C24.2002 18.7422 24.818 19.9652 24.4475 21.0409L23.1905 24.9541C22.9349 25.6812 23.5359 26.5053 24.3062 26.4844H30.2773C31.2909 26.4597 32.1323 27.4602 31.9331 28.4547Z" fill="white"/>
</g>
</g>
<defs>
<clipPath id="clip0_2801_1110">
<rect width="40" height="40" fill="white"/>
</clipPath>
</defs>
</svg>
