<svg width="40" height="40" viewBox="0 0 40 40" fill="none" xmlns="http://www.w3.org/2000/svg">
<g clip-path="url(#clip0_3023_677)">
<path d="M40 20C40 18.1668 39.3265 16.4045 38.1035 15.0376C36.509 13.2558 36.875 11.3607 36.875 10.625C36.875 6.48945 33.5105 3.125 29.375 3.125C28.7698 3.125 26.7802 3.52312 24.9624 1.89656C23.5955 0.673594 21.8333 0 20 0C18.1667 0 16.4045 0.673594 15.0377 1.89648C13.2243 3.51906 11.2413 3.125 10.625 3.125C6.25133 3.125 2.77586 6.87594 3.15273 11.2743C3.27039 12.6423 2.81258 14.0139 1.89648 15.0377C0.673516 16.4045 0 18.1668 0 20C0 21.8332 0.673516 23.5955 1.89648 24.9624C3.49102 26.7442 3.125 28.6393 3.125 29.375C3.125 33.7638 6.89227 37.2243 11.2744 36.8472C12.6022 36.733 13.9734 37.1512 15.0377 38.1034C16.4045 39.3264 18.1667 40 20 40C21.8333 40 23.5955 39.3264 24.9623 38.1035C26.7794 36.4777 28.7692 36.875 29.375 36.875C33.7487 36.875 37.2241 33.1241 36.8473 28.7257C36.7296 27.3577 37.1874 25.9861 38.1035 24.9623C39.3265 23.5955 40 21.8332 40 20ZM35.7747 22.8785C34.2864 24.5417 33.5425 26.7705 33.7337 28.9934C33.9554 31.5695 31.9187 33.75 29.375 33.75C28.8629 33.75 25.7292 33.2241 22.8785 35.7747C22.0855 36.4842 21.0633 36.875 20 36.875C18.9367 36.875 17.9145 36.4842 17.1214 35.7746C15.4477 34.277 13.239 33.5417 11.0066 33.7337C8.43078 33.9546 6.25 31.9196 6.25 29.375C6.25 28.7762 6.73344 25.6814 4.22531 22.8785C3.51578 22.0855 3.125 21.0633 3.125 20C3.125 18.9367 3.51578 17.9145 4.22531 17.1215C5.71359 15.4583 6.4575 13.2295 6.26633 11.0066C6.04461 8.43055 8.08133 6.25 10.625 6.25C11.137 6.25 14.2709 6.77586 17.1215 4.22531C17.9145 3.51578 18.9367 3.125 20 3.125C21.0633 3.125 22.0855 3.51578 22.8786 4.22539C25.7362 6.78227 28.9593 6.25 29.375 6.25C31.7874 6.25 33.75 8.21266 33.75 10.625C33.75 11.2238 33.2666 14.3186 35.7747 17.1215C36.4842 17.9145 36.875 18.9367 36.875 20C36.875 21.0633 36.4842 22.0855 35.7747 22.8785Z" fill="#6152D9"/>
<path d="M18.437 20.9152L16.4169 18.895L14.207 21.1047L18.437 25.3346L25.7919 17.9797L23.582 15.77L18.437 20.9152Z" fill="#6152D9"/>
<path d="M20 7.5C13.1074 7.5 7.5 13.1075 7.5 20C7.5 26.8925 13.1074 32.5 20 32.5C26.8926 32.5 32.5 26.8925 32.5 20C32.5 13.1075 26.8926 7.5 20 7.5ZM20 29.375C14.8306 29.375 10.625 25.1694 10.625 20C10.625 14.8306 14.8306 10.625 20 10.625C25.1694 10.625 29.375 14.8306 29.375 20C29.375 25.1694 25.1694 29.375 20 29.375Z" fill="#6152D9"/>
</g>
<defs>
<clipPath id="clip0_3023_677">
<rect width="40" height="40" fill="white"/>
</clipPath>
</defs>
</svg>
