<svg width="20" height="21" viewBox="0 0 20 21" fill="none" xmlns="http://www.w3.org/2000/svg">
<path fill-rule="evenodd" clip-rule="evenodd" d="M14.334 0C17.723 0 20 2.38418 20 5.93138V14.1206C20 17.6678 17.723 20.052 14.333 20.052H5.665C2.276 20.052 0 17.6678 0 14.1206V5.93138C0 2.38418 2.276 0 5.665 0H14.334ZM14.334 1.5039H5.665C3.135 1.5039 1.5 3.24141 1.5 5.93138V14.1206C1.5 16.8106 3.135 18.5481 5.665 18.5481H14.333C16.864 18.5481 18.5 16.8106 18.5 14.1206V5.93138C18.5 3.24141 16.865 1.5039 14.334 1.5039ZM9.9991 4.8963C10.4131 4.8963 10.7491 5.23317 10.7491 5.64825V9.59448L13.7751 11.4022C14.1301 11.6157 14.2471 12.0769 14.0351 12.4338C13.8941 12.6695 13.6451 12.8008 13.3901 12.8008C13.2591 12.8008 13.1271 12.7667 13.0061 12.6955L9.6151 10.6673C9.3891 10.5309 9.2491 10.2853 9.2491 10.0216V5.64825C9.2491 5.23317 9.5851 4.8963 9.9991 4.8963Z" fill="#6152D9"/>
</svg>
