<svg width="40" height="40" viewBox="0 0 40 40" fill="none" xmlns="http://www.w3.org/2000/svg">
<path d="M5.00293 6.0415C3.63234 6.0415 2.49805 7.1758 2.49805 8.54639V27.7082C2.49805 29.0788 3.63235 30.2114 5.00293 30.2114H20.5238V31.4614C20.5238 32.832 21.6499 33.9582 23.0205 33.9582H30.3171C31.6876 33.9582 32.8138 32.832 32.8138 31.4614V30.2114H35.0046C36.3751 30.2114 37.5013 29.0788 37.5013 27.7082V8.54639C37.5013 7.1758 36.3751 6.0415 35.0046 6.0415H5.00293ZM5.00293 7.7098H35.0046C35.4806 7.7098 35.8346 8.0703 35.8346 8.54639V12.2915H4.16634V8.54639C4.16634 8.0703 4.52685 7.7098 5.00293 7.7098ZM4.16634 13.9598H35.8346V27.7082C35.8346 28.1843 35.4806 28.5448 35.0046 28.5448H32.8138V25.9552C32.8138 24.838 32.0605 23.894 31.0413 23.5789V22.0799C31.0413 19.6734 29.077 17.7114 26.668 17.7114C24.2589 17.7114 22.2946 19.6734 22.2946 22.0799V23.5789C21.2758 23.8942 20.5238 24.8383 20.5238 25.9552V28.5448H5.00293C4.52685 28.5448 4.16634 28.1843 4.16634 27.7082V13.9598ZM26.668 19.3797C28.1846 19.3797 29.3747 20.57 29.3747 22.0799V23.4569H23.9548V22.0799C23.9548 20.57 25.1514 19.3797 26.668 19.3797ZM8.33626 20.6281C7.87586 20.6263 7.50126 20.9978 7.49967 21.4582C7.49785 21.921 7.87346 22.2966 8.33626 22.2948H16.6663C17.1291 22.2966 17.5048 21.921 17.5029 21.4582C17.5013 20.9978 17.1267 20.6263 16.6663 20.6281H8.33626ZM8.33626 24.7915C7.87346 24.7897 7.49785 25.1669 7.49967 25.6297C7.50126 26.0901 7.87586 26.4616 8.33626 26.4598H14.168C14.626 26.4582 14.9965 26.0877 14.998 25.6297C14.9999 25.1693 14.6284 24.7931 14.168 24.7915H8.33626ZM23.0205 25.1252H30.3171C30.7931 25.1252 31.1471 25.4792 31.1471 25.9552V31.4614C31.1471 31.9375 30.7931 32.2915 30.3171 32.2915H23.0205C22.5444 32.2915 22.1839 31.9375 22.1839 31.4614C22.1863 29.6238 22.1854 27.794 22.1904 25.9552C22.1922 25.3076 22.6221 25.1252 23.0205 25.1252ZM26.668 26.6258C26.2052 26.624 25.8296 26.9996 25.8314 27.4624V29.9543C25.8295 30.4171 26.2052 30.7927 26.668 30.7908C27.1284 30.7893 27.4999 30.4147 27.498 29.9543V27.4624C27.4999 27.002 27.1284 26.6274 26.668 26.6258Z" fill="white"/>
</svg>
