<svg width="80" height="80" viewBox="0 0 80 80" fill="none" xmlns="http://www.w3.org/2000/svg">
<g clip-path="url(#clip0_2801_5857)">
<path d="M44.6819 23.5938H35.3069C34.0125 23.5938 32.9631 24.6431 32.9631 25.9375V28.2812H25.9319C24.6375 28.2812 23.5881 29.3306 23.5881 30.625C23.5881 36.9373 23.5859 49.3667 23.5859 49.375C23.5859 50.6694 24.6353 51.7188 25.9297 51.7188H54.0569C55.3512 51.7188 56.4006 50.6694 56.4006 49.375V35.3125C56.4006 34.0181 55.3512 32.9688 54.0569 32.9688H47.0256V25.9375C47.0256 24.6431 45.9762 23.5938 44.6819 23.5938ZM32.9631 47.0312H28.2745L28.2756 32.9688H32.9631V47.0312ZM42.3381 47.0312H37.6506V28.2812H42.3381V47.0312ZM51.7131 37.6562V47.0312H47.0256V37.6562H51.7131Z" fill="#E8112B"/>
<path d="M35.229 65.8712C24.4338 64.046 15.9568 55.5703 14.1352 44.7803C13.9448 43.6523 12.9679 42.8267 11.8241 42.8267H2.34962C1.67727 42.8267 1.03759 43.1154 0.592587 43.6193C0.147587 44.1234 -0.0594438 44.7942 0.0239937 45.4612C1.11306 54.1745 5.14446 62.4039 11.3754 68.6332C17.6051 74.8612 25.8343 78.8917 34.5473 79.9818C34.6445 79.994 34.7415 79.9999 34.8384 79.9999C35.4062 79.9999 35.9585 79.7935 36.3893 79.4134C36.8934 78.9685 37.182 78.3285 37.182 77.6562V68.1821C37.182 67.0385 36.3566 66.0618 35.229 65.8712ZM32.4945 74.8996C18.6918 72.1038 7.8993 61.3128 5.10571 47.5142H9.90899C12.5563 58.6867 21.3177 67.4465 32.4945 70.097V74.8996Z" fill="#E8112B"/>
<path d="M2.34962 37.5H11.8243C12.9681 37.5 13.9449 36.6744 14.1354 35.5464C16.237 23.0978 26.9152 14.0625 39.5257 14.0625C44.882 14.0625 50.0377 15.7191 54.4359 18.8531C55.3684 19.5175 56.6441 19.4111 57.4534 18.6017L64.1523 11.903C64.6277 11.4275 64.8762 10.7706 64.8342 10.0995C64.7921 9.42844 64.4641 8.80766 63.9331 8.395C56.8662 2.90297 48.4262 0 39.5257 0C19.4906 0 2.50837 14.9889 0.0239937 34.8656C-0.0594438 35.5327 0.147587 36.2034 0.592587 36.7075C1.03743 37.2113 1.67728 37.5 2.34962 37.5ZM39.5257 4.6875C46.4845 4.6875 53.1265 6.70156 58.8899 10.5361L55.4954 13.9305C50.6806 10.9441 45.1996 9.375 39.5257 9.375C25.446 9.375 13.1706 19.0991 9.90993 32.8125H5.10618C8.39399 16.6031 22.7462 4.6875 39.5257 4.6875Z" fill="#E8112B"/>
<path d="M69.8964 15.1716C69.2258 15.1293 68.5686 15.3779 68.0931 15.8535L61.3944 22.5523C60.5848 23.3616 60.4786 24.6374 61.143 25.5698C64.277 29.9677 65.9336 35.1237 65.9336 40.4799C65.9336 53.0904 56.8983 63.7687 44.4497 65.8705C43.3217 66.061 42.4961 67.0377 42.4961 68.1816V77.6562C42.4961 78.3284 42.7848 78.9684 43.2887 79.4132C43.7194 79.7934 44.2719 79.9999 44.8397 79.9999C44.9364 79.9999 45.0334 79.994 45.1305 79.9818C65.007 77.4976 79.9961 60.5154 79.9961 40.4799C79.9961 31.5794 77.0931 23.1395 71.6009 16.0726C71.1883 15.5416 70.5677 15.2135 69.8964 15.1716ZM47.1834 74.8993V70.0957C60.8731 66.8405 70.6209 54.5843 70.6209 40.4798C70.6209 34.8059 69.0519 29.3249 66.0655 24.5099L69.4598 21.1155C73.2945 26.8788 75.3086 33.5209 75.3086 40.4796C75.3084 57.2596 63.393 71.6118 47.1834 74.8993Z" fill="#E8112B"/>
</g>
<defs>
<clipPath id="clip0_2801_5857">
<rect width="80" height="80" fill="white"/>
</clipPath>
</defs>
</svg>
