<svg width="55" height="55" viewBox="0 0 55 55" fill="none" xmlns="http://www.w3.org/2000/svg">
<circle cx="27.5" cy="27.5" r="26" fill="#E8112B" stroke="white" stroke-width="3"/>
<g clip-path="url(#clip0_3519_1171)">
<path d="M32.3673 15.7577C32.869 15.7577 33.2757 15.3511 33.2757 14.8494V12.9036C33.2277 11.6984 31.5065 11.6993 31.459 12.9036V14.8494C31.459 15.3511 31.8657 15.7577 32.3673 15.7577Z" fill="white"/>
<path d="M42.0975 21.7244H40.1516C38.9464 21.7724 38.9473 23.4935 40.1516 23.5411H42.0975C43.3027 23.4931 43.3018 21.772 42.0975 21.7244Z" fill="white"/>
<path d="M38.5136 17.7712L39.8893 16.3953C40.244 16.0405 40.2439 15.4654 39.8892 15.1107C39.5344 14.756 38.9593 14.7561 38.6046 15.1108L37.2289 16.4868C36.8742 16.8415 36.8742 17.4167 37.229 17.7714C37.5838 18.1261 38.1589 18.126 38.5136 17.7712Z" fill="white"/>
<path d="M36.3423 25.3233C39.228 20.9081 34.0883 15.7727 29.6765 18.6575L26.1989 15.1799C25.96 14.9409 25.6081 14.8545 25.2857 14.9552C24.9633 15.0559 24.7233 15.3273 24.6629 15.6597L23.9133 19.7826C17.4089 19.6035 11.9899 24.8815 12 31.3891C12 37.7913 17.2085 42.9998 23.6107 42.9998C30.118 43.0099 35.3966 37.5909 35.2172 31.0865L39.3402 30.3369C39.6726 30.2765 39.944 30.0366 40.0447 29.7141C40.1455 29.3916 40.0589 29.0399 39.82 28.801L36.3423 25.3233ZM32.3671 19.6493C34.5772 19.6292 36.0483 22.0521 35.0196 24.0005L30.9991 19.9802C31.4171 19.7639 31.8833 19.6493 32.3671 19.6493ZM27.1908 31.3891L21.9956 36.5844C21.8132 36.7667 21.5164 36.7667 21.3342 36.5845L18.4152 33.6653C18.2331 33.4832 18.2317 33.188 18.4153 33.0044L23.6106 27.8089L27.1908 31.3891ZM23.6107 41.1831C10.6304 40.646 10.617 22.1619 23.5838 21.5952L22.7678 26.0828L17.1309 31.7197C16.2373 32.6129 16.2383 34.0581 17.1308 34.9501L20.0498 37.8693C20.654 38.4733 21.6073 38.7305 22.5041 38.3777L25.1828 41.0563C24.6707 41.1392 24.1458 41.1831 23.6107 41.1831ZM27.1997 40.5039L23.9223 37.2267L25.5566 35.5925L29.3142 39.3503C28.6584 39.8221 27.951 40.2081 27.1997 40.5039ZM30.6869 38.1538L26.8411 34.308L28.9169 32.2321L33.4046 31.4162C33.3976 34.0267 32.3639 36.4004 30.6869 38.1538ZM28.7811 30.4103L24.5895 26.2186L26.1401 17.6903L37.3095 28.8597L28.7811 30.4103Z" fill="white"/>
</g>
<defs>
<clipPath id="clip0_3519_1171">
<rect width="31" height="31" fill="white" transform="translate(12 12)"/>
</clipPath>
</defs>
</svg>
