<svg width="21" height="21" viewBox="0 0 21 21" fill="none" xmlns="http://www.w3.org/2000/svg">
<path fill-rule="evenodd" clip-rule="evenodd" d="M19.5264 12.9362C19.9449 12.9677 20.2579 13.3344 20.2265 13.754L20.034 16.3026C19.875 18.4053 18.105 20.0519 16.0026 20.0519H4.24992C2.14761 20.0519 0.377607 18.4053 0.21854 16.3026L0.0260383 13.754C-0.00536977 13.3344 0.308711 12.9677 0.727149 12.9362C1.14761 12.921 1.51033 13.2186 1.54275 13.6392L1.73423 16.1868C1.83353 17.4992 2.93788 18.5282 4.24992 18.5282H16.0026C17.3147 18.5282 18.4201 17.4992 18.5183 16.1868L18.7108 13.6392C18.7433 13.2186 19.1151 12.92 19.5264 12.9362ZM11.4335 0C12.9562 0 14.2177 1.14405 14.4077 2.61976L16.4031 2.62065C18.5267 2.62065 20.2532 4.35664 20.2532 6.49184V9.98516C20.2532 10.2564 20.1093 10.5063 19.8773 10.6424C17.3765 12.1107 14.2085 12.9671 10.886 13.0814L10.8864 14.9084C10.8864 15.3289 10.5459 15.6702 10.1265 15.6702C9.70703 15.6702 9.36661 15.3289 9.36661 14.9084L9.36595 13.0816C6.04675 12.9684 2.87856 12.1118 0.375884 10.6424C0.142856 10.5063 0 10.2564 0 9.98516V6.48168C0 4.35258 1.7315 2.62065 3.86016 2.62065L5.84526 2.61976C6.03527 1.14405 7.29678 0 8.8195 0H11.4335ZM16.4031 4.14434H3.86016C2.56939 4.14434 1.51975 5.19264 1.51975 6.48168V9.54125C3.92471 10.8514 6.95663 11.5694 10.1124 11.5708L10.1265 11.5695L10.1377 11.5699L10.6202 11.5649C13.6047 11.4936 16.4519 10.7836 18.7334 9.54125V6.49184C18.7334 5.1967 17.6889 4.14434 16.4031 4.14434ZM11.4335 1.52369H8.8195C8.13729 1.52369 7.56141 1.9892 7.39129 2.62002H12.8617C12.6916 1.9892 12.1157 1.52369 11.4335 1.52369Z" fill="#E8112B"/>
</svg>
