<svg width="33" height="40" viewBox="0 0 33 40" fill="none" xmlns="http://www.w3.org/2000/svg">
<path d="M5.51603 16.4851V8.68942L7.03107 10.2045L8.6883 8.54723L4.34419 4.20312L0 8.54723L1.65722 10.2045L3.17234 8.68942V16.4851H5.51603Z" fill="#6152D9"/>
<path d="M28.9535 8.68942L30.4686 10.2045L32.1258 8.54723L27.7817 4.20312L23.4375 8.54723L25.0947 10.2045L26.6098 8.68942V16.4851H28.9535V8.68942Z" fill="#6152D9"/>
<path d="M17.2348 11.7976V4.48629L18.7498 6.00141L20.407 4.34411L16.0629 0L11.7188 4.34411L13.376 6.00141L14.8911 4.48629V11.7976H17.2348Z" fill="#6152D9"/>
<path d="M16.0624 30.5471C15.4163 30.5471 14.8906 30.0214 14.8906 29.3752H12.5469C12.5469 30.9029 13.5266 32.2055 14.8906 32.6892V35.3126H17.2343V32.6892C18.5982 32.2055 19.5779 30.9029 19.5779 29.3752C19.5779 27.4368 18.0009 25.8597 16.0624 25.8597C15.4163 25.8597 14.8906 25.334 14.8906 24.6878C14.8906 24.0417 15.4163 23.516 16.0624 23.516C16.7086 23.516 17.2343 24.0417 17.2343 24.6878H19.5779C19.5779 23.1601 18.5982 21.8576 17.2343 21.3739V18.8286H14.8906V21.3739C13.5266 21.8576 12.5469 23.1601 12.5469 24.6878C12.5469 26.6263 14.1239 28.2034 16.0624 28.2034C16.7086 28.2034 17.2343 28.7291 17.2343 29.3752C17.2343 30.0214 16.7086 30.5471 16.0624 30.5471Z" fill="#6152D9"/>
<path d="M16.0622 40.0001C23.1718 40.0001 28.9525 34.1517 28.9525 27.0317C28.9525 19.9239 23.1699 14.1414 16.0622 14.1414C8.95446 14.1414 3.17188 19.9239 3.17188 27.0317C3.17188 34.1418 8.9436 40.0001 16.0622 40.0001ZM16.0622 16.485C21.8776 16.485 26.6088 21.2163 26.6088 27.0317C26.6088 32.8902 21.8776 37.6564 16.0622 37.6564C10.2468 37.6564 5.51557 32.8902 5.51557 27.0317C5.51557 21.2163 10.2467 16.485 16.0622 16.485Z" fill="#6152D9"/>
</svg>
