<svg width="40" height="40" viewBox="0 0 40 40" fill="none" xmlns="http://www.w3.org/2000/svg">
<g clip-path="url(#clip0_2801_1094)">
<path d="M22.3438 10.5859H23.7634C23.941 11.6229 24.3498 12.582 24.935 13.4077L23.9292 14.4136C23.4716 14.8712 23.4716 15.6132 23.9292 16.0709C24.158 16.2997 24.458 16.4141 24.7578 16.4141C25.0577 16.4141 25.3577 16.2997 25.5865 16.0709L26.5923 15.0651C27.418 15.6503 28.377 16.0591 29.4141 16.2366V17.6562C29.4141 18.3034 29.9388 18.8281 30.5859 18.8281C31.2331 18.8281 31.7578 18.3034 31.7578 17.6562V16.2366C32.7948 16.059 33.7539 15.6502 34.5796 15.065L35.5854 16.0708C35.8143 16.2997 36.1141 16.4141 36.4141 16.4141C36.7139 16.4141 37.0139 16.2996 37.2427 16.0708C37.7003 15.6132 37.7003 14.8712 37.2427 14.4135L36.2369 13.4077C36.8221 12.582 37.2309 11.6229 37.4084 10.5859H38.8281C39.4753 10.5859 40 10.0612 40 9.41398C40 8.7668 39.4753 8.24211 38.8281 8.24211H37.4084C37.2309 7.20516 36.8221 6.24609 36.2369 5.42031L37.2427 4.41445C37.7002 3.95688 37.7002 3.21484 37.2427 2.75719C36.7851 2.29961 36.043 2.29961 35.5854 2.75719L34.5796 3.76297C33.7539 3.17773 32.7948 2.76898 31.7578 2.59141V1.17188C31.7578 0.524687 31.2331 0 30.5859 0C29.9388 0 29.4141 0.524687 29.4141 1.17188V2.59156C28.377 2.76914 27.418 3.17789 26.5923 3.76312L25.5865 2.75734C25.1288 2.29961 24.3869 2.29977 23.9292 2.75734C23.4716 3.21492 23.4716 3.95695 23.9292 4.41461L24.935 5.42047C24.3498 6.24617 23.941 7.20523 23.7634 8.24227H22.3438C21.6966 8.24227 21.1719 8.76695 21.1719 9.41414C21.1719 10.0613 21.6966 10.5859 22.3438 10.5859ZM30.5859 4.83563C33.1105 4.83563 35.1644 6.88953 35.1644 9.41406C35.1644 11.9386 33.1105 13.9925 30.5859 13.9925C28.0614 13.9925 26.0075 11.9386 26.0075 9.41406C26.0075 6.88953 28.0614 4.83563 30.5859 4.83563Z" fill="white"/>
<path d="M17.6562 0H1.17188C0.524687 0 0 0.524687 0 1.17188V17.6562C0 18.3034 0.524687 18.8281 1.17188 18.8281H17.6562C18.3034 18.8281 18.8281 18.3034 18.8281 17.6562V1.17188C18.8281 0.524687 18.3034 0 17.6562 0ZM16.4844 16.4844H2.34375V2.34375H16.4844V16.4844Z" fill="white"/>
<path d="M17.6562 21.1719H1.17188C0.524687 21.1719 0 21.6966 0 22.3438V38.8281C0 39.4753 0.524687 40 1.17188 40H17.6562C18.3034 40 18.8281 39.4753 18.8281 38.8281V22.3438C18.8281 21.6966 18.3034 21.1719 17.6562 21.1719ZM16.4844 37.6562H2.34375V23.5156H16.4844V37.6562Z" fill="white"/>
<path d="M6.32762 33.6724C6.55645 33.9012 6.85637 34.0157 7.15621 34.0157C7.45605 34.0157 7.75606 33.9012 7.98481 33.6724L9.41402 32.2432L10.8432 33.6724C11.0721 33.9012 11.372 34.0157 11.6718 34.0157C11.9717 34.0157 12.2717 33.9012 12.5004 33.6724C12.9581 33.2148 12.9581 32.4728 12.5004 32.0152L11.0714 30.5859L12.5006 29.1567C12.9582 28.6991 12.9582 27.9571 12.5006 27.4994C12.043 27.0419 11.301 27.0419 10.8433 27.4994L9.4141 28.9287L7.98488 27.4994C7.52731 27.0419 6.78527 27.0419 6.32762 27.4994C5.86996 27.957 5.86996 28.6991 6.32762 29.1567L7.75684 30.5859L6.32762 32.0152C5.86996 32.4727 5.86996 33.2148 6.32762 33.6724Z" fill="white"/>
<path d="M38.8281 21.1719H22.3438C21.6966 21.1719 21.1719 21.6966 21.1719 22.3438V38.8281C21.1719 39.4753 21.6966 40 22.3438 40H38.8281C39.4753 40 40 39.4753 40 38.8281V22.3438C40 21.6966 39.4753 21.1719 38.8281 21.1719ZM37.6562 37.6562H23.5156V23.5156H37.6562V37.6562Z" fill="white"/>
<path d="M7.65457 12.2022C7.8834 12.431 8.18332 12.5455 8.48316 12.5455C8.78301 12.5455 9.08301 12.431 9.31176 12.2022L13.2307 8.28329C13.6883 7.82571 13.6883 7.08368 13.2307 6.62602C12.7731 6.16844 12.0311 6.16844 11.5734 6.62602L8.48309 9.71633L7.25441 8.4875C6.79684 8.02993 6.0548 8.02993 5.59715 8.4875C5.13949 8.94508 5.13949 9.68711 5.59715 10.1448L7.65457 12.2022Z" fill="white"/>
<path d="M28.8266 33.3741C29.0554 33.6029 29.3554 33.7174 29.6552 33.7174C29.955 33.7174 30.255 33.6029 30.4838 33.3741L34.4027 29.4552C34.8604 28.9976 34.8604 28.2556 34.4027 27.7979C33.9451 27.3403 33.2031 27.3403 32.7454 27.7979L29.6551 30.8882L28.4263 29.6594C27.9687 29.2018 27.2267 29.2018 26.769 29.6594C26.3114 30.117 26.3114 30.859 26.769 31.3166L28.8266 33.3741Z" fill="white"/>
<path d="M30.5859 10.5859C31.2331 10.5859 31.7578 10.0613 31.7578 9.41406C31.7578 8.76685 31.2331 8.24219 30.5859 8.24219C29.9387 8.24219 29.4141 8.76685 29.4141 9.41406C29.4141 10.0613 29.9387 10.5859 30.5859 10.5859Z" fill="white"/>
</g>
<defs>
<clipPath id="clip0_2801_1094">
<rect width="40" height="40" fill="white"/>
</clipPath>
</defs>
</svg>
