<svg width="70" height="70" viewBox="0 0 70 70" fill="none" xmlns="http://www.w3.org/2000/svg">
<g clip-path="url(#clip0_2801_6112)">
<path d="M11.952 16.4062C11.1054 14.0193 8.82588 12.3047 6.15234 12.3047C2.75994 12.3047 0 15.0646 0 18.457C0 21.8494 2.75994 24.6094 6.15234 24.6094C8.82588 24.6094 11.1054 22.8946 11.952 20.5078H32.9492V28.7109H10.3906C9.25805 28.7109 8.33984 29.6291 8.33984 30.7617C8.33984 38.0249 11.318 44.9833 16.543 49.9997V67.9492C16.543 69.0818 17.4612 70 18.5938 70H43.2031C44.3357 70 45.2539 69.0818 45.2539 67.9492V57.4219H55.5078C58.9002 57.4219 61.6602 54.6619 61.6602 51.2695V41.0156H67.9492C68.7084 41.0156 69.4054 40.5963 69.761 39.9256C70.1168 39.2548 70.0727 38.4426 69.6469 37.8142L61.6526 26.0195C61.3151 11.6043 49.5421 0 35 0.000136719C33.8674 0.000136719 32.9492 0.91834 32.9492 2.05092V4.10156H24.2566C23.4101 1.71459 21.1306 0 18.457 0C15.0646 0 12.3047 2.75994 12.3047 6.15234C12.3047 9.54475 15.0646 12.3047 18.457 12.3047C21.1306 12.3047 23.4101 10.5901 24.2566 8.20312H32.9492V16.4062H11.952ZM6.15234 20.5078C5.02154 20.5078 4.10156 19.5878 4.10156 18.457C4.10156 17.3262 5.02154 16.4062 6.15234 16.4062C7.28315 16.4062 8.20313 17.3262 8.20313 18.457C8.20313 19.5878 7.28315 20.5078 6.15234 20.5078ZM18.457 8.20312C17.3262 8.20312 16.4063 7.28314 16.4063 6.15234C16.4063 5.02154 17.3262 4.10156 18.457 4.10156C19.5878 4.10156 20.5078 5.02154 20.5078 6.15234C20.5078 7.28314 19.5878 8.20312 18.457 8.20312ZM55.1048 16.4062C56.4037 18.9463 57.2071 21.7208 57.4658 24.6094H49.3555C47.0939 24.6094 45.2539 22.7694 45.2539 20.5078C45.2539 18.2462 47.0939 16.4062 49.3555 16.4062H55.1048ZM37.0508 4.19303C43.1139 4.7358 48.5666 7.67061 52.4032 12.3047H49.3555C44.8323 12.3047 41.1523 15.9846 41.1523 20.5078C41.1523 25.031 44.8323 28.7109 49.3555 28.7109H58.5219L64.0819 36.9141H59.6094C58.4768 36.9141 57.5586 37.8323 57.5586 38.9648V51.2695C57.5586 52.4003 56.6386 53.3203 55.5078 53.3203H53.457V43.0664C53.457 42.421 53.1531 41.8131 52.6367 41.4258L37.0508 29.7363V4.19303ZM34.3164 32.8125L49.3555 44.0918V53.3203H43.2031C42.0706 53.3203 41.1523 54.2385 41.1523 55.3711V65.8984H20.6445V49.1049C20.6445 48.5215 20.3961 47.9657 19.9615 47.5768C15.6952 43.7582 13.0531 38.4638 12.5352 32.8125H34.3164Z" fill="#6152D9"/>
</g>
<defs>
<clipPath id="clip0_2801_6112">
<rect width="70" height="70" fill="white"/>
</clipPath>
</defs>
</svg>
