<svg width="80" height="80" viewBox="0 0 80 80" fill="none" xmlns="http://www.w3.org/2000/svg">
<circle cx="40" cy="40" r="40" fill="#E8112B"/>
<path d="M48.9104 42.1112C48.8049 42.2194 48.4067 42.6824 48.0357 43.0632C45.8608 45.4581 40.1872 49.3781 37.2176 50.5746C36.7666 50.7669 35.6264 51.1738 35.0172 51.1999C34.4335 51.1999 33.8771 51.0655 33.3461 50.793C32.6841 50.4122 32.1531 49.813 31.8622 49.1055C31.6749 48.6146 31.3839 47.1456 31.3839 47.1194C31.093 45.5122 30.9329 42.9008 30.9329 40.0149C30.9329 37.2653 31.093 34.7602 31.3312 33.1288C31.3585 33.1026 31.6494 31.277 31.9677 30.6517C32.5514 29.5093 33.6916 28.8 34.9118 28.8L35.0172 28.8C35.8119 28.828 37.4831 29.5373 37.4831 29.5634C40.2926 30.7618 45.8354 34.4896 48.063 36.9666C48.063 36.9666 48.6904 37.6032 48.9631 38.0008C49.3887 38.572 49.5996 39.2794 49.5996 39.9869C49.5996 40.7765 49.3614 41.512 48.9104 42.1112Z" fill="white"/>
</svg>
