<svg width="50" height="50" viewBox="0 0 50 50" fill="none" xmlns="http://www.w3.org/2000/svg">
<g clip-path="url(#clip0_2801_6180)">
<path d="M48.5352 33.2079H40.589V25.9234C40.589 25.1137 39.9331 24.4571 39.1241 24.4571H31.1683V13.4413H35.4277C36.0202 13.4413 36.5543 13.0841 36.7811 12.5362C37.0078 11.9883 36.8825 11.3576 36.4637 10.9383L25.9671 0.429504C25.3953 -0.143054 24.4679 -0.143152 23.8957 0.429114L13.5312 10.7982C13.1121 11.2174 12.9866 11.8482 13.2134 12.3962C13.44 12.9443 13.9742 13.3016 14.5668 13.3016H18.8263V24.4571H10.8735C10.0646 24.4571 9.40869 25.1136 9.40869 25.9234V33.2079H1.46484C0.655859 33.2079 0 33.8644 0 34.6742V48.5337C0 49.3436 0.655859 50 1.46484 50H48.5352C49.3441 50 50 49.3436 50 48.5337V34.6742C50 33.8645 49.3441 33.2079 48.5352 33.2079ZM9.40869 47.0674H2.92969V36.1405H9.40869V47.0674ZM18.8263 47.0674H12.3474L12.3384 27.3897H18.8263V47.0674ZM28.2386 11.975V47.165H21.7562L21.7561 11.8352C21.7561 11.0254 21.1002 10.3689 20.2912 10.3689H18.1047L24.9309 3.53956L31.8917 10.5086H29.7034C28.8943 10.5087 28.2386 11.1651 28.2386 11.975ZM37.6525 47.0674H31.1712V27.3897H37.6592L37.6525 47.0674ZM47.0703 47.0674H40.589V36.1405H47.0703V47.0674Z" fill="white"/>
</g>
<defs>
<clipPath id="clip0_2801_6180">
<rect width="50" height="50" fill="white"/>
</clipPath>
</defs>
</svg>
