<svg width="70" height="70" viewBox="0 0 70 70" fill="none" xmlns="http://www.w3.org/2000/svg">
<g clip-path="url(#clip0_2801_6069)">
<path d="M39.0976 20.6445H30.8945C29.7619 20.6445 28.8437 21.5627 28.8437 22.6953V24.7461H22.6914C21.5588 24.7461 20.6406 25.6643 20.6406 26.7969C20.6406 32.3202 20.6387 43.1959 20.6387 43.2031C20.6387 44.3357 21.5569 45.2539 22.6895 45.2539H47.3007C48.4333 45.2539 49.3515 44.3357 49.3515 43.2031V30.8984C49.3515 29.7659 48.4333 28.8477 47.3007 28.8477H41.1484V22.6953C41.1484 21.5627 40.2302 20.6445 39.0976 20.6445ZM28.8437 41.1523H24.7412L24.7421 28.8477H28.8437V41.1523ZM37.0468 41.1523H32.9453V24.7461H37.0468V41.1523ZM45.25 32.9492V41.1523H41.1484V32.9492H45.25Z" fill="#6152D9"/>
<path d="M30.8261 57.6374C21.3803 56.0403 13.9629 48.624 12.3691 39.1828C12.2024 38.1958 11.3476 37.4734 10.3469 37.4734H2.05665C1.46835 37.4734 0.908621 37.726 0.519246 38.167C0.129871 38.608 -0.0512809 39.195 0.0217269 39.7786C0.974657 47.4027 4.50214 54.6034 9.95421 60.0541C15.4052 65.5036 22.6058 69.0303 30.2296 69.9842C30.3146 69.9948 30.3995 70 30.4843 70C30.9811 70 31.4644 69.8194 31.8414 69.4868C32.2824 69.0975 32.535 68.5375 32.535 67.9492V59.6594C32.535 58.6588 31.8128 57.8042 30.8261 57.6374ZM28.4334 65.5372C16.3561 63.0909 6.91262 53.6487 4.46823 41.575H8.6711C10.9875 51.3509 18.6538 59.0158 28.4334 61.3349V65.5372Z" fill="#6152D9"/>
<path d="M2.05665 32.8125H10.347C11.3478 32.8125 12.2025 32.0901 12.3692 31.1031C14.2081 20.2106 23.5516 12.3047 34.5857 12.3047C39.2724 12.3047 43.7838 13.7542 47.6321 16.4965C48.4481 17.0778 49.5644 16.9847 50.2724 16.2765L56.134 10.4151C56.55 9.99906 56.7674 9.4243 56.7306 8.83709C56.6938 8.24988 56.4069 7.7067 55.9422 7.34562C49.7586 2.5401 42.3736 0 34.5857 0C17.055 0 2.19555 13.1153 0.0217269 30.5074C-0.0512809 31.0911 0.129871 31.678 0.519246 32.1191C0.908485 32.5598 1.46835 32.8125 2.05665 32.8125ZM34.5857 4.10156C40.6746 4.10156 46.4864 5.86387 51.5294 9.21908L48.5592 12.1892C44.3462 9.57605 39.5504 8.20312 34.5857 8.20312C22.266 8.20312 11.525 16.7117 8.67192 28.7109H4.46864C7.34548 14.5277 19.9036 4.10156 34.5857 4.10156Z" fill="#6152D9"/>
<path d="M61.1589 13.2753C60.5721 13.2383 59.997 13.4558 59.581 13.8719L53.7196 19.7334C53.0113 20.4416 52.9183 21.5579 53.4996 22.3737C56.2419 26.2219 57.6914 30.7333 57.6914 35.42C57.6914 46.4542 49.7855 55.7977 38.893 57.6368C37.906 57.8035 37.1836 58.6581 37.1836 59.6591V67.9493C37.1836 68.5374 37.4362 69.0974 37.8772 69.4867C38.254 69.8193 38.7374 70 39.2342 70C39.3189 70 39.4038 69.9949 39.4887 69.9842C56.8807 67.8105 69.9961 52.9511 69.9961 35.42C69.9961 27.6321 67.456 20.2471 62.6503 14.0636C62.2893 13.5991 61.7462 13.3119 61.1589 13.2753ZM41.285 65.537V61.3339C53.2635 58.4856 61.7928 47.7614 61.7928 35.4199C61.7928 30.4552 60.4199 25.6594 57.8068 21.4463L60.7769 18.4762C64.1322 23.5191 65.8945 29.3309 65.8945 35.4198C65.8944 50.1023 55.4684 62.6604 41.285 65.537Z" fill="#6152D9"/>
</g>
<defs>
<clipPath id="clip0_2801_6069">
<rect width="70" height="70" fill="white"/>
</clipPath>
</defs>
</svg>
