<svg width="60" height="60" viewBox="0 0 60 60" fill="none" xmlns="http://www.w3.org/2000/svg">
<g clip-path="url(#clip0_2801_1027)">
<path d="M31.8491 38.7516H15.8829C14.9164 38.7516 14.1328 39.5352 14.1328 40.5017C14.1328 41.4682 14.9164 42.2518 15.8829 42.2518H31.8491C32.8156 42.2518 33.5992 41.4682 33.5992 40.5017C33.5992 39.5352 32.8156 38.7516 31.8491 38.7516Z" fill="#6152D9"/>
<path d="M15.8829 35.2506H29.8422C30.8087 35.2506 31.5923 34.4671 31.5923 33.5005C31.5923 32.5339 30.8087 31.7504 29.8422 31.7504H15.8829C14.9164 31.7504 14.1328 32.5339 14.1328 33.5005C14.1328 34.4671 14.9164 35.2506 15.8829 35.2506Z" fill="#6152D9"/>
<path d="M15.8829 28.2495H31.1357C32.1023 28.2495 32.8858 27.4659 32.8858 26.4994C32.8858 25.5329 32.1023 24.7493 31.1357 24.7493H15.8829C14.9164 24.7493 14.1328 25.5329 14.1328 26.4994C14.1328 27.4659 14.9164 28.2495 15.8829 28.2495Z" fill="#6152D9"/>
<path d="M15.8829 21.2483H25.5209C26.4874 21.2483 27.271 20.4647 27.271 19.4982V12.251C27.271 11.2844 26.4874 10.5009 25.5209 10.5009H15.8829C14.9164 10.5009 14.1328 11.2844 14.1328 12.251V19.4982C14.1328 20.4647 14.9164 21.2483 15.8829 21.2483ZM17.633 14.0011H23.7708V17.7481H17.633V14.0011Z" fill="#6152D9"/>
<path d="M59.3552 44.0893L54.1324 38.8665C55.3563 37.1494 56.077 35.0501 56.077 32.7854C56.077 27.5916 52.2864 23.2671 47.3265 22.4314V12.2498H47.3255C47.3253 11.7948 47.1483 11.3475 46.8138 11.0128L36.3136 0.512549C35.979 0.177928 35.5313 0.00105007 35.0759 0.000933393V0H8.88212C7.91559 0 7.13201 0.783583 7.13201 1.75011V7.00103H1.88097C0.914443 7.00103 0.130859 7.78461 0.130859 8.75114V58.2499C0.130859 59.2164 0.914443 60 1.88097 60H38.5752C39.5417 60 40.3253 59.2164 40.3253 58.2499V52.999H45.5764C46.5429 52.999 47.3265 52.2154 47.3265 51.2489V43.1394C48.9196 42.871 50.3924 42.2431 51.6574 41.3416L56.8802 46.5643C57.2219 46.906 57.6699 47.0769 58.1176 47.0769C58.5656 47.0769 59.0135 46.906 59.3552 46.5643C60.0387 45.8808 60.0387 44.7726 59.3552 44.0893ZM52.5768 32.7854C52.5768 34.7114 51.7948 36.458 50.532 37.7249C50.5293 37.7276 50.5262 37.7298 50.5236 37.7325C50.5209 37.7352 50.5185 37.7383 50.516 37.741C49.251 39.0019 47.5079 39.7831 45.5855 39.7855C45.5825 39.7855 45.5795 39.785 45.5765 39.785C45.5734 39.785 45.5704 39.7855 45.5675 39.7855C41.7115 39.7807 38.576 36.6424 38.576 32.7853C38.576 28.9253 41.7164 25.7849 45.5765 25.7849C49.4365 25.7849 52.5768 28.9254 52.5768 32.7854ZM36.8261 5.97523L41.3511 10.5002H36.8261V5.97523ZM36.8251 56.4998H3.63108V10.5013H7.13201V51.2489C7.13201 52.2154 7.91559 52.999 8.88212 52.999H36.8251V56.4998ZM10.6322 49.4987V3.50022H33.3259V12.2503C33.3259 13.2168 34.1095 14.0004 35.076 14.0004H43.8262V22.4314C38.8663 23.2671 35.0757 27.5916 35.0757 32.7854C35.0757 37.9793 38.8663 42.3037 43.8262 43.1394V49.4987H10.6322Z" fill="#6152D9"/>
</g>
<defs>
<clipPath id="clip0_2801_1027">
<rect width="60" height="60" fill="white"/>
</clipPath>
</defs>
</svg>
