<svg width="80" height="80" viewBox="0 0 80 80" fill="none" xmlns="http://www.w3.org/2000/svg">
<g clip-path="url(#clip0_2801_5847)">
<path d="M11.7214 45.1343C5.27246 45.1343 0.0237068 50.3704 0.00308178 56.8149C-0.0233245 57.7927 -0.0976992 69.1512 10.0642 79.3135C10.9792 80.2288 12.4634 80.229 13.3786 79.3135C23.5406 69.1512 23.4661 57.7929 23.4396 56.8149C23.419 50.3704 18.1703 45.1343 11.7214 45.1343ZM17.7739 63.1316C16.5998 67.1949 14.5676 70.914 11.7214 74.2155C8.87511 70.914 6.84308 67.1949 5.66886 63.1316C4.62339 59.5129 4.68824 56.9594 4.68871 56.943C4.6898 56.913 4.69043 56.883 4.69043 56.8529C4.69043 52.9758 7.84449 49.8216 11.7214 49.8216C15.5982 49.8216 18.7523 52.9758 18.7523 56.8529C18.7523 56.8829 18.7526 56.904 18.7537 56.934C18.7545 56.9594 18.8193 59.5129 17.7739 63.1316Z" fill="#E8112B"/>
<path d="M11.7207 59.1963C13.0151 59.1963 14.0645 58.147 14.0645 56.8525C14.0645 55.5581 13.0151 54.5088 11.7207 54.5088C10.4263 54.5088 9.37695 55.5581 9.37695 56.8525C9.37695 58.147 10.4263 59.1963 11.7207 59.1963Z" fill="#E8112B"/>
<path d="M75.8895 8.84078L79.5597 3.70688C80.6664 2.15891 79.5578 0 77.6533 0H58.8986C57.6042 0 56.555 1.04937 56.555 2.34375V27.8059H54.7655C53.4711 27.8059 52.4219 28.8553 52.4219 30.1497C52.4219 31.4441 53.4712 32.4934 54.7655 32.4934H63.0316C64.3259 32.4934 65.3752 31.4441 65.3752 30.1497C65.3752 28.8553 64.3258 27.8059 63.0316 27.8059H61.2422V17.2661H77.6531C79.6005 17.2661 80.6984 15.0191 79.5025 13.4828L75.8895 8.84078ZM71.1166 10.3398L72.8592 12.5787H61.2423V4.6875H73.0967L71.0594 7.53719C70.4561 8.38109 70.4794 9.52125 71.1166 10.3398Z" fill="#E8112B"/>
<path d="M68.034 46.2861C66.1677 40.65 60.847 36.7174 54.7768 36.7174H36.2793C35.3287 33.9586 32.7087 31.9705 29.6313 31.9705C26.5573 31.9705 23.9396 33.9544 22.9865 36.7083C18.0349 36.5197 14.0643 32.4347 14.0643 27.4377V22.4408C14.0643 17.3239 18.2271 13.1611 23.3437 13.1611H33.3699C34.3374 15.8891 36.9424 17.8486 39.9977 17.8486C43.053 17.8486 45.658 15.8891 46.6255 13.1611H50.0146C51.309 13.1611 52.3582 12.1118 52.3582 10.8174C52.3582 9.52301 51.3088 8.47363 50.0146 8.47363H46.6255C45.658 5.74566 43.053 3.78613 39.9977 3.78613C36.9424 3.78613 34.3374 5.74566 33.3699 8.47363H23.3437C15.6424 8.47363 9.37695 14.7393 9.37695 22.4408V27.4377C9.37695 35.0318 15.469 41.2294 23.0224 41.4008C24.0052 44.1 26.5966 46.033 29.6315 46.033C32.6648 46.033 35.2552 44.1021 36.2391 41.4049H54.7768C58.4755 41.4049 61.7543 43.6011 63.2288 46.8511C60.9412 48.0125 59.3688 50.3871 59.3688 53.1236C59.3688 55.86 60.9412 58.2347 63.2288 59.3961C61.7541 62.6461 58.4754 64.8424 54.7766 64.8424H46.6254C45.6579 62.1146 43.0529 60.1552 39.9976 60.1552C36.9424 60.1552 34.3374 62.1146 33.3698 64.8424H27.5621C26.2677 64.8424 25.2185 65.8918 25.2185 67.1861C25.2185 68.4805 26.2679 69.5299 27.5621 69.5299H33.3696C34.337 72.258 36.9421 74.2177 39.9976 74.2177C43.053 74.2177 45.6582 72.258 46.6255 69.5299H54.7766C60.847 69.5299 66.1676 65.5972 68.0338 59.9611C71.1249 59.2222 73.4307 56.438 73.4307 53.1236C73.4307 49.8092 71.1251 47.025 68.034 46.2861ZM39.9976 8.47363C41.2899 8.47363 42.3412 9.52504 42.3412 10.8174C42.3412 12.1097 41.2899 13.1611 39.9976 13.1611C38.7052 13.1611 37.654 12.1097 37.654 10.8174C37.654 9.52504 38.7052 8.47363 39.9976 8.47363ZM29.6313 41.3455C28.339 41.3455 27.2877 40.2941 27.2877 39.0018C27.2877 37.7094 28.339 36.658 29.6313 36.658C30.9237 36.658 31.9749 37.7094 31.9749 39.0018C31.9749 40.2941 30.9237 41.3455 29.6313 41.3455ZM39.9976 69.5302C38.7052 69.5302 37.654 68.4788 37.654 67.1864C37.654 65.8941 38.7052 64.8427 39.9976 64.8427C41.2899 64.8427 42.3412 65.8941 42.3412 67.1864C42.3412 68.4788 41.2899 69.5302 39.9976 69.5302ZM66.3998 55.4674C65.1074 55.4674 64.0562 54.416 64.0562 53.1236C64.0562 51.8313 65.1074 50.7799 66.3998 50.7799C67.6921 50.7799 68.7434 51.8313 68.7434 53.1236C68.7434 54.416 67.6921 55.4674 66.3998 55.4674Z" fill="#E8112B"/>
</g>
<defs>
<clipPath id="clip0_2801_5847">
<rect width="80" height="80" fill="white"/>
</clipPath>
</defs>
</svg>
