<svg width="25" height="30" viewBox="0 0 25 30" fill="none" xmlns="http://www.w3.org/2000/svg">
<path d="M4.13702 12.3638V6.51706L5.27329 7.65339L6.51621 6.41042L3.25813 3.15234L0 6.41042L1.24292 7.65339L2.37925 6.51706V12.3638H4.13702Z" fill="#6152D9"/>
<path d="M21.7151 6.51706L22.8514 7.65339L24.0943 6.41042L20.8363 3.15234L17.5781 6.41042L18.821 7.65339L19.9574 6.51706V12.3638H21.7151V6.51706Z" fill="#6152D9"/>
<path d="M12.9261 8.84818V3.36471L14.0624 4.50105L15.3053 3.25808L12.0472 0L8.78906 3.25808L10.032 4.50105L11.1683 3.36471V8.84818H12.9261Z" fill="#6152D9"/>
<path d="M12.0468 22.9104C11.5622 22.9104 11.1679 22.5161 11.1679 22.0315H9.41016C9.41016 23.1773 10.145 24.1542 11.1679 24.517V26.4845H12.9257V24.517C13.9486 24.1542 14.6834 23.1773 14.6834 22.0315C14.6834 20.5777 13.5006 19.3949 12.0468 19.3949C11.5622 19.3949 11.1679 19.0006 11.1679 18.516C11.1679 18.0314 11.5622 17.6371 12.0468 17.6371C12.5314 17.6371 12.9257 18.0314 12.9257 18.516H14.6834C14.6834 17.3702 13.9486 16.3933 12.9257 16.0305V14.1216H11.1679V16.0305C10.145 16.3933 9.41016 17.3702 9.41016 18.516C9.41016 19.9698 10.593 21.1526 12.0468 21.1526C12.5314 21.1526 12.9257 21.5469 12.9257 22.0315C12.9257 22.5161 12.5314 22.9104 12.0468 22.9104Z" fill="#6152D9"/>
<path d="M12.0466 30C17.3788 30 21.7143 25.6137 21.7143 20.2737C21.7143 14.9429 17.3774 10.606 12.0466 10.606C6.71584 10.606 2.37891 14.9429 2.37891 20.2737C2.37891 25.6063 6.70769 30 12.0466 30ZM12.0466 12.3637C16.4081 12.3637 19.9565 15.9121 19.9565 20.2737C19.9565 24.6675 16.4081 28.2422 12.0466 28.2422C7.68507 28.2422 4.13667 24.6675 4.13667 20.2737C4.13667 15.9121 7.68501 12.3637 12.0466 12.3637Z" fill="#6152D9"/>
</svg>
