<svg width="70" height="70" viewBox="0 0 70 70" fill="none" xmlns="http://www.w3.org/2000/svg">
<g clip-path="url(#clip0_2801_6050)">
<path d="M59.7461 44.0195H55.6445C54.512 44.0195 53.5938 44.9377 53.5938 46.0703C53.5938 47.2029 54.512 48.1211 55.6445 48.1211H59.7461C60.8787 48.1211 61.7969 47.2029 61.7969 46.0703C61.7969 44.9377 60.8787 44.0195 59.7461 44.0195Z" fill="#E8112B"/>
<path d="M59.7461 52.2227H43.3398C42.2073 52.2227 41.2891 53.1409 41.2891 54.2734C41.2891 55.406 42.2073 56.3242 43.3398 56.3242H59.7461C60.8787 56.3242 61.7969 55.406 61.7969 54.2734C61.7969 53.1409 60.8787 52.2227 59.7461 52.2227Z" fill="#E8112B"/>
<path d="M43.0664 13.6719H34.8633C33.7307 13.6719 32.8125 14.5901 32.8125 15.7227V19.1406H28.7109V10.2539C28.7109 9.12133 27.7927 8.20312 26.6602 8.20312H18.457C17.3245 8.20312 16.4062 9.12133 16.4062 10.2539V24.6094H10.2539C9.12133 24.6094 8.20312 25.5276 8.20312 26.6602V34.8633C8.20312 35.9959 9.12133 36.9141 10.2539 36.9141H43.0664C44.199 36.9141 45.1172 35.9959 45.1172 34.8633V15.7227C45.1172 14.5901 44.199 13.6719 43.0664 13.6719ZM16.4062 32.8125H12.3047V28.7109H16.4062V32.8125ZM24.6094 32.8125H20.5078V12.3047H24.6094V32.8125ZM32.8125 32.8125H28.7109V23.2422H32.8125V32.8125ZM41.0156 32.8125H36.9141V17.7734H41.0156V32.8125Z" fill="#E8112B"/>
<path d="M63.8477 35.8165H53.3203V7.51953C53.3203 3.36656 49.9538 0 45.8008 0H7.51953C3.36656 0 0 3.36656 0 7.51953V51.2695C0 53.0216 2.05516 53.9669 3.38543 52.8266L12.3797 45.1172H33.0859V58.3751C33.0859 61.7729 35.8404 64.5274 39.2383 64.5274H60.3939L66.668 69.5468C68.0107 70.621 69.9999 69.665 69.9999 67.9454V41.9688C70 38.571 67.2455 35.8165 63.8477 35.8165ZM11.6211 41.0156C11.1315 41.0156 10.6582 41.1908 10.2864 41.5093L4.10156 46.8107V7.51953C4.10156 5.63186 5.63186 4.10156 7.51953 4.10156H45.8008C47.6885 4.10156 49.2188 5.63186 49.2188 7.51953V37.5977C49.2188 39.4853 47.6885 41.0156 45.8008 41.0156H11.6211ZM65.8984 63.6785L62.3943 60.8753C62.0307 60.5843 61.5789 60.4259 61.1133 60.4259H39.2383C38.1057 60.4259 37.1875 59.5077 37.1875 58.3751V45.1172H45.8008C49.1437 45.1172 51.9757 42.935 52.9538 39.918H63.8477C64.9802 39.918 65.8984 40.8362 65.8984 41.9688V63.6785Z" fill="#E8112B"/>
</g>
<defs>
<clipPath id="clip0_2801_6050">
<rect width="70" height="70" fill="white"/>
</clipPath>
</defs>
</svg>
