<svg width="40" height="40" viewBox="0 0 40 40" fill="none" xmlns="http://www.w3.org/2000/svg">
<g id="customer 1" clip-path="url(#clip0_2801_1104)">
<g id="Group">
<path id="Vector" d="M20 16.1719C23.7478 16.1719 26.7969 13.1228 26.7969 9.375C26.7969 5.62719 23.7478 2.57812 20 2.57812C16.2522 2.57812 13.2031 5.62719 13.2031 9.375C13.2031 13.1228 16.2522 16.1719 20 16.1719ZM20 4.92188C22.4555 4.92188 24.4531 6.91953 24.4531 9.375C24.4531 11.8305 22.4555 13.8281 20 13.8281C17.5445 13.8281 15.5469 11.8305 15.5469 9.375C15.5469 6.91953 17.5445 4.92188 20 4.92188Z" fill="white"/>
<path id="Vector_2" d="M33.75 16.1719C36.1193 16.1719 38.0469 14.2443 38.0469 11.875C38.0469 9.5057 36.1193 7.57812 33.75 7.57812C31.3807 7.57812 29.4531 9.5057 29.4531 11.875C29.4531 14.2443 31.3807 16.1719 33.75 16.1719ZM33.75 9.92188C34.827 9.92188 35.7031 10.798 35.7031 11.875C35.7031 12.952 34.827 13.8281 33.75 13.8281C32.673 13.8281 31.7969 12.952 31.7969 11.875C31.7969 10.798 32.673 9.92188 33.75 9.92188Z" fill="white"/>
<path id="Vector_3" d="M34.6953 18.8281H32.8828C30.747 18.8281 28.9032 20.09 28.063 21.9025C26.3333 20.0142 23.8487 18.8281 21.0921 18.8281H18.908C16.1514 18.8281 13.6668 20.0142 11.937 21.9025C11.0968 20.09 9.25305 18.8281 7.11719 18.8281H5.30469C2.37969 18.8281 0 21.1934 0 24.1008V32.6328C0 33.895 1.03078 34.9219 2.29781 34.9219H9.46398C9.58414 36.3203 10.7601 37.4219 12.1892 37.4219H27.8109C29.2399 37.4219 30.4159 36.3203 30.5361 34.9219H37.6204C38.9326 34.9219 40.0001 33.8586 40.0001 32.5516V24.1008C40 21.1934 37.6203 18.8281 34.6953 18.8281ZM2.34375 24.1008C2.34375 22.4858 3.67203 21.1719 5.30469 21.1719H7.11719C8.74984 21.1719 10.0781 22.4858 10.0781 24.1008V24.9032C9.29008 26.9551 9.45312 28.1848 9.45312 32.5781H2.34375V24.1008ZM28.2031 34.6859C28.2031 34.9022 28.0272 35.0781 27.8109 35.0781H12.1891C11.9728 35.0781 11.7969 34.9021 11.7969 34.6859V28.283C11.7969 24.3619 14.9869 21.1719 18.9079 21.1719H21.092C25.0131 21.1719 28.2031 24.3619 28.2031 28.2829V34.6859ZM37.6562 32.5516C37.6562 32.592 38.0931 32.5781 30.5469 32.5781C30.5469 28.1523 30.7087 26.9517 29.9219 24.9032V24.1008C29.9219 22.4858 31.2502 21.1719 32.8828 21.1719H34.6953C36.328 21.1719 37.6562 22.4858 37.6562 24.1008V32.5516Z" fill="white"/>
<path id="Vector_4" d="M6.25 16.1719C8.6193 16.1719 10.5469 14.2443 10.5469 11.875C10.5469 9.5057 8.6193 7.57812 6.25 7.57812C3.8807 7.57812 1.95312 9.5057 1.95312 11.875C1.95312 14.2443 3.8807 16.1719 6.25 16.1719ZM6.25 9.92188C7.32695 9.92188 8.20312 10.798 8.20312 11.875C8.20312 12.952 7.32695 13.8281 6.25 13.8281C5.17305 13.8281 4.29688 12.952 4.29688 11.875C4.29688 10.798 5.17305 9.92188 6.25 9.92188Z" fill="white"/>
</g>
</g>
<defs>
<clipPath id="clip0_2801_1104">
<rect width="40" height="40" fill="white"/>
</clipPath>
</defs>
</svg>
