<svg width="80" height="80" viewBox="0 0 80 80" fill="none" xmlns="http://www.w3.org/2000/svg">
<g clip-path="url(#clip0_2801_5867)">
<path d="M67.3838 14.2638L70.4788 15.3904L59.0417 20.426C58.6762 19.5719 58.2639 18.7346 57.8054 17.9188L61.8276 13.8967L51.8838 3.95281L47.8622 7.9745C46.1033 6.98435 44.2572 6.21264 42.3424 5.66686V0.000488281H28.28V5.66671C26.3652 6.21248 24.5191 6.9842 22.7602 7.97419L18.7386 3.9525L8.79479 13.8965L12.8163 17.9182C11.8263 19.6769 11.0546 21.523 10.5087 23.438H4.84263V37.5004H10.5093C10.8688 38.7598 11.3273 39.9921 11.8812 41.1899L0 46.421L1.88874 50.7111L72.9954 19.404L71.586 23.2758L75.9908 24.8791L79.9987 13.8671L68.9866 9.85903L67.3838 14.2638ZM14.2618 32.8128H9.5301V28.1253H14.2616L14.644 26.2499C15.6722 21.2061 18.2146 18.2784 18.7904 17.263L15.4238 13.8965L18.7386 10.5818L22.1053 13.9484L23.7025 12.8898C28.1206 9.96121 31.8401 9.73543 32.9675 9.41965V4.68796H37.6549V9.41965C38.7532 9.72731 42.5029 9.96184 46.92 12.8896L48.5172 13.9482L51.8839 10.5817L55.1987 13.8963L51.832 17.2629C52.4884 18.3129 53.6853 19.8082 54.7511 22.3147L50.4725 24.1985C47.963 18.1407 41.9952 14.0629 35.3112 14.0629C26.2648 14.0629 18.905 21.4227 18.905 30.4691C18.905 32.8908 19.4347 35.2534 20.45 37.417L16.1746 39.2993C14.7304 36.2097 14.5515 34.0011 14.2618 32.8128ZM23.5925 30.4691C23.5925 24.0074 28.8495 18.7504 35.3112 18.7504C40.1215 18.7504 44.4113 21.7074 46.18 26.0885L24.7425 35.5272C23.9874 33.9564 23.5925 32.2351 23.5925 30.4691Z" fill="#E8112B"/>
<path d="M75.1558 28.4375H61.0934V75.3122H56.4059V42.4999H42.3435V75.3122H37.656V51.8749H23.5936V75.3122H18.9061V61.2498H4.84372V75.3122H0V79.9997H79.9995V75.3122H75.1558V28.4375ZM65.7809 33.125H70.4683V75.3122H65.7809V33.125ZM47.031 47.1874H51.7184V75.3122H47.031V47.1874ZM28.2811 56.5623H32.9686V75.3122H28.2811V56.5623ZM9.53119 65.9373H14.2187V75.3122H9.53119V65.9373Z" fill="#E8112B"/>
</g>
<defs>
<clipPath id="clip0_2801_5867">
<rect width="80" height="80" fill="white"/>
</clipPath>
</defs>
</svg>
