<svg width="70" height="70" viewBox="0 0 70 70" fill="none" xmlns="http://www.w3.org/2000/svg">
<path d="M61.1091 27.6055L37.9133 4.40967C35.5154 2.01162 31.6132 2.01149 29.215 4.40967C27.0593 6.56531 26.8736 9.85298 28.4655 12.2006L28.4333 12.362C26.7609 20.7244 22.6896 28.332 16.6591 34.3624L6.01979 45.0017C3.616 47.4056 3.61559 51.296 6.01979 53.7L11.8186 59.4987C14.2222 61.9025 18.113 61.9027 20.5169 59.4987L21.9666 58.049L32.1147 68.197C34.5185 70.601 38.4089 70.6011 40.8129 68.197C43.211 65.799 43.211 61.8969 40.8129 59.4989L36.4637 55.1497L37.9135 53.7C40.3173 51.2963 40.3175 47.4059 37.9135 45.0018L36.9283 44.0165C41.7748 40.6232 47.279 38.2609 53.1569 37.0853L53.3204 37.0526C55.7202 38.6728 59.0003 38.4124 61.1091 36.3035H61.1093C63.507 33.9056 63.507 30.0036 61.1091 27.6055ZM17.6175 56.5993C16.8163 57.4004 15.5191 57.4005 14.718 56.5992L8.91918 50.8004C8.11787 49.999 8.11787 48.7024 8.91918 47.901L19.0671 37.753L27.7654 46.4513C26.7726 47.4441 18.6348 55.5819 17.6175 56.5993ZM37.9133 62.3981C38.7126 63.1974 38.7126 64.4981 37.9133 65.2975C37.1141 66.0968 35.8132 66.0968 35.014 65.2975L24.8659 55.1494L27.7654 52.2501L37.9133 62.3981ZM30.6648 49.3507C31.2811 48.7343 32.2037 47.7903 33.6598 46.5467L35.014 47.901C35.8153 48.7024 35.8153 49.999 35.014 50.8004L33.5642 52.2502L30.6648 49.3507ZM30.7519 43.6391L21.8791 34.7664C26.6341 29.2759 30.0392 22.7947 31.861 15.7537L49.7645 33.6573C42.7235 35.4789 36.2425 38.8841 30.7519 43.6391ZM58.2093 33.404C57.408 34.2051 56.1113 34.2051 55.31 33.404L32.1144 10.2084C31.3131 9.407 31.3131 8.11036 32.1144 7.30906C32.9157 6.50775 34.2126 6.50775 35.014 7.30906L58.2093 30.5044C59.0086 31.3038 59.0086 32.6044 58.2093 33.404Z" fill="#E8112B"/>
<path d="M20.5184 45.0013C19.7179 44.2007 18.4196 44.2007 17.619 45.0013L14.7196 47.9007C13.919 48.7014 13.919 49.9995 14.7196 50.8001C15.5201 51.6007 16.8185 51.6007 17.619 50.8001L20.5184 47.9007C21.319 47.1001 21.319 45.802 20.5184 45.0013Z" fill="#E8112B"/>
<path d="M47.3315 0C46.1992 0 45.2812 0.917928 45.2812 2.05023V6.15069C45.2812 7.28299 46.1992 8.20092 47.3315 8.20092C48.4638 8.20092 49.3817 7.28299 49.3817 6.15069V2.05023C49.3817 0.917928 48.4638 0 47.3315 0Z" fill="#E8112B"/>
<path d="M63.7327 16.4016H59.6323C58.5 16.4016 57.582 17.3195 57.582 18.4518C57.582 19.5841 58.5 20.5021 59.6323 20.5021H63.7327C64.865 20.5021 65.783 19.5841 65.783 18.4518C65.783 17.3195 64.8649 16.4016 63.7327 16.4016Z" fill="#E8112B"/>
<path d="M61.0808 4.70081C60.2803 3.90019 58.982 3.90019 58.1814 4.70081L54.0809 8.80127C53.2803 9.60189 53.2803 10.9 54.0809 11.7007C54.8814 12.5013 56.1797 12.5014 56.9803 11.7007L61.0808 7.6002C61.8814 6.79957 61.8814 5.50157 61.0808 4.70081Z" fill="#E8112B"/>
</svg>
