<svg width="53" height="40" viewBox="0 0 53 40" fill="none" xmlns="http://www.w3.org/2000/svg">
<path d="M48.3277 4.63959C46.7818 2.94673 44.9382 1.69295 42.7981 0.877699C41.2522 0.31355 39.6466 0 38.0411 0C33.2248 0 28.8245 2.50755 26.2083 6.58303C25.7918 5.89337 25.3165 5.26622 24.7217 4.63961C23.1759 2.94675 21.3322 1.69297 19.1921 0.877722C17.6462 0.313572 16.0406 2.22077e-05 14.4351 2.22077e-05C8.31056 2.22077e-05 2.84013 4.07494 0.81845 10.1564C-0.430447 13.9808 -0.251639 18.1187 1.41323 21.7549C3.07815 25.3912 5.99185 28.1498 9.61898 29.5291C10.3324 29.7797 11.0462 30.0307 11.8189 30.1562C10.6891 32.0996 9.32157 33.9181 7.65676 35.5479C7.06198 36.1121 6.70529 36.9272 6.76502 37.7425C6.82433 38.4947 7.18145 39.1843 7.7758 39.5604C8.19223 39.811 8.60824 39.9995 9.1433 39.9995C9.50001 39.9995 9.7974 39.9369 10.1541 39.8114C14.0189 38.244 17.7058 35.6109 20.8571 32.1627C22.2246 30.6579 24.0086 28.5889 25.4951 26.0813C25.8518 25.5172 26.1492 24.89 26.4466 24.2634C28.1707 26.7085 30.4897 28.5264 33.2251 29.5296C33.9385 29.7802 34.6523 30.0312 35.4251 30.1568C34.2952 32.1002 32.9277 33.9187 31.2629 35.5485C30.6681 36.1126 30.3114 36.9278 30.3712 37.743C30.4305 38.4952 30.7876 39.1849 31.382 39.5609C31.7984 39.8115 32.2144 40 32.7495 40C33.1062 40 33.4035 39.9375 33.7602 39.812C37.625 38.2446 41.3119 35.6114 44.4633 32.1632C45.8308 30.6585 47.6147 28.5894 49.1012 26.0819C50.2311 24.2009 51.0634 22.2575 51.5986 20.1885C53.2037 14.6078 51.9549 8.65159 48.3277 4.63914L48.3277 4.63959ZM48.2684 19.122C47.7927 20.8774 47.0793 22.5073 46.1278 24.1377C44.8197 26.3322 43.2738 28.1501 41.9059 29.592C40.5977 31.0338 39.1704 32.3506 37.6247 33.4163C38.4571 32.0995 39.1705 30.7832 39.7653 29.3414C40.0029 28.7773 39.9436 28.0876 39.6462 27.5235C39.3488 27.0219 38.7545 26.7083 38.1597 26.7083C36.8515 26.7083 35.6031 26.5203 34.4135 26.0812C31.6781 25.078 29.4782 23.0091 28.2298 20.2509C28.1705 20.1253 28.1705 20.0628 28.1107 19.9373C26.9809 17.2417 26.8618 14.295 27.754 11.4733C27.8133 11.2227 27.9324 11.0343 27.9917 10.7837C29.7167 6.52067 33.6408 3.762 38.0412 3.762C39.2901 3.762 40.4792 4.01259 41.6683 4.38913C43.2739 4.95327 44.6414 5.95649 45.8305 7.21026C48.5061 10.2195 49.4576 14.7961 48.2685 19.1222L48.2684 19.122ZM22.5217 24.0746C21.2136 26.2692 19.6677 28.0871 18.2998 29.5289C16.9916 30.9708 15.5643 32.2876 14.0186 33.3533C14.851 32.0365 15.5644 30.7201 16.1592 29.2784C16.3968 28.7142 16.3375 28.0246 16.0401 27.4605C15.7427 26.9589 15.1484 26.6453 14.5536 26.6453C13.2454 26.6453 11.997 26.4573 10.8074 26.0182C8.07201 25.015 5.87215 22.9461 4.62368 20.1878C3.37478 17.4292 3.19651 14.2944 4.14794 11.4108C5.69382 6.83425 9.79665 3.76211 14.4346 3.76211C15.6835 3.76211 16.8726 4.0127 18.0618 4.38924C19.6673 4.95339 21.0348 5.9566 22.2239 7.21037C23.1157 8.21359 23.8295 9.4049 24.3645 10.7212C23.4728 13.7933 23.4728 16.9906 24.4238 19.9998C23.8892 21.4417 23.2948 22.7585 22.5217 24.0747V24.0746Z" fill="white"/>
</svg>
