<svg width="30" height="30" viewBox="0 0 30 30" fill="none" xmlns="http://www.w3.org/2000/svg">
<g clip-path="url(#clip0_2801_8740)">
<path d="M28.636 0H1.36362C0.610538 0 0 0.610538 0 1.36362V28.6364C0 29.3895 0.610538 30 1.36362 30H16.818C17.5711 30 18.1816 29.3895 18.1816 28.6364C18.1816 27.8833 17.5711 27.2728 16.818 27.2728H2.72724V15.4547H9.0908V20.4543C9.0908 21.2074 9.70134 21.8179 10.4544 21.8179C11.2075 21.8179 11.818 21.2074 11.818 20.4543V7.72718C11.818 6.9741 11.2075 6.36356 10.4544 6.36356C9.70134 6.36356 9.0908 6.9741 9.0908 7.72718V12.7275H2.72724V2.72724H16.3634V9.5457C16.3634 10.2988 16.974 10.9093 17.7271 10.9093H24.0906C24.8437 10.9093 25.4542 10.2988 25.4542 9.5457C25.4542 8.79262 24.8437 8.18208 24.0906 8.18208H19.0907V2.72724H27.2724V19.091H17.7271C16.974 19.091 16.3634 19.7016 16.3634 20.4547C16.3634 21.2077 16.974 21.8183 17.7271 21.8183H27.2724V27.2728H24.9997C24.2466 27.2728 23.6361 27.8833 23.6361 28.6364C23.6361 29.3895 24.2466 30 24.9997 30H28.636C29.3891 30 29.9996 29.3895 29.9996 28.6364V1.36362C29.9996 0.610538 29.3891 0 28.636 0Z" fill="#6152D9"/>
</g>
<defs>
<clipPath id="clip0_2801_8740">
<rect width="30" height="30" fill="white"/>
</clipPath>
</defs>
</svg>
