<svg width="40" height="40" viewBox="0 0 40 40" fill="none" xmlns="http://www.w3.org/2000/svg">
<g clip-path="url(#clip0_3023_682)">
<path d="M38.1814 0H1.81816C0.814051 0 0 0.814051 0 1.81816V38.1818C0 39.1859 0.814051 40 1.81816 40H22.424C23.4281 40 24.2421 39.1859 24.2421 38.1818C24.2421 37.1777 23.4281 36.3637 22.424 36.3637H3.63632V20.6063H12.1211V27.2724C12.1211 28.2765 12.9351 29.0906 13.9392 29.0906C14.9433 29.0906 15.7574 28.2765 15.7574 27.2724V10.3029C15.7574 9.2988 14.9433 8.48475 13.9392 8.48475C12.9351 8.48475 12.1211 9.2988 12.1211 10.3029V16.97H3.63632V3.63632H21.8179V12.7276C21.8179 13.7317 22.632 14.5458 23.6361 14.5458H32.1208C33.1249 14.5458 33.939 13.7317 33.939 12.7276C33.939 11.7235 33.1249 10.9094 32.1208 10.9094H25.4542V3.63632H36.3632V25.4547H23.6361C22.632 25.4547 21.8179 26.2688 21.8179 27.2729C21.8179 28.277 22.632 29.091 23.6361 29.091H36.3632V36.3637H33.3329C32.3288 36.3637 31.5148 37.1777 31.5148 38.1818C31.5148 39.1859 32.3288 40 33.3329 40H38.1814C39.1855 40 39.9995 39.1859 39.9995 38.1818V1.81816C39.9995 0.814051 39.1855 0 38.1814 0Z" fill="#E8112B"/>
</g>
<defs>
<clipPath id="clip0_3023_682">
<rect width="40" height="40" fill="white"/>
</clipPath>
</defs>
</svg>
