<svg width="80" height="80" viewBox="0 0 80 80" fill="none" xmlns="http://www.w3.org/2000/svg">
<g clip-path="url(#clip0_3004_1249)">
<path d="M75.3125 51.9681V7.03125C75.3125 3.15422 72.1583 0 68.2812 0H16.5625C12.6855 0 9.53125 3.15422 9.53125 7.03125V9.53125H7.03125C3.15422 9.53125 0 12.6855 0 16.5625C0 20.4395 3.15422 23.5938 7.03125 23.5938H9.53125V32.9688H7.03125C3.15422 32.9688 0 36.123 0 40C0 43.877 3.15422 47.0312 7.03125 47.0312H9.53125V56.4062H7.03125C3.15422 56.4062 0 59.5605 0 63.4375C0 67.3145 3.15422 70.4688 7.03125 70.4688H9.53125V72.8125C9.53125 74.6805 10.2495 76.4605 11.5538 77.8248C12.8947 79.2275 14.6736 80 16.5625 80H63.5938C72.6402 80 80 72.5702 80 63.4375C80 58.9777 78.2103 54.9284 75.3125 51.9681ZM7.03125 18.9062C5.73891 18.9062 4.6875 17.8548 4.6875 16.5625C4.6875 15.2702 5.73891 14.2188 7.03125 14.2188H11.875C13.1673 14.2188 14.2188 15.2702 14.2188 16.5625C14.2188 17.8548 13.1673 18.9062 11.875 18.9062H7.03125ZM7.03125 42.3438C5.73891 42.3438 4.6875 41.2923 4.6875 40C4.6875 38.7077 5.73891 37.6562 7.03125 37.6562H11.875C13.1673 37.6562 14.2188 38.7077 14.2188 40C14.2188 41.2923 13.1673 42.3438 11.875 42.3438H7.03125ZM11.875 65.7812H7.03125C5.73891 65.7812 4.6875 64.7298 4.6875 63.4375C4.6875 62.1452 5.73891 61.0938 7.03125 61.0938H11.875C13.1673 61.0938 14.2188 62.1452 14.2188 63.4375C14.2188 64.7298 13.1673 65.7812 11.875 65.7812ZM16.5625 75.3125C15.3141 75.3125 14.2188 74.1442 14.2188 72.8125V70.0656C16.9467 69.0981 18.9062 66.493 18.9062 63.4375C18.9062 60.382 16.9467 57.7769 14.2188 56.8094V46.6281C16.9467 45.6606 18.9062 43.0555 18.9062 40C18.9062 36.9445 16.9467 34.3394 14.2188 33.3719V23.1906C16.9467 22.2231 18.9062 19.618 18.9062 16.5625C18.9062 13.507 16.9467 10.9019 14.2188 9.93438V7.03125C14.2188 5.73891 15.2702 4.6875 16.5625 4.6875H68.2812C69.5736 4.6875 70.625 5.73891 70.625 7.03125V48.6164C68.4928 47.6008 66.1086 47.0312 63.5938 47.0312C54.5473 47.0312 47.1875 54.3911 47.1875 63.4375C47.1875 68.0906 49.0989 72.3009 52.1697 75.3125H16.5625ZM63.5938 75.3125C57.132 75.3125 51.875 69.9855 51.875 63.4375C51.875 56.9758 57.132 51.7188 63.5938 51.7188C70.0555 51.7188 75.3125 56.9758 75.3125 63.4375C75.3125 69.9855 70.0555 75.3125 63.5938 75.3125Z" fill="#6152D9"/>
<path d="M63.5938 18.9062H49.5312C48.2369 18.9062 47.1875 19.9556 47.1875 21.25C47.1875 22.5444 48.2369 23.5938 49.5312 23.5938H63.5938C64.8881 23.5938 65.9375 22.5444 65.9375 21.25C65.9375 19.9556 64.8881 18.9062 63.5938 18.9062Z" fill="#6152D9"/>
<path d="M63.5938 37.6562H49.5312C48.2369 37.6562 47.1875 38.7056 47.1875 40C47.1875 41.2944 48.2369 42.3438 49.5312 42.3438H63.5938C64.8881 42.3438 65.9375 41.2944 65.9375 40C65.9375 38.7056 64.8881 37.6562 63.5938 37.6562Z" fill="#6152D9"/>
<path d="M68.2812 61.0938H65.9375V58.75C65.9375 57.4556 64.8881 56.4062 63.5938 56.4062C62.2994 56.4062 61.25 57.4556 61.25 58.75V63.4375C61.25 64.7319 62.2994 65.7812 63.5938 65.7812H68.2812C69.5756 65.7812 70.625 64.7319 70.625 63.4375C70.625 62.1431 69.5756 61.0938 68.2812 61.0938Z" fill="#6152D9"/>
<path d="M41.658 14.9052C40.7428 13.9899 39.2588 13.9899 38.3436 14.9054L30.6258 22.623L26.9366 18.9338C26.0214 18.0185 24.5373 18.0185 23.622 18.9338C22.7067 19.8491 22.7067 21.333 23.622 22.2483L28.9686 27.5949C29.4261 28.0526 30.0259 28.2813 30.6258 28.2813C31.2256 28.2813 31.8255 28.0526 32.283 27.5947L41.658 18.2197C42.5733 17.3044 42.5733 15.8205 41.658 14.9052Z" fill="#6152D9"/>
<path d="M41.658 33.6552C40.7428 32.7399 39.2588 32.7399 38.3436 33.6554L30.6258 41.373L26.9366 37.6838C26.0214 36.7685 24.5373 36.7685 23.622 37.6838C22.7067 38.5991 22.7067 40.083 23.622 40.9983L28.9686 46.3449C29.4261 46.8026 30.0259 47.0313 30.6258 47.0313C31.2256 47.0313 31.8255 46.8026 32.283 46.3447L41.658 36.9697C42.5733 36.0544 42.5733 34.5705 41.658 33.6552Z" fill="#6152D9"/>
<path d="M41.658 52.4052C40.7428 51.4899 39.2588 51.4899 38.3436 52.4054L30.6258 60.123L26.9366 56.4338C26.0214 55.5185 24.5373 55.5185 23.622 56.4338C22.7067 57.3491 22.7067 58.833 23.622 59.7483L28.9686 65.0949C29.4261 65.5526 30.0259 65.7813 30.6258 65.7813C31.2256 65.7813 31.8255 65.5526 32.283 65.0947L41.658 55.7197C42.5733 54.8044 42.5733 53.3205 41.658 52.4052Z" fill="#6152D9"/>
</g>
<defs>
<clipPath id="clip0_3004_1249">
<rect width="80" height="80" fill="white"/>
</clipPath>
</defs>
</svg>
