<svg width="60" height="60" viewBox="0 0 60 60" fill="none" xmlns="http://www.w3.org/2000/svg">
<g clip-path="url(#clip0_2801_1034)">
<path d="M59.405 31.106C58.6776 30.4633 57.5666 30.5324 56.9239 31.2598L56.8955 31.2919V30.06C56.8955 22.8759 54.0977 16.1215 49.0174 11.0413C43.9376 5.96146 37.1833 3.16406 29.9991 3.16406C25.6595 3.16406 21.3474 4.22241 17.5283 6.22422C13.8332 8.16102 10.5899 10.9786 8.14912 14.3729C7.58241 15.1607 7.76185 16.2593 8.55012 16.826C9.33839 17.3932 10.437 17.2138 11.0037 16.4255C13.1269 13.4729 15.9476 11.022 19.1606 9.33793C22.4781 7.59888 26.2258 6.67969 29.9991 6.67969C42.8912 6.67969 53.3799 17.1684 53.3799 30.0605V31.2923L53.3511 31.2603C52.7084 30.5324 51.5974 30.4638 50.87 31.1065C50.1421 31.7492 50.0735 32.8602 50.7162 33.5875L53.8198 37.1013C54.1535 37.479 54.6333 37.6951 55.1373 37.6951C55.6413 37.6951 56.121 37.479 56.4547 37.1013L59.5584 33.5875C60.2015 32.8597 60.1329 31.7487 59.405 31.106Z" fill="#E8112B"/>
<path d="M51.4491 43.2879C50.6609 42.7212 49.5627 42.9002 48.9955 43.6885C46.8724 46.6406 44.0516 49.0915 40.8386 50.776C37.5212 52.5151 33.773 53.4343 30.0001 53.4343C17.1081 53.4343 6.61934 42.9455 6.61934 30.0535V28.8217L6.64818 28.8542C7.29088 29.5816 8.40187 29.6507 9.12926 29.0075C9.8571 28.3648 9.92577 27.2538 9.28307 26.5264L6.17943 23.0126C5.84526 22.635 5.36598 22.4185 4.86198 22.4185C4.35798 22.4185 3.87779 22.635 3.54453 23.0126L0.440433 26.5264C-0.202268 27.2543 -0.133604 28.3648 0.594241 29.0075C0.92841 29.3032 1.3436 29.4483 1.75742 29.4483C2.24357 29.4483 2.72788 29.2474 3.07532 28.8542L3.10371 28.8217V30.0535C3.10371 37.2381 5.90156 43.992 10.9818 49.0722C16.0616 54.1525 22.816 56.9499 30.0001 56.9499C34.3393 56.9499 38.6519 55.8916 42.471 53.8898C46.1656 51.953 49.4089 49.135 51.8497 45.7411C52.4164 44.9528 52.2374 43.8546 51.4491 43.2879Z" fill="#E8112B"/>
<path d="M30 37.0849C33.8768 37.0849 37.0313 33.9309 37.0313 30.0536C37.0313 26.1768 33.8768 23.0223 30 23.0223C26.1227 23.0223 22.9688 26.1768 22.9688 30.0536C22.9688 33.9309 26.1227 37.0849 30 37.0849ZM30 26.538C31.9386 26.538 33.5156 28.115 33.5156 30.0536C33.5156 31.9922 31.9386 33.5692 30 33.5692C28.0614 33.5692 26.4844 31.9922 26.4844 30.0536C26.4844 28.115 28.0614 26.538 30 26.538Z" fill="#E8112B"/>
<path d="M12.6616 34.5576C12.5407 35.0075 12.6039 35.4873 12.8374 35.891L16.353 41.9807C16.586 42.3844 16.9701 42.6788 17.42 42.7996C17.8705 42.92 18.3502 42.8573 18.754 42.6238L21.339 41.1315C22.3712 41.9381 23.5152 42.6 24.7264 43.0917V46.0722C24.7264 47.0426 25.5133 47.83 26.4842 47.83H33.5155C34.486 47.83 35.2733 47.0426 35.2733 46.0722V43.0917C36.4846 42.6 37.6285 41.9381 38.6608 41.1315L41.2458 42.6238C41.6491 42.8568 42.1293 42.92 42.5792 42.7996C43.0297 42.6788 43.4137 42.3844 43.6467 41.9807L47.1624 35.891C47.3954 35.4873 47.4585 35.0075 47.3382 34.5576C47.2173 34.1071 46.9225 33.7231 46.5192 33.4901L43.9287 31.9945C44.0175 31.3528 44.0624 30.7032 44.0624 30.0536C44.0624 29.3963 44.0166 28.7403 43.9255 28.0912L46.5192 26.5938C46.923 26.3608 47.2173 25.9768 47.3382 25.5263C47.4585 25.0759 47.3954 24.5962 47.1624 24.1924L43.6467 18.1032C43.1615 17.2628 42.0862 16.9748 41.2458 17.4601L38.6438 18.9624C37.6157 18.1618 36.4777 17.5045 35.2733 17.0156V14.0117C35.2733 13.0413 34.4864 12.2539 33.5155 12.2539H26.4842C25.5133 12.2539 24.7264 13.0413 24.7264 14.0117V17.0156C23.5225 17.5045 22.384 18.1618 21.3564 18.9624L18.754 17.4601C17.9135 16.9744 16.8382 17.2628 16.353 18.1032L12.8374 24.1924C12.6044 24.5962 12.5412 25.0763 12.6616 25.5263C12.7824 25.9768 13.0768 26.3608 13.4805 26.5938L16.0742 28.0912C15.9831 28.7403 15.9373 29.3963 15.9373 30.0536C15.9373 30.7032 15.9822 31.3523 16.071 31.9945L13.481 33.4901C13.0768 33.7231 12.7824 34.1071 12.6616 34.5576ZM19.7363 32.4912C19.5482 31.6961 19.453 30.8758 19.453 30.0536C19.453 29.2255 19.5496 28.3997 19.7405 27.5986C19.9208 26.8424 19.583 26.0573 18.9096 25.6687L16.7609 24.4282L18.5187 21.3836L20.6747 22.6287C21.3477 23.0169 22.1959 22.9175 22.7608 22.3842C23.9569 21.2545 25.4176 20.4108 26.9855 19.9443C27.7307 19.7223 28.2421 19.0371 28.2421 18.2593V15.7695H31.7577V18.2593C31.7577 19.0371 32.2685 19.7223 33.0138 19.9443C34.5821 20.4108 36.0428 21.2549 37.239 22.3842C37.8038 22.9175 38.6521 23.0169 39.3245 22.6287L41.4811 21.3836L43.2389 24.4282L41.0901 25.6687C40.4168 26.0573 40.0789 26.8424 40.2588 27.5986C40.4497 28.3997 40.5468 29.2255 40.5468 30.0536C40.5468 30.8758 40.4511 31.6961 40.2634 32.4912C40.0849 33.247 40.4227 34.0298 41.0952 34.4179L43.2389 35.6557L41.4811 38.7003L39.3406 37.4644C38.6667 37.0753 37.8171 37.1755 37.2522 37.7106C36.0538 38.8464 34.588 39.6946 33.0142 40.1633C32.2685 40.3849 31.7577 41.0702 31.7577 41.8479V44.3144H28.2421V41.8479C28.2421 41.0702 27.7312 40.3849 26.9859 40.1633C25.4117 39.6946 23.9459 38.8468 22.7475 37.7106C22.1826 37.1755 21.3335 37.0757 20.6596 37.4644L18.5187 38.7003L16.7609 35.6557L18.9046 34.4179C19.5766 34.0298 19.9149 33.247 19.7363 32.4912Z" fill="#E8112B"/>
</g>
<defs>
<clipPath id="clip0_2801_1034">
<rect width="60" height="60" fill="white"/>
</clipPath>
</defs>
</svg>
