<svg width="55" height="55" viewBox="0 0 55 55" fill="none" xmlns="http://www.w3.org/2000/svg">
<circle cx="27.5" cy="27.5" r="26" fill="#6152D9" stroke="white" stroke-width="3"/>
<g clip-path="url(#clip0_3519_1170)">
<path d="M39.9161 30.5321C39.8426 30.5321 39.7693 30.5347 39.6964 30.5399V25.2739C41.4924 25.3485 43.0038 23.8798 42.9999 22.0654C43.0038 20.251 41.4923 18.7822 39.6964 18.8568V16.3993C39.6964 15.8977 39.2898 15.4911 38.7882 15.4911H36.5525C36.7117 13.6385 35.2292 12.0081 33.3842 12.0177C31.5393 12.0081 30.0565 13.6385 30.2159 15.4911H24.85C25.0149 13.6405 23.5344 12.0071 21.6907 12.0171C19.8471 12.0071 18.3663 13.6405 18.5313 15.4911H16.2034C15.7018 15.4911 15.2952 15.8977 15.2952 16.3993V18.8652C13.5038 18.7908 11.9963 20.2557 12 22.0654C11.9962 23.8751 13.5038 25.3402 15.2952 25.2656V27.7315C15.2952 28.2331 15.7018 28.6397 16.2034 28.6397H18.5395C18.3197 30.5145 19.8159 32.2124 21.6907 32.1992C23.5652 32.2124 25.0618 30.5144 24.8418 28.6397H26.5876V39.0638C26.5876 39.5654 26.9942 39.972 27.4958 39.972H30.2476C30.4953 43.9884 36.1534 43.9854 36.3997 39.972H38.7882C39.2898 39.972 39.6964 39.5654 39.6964 39.0638V36.7398C41.4671 36.8736 42.9999 35.4313 42.9931 33.6399C42.9932 31.9262 41.6128 30.5321 39.9161 30.5321ZM31.4288 17.3075C32.1199 17.316 32.5686 16.5342 32.2133 15.9417C31.6713 15.0434 32.3372 13.8204 33.3842 13.8341C34.4311 13.8203 35.0972 15.0436 34.5551 15.9417C34.1996 16.5344 34.6488 17.316 35.3396 17.3075H37.88V20.0147C37.88 20.3319 38.0455 20.6262 38.3166 20.7909C38.5877 20.9555 38.9251 20.9669 39.2067 20.8208C40.0961 20.3437 41.1995 21.0505 41.1835 22.0653C41.1996 23.08 40.0959 23.7871 39.2067 23.3099C38.9251 23.1638 38.5877 23.1751 38.3166 23.3398C38.0455 23.5045 37.88 23.7988 37.88 24.116V26.8232H35.2856C34.9703 26.8232 34.6776 26.9867 34.5123 27.2552C34.347 27.5237 34.3327 27.8587 34.4746 28.1402C34.9449 29.0384 34.2728 30.1858 33.2631 30.1725C32.2537 30.1858 31.5812 29.0383 32.0516 28.1402C32.1935 27.8587 32.1793 27.5237 32.014 27.2552C31.8487 26.9867 31.5559 26.8232 31.2407 26.8232H28.404V25.2099C30.3337 25.6042 32.1969 24.05 32.177 22.0653C32.1969 20.0809 30.3335 18.5261 28.404 18.9207V17.3075H31.4288ZM26.5876 26.8233H23.5781C23.2447 26.8233 22.9381 27.006 22.7794 27.2992C22.6207 27.5923 22.6354 27.9489 22.8176 28.2281C23.4164 29.123 22.7662 30.3921 21.6906 30.3828C20.6151 30.3921 19.9648 29.1228 20.5636 28.228C20.7459 27.9489 20.7605 27.5923 20.6018 27.2991C20.4431 27.0059 20.1365 26.8233 19.8032 26.8233H17.1116V24.1068C17.1116 23.7893 16.9458 23.4949 16.6743 23.3303C16.4029 23.1656 16.0651 23.1547 15.7836 23.3014C14.8994 23.7777 13.8005 23.0752 13.8164 22.0654C13.8004 21.0558 14.8995 20.3529 15.7835 20.8293C16.065 20.9761 16.4028 20.9652 16.6742 20.8005C16.9457 20.6359 17.1116 20.3415 17.1116 20.024V17.3075H19.7498C20.0761 17.3075 20.3773 17.1325 20.5388 16.8491C20.7004 16.5656 20.6975 16.2173 20.5313 15.9366C19.9848 15.0442 20.6459 13.8197 21.6907 13.8335C22.7353 13.8197 23.3966 15.0443 22.85 15.9366C22.6838 16.2173 22.681 16.5657 22.8425 16.8491C23.004 17.1325 23.3053 17.3075 23.6315 17.3075H26.5875V20.3574C26.5875 20.717 26.7997 21.0427 27.1286 21.188C27.4574 21.3334 27.8412 21.2711 28.1071 21.0291C28.9728 20.2327 30.3694 20.8892 30.3605 22.0654C30.3695 23.2414 28.9726 23.8981 28.1071 23.1016C27.8411 22.8596 27.4574 22.7972 27.1286 22.9426C26.7997 23.088 26.5876 23.4138 26.5876 23.7733V26.8233ZM39.9161 34.9312C39.6862 34.9312 39.4613 34.8673 39.2661 34.7465C38.6704 34.3712 37.8744 34.815 37.88 35.5188V38.1555H35.3328C35.0313 38.1555 34.7493 38.3052 34.5804 38.5551C34.4116 38.8049 34.3776 39.1223 34.49 39.4021C34.8372 40.2171 34.2054 41.203 33.3236 41.1837C32.4421 41.203 31.8099 40.217 32.1573 39.4021C32.2696 39.1223 32.2358 38.8049 32.0669 38.5551C31.898 38.3053 31.6161 38.1555 31.3145 38.1555H28.4041V28.6397H30.0872C30.005 30.4549 31.4621 31.9942 33.2632 31.9891C35.0641 31.9942 36.5215 30.4549 36.4391 28.6397H37.8801V31.7608C37.8801 32.0902 38.0585 32.3938 38.3462 32.5542C38.6339 32.7145 38.9859 32.7065 39.2661 32.5331C40.0945 32.0103 41.189 32.6559 41.1768 33.6398C41.1768 34.3518 40.6112 34.9312 39.9161 34.9312Z" fill="white"/>
</g>
<defs>
<clipPath id="clip0_3519_1170">
<rect width="31" height="31" fill="white" transform="translate(12 12)"/>
</clipPath>
</defs>
</svg>
