<svg width="40" height="40" viewBox="0 0 40 40" fill="none" xmlns="http://www.w3.org/2000/svg">
<path d="M3.51728 7.64748C3.9433 8.00201 4.52898 8.09541 5.04414 7.89099C5.5593 7.68656 5.92159 7.21699 5.98861 6.66682H24.0006C25.1052 6.66682 26.0006 5.77138 26.0006 4.66681V3.33348C26.0006 2.22891 25.1052 1.33348 24.0006 1.33348H5.98861C5.92164 0.783446 5.55955 0.313931 5.04459 0.109391C4.52962 -0.0951494 3.94406 -0.00203701 3.51794 0.352148L0.539276 2.83281C0.196082 3.12503 -0.00115071 3.55346 5.05117e-06 4.00421C0.00116081 4.45495 0.200588 4.88236 0.545276 5.17281L3.51728 7.64748ZM1.40061 3.85215L4.37194 1.37615C4.40287 1.34926 4.4423 1.33415 4.48328 1.33348C4.51066 1.33411 4.53764 1.34023 4.56261 1.35148C4.62806 1.37888 4.66973 1.44391 4.66728 1.51481V2.00015C4.66728 2.36834 4.96575 2.66682 5.33394 2.66682H24.0006C24.3688 2.66682 24.6673 2.96529 24.6673 3.33348V4.66681C24.6673 5.03501 24.3688 5.33348 24.0006 5.33348H5.33394C4.96575 5.33348 4.66728 5.63196 4.66728 6.00015V6.48548C4.66995 6.55606 4.62887 6.621 4.56394 6.64882C4.50084 6.67939 4.42558 6.66943 4.37261 6.62348L1.40528 4.15281C1.36017 4.11492 1.33408 4.05906 1.33394 4.00015C1.33356 3.94346 1.3579 3.88942 1.40061 3.85215Z" fill="white"/>
<path d="M36.4833 7.01971C36.0573 6.66518 35.4716 6.57178 34.9565 6.7762C34.4413 6.98063 34.079 7.4502 34.012 8.00037H16C14.8954 8.00037 14 8.8958 14 10.0004V11.3337C14 12.4383 14.8954 13.3337 16 13.3337H34.012C34.0769 13.885 34.4388 14.3563 34.9547 14.5612C35.4706 14.7661 36.0572 14.6716 36.4827 14.315L39.4613 11.8344C39.8045 11.5422 40.0018 11.1137 40.0006 10.663C39.9995 10.2122 39.8 9.78483 39.4553 9.49437L36.4833 7.01971ZM38.6 10.815L35.6273 13.291C35.5738 13.3356 35.4992 13.3451 35.4362 13.3154C35.3731 13.2856 35.333 13.2221 35.3333 13.1524V12.667C35.3333 12.2988 35.0349 12.0004 34.6667 12.0004H16C15.6318 12.0004 15.3333 11.7019 15.3333 11.3337V10.0004C15.3333 9.63218 15.6318 9.3337 16 9.3337H34.6667C35.0349 9.3337 35.3333 9.03523 35.3333 8.66704V8.18171C35.3307 8.11112 35.3717 8.04619 35.4367 8.01837C35.4997 7.98706 35.5753 7.99708 35.628 8.0437L38.594 10.5144C38.6396 10.552 38.6662 10.6079 38.6667 10.667C38.6671 10.7237 38.6427 10.7778 38.6 10.815Z" fill="white"/>
<path d="M38.6667 18.0001L35.19 18.0055C34.3671 18.003 33.6413 18.5441 33.4087 19.3335H31.2933C30.985 19.3346 30.6807 19.2629 30.4053 19.1241L26.8207 17.3281C25.0415 16.4481 22.9538 16.4481 21.1747 17.3281L20.9993 17.4161L20.8207 17.3255C19.0414 16.4462 16.954 16.4462 15.1747 17.3255L11.5913 19.1208C11.3173 19.2604 11.0142 19.3333 10.7067 19.3335H6.59133C6.35885 18.5446 5.63378 18.0036 4.81133 18.0055L1.33333 18.0001C0.596954 18.0001 0 18.5971 0 19.3335V30.0001C0 30.7365 0.596954 31.3335 1.33333 31.3335L4.67933 31.3388L6.67933 32.1721C6.6485 33.0456 7.09152 33.8676 7.838 34.3221C8.20483 34.542 8.62435 34.6583 9.052 34.6588C9.25446 34.6584 9.45606 34.6325 9.652 34.5815C9.66933 34.5768 9.68533 34.5681 9.70267 34.5628C9.84625 35.2029 10.2447 35.7567 10.806 36.0961C11.1729 36.3148 11.5922 36.43 12.0193 36.4295C12.2218 36.4291 12.4234 36.4031 12.6193 36.3521C12.6367 36.3475 12.652 36.3388 12.6693 36.3341C12.8142 36.9749 13.2144 37.5288 13.7773 37.8675C14.3207 38.1947 14.9733 38.2882 15.5867 38.1268C15.602 38.1228 15.616 38.1148 15.6313 38.1108C15.7721 38.7416 16.1647 39.2874 16.718 39.6215L16.7273 39.6268L16.746 39.6388C17.1116 39.8588 17.53 39.9751 17.9567 39.9755C18.1591 39.9755 18.3607 39.9498 18.5567 39.8988C18.9959 39.785 19.3927 39.5465 19.6993 39.2121L20.088 39.5141C20.4966 39.8297 20.9984 40.0009 21.5147 40.0008C21.6219 40.0007 21.7291 39.9934 21.8353 39.9788C22.4386 39.8994 22.9865 39.586 23.3607 39.1061C23.3713 39.0941 23.382 39.0808 23.3913 39.0681C23.7766 38.5583 23.94 37.9147 23.8447 37.2828L23.874 37.2795C24.4929 37.201 25.0538 36.8757 25.4293 36.3775C25.7467 35.966 25.9192 35.4611 25.92 34.9415C26.0713 34.9505 26.2231 34.945 26.3733 34.9248C26.991 34.8459 27.5507 34.5209 27.9253 34.0235C28.2461 33.6102 28.4202 33.1019 28.42 32.5788C28.4204 32.3124 28.3767 32.0477 28.2907 31.7955C28.6186 31.7107 28.9231 31.5528 29.1813 31.3335L35.1813 31.3388H35.1853L38.6667 31.3335C39.403 31.3335 40 30.7365 40 30.0001V19.3335C40 18.5971 39.403 18.0001 38.6667 18.0001ZM26.2287 18.5228L29.8053 20.3148C30.267 20.5467 30.7766 20.6673 31.2933 20.6668H33.404L34.442 30.0041L29.948 30.0001C29.9954 29.7847 30.0129 29.5637 30 29.3435C29.9239 28.55 29.5113 27.8271 28.8667 27.3581L22.1333 22.6488C21.282 22.0391 20.1041 22.192 19.4367 22.9988L16.3407 26.7015C15.7662 27.3836 14.7524 27.4827 14.0567 26.9248C13.8987 26.7992 13.807 26.608 13.808 26.4061C13.8079 26.2678 13.8521 26.133 13.934 26.0215L17.008 21.6288C17.5172 20.9017 18.1995 20.3129 18.9933 19.9155L21.7687 18.5248C23.1738 17.83 24.8223 17.8293 26.228 18.5228H26.2287ZM1.33333 19.3335L4.81133 19.3388C4.96192 19.3388 5.10538 19.403 5.20578 19.5152C5.30618 19.6275 5.35402 19.7772 5.33733 19.9268L4.21667 30.0048L1.33333 30.0001V19.3335ZM8.52267 33.1781C8.01562 32.868 7.84847 32.21 8.146 31.6955L8.44067 31.1921C8.58052 30.9479 8.81291 30.7703 9.08533 30.6995C9.1712 30.6778 9.25943 30.6668 9.348 30.6668C9.53594 30.6673 9.72023 30.7187 9.88133 30.8155C10.2079 31.0123 10.4056 31.3675 10.4007 31.7488C10.4015 31.9405 10.3518 32.1291 10.2567 32.2955L9.962 32.7981C9.82213 33.0427 9.58982 33.2207 9.31733 33.2921C9.04789 33.3625 8.76147 33.3214 8.52267 33.1781ZM11.4907 34.9521C10.9839 34.6418 10.817 33.9839 11.1147 33.4695L11.41 32.9648C11.55 32.7212 11.7821 32.5442 12.054 32.4735C12.1398 32.4513 12.228 32.4399 12.3167 32.4395C12.5046 32.44 12.6889 32.4913 12.85 32.5881C13.3464 32.8955 13.515 33.538 13.2333 34.0495V34.0535L12.9313 34.5735L12.9273 34.5815C12.7872 34.8218 12.5569 34.9961 12.2876 35.0657C12.0183 35.1353 11.7323 35.0944 11.4933 34.9521H11.4907ZM14.4667 36.7228C13.9597 36.4183 13.7886 35.7647 14.0813 35.2508L14.0867 35.2435L14.3813 34.7388C14.386 34.7315 14.3893 34.7228 14.3933 34.7148C14.5337 34.4782 14.7625 34.3072 15.0291 34.2395C15.2958 34.1718 15.5785 34.2131 15.8147 34.3541C16.324 34.6603 16.4942 35.318 16.1973 35.8328L15.8947 36.3528C15.7556 36.5926 15.5263 36.7666 15.258 36.8362C14.9897 36.9057 14.7047 36.8649 14.4667 36.7228ZM18.226 38.6075C17.9578 38.6786 17.6722 38.6377 17.4347 38.4941L17.4253 38.4881C16.9219 38.1854 16.7532 37.5355 17.046 37.0261L17.2333 36.7035L17.3527 36.4981C17.539 36.179 17.8805 35.9826 18.25 35.9821C18.4406 35.9829 18.6274 36.0352 18.7907 36.1335C19.2957 36.4373 19.4642 37.0898 19.1693 37.6001L18.8613 38.1295C18.7214 38.3682 18.4912 38.5405 18.2227 38.6075H18.226ZM26.9767 30.2928C26.6863 30.0662 26.2673 30.1178 26.0407 30.4081C25.814 30.6985 25.8657 31.1175 26.156 31.3441L26.684 31.7575C26.9022 31.9254 27.0442 32.1736 27.0785 32.4467C27.1129 32.7199 27.0366 32.9955 26.8667 33.2121C26.7055 33.4274 26.4644 33.5686 26.1979 33.6039C25.9313 33.6393 25.6617 33.5659 25.45 33.4001L25.012 33.0588C25.0063 33.0537 25.0003 33.0491 24.994 33.0448C24.7029 32.8242 24.2886 32.8789 24.0647 33.1675C23.8408 33.456 23.8907 33.871 24.1767 34.0981L24.188 34.1068C24.6388 34.4625 24.7193 35.1148 24.3687 35.5695C24.207 35.7825 23.9667 35.9219 23.7015 35.9564C23.4363 35.991 23.1683 35.9179 22.9573 35.7535C22.7558 35.5976 22.4832 35.5702 22.2547 35.6828C22.0463 35.7845 21.9053 35.9866 21.8817 36.2172C21.858 36.4479 21.9552 36.6744 22.1387 36.8161C22.5721 37.163 22.6625 37.7865 22.3453 38.2421L22.3213 38.2721C22.1607 38.4862 21.9202 38.6262 21.6547 38.6601C21.3869 38.6967 21.1157 38.6247 20.9013 38.4601L20.406 38.0755C20.9325 36.9559 20.5268 35.6194 19.4667 34.9815C18.9238 34.6537 18.2712 34.5599 17.658 34.7215C17.64 34.7261 17.6247 34.7355 17.6067 34.7401C17.462 34.0993 17.0617 33.5454 16.4987 33.2068C15.9555 32.8799 15.3032 32.7863 14.69 32.9475C14.6727 32.9521 14.6573 32.9608 14.6407 32.9655C14.4999 32.336 14.1097 31.7905 13.5594 31.454C13.0091 31.1175 12.3458 31.0186 11.7213 31.1801C11.704 31.1848 11.6887 31.1941 11.6713 31.1988C11.5275 30.5589 11.1291 30.0052 10.568 29.6655C10.0217 29.3392 9.36747 29.2457 8.75169 29.4059C8.13592 29.566 7.6101 29.9664 7.292 30.5175L7.07533 30.8881L5.53333 30.2495L6.596 20.6668H10.7067C11.2223 20.6675 11.7309 20.5476 12.192 20.3168L15.7673 18.5248C16.9003 17.9681 18.201 17.857 19.412 18.2135L18.3953 18.7235C17.4027 19.2202 16.5498 19.9569 15.914 20.8668L12.844 25.2541C12.2291 26.1157 12.3954 27.3078 13.2227 27.9681C14.4864 28.9776 16.3246 28.7948 17.3647 27.5561L20.458 23.8568C20.682 23.5844 21.0793 23.5336 21.3647 23.7408L28.0767 28.4321C28.4077 28.6719 28.622 29.0405 28.6667 29.4468C28.6952 29.7398 28.5969 30.031 28.3967 30.2468C28.0025 30.6178 27.394 30.6375 26.9767 30.2928ZM38.6667 30.0001L35.784 30.0048L34.6667 19.9268C34.65 19.7769 34.698 19.627 34.7987 19.5147C34.8994 19.4024 35.0432 19.3385 35.194 19.3388L38.6667 19.3335V30.0001Z" fill="white"/>
</svg>
