<svg width="70" height="70" viewBox="0 0 70 70" fill="none" xmlns="http://www.w3.org/2000/svg">
<g clip-path="url(#clip0_3009_1306)">
<path d="M67.9492 49.6115H65.9013V2.05078C65.9013 0.918203 64.9831 0 63.8505 0H6.14947C5.01689 0 4.09869 0.918203 4.09869 2.05078V49.6115H2.05078C0.918203 49.6115 0 50.5297 0 51.6623V59.8523C0 60.9849 0.918203 61.9031 2.05078 61.9031H14.796C14.311 62.8831 14.0372 63.9853 14.0372 65.1509V67.9492C14.0372 69.0818 14.9554 70 16.088 70C17.2205 70 18.1387 69.0818 18.1387 67.9492V65.1509C18.1387 63.36 19.5956 61.9031 21.3865 61.9031H48.5792C50.3701 61.9031 51.8269 63.36 51.8269 65.1509V67.9492C51.8269 69.0818 52.7451 70 53.8777 70C55.0103 70 55.9285 69.0818 55.9285 67.9492V65.1509C55.9285 63.9855 55.6546 62.8831 55.1697 61.9031H67.9492C69.0818 61.9031 70 60.9849 70 59.8523V51.6623C70 50.5297 69.0819 49.6115 67.9492 49.6115ZM8.20025 4.10156H61.7997V49.6115H8.20025V4.10156ZM65.8984 57.8017H4.10156V53.7132H65.8984V57.8017Z" fill="#6152D9"/>
<path d="M56.7484 39.5836C57.333 38.8818 57.4353 37.6497 56.6121 36.8335L51.2335 31.4548C50.4327 30.6541 49.1341 30.6541 48.3332 31.4548C47.5324 32.2556 47.5324 33.5541 48.3332 34.355L50.2114 36.2332H41.9962C39.2698 36.2332 37.0516 34.015 37.0516 31.2886V22.2278C37.0516 17.2398 32.9935 13.1817 28.0054 13.1817H20.0717L21.8853 11.368C22.6862 10.5672 22.6862 9.26866 21.8853 8.46776C21.0845 7.667 19.786 7.667 18.9851 8.46776L13.6708 13.782C12.9869 14.4565 12.7711 15.8175 13.6708 16.6829L19.0496 22.0616C19.45 22.462 19.9749 22.6623 20.4996 22.6623C21.0244 22.6623 21.5494 22.462 21.9497 22.0616C22.7506 21.2608 22.7506 19.9623 21.9497 19.1614L20.0716 17.2832H28.0052C30.7317 17.2832 32.9499 19.5014 32.9499 22.2278V31.2884C32.9499 36.2765 37.008 40.3346 41.9961 40.3346H50.2112L48.3975 42.1483C47.5966 42.9491 47.5966 44.2476 48.3975 45.0485C48.798 45.449 49.3228 45.6492 49.8475 45.6492C50.3723 45.6492 50.8973 45.449 51.2976 45.0485L56.6118 39.7342C56.6601 39.6864 56.7054 39.6361 56.7484 39.5836Z" fill="#6152D9"/>
<path d="M50.2306 21.8281C54.0795 21.8281 57.211 18.6967 57.211 14.8476C57.211 10.9986 54.0796 7.86719 50.2306 7.86719C46.3815 7.86719 43.25 10.9986 43.25 14.8476C43.25 18.6967 46.3814 21.8281 50.2306 21.8281ZM50.2306 11.9688C51.8179 11.9688 53.1095 13.2602 53.1095 14.8476C53.1095 16.4351 51.818 17.7265 50.2306 17.7265C48.6431 17.7265 47.3516 16.4351 47.3516 14.8476C47.3516 13.2602 48.643 11.9688 50.2306 11.9688Z" fill="#6152D9"/>
<path d="M23.5409 35.1766C22.74 34.3757 21.4416 34.3757 20.6407 35.1766L18.605 37.2123L16.5692 35.1766C15.7685 34.3758 14.4699 34.3758 13.669 35.1766C12.8681 35.9774 12.8681 37.2759 13.669 38.0768L15.7048 40.1126L13.669 42.1483C12.8681 42.9491 12.8681 44.2476 13.669 45.0485C14.0695 45.4491 14.5942 45.6493 15.1191 45.6493C15.6438 45.6493 16.1688 45.449 16.5691 45.0485L18.6049 43.0128L20.6406 45.0485C21.041 45.449 21.5659 45.6493 22.0906 45.6493C22.6154 45.6493 23.1404 45.449 23.5407 45.0485C24.3416 44.2478 24.3416 42.9492 23.5407 42.1483L21.5049 40.1126L23.5407 38.0768C24.3418 37.2761 24.3418 35.9775 23.5409 35.1766Z" fill="#6152D9"/>
</g>
<defs>
<clipPath id="clip0_3009_1306">
<rect width="70" height="70" fill="white"/>
</clipPath>
</defs>
</svg>
