<svg width="50" height="50" viewBox="0 0 50 50" fill="none" xmlns="http://www.w3.org/2000/svg">
<g clip-path="url(#clip0_2801_6189)">
<path d="M27.9271 14.7461H22.0678C21.2588 14.7461 20.6029 15.402 20.6029 16.2109V17.6758H16.2084C15.3994 17.6758 14.7436 18.3316 14.7436 19.1406C14.7436 23.0858 14.7422 30.8542 14.7422 30.8594C14.7422 31.6684 15.398 32.3242 16.207 32.3242H33.7865C34.5955 32.3242 35.2514 31.6684 35.2514 30.8594V22.0703C35.2514 21.2613 34.5955 20.6055 33.7865 20.6055H29.392V16.2109C29.392 15.402 28.7361 14.7461 27.9271 14.7461ZM20.6029 29.3945H17.6726L17.6732 20.6055H20.6029V29.3945ZM26.4623 29.3945H23.5326V17.6758H26.4623V29.3945ZM32.3217 23.5352V29.3945H29.392V23.5352H32.3217Z" fill="white"/>
<path d="M22.0184 41.1694C15.2714 40.0287 9.97325 34.7313 8.83477 27.9876C8.71573 27.2826 8.10518 26.7666 7.39034 26.7666H1.46876C1.04854 26.7666 0.648736 26.9471 0.370611 27.262C0.0924863 27.5771 -0.0369083 27.9963 0.0152402 28.4132C0.695904 33.859 3.21553 39.0023 7.10987 42.8957C11.0034 46.7882 16.1467 49.3072 21.5923 49.9886C21.653 49.9962 21.7137 49.9999 21.7742 49.9999C22.1291 49.9999 22.4743 49.8709 22.7436 49.6333C23.0586 49.3553 23.239 48.9553 23.239 48.5351V42.6138C23.239 41.899 22.7232 41.2886 22.0184 41.1694ZM20.3093 46.8122C11.6826 45.0648 4.93731 38.3204 3.19131 29.6963H6.19337C7.84795 36.6791 13.3238 42.154 20.3093 43.8105V46.8122Z" fill="white"/>
<path d="M1.46876 23.4375H7.39044C8.10528 23.4375 8.71583 22.9215 8.83487 22.2165C10.1483 14.4361 16.8223 8.78906 24.7038 8.78906C28.0515 8.78906 31.2738 9.82441 34.0227 11.7832C34.6055 12.1984 35.4028 12.1319 35.9086 11.6261L40.0954 7.43936C40.3926 7.14219 40.5479 6.73164 40.5216 6.31221C40.4953 5.89277 40.2903 5.50479 39.9584 5.24688C35.5416 1.81436 30.2666 0 24.7038 0C12.1818 0 1.56797 9.36807 0.0152402 21.791C-0.0369082 22.2079 0.0924863 22.6271 0.370611 22.9422C0.648639 23.257 1.04854 23.4375 1.46876 23.4375ZM24.7038 2.92969C29.053 2.92969 33.2043 4.18848 36.8064 6.58506L34.6849 8.70654C31.6756 6.84004 28.25 5.85938 24.7038 5.85938C15.904 5.85938 8.23184 11.9369 6.19395 20.5078H3.19161C5.24649 10.377 14.2166 2.92969 24.7038 2.92969Z" fill="white"/>
<path d="M43.6838 9.4824C43.2646 9.45593 42.8539 9.6113 42.5567 9.90857L38.37 14.0953C37.8641 14.6011 37.7977 15.3985 38.2129 15.9812C40.1717 18.73 41.207 21.9524 41.207 25.3001C41.207 33.1816 35.56 39.8555 27.7796 41.1692C27.0746 41.2883 26.5586 41.8987 26.5586 42.6136V48.5352C26.5586 48.9553 26.7391 49.3553 27.054 49.6334C27.3231 49.871 27.6685 50.0001 28.0233 50.0001C28.0838 50.0001 28.1444 49.9964 28.2051 49.9887C40.6279 48.4361 49.9961 37.8222 49.9961 25.3001C49.9961 19.7373 48.1817 14.4623 44.7491 10.0455C44.4912 9.71365 44.1033 9.50857 43.6838 9.4824ZM29.4882 46.8122V43.8099C38.0442 41.7755 44.1366 34.1153 44.1366 25.3C44.1366 21.7538 43.156 18.3282 41.2895 15.3188L43.4109 13.1973C45.8076 16.7994 47.0664 20.9507 47.0664 25.2999C47.0663 35.7874 39.6191 44.7575 29.4882 46.8122Z" fill="white"/>
</g>
<defs>
<clipPath id="clip0_2801_6189">
<rect width="50" height="50" fill="white"/>
</clipPath>
</defs>
</svg>
