<svg width="40" height="40" viewBox="0 0 40 40" fill="none" xmlns="http://www.w3.org/2000/svg">
<g clip-path="url(#clip0_3023_693)">
<path d="M35.0584 13.616L28.3863 6.27674L27.6548 1.01072C27.593 0.565173 27.2815 0.194314 26.8533 0.0564231C26.4251 -0.0814675 25.9558 0.0380637 25.6455 0.363767L23.0052 3.13611C21.0595 2.63306 19.1389 2.47283 17.2864 2.66174C14.9923 2.89572 12.9187 3.65697 11.1235 4.92431C9.13414 6.32869 7.54125 8.32306 6.38922 10.8521C5.15063 13.5713 4.42414 16.9185 4.23 20.801C4.20555 21.2905 4.48828 21.7435 4.93883 21.9366L9.3907 23.8445C9.57313 25.3248 9.84656 26.5868 10.0823 27.5001H8.52539C7.8782 27.5001 7.35352 28.0248 7.35352 28.672V32.1876H5.40039C4.7532 32.1876 4.22852 32.7123 4.22852 33.3595V38.8282C4.22852 39.4754 4.7532 40.0001 5.40039 40.0001H31.9629C32.6101 40.0001 33.1348 39.4754 33.1348 38.8282V33.3595C33.1348 32.7123 32.6101 32.1876 31.9629 32.1876H30.0098V28.672C30.0098 28.0248 29.4851 27.5001 28.8379 27.5001H26.8848V24.7657C26.8848 24.5215 26.8084 24.2833 26.6665 24.0845L23.8695 20.1686C23.5042 19.6574 23.5122 18.976 23.8891 18.4735C24.2777 17.9554 24.9691 17.7617 25.5702 18.002L30.4514 19.9545C31.5779 20.4052 32.8442 20.0713 33.6021 19.1238L35.1703 17.1636C36.0145 16.1081 35.9675 14.6161 35.0584 13.616ZM12.4751 6.83892C14.2117 5.61306 16.2886 4.97009 18.547 4.92674C15.2557 6.51111 12.8002 8.79799 11.2198 11.7599C9.8018 14.4174 9.11383 17.6523 9.19586 21.211L6.62023 20.1071C7.07523 13.8047 9.0918 9.2272 12.4751 6.83892ZM30.7909 37.6562H6.57219V34.5312H8.52531H28.8378H30.7909V37.6562ZM27.6659 32.1874H9.69719V29.8437H11.6503H25.7128H27.6659V32.1874ZM33.3401 15.6995L31.7719 17.6597C31.6636 17.7949 31.4828 17.8425 31.3218 17.7784L26.4406 15.826C24.8573 15.1924 23.0372 15.7031 22.0141 17.0672C21.0214 18.3908 21.0005 20.1846 21.9622 21.531L24.5409 25.1413V27.4999H12.512C11.8642 25.2304 10.3267 18.4124 13.2876 12.8631C15.2002 9.27838 18.6878 6.83127 23.6533 5.58986C23.8688 5.53603 24.0645 5.42205 24.2177 5.26119L25.6675 3.73892L26.1146 6.95799C26.1471 7.19181 26.2495 7.41041 26.4082 7.58502L33.3241 15.1924C33.4539 15.3354 33.4607 15.5486 33.3401 15.6995Z" fill="#E8112B"/>
<path d="M24.541 12.5781C25.1882 12.5781 25.7129 12.0535 25.7129 11.4062C25.7129 10.759 25.1882 10.2344 24.541 10.2344C23.8938 10.2344 23.3691 10.759 23.3691 11.4062C23.3691 12.0535 23.8938 12.5781 24.541 12.5781Z" fill="#E8112B"/>
</g>
<defs>
<clipPath id="clip0_3023_693">
<rect width="40" height="40" fill="white"/>
</clipPath>
</defs>
</svg>
