<svg width="30" height="30" viewBox="0 0 30 30" fill="none" xmlns="http://www.w3.org/2000/svg">
<g clip-path="url(#clip0_2801_8748)">
<path d="M30 15C30 13.6251 29.4949 12.3033 28.5776 11.2782C27.3817 9.94184 27.6562 8.52053 27.6562 7.96875C27.6562 4.86709 25.1329 2.34375 22.0312 2.34375C21.5774 2.34375 20.0852 2.64234 18.7218 1.42242C17.6967 0.505195 16.375 0 15 0C13.625 0 12.3033 0.505195 11.2782 1.42236C9.91822 2.6393 8.431 2.34375 7.96875 2.34375C4.6885 2.34375 2.08189 5.15695 2.36455 8.45572C2.45279 9.4817 2.10943 10.5104 1.42236 11.2782C0.505137 12.3033 0 13.6251 0 15C0 16.3749 0.505137 17.6967 1.42236 18.7218C2.61826 20.0582 2.34375 21.4795 2.34375 22.0312C2.34375 25.3229 5.1692 27.9182 8.45578 27.6354C9.45164 27.5498 10.4801 27.8634 11.2782 28.5776C12.3033 29.4948 13.625 30 15 30C16.375 30 17.6967 29.4948 18.7218 28.5776C20.0845 27.3583 21.5769 27.6562 22.0312 27.6562C25.3115 27.6562 27.9181 24.843 27.6354 21.5443C27.5472 20.5183 27.8906 19.4896 28.5776 18.7218C29.4949 17.6967 30 16.3749 30 15ZM26.831 17.1589C25.7148 18.4063 25.1569 20.0779 25.3003 21.7451C25.4665 23.6771 23.939 25.3125 22.0312 25.3125C21.6472 25.3125 19.2969 24.918 17.1589 26.831C16.5642 27.3632 15.7975 27.6562 15 27.6562C14.2025 27.6562 13.4358 27.3632 12.8411 26.831C11.5857 25.7078 9.92924 25.1563 8.25492 25.3003C6.32309 25.466 4.6875 23.9397 4.6875 22.0312C4.6875 21.5821 5.05008 19.2611 3.16898 17.1589C2.63684 16.5642 2.34375 15.7975 2.34375 15C2.34375 14.2025 2.63684 13.4358 3.16898 12.8411C4.2852 11.5937 4.84312 9.92215 4.69975 8.25492C4.53346 6.32291 6.061 4.6875 7.96875 4.6875C8.35277 4.6875 10.7032 5.08189 12.8411 3.16898C13.4358 2.63684 14.2025 2.34375 15 2.34375C15.7975 2.34375 16.5642 2.63684 17.1589 3.16904C19.3021 5.0867 21.7195 4.6875 22.0312 4.6875C23.8406 4.6875 25.3125 6.15949 25.3125 7.96875C25.3125 8.41787 24.9499 10.7389 26.831 12.8411C27.3632 13.4358 27.6562 14.2025 27.6562 15C27.6562 15.7975 27.3632 16.5642 26.831 17.1589Z" fill="#E8112B"/>
<path d="M13.8287 15.6865L12.3136 14.1714L10.6562 15.8287L13.8287 19.001L19.3449 13.4849L17.6875 11.8276L13.8287 15.6865Z" fill="#E8112B"/>
<path d="M15 5.625C9.83057 5.625 5.625 9.83063 5.625 15C5.625 20.1694 9.83057 24.375 15 24.375C20.1694 24.375 24.375 20.1694 24.375 15C24.375 9.83063 20.1694 5.625 15 5.625ZM15 22.0312C11.123 22.0312 7.96875 18.877 7.96875 15C7.96875 11.123 11.123 7.96875 15 7.96875C18.877 7.96875 22.0312 11.123 22.0312 15C22.0312 18.877 18.877 22.0312 15 22.0312Z" fill="#E8112B"/>
</g>
<defs>
<clipPath id="clip0_2801_8748">
<rect width="30" height="30" fill="white"/>
</clipPath>
</defs>
</svg>
