<svg width="40" height="40" viewBox="0 0 40 40" fill="none" xmlns="http://www.w3.org/2000/svg">
<g clip-path="url(#clip0_2801_6699)">
<path d="M2 40H5.33333C5.899 39.9982 6.43717 39.7558 6.81333 39.3333H23.5333C24.5118 39.3336 25.4715 39.0647 26.3073 38.556L38.8 30.9507C39.3911 30.5942 39.8073 30.0079 39.9491 29.3324C40.0908 28.6568 39.9453 27.9527 39.5473 27.3887C39.5337 27.3654 39.5183 27.3431 39.5013 27.322C38.8565 26.4646 37.7366 26.114 36.718 26.4507L35.1707 26.9667C36.162 21.4333 32.22 15.2833 30.1407 12.5C30.4648 12.356 30.7445 12.1279 30.9507 11.8393C31.7606 12.0411 32.424 12.6201 32.7333 13.3953C32.8181 13.6222 33.0191 13.7852 33.2585 13.8212C33.498 13.8573 33.7381 13.7607 33.8859 13.569C34.0337 13.3772 34.0659 13.1203 33.97 12.898C33.5168 11.7313 32.5306 10.8533 31.3193 10.538C32.3293 9.77843 32.9343 8.59684 32.96 7.33335C32.96 6.96516 32.6615 6.66668 32.2933 6.66668C31.9251 6.66668 31.6267 6.96516 31.6267 7.33335C31.6133 8.06681 31.2978 8.76225 30.7547 9.25535C30.3866 8.88257 29.8858 8.67088 29.362 8.66668L30.9847 6.12601C31.4214 5.43018 31.4458 4.5521 31.0485 3.83304C30.6512 3.11397 29.8949 2.66733 29.0733 2.66668H28.618C28.7459 2.00885 28.5724 1.32832 28.1453 0.811951C27.7181 0.295587 27.0821 -0.00232702 26.412 1.36905e-05H20.2547C19.5845 -0.00232702 18.9486 0.295587 18.5214 0.811951C18.0942 1.32832 17.9208 2.00885 18.0487 2.66668H17.5933C16.7699 2.66661 16.0117 3.11466 15.6146 3.83598C15.2174 4.5573 15.2443 5.43759 15.6847 6.13335L17.3047 8.66668C16.3697 8.68194 15.5701 9.343 15.3794 10.2584C15.1886 11.1738 15.6576 12.0993 16.5087 12.4867C14.698 14.8933 11.832 19.3533 11.382 23.9673C10.4899 23.5513 9.5177 23.3349 8.53333 23.3333H7.21067C6.92916 22.5371 6.17786 22.0035 5.33333 22H2C0.895431 22 0 22.8954 0 24V38C0 39.1046 0.895431 40 2 40ZM16.784 4.47668C16.9453 4.18072 17.2563 3.99753 17.5933 4.00001H18.542L19.9033 7.26668C19.995 7.48652 20.197 7.64074 20.4333 7.67124C20.6695 7.70175 20.9041 7.60391 21.0486 7.41458C21.1931 7.22524 21.2257 6.97319 21.134 6.75335L19.6147 3.10868C19.6071 3.08594 19.5982 3.06367 19.588 3.04201L19.4053 2.60401C19.288 2.3204 19.32 1.99696 19.4906 1.7418C19.6611 1.48664 19.9478 1.33342 20.2547 1.33335H26.412C26.7196 1.33305 27.007 1.48663 27.1777 1.74254C27.3484 1.99845 27.3798 2.32278 27.2613 2.60668L27.0787 3.04468C27.0684 3.06634 27.0595 3.0886 27.052 3.11135L25.5333 6.75468C25.4652 6.91788 25.4648 7.10144 25.5321 7.26497C25.5993 7.42851 25.7288 7.55862 25.892 7.62668C25.9732 7.661 26.0605 7.67868 26.1487 7.67868C26.4179 7.67859 26.6606 7.51659 26.764 7.26801L28.1247 4.00001H29.0733C29.4095 3.99983 29.7194 4.18216 29.8825 4.47617C30.0455 4.77019 30.0362 5.12955 29.858 5.41468L27.7813 8.66668H18.8853L16.8113 5.41868C16.6289 5.13385 16.6184 4.77161 16.784 4.47668ZM17.3213 10H29.3453C29.7135 10 30.012 10.2985 30.012 10.6667C30.012 11.0349 29.7135 11.3333 29.3453 11.3333H17.3213C16.9531 11.3333 16.6547 11.0349 16.6547 10.6667C16.6547 10.2985 16.9531 10 17.3213 10ZM18.058 12.6667H28.5827C31.8407 16.7893 34.8567 22.6953 33.756 27.2067C33.7333 27.2933 33.7013 27.376 33.6753 27.4607L24.3713 30.5627C24.168 30.6317 23.9547 30.6668 23.74 30.6667H23.3593C23.6761 29.7991 23.585 28.8349 23.1113 28.042L23.0513 27.942C22.3253 26.7404 21.0252 26.0043 19.6213 26H16.1333C14.9035 25.9985 13.7105 25.58 12.7493 24.8127C12.7227 24.792 12.694 24.774 12.6673 24.7527C12.8167 21.2373 14.8067 16.77 18.058 12.6667ZM11.9167 25.854C13.1145 26.8097 14.6009 27.3312 16.1333 27.3333H19.6207C20.5563 27.3359 21.4229 27.8264 21.9067 28.6273L21.9667 28.7267C22.3305 29.3336 22.2909 30.1003 21.8667 30.6667H17.8133C16.4973 30.6675 15.2109 31.0569 14.1153 31.786L13.628 32.1127C13.322 32.3181 13.2406 32.7327 13.446 33.0387C13.6515 33.3446 14.066 33.4261 14.372 33.2207L14.8547 32.8953C15.7312 32.312 16.7605 32.0005 17.8133 32H23.74C24.0996 32.0004 24.4568 31.9416 24.7973 31.826L37.1333 27.7133C37.5906 27.5622 38.0938 27.7076 38.4 28.0793C38.41 28.096 38.4207 28.1113 38.432 28.1273C38.6293 28.3883 38.7064 28.7209 38.6439 29.0421C38.5815 29.3632 38.3854 29.6427 38.1047 29.8107L25.614 37.4173C24.9869 37.7985 24.2672 38.0001 23.5333 38H7.33333V24.6667H8.53333C9.76296 24.6683 10.9557 25.0869 11.9167 25.854ZM1.33333 24C1.33333 23.6318 1.63181 23.3333 2 23.3333H5.33333C5.70152 23.3333 6 23.6318 6 24V38C6 38.3682 5.70152 38.6667 5.33333 38.6667H2C1.63181 38.6667 1.33333 38.3682 1.33333 38V24Z" fill="white"/>
<path d="M16.0927 24.6033C16.4588 24.5661 16.7255 24.2394 16.6887 23.8733C16.6718 23.6938 16.664 23.5135 16.6654 23.3333C16.6654 19.6514 19.6501 16.6666 23.332 16.6666C27.0139 16.6666 29.9987 19.6514 29.9987 23.3333C30.0014 24.3687 29.7605 25.3902 29.2954 26.3153C29.1311 26.6446 29.2648 27.0448 29.594 27.2093C29.6862 27.2558 29.7881 27.28 29.8914 27.2799C30.1453 27.2813 30.3779 27.1384 30.4914 26.9113C31.048 25.8009 31.336 24.5753 31.332 23.3333C31.332 18.915 27.7503 15.3333 23.332 15.3333C18.9138 15.3333 15.332 18.915 15.332 23.3333C15.332 23.5626 15.34 23.7846 15.362 24.0066C15.3797 24.1826 15.4666 24.3444 15.6037 24.4564C15.7407 24.5683 15.9167 24.6211 16.0927 24.6033Z" fill="white"/>
<path d="M27.3346 23.3334H24.0013V19.3334C24.0013 18.9652 23.7028 18.6667 23.3346 18.6667C22.9664 18.6667 22.668 18.9652 22.668 19.3334V24.0001C22.668 24.3683 22.9664 24.6667 23.3346 24.6667H27.3346C27.7028 24.6667 28.0013 24.3683 28.0013 24.0001C28.0013 23.6319 27.7028 23.3334 27.3346 23.3334Z" fill="white"/>
</g>
<defs>
<clipPath id="clip0_2801_6699">
<rect width="40" height="40" fill="white"/>
</clipPath>
</defs>
</svg>
