<svg width="40" height="40" viewBox="0 0 40 40" fill="none" xmlns="http://www.w3.org/2000/svg">
<g clip-path="url(#clip0_2801_4332)">
<path d="M39.375 22.5345V17.4655C39.375 17.1585 39.152 16.897 38.8488 16.8484L35.7481 16.3521C35.3467 14.6109 34.6639 12.9639 33.7139 11.4455L35.5566 8.90039C35.7368 8.65172 35.7095 8.30906 35.4924 8.09195L31.9081 4.50773C31.6911 4.2907 31.3484 4.26336 31.0996 4.44344L28.5545 6.28617C27.0356 5.33602 25.3888 4.65328 23.6479 4.25187L23.1516 1.15125C23.103 0.848047 22.8414 0.625 22.5344 0.625H17.4655C17.1584 0.625 16.8969 0.848047 16.8484 1.15117L16.352 4.2518C14.6109 4.6532 12.9639 5.33594 11.4454 6.28602L8.90031 4.44336C8.65172 4.26328 8.30898 4.29063 8.0918 4.50766L4.5075 8.09187C4.29047 8.30898 4.26312 8.65164 4.44328 8.90039L6.28602 11.4455C5.33555 12.9648 4.65281 14.6115 4.25172 16.352L1.15109 16.8484C0.847969 16.897 0.625 17.1585 0.625 17.4655V22.5345C0.625 22.8415 0.847969 23.103 1.15117 23.1516L4.2518 23.6479C4.6532 25.389 5.33602 27.0359 6.28609 28.5545L4.44336 31.0996C4.2632 31.3483 4.29055 31.6909 4.50758 31.908L8.09187 35.4923C8.30914 35.7095 8.6518 35.7365 8.90039 35.5566L11.4455 33.7138C12.9648 34.6643 14.6117 35.3471 16.3521 35.7481L16.8484 38.8488C16.897 39.1519 17.1586 39.3749 17.4655 39.3749H22.5345C22.8415 39.3749 23.103 39.1519 23.1516 38.8488L23.5969 36.0671C25.2248 38.083 27.7152 39.3749 30.502 39.3749C35.3946 39.375 39.375 35.3946 39.375 30.502C39.375 27.7152 38.083 25.2247 36.0671 23.5968L38.8488 23.1516C39.152 23.1031 39.375 22.8416 39.375 22.5345ZM31.1643 21.6538C30.9456 21.6376 30.7248 21.6291 30.502 21.6291C29.1603 21.6291 27.8876 21.9291 26.7463 22.4645V21.4762C26.7463 19.9994 25.628 18.8751 23.678 18.3914C22.9985 18.2229 22.3197 18.1021 21.6428 18.0259C22.6779 17.2994 23.3797 15.9098 23.3797 14.3176C23.3797 12.164 22.0847 10.8261 20.0001 10.8261C17.9154 10.8261 16.6204 12.164 16.6204 14.3176C16.6204 15.9064 17.3192 17.2933 18.3506 18.021C17.6677 18.0971 16.9892 18.2198 16.3169 18.3927C14.3416 18.9004 13.2537 19.9955 13.2537 21.4762V27.0369C13.2537 27.382 13.5335 27.6619 13.8787 27.6619H22.0953C21.7931 28.554 21.6291 29.5092 21.6291 30.502C21.6291 30.7248 21.6376 30.9456 21.6538 31.1643C21.1071 31.2446 20.553 31.2853 20 31.2853C13.7773 31.2853 8.71469 26.2227 8.71469 19.9999C8.71469 13.7771 13.7773 8.71461 20 8.71461C26.2227 8.71461 31.2853 13.7773 31.2853 20C31.2853 20.553 31.2446 21.1071 31.1643 21.6538ZM23.3397 22.1295C22.9945 22.1295 22.7147 22.4093 22.7147 22.7545V26.2527C22.6859 26.3054 22.6577 26.3585 22.6299 26.4118H17.2852V22.7545C17.2852 22.4093 17.0053 22.1295 16.6602 22.1295C16.315 22.1295 16.0352 22.4093 16.0352 22.7545V26.4118H14.5036V21.4761C14.5036 20.3795 15.6588 19.8523 16.628 19.6032C18.8253 19.0381 21.0959 19.0386 23.377 19.6045C24.1685 19.8009 25.4963 20.305 25.4963 21.4761V23.1799C24.9363 23.564 24.4223 24.0103 23.9647 24.5092V22.7544C23.9647 22.4093 23.6848 22.1295 23.3397 22.1295ZM20 17.3129C18.8257 17.3129 17.8703 15.9691 17.8703 14.3175C17.8703 12.3672 19.2046 12.076 20 12.076C20.7954 12.076 22.1296 12.3673 22.1296 14.3175C22.1296 15.9692 21.1742 17.3129 20 17.3129ZM38.125 30.502C38.125 34.7054 34.7054 38.125 30.502 38.125C26.2987 38.125 22.8791 34.7054 22.8791 30.502C22.8791 26.2987 26.2987 22.8791 30.502 22.8791C34.7054 22.8791 38.125 26.2987 38.125 30.502ZM38.125 22.0016L35.1288 22.4811C34.972 22.5063 34.8351 22.5896 34.74 22.7084C34.0154 22.3128 33.2296 22.0158 32.4011 21.8345C32.4902 21.228 32.5353 20.6134 32.5353 20C32.5353 13.088 26.912 7.46469 19.9999 7.46469C13.0879 7.46469 7.46461 13.088 7.46461 20C7.46461 26.912 13.088 32.5354 19.9999 32.5354C20.6134 32.5354 21.2279 32.4902 21.8344 32.4012C22.0158 33.2297 22.3128 34.0155 22.7084 34.7402C22.5896 34.8352 22.5063 34.972 22.4811 35.129L22.0015 38.125H17.9984L17.5188 35.1289C17.4777 34.8716 17.2811 34.6668 17.0257 34.6152C15.1448 34.2345 13.3766 33.5015 11.7702 32.4363C11.5532 32.2924 11.2695 32.2982 11.0584 32.451L8.59898 34.2317L5.76844 31.4011L7.54906 28.9416C7.70187 28.7305 7.70773 28.4469 7.56375 28.2297C6.49906 26.6245 5.76594 24.8563 5.38492 22.9743C5.3332 22.7188 5.12844 22.5223 4.87117 22.4812L1.875 22.0016V17.9984L4.87109 17.5188C5.12844 17.4777 5.3332 17.2811 5.38484 17.0257C5.76555 15.1447 6.49859 13.3766 7.56367 11.7703C7.70773 11.5532 7.70187 11.2695 7.54898 11.0584L5.76836 8.59906L8.59891 5.76844L11.0583 7.54906C11.2693 7.70187 11.5531 7.70766 11.7702 7.56367C13.3754 6.49906 15.1436 5.76594 17.0257 5.38484C17.2811 5.33313 17.4776 5.12836 17.5188 4.87109L17.9984 1.875H22.0015L22.4811 4.87109C22.5223 5.12836 22.7188 5.33313 22.9742 5.38484C24.8559 5.76586 26.6241 6.49898 28.2297 7.56367C28.4467 7.70758 28.7304 7.70187 28.9416 7.54898L31.4009 5.76836L34.2316 8.59898L32.4509 11.0584C32.2981 11.2695 32.2923 11.5531 32.4362 11.7703C33.5009 13.3753 34.2339 15.1435 34.6151 17.0257C34.6668 17.2811 34.8716 17.4776 35.1288 17.5188L38.125 17.9984V22.0016ZM33.0182 27.0615L29.2837 30.8504L27.986 29.5527C27.6388 29.2055 27.177 29.0141 26.6859 29.0141C26.1947 29.0141 25.733 29.2054 25.3857 29.5527C25.0384 29.8999 24.847 30.3617 24.847 30.8528C24.847 31.344 25.0383 31.8057 25.3856 32.153L27.9886 34.7559C28.3471 35.1144 28.8179 35.2936 29.2887 35.2935C29.7596 35.2935 30.2305 35.1143 30.589 34.7559C31.9165 33.4283 34.6266 30.6541 35.623 29.6478C35.9687 29.3002 36.1583 28.8388 36.157 28.3486C36.1555 27.8584 35.9634 27.398 35.6158 27.0523C34.8983 26.3387 33.7338 26.342 33.0182 27.0615ZM34.7356 28.7675C33.7353 29.7777 31.0274 32.5498 29.705 33.8721C29.4755 34.1016 29.102 34.1016 28.8725 33.8721L26.2696 31.2691H26.2695C26.1584 31.158 26.0971 31.0102 26.0971 30.8529C26.0971 30.6957 26.1584 30.5478 26.2696 30.4366C26.3808 30.3255 26.5285 30.2642 26.6859 30.2642C26.8431 30.2642 26.9909 30.3255 27.1021 30.4366L28.845 32.1795C28.9622 32.2966 29.1212 32.3625 29.2869 32.3625H29.2891C29.4557 32.3619 29.6151 32.2948 29.732 32.1762L33.9064 27.9411C34.134 27.7122 34.5054 27.7113 34.7344 27.9388C34.8452 28.0491 34.9065 28.1959 34.907 28.3522C34.9073 28.5084 34.8469 28.6556 34.7356 28.7675Z" fill="white"/>
</g>
<defs>
<clipPath id="clip0_2801_4332">
<rect width="40" height="40" fill="white"/>
</clipPath>
</defs>
</svg>
