<svg width="23" height="21" viewBox="0 0 23 21" fill="none" xmlns="http://www.w3.org/2000/svg">
<path fill-rule="evenodd" clip-rule="evenodd" d="M16.0605 0C19.4759 0 22.0513 2.7939 22.0513 6.49887V13.5612C22.0513 15.4574 21.3826 17.1706 20.1672 18.386C19.0769 19.475 17.6626 20.0519 16.0769 20.0519H5.97128C4.38872 20.0519 2.97538 19.476 1.8841 18.386C0.668718 17.1706 0 15.4574 0 13.5612V6.49887C0 2.7939 2.57538 0 5.99077 0H16.0605ZM16.0605 1.54245H5.99077C3.41128 1.54245 1.53846 3.62682 1.53846 6.49887V13.5612C1.53846 15.0451 2.04718 16.3706 2.97025 17.2929C3.76615 18.0899 4.80513 18.5094 5.97436 18.5094H16.0605C16.0626 18.5074 16.0708 18.5094 16.0769 18.5094C17.2472 18.5094 18.2851 18.0899 19.081 17.2929C20.0051 16.3706 20.5128 15.0451 20.5128 13.5612V6.49887C20.5128 3.62682 18.64 1.54245 16.0605 1.54245ZM17.6769 6.30225C17.9446 6.63234 17.8943 7.1177 17.5651 7.38711L13.0072 11.1013C12.4308 11.56 11.7415 11.7893 11.0533 11.7893C10.3672 11.7893 9.68307 11.562 9.11076 11.1075L4.51077 7.38917C4.17949 7.12181 4.1282 6.63542 4.39384 6.30431C4.66154 5.97423 5.14564 5.92178 5.47589 6.18811L10.0718 9.90234C10.6492 10.361 11.4626 10.361 12.0441 9.89822L16.5938 6.19017C16.9241 5.91973 17.4082 5.97114 17.6769 6.30225Z" fill="#E8112B"/>
</svg>
