<svg width="40" height="40" viewBox="0 0 40 40" fill="none" xmlns="http://www.w3.org/2000/svg">
<g clip-path="url(#clip0_3023_684)">
<path d="M30.1562 40H9.84375V36.875H14.5312V33.75H0V7.8125H6.25V10.9375H3.125V30.625H36.875V10.9375H33.75V7.8125H40V33.75H25.4688V36.875H30.1562V40ZM17.6562 36.875H22.3438V33.75H17.6562V36.875ZM30.9375 27.5H27.8125V24.375H30.9375V27.5ZM24.6875 27.5H21.5625V24.375H24.6875V27.5ZM18.4375 27.5H15.3125V24.375H18.4375V27.5ZM12.1875 27.5H9.0625V24.375H12.1875V27.5ZM20.7812 20.3125H17.6562V14.8438H14.8438C11.8283 14.8438 9.375 12.3905 9.375 9.375C9.375 6.35953 11.8283 3.90625 14.8438 3.90625H18.8963L27.9588 0H30.625V18.75H27.9588L20.7812 15.6562V20.3125ZM20.7812 12.2533L27.5 15.1493V3.6007L20.7812 6.49672V12.2533ZM14.8438 7.03125C13.5514 7.03125 12.5 8.08266 12.5 9.375C12.5 10.6673 13.5514 11.7188 14.8438 11.7188H17.6562V7.03125H14.8438Z" fill="#6152D9"/>
</g>
<defs>
<clipPath id="clip0_3023_684">
<rect width="40" height="40" fill="white"/>
</clipPath>
</defs>
</svg>
