<svg width="55" height="55" viewBox="0 0 55 55" fill="none" xmlns="http://www.w3.org/2000/svg">
<circle cx="27.5" cy="27.5" r="26" fill="#6152D9" stroke="white" stroke-width="3"/>
<g clip-path="url(#clip0_3519_1172)">
<path d="M42.08 18.69C42.9991 15.3919 43.0004 13.0177 43 12.9183C42.999 12.6716 42.8975 12.4359 42.7189 12.2656C42.5404 12.0954 42.3003 12.0053 42.0537 12.016C34.617 12.3289 27.5619 15.8573 23.0362 21.7906L17.7845 21.5353C17.5292 21.5234 17.2802 21.619 17.0993 21.7999L12.2656 26.6336C12.0309 26.8683 11.9432 27.2125 12.0369 27.5308C12.1306 27.8492 12.3908 28.0909 12.7151 28.1611L18.312 29.3713C17.5476 30.8108 17.0682 31.8216 17.0133 31.938C16.8502 32.2841 16.9218 32.6953 17.1924 32.9658L17.597 33.3704C17.1586 33.5238 16.7472 33.7753 16.3974 34.1251C16.1248 34.3977 15.9061 34.7133 15.7471 35.064L12.1508 41.5987C11.9572 41.9506 12.0181 42.388 12.3005 42.6735C12.4752 42.8502 12.7089 42.9427 12.9456 42.9427C13.0915 42.9427 13.2386 42.9075 13.3737 42.8351L19.9832 39.2918C20.0858 39.2451 20.1852 39.1935 20.2791 39.1381C20.2888 39.1326 20.2983 39.1269 20.3076 39.1211C20.5286 38.9876 20.7333 38.8272 20.9164 38.6442C21.2661 38.2944 21.5177 37.883 21.6711 37.4446L22.1266 37.9001C22.4108 38.1847 22.848 38.2462 23.1978 38.0573C23.3168 37.9931 24.2732 37.4764 25.6221 36.7068L26.8254 42.2714C26.9672 42.9642 27.8562 43.2281 28.3529 42.7209L33.1867 37.8871C33.3675 37.7063 33.4636 37.4575 33.4512 37.2019L33.1962 31.9559C34.1353 31.2768 34.9514 30.6221 35.5308 30.0427C39.0283 26.479 40.8712 22.8201 42.08 18.69ZM40.316 18.264C40.1229 18.9506 39.8753 19.7146 39.56 20.5289L34.4621 15.431C36.5841 14.6023 38.8186 14.0859 41.1322 13.8915C41.0495 14.8347 40.8412 16.3972 40.316 18.264ZM14.7239 26.74L18.0977 23.3663L21.7779 23.5451C20.8262 24.95 19.9521 26.4102 19.2192 27.712L14.7239 26.74ZM20.2752 33.484L18.9315 32.1403C19.1474 31.7036 19.4814 31.0417 19.9055 30.2434L21.7107 32.0485L20.2752 33.484ZM19.634 37.3618C19.5527 37.4431 19.4617 37.5141 19.3635 37.5726C19.3619 37.5736 19.3603 37.5746 19.3587 37.5755C19.3149 37.6014 19.2669 37.6258 19.2161 37.6483C19.1952 37.6576 19.1745 37.6676 19.1543 37.6785L15.2166 39.7894L17.3542 35.9054C17.3675 35.8812 17.3798 35.8564 17.3908 35.8311C17.46 35.6726 17.5572 35.5301 17.6797 35.4076C18.2185 34.8688 19.0952 34.8689 19.634 35.4076C20.1728 35.9464 20.1728 36.823 19.634 37.3618ZM22.9284 36.1373L21.5575 34.7664L22.9931 33.3308L24.7664 35.1042C24.0005 35.542 23.3592 35.8995 22.9284 36.1373ZM31.6202 36.8887L28.2464 40.2625L27.2709 35.751C28.5882 34.9752 30.0632 34.0752 31.4392 33.166L31.6202 36.8887ZM34.2484 28.7604C32.7115 30.2973 29.203 32.5048 26.3895 34.1627L24.2753 32.0485L27.2551 29.0688C27.6092 28.7147 27.6092 28.1406 27.2551 27.7864C26.901 27.4323 26.3269 27.4323 25.9727 27.7864L22.993 30.7662L20.8124 28.5856C20.8921 28.4442 20.9733 28.3012 21.0561 28.1565C22.9302 24.8835 24.737 22.3373 26.2812 20.7931C28.1657 18.9087 30.3165 17.3698 32.6797 16.2133L38.7852 22.3189C37.7849 24.4035 36.3383 26.6704 34.2484 28.7604Z" fill="white"/>
<path d="M34.1885 20.8535C31.8227 18.4774 27.7018 20.1834 27.7156 23.5348C27.6735 25.5728 29.4692 27.3686 31.5074 27.3264C34.8584 27.3403 36.5651 23.219 34.1885 20.8535ZM32.9061 24.9335C32.1697 25.7009 30.8449 25.701 30.1085 24.9335C29.3411 24.1972 29.3411 22.8722 30.1085 22.1359C30.8798 21.3646 32.1348 21.3647 32.9061 22.1359C33.6774 22.9072 33.6774 24.1622 32.9061 24.9335Z" fill="white"/>
</g>
<defs>
<clipPath id="clip0_3519_1172">
<rect width="31" height="31" fill="white" transform="translate(12 12)"/>
</clipPath>
</defs>
</svg>
