<svg width="40" height="40" viewBox="0 0 40 40" fill="none" xmlns="http://www.w3.org/2000/svg">
<g clip-path="url(#clip0_2801_6613)">
<path d="M27.7464 27.3516C27.315 27.3516 26.9652 27.7015 26.9652 28.1329C26.9652 28.5643 27.315 28.9141 27.7464 28.9141H36.1848C36.5602 28.9141 36.8824 28.6473 36.9523 28.2786L39.6356 14.1477C39.6791 13.9191 39.6183 13.683 39.4698 13.5037C39.3215 13.3245 39.1008 13.2207 38.8681 13.2207H34.6001V4.06539C34.6001 3.81891 34.4837 3.5868 34.2861 3.4393C34.0886 3.29187 33.8332 3.24609 33.5966 3.31641C32.0191 3.78453 30.127 3.77852 28.5352 3.30031C27.5576 3.00656 25.8412 2.25953 25.3297 0.556562C25.2305 0.22625 24.9264 0 24.5815 0C24.2366 0 23.9324 0.22625 23.8333 0.556562C23.3218 2.25953 21.6053 3.00656 20.6277 3.30031C19.0363 3.77844 17.1441 3.78461 15.5663 3.31641C15.3299 3.24625 15.0743 3.2918 14.8768 3.4393C14.6792 3.5868 14.5628 3.81883 14.5628 4.06539V13.2207H10.2385L10.0859 12.4167C10.0845 12.4095 10.083 12.4021 10.0814 12.3949C9.60664 10.2336 8.59398 9.35203 6.58617 9.35203H1.13281C0.701406 9.35203 0.351562 9.70187 0.351562 10.1333C0.351562 10.5647 0.701406 10.9145 1.13281 10.9145H6.58609C7.65117 10.9145 8.19336 11.0929 8.55289 12.7195L8.82391 14.1465C8.82516 14.1532 8.82633 14.16 8.82773 14.1666L11.5058 28.2678C11.5078 28.2796 11.5098 28.2913 11.5124 28.303L11.8977 30.3316C12.0993 31.3939 12.4746 33.3713 15.2764 33.3743L16.3585 33.3759C15.7994 34.074 15.4639 34.958 15.4639 35.9193C15.4639 38.1695 17.298 40.0002 19.5522 40.0002C21.8064 40.0002 23.6404 38.1695 23.6404 35.9193C23.6404 34.9622 23.3077 34.0816 22.7529 33.3849L30.8709 33.3963C30.3216 34.0912 29.9924 34.9673 29.9924 35.9192C29.9924 38.1695 31.8265 40.0001 34.0807 40.0001C36.3349 40.0001 38.1689 38.1694 38.1689 35.9192C38.1689 33.6697 36.3361 31.8395 34.0828 31.8384C34.0825 31.8384 34.0821 31.8383 34.0818 31.8383L15.2783 31.8117C13.8387 31.8102 13.6473 31.1705 13.4327 30.0399L13.2188 28.9141H20.7128C21.1442 28.9141 21.4941 28.5643 21.4941 28.1329C21.4941 27.7015 21.1442 27.3516 20.7128 27.3516H12.922L10.5351 14.7832H14.6081C15.1079 19.933 19.7189 22.8968 24.2358 25.1242C24.3448 25.178 24.463 25.2048 24.5813 25.2048C24.6997 25.2048 24.8179 25.1779 24.9269 25.1242C29.4437 22.8968 34.0547 19.933 34.5545 14.7832H37.9245L35.5377 27.3516H27.7464ZM19.5522 38.4375C18.1595 38.4375 17.0264 37.3077 17.0264 35.9191C17.0264 34.5305 18.1595 33.4008 19.5522 33.4008C20.9448 33.4008 22.0779 34.5305 22.0779 35.9191C22.0779 37.3077 20.9448 38.4375 19.5522 38.4375ZM36.6065 35.9191C36.6065 37.3077 35.4734 38.4375 34.0808 38.4375C32.688 38.4375 31.555 37.3077 31.555 35.9191C31.555 34.5305 32.688 33.4008 34.0808 33.4008C35.4734 33.4007 36.6065 34.5305 36.6065 35.9191ZM24.5815 23.5506C22.5892 22.5475 20.9809 21.552 19.723 20.5277V18.8429C19.723 17.0883 20.6867 15.4738 22.2105 14.6177C22.8984 15.0488 23.7109 15.2992 24.5814 15.2992C25.4519 15.2992 26.2644 15.0488 26.9523 14.6177C28.4761 15.4738 29.4398 17.0883 29.4398 18.8429V20.5277C28.182 21.552 26.5737 22.5475 24.5815 23.5506ZM24.5815 13.7367C22.977 13.7367 21.6717 12.4351 21.6717 10.8352C21.6717 9.23648 22.977 7.93586 24.5815 7.93586C26.1859 7.93586 27.4912 9.23648 27.4912 10.8352C27.4912 12.4351 26.1859 13.7367 24.5815 13.7367ZM31.0023 19.0403V18.8429C31.0023 16.6924 29.9103 14.7022 28.1503 13.5217C28.7169 12.7737 29.0536 11.843 29.0536 10.8352C29.0536 8.37492 27.0473 6.37336 24.5814 6.37336C22.1154 6.37336 20.1091 8.37492 20.1091 10.8352C20.1091 11.843 20.4459 12.7737 21.0125 13.5217C19.2525 14.7022 18.1605 16.6924 18.1605 18.8429V19.0403C16.8072 17.4993 16.1625 15.8605 16.127 14.012C16.127 14.0086 16.1275 14.0053 16.1275 14.0019C16.1275 13.9967 16.1268 13.9917 16.1267 13.9866C16.126 13.9409 16.1253 13.8952 16.1253 13.8491V5.05219C17.7466 5.34633 19.5329 5.2607 21.0773 4.79664C22.615 4.33469 23.8145 3.54109 24.5816 2.49992C25.3486 3.54109 26.548 4.33469 28.0858 4.79664C29.6303 5.2607 31.4165 5.34641 33.0377 5.05219V13.8492C33.0377 13.8952 33.037 13.9409 33.0363 13.9866C33.0363 13.9918 33.0355 13.9968 33.0355 14.002C33.0355 14.0053 33.036 14.0086 33.0361 14.012C33.0003 15.8605 32.3557 17.4993 31.0023 19.0403Z" fill="white"/>
<path d="M24.2277 27.3516H24.2255C23.7941 27.3516 23.4453 27.7014 23.4453 28.1328C23.4453 28.5642 23.7962 28.9141 24.2277 28.9141C24.6592 28.9141 25.009 28.5642 25.009 28.1328C25.009 27.7014 24.6591 27.3516 24.2277 27.3516Z" fill="white"/>
</g>
<defs>
<clipPath id="clip0_2801_6613">
<rect width="40" height="40" fill="white"/>
</clipPath>
</defs>
</svg>
