<svg width="70" height="70" viewBox="0 0 70 70" fill="none" xmlns="http://www.w3.org/2000/svg">
<g clip-path="url(#clip0_2801_6061)">
<path d="M67.9492 46.4911H56.8246V36.2928C56.8246 35.1592 55.9063 34.24 54.7738 34.24H43.6356V18.8179H49.5988C50.4283 18.8179 51.176 18.3177 51.4935 17.5507C51.8109 16.7836 51.6355 15.9007 51.0491 15.3136L36.3539 0.601306C35.5534 -0.200276 34.255 -0.200413 33.454 0.600759L18.9438 15.1174C18.357 15.7044 18.1813 16.5874 18.4987 17.3547C18.8161 18.122 19.5639 18.6222 20.3935 18.6222H26.3568V34.24H15.2229C14.0904 34.24 13.1722 35.159 13.1722 36.2928V46.4911H2.05078C0.918203 46.4911 0 47.4101 0 48.5439V67.9472C0 69.081 0.918203 70 2.05078 70H67.9492C69.0818 70 70 69.081 70 67.9472V48.5439C70 47.4103 69.0818 46.4911 67.9492 46.4911ZM13.1722 65.8944H4.10156V50.5968H13.1722V65.8944ZM26.3568 65.8944H17.2863L17.2737 38.3455H26.3568V65.8944ZM39.534 16.765V66.0309H30.4586L30.4585 16.5692C30.4585 15.4356 29.5403 14.5164 28.4077 14.5164H25.3466L34.9032 4.95539L44.6484 14.712H41.5848C40.4521 14.7122 39.534 15.6312 39.534 16.765ZM52.7136 65.8944H43.6397V38.3455H52.7229L52.7136 65.8944ZM65.8984 65.8944H56.8246V50.5968H65.8984V65.8944Z" fill="#6152D9"/>
</g>
<defs>
<clipPath id="clip0_2801_6061">
<rect width="70" height="70" fill="white"/>
</clipPath>
</defs>
</svg>
