<svg width="60" height="60" viewBox="0 0 60 60" fill="none" xmlns="http://www.w3.org/2000/svg">
<g clip-path="url(#clip0_2801_1039)">
<path d="M38.7006 18.0854C38.0142 17.3989 36.9013 17.3989 36.2147 18.0854L26.4841 27.8156L23.7848 25.1166C23.0985 24.4302 21.9854 24.4303 21.299 25.1167L16.3274 30.0883C15.6409 30.7747 15.6409 31.8878 16.3274 32.5742L25.2413 41.4882C25.9272 42.1742 27.0409 42.1747 27.7272 41.4882L43.6725 25.543C44.3585 24.8572 44.3588 23.7435 43.6725 23.0571L38.7006 18.0854ZM26.4841 37.7594L20.0562 31.3312L22.5419 28.8455L25.2412 31.5445C25.9276 32.2309 27.0406 32.2308 27.727 31.5444L37.4576 21.8142L39.9433 24.3L26.4841 37.7594Z" fill="#6152D9"/>
<path d="M56.8633 24.6532C57.6441 22.041 57.7374 19.4179 57.7414 19.2935C57.7576 18.7884 57.5556 18.3006 57.1868 17.9548C57.096 17.8696 55.1734 16.0792 52.7727 14.7841C52.4949 12.0705 51.5764 9.60882 51.5324 9.49234C51.3542 9.01949 50.9808 8.64613 50.5078 8.46789C50.3914 8.42394 47.9298 7.50542 45.2162 7.22757C43.9211 4.82675 42.1305 2.90429 42.0454 2.81347C41.6997 2.4448 41.2131 2.24253 40.7067 2.25906C40.5823 2.26304 37.9592 2.35632 35.3469 3.13726C33.2532 1.41132 30.89 0.236753 30.7777 0.18144C30.2875 -0.0603174 29.7128 -0.0603174 29.2226 0.18144C29.1103 0.236753 26.7471 1.41132 24.6533 3.13726C22.0411 2.35632 19.418 2.26316 19.2935 2.25906C18.7882 2.24265 18.3006 2.4448 17.9549 2.81347C17.8697 2.90429 16.0792 4.82687 14.7841 7.22757C12.0705 7.50542 9.60894 8.42394 9.49245 8.46789C9.01948 8.64613 8.64624 9.01949 8.46788 9.49234C8.42394 9.60882 7.5053 12.0705 7.22757 14.7841C4.82687 16.0792 2.90429 17.8696 2.81347 17.9548C2.4448 18.3006 2.24265 18.7884 2.25894 19.2935C2.26292 19.418 2.3562 22.041 3.13714 24.6532C1.4112 26.747 0.236631 29.1103 0.181318 29.2225C-0.0604394 29.7127 -0.0604394 30.2873 0.181318 30.7775C0.236631 30.8896 1.41108 33.2533 3.13726 35.3469C2.35655 37.9591 2.26304 40.5821 2.25905 40.7064C2.24276 41.2117 2.44479 41.6996 2.81358 42.0453C2.9044 42.1305 4.82698 43.9206 7.22757 45.2158C7.50542 47.9296 8.42394 50.3912 8.46788 50.5077C8.64624 50.9807 9.0196 51.3541 9.49257 51.5323C9.60905 51.5761 12.0705 52.4944 14.7839 52.7721C16.0791 55.1731 17.8697 57.0957 17.9548 57.1864C18.3006 57.555 18.7855 57.7557 19.2935 57.7408C19.4179 57.7368 22.0408 57.6433 24.6528 56.8626C26.7467 58.5886 29.1101 59.7633 29.2224 59.8187C29.7126 60.0604 30.2873 60.0605 30.7775 59.8187C30.8897 59.7633 33.2532 58.5886 35.3471 56.8626C37.9592 57.6433 40.5819 57.7368 40.7063 57.7408C41.2112 57.7544 41.6992 57.555 42.045 57.1864C42.1302 57.0957 43.9209 55.1731 45.216 52.7721C47.9295 52.4944 50.3909 51.5761 50.5074 51.5323C50.9803 51.3541 51.3537 50.9807 51.5321 50.5077C51.576 50.3912 52.4946 47.9296 52.7724 45.2158C55.173 43.9206 57.0955 42.1305 57.1864 42.0453C57.5551 41.6996 57.7572 41.2117 57.7409 40.7064C57.7369 40.5819 57.6434 37.9591 56.8627 35.3469C58.5889 33.2533 59.7632 30.8896 59.8186 30.7773C60.0603 30.2873 60.0603 29.7127 59.8186 29.2225C59.7637 29.1103 58.5891 26.747 56.8633 24.6532ZM53.2313 35.5702C53.8316 37.1563 54.0751 38.9863 54.1702 40.0128C53.38 40.6701 51.9204 41.787 50.3658 42.488C49.7535 42.764 49.3521 43.3648 49.3314 44.0362C49.2791 45.7315 48.8037 47.5153 48.4987 48.5001C47.517 48.805 45.741 49.2783 44.0364 49.3309C43.365 49.3518 42.7642 49.7533 42.4882 50.3655C41.7914 51.911 40.6704 53.3765 40.0117 54.1696C38.9844 54.0743 37.1558 53.8307 35.5705 53.2307C34.9424 52.993 34.2335 53.134 33.7443 53.5941C32.513 54.7518 30.9285 55.7237 29.9992 56.2479C29.072 55.7256 27.4934 54.7573 26.256 53.5941C25.7675 53.1348 25.0586 52.9927 24.4298 53.2307C22.8441 53.8308 21.0151 54.0744 19.9886 54.1696C19.3295 53.3761 18.2087 51.9108 17.5119 50.3655C17.236 49.7532 16.6351 49.3518 15.9638 49.3309C14.2692 49.2787 12.4861 48.8038 11.5012 48.4988C11.196 47.5132 10.721 45.7305 10.6688 44.0363C10.6482 43.3649 10.2467 42.7641 9.63437 42.488C8.08901 41.7912 6.62347 40.6701 5.83022 40.0114C5.92538 38.9841 6.16901 37.1555 6.76901 35.5702C7.00679 34.9421 6.86569 34.2332 6.40562 33.7438C5.24804 32.5126 4.2762 30.9284 3.75202 29.9992C4.27433 29.072 5.24241 27.4934 6.40573 26.2561C6.86581 25.7668 7.00679 25.0579 6.76901 24.4298C6.16878 22.8442 5.92526 21.0152 5.83011 19.9887C6.62382 19.3295 8.08925 18.2087 9.63437 17.5118C10.2467 17.2359 10.6482 16.635 10.6688 15.9635C10.721 14.2684 11.1965 12.4845 11.5015 11.4999C12.4831 11.195 14.2589 10.7214 15.9635 10.6689C16.6349 10.6482 17.2357 10.2467 17.5118 9.63437C18.2086 8.0889 19.3298 6.62335 19.9885 5.83011C21.0157 5.92538 22.8446 6.1689 24.4298 6.76902C25.058 7.00667 25.7667 6.8657 26.2561 6.40574C27.4874 5.24816 29.0717 4.27632 30.001 3.75214C30.9282 4.27445 32.5066 5.24253 33.7439 6.40574C34.2332 6.86581 34.9421 7.00667 35.5703 6.76902C37.1566 6.16855 38.9866 5.92503 40.0129 5.82999C40.6703 6.62007 41.7872 8.07953 42.4882 9.63437C42.7642 10.2468 43.3651 10.6482 44.0365 10.6689C45.7316 10.7212 47.5156 11.1966 48.5003 11.5015C48.8052 12.4831 49.2788 14.2589 49.3314 15.9635C49.3521 16.6349 49.7535 17.2356 50.3658 17.5117C51.9113 18.2086 53.3768 19.3299 54.1701 19.9885C54.0749 21.0159 53.8313 22.8444 53.2313 24.4296C52.9935 25.0578 53.1345 25.7666 53.5946 26.256C54.7523 27.4875 55.7241 29.0718 56.2483 30.001C55.7261 30.928 54.758 32.5067 53.5948 33.7437C53.1346 34.2332 52.9936 34.9421 53.2313 35.5702Z" fill="#6152D9"/>
</g>
<defs>
<clipPath id="clip0_2801_1039">
<rect width="60" height="60" fill="white"/>
</clipPath>
</defs>
</svg>
