<svg width="40" height="40" viewBox="0 0 40 40" fill="none" xmlns="http://www.w3.org/2000/svg">
<g clip-path="url(#clip0_3023_673)">
<path d="M39.6007 1.34265C39.5134 0.862494 39.1376 0.486633 38.6574 0.399367C30.8459 -1.02111 22.8352 1.39656 17.1158 6.87292C12.4026 6.6569 7.82098 8.42449 4.47331 11.7722L2.26353 13.9819C1.99712 14.2483 1.87509 14.6265 1.9354 14.9983C1.99571 15.3702 2.23111 15.6902 2.56806 15.8588L8.37411 18.7618C7.6445 20.2092 6.99035 21.702 6.41433 23.2381C6.26386 23.6394 6.34527 24.0881 6.62051 24.4103C4.76729 25.8257 3.21502 27.6196 2.08728 29.6649C0.721801 32.1414 0 34.9447 0 37.7719V38.8282C0 39.4754 0.524691 40.0001 1.17188 40.0001H2.22822C5.05526 40.0001 7.85856 39.2783 10.3351 37.9128C12.3807 36.7849 14.1748 35.2323 15.5902 33.3789C15.8049 33.5623 16.0752 33.6603 16.3508 33.6603C16.4888 33.6603 16.6281 33.6359 16.7621 33.5857C18.2982 33.0097 19.7909 32.3556 21.2383 31.626L24.1414 37.432C24.3098 37.769 24.63 38.0044 25.0019 38.0647C25.0644 38.0749 25.1272 38.0798 25.1896 38.0798C25.4977 38.0798 25.7967 37.958 26.0181 37.7365L28.2278 35.5268C31.5755 32.1792 33.3436 27.5978 33.1271 22.8842C38.6034 17.1649 41.021 9.15434 39.6007 1.34265ZM28.8262 3.00649C31.6055 2.31547 34.5241 2.15446 37.4269 2.57313C37.8458 5.47737 37.6845 8.3973 36.9927 11.1777C36.9887 11.1837 36.9851 11.1899 36.9809 11.1959C34.9219 10.8864 33.0177 9.93294 31.5424 8.4577C30.0671 6.98237 29.1137 5.07814 28.8042 3.01915C28.8113 3.01477 28.8189 3.01079 28.8262 3.00649ZM5.07058 14.4895L6.13058 13.4295C8.48763 11.0725 11.5557 9.62536 14.8152 9.2795C12.7783 11.5747 10.9974 14.0523 9.48435 16.6966L5.07058 14.4895ZM9.20341 35.8603C7.10653 37.0165 4.73722 37.6363 2.34423 37.6558C2.36369 35.2628 2.98353 32.8935 4.13971 30.7965C5.16065 28.945 6.58504 27.3314 8.29075 26.0858L10.2738 28.0689L7.78786 30.5549C7.3302 31.0124 7.3302 31.7545 7.78786 32.2121C8.01669 32.441 8.31661 32.5554 8.61646 32.5554C8.9163 32.5554 9.2163 32.441 9.44506 32.2121L11.931 29.7262L13.914 31.7092C12.6685 33.415 11.055 34.8394 9.20341 35.8603ZM26.5705 33.8695L25.5105 34.9295L23.3036 30.5157C25.9474 29.0029 28.4248 27.2223 30.7198 25.1856C30.3738 28.4448 28.9274 31.5126 26.5705 33.8695ZM31.0358 21.6701C26.903 25.8029 22.0633 28.9798 16.6406 31.1211L13.5884 28.069L19.3889 22.2685C19.8465 21.8109 19.8465 21.0689 19.3889 20.6112C18.9313 20.1536 18.1892 20.1536 17.7316 20.6112L11.9311 26.4117L8.87896 23.3595C11.0202 17.9367 14.1971 13.097 18.3302 8.96395L18.3882 8.90582C20.7289 6.56518 23.5205 4.80861 26.5427 3.70478C26.9766 6.12823 28.1345 8.36426 29.885 10.115C31.6357 11.8656 33.8718 13.0234 36.2952 13.4574C35.1914 16.4795 33.4348 19.2711 31.0941 21.6118L31.0358 21.6701Z" fill="#E8112B"/>
<path d="M24.6368 10.2849C23.2804 10.2849 22.0051 10.8131 21.046 11.7723C20.0869 12.7313 19.5586 14.0066 19.5586 15.363C19.5586 16.7194 20.0868 17.9948 21.046 18.9538C22.0051 19.913 23.2804 20.4412 24.6368 20.4412C25.9932 20.4412 27.2685 19.913 28.2276 18.9538C29.1867 17.9948 29.7149 16.7194 29.7149 15.363C29.7149 14.0066 29.1867 12.7313 28.2276 11.7723C27.2684 10.813 25.9932 10.2849 24.6368 10.2849ZM26.5703 17.2966C25.5042 18.3626 23.7694 18.3626 22.7033 17.2966C21.6372 16.2305 21.6372 14.4956 22.7033 13.4295C23.2363 12.8965 23.9366 12.63 24.6368 12.63C25.337 12.63 26.0373 12.8965 26.5703 13.4295C27.6364 14.4956 27.6364 16.2304 26.5703 17.2966Z" fill="#E8112B"/>
</g>
<defs>
<clipPath id="clip0_3023_673">
<rect width="40" height="40" fill="white"/>
</clipPath>
</defs>
</svg>
