<svg width="20" height="21" viewBox="0 0 20 21" fill="none" xmlns="http://www.w3.org/2000/svg">
<path fill-rule="evenodd" clip-rule="evenodd" d="M2.30159 2.99436C2.30354 2.99436 2.25476 3.04522 2.1933 3.10586C1.95721 3.33573 1.46843 3.81403 1.46351 4.81466C1.45575 6.21437 2.37379 8.81326 6.79421 13.2442C11.1941 17.6536 13.7824 18.5848 15.1814 18.5848H15.2019C16.1999 18.5799 16.676 18.0889 16.9063 17.8532C16.9765 17.7808 17.0331 17.728 17.0731 17.6947C18.0448 16.7146 18.5423 15.9849 18.5375 15.5174C18.5306 15.0401 17.9384 14.4757 17.1199 13.6951C16.8594 13.4467 16.5765 13.1767 16.278 12.8774C15.5043 12.1037 15.1209 12.2357 14.278 12.5331C13.1122 12.9429 11.5122 13.5005 9.02637 11.0072C6.53665 8.51298 7.09372 6.9108 7.50151 5.74193C7.79614 4.89682 7.93078 4.51144 7.15615 3.7348C6.85274 3.43158 6.58055 3.14401 6.32982 2.87992C5.55618 2.06415 4.99814 1.47434 4.52497 1.46749H4.51717C4.04986 1.46749 3.32402 1.9683 2.29671 2.99827C2.29964 2.99534 2.30062 2.99436 2.30159 2.99436ZM15.1824 20.052C12.7512 20.052 9.58148 18.1114 5.76008 14.282C1.92404 10.437 -0.0144704 7.24923 8.13183e-05 4.80684C0.00894391 3.19292 0.852834 2.3664 1.1699 2.05633C1.18649 2.03579 1.24307 1.98003 1.26258 1.96047C2.66159 0.556853 3.60499 -0.0104636 4.54351 0.000145876C5.63325 0.0149678 6.40885 0.832686 7.3903 1.86853C7.63322 2.1248 7.89663 2.40357 8.19028 2.69701C9.61465 4.12508 9.20881 5.29003 8.88296 6.22513C8.52784 7.24532 8.22053 8.12564 10.0605 9.9704C11.9024 11.8152 12.7805 11.507 13.7941 11.1481C14.7277 10.8214 15.8868 10.4125 17.3131 11.8406C17.6019 12.1301 17.876 12.3913 18.1287 12.6329C19.1667 13.6218 19.9862 14.4033 20 15.4988C20.0116 16.4329 19.4457 17.3846 18.0487 18.7863L17.4301 18.3657L17.9531 18.8782C17.6438 19.1961 16.8204 20.0432 15.2097 20.052H15.1824Z" fill="#6152D9"/>
</svg>
