<svg width="85" height="85" viewBox="0 0 85 85" fill="none" xmlns="http://www.w3.org/2000/svg">
<circle cx="42.5" cy="42.5" r="42.5" fill="white"/>
<circle cx="42.5" cy="42.5" r="34.5" fill="#E8112B"/>
<path d="M39.5796 40.316L42.5331 37.61C43.3407 36.8686 43.9083 35.9029 44.1631 34.8366C44.4179 33.7704 44.3483 32.6524 43.9631 31.626L42.7036 28.2627C42.2331 27.0071 41.3015 25.9782 40.0987 25.3855C38.896 24.7928 37.5125 24.6809 36.2301 25.0727C31.5111 26.5165 27.8839 30.9027 29.0004 36.1112C29.7346 39.5377 31.1399 43.8387 33.8019 48.4147C36.4694 53.0017 39.5164 56.3897 42.1289 58.7712C46.0724 62.36 51.7099 61.4635 55.3371 58.081C56.3094 57.1744 56.8994 55.9312 56.9868 54.6047C57.0742 53.2782 56.6524 51.9683 55.8074 50.942L53.4974 48.137C52.8007 47.2887 51.8661 46.6684 50.8139 46.3557C49.7617 46.043 48.64 46.0524 47.5931 46.3825L43.7761 47.5842C42.7904 46.5669 41.9265 45.4382 41.2021 44.221C40.5029 42.99 39.9579 41.6775 39.5796 40.3132V40.316Z" fill="white"/>
</svg>
