<svg width="130" height="130" viewBox="0 0 130 130" fill="none" xmlns="http://www.w3.org/2000/svg">
<g opacity="0.15">
<path d="M123.906 36.5625H111.719C111.18 36.5625 110.663 36.7765 110.282 37.1574C109.902 37.5384 109.688 38.055 109.688 38.5938V115.781C109.688 116.32 109.902 116.837 110.282 117.218C110.663 117.598 111.18 117.812 111.719 117.812H123.906C124.445 117.812 124.962 117.598 125.343 117.218C125.723 116.837 125.938 116.32 125.938 115.781V38.5938C125.938 38.055 125.723 37.5384 125.343 37.1574C124.962 36.7765 124.445 36.5625 123.906 36.5625ZM121.875 113.75H113.75V40.625H121.875V113.75Z" fill="white"/>
<path d="M103.594 117.812C104.132 117.812 104.649 117.598 105.03 117.218C105.411 116.837 105.625 116.32 105.625 115.781V54.8438C105.625 54.305 105.411 53.7884 105.03 53.4074C104.649 53.0265 104.132 52.8125 103.594 52.8125H91.4062C90.8675 52.8125 90.3509 53.0265 89.9699 53.4074C89.589 53.7884 89.375 54.305 89.375 54.8438V115.781C89.375 116.32 89.589 116.837 89.9699 117.218C90.3509 117.598 90.8675 117.812 91.4062 117.812H103.594ZM93.4375 56.875H101.562V113.75H93.4375V56.875Z" fill="white"/>
<path d="M83.2812 117.812C83.82 117.812 84.3366 117.598 84.7176 117.218C85.0985 116.837 85.3125 116.32 85.3125 115.781V69.0625C85.3125 68.5238 85.0985 68.0071 84.7176 67.6262C84.3366 67.2453 83.82 67.0312 83.2812 67.0312H71.0938C70.555 67.0312 70.0384 67.2453 69.6574 67.6262C69.2765 68.0071 69.0625 68.5238 69.0625 69.0625V115.781C69.0625 116.32 69.2765 116.837 69.6574 117.218C70.0384 117.598 70.555 117.812 71.0938 117.812H83.2812ZM73.125 71.0938H81.25V113.75H73.125V71.0938Z" fill="white"/>
<path d="M62.9688 117.812C63.5075 117.812 64.0241 117.598 64.4051 117.218C64.786 116.837 65 116.32 65 115.781V85.3125C65 84.7738 64.786 84.2571 64.4051 83.8762C64.0241 83.4953 63.5075 83.2812 62.9688 83.2812H50.7812C50.2425 83.2812 49.7259 83.4953 49.3449 83.8762C48.964 84.2571 48.75 84.7738 48.75 85.3125V115.781C48.75 116.32 48.964 116.837 49.3449 117.218C49.7259 117.598 50.2425 117.812 50.7812 117.812H62.9688ZM52.8125 87.3438H60.9375V113.75H52.8125V87.3438Z" fill="white"/>
<path d="M42.6562 117.812C43.195 117.812 43.7116 117.598 44.0926 117.218C44.4735 116.837 44.6875 116.32 44.6875 115.781V93.4375C44.6875 92.8988 44.4735 92.3821 44.0926 92.0012C43.7116 91.6203 43.195 91.4062 42.6562 91.4062H30.4688C29.93 91.4062 29.4134 91.6203 29.0324 92.0012C28.6515 92.3821 28.4375 92.8988 28.4375 93.4375V115.781C28.4375 116.32 28.6515 116.837 29.0324 117.218C29.4134 117.598 29.93 117.812 30.4688 117.812H42.6562ZM32.5 95.4688H40.625V113.75H32.5V95.4688Z" fill="white"/>
<path d="M22.3438 117.812C22.8825 117.812 23.3991 117.598 23.7801 117.218C24.161 116.837 24.375 116.32 24.375 115.781V103.594C24.375 103.055 24.161 102.538 23.7801 102.157C23.3991 101.777 22.8825 101.562 22.3438 101.562H10.1562C9.61753 101.562 9.10087 101.777 8.71994 102.157C8.33901 102.538 8.125 103.055 8.125 103.594V115.781C8.125 116.32 8.33901 116.837 8.71994 117.218C9.10087 117.598 9.61753 117.812 10.1562 117.812H22.3438ZM12.1875 105.625H20.3125V113.75H12.1875V105.625Z" fill="white"/>
<path d="M54.8438 36.5625H58.9062C59.445 36.5625 59.9616 36.3485 60.3426 35.9676C60.7235 35.5866 60.9375 35.07 60.9375 34.5312C60.9375 33.9925 60.7235 33.4759 60.3426 33.0949C59.9616 32.714 59.445 32.5 58.9062 32.5H56.875V30.4688C56.875 29.93 56.661 29.4134 56.2801 29.0324C55.8991 28.6515 55.3825 28.4375 54.8438 28.4375C54.305 28.4375 53.7884 28.6515 53.4074 29.0324C53.0265 29.4134 52.8125 29.93 52.8125 30.4688V32.8494C51.4578 33.329 50.3163 34.2719 49.5894 35.5116C48.8625 36.7513 48.5972 38.2079 48.8402 39.6243C49.0832 41.0406 49.819 42.3255 50.9175 43.252C52.0161 44.1785 53.4067 44.6869 54.8438 44.6875C55.3825 44.6875 55.8991 44.9015 56.2801 45.2824C56.661 45.6634 56.875 46.18 56.875 46.7188C56.875 47.2575 56.661 47.7741 56.2801 48.1551C55.8991 48.536 55.3825 48.75 54.8438 48.75H50.7812C50.2425 48.75 49.7259 48.964 49.3449 49.3449C48.964 49.7259 48.75 50.2425 48.75 50.7812C48.75 51.32 48.964 51.8366 49.3449 52.2176C49.7259 52.5985 50.2425 52.8125 50.7812 52.8125H52.8125V54.8438C52.8125 55.3825 53.0265 55.8991 53.4074 56.2801C53.7884 56.661 54.305 56.875 54.8438 56.875C55.3825 56.875 55.8991 56.661 56.2801 56.2801C56.661 55.8991 56.875 55.3825 56.875 54.8438V52.4631C58.2297 51.9835 59.3712 51.0406 60.0981 49.8009C60.825 48.5612 61.0903 47.1046 60.8473 45.6882C60.6043 44.2719 59.8685 42.987 58.77 42.0605C57.6714 41.134 56.2808 40.6256 54.8438 40.625C54.305 40.625 53.7884 40.411 53.4074 40.0301C53.0265 39.6491 52.8125 39.1325 52.8125 38.5938C52.8125 38.055 53.0265 37.5384 53.4074 37.1574C53.7884 36.7765 54.305 36.5625 54.8438 36.5625Z" fill="white"/>
<path d="M123.906 12.1875H111.719C111.18 12.1875 110.663 12.4015 110.282 12.7824C109.902 13.1634 109.688 13.68 109.688 14.2187C109.688 14.7575 109.902 15.2741 110.282 15.6551C110.663 16.036 111.18 16.25 111.719 16.25H119.002L90.5649 44.6875H79.1335C79.1891 44.0174 79.2188 43.3403 79.2188 42.6562C79.2186 38.0274 77.9005 33.4943 75.4185 29.5872C72.9365 25.6801 69.3933 22.5604 65.2034 20.5931C61.0134 18.6259 56.3499 17.8923 51.7583 18.4782C47.1667 19.0642 42.8369 20.9454 39.2752 23.9019C35.7136 26.8583 33.0674 30.7678 31.6462 35.173C30.225 39.5783 30.0874 44.2971 31.2497 48.7776C32.412 53.2582 34.8261 57.3151 38.2095 60.474C41.5929 63.6328 45.8058 65.763 50.3555 66.6153L41.8151 75.1562H26.4063C26.1396 75.1562 25.8754 75.2088 25.629 75.3108C25.3825 75.4129 25.1586 75.5625 24.97 75.7511L4.65745 96.0636C4.27651 96.4446 4.0625 96.9613 4.0625 97.5C4.0625 98.0387 4.27651 98.5554 4.65745 98.9363C5.0384 99.3173 5.55507 99.5313 6.0938 99.5313C6.63254 99.5313 7.14921 99.3173 7.53015 98.9363L27.2475 79.2187H42.6563C42.9231 79.2188 43.1872 79.1662 43.4336 79.0641C43.6801 78.9621 43.904 78.8125 44.0926 78.6238L55.702 67.0145C60.9538 66.8224 66.0035 64.9415 70.1012 61.6511C74.1989 58.3607 77.126 53.8363 78.4477 48.75H91.4063C91.6731 48.75 91.9372 48.6975 92.1836 48.5954C92.4301 48.4933 92.654 48.3437 92.8427 48.1551L121.875 19.1227V26.4062C121.875 26.945 122.089 27.4616 122.47 27.8426C122.851 28.2235 123.368 28.4375 123.906 28.4375C124.445 28.4375 124.962 28.2235 125.343 27.8426C125.724 27.4616 125.938 26.945 125.938 26.4062V14.2187C125.938 13.68 125.724 13.1634 125.343 12.7824C124.962 12.4015 124.445 12.1875 123.906 12.1875ZM54.8438 62.9687C50.8264 62.9687 46.8992 61.7774 43.5588 59.5455C40.2184 57.3135 37.6149 54.1411 36.0775 50.4295C34.5401 46.7179 34.1378 42.6337 34.9216 38.6935C35.7054 34.7532 37.6399 31.1339 40.4807 28.2931C43.3215 25.4524 46.9408 23.5178 50.881 22.734C54.8213 21.9503 58.9054 22.3525 62.6171 23.8899C66.3287 25.4274 69.5011 28.0309 71.733 31.3712C73.965 34.7116 75.1563 38.6388 75.1563 42.6562C75.1502 48.0416 73.0082 53.2046 69.2002 57.0126C65.3921 60.8206 60.2291 62.9626 54.8438 62.9687Z" fill="white"/>
</g>
</svg>
