<svg width="70" height="70" viewBox="0 0 70 70" fill="none" xmlns="http://www.w3.org/2000/svg">
<g clip-path="url(#clip0_2801_6120)">
<path d="M68.3465 40.6305C66.2264 38.5104 62.824 38.425 60.6007 40.4369L48.7986 51.1151C48.5779 47.9215 45.9093 45.3907 42.6608 45.3907H32.3436C29.7192 43.6704 26.6783 42.7932 23.536 42.8478C21.22 42.8896 18.9767 43.4404 16.931 44.4534C16.0532 43.3589 14.7063 42.6563 13.1975 42.6563H4.78516C2.14662 42.6563 0 44.803 0 47.4415V65.2149C0 67.8535 2.14662 70.0001 4.78516 70.0001H13.1975C15.1025 70.0001 16.7505 68.8809 17.52 67.2657H45.3351C48.9341 67.2657 52.4031 65.7532 54.8524 63.1158L68.4905 48.43C70.5575 46.2041 70.4942 42.7782 68.3465 40.6305ZM13.8811 65.2149C13.8811 65.5919 13.5744 65.8985 13.1975 65.8985H4.78516C4.40822 65.8985 4.10156 65.5919 4.10156 65.2149V47.4415C4.10156 47.0646 4.40822 46.7579 4.78516 46.7579H13.1975C13.5744 46.7579 13.8811 47.0646 13.8811 47.4415V65.2149ZM65.4851 45.6389L51.847 60.3245C50.1711 62.1292 47.7977 63.1642 45.3351 63.1642H17.9826V48.5463C21.7306 46.3338 26.5061 46.428 30.1704 48.8709L30.586 49.1479C30.9229 49.3725 31.3186 49.4923 31.7234 49.4923H42.6608C43.7916 49.4923 44.7115 50.4123 44.7115 51.5431C44.7115 52.6739 43.7916 53.5939 42.6609 53.5939H30.3562C29.2236 53.5939 28.3054 54.5121 28.3054 55.6446C28.3054 56.7772 29.2236 57.6954 30.3562 57.6954H43.6885C46.2358 57.6954 48.679 56.7541 50.5679 55.0451L63.3523 43.4782C63.9533 42.9342 64.873 42.9573 65.446 43.5307C66.0268 44.1113 66.0439 45.0372 65.4851 45.6389Z" fill="#E8112B"/>
<path d="M24.4166 39.3611H54.2718C56.4712 39.3611 58.4517 38.2303 59.5698 36.3366C60.6879 34.4426 60.7211 32.1624 59.6587 30.2367L44.7311 3.18035C43.6323 1.18877 41.6184 0 39.3441 0C37.0698 0.000136719 35.056 1.18891 33.9575 3.18035L19.0297 30.2367C17.9673 32.1624 18.0006 34.4427 19.1186 36.3366C20.2368 38.2304 22.2172 39.3611 24.4166 39.3611ZM22.6209 32.218L37.5487 5.16168C38.0764 4.20492 38.9801 4.10156 39.3442 4.10156C39.7082 4.10156 40.6119 4.20492 41.1399 5.16168L56.0676 32.218C56.578 33.1434 56.2169 33.9481 56.038 34.2513C55.859 34.5544 55.3287 35.2595 54.272 35.2595H24.4167C23.36 35.2595 22.8297 34.5544 22.6507 34.2513C22.4716 33.9482 22.1105 33.1434 22.6209 32.218Z" fill="#E8112B"/>
<path d="M39.3438 24.322C40.4763 24.322 41.3945 23.4038 41.3945 22.2712V13.3845C41.3945 12.2519 40.4763 11.3337 39.3438 11.3337C38.2112 11.3337 37.293 12.2519 37.293 13.3845V22.2712C37.293 23.404 38.211 24.322 39.3438 24.322Z" fill="#E8112B"/>
<path d="M39.3438 27.0564C38.2112 27.0564 37.293 27.9746 37.293 29.1072C37.293 30.2398 38.2112 31.158 39.3438 31.158C40.4763 31.158 41.3945 30.2398 41.3945 29.1072C41.3945 27.9746 40.4763 27.0564 39.3438 27.0564Z" fill="#E8112B"/>
</g>
<defs>
<clipPath id="clip0_2801_6120">
<rect width="70" height="70" fill="white"/>
</clipPath>
</defs>
</svg>
