<svg width="30" height="30" viewBox="0 0 30 30" fill="none" xmlns="http://www.w3.org/2000/svg">
<g clip-path="url(#clip0_2801_8730)">
<path d="M29.7005 1.00699C29.6351 0.646871 29.3532 0.364975 28.9931 0.299525C23.1344 -0.765833 17.1264 1.04742 12.8369 5.15469C9.30193 4.99268 5.86574 6.31837 3.35498 8.82919L1.69765 10.4865C1.49784 10.6862 1.40632 10.9699 1.45155 11.2487C1.49679 11.5276 1.67333 11.7677 1.92605 11.8941L6.28058 14.0714C5.73337 15.1569 5.24276 16.2765 4.81075 17.4286C4.6979 17.7296 4.75895 18.0661 4.96538 18.3077C3.57547 19.3693 2.41126 20.7147 1.56546 22.2487C0.541351 24.106 0 26.2085 0 28.3289V29.1211C0 29.6065 0.393518 30.0001 0.878911 30.0001H1.67116C3.79145 30.0001 5.89392 29.4588 7.75135 28.4346C9.28552 27.5887 10.6311 26.4242 11.6927 25.0341C11.8537 25.1717 12.0564 25.2453 12.2631 25.2453C12.3666 25.2453 12.4711 25.2269 12.5715 25.1893C13.7236 24.7573 14.8432 24.2667 15.9287 23.7195L18.106 28.074C18.2324 28.3267 18.4725 28.5033 18.7514 28.5486C18.7983 28.5562 18.8454 28.5599 18.8922 28.5599C19.1233 28.5599 19.3475 28.4685 19.5136 28.3024L21.1709 26.6451C23.6816 24.1344 25.0077 20.6984 24.8454 17.1631C28.9526 12.8736 30.7658 6.86576 29.7005 1.00699ZM21.6196 2.25487C23.7041 1.7366 25.8931 1.61584 28.0702 1.92985C28.3844 4.10802 28.2634 6.29798 27.7445 8.38328C27.7415 8.3878 27.7388 8.39242 27.7357 8.39694C26.1914 8.16479 24.7633 7.4497 23.6568 6.34327C22.5503 5.23678 21.8353 3.80861 21.6031 2.26436C21.6085 2.26108 21.6142 2.25809 21.6196 2.25487ZM3.80293 10.8671L4.59794 10.0721C6.36572 8.30436 8.66677 7.21902 11.1114 6.95962C9.58371 8.68106 8.24806 10.5393 7.11326 12.5224L3.80293 10.8671ZM6.90256 26.8952C5.32989 27.7624 3.55291 28.2272 1.75817 28.2418C1.77276 26.4471 2.23765 24.6701 3.10478 23.0974C3.87049 21.7088 4.93878 20.4986 6.21806 19.5644L7.70536 21.0517L5.84089 22.9161C5.49765 23.2593 5.49765 23.8159 5.84089 24.1591C6.01252 24.3307 6.23746 24.4166 6.46234 24.4166C6.68723 24.4166 6.91223 24.3307 7.08379 24.1591L8.94826 22.2946L10.4355 23.7819C9.50138 25.0612 8.29124 26.1296 6.90256 26.8952ZM19.9279 25.4021L19.1329 26.1971L17.4777 22.8868C19.4606 21.7522 21.3186 20.4167 23.0398 18.8892C22.7803 21.3336 21.6956 23.6344 19.9279 25.4021ZM23.2769 16.2526C20.1772 19.3522 16.5474 21.7349 12.4804 23.3408L10.1913 21.0517L14.5416 16.7014C14.8849 16.3582 14.8849 15.8016 14.5416 15.4584C14.1985 15.1152 13.6419 15.1152 13.2987 15.4584L8.94831 19.8088L6.65922 17.5196C8.26517 13.4525 10.6478 9.82276 13.7476 6.72296L13.7912 6.67937C15.5467 4.92389 17.6404 3.60646 19.907 2.77858C20.2325 4.59617 21.1008 6.27319 22.4138 7.58623C23.7268 8.8992 25.4038 9.76757 27.2214 10.0931C26.3935 12.3597 25.0761 14.4533 23.3206 16.2088L23.2769 16.2526Z" fill="#E8112B"/>
<path d="M18.4786 7.71387C17.4613 7.71387 16.5048 8.11002 15.7855 8.82938C15.0661 9.54867 14.6699 10.5052 14.6699 11.5225C14.6699 12.5398 15.0661 13.4963 15.7855 14.2155C16.5048 14.9349 17.4613 15.3311 18.4786 15.3311C19.4959 15.3311 20.4524 14.9349 21.1717 14.2155C21.891 13.4963 22.2872 12.5398 22.2872 11.5225C22.2872 10.5052 21.891 9.54867 21.1717 8.82938C20.4523 8.10996 19.4959 7.71387 18.4786 7.71387ZM19.9287 12.9726C19.1291 13.7722 17.828 13.7722 17.0284 12.9726C16.2289 12.173 16.2289 10.8719 17.0284 10.0723C17.4282 9.67254 17.9534 9.47268 18.4786 9.47268C19.0037 9.47268 19.5289 9.67254 19.9287 10.0723C20.7283 10.8719 20.7283 12.173 19.9287 12.9726Z" fill="#E8112B"/>
</g>
<defs>
<clipPath id="clip0_2801_8730">
<rect width="30" height="30" fill="white"/>
</clipPath>
</defs>
</svg>
