<svg width="50" height="50" viewBox="0 0 50 50" fill="none" xmlns="http://www.w3.org/2000/svg">
<g clip-path="url(#clip0_2801_6168)">
<path d="M42.6758 31.4426H39.7461C38.9371 31.4426 38.2812 32.0985 38.2812 32.9075C38.2812 33.7165 38.9371 34.3723 39.7461 34.3723H42.6758C43.4848 34.3723 44.1406 33.7165 44.1406 32.9075C44.1406 32.0985 43.4848 31.4426 42.6758 31.4426Z" fill="white"/>
<path d="M42.6758 37.302H30.957C30.148 37.302 29.4922 37.9579 29.4922 38.7668C29.4922 39.5758 30.148 40.2317 30.957 40.2317H42.6758C43.4848 40.2317 44.1406 39.5758 44.1406 38.7668C44.1406 37.9579 43.4848 37.302 42.6758 37.302Z" fill="white"/>
<path d="M30.7617 9.76562H24.9023C24.0934 9.76562 23.4375 10.4215 23.4375 11.2305V13.6719H20.5078V7.32422C20.5078 6.51523 19.852 5.85938 19.043 5.85938H13.1836C12.3746 5.85938 11.7188 6.51523 11.7188 7.32422V17.5781H7.32422C6.51523 17.5781 5.85938 18.234 5.85938 19.043V24.9023C5.85938 25.7113 6.51523 26.3672 7.32422 26.3672H30.7617C31.5707 26.3672 32.2266 25.7113 32.2266 24.9023V11.2305C32.2266 10.4215 31.5707 9.76562 30.7617 9.76562ZM11.7188 23.4375H8.78906V20.5078H11.7188V23.4375ZM17.5781 23.4375H14.6484V8.78906H17.5781V23.4375ZM23.4375 23.4375H20.5078V16.6016H23.4375V23.4375ZM29.2969 23.4375H26.3672V12.6953H29.2969V23.4375Z" fill="white"/>
<path d="M45.6055 25.5832H38.0859V5.37109C38.0859 2.40469 35.6813 0 32.7148 0H5.37109C2.40469 0 0 2.40469 0 5.37109V36.6211C0 37.8726 1.46797 38.5478 2.41816 37.7333L8.84268 32.2266H23.6328V41.6965C23.6328 44.1235 25.6003 46.091 28.0273 46.091H43.1385L47.62 49.6763C48.5791 50.4436 49.9999 49.7607 49.9999 48.5324V29.9777C50 27.5507 48.0325 25.5832 45.6055 25.5832ZM8.30078 29.2969C7.95107 29.2969 7.61299 29.422 7.34746 29.6495L2.92969 33.4362V5.37109C2.92969 4.02275 4.02275 2.92969 5.37109 2.92969H32.7148C34.0632 2.92969 35.1562 4.02275 35.1562 5.37109V26.8555C35.1562 28.2038 34.0632 29.2969 32.7148 29.2969H8.30078ZM47.0703 45.4847L44.5674 43.4823C44.3076 43.2745 43.985 43.1613 43.6523 43.1613H28.0273C27.2184 43.1613 26.5625 42.5055 26.5625 41.6965V32.2266H32.7148C35.1026 32.2266 37.1255 30.6679 37.8241 28.5129H45.6055C46.4145 28.5129 47.0703 29.1687 47.0703 29.9777V45.4847Z" fill="white"/>
</g>
<defs>
<clipPath id="clip0_2801_6168">
<rect width="50" height="50" fill="white"/>
</clipPath>
</defs>
</svg>
