<svg width="24" height="16" viewBox="0 0 24 16" fill="none" xmlns="http://www.w3.org/2000/svg">
<path d="M4.94999 10.43C4.455 11.675 3.67501 12.905 2.63251 14.09C2.30251 14.465 2.25751 15.005 2.5275 15.425C2.73752 15.755 3.08249 15.935 3.45749 15.935C3.5625 15.935 3.66751 15.9275 3.77252 15.89C5.97748 15.245 11.13 12.9575 11.2725 5.62245C11.325 2.79498 9.25502 0.364989 6.5625 0.0874892C5.07001 -0.0625183 3.58502 0.424952 2.4825 1.41496C1.38002 2.41247 0.75 3.83749 0.75 5.32247C0.75 7.79747 2.50502 9.96498 4.94999 10.43Z" fill="white"/>
<path d="M18.5316 0.0874892C17.0466 -0.0625183 15.5616 0.424952 14.4591 1.41496C13.3566 2.41247 12.7266 3.83749 12.7266 5.32247C12.7266 7.79747 14.4816 9.96497 16.9266 10.43C16.4316 11.675 15.6516 12.905 14.6091 14.09C14.2791 14.465 14.2341 15.005 14.5041 15.425C14.7141 15.755 15.0591 15.9349 15.4341 15.9349C15.5391 15.9349 15.6441 15.9275 15.7491 15.8899C17.9541 15.245 23.1066 12.9575 23.2491 5.62244V5.51748C23.2491 2.73497 21.2016 0.364989 18.5316 0.0874892Z" fill="white"/>
</svg>
