<svg width="20" height="16" viewBox="0 0 20 16" fill="none" xmlns="http://www.w3.org/2000/svg">
<path d="M0 7.99988C0 7.5515 0.333195 7.18094 0.765493 7.12229L0.885674 7.11421L16.4546 7.11492L10.83 1.51329C10.4834 1.16815 10.4822 0.607378 10.8273 0.260757C11.1411 -0.0543537 11.6331 -0.0839977 11.9804 0.172519L12.0799 0.25806L19.2243 7.3718C19.27 7.41729 19.3097 7.46653 19.3434 7.51852C19.3529 7.53417 19.3626 7.55018 19.3717 7.56651C19.3802 7.58052 19.3878 7.59505 19.395 7.60975C19.405 7.63114 19.4148 7.65323 19.4237 7.67578C19.4309 7.69316 19.4369 7.71006 19.4424 7.7271C19.4489 7.74823 19.4552 7.77075 19.4607 7.79361C19.4647 7.80958 19.468 7.82494 19.4708 7.84036C19.4747 7.86331 19.478 7.88705 19.4804 7.91108C19.4825 7.9294 19.4837 7.94756 19.4844 7.96573C19.4846 7.97676 19.4848 7.98829 19.4848 7.99988L19.4844 8.03419C19.4837 8.05157 19.4825 8.06894 19.4808 8.08627L19.4848 7.99988C19.4848 8.05577 19.4797 8.11045 19.4698 8.16347C19.4675 8.17613 19.4647 8.18913 19.4617 8.20208C19.4554 8.22874 19.4481 8.25442 19.4398 8.27959C19.4356 8.29209 19.4309 8.30545 19.4257 8.31872C19.4154 8.34537 19.4041 8.37077 19.3918 8.39552C19.386 8.40715 19.3796 8.41933 19.3728 8.43139C19.3618 8.45106 19.3504 8.46976 19.3383 8.48798C19.3298 8.50087 19.3204 8.5143 19.3106 8.52751L19.3029 8.53772C19.279 8.56889 19.2531 8.59843 19.2254 8.62615L19.2244 8.62697L12.0799 15.7419C11.7333 16.087 11.1726 16.0859 10.8274 15.7393C10.5136 15.4242 10.486 14.9321 10.744 14.5859L10.83 14.4868L16.4523 8.88626L0.885674 8.88556C0.39653 8.88556 0 8.48903 0 7.99988Z" fill="#777C90"/>
</svg>
