<svg width="202" height="31" viewBox="0 0 202 31" fill="none" xmlns="http://www.w3.org/2000/svg">
<path d="M15.983 12.359C16.0397 12.4157 16.0652 12.4922 16.0595 12.5885C16.0595 12.6792 16.0368 12.7783 15.9915 12.886C15.9462 12.9937 15.8782 13.107 15.7875 13.226C15.6968 13.3393 15.5892 13.4498 15.4645 13.5575L15.473 13.549C15.4673 13.5547 15.4617 13.5603 15.456 13.566C15.4503 13.566 15.4447 13.5688 15.439 13.5745C15.4107 13.6028 15.3767 13.634 15.337 13.668C15.303 13.6963 15.269 13.7247 15.235 13.753C15.1783 13.7983 15.0962 13.8635 14.9885 13.9485C14.8808 14.0335 14.7222 14.161 14.5125 14.331C14.3085 14.501 14.0393 14.7248 13.705 15.0025C13.3707 15.2802 12.9428 15.6372 12.4215 16.0735C11.9058 16.5098 11.2825 17.0368 10.5515 17.6545C9.82617 18.2722 8.96767 19.006 7.976 19.856C7.96467 19.8787 7.942 19.9127 7.908 19.958C7.90233 19.9693 7.89383 19.9807 7.8825 19.992C7.87683 20.0033 7.87117 20.0147 7.8655 20.026V20.0175C7.7975 20.1365 7.73517 20.2527 7.6785 20.366C7.46317 20.7343 7.25067 21.0545 7.041 21.3265C6.91633 21.4852 6.78033 21.6353 6.633 21.777C6.49133 21.9187 6.32983 22.0462 6.1485 22.1595C6.04083 22.2218 5.9275 22.2728 5.8085 22.3125C5.6895 22.3522 5.56483 22.372 5.4345 22.372C5.35517 22.372 5.27867 22.3663 5.205 22.355C5.137 22.3493 5.07183 22.3323 5.0095 22.304C4.99817 22.304 4.98967 22.3012 4.984 22.2955C4.97833 22.2898 4.96983 22.2842 4.9585 22.2785L4.9245 22.2615C4.91317 22.2558 4.89617 22.2445 4.8735 22.2275C4.85083 22.2162 4.831 22.202 4.814 22.185C4.797 22.1737 4.78567 22.168 4.78 22.168C4.77433 22.168 4.78 22.1765 4.797 22.1935C4.75167 22.1652 4.71483 22.1255 4.6865 22.0745C4.66383 22.0292 4.64683 21.9612 4.6355 21.8705C4.62983 21.8308 4.6355 21.7855 4.6525 21.7345C4.67517 21.6835 4.70067 21.6325 4.729 21.5815C4.763 21.5305 4.79983 21.4823 4.8395 21.437C4.87917 21.3973 4.92167 21.3662 4.967 21.3435H4.9585C5.0775 21.2415 5.19933 21.1338 5.324 21.0205C5.45433 20.9128 5.58467 20.8023 5.715 20.689C5.89633 20.5303 6.06917 20.3773 6.2335 20.23C6.4035 20.0827 6.57067 19.9382 6.735 19.7965C6.76333 19.7738 6.786 19.7512 6.803 19.7285C6.82567 19.7115 6.85117 19.6917 6.8795 19.669L7.2365 19.363C7.3045 19.2327 7.36683 19.1052 7.4235 18.9805C7.48017 18.8558 7.53967 18.7255 7.602 18.5895C7.80033 18.1135 8.00433 17.6007 8.214 17.051C8.42367 16.507 8.622 15.946 8.809 15.368C8.809 15.3567 8.81183 15.3482 8.8175 15.3425C8.8175 15.3482 8.82317 15.3283 8.8345 15.283C8.70417 15.3623 8.57667 15.436 8.452 15.504C8.32733 15.572 8.19983 15.6428 8.0695 15.7165C7.25917 16.1528 6.53383 16.49 5.8935 16.728C5.25883 16.966 4.66667 17.1303 4.117 17.221H4.1255C3.82517 17.2777 3.4965 17.306 3.1395 17.306C3.02617 17.306 2.91283 17.3032 2.7995 17.2975C2.69183 17.2918 2.58983 17.2805 2.4935 17.2635C2.2385 17.2182 1.975 17.136 1.703 17.017C1.431 16.898 1.18733 16.7337 0.972 16.524C0.756667 16.32 0.578167 16.0707 0.4365 15.776C0.294833 15.4813 0.192833 15.164 0.1305 14.824V14.8325C0.107833 14.7135 0.0908334 14.5832 0.0795 14.4415C0.0738334 14.2942 0.071 14.1468 0.071 13.9995C0.071 13.7615 0.0823334 13.5263 0.105 13.294C0.133333 13.0617 0.170167 12.8237 0.2155 12.58C0.294833 12.1663 0.413833 11.7328 0.5725 11.2795C0.731167 10.8205 0.935167 10.3275 1.1845 9.8005C1.42817 9.2905 1.72283 8.7635 2.0685 8.2195C2.41983 7.66983 2.85333 7.10883 3.369 6.5365C3.896 5.95283 4.45417 5.45133 5.0435 5.032C5.6385 4.607 6.25333 4.2925 6.888 4.0885C7.415 3.9185 7.9335 3.8335 8.4435 3.8335C8.50583 3.8335 8.56817 3.83633 8.6305 3.842C8.69283 3.842 8.75517 3.84483 8.8175 3.8505C8.9875 3.87317 9.1575 3.91 9.3275 3.961C9.4975 4.012 9.66467 4.09417 9.829 4.2075C10.0047 4.33217 10.1407 4.488 10.237 4.675C10.339 4.85633 10.3957 5.03767 10.407 5.219C10.4183 5.36633 10.4155 5.51933 10.3985 5.678C10.3872 5.83667 10.3617 5.984 10.322 6.12C10.288 6.25033 10.2483 6.37783 10.203 6.5025C10.1633 6.62717 10.1208 6.74617 10.0755 6.8595C9.97917 7.0805 9.88 7.29017 9.778 7.4885C9.676 7.68117 9.574 7.86533 9.472 8.041C9.25667 8.398 9.04417 8.7295 8.8345 9.0355C8.6305 9.33583 8.44067 9.605 8.265 9.843C7.908 10.3303 7.58217 10.7497 7.2875 11.101C6.9985 11.4523 6.75767 11.7413 6.565 11.968C6.40067 12.172 6.259 12.342 6.14 12.478C6.021 12.6083 5.93033 12.7047 5.868 12.767C5.76033 12.886 5.64417 12.9908 5.5195 13.0815C5.4005 13.1665 5.28433 13.2317 5.171 13.277C5.06333 13.3167 4.96133 13.3365 4.865 13.3365C4.77433 13.3365 4.7035 13.311 4.6525 13.26H4.661C4.59867 13.2033 4.56183 13.1297 4.5505 13.039C4.54483 12.9483 4.559 12.8463 4.593 12.733C4.627 12.6197 4.68083 12.5035 4.7545 12.3845C4.83383 12.2598 4.9245 12.138 5.0265 12.019C5.04917 11.9907 5.07467 11.9623 5.103 11.934C5.13133 11.9057 5.1625 11.8745 5.1965 11.8405C5.23617 11.7952 5.2815 11.7442 5.3325 11.6875C5.3835 11.6308 5.443 11.5657 5.511 11.492L5.63 11.3815C5.64133 11.3702 5.647 11.3617 5.647 11.356C5.65267 11.3503 5.66117 11.3418 5.6725 11.3305C5.80283 11.1832 5.96717 10.999 6.1655 10.778C6.36383 10.557 6.59617 10.285 6.8625 9.962C7.0325 9.758 7.211 9.53417 7.398 9.2905C7.59067 9.04683 7.7975 8.772 8.0185 8.466C8.12617 8.313 8.23667 8.15433 8.35 7.99C8.46333 7.82 8.57667 7.63867 8.69 7.446C8.79767 7.26467 8.9025 7.07483 9.0045 6.8765C9.1065 6.6725 9.20567 6.443 9.302 6.188C9.34733 6.07467 9.38417 5.96417 9.4125 5.8565C9.4465 5.74317 9.46633 5.62983 9.472 5.5165C9.48333 5.42017 9.47767 5.32667 9.455 5.236C9.438 5.14533 9.39833 5.06883 9.336 5.0065H9.3445C9.28217 4.9385 9.19717 4.8875 9.0895 4.8535C8.98183 4.81383 8.86567 4.7855 8.741 4.7685C8.67867 4.75717 8.61633 4.7515 8.554 4.7515C8.49167 4.7515 8.43217 4.7515 8.3755 4.7515C8.30183 4.7515 8.214 4.75433 8.112 4.76C8.01567 4.76567 7.92217 4.77417 7.8315 4.7855C7.5255 4.84783 7.194 4.94417 6.837 5.0745C6.48 5.19917 6.157 5.34933 5.868 5.525C5.562 5.712 5.25033 5.9415 4.933 6.2135C4.62133 6.47983 4.3125 6.7745 4.0065 7.0975C3.45683 7.70383 2.995 8.31017 2.621 8.9165C2.247 9.52283 1.941 10.098 1.703 10.642C1.465 11.1917 1.28367 11.713 1.159 12.206C1.03433 12.699 0.957833 13.1665 0.9295 13.6085C0.923833 13.6708 0.921 13.7275 0.921 13.7785C0.921 13.8295 0.921 13.8862 0.921 13.9485C0.921 14.2942 0.957833 14.6115 1.0315 14.9005C1.10517 15.1838 1.21567 15.4275 1.363 15.6315C1.45367 15.7448 1.54717 15.844 1.6435 15.929C1.7455 16.0083 1.85033 16.0792 1.958 16.1415L1.9495 16.133C2.06283 16.1897 2.17617 16.2322 2.2895 16.2605C2.4085 16.2888 2.53317 16.3115 2.6635 16.3285C2.72583 16.3398 2.78533 16.3455 2.842 16.3455C2.89867 16.3455 2.95533 16.3455 3.012 16.3455C3.19333 16.3455 3.37467 16.3342 3.556 16.3115C3.73733 16.2832 3.92717 16.2492 4.1255 16.2095L4.117 16.218C4.33233 16.167 4.5675 16.099 4.8225 16.014C5.0775 15.929 5.358 15.8242 5.664 15.6995C5.97 15.5748 6.27317 15.4417 6.5735 15.3C6.8795 15.1527 7.194 14.994 7.517 14.824C7.69267 14.7333 7.8655 14.6427 8.0355 14.552C8.21117 14.4557 8.39817 14.3508 8.5965 14.2375C8.60783 14.2318 8.61633 14.2233 8.622 14.212C8.63333 14.2007 8.64467 14.1922 8.656 14.1865C8.67867 14.1752 8.70417 14.161 8.7325 14.144C8.7665 14.1213 8.8005 14.0987 8.8345 14.076H8.843C8.90533 14.0363 8.96767 13.9995 9.03 13.9655C9.09233 13.9315 9.15467 13.8947 9.217 13.855C9.22267 13.8493 9.2425 13.8352 9.2765 13.8125L9.268 13.821C9.27367 13.8153 9.28217 13.8097 9.2935 13.804C9.30483 13.7983 9.3105 13.7955 9.3105 13.7955C9.31617 13.7898 9.32467 13.7842 9.336 13.7785L9.438 13.7275C9.44367 13.7218 9.44933 13.719 9.455 13.719C9.46067 13.7133 9.46633 13.7077 9.472 13.702C9.67033 13.6453 9.84033 13.6028 9.982 13.5745C10.1293 13.5462 10.237 13.5603 10.305 13.617C10.3787 13.668 10.4098 13.7785 10.3985 13.9485C10.3928 14.1128 10.3333 14.3622 10.22 14.6965C10.1067 15.0252 9.9395 15.453 9.7185 15.98C9.4975 16.507 9.21133 17.1587 8.86 17.935C9.64767 17.2437 10.3163 16.6543 10.866 16.167C11.4213 15.6797 11.886 15.266 12.26 14.926C12.6397 14.586 12.9485 14.3083 13.1865 14.093C13.4245 13.872 13.6257 13.685 13.79 13.532C13.9203 13.4187 14.0422 13.3138 14.1555 13.2175C14.2688 13.1155 14.385 13.0135 14.504 12.9115C14.538 12.8832 14.5748 12.8492 14.6145 12.8095C14.6598 12.7698 14.6995 12.7358 14.7335 12.7075C14.8525 12.6055 14.9743 12.5205 15.099 12.4525C15.2237 12.3788 15.3427 12.3278 15.456 12.2995C15.575 12.2655 15.6798 12.2542 15.7705 12.2655C15.8612 12.2768 15.932 12.3108 15.983 12.3675V12.359ZM14.3202 12.5035C14.4505 12.4468 14.5582 12.4015 14.6432 12.3675C14.7282 12.3335 14.8019 12.3052 14.8642 12.2825C14.9322 12.2598 14.9945 12.24 15.0512 12.223C15.1079 12.206 15.1702 12.189 15.2382 12.172L15.2552 12.1635C15.4309 12.1238 15.5895 12.1493 15.7312 12.24C15.8729 12.3307 15.9579 12.4553 15.9862 12.614C15.9975 12.7613 15.9579 12.8945 15.8672 13.0135C15.7765 13.1325 15.6604 13.2147 15.5187 13.26H15.5272C15.4875 13.2713 15.4564 13.2798 15.4337 13.2855C15.411 13.2855 15.3855 13.2855 15.3572 13.2855C15.3289 13.2855 15.2864 13.2883 15.2297 13.294C15.173 13.2997 15.0852 13.3167 14.9662 13.345C14.9209 13.3563 14.8869 13.362 14.8642 13.362C14.7679 13.3903 14.6517 13.43 14.5157 13.481C14.3797 13.532 14.2295 13.6142 14.0652 13.7275V13.736C13.9859 13.7927 13.9037 13.8635 13.8187 13.9485C13.7394 14.0335 13.677 14.1355 13.6317 14.2545C13.6204 14.2998 13.6119 14.3423 13.6062 14.382C13.5949 14.4217 13.5892 14.4642 13.5892 14.5095C13.5892 14.6172 13.6062 14.7305 13.6402 14.8495C13.6685 14.9685 13.7167 15.0932 13.7847 15.2235C13.8584 15.3935 14.0085 15.5493 14.2352 15.691C14.3542 15.7703 14.4817 15.844 14.6177 15.912C14.7537 15.9743 14.8954 16.0282 15.0427 16.0735C15.6717 16.2775 16.4197 16.388 17.2867 16.405C17.536 16.4107 17.7542 16.4078 17.9412 16.3965C18.1339 16.3795 18.3095 16.3653 18.4682 16.354H18.5617C18.726 16.3427 18.8762 16.3313 19.0122 16.32C19.1482 16.303 19.2984 16.2803 19.4627 16.252C19.6384 16.2237 19.8169 16.1925 19.9982 16.1585C20.1852 16.1188 20.3864 16.0678 20.6017 16.0055H20.5932C20.8425 15.9318 21.1287 15.8383 21.4517 15.725C21.7747 15.606 22.1487 15.4473 22.5737 15.249H22.5652C22.9902 15.0393 23.3727 14.8382 23.7127 14.6455C24.0584 14.4472 24.3672 14.2573 24.6392 14.076C24.9282 13.889 25.1747 13.7218 25.3787 13.5745C25.5884 13.4272 25.764 13.2968 25.9057 13.1835C26.1607 12.9852 26.359 12.8293 26.5007 12.716C26.6424 12.6027 26.7444 12.5177 26.8067 12.461C26.8237 12.4497 26.8379 12.4383 26.8492 12.427C26.9739 12.3363 27.107 12.291 27.2487 12.291C27.3337 12.291 27.413 12.308 27.4867 12.342C27.566 12.376 27.6312 12.4242 27.6822 12.4865C27.7615 12.5942 27.8012 12.7075 27.8012 12.8265C27.8012 12.9172 27.7785 13.0078 27.7332 13.0985C27.6935 13.1835 27.634 13.2572 27.5547 13.3195C27.549 13.3252 27.5434 13.328 27.5377 13.328C27.532 13.328 27.5292 13.3308 27.5292 13.3365C27.5009 13.3592 27.4584 13.3903 27.4017 13.43C27.3507 13.464 27.277 13.5122 27.1807 13.5745C27.158 13.5858 27.1354 13.6 27.1127 13.617C27.09 13.634 27.0645 13.6538 27.0362 13.6765C26.9965 13.7048 26.954 13.7332 26.9087 13.7615C26.8634 13.7898 26.8152 13.821 26.7642 13.855C26.7302 13.8777 26.6962 13.9003 26.6622 13.923C26.6282 13.94 26.5914 13.9627 26.5517 13.991C26.529 14.0023 26.5064 14.0165 26.4837 14.0335C26.4667 14.0505 26.4469 14.0647 26.4242 14.076H26.4327C26.3024 14.1553 26.155 14.246 25.9907 14.348C25.8264 14.45 25.645 14.5633 25.4467 14.688C25.1407 14.8693 24.7837 15.0733 24.3757 15.3C23.9677 15.5267 23.4832 15.7647 22.9222 16.014C22.3895 16.2463 21.9305 16.4277 21.5452 16.558C21.1655 16.6883 20.8312 16.7988 20.5422 16.8895C20.2532 16.9745 19.9954 17.0453 19.7687 17.102C19.542 17.1587 19.338 17.2097 19.1567 17.255C18.9924 17.289 18.8167 17.3173 18.6297 17.34C18.4484 17.3683 18.25 17.3938 18.0347 17.4165C17.9554 17.4278 17.8647 17.4335 17.7627 17.4335C17.6664 17.4392 17.57 17.442 17.4737 17.442C17.3094 17.442 17.128 17.4335 16.9297 17.4165C16.737 17.4052 16.5359 17.3825 16.3262 17.3485C15.8842 17.2805 15.4847 17.1813 15.1277 17.051C14.7707 16.9263 14.476 16.8045 14.2437 16.6855C14.1417 16.6288 14.0255 16.5608 13.8952 16.4815C13.7705 16.4022 13.6629 16.3228 13.5722 16.2435C13.4589 16.1528 13.354 16.0508 13.2577 15.9375C13.1614 15.8242 13.0764 15.6882 13.0027 15.5295V15.538C12.912 15.3567 12.844 15.1753 12.7987 14.994C12.7477 14.8127 12.7222 14.6342 12.7222 14.4585C12.7222 14.3282 12.7307 14.2205 12.7477 14.1355C12.793 13.9145 12.8695 13.7247 12.9772 13.566C13.0849 13.4073 13.1954 13.2742 13.3087 13.1665C13.507 12.9852 13.6969 12.8435 13.8782 12.7415C14.0595 12.6395 14.2097 12.5573 14.3287 12.495L14.3202 12.5035ZM38.4667 12.2655C38.6254 12.2032 38.7784 12.1975 38.9257 12.2485C39.0787 12.2995 39.1892 12.3958 39.2572 12.5375C39.3195 12.6792 39.3195 12.8265 39.2572 12.9795C39.2005 13.1268 39.09 13.2373 38.9257 13.311C38.9087 13.3167 38.8832 13.3252 38.8492 13.3365C38.8152 13.3422 38.7925 13.3478 38.7812 13.3535H38.7557C38.7274 13.3648 38.6849 13.379 38.6282 13.396C38.5715 13.413 38.4837 13.4442 38.3647 13.4895C38.2514 13.5348 38.0984 13.5915 37.9057 13.6595C37.713 13.7275 37.4892 13.804 37.2342 13.889C36.9622 13.9797 36.6392 14.0845 36.2652 14.2035C35.8912 14.3168 35.4492 14.4387 34.9392 14.569C34.8769 14.586 34.806 14.6058 34.7267 14.6285C34.653 14.6455 34.5822 14.6625 34.5142 14.6795C34.2989 14.7362 34.0609 14.7985 33.8002 14.8665C33.5452 14.9288 33.2817 14.9855 33.0097 15.0365C32.647 15.1045 32.2475 15.164 31.8112 15.215C31.3749 15.266 30.913 15.2858 30.4257 15.2745C30.1197 15.2688 29.8534 15.2603 29.6267 15.249C29.4057 15.2377 29.2102 15.2263 29.0402 15.215C29.0232 15.215 29.0034 15.215 28.9807 15.215C28.958 15.2093 28.941 15.2065 28.9297 15.2065C28.8844 15.2008 28.856 15.198 28.8447 15.198C28.839 15.198 28.822 15.198 28.7937 15.198C28.788 15.2037 28.7824 15.2093 28.7767 15.215C28.7767 15.2207 28.7739 15.2263 28.7682 15.232C28.7512 15.249 28.7399 15.2632 28.7342 15.2745C28.7172 15.2915 28.7059 15.3057 28.7002 15.317C28.6889 15.3283 28.6775 15.3397 28.6662 15.351C28.6605 15.3623 28.652 15.3737 28.6407 15.385C28.6294 15.3963 28.6152 15.4105 28.5982 15.4275C28.5869 15.4445 28.5755 15.4587 28.5642 15.47C28.4622 15.5833 28.3432 15.7165 28.2072 15.8695C28.0712 16.0225 27.9324 16.167 27.7907 16.303V16.2945C27.6887 16.3908 27.564 16.4985 27.4167 16.6175C27.275 16.7365 27.122 16.8442 26.9577 16.9405H26.9662C26.7849 17.0595 26.5695 17.1587 26.3202 17.238H26.3287C26.2664 17.2607 26.2012 17.2777 26.1332 17.289C26.0709 17.306 26 17.3173 25.9207 17.323C25.898 17.3287 25.8697 17.3315 25.8357 17.3315C25.8017 17.3315 25.779 17.3315 25.7677 17.3315C25.745 17.3315 25.7224 17.3315 25.6997 17.3315C25.677 17.3315 25.6544 17.3287 25.6317 17.323C25.5184 17.3117 25.4135 17.2805 25.3172 17.2295C25.1302 17.1388 24.9829 17.0142 24.8752 16.8555C24.7619 16.6912 24.6825 16.5297 24.6372 16.371V16.3795C24.5919 16.2322 24.5635 16.099 24.5522 15.98C24.5409 15.8553 24.5324 15.7335 24.5267 15.6145C24.5267 15.4842 24.5324 15.3623 24.5437 15.249C24.5494 15.1357 24.5579 15.0308 24.5692 14.9345C24.5805 14.8438 24.5975 14.7503 24.6202 14.654C24.6372 14.5577 24.6627 14.4557 24.6967 14.348V14.3565C24.7534 14.1525 24.8242 13.9712 24.9092 13.8125C24.9885 13.6482 25.0764 13.5008 25.1727 13.3705C25.2804 13.2345 25.388 13.1183 25.4957 13.022C25.5977 12.92 25.6997 12.835 25.8017 12.767L25.7932 12.7755C25.9972 12.6338 26.1814 12.529 26.3457 12.461C26.51 12.393 26.6489 12.3392 26.7622 12.2995C26.8925 12.2598 26.986 12.2343 27.0427 12.223C27.105 12.206 27.1504 12.1947 27.1787 12.189C27.2694 12.172 27.3572 12.1748 27.4422 12.1975C27.5272 12.2202 27.6009 12.257 27.6632 12.308C27.7312 12.359 27.785 12.4213 27.8247 12.495C27.8644 12.563 27.8842 12.6395 27.8842 12.7245C27.8842 12.8718 27.836 13.0022 27.7397 13.1155C27.6434 13.2232 27.5215 13.2912 27.3742 13.3195C27.3629 13.3195 27.3487 13.3223 27.3317 13.328C27.3147 13.328 27.3005 13.328 27.2892 13.328H27.2807C27.2694 13.3337 27.2524 13.3365 27.2297 13.3365C27.2127 13.3365 27.1957 13.3365 27.1787 13.3365C27.1674 13.3365 27.1532 13.3393 27.1362 13.345C27.1249 13.345 27.1135 13.345 27.1022 13.345C27.0965 13.345 27.0937 13.3478 27.0937 13.3535C27.0937 13.3535 27.0852 13.3535 27.0682 13.3535C27.0059 13.3648 26.9294 13.3875 26.8387 13.4215C26.7537 13.4498 26.6687 13.4782 26.5837 13.5065L26.5922 13.498C26.5299 13.5263 26.459 13.5632 26.3797 13.6085C26.306 13.6482 26.2295 13.702 26.1502 13.77C26.0709 13.8323 25.9915 13.9088 25.9122 13.9995C25.8385 14.0902 25.7705 14.2035 25.7082 14.3395C25.6345 14.4755 25.5779 14.6342 25.5382 14.8155C25.4985 14.9968 25.4674 15.1952 25.4447 15.4105C25.4277 15.5295 25.4192 15.6315 25.4192 15.7165C25.4192 15.8242 25.4305 15.9347 25.4532 16.048C25.4645 16.133 25.4872 16.2152 25.5212 16.2945C25.5552 16.3738 25.6062 16.4305 25.6742 16.4645C25.7139 16.4815 25.7592 16.49 25.8102 16.49C25.8612 16.49 25.915 16.4843 25.9717 16.473C26.0284 16.456 26.0879 16.4362 26.1502 16.4135C26.2522 16.3795 26.3457 16.3398 26.4307 16.2945C26.5214 16.2435 26.6035 16.1953 26.6772 16.15C26.8132 16.0593 26.9407 15.9545 27.0597 15.8355C27.1844 15.7165 27.3005 15.6003 27.4082 15.487C27.5385 15.3453 27.6434 15.232 27.7227 15.147C27.802 15.062 27.8587 14.9827 27.8927 14.909C27.938 14.8183 27.9919 14.7163 28.0542 14.603C28.1165 14.4897 28.1987 14.3905 28.3007 14.3055C28.4084 14.2205 28.5387 14.1638 28.6917 14.1355C28.8504 14.1072 29.0459 14.1355 29.2782 14.2205H29.4822C29.5162 14.2205 29.5502 14.2233 29.5842 14.229C29.6239 14.229 29.6635 14.229 29.7032 14.229C29.7939 14.229 29.8902 14.229 29.9922 14.229C30.0942 14.229 30.2019 14.2318 30.3152 14.2375C30.4455 14.2432 30.6042 14.2488 30.7912 14.2545C30.9839 14.2545 31.1652 14.2545 31.3352 14.2545C31.7772 14.2488 32.1597 14.229 32.4827 14.195C32.8114 14.1553 33.1032 14.1128 33.3582 14.0675C33.6132 14.0222 33.8569 13.974 34.0892 13.923C34.3272 13.872 34.5595 13.8153 34.7862 13.753C34.9562 13.702 35.129 13.6482 35.3047 13.5915C35.486 13.5348 35.6617 13.4782 35.8317 13.4215C36.0017 13.3592 36.1604 13.3025 36.3077 13.2515C36.4607 13.1948 36.5939 13.1438 36.7072 13.0985C36.9055 13.0192 37.0727 12.9512 37.2087 12.8945C37.3447 12.8322 37.4694 12.7727 37.5827 12.716C37.594 12.7103 37.611 12.7018 37.6337 12.6905C37.6564 12.6792 37.679 12.6678 37.7017 12.6565C37.798 12.6112 37.8802 12.5715 37.9482 12.5375C38.0219 12.4978 38.0842 12.4638 38.1352 12.4355H38.1437C38.2004 12.4072 38.2514 12.3817 38.2967 12.359C38.342 12.3307 38.3959 12.3023 38.4582 12.274L38.4667 12.2655ZM56.7202 12.2655C56.8448 12.2088 56.9582 12.1805 57.0602 12.1805C57.1792 12.1805 57.284 12.206 57.3747 12.257C57.471 12.308 57.5418 12.3788 57.5872 12.4695C57.6608 12.6225 57.658 12.7783 57.5787 12.937C57.4993 13.0957 57.3662 13.2175 57.1792 13.3025C57.1678 13.3082 57.1593 13.311 57.1537 13.311C57.1537 13.311 57.148 13.3138 57.1367 13.3195C57.1253 13.3252 57.1112 13.3308 57.0942 13.3365C57.0772 13.3422 57.0687 13.3422 57.0687 13.3365C57.029 13.3478 56.9723 13.3705 56.8987 13.4045C56.825 13.4385 56.7003 13.4895 56.5247 13.5575C56.366 13.6198 56.1592 13.7048 55.9042 13.8125C55.6492 13.9145 55.3262 14.0533 54.9352 14.229C54.6915 14.3423 54.411 14.467 54.0937 14.603C53.782 14.739 53.4392 14.8892 53.0652 15.0535C52.9575 15.0988 52.8498 15.147 52.7422 15.198C52.6345 15.2433 52.524 15.2915 52.4107 15.3425C52.2237 15.4218 52.0282 15.5097 51.8242 15.606C51.6258 15.6967 51.419 15.793 51.2037 15.895L50.8212 16.0735H50.8297C50.722 16.1245 50.6115 16.1755 50.4982 16.2265C50.3848 16.2775 50.2715 16.3285 50.1582 16.3795C49.9428 16.4758 49.719 16.575 49.4867 16.677C49.2543 16.7733 49.0107 16.8697 48.7557 16.966C48.4893 17.0567 48.2145 17.1445 47.9312 17.2295C47.6478 17.3145 47.3277 17.3712 46.9707 17.3995C46.8517 17.4052 46.7298 17.4023 46.6052 17.391C46.4862 17.3853 46.3672 17.3627 46.2482 17.323C46.1688 17.289 46.0923 17.2493 46.0187 17.204C45.9507 17.1643 45.8855 17.1133 45.8232 17.051C45.7042 16.932 45.622 16.8017 45.5767 16.66V16.6685C45.5313 16.5438 45.5058 16.4333 45.5002 16.337C45.5002 16.235 45.503 16.1387 45.5087 16.048C45.52 15.963 45.5285 15.9063 45.5342 15.878C45.5398 15.844 45.5455 15.8128 45.5512 15.7845C45.5512 15.7788 45.5512 15.7732 45.5512 15.7675C45.5568 15.7618 45.5597 15.7562 45.5597 15.7505L45.6022 15.606C45.6815 15.334 45.7608 15.1073 45.8402 14.926C45.9252 14.7447 46.013 14.5662 46.1037 14.3905C46.149 14.2998 46.1887 14.2205 46.2227 14.1525C46.2567 14.0845 46.2907 14.0137 46.3247 13.94C46.3643 13.8663 46.4097 13.7842 46.4607 13.6935C46.5117 13.5972 46.5768 13.4782 46.6562 13.3365C46.4748 13.3818 46.2935 13.4243 46.1122 13.464C45.9365 13.498 45.741 13.5348 45.5257 13.5745C44.8967 13.6878 44.313 13.7643 43.7747 13.804C43.242 13.838 42.749 13.855 42.2957 13.855C41.8423 13.8493 41.44 13.8323 41.0887 13.804C40.743 13.77 40.4398 13.7303 40.1792 13.685C39.7202 13.6057 39.3632 13.532 39.1082 13.464C38.8588 13.3903 38.686 13.3393 38.5897 13.311C38.5783 13.311 38.5698 13.311 38.5642 13.311C38.5642 13.3053 38.5613 13.3025 38.5557 13.3025C38.55 13.3025 38.5472 13.2997 38.5472 13.294C38.3488 13.2203 38.2072 13.1042 38.1222 12.9455C38.0372 12.7812 38.0258 12.6253 38.0882 12.478C38.1562 12.342 38.2667 12.2513 38.4197 12.206C38.5783 12.1607 38.7398 12.1663 38.9042 12.223H38.8872C39.4538 12.3873 39.8392 12.4922 40.0432 12.5375C40.2472 12.5772 40.2415 12.5998 40.0262 12.6055C40.2188 12.6508 40.471 12.7018 40.7827 12.7585C41.0943 12.8095 41.457 12.852 41.8707 12.886C42.0293 12.8973 42.1993 12.9087 42.3807 12.92C42.562 12.9257 42.7462 12.9285 42.9332 12.9285C43.2562 12.9285 43.6302 12.9143 44.0552 12.886C44.4858 12.852 44.9335 12.7982 45.3982 12.7245C45.7495 12.6622 46.0725 12.6027 46.3672 12.546C46.6675 12.4893 46.9253 12.4327 47.1407 12.376C47.1463 12.376 47.1633 12.3732 47.1917 12.3675C47.22 12.3618 47.2427 12.3533 47.2597 12.342C47.2653 12.342 47.2738 12.342 47.2852 12.342C47.3022 12.3363 47.3135 12.3335 47.3192 12.3335C47.3078 12.3335 47.3078 12.3307 47.3192 12.325L47.3362 12.308C47.3532 12.308 47.3843 12.3052 47.4297 12.2995C47.475 12.2938 47.5232 12.2853 47.5742 12.274C47.6252 12.2627 47.6733 12.2542 47.7187 12.2485C47.764 12.2372 47.7952 12.2287 47.8122 12.223L47.9312 12.767C47.9312 12.7727 47.9198 12.7925 47.8972 12.8265C47.8802 12.8605 47.8575 12.8973 47.8292 12.937C47.8065 12.9767 47.7838 13.0135 47.7612 13.0475C47.7442 13.0815 47.7357 13.1013 47.7357 13.107L47.7102 13.158C47.6988 13.1863 47.6847 13.2147 47.6677 13.243C47.6507 13.2657 47.6365 13.2883 47.6252 13.311L47.6337 13.3025C47.6223 13.3308 47.611 13.3507 47.5997 13.362C47.594 13.3677 47.5827 13.3903 47.5657 13.43C47.5373 13.4753 47.509 13.5263 47.4807 13.583C47.4523 13.6397 47.4268 13.685 47.4042 13.719L47.4127 13.7105C47.2483 14.0448 47.1095 14.3423 46.9962 14.603C46.8828 14.858 46.7865 15.096 46.7072 15.317V15.3085C46.6788 15.4048 46.6505 15.5012 46.6222 15.5975C46.5938 15.6938 46.5683 15.7987 46.5457 15.912C46.5343 15.9573 46.5258 16.0055 46.5202 16.0565C46.5145 16.1075 46.5117 16.1443 46.5117 16.167C46.5117 16.235 46.523 16.2888 46.5457 16.3285C46.557 16.3512 46.5938 16.3653 46.6562 16.371C46.7185 16.3767 46.795 16.3738 46.8857 16.3625C47.0443 16.3568 47.2143 16.3398 47.3957 16.3115C47.5827 16.2775 47.7697 16.235 47.9567 16.184C48.1833 16.1217 48.427 16.048 48.6877 15.963C48.9483 15.878 49.1835 15.7958 49.3932 15.7165C49.4555 15.6938 49.515 15.674 49.5717 15.657C49.6283 15.6343 49.6878 15.6088 49.7502 15.5805C49.8125 15.5522 49.8748 15.5295 49.9372 15.5125C49.9995 15.4898 50.0562 15.4672 50.1072 15.4445C50.1298 15.4332 50.1525 15.4247 50.1752 15.419C50.1978 15.4133 50.2205 15.4048 50.2432 15.3935C50.2772 15.3822 50.3083 15.3708 50.3367 15.3595C50.365 15.3482 50.3933 15.3368 50.4217 15.3255C50.5633 15.2632 50.6965 15.2065 50.8212 15.1555C50.9515 15.0988 51.0818 15.0393 51.2122 14.977H51.2037C51.2773 14.943 51.351 14.9118 51.4247 14.8835C51.4983 14.8495 51.5748 14.8155 51.6542 14.7815H51.6457C51.7193 14.7475 51.8015 14.7107 51.8922 14.671C51.9828 14.6313 52.0678 14.5945 52.1472 14.5605C53.1105 14.1185 53.8812 13.7502 54.4592 13.4555C55.0428 13.1608 55.4707 12.9398 55.7427 12.7925C55.8617 12.7302 55.9608 12.6763 56.0402 12.631C56.1252 12.5857 56.1988 12.546 56.2612 12.512C56.2725 12.5063 56.281 12.5007 56.2867 12.495C56.298 12.4893 56.3093 12.4837 56.3207 12.478L56.3122 12.4865C56.3802 12.4468 56.4453 12.41 56.5077 12.376C56.57 12.342 56.638 12.3052 56.7117 12.2655H56.7202ZM71.352 12.4695C71.386 12.5375 71.3973 12.614 71.386 12.699C71.3747 12.784 71.3407 12.8718 71.284 12.9625C71.2273 13.0475 71.1537 13.1353 71.063 13.226C70.978 13.311 70.876 13.3875 70.757 13.4555C70.74 13.4668 70.7202 13.4782 70.6975 13.4895C70.6805 13.4952 70.6607 13.5037 70.638 13.515C70.621 13.5263 70.6012 13.5377 70.5785 13.549C70.5502 13.5717 70.5077 13.5943 70.451 13.617L70.468 13.6085C70.3943 13.6482 70.2895 13.7048 70.1535 13.7785C70.0232 13.8465 69.8248 13.9542 69.5585 14.1015V14.093C69.3035 14.2347 68.9833 14.4188 68.598 14.6455C68.2127 14.8665 67.7282 15.1527 67.1445 15.504H67.153C66.5807 15.861 65.9035 16.2888 65.1215 16.7875C64.3452 17.2805 63.4527 17.8812 62.444 18.5895C61.9 18.9748 61.3192 19.4112 60.7015 19.8985C60.0838 20.3858 59.4577 20.9043 58.823 21.454C58.4887 21.743 58.1515 22.0433 57.8115 22.355C57.4772 22.6723 57.14 23.0067 56.8 23.358C56.6357 23.5223 56.4827 23.681 56.341 23.834C56.1993 23.987 56.0463 24.1542 55.882 24.3355C55.6837 24.8058 55.4938 25.2365 55.3125 25.6275C55.1368 26.0242 54.9668 26.3925 54.8025 26.7325V26.741C54.7912 26.7693 54.7798 26.7948 54.7685 26.8175C54.7515 26.8458 54.7373 26.8742 54.726 26.9025C54.7147 26.9195 54.709 26.9365 54.709 26.9535C54.7033 26.9705 54.6948 26.9847 54.6835 26.996C54.6722 27.0187 54.6608 27.047 54.6495 27.081C54.4908 27.4153 54.335 27.7185 54.182 27.9905C54.029 28.2682 53.9043 28.5373 53.808 28.798C53.7627 28.9283 53.6947 29.0728 53.604 29.2315C53.5133 29.3958 53.417 29.546 53.315 29.682C53.2073 29.8237 53.0997 29.9342 52.992 30.0135C52.8787 30.0985 52.7767 30.1212 52.686 30.0815C52.5897 30.0475 52.5132 29.937 52.4565 29.75C52.3998 29.5687 52.3715 29.2797 52.3715 28.883C52.3715 28.5827 52.4083 28.2823 52.482 27.982L52.4735 27.9905C52.5755 27.5542 52.7455 27.0923 52.9835 26.605C53.2102 26.1573 53.5105 25.6728 53.8845 25.1515C54.2585 24.6358 54.7487 24.0607 55.355 23.426C55.491 23.086 55.627 22.7318 55.763 22.3635C55.9047 21.9952 56.0492 21.5928 56.1965 21.1565C56.5195 20.1762 56.7972 19.2412 57.0295 18.3515C57.2618 17.4618 57.4403 16.6543 57.565 15.929C57.5027 15.963 57.4403 15.9942 57.378 16.0225C57.3213 16.0452 57.2647 16.0678 57.208 16.0905L57.2165 16.082C57.0352 16.167 56.8453 16.2293 56.647 16.269C56.4487 16.3087 56.2503 16.3143 56.052 16.286C55.831 16.2577 55.627 16.1783 55.44 16.048C55.3607 15.9857 55.2898 15.9205 55.2275 15.8525C55.1595 15.7788 55.1 15.7052 55.049 15.6315C54.9583 15.4898 54.8875 15.3368 54.8365 15.1725C54.7798 15.0025 54.7515 14.8438 54.7515 14.6965C54.7515 14.5378 54.7742 14.3905 54.8195 14.2545C54.8592 14.1185 54.9045 13.9967 54.9555 13.889C55.0518 13.702 55.1623 13.5377 55.287 13.396C55.4117 13.2543 55.5278 13.1353 55.6355 13.039C55.8508 12.852 56.0152 12.7188 56.1285 12.6395C56.2475 12.5602 56.3325 12.5035 56.3835 12.4695C56.5025 12.3902 56.6215 12.3335 56.7405 12.2995C56.8652 12.2655 56.9813 12.2485 57.089 12.2485C57.2137 12.2485 57.3213 12.274 57.412 12.325C57.5027 12.3703 57.5593 12.4327 57.582 12.512L57.5735 12.495C57.6075 12.5687 57.6132 12.648 57.5905 12.733C57.5735 12.8123 57.5367 12.8945 57.48 12.9795C57.4233 13.0588 57.3525 13.1382 57.2675 13.2175C57.1825 13.2912 57.0918 13.362 56.9955 13.43C56.9842 13.4357 56.9615 13.4498 56.9275 13.4725C56.9162 13.4838 56.902 13.4923 56.885 13.498C56.8737 13.5037 56.8708 13.5037 56.8765 13.498C56.8312 13.5263 56.7802 13.5575 56.7235 13.5915C56.6725 13.6255 56.6073 13.6708 56.528 13.7275C56.4657 13.7728 56.3977 13.8267 56.324 13.889C56.256 13.9457 56.1908 14.0052 56.1285 14.0675C56.0662 14.1412 56.001 14.229 55.933 14.331C55.8707 14.433 55.8282 14.5492 55.8055 14.6795C55.7885 14.7702 55.8197 14.8863 55.899 15.028C55.9387 15.0903 55.9812 15.147 56.0265 15.198C56.0775 15.2433 56.1342 15.2717 56.1965 15.283C56.3042 15.3057 56.4175 15.3057 56.5365 15.283C56.6612 15.2547 56.7887 15.2122 56.919 15.1555C57.0493 15.0932 57.1967 15.011 57.361 14.909C57.531 14.8013 57.6897 14.6937 57.837 14.586L57.8455 14.5775C57.8568 14.5662 57.871 14.5548 57.888 14.5435C57.905 14.5265 57.9192 14.5123 57.9305 14.501C57.9418 14.4897 57.9503 14.4812 57.956 14.4755C57.9673 14.4698 57.9872 14.4585 58.0155 14.4415L58.143 14.3565C58.1543 14.3678 58.1685 14.3763 58.1855 14.382C58.2082 14.3877 58.228 14.3962 58.245 14.4075L58.296 14.433C58.313 14.4443 58.3555 14.467 58.4235 14.501C58.4972 14.5293 58.585 14.569 58.687 14.62L58.6785 14.858V14.9005L58.687 14.96L58.67 15.0365C58.6587 15.0932 58.6502 15.1527 58.6445 15.215C58.6388 15.2717 58.6303 15.3312 58.619 15.3935L58.5935 15.521C58.5878 15.5437 58.5822 15.5663 58.5765 15.589C58.5765 15.6117 58.5737 15.6315 58.568 15.6485C58.5623 15.6655 58.5595 15.6825 58.5595 15.6995C58.5595 15.7165 58.5567 15.7335 58.551 15.7505L58.5595 15.7335C58.5482 15.7958 58.5368 15.8582 58.5255 15.9205C58.5142 15.9772 58.5028 16.0367 58.4915 16.099C58.4462 16.3313 58.3895 16.5892 58.3215 16.8725C58.2535 17.1558 58.1883 17.425 58.126 17.68C58.0637 17.9463 57.9872 18.2382 57.8965 18.5555C57.8058 18.8728 57.7095 19.1958 57.6075 19.5245C57.5112 19.8588 57.4092 20.1903 57.3015 20.519C57.1995 20.8477 57.1003 21.1537 57.004 21.437C56.9813 21.4993 56.9615 21.5532 56.9445 21.5985C56.9275 21.6438 56.9133 21.6892 56.902 21.7345C56.8793 21.7912 56.8652 21.8252 56.8595 21.8365C56.8595 21.8535 56.8595 21.8592 56.8595 21.8535C56.8538 21.8705 56.8453 21.8903 56.834 21.913C56.8283 21.9413 56.8198 21.9753 56.8085 22.015C56.9218 21.9187 57.038 21.8167 57.157 21.709C57.2817 21.6013 57.3922 21.505 57.4885 21.42L57.48 21.4285C57.4913 21.4172 57.5055 21.4058 57.5225 21.3945C57.5395 21.3832 57.5537 21.3718 57.565 21.3605C57.871 21.0942 58.1628 20.8448 58.4405 20.6125C58.7238 20.3802 58.9845 20.1705 59.2225 19.9835C59.6872 19.6095 60.1462 19.2497 60.5995 18.904C61.0585 18.564 61.5487 18.2042 62.07 17.8245C62.9483 17.2012 63.7247 16.6628 64.399 16.2095C65.0733 15.7562 65.6655 15.3623 66.1755 15.028C66.6912 14.6937 67.1275 14.4132 67.4845 14.1865C67.8415 13.9598 68.1475 13.7643 68.4025 13.6C68.4648 13.5603 68.5272 13.5207 68.5895 13.481C68.6518 13.4413 68.7085 13.4045 68.7595 13.3705H68.751C68.887 13.2855 69.006 13.209 69.108 13.141C69.2723 13.0333 69.4168 12.9455 69.5415 12.8775C69.6662 12.8038 69.788 12.7302 69.907 12.6565C69.9523 12.6282 69.9977 12.5998 70.043 12.5715C70.0883 12.5432 70.1365 12.5148 70.1875 12.4865C70.3122 12.4128 70.4397 12.359 70.57 12.325C70.7003 12.2853 70.8165 12.2655 70.9185 12.2655C71.1282 12.2655 71.2698 12.3335 71.3435 12.4695H71.352ZM56.868 21.8365C56.868 21.8365 56.8708 21.8337 56.8765 21.828L56.868 21.8365ZM69.6034 12.5035C69.7337 12.4468 69.8414 12.4015 69.9264 12.3675C70.0114 12.3335 70.0851 12.3052 70.1474 12.2825C70.2154 12.2598 70.2777 12.24 70.3344 12.223C70.3911 12.206 70.4534 12.189 70.5214 12.172L70.5384 12.1635C70.7141 12.1238 70.8727 12.1493 71.0144 12.24C71.1561 12.3307 71.2411 12.4553 71.2694 12.614C71.2807 12.7613 71.2411 12.8945 71.1504 13.0135C71.0597 13.1325 70.9436 13.2147 70.8019 13.26H70.8104C70.7707 13.2713 70.7396 13.2798 70.7169 13.2855C70.6942 13.2855 70.6687 13.2855 70.6404 13.2855C70.6121 13.2855 70.5696 13.2883 70.5129 13.294C70.4562 13.2997 70.3684 13.3167 70.2494 13.345C70.2041 13.3563 70.1701 13.362 70.1474 13.362C70.0511 13.3903 69.9349 13.43 69.7989 13.481C69.6629 13.532 69.5127 13.6142 69.3484 13.7275V13.736C69.2691 13.7927 69.1869 13.8635 69.1019 13.9485C69.0226 14.0335 68.9602 14.1355 68.9149 14.2545C68.9036 14.2998 68.8951 14.3423 68.8894 14.382C68.8781 14.4217 68.8724 14.4642 68.8724 14.5095C68.8724 14.6172 68.8894 14.7305 68.9234 14.8495C68.9517 14.9685 68.9999 15.0932 69.0679 15.2235C69.1416 15.3935 69.2917 15.5493 69.5184 15.691C69.6374 15.7703 69.7649 15.844 69.9009 15.912C70.0369 15.9743 70.1786 16.0282 70.3259 16.0735C70.9549 16.2775 71.7029 16.388 72.5699 16.405C72.8192 16.4107 73.0374 16.4078 73.2244 16.3965C73.4171 16.3795 73.5927 16.3653 73.7514 16.354H73.8449C74.0092 16.3427 74.1594 16.3313 74.2954 16.32C74.4314 16.303 74.5816 16.2803 74.7459 16.252C74.9216 16.2237 75.1001 16.1925 75.2814 16.1585C75.4684 16.1188 75.6696 16.0678 75.8849 16.0055H75.8764C76.1257 15.9318 76.4119 15.8383 76.7349 15.725C77.0579 15.606 77.4319 15.4473 77.8569 15.249H77.8484C78.2734 15.0393 78.6559 14.8382 78.9959 14.6455C79.3416 14.4472 79.6504 14.2573 79.9224 14.076C80.2114 13.889 80.4579 13.7218 80.6619 13.5745C80.8716 13.4272 81.0472 13.2968 81.1889 13.1835C81.4439 12.9852 81.6422 12.8293 81.7839 12.716C81.9256 12.6027 82.0276 12.5177 82.0899 12.461C82.1069 12.4497 82.1211 12.4383 82.1324 12.427C82.2571 12.3363 82.3902 12.291 82.5319 12.291C82.6169 12.291 82.6962 12.308 82.7699 12.342C82.8492 12.376 82.9144 12.4242 82.9654 12.4865C83.0447 12.5942 83.0844 12.7075 83.0844 12.8265C83.0844 12.9172 83.0617 13.0078 83.0164 13.0985C82.9767 13.1835 82.9172 13.2572 82.8379 13.3195C82.8322 13.3252 82.8266 13.328 82.8209 13.328C82.8152 13.328 82.8124 13.3308 82.8124 13.3365C82.7841 13.3592 82.7416 13.3903 82.6849 13.43C82.6339 13.464 82.5602 13.5122 82.4639 13.5745C82.4412 13.5858 82.4186 13.6 82.3959 13.617C82.3732 13.634 82.3477 13.6538 82.3194 13.6765C82.2797 13.7048 82.2372 13.7332 82.1919 13.7615C82.1466 13.7898 82.0984 13.821 82.0474 13.855C82.0134 13.8777 81.9794 13.9003 81.9454 13.923C81.9114 13.94 81.8746 13.9627 81.8349 13.991C81.8122 14.0023 81.7896 14.0165 81.7669 14.0335C81.7499 14.0505 81.7301 14.0647 81.7074 14.076H81.7159C81.5856 14.1553 81.4382 14.246 81.2739 14.348C81.1096 14.45 80.9282 14.5633 80.7299 14.688C80.4239 14.8693 80.0669 15.0733 79.6589 15.3C79.2509 15.5267 78.7664 15.7647 78.2054 16.014C77.6727 16.2463 77.2137 16.4277 76.8284 16.558C76.4487 16.6883 76.1144 16.7988 75.8254 16.8895C75.5364 16.9745 75.2786 17.0453 75.0519 17.102C74.8252 17.1587 74.6212 17.2097 74.4399 17.255C74.2756 17.289 74.0999 17.3173 73.9129 17.34C73.7316 17.3683 73.5332 17.3938 73.3179 17.4165C73.2386 17.4278 73.1479 17.4335 73.0459 17.4335C72.9496 17.4392 72.8532 17.442 72.7569 17.442C72.5926 17.442 72.4112 17.4335 72.2129 17.4165C72.0202 17.4052 71.8191 17.3825 71.6094 17.3485C71.1674 17.2805 70.7679 17.1813 70.4109 17.051C70.0539 16.9263 69.7592 16.8045 69.5269 16.6855C69.4249 16.6288 69.3087 16.5608 69.1784 16.4815C69.0537 16.4022 68.9461 16.3228 68.8554 16.2435C68.7421 16.1528 68.6372 16.0508 68.5409 15.9375C68.4446 15.8242 68.3596 15.6882 68.2859 15.5295V15.538C68.1952 15.3567 68.1272 15.1753 68.0819 14.994C68.0309 14.8127 68.0054 14.6342 68.0054 14.4585C68.0054 14.3282 68.0139 14.2205 68.0309 14.1355C68.0762 13.9145 68.1527 13.7247 68.2604 13.566C68.3681 13.4073 68.4786 13.2742 68.5919 13.1665C68.7902 12.9852 68.9801 12.8435 69.1614 12.7415C69.3427 12.6395 69.4929 12.5573 69.6119 12.495L69.6034 12.5035ZM109.764 12.1805C109.872 12.1295 109.971 12.0955 110.061 12.0785C110.152 12.0615 110.243 12.0842 110.333 12.1465H110.35C110.469 12.2258 110.529 12.3477 110.529 12.512C110.529 12.5743 110.518 12.6423 110.495 12.716C110.472 12.7897 110.435 12.8662 110.384 12.9455C110.333 13.0135 110.263 13.0872 110.172 13.1665C110.087 13.2458 109.982 13.3223 109.857 13.396H109.866C109.798 13.4413 109.738 13.4753 109.687 13.498C109.636 13.5207 109.56 13.5547 109.458 13.6C109.379 13.634 109.254 13.685 109.084 13.753C108.914 13.8153 108.645 13.9032 108.276 14.0165C107.948 14.1128 107.506 14.2262 106.95 14.3565C106.395 14.4812 105.763 14.6002 105.055 14.7135C104.789 14.7588 104.5 14.8013 104.188 14.841C103.876 14.875 103.553 14.9118 103.219 14.9515C102.953 15.0138 102.732 15.0563 102.556 15.079C102.256 15.1243 101.952 15.1555 101.646 15.1725C101.34 15.1895 101.046 15.1952 100.762 15.1895H100.711C100.7 15.1895 100.692 15.1895 100.686 15.1895C100.68 15.1838 100.672 15.181 100.66 15.181H100.473L100.184 14.569L100.524 14.314C100.564 14.314 100.601 14.314 100.635 14.314C100.675 14.3083 100.709 14.3027 100.737 14.297C100.805 14.2913 100.873 14.2885 100.941 14.2885C101.009 14.2828 101.074 14.2772 101.136 14.2715H101.128C101.253 14.2602 101.374 14.2488 101.493 14.2375C101.618 14.2262 101.737 14.2148 101.85 14.2035C102.151 14.1695 102.445 14.1355 102.734 14.1015C103.023 14.0675 103.293 14.0335 103.542 13.9995V14.008C103.757 13.9343 103.973 13.855 104.188 13.77C104.403 13.6793 104.613 13.5773 104.817 13.464C105.185 13.26 105.537 13.0135 105.871 12.7245C106.211 12.4298 106.523 12.0898 106.806 11.7045C107.084 11.3248 107.319 10.9055 107.511 10.4465C107.704 9.98183 107.823 9.49167 107.868 8.976C107.874 8.91933 107.877 8.86267 107.877 8.806C107.883 8.74933 107.885 8.68983 107.885 8.6275C107.885 8.4405 107.868 8.25067 107.834 8.058C107.8 7.86533 107.744 7.6755 107.664 7.4885C107.574 7.27317 107.446 7.08333 107.282 6.919C107.123 6.75467 106.933 6.64417 106.712 6.5875C106.639 6.5705 106.562 6.55633 106.483 6.545C106.404 6.53367 106.321 6.528 106.236 6.528C106.1 6.528 105.964 6.545 105.828 6.579C105.687 6.60733 105.548 6.64983 105.412 6.7065C105.276 6.7575 105.16 6.8085 105.063 6.8595C104.814 7.00117 104.587 7.14567 104.383 7.293C104.179 7.43467 103.995 7.57917 103.831 7.7265C103.508 8.0155 103.208 8.313 102.93 8.619C102.652 8.91933 102.372 9.24517 102.088 9.5965C101.805 9.9535 101.502 10.353 101.179 10.795C100.862 11.2313 100.513 11.7527 100.133 12.359C99.9351 12.6763 99.7282 13.0192 99.5129 13.3875C99.3032 13.7502 99.0794 14.1553 98.8414 14.603C98.7621 14.7503 98.6799 14.9005 98.5949 15.0535C98.5156 15.2065 98.4334 15.3652 98.3484 15.5295C98.3427 15.5408 98.3399 15.5493 98.3399 15.555C98.3399 15.5607 98.3371 15.5692 98.3314 15.5805C98.3201 15.6202 98.3172 15.64 98.3229 15.64C98.3172 15.6513 98.3116 15.6627 98.3059 15.674C98.3059 15.6853 98.3031 15.7023 98.2974 15.725C98.2804 15.7703 98.2606 15.8298 98.2379 15.9035C98.2209 15.9772 98.2067 16.0537 98.1954 16.133C98.1954 16.1443 98.1926 16.1528 98.1869 16.1585C98.1869 16.1642 98.1869 16.1698 98.1869 16.1755V16.1925H98.1784V16.1585L98.1444 16.2945C98.0481 16.6175 97.9489 16.9405 97.8469 17.2635C97.7506 17.5922 97.6429 17.9095 97.5239 18.2155C97.5182 18.2212 97.5154 18.2268 97.5154 18.2325C97.5154 18.2382 97.5126 18.2438 97.5069 18.2495V18.241C97.4672 18.3203 97.4247 18.4053 97.3794 18.496C97.3341 18.5923 97.2887 18.6802 97.2434 18.7595C97.2151 18.8105 97.1782 18.8643 97.1329 18.921C97.0876 18.9833 97.0281 19.0485 96.9544 19.1165C96.9147 19.1448 96.8751 19.1703 96.8354 19.193C96.7957 19.2213 96.7391 19.2412 96.6654 19.2525C96.5124 19.2525 96.3764 19.193 96.2574 19.074C96.2347 19.0513 96.2149 19.0117 96.1979 18.955C96.1809 18.887 96.1724 18.836 96.1724 18.802C96.1667 18.768 96.1639 18.7368 96.1639 18.7085C96.1752 18.6122 96.1922 18.5187 96.2149 18.428C96.2319 18.343 96.2574 18.2523 96.2914 18.156C96.2914 18.1333 96.2999 18.105 96.3169 18.071C96.3226 18.0597 96.3311 18.0398 96.3424 18.0115C96.3481 17.9832 96.3481 17.9747 96.3424 17.986C96.3764 17.8953 96.4104 17.8047 96.4444 17.714C96.4727 17.629 96.5067 17.5383 96.5464 17.442C96.6824 17.1077 96.8269 16.7733 96.9799 16.439C97.1386 16.1047 97.2859 15.793 97.4219 15.504C97.5126 15.164 97.5919 14.8382 97.6599 14.5265C97.7279 14.2092 97.7959 13.8975 97.8639 13.5915C98.0226 12.8435 98.1671 12.1352 98.2974 11.4665C98.4334 10.7978 98.5496 10.2113 98.6459 9.707C98.6516 9.68433 98.6544 9.6645 98.6544 9.6475C98.6601 9.62483 98.6657 9.59933 98.6714 9.571C98.6827 9.51433 98.6941 9.4605 98.7054 9.4095C98.7167 9.35283 98.7281 9.29617 98.7394 9.2395C98.8244 8.7805 98.8981 8.37533 98.9604 8.024C99.0227 7.67267 99.0766 7.36667 99.1219 7.106C99.1672 6.84533 99.2041 6.62717 99.2324 6.4515C99.2607 6.27583 99.2834 6.137 99.3004 6.035C99.3061 6.00667 99.3117 5.97833 99.3174 5.95C99.3231 5.92167 99.3287 5.899 99.3344 5.882V5.814C99.3627 5.67233 99.4024 5.53917 99.4534 5.4145C99.5101 5.28417 99.5696 5.1765 99.6319 5.0915C99.6999 5.00083 99.7707 4.93283 99.8444 4.8875C99.9237 4.8365 100 4.81383 100.074 4.8195C100.204 4.84217 100.306 4.9215 100.38 5.0575C100.459 5.1935 100.499 5.36067 100.499 5.559C100.499 5.70067 100.485 5.85083 100.456 6.0095C100.445 6.08317 100.428 6.16817 100.405 6.2645C100.388 6.36083 100.36 6.49967 100.32 6.681C100.298 6.783 100.272 6.902 100.244 7.038C100.221 7.16833 100.19 7.32417 100.15 7.5055C100.122 7.64717 100.091 7.80583 100.057 7.9815C100.023 8.1515 99.9832 8.34133 99.9379 8.551C99.8416 8.99867 99.7254 9.5455 99.5894 10.1915C99.4591 10.8375 99.3004 11.5798 99.1134 12.4185C99.2437 12.1918 99.3741 11.9765 99.5044 11.7725C99.6347 11.5685 99.7594 11.3702 99.8784 11.1775C100.105 10.8262 100.32 10.5003 100.524 10.2C100.734 9.89967 100.935 9.61917 101.128 9.3585C101.321 9.09783 101.508 8.85417 101.689 8.6275C101.87 8.40083 102.052 8.1855 102.233 7.9815C102.414 7.7775 102.593 7.58483 102.768 7.4035C102.944 7.2165 103.131 7.03517 103.329 6.8595C103.528 6.68383 103.735 6.51383 103.95 6.3495C104.171 6.18517 104.423 6.02933 104.706 5.882C104.837 5.81967 104.99 5.75733 105.165 5.695C105.341 5.627 105.511 5.576 105.675 5.542C105.755 5.525 105.843 5.51367 105.939 5.508C106.035 5.49667 106.134 5.491 106.236 5.491C106.429 5.491 106.647 5.51933 106.891 5.576C107.129 5.63267 107.356 5.72333 107.571 5.848C107.792 5.97267 107.985 6.13417 108.149 6.3325C108.325 6.53083 108.466 6.7575 108.574 7.0125C108.687 7.2675 108.767 7.53667 108.812 7.82C108.846 8.05233 108.863 8.29317 108.863 8.5425C108.863 8.7635 108.849 8.98167 108.82 9.197C108.792 9.41233 108.752 9.61917 108.701 9.8175C108.622 10.1235 108.531 10.404 108.429 10.659C108.333 10.9083 108.225 11.1378 108.106 11.3475H108.115C107.877 11.7725 107.619 12.1465 107.341 12.4695C107.064 12.7925 106.775 13.0815 106.474 13.3365C106.412 13.3875 106.375 13.4215 106.364 13.4385C106.353 13.4498 106.35 13.4555 106.355 13.4555C106.344 13.4612 106.33 13.4697 106.313 13.481C106.302 13.4923 106.285 13.5037 106.262 13.515C106.449 13.4697 106.616 13.43 106.763 13.396C106.911 13.3563 107.047 13.3167 107.171 13.277C107.5 13.1863 107.766 13.1042 107.97 13.0305C108.174 12.9568 108.347 12.886 108.489 12.818C108.642 12.75 108.781 12.6877 108.905 12.631C109.036 12.5687 109.16 12.5035 109.279 12.4355H109.271C109.345 12.3902 109.427 12.3448 109.517 12.2995C109.608 12.2485 109.69 12.2088 109.764 12.1805ZM129.634 12.393C129.68 12.4553 129.697 12.5318 129.685 12.6225C129.68 12.7132 129.651 12.8095 129.6 12.9115C129.549 13.0135 129.476 13.1183 129.379 13.226C129.289 13.328 129.181 13.4243 129.056 13.515C129.045 13.5263 129.028 13.5377 129.005 13.549C128.988 13.5603 128.971 13.5717 128.954 13.583L128.963 13.5745C128.952 13.5858 128.943 13.5915 128.937 13.5915L128.929 13.6C128.878 13.634 128.816 13.6737 128.742 13.719C128.674 13.7643 128.583 13.8238 128.47 13.8975C128.306 13.9995 128.076 14.1412 127.781 14.3225C127.487 14.5038 127.15 14.705 126.77 14.926C126.555 15.0507 126.308 15.1867 126.03 15.334C125.758 15.4813 125.455 15.6372 125.121 15.8015C124.804 15.9545 124.432 16.1217 124.007 16.303C123.582 16.4843 123.129 16.6515 122.647 16.8045C122.387 16.8838 122.12 16.9603 121.848 17.034C121.576 17.1077 121.293 17.17 120.998 17.221C120.783 17.255 120.554 17.2833 120.31 17.306C120.072 17.3287 119.823 17.34 119.562 17.34C119.483 17.34 119.392 17.34 119.29 17.34C119.194 17.34 119.106 17.3343 119.026 17.323C118.669 17.3003 118.298 17.238 117.913 17.136C117.533 17.0397 117.168 16.9037 116.816 16.728C116.448 16.5353 116.094 16.2945 115.754 16.0055C115.42 15.7108 115.122 15.3737 114.861 14.994C114.623 14.637 114.425 14.2828 114.266 13.9315C114.232 13.8522 114.198 13.77 114.164 13.685C114.136 13.6 114.108 13.5178 114.079 13.4385C113.853 13.5858 113.635 13.7275 113.425 13.8635C113.215 13.9938 113.011 14.1242 112.813 14.2545C112.314 14.5775 111.858 14.8778 111.444 15.1555C111.031 15.4275 110.645 15.691 110.288 15.946C110.107 16.0707 109.937 16.1897 109.778 16.303C109.625 16.4163 109.475 16.5297 109.328 16.643C109.3 16.6543 109.268 16.6742 109.234 16.7025C109.206 16.7252 109.175 16.7507 109.141 16.779C109.107 16.8017 109.073 16.8243 109.039 16.847C109.011 16.8697 108.957 16.9122 108.877 16.9745C108.866 16.9858 108.86 16.9915 108.86 16.9915C108.849 17.0198 108.815 17.0708 108.758 17.1445C108.702 17.2182 108.628 17.2607 108.537 17.272C108.515 17.306 108.495 17.3372 108.478 17.3655C108.467 17.3995 108.458 17.4193 108.452 17.425L107.993 16.9575L108.002 16.796L108.01 16.507C108.016 16.507 108.025 16.5042 108.036 16.4985C108.047 16.4985 108.064 16.4928 108.087 16.4815L108.146 16.4135C108.175 16.3342 108.206 16.2605 108.24 16.1925C108.274 16.1245 108.305 16.0565 108.333 15.9885V15.997C108.413 15.8157 108.489 15.64 108.563 15.47C108.637 15.3 108.71 15.1328 108.784 14.9685L108.775 14.977C108.809 14.892 108.846 14.807 108.886 14.722C108.926 14.637 108.962 14.5548 108.996 14.4755H108.988C109.028 14.3792 109.067 14.2885 109.107 14.2035C109.152 14.1128 109.195 14.0222 109.234 13.9315C109.28 13.8352 109.314 13.7587 109.336 13.702C109.359 13.6397 109.385 13.5773 109.413 13.515C109.424 13.4923 109.43 13.4782 109.43 13.4725C109.436 13.4612 109.438 13.4527 109.438 13.447C109.444 13.4357 109.45 13.4215 109.455 13.4045C109.467 13.3818 109.481 13.3478 109.498 13.3025C109.464 13.2855 109.419 13.2628 109.362 13.2345C109.311 13.2005 109.28 13.1693 109.268 13.141C109.234 13.073 109.226 12.9965 109.243 12.9115C109.26 12.8265 109.297 12.7387 109.353 12.648C109.41 12.5517 109.481 12.4553 109.566 12.359C109.657 12.2627 109.753 12.172 109.855 12.087C109.878 12.07 109.903 12.0502 109.931 12.0275C109.96 11.9992 109.982 11.9793 109.999 11.968C110.011 11.9567 110.031 11.9425 110.059 11.9255C110.087 11.9028 110.116 11.8802 110.144 11.8575C110.371 11.3475 110.628 10.7695 110.917 10.1235C111.206 9.4775 111.552 8.72383 111.954 7.8625C111.971 7.82283 111.991 7.7775 112.014 7.7265C112.042 7.66983 112.065 7.62167 112.082 7.582C112.201 7.31 112.32 7.04367 112.439 6.783C112.564 6.51667 112.68 6.26733 112.787 6.035C112.867 5.87067 112.94 5.712 113.008 5.559C113.082 5.40033 113.156 5.24167 113.229 5.083C113.462 4.57867 113.68 4.1055 113.884 3.6635C114.088 3.21583 114.272 2.81917 114.436 2.4735C114.442 2.45083 114.453 2.42817 114.47 2.4055C114.465 2.41117 114.462 2.41117 114.462 2.4055C114.468 2.39417 114.473 2.38567 114.479 2.38C114.507 2.31767 114.533 2.261 114.555 2.21C114.584 2.159 114.612 2.10233 114.64 2.04C114.686 1.94367 114.728 1.85017 114.768 1.7595C114.808 1.66883 114.85 1.581 114.895 1.496V1.5045C114.929 1.42517 114.963 1.34583 114.997 1.2665C115.037 1.18717 115.077 1.11067 115.116 1.037L115.167 0.934999C115.179 0.917999 115.193 0.892499 115.21 0.8585C115.233 0.824499 115.25 0.796166 115.261 0.7735L115.278 0.739499L115.286 0.731C115.298 0.708333 115.309 0.688499 115.32 0.671499C115.337 0.654499 115.352 0.634666 115.363 0.611999V0.628999L115.38 0.645999C115.403 0.594999 115.422 0.558166 115.439 0.5355C115.462 0.507166 115.485 0.484499 115.507 0.4675C115.547 0.439166 115.601 0.410833 115.669 0.3825C115.743 0.354166 115.819 0.342833 115.898 0.348499C116.012 0.359832 116.105 0.405166 116.179 0.484499C116.258 0.558166 116.309 0.623333 116.332 0.679999C116.366 0.759332 116.386 0.832999 116.391 0.901C116.403 0.963332 116.408 1.01717 116.408 1.0625C116.414 1.14183 116.414 1.22683 116.408 1.3175C116.403 1.4025 116.394 1.47617 116.383 1.5385C116.383 1.54417 116.38 1.55267 116.374 1.564C116.374 1.56967 116.374 1.57533 116.374 1.581V1.666C116.357 1.80767 116.326 1.97767 116.281 2.176C116.236 2.36867 116.185 2.5755 116.128 2.7965C115.964 3.41983 115.785 3.99783 115.592 4.5305C115.405 5.0575 115.221 5.5505 115.04 6.0095C114.853 6.45717 114.672 6.87367 114.496 7.259C114.32 7.63867 114.15 7.99 113.986 8.313C113.652 8.959 113.343 9.503 113.059 9.945C112.782 10.3813 112.535 10.7468 112.32 11.0415C112.116 11.3248 111.932 11.56 111.767 11.747C111.609 11.934 111.464 12.0983 111.334 12.24L111.325 12.2485C111.246 12.3335 111.17 12.41 111.096 12.478C111.028 12.546 110.954 12.6168 110.875 12.6905C110.716 13.0418 110.583 13.3365 110.475 13.5745C110.368 13.8068 110.269 14.0193 110.178 14.212C110.093 14.399 110.008 14.5832 109.923 14.7645C109.838 14.9402 109.736 15.1498 109.617 15.3935C109.764 15.2915 109.912 15.1895 110.059 15.0875C110.212 14.9855 110.376 14.875 110.552 14.756C110.869 14.5407 111.209 14.314 111.572 14.076C111.94 13.8323 112.345 13.566 112.787 13.277C112.872 13.226 112.957 13.175 113.042 13.124C113.127 13.0673 113.215 13.0078 113.306 12.9455L113.382 12.8945C113.394 12.8832 113.408 12.8747 113.425 12.869C113.442 12.8633 113.456 12.8548 113.467 12.8435C113.53 12.8038 113.589 12.767 113.646 12.733C113.708 12.6933 113.771 12.6537 113.833 12.614L113.807 12.6395C113.813 12.6338 113.819 12.631 113.824 12.631C113.83 12.631 113.836 12.6282 113.841 12.6225C113.853 12.6112 113.861 12.5998 113.867 12.5885C113.878 12.5715 113.895 12.563 113.918 12.563C113.935 12.5517 113.96 12.5375 113.994 12.5205C114.028 12.5035 114.054 12.4893 114.071 12.478L114.088 12.5715V12.478C114.122 12.4723 114.15 12.4667 114.173 12.461C114.196 12.4553 114.215 12.4468 114.232 12.4355C114.289 12.4128 114.337 12.3987 114.377 12.393C114.417 12.3817 114.453 12.3873 114.487 12.41C114.527 12.427 114.567 12.4667 114.606 12.529C114.646 12.5857 114.697 12.6707 114.759 12.784L114.768 12.818L114.776 12.8605L114.793 12.92C114.867 13.1807 114.969 13.4498 115.099 13.7275C115.23 14.0052 115.386 14.2715 115.567 14.5265C115.748 14.7815 115.949 15.0138 116.17 15.2235C116.391 15.4332 116.629 15.6145 116.884 15.7675C117.122 15.9148 117.372 16.0367 117.632 16.133C117.899 16.2237 118.168 16.2945 118.44 16.3455H118.431C118.613 16.3738 118.788 16.3965 118.958 16.4135C119.128 16.4305 119.293 16.439 119.451 16.439C119.808 16.439 120.146 16.4163 120.463 16.371C120.786 16.32 121.095 16.2577 121.389 16.184C121.831 16.0763 122.245 15.9517 122.63 15.81C123.021 15.6627 123.387 15.5125 123.727 15.3595C123.869 15.2972 124.016 15.2292 124.169 15.1555C124.328 15.0762 124.483 14.9997 124.636 14.926C124.789 14.8467 124.937 14.7702 125.078 14.6965C125.22 14.6172 125.348 14.5463 125.461 14.484C125.92 14.2177 126.319 13.9768 126.659 13.7615C127.005 13.5462 127.286 13.3648 127.501 13.2175C127.512 13.2062 127.526 13.1948 127.543 13.1835C127.56 13.1722 127.575 13.1608 127.586 13.1495C127.807 13.0022 127.983 12.8832 128.113 12.7925C128.243 12.7018 128.334 12.6367 128.385 12.597C128.51 12.512 128.637 12.4412 128.767 12.3845C128.898 12.3278 129.017 12.2882 129.124 12.2655C129.238 12.2428 129.337 12.2428 129.422 12.2655C129.513 12.2825 129.583 12.325 129.634 12.393ZM114.632 4.1565C114.592 4.24717 114.553 4.33783 114.513 4.4285C114.473 4.5135 114.434 4.60417 114.394 4.7005C114.332 4.83083 114.272 4.964 114.215 5.1C114.164 5.236 114.108 5.372 114.045 5.508C113.966 5.695 113.884 5.88483 113.799 6.0775C113.714 6.2645 113.629 6.45717 113.544 6.6555C113.459 6.85383 113.388 7.01817 113.331 7.1485C113.28 7.27317 113.235 7.38367 113.195 7.48C113.156 7.57633 113.116 7.66983 113.076 7.7605C113.042 7.8455 113.003 7.94183 112.957 8.0495C112.912 8.15717 112.855 8.2875 112.787 8.4405C112.719 8.5935 112.634 8.78333 112.532 9.01C112.595 8.908 112.646 8.82017 112.685 8.7465C112.731 8.67283 112.787 8.57933 112.855 8.466C113.042 8.126 113.244 7.74633 113.459 7.327C113.674 6.90767 113.892 6.45717 114.113 5.9755C114.312 5.4995 114.519 4.97533 114.734 4.403C114.949 3.825 115.148 3.21017 115.329 2.5585C115.233 2.77383 115.136 2.992 115.04 3.213C114.944 3.434 114.847 3.66067 114.751 3.893L114.759 3.8845C114.748 3.90717 114.737 3.92983 114.725 3.9525C114.72 3.9695 114.711 3.98933 114.7 4.012L114.64 4.165L114.632 4.1565ZM115.439 0.5355L115.371 0.603499C115.394 0.563832 115.408 0.543999 115.414 0.543999C115.42 0.538333 115.428 0.5355 115.439 0.5355ZM145.298 12.4355C145.366 12.5828 145.361 12.733 145.281 12.886C145.202 13.0333 145.086 13.1467 144.933 13.226C144.899 13.243 144.845 13.2572 144.771 13.2685C144.766 13.2685 144.763 13.2713 144.763 13.277C144.763 13.277 144.76 13.277 144.754 13.277C144.737 13.2827 144.709 13.2912 144.669 13.3025C144.635 13.3082 144.584 13.3223 144.516 13.345C144.454 13.3677 144.369 13.3988 144.261 13.4385C144.159 13.4782 144.029 13.5263 143.87 13.583C143.621 13.6737 143.304 13.7927 142.918 13.94C142.539 14.0817 142.057 14.2602 141.473 14.4755C140.89 14.6908 140.198 14.943 139.399 15.232C138.6 15.5153 137.654 15.8242 136.56 16.1585C135.45 16.4928 134.432 16.7563 133.509 16.949C132.585 17.136 131.735 17.238 130.959 17.255C130.562 17.2607 130.182 17.2323 129.82 17.17C129.457 17.1133 129.123 17 128.817 16.83C128.488 16.6373 128.239 16.3993 128.069 16.116C127.989 15.9743 127.924 15.827 127.873 15.674C127.828 15.521 127.8 15.385 127.788 15.266C127.771 15.011 127.78 14.7787 127.814 14.569C127.853 14.3593 127.893 14.1695 127.933 13.9995C127.995 13.8012 128.043 13.6453 128.077 13.532C128.117 13.413 128.154 13.3138 128.188 13.2345C128.25 13.0815 128.31 12.9483 128.366 12.835C128.429 12.716 128.474 12.6338 128.502 12.5885C128.548 12.5148 128.604 12.4525 128.672 12.4015C128.74 12.3505 128.811 12.3137 128.885 12.291C128.958 12.2683 129.032 12.2627 129.106 12.274C129.185 12.2853 129.259 12.3108 129.327 12.3505C129.44 12.4355 129.514 12.5517 129.548 12.699C129.582 12.8463 129.565 12.9852 129.497 13.1155V13.107C129.468 13.175 129.451 13.2118 129.446 13.2175C129.44 13.2232 129.434 13.2317 129.429 13.243C129.412 13.2713 129.389 13.3053 129.361 13.345C129.332 13.3847 129.298 13.4357 129.259 13.498C129.23 13.5377 129.199 13.5915 129.165 13.6595C129.131 13.7275 129.092 13.8097 129.046 13.906V13.8975C129.001 13.9995 128.953 14.1128 128.902 14.2375C128.856 14.3622 128.817 14.501 128.783 14.654H128.791C128.774 14.7333 128.76 14.8155 128.749 14.9005C128.737 14.9855 128.732 15.0733 128.732 15.164C128.737 15.2547 128.749 15.3453 128.766 15.436C128.783 15.521 128.814 15.6003 128.859 15.674C128.905 15.7533 128.97 15.8327 129.055 15.912C129.14 15.9857 129.239 16.0537 129.352 16.116C129.613 16.2463 129.91 16.3285 130.245 16.3625C130.488 16.3965 130.741 16.4135 131.001 16.4135C131.268 16.4135 131.562 16.3965 131.885 16.3625C132.208 16.3285 132.54 16.286 132.88 16.235C133.123 16.1953 133.384 16.1472 133.662 16.0905C133.945 16.0282 134.234 15.9602 134.529 15.8865C134.829 15.8128 135.129 15.7363 135.43 15.657C135.736 15.572 136.033 15.487 136.322 15.402C136.77 15.266 137.209 15.1243 137.64 14.977C138.076 14.8297 138.49 14.6852 138.881 14.5435C139.277 14.4018 139.643 14.2687 139.977 14.144C140.317 14.0137 140.615 13.8975 140.87 13.7955C141.368 13.5972 141.813 13.4158 142.204 13.2515C142.595 13.0815 142.904 12.9455 143.131 12.8435H143.122C143.406 12.7132 143.621 12.6112 143.768 12.5375C143.916 12.4582 144.035 12.3958 144.125 12.3505C144.193 12.3165 144.256 12.2882 144.312 12.2655C144.369 12.2372 144.431 12.2088 144.499 12.1805C144.664 12.1182 144.822 12.1125 144.975 12.1635C145.128 12.2145 145.236 12.3052 145.298 12.4355ZM132.183 8.3045C132.132 8.31017 132.081 8.31583 132.03 8.3215C131.979 8.32717 131.931 8.33283 131.885 8.3385C131.851 8.34417 131.817 8.34983 131.783 8.3555C131.749 8.3555 131.718 8.35833 131.69 8.364C131.372 8.40367 131.106 8.43483 130.891 8.4575C130.675 8.4745 130.494 8.483 130.347 8.483C130.075 8.483 129.885 8.4405 129.777 8.3555C129.675 8.2705 129.619 8.13733 129.607 7.956C129.596 7.79167 129.633 7.65283 129.718 7.5395C129.803 7.42617 129.902 7.3695 130.015 7.3695C130.027 7.3695 130.041 7.3695 130.058 7.3695C130.08 7.3695 130.109 7.37517 130.143 7.3865L130.134 7.378C130.174 7.38933 130.253 7.40067 130.372 7.412C130.491 7.42333 130.698 7.429 130.993 7.429C131.236 7.429 131.545 7.42333 131.919 7.412C132.293 7.40067 132.764 7.378 133.33 7.344C133.767 7.31567 134.124 7.29017 134.401 7.2675C134.685 7.23917 134.911 7.21367 135.081 7.191C135.251 7.16267 135.376 7.14 135.455 7.123C135.535 7.10033 135.594 7.0805 135.634 7.0635C135.662 7.05217 135.685 7.0465 135.702 7.0465C135.724 7.04083 135.75 7.03517 135.778 7.0295C135.835 7.00683 135.897 6.98983 135.965 6.9785C136.033 6.9615 136.096 6.9615 136.152 6.9785C136.215 6.9955 136.266 7.03517 136.305 7.0975C136.351 7.15417 136.379 7.24767 136.39 7.378C136.396 7.51967 136.362 7.633 136.288 7.718C136.22 7.79733 136.11 7.8625 135.957 7.9135C135.809 7.9645 135.622 8.00133 135.396 8.024C135.169 8.04667 134.903 8.06933 134.597 8.092H134.605C134.571 8.09767 134.534 8.1005 134.495 8.1005C134.455 8.1005 134.415 8.10333 134.376 8.109C134.087 8.13167 133.758 8.15717 133.39 8.1855C133.027 8.21383 132.625 8.2535 132.183 8.3045ZM157.486 12.223C157.684 12.223 157.823 12.2882 157.902 12.4185L157.911 12.41C157.951 12.478 157.968 12.5545 157.962 12.6395C157.956 12.7245 157.928 12.8123 157.877 12.903C157.826 12.988 157.755 13.0758 157.664 13.1665C157.579 13.2515 157.477 13.328 157.358 13.396C157.319 13.4187 157.273 13.4442 157.222 13.4725C157.177 13.4952 157.12 13.5235 157.052 13.5575C157.024 13.5688 156.993 13.583 156.959 13.6C156.931 13.617 156.897 13.6368 156.857 13.6595C156.721 13.7218 156.537 13.804 156.304 13.906C156.078 14.008 155.78 14.1383 155.412 14.297C155.044 14.4557 154.587 14.6427 154.043 14.858C153.505 15.0733 152.851 15.3142 152.08 15.5805C151.706 15.7108 151.289 15.8497 150.83 15.997C150.371 16.1387 149.89 16.2832 149.385 16.4305C149.13 16.5042 148.864 16.5778 148.586 16.6515C148.314 16.7252 148.031 16.7988 147.736 16.8725C147.43 16.9462 147.107 17.0198 146.767 17.0935C146.433 17.1672 146.113 17.2295 145.807 17.2805C145.745 17.2918 145.682 17.2975 145.62 17.2975C145.563 17.3032 145.504 17.3117 145.441 17.323C145.424 17.3287 145.405 17.3315 145.382 17.3315C145.365 17.3372 145.339 17.34 145.305 17.34C145.294 17.34 145.28 17.34 145.263 17.34C145.252 17.3457 145.24 17.3485 145.229 17.3485H145.059C145.048 17.3485 145.036 17.3457 145.025 17.34C145.019 17.34 145.008 17.34 144.991 17.34C144.946 17.34 144.903 17.3372 144.863 17.3315C144.829 17.3315 144.781 17.3202 144.719 17.2975C144.572 17.1955 144.464 17.0992 144.396 17.0085C144.328 16.9235 144.274 16.8385 144.234 16.7535C144.2 16.6685 144.172 16.5863 144.149 16.507C144.127 16.422 144.11 16.3427 144.098 16.269C144.087 16.1783 144.079 16.0877 144.073 15.997C144.067 15.9063 144.064 15.8072 144.064 15.6995C144.064 15.4955 144.073 15.3085 144.09 15.1385C144.107 14.9628 144.127 14.7957 144.149 14.637C144.172 14.4727 144.192 14.3423 144.209 14.246C144.226 14.144 144.24 14.0562 144.251 13.9825C144.268 13.9032 144.285 13.8238 144.302 13.7445C144.325 13.6595 144.351 13.5518 144.379 13.4215C144.271 13.4215 144.186 13.4017 144.124 13.362C144.062 13.3223 144.013 13.2685 143.979 13.2005C143.917 13.0532 143.934 12.8917 144.03 12.716C144.132 12.5403 144.274 12.3788 144.455 12.2315L144.447 12.2485C144.47 12.2258 144.498 12.2032 144.532 12.1805C144.532 12.1805 144.538 12.1777 144.549 12.172C144.555 12.172 144.557 12.1692 144.557 12.1635C144.574 12.1522 144.591 12.1437 144.608 12.138C144.631 12.1267 144.659 12.1068 144.693 12.0785C144.699 12.0785 144.705 12.0757 144.71 12.07C144.88 11.4523 145.036 10.9112 145.178 10.4465C145.32 9.97617 145.456 9.5455 145.586 9.1545C145.716 8.75783 145.847 8.36967 145.977 7.99C146.113 7.61033 146.266 7.20517 146.436 6.7745C146.606 6.3495 146.81 5.86217 147.048 5.3125C147.292 4.76283 147.598 4.11967 147.966 3.383C148.221 2.89 148.462 2.44517 148.688 2.0485C148.921 1.64617 149.164 1.28067 149.419 0.951999L149.479 0.892499L149.462 0.901C149.507 0.838666 149.57 0.770666 149.649 0.696999C149.734 0.617666 149.813 0.549666 149.887 0.492999C149.887 0.492999 149.893 0.490166 149.904 0.484499C149.91 0.484499 149.912 0.481666 149.912 0.475999C149.958 0.447666 150.003 0.424999 150.048 0.407999C150.094 0.385332 150.139 0.371166 150.184 0.365499C150.247 0.354166 150.309 0.356999 150.371 0.373999C150.439 0.385332 150.502 0.405166 150.558 0.433499C150.672 0.495833 150.751 0.566666 150.796 0.645999C150.842 0.725332 150.876 0.798999 150.898 0.866999C150.932 0.980332 150.952 1.088 150.958 1.19C150.969 1.28633 150.972 1.38267 150.966 1.479C150.966 1.57533 150.964 1.66317 150.958 1.7425C150.952 1.81617 150.944 1.887 150.932 1.955C150.898 2.21567 150.847 2.4905 150.779 2.7795C150.717 3.06283 150.646 3.3405 150.567 3.6125C150.493 3.8675 150.414 4.13667 150.329 4.42C150.244 4.69767 150.148 4.981 150.04 5.27C149.7 6.188 149.351 7.00117 148.994 7.7095C148.643 8.41783 148.32 9.027 148.025 9.537C147.719 10.0583 147.447 10.4918 147.209 10.8375C146.971 11.1832 146.77 11.4552 146.606 11.6535C146.459 11.8348 146.314 12.002 146.172 12.155C146.036 12.3023 145.903 12.4412 145.773 12.5715C145.688 12.6565 145.611 12.733 145.543 12.801C145.475 12.8633 145.405 12.9257 145.331 12.988C145.32 13.022 145.311 13.0475 145.305 13.0645C145.3 13.0758 145.297 13.0843 145.297 13.09C145.297 13.0957 145.294 13.1042 145.288 13.1155V13.107C145.226 13.362 145.161 13.668 145.093 14.025C145.025 14.3763 144.968 14.7475 144.923 15.1385C144.912 15.2178 144.903 15.3085 144.897 15.4105C144.897 15.5068 144.897 15.5947 144.897 15.674C144.897 15.793 144.903 15.912 144.914 16.031C144.926 16.15 144.946 16.269 144.974 16.388C144.974 16.4107 144.994 16.4503 145.033 16.507C145.13 16.5127 145.232 16.5098 145.339 16.4985C145.447 16.4815 145.558 16.4617 145.671 16.439H145.662C146.206 16.3427 146.731 16.2293 147.235 16.099C147.745 15.9687 148.198 15.8468 148.595 15.7335C149.037 15.6032 149.456 15.4728 149.853 15.3425C150.25 15.2122 150.626 15.0818 150.983 14.9515C151.72 14.6965 152.36 14.4613 152.904 14.246C153.448 14.0307 153.924 13.8323 154.332 13.651C155.012 13.3563 155.537 13.1098 155.905 12.9115C156.273 12.7132 156.528 12.5743 156.67 12.495C156.676 12.495 156.681 12.4922 156.687 12.4865C156.693 12.4808 156.701 12.4752 156.712 12.4695C156.724 12.4638 156.732 12.4553 156.738 12.444C156.744 12.444 156.741 12.4497 156.729 12.461C156.871 12.3817 157.007 12.3222 157.137 12.2825C157.268 12.2428 157.384 12.223 157.486 12.223ZM146.104 10.4805C146.076 10.5655 146.059 10.6137 146.053 10.625C146.048 10.6307 146.042 10.6335 146.036 10.6335C146.036 10.6335 146.034 10.6448 146.028 10.6675C146.022 10.6845 146.002 10.744 145.968 10.846C146.11 10.6817 146.263 10.489 146.427 10.268C146.592 10.047 146.77 9.792 146.963 9.503C147.122 9.25933 147.297 8.97317 147.49 8.6445C147.683 8.31017 147.881 7.94467 148.085 7.548C148.289 7.14567 148.493 6.71783 148.697 6.2645C148.907 5.8055 149.108 5.33233 149.3 4.845C149.414 4.539 149.519 4.22167 149.615 3.893C149.717 3.56433 149.808 3.247 149.887 2.941V2.9495C149.921 2.80217 149.952 2.64067 149.98 2.465C150.014 2.28933 150.043 2.0995 150.065 1.8955C150.082 1.7935 150.091 1.6915 150.091 1.5895C150.063 1.63483 150.031 1.683 149.997 1.734C149.969 1.77933 149.941 1.82467 149.912 1.87C149.805 2.04567 149.694 2.23267 149.581 2.431C149.473 2.62367 149.371 2.81633 149.275 3.009C149.065 3.417 148.856 3.84483 148.646 4.2925C148.436 4.7345 148.227 5.1935 148.017 5.6695C147.79 6.19083 147.586 6.6725 147.405 7.1145C147.229 7.55083 147.076 7.93617 146.946 8.2705C146.935 8.29883 146.92 8.33283 146.903 8.3725C146.886 8.41217 146.872 8.44617 146.861 8.4745C146.85 8.50283 146.841 8.52833 146.835 8.551C146.83 8.57367 146.821 8.59633 146.81 8.619C146.782 8.69267 146.75 8.76917 146.716 8.8485C146.688 8.92783 146.66 9.0015 146.631 9.0695L146.64 9.061C146.544 9.299 146.45 9.53417 146.359 9.7665C146.274 9.99883 146.189 10.2368 146.104 10.4805ZM173.587 12.4355C173.655 12.5828 173.65 12.733 173.57 12.886C173.491 13.0333 173.375 13.1467 173.222 13.226C173.188 13.243 173.134 13.2572 173.06 13.2685C173.055 13.2685 173.052 13.2713 173.052 13.277C173.052 13.277 173.049 13.277 173.043 13.277C173.026 13.2827 172.998 13.2912 172.958 13.3025C172.924 13.3082 172.873 13.3223 172.805 13.345C172.743 13.3677 172.658 13.3988 172.55 13.4385C172.448 13.4782 172.318 13.5263 172.159 13.583C171.91 13.6737 171.593 13.7927 171.207 13.94C170.828 14.0817 170.346 14.2602 169.762 14.4755C169.179 14.6908 168.487 14.943 167.688 15.232C166.889 15.5153 165.943 15.8242 164.849 16.1585C163.739 16.4928 162.722 16.7563 161.798 16.949C160.874 17.136 160.024 17.238 159.248 17.255C158.851 17.2607 158.472 17.2323 158.109 17.17C157.746 17.1133 157.412 17 157.106 16.83C156.777 16.6373 156.528 16.3993 156.358 16.116C156.279 15.9743 156.213 15.827 156.162 15.674C156.117 15.521 156.089 15.385 156.077 15.266C156.06 15.011 156.069 14.7787 156.103 14.569C156.143 14.3593 156.182 14.1695 156.222 13.9995C156.284 13.8012 156.332 13.6453 156.366 13.532C156.406 13.413 156.443 13.3138 156.477 13.2345C156.539 13.0815 156.599 12.9483 156.655 12.835C156.718 12.716 156.763 12.6338 156.791 12.5885C156.837 12.5148 156.893 12.4525 156.961 12.4015C157.029 12.3505 157.1 12.3137 157.174 12.291C157.248 12.2683 157.321 12.2627 157.395 12.274C157.474 12.2853 157.548 12.3108 157.616 12.3505C157.729 12.4355 157.803 12.5517 157.837 12.699C157.871 12.8463 157.854 12.9852 157.786 13.1155V13.107C157.758 13.175 157.741 13.2118 157.735 13.2175C157.729 13.2232 157.724 13.2317 157.718 13.243C157.701 13.2713 157.678 13.3053 157.65 13.345C157.622 13.3847 157.588 13.4357 157.548 13.498C157.52 13.5377 157.488 13.5915 157.454 13.6595C157.42 13.7275 157.381 13.8097 157.335 13.906V13.8975C157.29 13.9995 157.242 14.1128 157.191 14.2375C157.146 14.3622 157.106 14.501 157.072 14.654H157.08C157.063 14.7333 157.049 14.8155 157.038 14.9005C157.027 14.9855 157.021 15.0733 157.021 15.164C157.027 15.2547 157.038 15.3453 157.055 15.436C157.072 15.521 157.103 15.6003 157.148 15.674C157.194 15.7533 157.259 15.8327 157.344 15.912C157.429 15.9857 157.528 16.0537 157.641 16.116C157.902 16.2463 158.2 16.3285 158.534 16.3625C158.778 16.3965 159.03 16.4135 159.29 16.4135C159.557 16.4135 159.851 16.3965 160.174 16.3625C160.497 16.3285 160.829 16.286 161.169 16.235C161.413 16.1953 161.673 16.1472 161.951 16.0905C162.234 16.0282 162.523 15.9602 162.818 15.8865C163.118 15.8128 163.419 15.7363 163.719 15.657C164.025 15.572 164.322 15.487 164.611 15.402C165.059 15.266 165.498 15.1243 165.929 14.977C166.365 14.8297 166.779 14.6852 167.17 14.5435C167.567 14.4018 167.932 14.2687 168.266 14.144C168.606 14.0137 168.904 13.8975 169.159 13.7955C169.658 13.5972 170.102 13.4158 170.493 13.2515C170.884 13.0815 171.193 12.9455 171.42 12.8435H171.411C171.695 12.7132 171.91 12.6112 172.057 12.5375C172.205 12.4582 172.324 12.3958 172.414 12.3505C172.482 12.3165 172.545 12.2882 172.601 12.2655C172.658 12.2372 172.72 12.2088 172.788 12.1805C172.953 12.1182 173.111 12.1125 173.264 12.1635C173.417 12.2145 173.525 12.3052 173.587 12.4355ZM160.472 8.3045C160.421 8.31017 160.37 8.31583 160.319 8.3215C160.268 8.32717 160.22 8.33283 160.174 8.3385C160.14 8.34417 160.106 8.34983 160.072 8.3555C160.038 8.3555 160.007 8.35833 159.979 8.364C159.662 8.40367 159.395 8.43483 159.18 8.4575C158.965 8.4745 158.783 8.483 158.636 8.483C158.364 8.483 158.174 8.4405 158.066 8.3555C157.964 8.2705 157.908 8.13733 157.896 7.956C157.885 7.79167 157.922 7.65283 158.007 7.5395C158.092 7.42617 158.191 7.3695 158.304 7.3695C158.316 7.3695 158.33 7.3695 158.347 7.3695C158.37 7.3695 158.398 7.37517 158.432 7.3865L158.423 7.378C158.463 7.38933 158.542 7.40067 158.661 7.412C158.78 7.42333 158.987 7.429 159.282 7.429C159.526 7.429 159.834 7.42333 160.208 7.412C160.582 7.40067 161.053 7.378 161.619 7.344C162.056 7.31567 162.413 7.29017 162.69 7.2675C162.974 7.23917 163.2 7.21367 163.37 7.191C163.54 7.16267 163.665 7.14 163.744 7.123C163.824 7.10033 163.883 7.0805 163.923 7.0635C163.951 7.05217 163.974 7.0465 163.991 7.0465C164.014 7.04083 164.039 7.03517 164.067 7.0295C164.124 7.00683 164.186 6.98983 164.254 6.9785C164.322 6.9615 164.385 6.9615 164.441 6.9785C164.504 6.9955 164.555 7.03517 164.594 7.0975C164.64 7.15417 164.668 7.24767 164.679 7.378C164.685 7.51967 164.651 7.633 164.577 7.718C164.509 7.79733 164.399 7.8625 164.246 7.9135C164.099 7.9645 163.912 8.00133 163.685 8.024C163.458 8.04667 163.192 8.06933 162.886 8.092H162.894C162.86 8.09767 162.824 8.1005 162.784 8.1005C162.744 8.1005 162.705 8.10333 162.665 8.109C162.376 8.13167 162.047 8.15717 161.679 8.1855C161.316 8.21383 160.914 8.2535 160.472 8.3045ZM172.277 13.005C172.339 12.8633 172.41 12.7358 172.49 12.6225C172.575 12.5092 172.662 12.4185 172.753 12.3505C172.844 12.2768 172.932 12.2287 173.017 12.206C173.107 12.1777 173.187 12.1777 173.255 12.206C173.408 12.2853 173.484 12.4468 173.484 12.6905C173.484 12.9172 173.425 13.1693 173.306 13.447V13.464C173.272 13.549 173.223 13.6425 173.161 13.7445C173.116 13.8238 173.051 13.9513 172.966 14.127C172.881 14.297 172.753 14.5633 172.583 14.926C172.555 14.977 172.526 15.028 172.498 15.079C172.475 15.13 172.45 15.1867 172.422 15.249C172.388 15.3283 172.348 15.4162 172.303 15.5125C172.263 15.6032 172.22 15.6967 172.175 15.793V15.7845C172.045 16.0735 171.897 16.3965 171.733 16.7535C171.574 17.1105 171.399 17.51 171.206 17.952L171.215 17.935C171.209 17.952 171.203 17.9718 171.198 17.9945C171.186 18.0172 171.175 18.0398 171.164 18.0625L171.172 18.0455C171.161 18.0738 171.149 18.0993 171.138 18.122C171.121 18.1447 171.107 18.1702 171.096 18.1985C170.778 18.9238 170.416 19.771 170.008 20.74C169.594 21.7147 169.138 22.8565 168.639 24.1655C168.611 24.2562 168.58 24.3468 168.546 24.4375C168.506 24.5282 168.469 24.6217 168.435 24.718C168.741 24.0607 169.073 23.3722 169.43 22.6525C169.787 21.9385 170.152 21.2415 170.526 20.5615C170.713 20.2385 170.903 19.9155 171.096 19.5925C171.288 19.2752 171.475 18.972 171.657 18.683C171.844 18.394 172.019 18.1248 172.184 17.8755C172.354 17.6318 172.507 17.4165 172.643 17.2295C172.92 16.8555 173.212 16.4815 173.518 16.1075C173.824 15.7335 174.127 15.3907 174.428 15.079C174.603 14.8977 174.787 14.7163 174.98 14.535C175.178 14.3537 175.391 14.1723 175.618 13.991L175.609 13.9995C175.847 13.8068 176.113 13.6085 176.408 13.4045C176.703 13.2005 177.026 13.0135 177.377 12.8435C177.575 12.7472 177.782 12.6593 177.998 12.58C178.213 12.5007 178.437 12.4355 178.669 12.3845C178.975 12.3165 179.326 12.2825 179.723 12.2825C179.819 12.2825 179.919 12.2853 180.021 12.291C180.123 12.291 180.213 12.2967 180.293 12.308L180.327 12.325C180.361 12.325 180.409 12.3363 180.471 12.359C180.539 12.376 180.599 12.3987 180.65 12.427L180.641 12.4185C180.703 12.4525 180.754 12.4978 180.794 12.5545C180.834 12.6055 180.865 12.6622 180.888 12.7245V12.716C180.91 12.767 180.924 12.8152 180.93 12.8605C180.936 12.9002 180.939 12.9427 180.939 12.988C180.939 13.0957 180.924 13.1977 180.896 13.294C180.868 13.3847 180.834 13.4753 180.794 13.566C180.788 13.5717 180.788 13.5745 180.794 13.5745C180.8 13.5688 180.8 13.5717 180.794 13.583C180.715 13.753 180.638 13.906 180.565 14.042C180.497 14.1723 180.426 14.297 180.352 14.416C180.188 14.6767 180.006 14.943 179.808 15.215C179.615 15.487 179.414 15.7647 179.205 16.048L178.95 16.3795C178.916 16.4192 178.896 16.4447 178.89 16.456C178.884 16.4617 178.882 16.4645 178.882 16.4645C178.882 16.4645 178.879 16.4673 178.873 16.473C178.867 16.4787 178.85 16.5013 178.822 16.541C178.986 16.5127 179.148 16.4872 179.307 16.4645C179.465 16.4362 179.621 16.4078 179.774 16.3795C180.346 16.2718 180.896 16.1528 181.423 16.0225C181.956 15.8865 182.432 15.759 182.851 15.64C183.724 15.3623 184.523 15.0818 185.248 14.7985C185.979 14.5095 186.594 14.2545 187.093 14.0335C187.625 13.7898 188.073 13.5745 188.436 13.3875C188.804 13.1948 189.113 13.0333 189.362 12.903L189.354 12.9115C189.444 12.8605 189.526 12.8152 189.6 12.7755C189.674 12.7358 189.742 12.699 189.804 12.665C189.917 12.6027 190.005 12.5545 190.068 12.5205C190.136 12.4808 190.187 12.4497 190.221 12.427C190.379 12.3363 190.532 12.2683 190.68 12.223C190.833 12.1777 190.969 12.155 191.088 12.155C191.28 12.155 191.413 12.2117 191.487 12.325C191.527 12.393 191.535 12.4723 191.513 12.563C191.496 12.6537 191.453 12.75 191.385 12.852C191.323 12.9483 191.238 13.0475 191.13 13.1495C191.028 13.2458 190.912 13.3308 190.782 13.4045C190.719 13.4442 190.637 13.4923 190.535 13.549C190.433 13.6 190.3 13.6652 190.136 13.7445C190.096 13.7615 190.056 13.7813 190.017 13.804C190.005 13.8097 189.991 13.8153 189.974 13.821C189.963 13.8267 189.951 13.8323 189.94 13.838L189.966 13.8295C189.796 13.9145 189.58 14.0193 189.32 14.144C189.059 14.263 188.736 14.4103 188.351 14.586C187.88 14.8013 187.302 15.0507 186.617 15.334C185.931 15.6117 185.104 15.9092 184.135 16.2265C183.619 16.3908 183.072 16.5523 182.494 16.711C181.916 16.864 181.304 17.0057 180.658 17.136C180.352 17.1983 180.004 17.2578 179.613 17.3145C179.227 17.3712 178.848 17.4222 178.474 17.4675C178.23 17.4958 178.012 17.5185 177.819 17.5355C177.626 17.5582 177.471 17.5582 177.352 17.5355C177.233 17.5185 177.156 17.4732 177.122 17.3995C177.094 17.3315 177.122 17.221 177.207 17.068C177.292 16.915 177.439 16.7167 177.649 16.473C177.864 16.2237 178.156 15.912 178.525 15.538C178.661 15.402 178.788 15.2575 178.907 15.1045C179.026 14.9458 179.137 14.7872 179.239 14.6285C179.346 14.4698 179.445 14.314 179.536 14.161C179.627 14.008 179.712 13.8663 179.791 13.736L179.783 13.7445L179.808 13.6935C179.825 13.6595 179.845 13.6227 179.868 13.583C179.89 13.5377 179.913 13.4952 179.936 13.4555C179.958 13.4102 179.984 13.3648 180.012 13.3195C180.023 13.2912 180.035 13.2628 180.046 13.2345C180.057 13.2005 180.069 13.1665 180.08 13.1325C180.08 13.1325 180.077 13.1297 180.072 13.124H180.063C180.052 13.124 180.04 13.124 180.029 13.124C180.023 13.1183 180.018 13.1155 180.012 13.1155C179.961 13.1098 179.91 13.107 179.859 13.107C179.814 13.1013 179.768 13.1013 179.723 13.107C179.44 13.107 179.171 13.1353 178.916 13.192C178.666 13.243 178.428 13.311 178.202 13.396C177.981 13.4753 177.771 13.5688 177.573 13.6765C177.374 13.7842 177.187 13.8947 177.012 14.008C176.655 14.2517 176.34 14.4953 176.068 14.739C175.802 14.977 175.561 15.2037 175.346 15.419H175.354C175.116 15.674 174.904 15.9092 174.717 16.1245C174.535 16.3398 174.374 16.5382 174.232 16.7195C174.096 16.9065 173.952 17.1048 173.799 17.3145C173.651 17.5242 173.501 17.7395 173.348 17.9605C173.195 18.1872 173.042 18.4138 172.889 18.6405C172.742 18.8728 172.6 19.0995 172.464 19.3205C172.164 19.8078 171.821 20.383 171.436 21.046C171.056 21.7147 170.642 22.4825 170.195 23.3495C169.923 23.8652 169.676 24.3468 169.455 24.7945C169.234 25.2422 169.03 25.6615 168.843 26.0525L168.741 26.2565C168.724 26.2848 168.707 26.3188 168.69 26.3585C168.673 26.3982 168.659 26.4322 168.648 26.4605C168.619 26.5228 168.585 26.5965 168.546 26.6815C168.5 26.7665 168.463 26.8402 168.435 26.9025C168.367 27.0385 168.302 27.1745 168.24 27.3105C168.172 27.4522 168.106 27.5797 168.044 27.693C168.033 27.7043 168.027 27.7157 168.027 27.727C168.021 27.744 168.013 27.7582 168.002 27.7695C167.99 27.7865 167.979 27.8063 167.968 27.829C167.934 27.8913 167.897 27.9593 167.857 28.033C167.812 28.1067 167.766 28.1775 167.721 28.2455L167.704 28.2625C167.698 28.2682 167.696 28.2738 167.696 28.2795C167.69 28.2908 167.684 28.2993 167.679 28.305C167.667 28.322 167.65 28.3418 167.628 28.3645C167.599 28.3928 167.571 28.4212 167.543 28.4495C167.52 28.4722 167.492 28.4948 167.458 28.5175C167.441 28.5345 167.421 28.5487 167.398 28.56C167.375 28.5713 167.339 28.5827 167.288 28.594L167.305 28.5855C167.259 28.5968 167.197 28.594 167.118 28.577C167.038 28.56 166.976 28.5373 166.931 28.509C166.919 28.5033 166.905 28.4835 166.888 28.4495C166.871 28.4212 166.854 28.39 166.837 28.356C166.82 28.322 166.803 28.288 166.786 28.254C166.769 28.2257 166.758 28.2058 166.752 28.1945L166.922 26.7665C166.945 26.6022 166.984 26.435 167.041 26.265C167.098 26.095 167.152 25.9307 167.203 25.772C167.299 25.4603 167.409 25.126 167.534 24.769C167.653 24.412 167.778 24.0578 167.908 23.7065C168.322 22.5958 168.707 21.6098 169.064 20.7485C169.415 19.8872 169.724 19.1307 169.991 18.479L169.982 18.4875C169.999 18.4422 170.019 18.3968 170.042 18.3515C170.059 18.3062 170.076 18.2608 170.093 18.2155C170.155 18.0682 170.214 17.9265 170.271 17.7905C170.328 17.6545 170.382 17.5213 170.433 17.391C170.495 17.2437 170.554 17.1048 170.611 16.9745C170.668 16.8385 170.722 16.7082 170.773 16.5835L170.764 16.592C170.815 16.4617 170.869 16.3342 170.926 16.2095C170.982 16.0792 171.036 15.9545 171.087 15.8355C171.132 15.7392 171.172 15.6485 171.206 15.5635C171.24 15.4728 171.271 15.3878 171.3 15.3085C171.362 15.1555 171.419 15.0167 171.47 14.892C171.521 14.7617 171.569 14.6398 171.614 14.5265C171.631 14.4868 171.651 14.4443 171.674 14.399C171.696 14.348 171.713 14.3027 171.725 14.263C171.815 14.0477 171.895 13.8663 171.963 13.719C172.031 13.566 172.101 13.4073 172.175 13.243C172.203 13.1637 172.235 13.0872 172.269 13.0135L172.277 13.005ZM201.047 12.4695C201.076 12.5375 201.087 12.6112 201.081 12.6905C201.076 12.7642 201.053 12.8407 201.013 12.92C200.979 12.9993 200.931 13.0758 200.869 13.1495C200.807 13.2175 200.733 13.2798 200.648 13.3365C200.625 13.3478 200.603 13.362 200.58 13.379C200.563 13.3903 200.537 13.4073 200.503 13.43L200.469 13.447C200.458 13.4527 200.447 13.4583 200.435 13.464C200.43 13.464 200.424 13.4668 200.418 13.4725C200.362 13.5008 200.282 13.5405 200.18 13.5915C200.084 13.6425 199.962 13.7133 199.815 13.804C199.645 13.906 199.427 14.0392 199.16 14.2035C198.9 14.3678 198.571 14.5775 198.174 14.8325C197.783 15.0818 197.319 15.385 196.78 15.742C196.242 16.099 195.616 16.5183 194.902 17C194.511 17.2607 194.106 17.5468 193.686 17.8585C193.267 18.1702 192.811 18.513 192.318 18.887C191.893 19.2157 191.42 19.5812 190.898 19.9835C190.383 20.3915 189.864 20.7995 189.343 21.2075C189.32 21.2982 189.298 21.3917 189.275 21.488C189.252 21.5843 189.227 21.6807 189.198 21.777C189.057 22.236 188.895 22.6638 188.714 23.0605C188.527 23.4572 188.309 23.7972 188.059 24.0805C187.929 24.2278 187.79 24.3582 187.643 24.4715C187.496 24.5848 187.34 24.6755 187.175 24.7435C187.017 24.8058 186.855 24.8568 186.691 24.8965C186.521 24.9362 186.365 24.9588 186.223 24.9645C186.144 24.9645 186.068 24.9617 185.994 24.956C185.915 24.9503 185.844 24.9418 185.781 24.9305C185.668 24.9078 185.563 24.8653 185.467 24.803C185.365 24.7407 185.291 24.6415 185.246 24.5055L185.254 24.514C185.203 24.395 185.184 24.2873 185.195 24.191C185.206 24.1003 185.226 24.0153 185.254 23.936C185.283 23.8623 185.311 23.7972 185.339 23.7405C185.368 23.6838 185.396 23.6328 185.424 23.5875C185.521 23.4402 185.623 23.2985 185.73 23.1625C185.838 23.0322 185.94 22.9075 186.036 22.7885L186.019 22.8055C186.031 22.7942 186.045 22.7772 186.062 22.7545C186.073 22.7375 186.085 22.7233 186.096 22.712C186.289 22.5023 186.501 22.287 186.733 22.066C186.96 21.8507 187.207 21.6297 187.473 21.403C187.637 21.2557 187.807 21.1055 187.983 20.9525C188.159 20.8052 188.371 20.6408 188.62 20.4595C188.66 20.2612 188.697 20.0742 188.731 19.8985C188.759 19.7285 188.788 19.5528 188.816 19.3715C188.861 19.0542 188.904 18.734 188.943 18.411C188.983 18.088 189.017 17.7933 189.045 17.527C189.051 17.4873 189.057 17.442 189.062 17.391C189.068 17.3457 189.074 17.3032 189.079 17.2635C189.085 17.2238 189.088 17.1842 189.088 17.1445C189.094 17.1105 189.099 17.0765 189.105 17.0425C189.116 16.9632 189.125 16.881 189.13 16.796C189.142 16.711 189.153 16.6288 189.164 16.5495C189.204 16.2095 189.238 15.9007 189.266 15.623C189.3 15.3397 189.337 15.079 189.377 14.841C189.434 14.518 189.493 14.2205 189.555 13.9485C189.623 13.6765 189.689 13.4555 189.751 13.2855C189.813 13.1268 189.876 12.988 189.938 12.869C190.006 12.75 190.057 12.6678 190.091 12.6225C190.153 12.5375 190.227 12.4638 190.312 12.4015C190.403 12.3392 190.496 12.2938 190.592 12.2655C190.74 12.2315 190.864 12.2428 190.966 12.2995C191.068 12.3505 191.142 12.4213 191.187 12.512C191.227 12.5913 191.241 12.6707 191.23 12.75C191.219 12.8293 191.199 12.9143 191.17 13.005L191.145 13.056C191.128 13.0843 191.108 13.1212 191.085 13.1665C191.063 13.2062 191.04 13.243 191.017 13.277L191 13.294C190.978 13.3223 190.952 13.3563 190.924 13.396C190.901 13.43 190.876 13.4782 190.847 13.5405C190.802 13.6312 190.748 13.753 190.686 13.906C190.624 14.059 190.561 14.263 190.499 14.518C190.437 14.7673 190.371 15.096 190.303 15.504C190.235 15.912 190.159 16.4248 190.074 17.0425C190.046 17.2238 190.02 17.4108 189.997 17.6035C189.986 17.6998 189.972 17.7962 189.955 17.8925C189.944 17.9888 189.929 18.0908 189.912 18.1985C189.89 18.3458 189.867 18.496 189.844 18.649C189.827 18.8077 189.805 18.9663 189.776 19.125C189.771 19.1477 189.765 19.1675 189.759 19.1845C189.754 19.2072 189.748 19.227 189.742 19.244C189.737 19.2553 189.734 19.2695 189.734 19.2865C189.734 19.3035 189.731 19.3177 189.725 19.329C189.697 19.3573 189.68 19.4027 189.674 19.465C189.674 19.533 189.677 19.601 189.683 19.669C189.728 19.635 189.768 19.6067 189.802 19.584L189.793 19.5925C190.167 19.3205 190.502 19.0768 190.796 18.8615C191.097 18.6518 191.372 18.4592 191.621 18.2835C191.706 18.2212 191.791 18.1617 191.876 18.105C191.961 18.0483 192.04 17.9917 192.114 17.935C192.176 17.8897 192.239 17.8443 192.301 17.799C192.369 17.7593 192.431 17.7168 192.488 17.6715C192.664 17.5525 192.834 17.4335 192.998 17.3145C193.06 17.2692 193.131 17.2182 193.21 17.1615C193.29 17.1048 193.361 17.0538 193.423 17.0085C193.525 16.9292 193.63 16.8555 193.737 16.7875C193.845 16.7138 193.956 16.6373 194.069 16.558H194.06C194.134 16.507 194.211 16.456 194.29 16.405C194.369 16.3483 194.449 16.2917 194.528 16.235V16.2435C195.112 15.8355 195.624 15.4785 196.066 15.1725C196.514 14.8665 196.908 14.5945 197.248 14.3565C197.605 14.1128 197.917 13.8975 198.183 13.7105C198.449 13.5178 198.665 13.3592 198.829 13.2345C198.954 13.1495 199.064 13.0702 199.16 12.9965C199.262 12.9228 199.35 12.8605 199.424 12.8095L199.441 12.801C199.554 12.7103 199.656 12.6338 199.747 12.5715C199.838 12.5092 199.934 12.4468 200.036 12.3845C200.217 12.2712 200.399 12.2145 200.58 12.2145C200.773 12.2145 200.928 12.2995 201.047 12.4695ZM187.609 23.3325C187.722 23.1738 187.833 22.9897 187.94 22.78C188.042 22.5703 188.133 22.3493 188.212 22.117C188.042 22.2587 187.887 22.389 187.745 22.508C187.598 22.627 187.462 22.7432 187.337 22.8565C187.326 22.8678 187.314 22.8792 187.303 22.8905C187.286 22.9075 187.272 22.9188 187.26 22.9245C187.079 23.0888 186.906 23.2503 186.742 23.409C186.578 23.5677 186.413 23.7433 186.249 23.936C186.249 23.936 186.246 23.9417 186.24 23.953C186.223 23.9813 186.206 24.0097 186.189 24.038C186.167 24.0663 186.15 24.0947 186.138 24.123C186.303 24.1343 186.464 24.1202 186.623 24.0805C186.776 24.0295 186.946 23.9388 187.133 23.8085C187.32 23.6782 187.479 23.5195 187.609 23.3325ZM189.734 19.329L189.725 19.346V19.329H189.734Z" fill="#181818"/>
</svg>
