<svg width="393" height="326" viewBox="0 0 393 326" fill="none" xmlns="http://www.w3.org/2000/svg">
<path opacity="0.1" d="M242.881 149.308C243.349 141.412 243.954 134.852 244.11 128.274C244.853 97.2121 240.554 67.1292 226.04 39.1961C218.848 25.3707 209.313 13.5985 195.211 6.19048C177.815 -3.0693 158.897 -0.116772 147.167 15.7528C140.023 25.4575 134.442 36.2222 130.627 47.655C124.938 64.8131 121.467 82.689 117.083 100.279C116.139 103.8 115.566 107.4 114.796 110.967L112.276 112.147C112.271 110.474 112.023 108.81 111.539 107.208C97.346 78.8449 81.0383 51.916 55.381 32.3593C48.3721 27.0112 40.7548 22.5128 32.6882 18.9582C20.4619 13.6201 9.41204 17.9591 4.86255 30.5561C2.01041 38.6644 0.652565 47.2229 0.854781 55.8152C1.59156 94.3469 10.9362 131.35 22.331 167.85C34.558 206.78 53.9578 242.002 77.9615 274.725C115.806 326.52 172.571 340.369 231.523 310.16C288.026 281.497 335.874 238.267 370.13 184.931C380.684 168.543 387.871 150.216 391.27 131.021C396.557 102.063 382.529 83.5397 353.286 80.5913C327.633 78.0069 306.082 87.6361 287.471 103.744C273.361 115.966 261.018 130.207 247.955 143.595C246.469 144.991 245.209 146.695 242.881 149.308ZM161.073 209.624C174.651 214.376 185.544 221.46 189.681 235.849C193.086 247.587 188.583 253.783 176.478 254.375C160.45 255.153 137.212 240.864 130.748 226.244C127.457 218.846 129.357 214.447 136.36 210.22C144.968 205 153.201 209.33 161.169 209.65L161.073 209.624Z" fill="#E8112B"/>
</svg>
