<svg width="235" height="214" viewBox="0 0 235 214" fill="none" xmlns="http://www.w3.org/2000/svg">
<path opacity="0.1" fill-rule="evenodd" clip-rule="evenodd" d="M111.908 0.819038C88.1502 1.01553 61.2395 -3.92251 43.2157 11.6534C25.4075 27.043 30.219 55.2464 22.9403 77.7033C15.6498 100.197 -3.57805 119.903 0.582962 143.189C4.90802 167.394 24.0073 186.801 44.7567 199.795C64.6006 212.223 88.5527 211.98 111.908 212.907C136.326 213.877 161.504 216.939 183.023 205.286C206.316 192.671 228.607 172.779 234.089 146.739C239.436 121.339 219.899 98.7391 210.545 74.5417C201.876 52.1173 200.621 24.8575 181.425 10.5103C162.174 -3.87826 135.888 0.620706 111.908 0.819038Z" fill="#2F80ED"/>
</svg>
