<svg width="31" height="31" viewBox="0 0 31 31" fill="none" xmlns="http://www.w3.org/2000/svg">
<g clip-path="url(#clip0_2801_1717)">
<path d="M20.3673 3.75775C20.869 3.75775 21.2757 3.35105 21.2757 2.8494V0.903552C21.2277 -0.301638 19.5065 -0.30073 19.459 0.903552V2.8494C19.459 3.35105 19.8657 3.75775 20.3673 3.75775Z" fill="white"/>
<path d="M30.0975 9.72437H28.1516C26.9464 9.77239 26.9473 11.4935 28.1516 11.5411H30.0975C31.3027 11.4931 31.3018 9.77196 30.0975 9.72437Z" fill="white"/>
<path d="M26.5136 5.77123L27.8893 4.39528C28.244 4.04054 28.2439 3.46537 27.8892 3.1107C27.5344 2.75602 26.9593 2.75608 26.6046 3.11082L25.2289 4.48678C24.8742 4.84152 24.8742 5.41668 25.229 5.77136C25.5838 6.12609 26.1589 6.12597 26.5136 5.77123Z" fill="white"/>
<path d="M24.3423 13.3233C27.228 8.90807 22.0883 3.77267 17.6765 6.6575L14.1989 3.17988C13.96 2.94093 13.6081 2.85445 13.2857 2.95516C12.9633 3.05592 12.7233 3.32733 12.6629 3.65973L11.9133 7.78264C5.4089 7.60351 -0.0100988 12.8815 1.41316e-05 19.3891C1.41316e-05 25.7913 5.20852 30.9998 11.6107 30.9998C18.118 31.0099 23.3966 25.5909 23.2172 19.0865L27.3402 18.3369C27.6726 18.2765 27.944 18.0366 28.0447 17.7141C28.1455 17.3916 28.0589 17.0399 27.82 16.801L24.3423 13.3233ZM20.3671 7.64929C22.5772 7.62925 24.0483 10.0521 23.0196 12.0005L18.9991 7.98017C19.4171 7.76386 19.8833 7.64929 20.3671 7.64929ZM15.1908 19.3891L9.99561 24.5844C9.81315 24.7667 9.51636 24.7667 9.33415 24.5845L6.41516 21.6653C6.23307 21.4832 6.23167 21.188 6.41534 21.0044L11.6106 15.8089L15.1908 19.3891ZM11.6107 29.1831C-1.36965 28.646 -1.38297 10.1619 11.5838 9.59521L10.7678 14.0828L5.13094 19.7197C4.23725 20.6129 4.23828 22.0581 5.13076 22.9501L8.04975 25.8693C8.65404 26.4733 9.60726 26.7305 10.5041 26.3777L13.1828 29.0563C12.6707 29.1392 12.1458 29.1831 11.6107 29.1831ZM15.1997 28.5039L11.9223 25.2267L13.5566 23.5925L17.3142 27.3503C16.6584 27.8221 15.951 28.2081 15.1997 28.5039ZM18.6869 26.1538L14.8411 22.308L16.9169 20.2321L21.4046 19.4162C21.3976 22.0267 20.3639 24.4004 18.6869 26.1538ZM16.7811 18.4103L12.5895 14.2186L14.1401 5.6903L25.3095 16.8597L16.7811 18.4103Z" fill="white"/>
</g>
<defs>
<clipPath id="clip0_2801_1717">
<rect width="31" height="31" fill="white"/>
</clipPath>
</defs>
</svg>
