<svg width="140" height="140" viewBox="0 0 140 140" fill="none" xmlns="http://www.w3.org/2000/svg">
<g opacity="0.15">
<path d="M21.1974 54.2587C28.8083 58.0345 37.0746 59.5342 45.7695 59.5342H45.7737C67.584 59.5342 87.3558 47.736 94.2264 30.1427C96.5089 30.5669 98.2864 30.5457 99.574 29.6548C105.244 25.6669 98.3564 9.40145 98.2886 9.24024C93.5837 -1.73067 86.5922 1.89872 77.3777 6.29387C71.1646 9.25933 68.6171 10.0548 66.7292 12.4199C62.5907 17.6742 67.6264 21.1339 73.7504 23.7705C64.9007 41.6248 41.7519 55.6884 21.8295 52.6763C21.3077 52.5978 20.8155 52.6996 20.6586 53.1981C20.5016 53.6966 20.7307 54.0233 21.1974 54.2587ZM44.4819 56.7957L45.2434 57.5551L44.6007 58.1957C44.2422 58.1872 43.8858 58.166 43.5274 58.1511L43.0034 57.6272L44.4077 56.223C44.3249 56.4202 44.3249 56.6387 44.4819 56.7957ZM52.4831 56.433C52.5086 56.4796 52.5022 56.5369 52.5425 56.5772L53.6583 57.693C53.1704 57.7608 52.6719 57.7948 52.1819 57.8499C52.2137 57.6845 52.1925 57.5127 52.0652 57.3833L51.8001 57.1181L52.4831 56.433ZM57.0246 56.1424L57.8137 56.9315C57.171 57.0715 56.5177 57.1818 55.8664 57.3005L57.0246 56.1424ZM60.0346 53.1324C60.0601 53.179 60.0537 53.2363 60.094 53.2766L61.0761 54.2587L60.1683 55.1666C59.9604 55.3745 59.9604 55.7096 60.1683 55.9175C60.2722 56.0215 60.4058 56.0724 60.5437 56.0724C60.6816 56.0724 60.8152 56.0215 60.9192 55.9175L61.827 55.0096L62.4931 55.6736C61.3498 56.0299 60.1916 56.3502 59.0164 56.6345L57.7755 55.3936L60.0346 53.1324ZM64.8689 51.9657L66.5022 53.5969L66.3261 53.773C66.1692 53.9299 66.1692 54.1505 66.2519 54.3436C65.3886 54.6851 64.5146 55.0075 63.6258 55.3066L62.5758 54.2566L64.8689 51.9657ZM72.7852 51.1978L71.5931 50.0057L73.0058 48.593L74.198 49.7851L72.7852 51.1978ZM71.8583 51.7705C70.6174 52.4366 69.3404 53.056 68.0316 53.6287L68.0019 53.599L70.8443 50.7566L71.8583 51.7705ZM51.1425 57.9581C51.0746 57.9645 51.0046 57.973 50.9368 57.9793L51.0513 57.8648L51.1425 57.9581ZM76.6904 48.7924L78.3555 47.1272L78.6207 47.3924C77.9907 47.8739 77.348 48.3384 76.6904 48.7924ZM88.7728 34.8942C88.8767 34.9981 89.0104 35.049 89.1483 35.049C89.2819 35.049 89.4198 34.9981 89.5237 34.8942C89.7316 34.6863 89.7316 34.3511 89.5237 34.1433L87.9031 32.5227L90.4889 29.939L91.664 31.1142C90.3637 34.0881 88.6731 36.886 86.6474 39.4781L85.0819 37.9127L88.4377 34.5569L88.7728 34.8942ZM85.9898 40.3202C85.3152 41.139 84.6025 41.9302 83.8622 42.7045L82.004 40.8442C82.091 40.8208 82.1822 40.8102 82.2501 40.7424L84.331 38.6614L85.9898 40.3202ZM93.8086 28.2972C93.2719 28.1657 92.7437 28.4563 92.5592 28.9633C92.4255 29.3345 92.2516 29.6887 92.1052 30.0536L91.2398 29.186L91.4158 29.0099C91.6237 28.8021 91.6237 28.4669 91.4158 28.259C91.208 28.0533 90.8728 28.049 90.6649 28.259L90.4889 28.4351L89.9925 27.9387L93.3483 24.583L95.164 26.3987L94.1098 27.453C93.9019 27.6608 93.9019 27.996 94.1098 28.2039C94.2137 28.3078 94.3474 28.3587 94.4852 28.3587C94.6231 28.3587 94.7568 28.3078 94.8607 28.2039L95.9149 27.1496L97.2873 28.5221C96.3922 28.7066 95.2383 28.6451 93.8086 28.2972ZM99.4255 20.8836L98.6407 20.0987L99.2007 19.5387C99.2877 19.9948 99.3619 20.4424 99.4255 20.8836ZM76.1474 23.6793C76.3955 23.1448 76.158 22.4999 75.6043 22.2602L75.0507 22.0227C69.6564 19.7105 65.4395 17.4981 68.3901 13.7457C69.9958 11.7327 72.8828 10.8121 78.2877 8.2369C88.4122 3.4069 92.6419 1.55933 96.3392 10.1863C97.3955 12.6214 98.3798 15.6675 99.0034 18.5757C98.8401 18.5481 98.6725 18.5693 98.5452 18.6966L97.8898 19.3521L95.1513 16.6093C94.9434 16.4014 94.6083 16.4014 94.4004 16.6093C94.1925 16.8172 94.1925 17.1524 94.4004 17.3602L97.141 20.1008L96.161 21.0808C95.9531 21.2887 95.9531 21.6239 96.161 21.8318C96.2649 21.9357 96.3986 21.9866 96.5364 21.9866C96.6743 21.9866 96.808 21.9357 96.9119 21.8318L97.8919 20.8518L99.4998 22.4596C99.5295 22.4893 99.574 22.483 99.6101 22.5042C99.8264 25.1514 99.5252 27.2917 98.3734 28.1148L96.6658 26.4051L97.9301 25.1408L98.3013 25.5121C98.4052 25.616 98.5389 25.6669 98.6768 25.6669C98.8146 25.6669 98.9483 25.616 99.0522 25.5121C99.2601 25.3042 99.2601 24.969 99.0522 24.7611L98.4858 24.1948C98.4625 24.1057 98.4498 24.0102 98.3798 23.9402C98.3098 23.8702 98.2143 23.8575 98.1252 23.8342L95.7389 21.4478C95.531 21.2399 95.1958 21.2399 94.988 21.4478C94.7801 21.6557 94.7801 21.9908 94.988 22.1987L97.1792 24.3899L95.9149 25.6542L94.0992 23.8384L94.2816 23.656C94.4895 23.4481 94.4895 23.113 94.2816 22.9051C94.0758 22.6993 93.7407 22.6951 93.5307 22.9051L89.2416 27.1921C88.6964 26.6448 87.9795 27.4296 88.4631 27.9133L88.5098 27.9599C88.3528 28.1678 88.3464 28.4563 88.5352 28.6472C88.6392 28.7511 88.7728 28.8021 88.9107 28.8021C89.0231 28.8021 89.1271 28.7448 89.2225 28.6727L89.738 29.1881L87.1522 31.7718L86.868 31.4875C86.6622 31.2818 86.327 31.2775 86.1171 31.4875C85.9092 31.6954 85.9092 32.0305 86.1171 32.2384L86.4013 32.5227L86.2634 32.6605C86.0555 32.8684 86.0555 33.2036 86.2634 33.4114C86.3674 33.5154 86.501 33.5663 86.6389 33.5663C86.7725 33.5663 86.9104 33.5154 87.0143 33.4114L87.1522 33.2736L87.6846 33.8081L84.3289 37.1639L84.1528 36.9878C83.9449 36.7799 83.6098 36.7799 83.4019 36.9878C83.194 37.1957 83.194 37.5308 83.4019 37.7387L83.578 37.9148L81.497 39.9957C81.3783 40.1145 81.3464 40.2715 81.3655 40.4284C81.2277 40.4284 81.0919 40.4772 80.9858 40.5833C80.778 40.7911 80.778 41.1263 80.9858 41.3342L83.1346 43.4851C81.9828 44.6305 80.7419 45.7039 79.4564 46.7348L79.1043 46.3827L81.1428 44.3442C81.3507 44.1363 81.3507 43.8011 81.1428 43.5933C80.9349 43.3854 80.5998 43.3854 80.3919 43.5933L78.3534 45.6318L77.6301 44.9084C77.4222 44.7005 77.0871 44.7005 76.8792 44.9084C76.6713 45.1163 76.6713 45.4515 76.8792 45.6593L77.6025 46.3827L74.9446 49.0405L73.7525 47.8484L74.2552 47.3457C74.4631 47.1378 74.4631 46.8027 74.2552 46.5948C74.0474 46.3869 73.7122 46.3869 73.5043 46.5948L73.0016 47.0975L72.9358 47.0318C72.728 46.8239 72.3928 46.8239 72.1849 47.0318C71.977 47.2396 71.977 47.5748 72.1849 47.7827L72.2507 47.8484L70.838 49.2611L69.5631 47.9863C69.3552 47.7784 69.0201 47.7784 68.8122 47.9863C68.6043 48.1942 68.6043 48.5293 68.8122 48.7372L70.0871 50.0121L67.2446 52.8545L65.6113 51.2233L66.8946 49.9399C67.1025 49.7321 67.1025 49.3969 66.8946 49.189C66.6867 48.9811 66.3516 48.9811 66.1437 49.189L61.8186 53.5142L60.8364 52.5321C60.7961 52.4918 60.741 52.4981 60.6922 52.4727L61.5831 51.5818C61.791 51.3739 61.791 51.0387 61.5831 50.8308C61.3752 50.623 61.0401 50.623 60.8322 50.8308L57.0119 54.6511C56.804 54.4539 56.4774 54.4518 56.2737 54.6554C56.0701 54.859 56.0722 55.1857 56.2695 55.3936L54.808 56.8551C54.7104 56.9527 54.6701 57.0799 54.6637 57.2051L53.2871 55.8284C53.2467 55.7881 53.1895 55.7924 53.1428 55.769L54.7974 54.1145C55.0052 53.9066 55.0052 53.5714 54.7974 53.3636C54.5916 53.1557 54.2564 53.1557 54.0464 53.3636L51.0428 56.3651L49.9164 55.2366C49.7107 55.0287 49.3755 55.0287 49.1655 55.2366C48.9577 55.4445 48.9577 55.7796 49.1655 55.9875L50.2919 57.116L49.2928 58.1215C48.648 58.1618 47.9946 58.1724 47.3434 58.1893C47.3307 58.1724 47.3349 58.149 47.3201 58.1321L46.741 57.553L49.3225 54.9715C49.5304 54.7636 49.5304 54.4284 49.3225 54.2205C49.1146 54.0148 48.7795 54.0105 48.5716 54.2205L45.9901 56.8021L45.2286 56.0427C45.0716 55.8857 44.8531 55.8857 44.658 55.9684L45.5489 55.0775C45.7567 54.8696 45.7567 54.5345 45.5489 54.3266C45.341 54.1187 45.0058 54.1187 44.798 54.3266L42.2483 56.8763L41.7816 56.4096C41.5737 56.2018 41.2386 56.2018 41.0307 56.4096C40.8228 56.6175 40.8228 56.9527 41.0307 57.1605L41.4974 57.6272L41.0795 58.0451C36.5274 57.6611 32.1152 56.7151 27.8813 55.2111C46.8895 55.0139 68.0189 41.2345 76.1474 23.6793Z" fill="white"/>
<path d="M91.2128 53.6307C91.0156 55.9747 91.6392 69.2534 92.301 83.3107C92.7868 93.6219 93.2428 103.363 93.3149 107.616C93.4846 118.162 98.6668 120.368 108.813 120.918C109.315 120.945 109.79 120.96 110.238 120.96C116.68 120.96 118.116 118.124 118.29 113.869C118.712 103.337 119.105 94.5001 119.433 87.0568C121.067 50.2028 121.198 47.1907 116.143 42.6747C110.198 37.3589 92.564 37.4756 91.2128 53.6307ZM108.927 118.801C104.683 118.572 101.7 118.026 99.6234 116.923L100.209 116.338L100.62 116.75C100.724 116.853 100.858 116.904 100.996 116.904C101.134 116.904 101.267 116.853 101.371 116.75C101.579 116.542 101.579 116.206 101.371 115.999L100.96 115.587L103.145 113.402L104.827 115.084L103.84 116.071C103.633 116.279 103.633 116.614 103.84 116.822C103.944 116.926 104.078 116.976 104.216 116.976C104.354 116.976 104.487 116.926 104.591 116.822L105.578 115.835L106.507 116.764C106.611 116.868 106.744 116.919 106.882 116.919C107.02 116.919 107.154 116.868 107.258 116.764C107.466 116.556 107.466 116.221 107.258 116.013L106.329 115.084L108.87 112.543L111.125 114.798L108.566 117.356C108.359 117.564 108.359 117.899 108.566 118.107C108.67 118.211 108.804 118.262 108.942 118.262C109.08 118.262 109.213 118.211 109.317 118.107L111.876 115.549L114.385 118.058C113.513 118.559 112.211 118.837 110.238 118.837C109.824 118.837 109.387 118.824 108.927 118.801ZM103.893 112.653L106.435 110.112L108.117 111.794L105.576 114.336L103.893 112.653ZM113.77 112.153L111.871 114.049L109.616 111.794L111.513 109.898L113.77 112.153ZM117.365 85.7289C117.346 86.1425 117.329 86.5392 117.31 86.9613C117.289 87.4662 117.266 87.9944 117.242 88.5119L115.912 87.1819L117.365 85.7289ZM117.719 77.6853L116.415 76.3807L117.834 74.9595C117.798 75.8398 117.76 76.7477 117.719 77.6853ZM106.492 41.7031C109.759 41.7031 112.991 42.7065 114.729 44.2571C118.415 47.5492 118.848 50.1965 117.896 73.4577C117.864 73.4789 117.821 73.4725 117.794 73.5001L115.664 75.6298L115.323 75.2883C115.113 75.0783 114.777 75.0825 114.572 75.2883C114.364 75.4962 114.364 75.8313 114.572 76.0392L114.913 76.3807L114.001 77.2928C113.793 77.5007 113.793 77.8359 114.001 78.0437C114.105 78.1477 114.239 78.1986 114.376 78.1986C114.514 78.1986 114.648 78.1477 114.752 78.0437L115.664 77.1316L117.656 79.1234C117.579 80.8883 117.497 82.7486 117.41 84.7171C117.263 84.6471 117.117 84.6471 116.971 84.7171C116.954 84.6916 116.96 84.6577 116.937 84.6343L114.623 82.3201L117.147 79.798C117.355 79.5901 117.355 79.255 117.147 79.0471C116.939 78.8413 116.604 78.8371 116.396 79.0471L113.872 81.5692L113.318 81.0156C113.11 80.8077 112.775 80.8077 112.567 81.0156C112.359 81.2234 112.359 81.5586 112.567 81.7665L113.121 82.3201L112.853 82.5874C112.646 82.7953 112.646 83.1304 112.853 83.3383C112.957 83.4422 113.091 83.4931 113.229 83.4931C113.363 83.4931 113.5 83.4422 113.604 83.3383L113.872 83.071L116.186 85.3853C116.19 85.3895 116.199 85.3874 116.203 85.3916L115.151 86.4437C114.943 86.2571 114.627 86.2528 114.425 86.4544C114.224 86.6559 114.228 86.9719 114.415 87.1798L111.992 89.6022C111.784 89.8101 111.784 90.1453 111.992 90.3531C112.096 90.4571 112.23 90.508 112.368 90.508C112.506 90.508 112.639 90.4571 112.743 90.3531L115.157 87.9392L116.86 89.6425C116.949 89.7316 117.066 89.7634 117.181 89.7762C116.879 96.6107 116.532 104.546 116.16 113.786C116.101 115.275 115.946 116.508 115.197 117.386L112.616 114.804L114.514 112.906L114.661 113.052C114.765 113.156 114.898 113.207 115.036 113.207C115.174 113.207 115.308 113.156 115.412 113.052C115.619 112.844 115.619 112.509 115.412 112.301L115.265 112.155L116.039 111.381C116.247 111.173 116.247 110.838 116.039 110.63C115.832 110.422 115.496 110.422 115.289 110.63L114.514 111.404L112.2 109.09C112.27 108.901 112.268 108.693 112.115 108.543C111.963 108.392 111.757 108.39 111.568 108.458L108.306 105.195C108.098 104.987 107.763 104.987 107.555 105.195C107.347 105.403 107.347 105.738 107.555 105.946L110.758 109.149L108.861 111.046L107.179 109.363L108.535 108.008C108.743 107.8 108.743 107.465 108.535 107.257C108.327 107.049 107.992 107.049 107.784 107.257L106.428 108.613L105.158 107.342C104.95 107.134 104.615 107.134 104.407 107.342C104.199 107.55 104.199 107.885 104.407 108.093L105.677 109.363L103.136 111.905L101.437 110.206C101.229 109.998 100.894 109.998 100.686 110.206C100.478 110.413 100.478 110.749 100.686 110.956L102.385 112.656L100.2 114.84L98.2871 112.927C98.0792 112.719 97.744 112.719 97.5362 112.927C97.3283 113.135 97.3283 113.47 97.5362 113.678L99.4495 115.591L98.688 116.353C96.3568 114.666 95.4956 111.949 95.4256 107.586C95.3556 103.299 94.8974 93.5434 94.4095 83.2153C93.8113 70.4668 93.1304 56.0171 93.3149 53.8131C94.2653 42.575 103.639 41.7031 106.492 41.7031Z" fill="white"/>
<path d="M81.6849 66.7355C75.7434 63.1061 58.2964 63.2249 56.9112 74.5225C56.7225 76.0604 57.2188 83.5737 57.9952 94.8607C58.4809 101.933 58.9391 108.61 59.0091 111.516C59.2212 120.368 67.354 120.667 74.5258 120.932C75.0179 120.949 75.4846 120.96 75.9237 120.96C81.5024 120.96 83.7615 119.516 83.98 115.81L86.1903 78.3428C86.3664 75.354 86.6952 69.7943 81.6849 66.7355ZM61.1282 111.466C61.0582 108.513 60.5979 101.812 60.11 94.7164C59.5161 86.0513 58.8394 76.2322 59.0155 74.7813C60.1482 65.5179 75.7794 65.6155 80.5776 68.5492C82.8982 69.9661 83.7615 72.0301 84.0309 74.2976L82.6564 75.6722L82.3149 75.3307C82.107 75.1228 81.7718 75.1228 81.564 75.3307C81.3561 75.5386 81.3561 75.8737 81.564 76.0816L81.9055 76.4231L80.9934 77.3352C80.7855 77.5431 80.7855 77.8782 80.9934 78.0861C81.0973 78.1901 81.2309 78.241 81.3688 78.241C81.5067 78.241 81.6403 78.1901 81.7443 78.0861L82.6564 77.174L84.0521 78.5698L84.0246 79.0428C83.8231 78.924 83.5685 78.9155 83.3903 79.0916L80.8682 81.6137L80.3125 81.0579C80.1046 80.8501 79.7694 80.8501 79.5615 81.0579C79.3537 81.2658 79.3537 81.601 79.5615 81.8089L80.1173 82.3646L79.8479 82.634C79.64 82.8419 79.64 83.177 79.8479 83.3849C79.9518 83.4889 80.0855 83.5398 80.2234 83.5398C80.357 83.5398 80.4949 83.4889 80.5988 83.3849L80.8682 83.1155L83.1846 85.4319C83.1888 85.4361 83.1952 85.434 83.1994 85.4382L82.1494 86.4882C81.9415 86.3016 81.6234 86.2952 81.424 86.4989C81.2246 86.6982 81.2267 87.0164 81.4134 87.2243L78.9909 89.6467C78.7831 89.8546 78.7831 90.1898 78.9909 90.3976C79.0949 90.5016 79.2285 90.5525 79.3664 90.5525C79.5043 90.5525 79.6379 90.5016 79.7418 90.3976L82.1558 87.9816L83.4221 89.2501L83.2037 92.9537C83.1612 92.977 83.1082 92.9728 83.0721 93.0089L81.1546 94.9264L79.7418 93.5116C79.534 93.3037 79.1988 93.3037 78.9909 93.5116C78.7831 93.7195 78.7831 94.0546 78.9909 94.2625L80.4037 95.6752L78.1318 97.947C77.924 98.1549 77.924 98.4901 78.1318 98.6979C78.2358 98.8019 78.3694 98.8528 78.5073 98.8528C78.6452 98.8528 78.7788 98.8019 78.8828 98.6979L81.1546 96.4261L82.5546 97.8282C82.6521 97.9258 82.7794 97.9682 82.9088 97.9746L82.7667 100.365C82.6055 100.34 82.44 100.365 82.3149 100.488L81.1524 101.651L78.3079 98.8061C78.1 98.5982 77.7649 98.5982 77.557 98.8061C77.3491 99.014 77.3491 99.3492 77.557 99.557L80.4015 102.402L77.557 105.246C77.3491 105.454 77.3491 105.789 77.557 105.997C77.6609 106.101 77.7946 106.152 77.9325 106.152C78.0703 106.152 78.204 106.101 78.3079 105.997L81.1524 103.152L82.5206 104.521L82.1494 110.814L81.5109 111.453L79.1967 109.139C79.2646 108.95 79.2625 108.744 79.1118 108.591C78.9612 108.439 78.7534 108.439 78.5646 108.506L75.3021 105.244C75.0943 105.036 74.7591 105.036 74.5512 105.244C74.3434 105.452 74.3434 105.787 74.5512 105.995L77.7543 109.198L75.8558 111.094L74.1737 109.412L75.5291 108.057C75.737 107.849 75.737 107.514 75.5291 107.306C75.3212 107.098 74.9861 107.098 74.7782 107.306L73.4228 108.661L72.1521 107.391C71.9443 107.183 71.6091 107.183 71.4012 107.391C71.1934 107.599 71.1934 107.934 71.4012 108.142L72.6718 109.412L70.1306 111.953L68.4315 110.254C68.2237 110.046 67.8885 110.046 67.6806 110.254C67.4728 110.462 67.4728 110.797 67.6806 111.005L69.3797 112.704L67.1949 114.887L65.2794 112.974C65.0694 112.764 64.7343 112.768 64.5285 112.974C64.3206 113.182 64.3206 113.517 64.5285 113.725L66.444 115.638L65.2434 116.839C65.0355 117.046 65.0355 117.382 65.2434 117.589C65.29 117.636 65.3579 117.634 65.4152 117.662C62.7361 116.696 61.2109 114.927 61.1282 111.466ZM84.12 77.1316L83.4073 76.4189L84.1285 75.6976C84.1412 76.1707 84.137 76.6501 84.12 77.1316ZM79.6146 114.838L81.5109 112.94L81.6594 113.088C81.7549 113.184 81.88 113.226 82.0073 113.232L81.8631 115.685C81.8397 116.094 81.8058 116.506 81.6679 116.894L79.6146 114.838ZM80.7621 112.191L78.8658 114.089L76.6109 111.835L78.5094 109.938L80.7621 112.191ZM82.6055 103.091L81.9034 102.389L82.6925 101.6L82.6055 103.091ZM82.9809 96.7401L81.9055 95.6625L83.1167 94.4513L82.9809 96.7401ZM83.7064 84.4434L81.6191 82.3561L83.9673 80.0079L83.7064 84.4434ZM83.5812 86.5455L83.507 87.8225L82.9067 87.2222L83.5812 86.5455ZM75.1112 111.835L72.57 114.376L70.8879 112.694L73.4291 110.152L75.1112 111.835ZM74.6043 118.809C70.9282 118.673 67.8949 118.468 65.64 117.725C65.7737 117.723 65.9031 117.674 66.0049 117.575L67.2055 116.374L67.6191 116.788C67.7231 116.892 67.8588 116.942 67.9946 116.942C68.1303 116.942 68.2661 116.892 68.37 116.788C68.5779 116.58 68.5779 116.245 68.37 116.037L67.9564 115.623L70.1391 113.44L71.8212 115.122L70.837 116.107C70.6291 116.315 70.6291 116.65 70.837 116.858C70.9409 116.962 71.0746 117.012 71.2124 117.012C71.3461 117.012 71.484 116.962 71.5879 116.858L72.5722 115.873L73.5012 116.802C73.6052 116.906 73.7388 116.957 73.8767 116.957C74.0146 116.957 74.1482 116.906 74.2521 116.802C74.46 116.595 74.46 116.259 74.2521 116.052L73.3231 115.122L75.8643 112.581L78.1191 114.836L75.5609 117.394C75.3531 117.602 75.3531 117.937 75.5609 118.145C75.6649 118.249 75.7985 118.3 75.9364 118.3C76.0743 118.3 76.2079 118.249 76.3118 118.145L78.87 115.587L81.057 117.774C80.2043 118.497 78.4246 118.958 74.6043 118.809Z" fill="white"/>
<path d="M35.154 85.0268C27.8188 85.6059 23.7461 87.725 23.044 91.3204C22.8467 92.3407 23.2412 96.2353 24.1215 104.268C25.6721 118.463 23.1394 120.578 40.6628 120.988C41.2397 121 41.8018 121.051 42.3385 121.051H42.3576C44.9582 121.051 49.7649 121 50.1021 117.439C50.5243 112.948 50.9124 109.153 51.2391 105.974C52.8597 90.2577 53.0655 88.2298 47.6331 86.1447C44.0673 84.7765 38.9467 84.7192 35.154 85.0268ZM42.3385 118.843C41.8167 118.843 41.2737 118.835 40.7115 118.822C35.8943 118.712 31.9488 118.51 29.6006 117.513L30.3197 116.794L30.4597 116.934C30.5637 117.038 30.6973 117.089 30.8352 117.089C30.9731 117.089 31.1067 117.038 31.2106 116.934C31.4185 116.726 31.4185 116.391 31.2106 116.183L31.0706 116.043L32.3349 114.779L34.8824 117.326C34.9864 117.43 35.12 117.481 35.2579 117.481C35.3958 117.481 35.5294 117.43 35.6334 117.326C35.8412 117.119 35.8412 116.783 35.6334 116.576L35.4149 116.357L37.6846 114.087L40.2067 116.61L39.1355 117.681C38.9276 117.889 38.9276 118.224 39.1355 118.432C39.2394 118.536 39.3731 118.586 39.5109 118.586C39.6488 118.586 39.7824 118.536 39.8864 118.432L40.9576 117.36L41.1888 117.592C41.2927 117.696 41.4264 117.746 41.5643 117.746C41.7021 117.746 41.8358 117.696 41.9397 117.592C42.1476 117.384 42.1476 117.049 41.9397 116.841L41.7085 116.61L43.4755 114.843L46.5088 117.876C46.6128 117.98 46.7464 118.031 46.8843 118.031C47.0221 118.031 47.1558 117.98 47.2597 117.876C47.4676 117.668 47.4676 117.333 47.2597 117.125L44.2264 114.092L46.8376 111.48C47.0221 111.296 47.0158 111.018 46.8715 110.812L48.034 111.975C48.1379 112.079 48.2715 112.13 48.4094 112.13C48.437 112.13 48.4603 112.102 48.4879 112.098C48.3288 113.695 48.1655 115.371 47.9937 117.197C47.8812 118.351 46.1906 118.843 42.3385 118.843ZM48.5897 111.033L45.1682 107.611L48.1952 104.584L48.5134 104.903C48.6173 105.006 48.7509 105.057 48.8888 105.057C49.0076 105.057 49.12 105 49.2155 104.922C49.1879 105.2 49.1624 105.446 49.1328 105.734C48.9652 107.342 48.7827 109.105 48.5897 111.033ZM49.7712 99.2389C49.6418 100.675 49.4785 102.325 49.2855 104.211C49.2706 104.194 49.277 104.169 49.26 104.152L46.4876 101.379L49.1985 98.6683L49.7712 99.2389ZM50.0915 92.0289C49.9961 92.0501 49.8964 92.0671 49.8221 92.1413L49.1985 92.765L48.0637 91.6301C47.8537 91.4223 47.5185 91.4223 47.3128 91.6301C47.1049 91.838 47.1049 92.1732 47.3128 92.381L48.4476 93.5159L46.8079 95.1556C46.6 95.3635 46.6 95.6986 46.8079 95.9065C46.9118 96.0104 47.0455 96.0613 47.1834 96.0613C47.3212 96.0613 47.4549 96.0104 47.5588 95.9065L49.1985 94.2668L49.2176 94.2859C49.3215 94.3898 49.4573 94.4407 49.5931 94.4407C49.7288 94.4407 49.8646 94.3898 49.9685 94.2859C50.1764 94.078 50.1764 93.7429 49.9685 93.535L49.9494 93.5159L50.1361 93.3292C50.134 94.218 50.0852 95.2935 49.9918 96.5938C49.8603 96.5959 49.7288 96.6447 49.627 96.7444L49.1985 97.1729L48.8188 96.7932C48.6109 96.5853 48.2758 96.5853 48.0679 96.7932C47.86 97.001 47.86 97.3362 48.0679 97.5441L48.4476 97.9238L45.4249 100.947C45.217 101.154 45.217 101.49 45.4249 101.697C45.4312 101.704 45.444 101.702 45.4503 101.708C45.4737 101.793 45.4843 101.884 45.55 101.95L47.44 103.84L44.3621 106.918C44.167 106.833 43.9464 106.831 43.7873 106.99C43.6282 107.149 43.6303 107.372 43.7152 107.565L42.7797 108.5C42.5718 108.708 42.5718 109.043 42.7797 109.251C42.8837 109.355 43.0173 109.406 43.1552 109.406C43.2931 109.406 43.4267 109.355 43.5306 109.251L44.4152 108.367L46.7528 110.704C46.5449 110.56 46.2691 110.553 46.0846 110.738L43.4734 113.349L42.2749 112.151C42.067 111.943 41.7318 111.943 41.524 112.151C41.3161 112.359 41.3161 112.694 41.524 112.902L42.7224 114.1L40.9555 115.867L38.4334 113.345L41.5261 110.252C41.734 110.044 41.734 109.709 41.5261 109.501C41.3182 109.293 40.9831 109.293 40.7752 109.501L37.6824 112.594L36.9867 111.898C36.7788 111.69 36.4437 111.69 36.2358 111.898C36.0279 112.106 36.0279 112.441 36.2358 112.649L36.9315 113.345L34.6618 115.615L33.0837 114.036L36.7873 110.333C36.9952 110.125 36.9952 109.79 36.7873 109.582C36.5794 109.374 36.2443 109.374 36.0364 109.582L32.3327 113.286L30.8203 111.767C30.6124 111.559 30.2773 111.559 30.0694 111.767C29.8615 111.975 29.8615 112.31 30.0694 112.518L31.5818 114.03L30.3176 115.294L29.0555 114.032C28.8476 113.824 28.5124 113.824 28.3046 114.032C27.7531 114.584 28.9727 115.449 29.5667 116.043L28.6291 116.981C26.86 115.763 27.5091 115.693 26.2258 104.033C25.6997 99.2177 24.9764 92.6229 25.1249 91.7235C25.6127 89.212 29.1382 87.6274 35.3194 87.1374C38.7918 86.8616 43.6494 86.8786 46.8715 88.1132C48.9143 88.898 49.8858 89.2926 50.0915 92.0289Z" fill="white"/>
<path d="M125.781 124.511C125.289 124.316 124.137 123.855 105.39 123.855C75.5977 123.855 23.6598 124.99 19.2392 125.332C17.0014 125.502 14.6532 125.775 12.6783 127.016C10.6441 128.295 8.9959 131.163 9.94197 133.762C11.7811 138.795 17.1965 138.082 52.7565 137.781C68.2477 137.652 89.4641 137.423 118.907 137.423C133.025 137.37 132.476 127.184 125.781 124.511ZM125.064 134.442C122.254 135.626 125.675 135.058 52.7374 135.662C22.2408 135.921 13.2595 136.67 11.9338 133.038C11.3886 131.538 12.4577 129.712 13.8089 128.864C15.3723 127.879 17.3471 127.631 19.4004 127.472C23.802 127.135 75.6338 125.989 105.39 125.989C121.723 125.989 124.549 126.339 124.994 126.488C129.235 128.179 129.247 132.678 125.064 134.442Z" fill="white"/>
<path d="M110.566 105.946C110.67 106.05 110.804 106.101 110.942 106.101C111.079 106.101 111.213 106.05 111.317 105.946L114.162 103.102L115.547 104.487C115.651 104.591 115.784 104.642 115.922 104.642C116.056 104.642 116.194 104.591 116.298 104.487C116.505 104.279 116.505 103.944 116.298 103.736L114.912 102.351L116.075 101.189C116.283 100.981 116.283 100.646 116.075 100.438C115.867 100.23 115.532 100.23 115.324 100.438L114.162 101.6L111.317 98.7555C111.111 98.5498 110.776 98.5455 110.566 98.7555C110.358 98.9634 110.358 99.2986 110.566 99.5064L113.411 102.351L110.566 105.196C110.358 105.403 110.358 105.739 110.566 105.946Z" fill="white"/>
<path d="M111.512 98.8042C111.648 98.8042 111.783 98.7533 111.887 98.6494L114.161 96.3775L115.561 97.7775C115.665 97.8815 115.799 97.9324 115.937 97.9324C116.07 97.9324 116.208 97.8815 116.312 97.7775C116.52 97.5697 116.52 97.2345 116.312 97.0266L114.912 95.6266L116.83 93.7091C117.038 93.5012 117.038 93.166 116.83 92.9582C116.622 92.7503 116.287 92.7503 116.079 92.9582L114.161 94.8757L112.748 93.4609C112.543 93.2551 112.208 93.2509 111.998 93.4609C111.79 93.6688 111.79 94.0039 111.998 94.2118L113.41 95.6266L111.136 97.9006C110.928 98.1085 110.928 98.4436 111.136 98.6515C111.24 98.7512 111.376 98.8042 111.512 98.8042Z" fill="white"/>
<path d="M97.8055 76.332C97.8245 76.612 98.0558 76.506 98.3336 76.506H98.3697C98.6624 76.506 98.883 76.5548 98.8618 76.2642L97.6506 58.1257C97.343 53.4908 97.9433 50.7778 99.5873 49.1487C101.312 47.4432 104.428 46.8642 109.358 47.2481C109.705 47.3011 109.905 47.072 109.928 46.7814C109.952 46.4887 109.733 46.2448 109.442 46.2214C104.097 45.8099 100.826 46.5078 98.8427 48.4699C96.9591 50.3345 96.2655 53.2235 96.5942 58.1914L97.8055 76.332Z" fill="white"/>
</g>
</svg>
