<svg width="170" height="170" viewBox="0 0 170 170" fill="none" xmlns="http://www.w3.org/2000/svg">
<circle cx="85" cy="85" r="85" fill="#6152D9"/>
<path d="M71.6953 146.152L72.0989 148.378L76.2631 148.984L77.2844 146.966L79.9444 147.353L74.4062 157.186L71.1762 156.716L68.6712 145.712L71.6953 146.152ZM75.4896 150.52L72.4022 150.071L73.2742 154.854L73.3059 154.859L75.4896 150.52Z" fill="white"/>
<path d="M65.3341 144.341L64.6169 155.285L61.9259 154.305L62.6863 146.749L62.6412 146.732L58.3179 152.99L55.8674 152.098L56.5977 144.531L56.5526 144.514L52.3346 150.811L49.8991 149.923L56.4042 141.088L59.1553 142.091L58.4691 149.163L58.5142 149.179L62.6281 143.356L65.3341 144.341Z" fill="white"/>
<path d="M48.2587 135.907L47.7758 138.116L51.3869 140.277L53.1055 138.807L55.4122 140.187L46.5194 147.135L43.7185 145.459L45.6362 134.338L48.2587 135.907ZM50.0821 141.398L47.4047 139.796L46.3707 144.547L46.3982 144.564L50.0821 141.398Z" fill="white"/>
<path d="M46.6202 134.473L39.9674 142.633L36.1604 139.529C34.0027 137.77 33.565 135.926 34.8188 134.389C35.668 133.347 36.6503 133.054 37.6012 133.458L37.6214 133.433C36.967 132.59 37.1331 131.652 37.8813 130.734L39.5395 128.7L41.5732 130.358L39.9656 132.33C39.3589 133.074 39.3689 133.619 40.1377 134.246L42.1094 135.853L44.5865 132.815L46.6202 134.473ZM41.1085 137.081L39.2484 135.564C38.3927 134.867 37.6453 134.897 37.0285 135.654C36.4421 136.373 36.5347 137.171 37.4771 137.939L39.238 139.375L41.1085 137.081Z" fill="white"/>
<path d="M40.4808 129.192L32.6492 136.228L29.8155 133.074C27.57 130.574 27.513 127.829 30.0839 125.52C32.6666 123.199 35.3268 123.455 37.4226 125.788L40.4808 129.192ZM37.1918 128.619L35.9086 127.191C34.9356 126.108 33.4812 125.973 31.8268 127.46C30.1486 128.967 30.2175 130.433 31.2547 131.587L32.4309 132.896L37.1918 128.619Z" fill="white"/>
<path d="M28.7473 112.962L20.3674 120.037L19.2068 117.418L25.1768 112.724L25.1573 112.681L17.6507 113.908L16.5938 111.524L22.5508 106.8L22.5314 106.756L15.0701 108.086L14.0197 105.716L24.8959 104.273L26.0825 106.95L20.5124 111.362L20.5318 111.406L27.5802 110.329L28.7473 112.962Z" fill="white"/>
<path d="M24.1382 100.573L13.9056 103.049L13.2884 100.499L23.5211 98.0225L24.1382 100.573Z" fill="white"/>
<path d="M22.7184 93.9689L12.2405 94.9944L11.8727 91.2363L18.509 86.4391L18.5075 86.4232L11.4769 87.1917L11.2369 84.7394L21.7148 83.7139L22.0171 86.8032L14.3619 92.3592L14.3635 92.3751L22.4784 91.5167L22.7184 93.9689Z" fill="white"/>
<path d="M22.0493 83.3473L11.5487 82.587L11.8214 78.8209L19.1731 75.2144L19.1742 75.1984L12.1149 74.7675L12.2928 72.3099L22.7934 73.0702L22.5692 76.1661L14.085 80.3483L14.0839 80.3643L22.2272 80.8897L22.0493 83.3473Z" fill="white"/>
<path d="M23.2039 72.7598L12.9705 70.2868L14.7219 63.0394L16.7281 63.5242L15.5931 68.221L17.8949 68.7773L18.7743 65.138L20.3295 65.5139L19.4501 69.1531L21.814 69.7244L22.9829 64.8876L24.9891 65.3724L23.2039 72.7598Z" fill="white"/>
<path d="M25.9381 63.0999L16.1689 59.1756L17.9998 54.6176C19.0376 52.0343 20.6672 51.0681 22.5082 51.8076C23.7553 52.3086 24.3275 53.1591 24.225 54.187L24.2547 54.1989C24.865 53.3233 25.81 53.2029 26.9087 53.6442L29.3436 54.6223L28.3655 57.0572L26.0048 56.109C25.114 55.7511 24.5968 55.9227 24.227 56.8432L23.2788 59.2039L26.9162 60.665L25.9381 63.0999ZM21.8089 58.6134L22.7035 56.3864C23.115 55.3619 22.8635 54.6574 21.9578 54.2936C21.0967 53.9477 20.3624 54.2735 19.9091 55.4018L19.0622 57.5101L21.8089 58.6134Z" fill="white"/>
<path d="M32.3285 50.3216C30.268 48.8296 29.7572 48.1436 30.297 45.2158C30.7112 43.0069 30.5731 42.2155 29.7955 41.6525C29.0439 41.1082 28.2842 41.2298 27.7306 41.9944C27.1019 42.8626 27.2542 43.7434 28.291 44.4941C28.4335 44.5973 28.6798 44.7756 29.0319 44.9714L27.6994 46.8116C27.4862 46.6967 27.1435 46.488 26.8065 46.2441C25.0052 44.9397 24.4636 42.9869 26.1058 40.719C27.6166 38.6326 29.5864 38.3403 31.1155 39.4476C32.4763 40.4329 32.8472 41.7485 32.2824 44.52C31.9249 46.2958 32.0666 46.5367 32.3776 46.7619L35.5494 42.3817L37.2082 43.5828L32.3285 50.3216Z" fill="white"/>
<path d="M41.5202 39.5763C39.3568 41.7347 36.8572 41.1322 34.5519 38.8215C32.1901 36.4541 31.8083 33.9873 33.8811 31.9193C35.9653 29.84 38.4426 30.2163 40.8044 32.5836C43.1096 34.8943 43.7063 37.3954 41.5202 39.5763ZM40.0625 38.1152C40.98 37.1998 40.5289 35.9095 39.0147 34.3917C37.4891 32.8626 36.2111 32.5104 35.3389 33.3805C34.478 34.2393 34.8386 35.5069 36.3642 37.036C37.8784 38.5538 39.1563 39.0192 40.0625 38.1152Z" fill="white"/>
<path d="M45.7997 35.5827C44.3125 33.5187 44.0432 32.707 45.4757 30.0971C46.5631 28.1303 46.6807 27.3356 46.1195 26.5567C45.577 25.8038 44.8176 25.6805 44.0518 26.2324C43.182 26.859 43.0499 27.7431 43.7982 28.7816C43.9011 28.9244 44.0788 29.171 44.3516 29.4675L42.5082 30.7957C42.342 30.6197 42.0822 30.3139 41.839 29.9763C40.5388 28.172 40.6383 26.1479 42.9101 24.511C45 23.0051 46.9619 23.3467 48.0656 24.8784C49.0477 26.2415 48.9864 27.6069 47.5792 30.0605C46.6818 31.634 46.7406 31.9072 46.965 32.2187L51.3527 29.0572L52.5499 30.7188L45.7997 35.5827Z" fill="white"/>
<path d="M54.1202 30.0056C52.9805 27.7312 52.8438 26.887 54.6734 24.5384C56.06 22.7697 56.3026 22.0039 55.8725 21.1456C55.4568 20.316 54.7267 20.0733 53.8827 20.4963C52.9243 20.9765 52.6532 21.8283 53.2266 22.9726C53.3055 23.13 53.4417 23.4018 53.6638 23.7379L51.6326 24.7558C51.4965 24.5555 51.2886 24.2122 51.1023 23.8403C50.1059 21.852 50.5263 19.8696 53.0296 18.6152C55.3326 17.4611 57.215 18.1105 58.0609 19.7985C58.8135 21.3004 58.5357 22.6387 56.7559 24.837C55.6195 26.2477 55.634 26.5267 55.8061 26.87L60.641 24.4472L61.5585 26.2781L54.1202 30.0056Z" fill="white"/>
<path d="M63.6144 25.7447L62.8375 23.474L65.078 22.7074L65.8549 24.9781L63.6144 25.7447Z" fill="white"/>
<path d="M78.5736 22.3776L77.7715 13.9517L74.7929 14.2352L74.5974 12.1805L83.1507 11.3663L83.3463 13.421L80.3837 13.703L81.1858 22.1289L78.5736 22.3776Z" fill="white"/>
<path d="M91.3992 22.5414C88.223 22.3189 85.907 20.1197 86.1474 16.6881C86.3833 13.3203 88.981 11.4974 92.1572 11.7199C95.3334 11.9423 97.6517 14.1096 97.4158 17.4774C97.1754 20.909 94.5755 22.7638 91.3992 22.5414ZM91.5435 20.4824C93.2034 20.5987 94.5526 19.4261 94.7013 17.3033C94.8478 15.2124 93.6729 13.8951 92.013 13.7788C90.3531 13.6626 89.0061 14.8032 88.8596 16.8941C88.7109 19.0169 89.8835 20.3661 91.5435 20.4824Z" fill="white"/>
<path d="M96.5944 23.0975L99.1456 12.8832L103.539 13.9805C106.147 14.6318 107.408 16.2497 106.792 18.7179C106.226 20.9843 104.619 22.0014 101.949 21.3345L99.8691 20.815L99.1402 23.7333L96.5944 23.0975ZM100.296 19.1074L102.267 19.5998C103.338 19.8673 104.071 19.4403 104.37 18.245C104.661 17.0808 104.172 16.266 102.961 15.9636L101.191 15.5216L100.296 19.1074Z" fill="white"/>
<path d="M113.155 28.8088L118.289 19.618L120.58 20.8978L116.452 28.2868L120.642 30.6279L119.636 32.4298L113.155 28.8088Z" fill="white"/>
<path d="M121.187 33.656L127.678 25.367L133.548 29.964L132.275 31.589L128.471 28.6099L127.011 30.4742L129.959 32.7826L128.972 34.0423L126.024 31.734L124.525 33.6487L128.443 36.7166L127.17 38.3417L121.187 33.656Z" fill="white"/>
<path d="M131.264 42.7092L136.275 32.6231L138.307 34.8192L134.207 42.4498L134.228 42.4733L142.11 38.9296L143.936 40.9026L133.481 45.105L131.264 42.7092Z" fill="white"/>
<path d="M135.393 47.686L144.16 41.8569L148.288 48.0658L146.57 49.2086L143.894 45.1848L141.922 46.4959L143.995 49.6137L142.663 50.4995L140.59 47.3818L138.565 48.7283L141.32 52.872L139.601 54.0148L135.393 47.686Z" fill="white"/>
<path d="M140.618 56.2781L150.089 51.6807L151.235 54.0413L143.621 57.7374L145.717 62.0556L143.86 62.9569L140.618 56.2781Z" fill="white"/>
<path d="M146.322 73.6817C145.654 70.5032 147.153 67.8338 150.473 67.1362C153.824 66.432 156.27 68.2721 156.938 71.4507C157.531 74.2691 156.342 76.5463 153.977 77.0432C153.742 77.0926 153.457 77.1362 153.313 77.1501L152.842 74.911C153.018 74.8905 153.175 74.8576 153.253 74.8411C154.646 74.5483 155.238 73.394 154.945 72.0004C154.589 70.3094 153.068 69.3703 151.032 69.798C148.981 70.2291 148.02 71.7228 148.368 73.3825C148.684 74.8857 149.689 75.6227 150.989 75.3496C151.052 75.3364 151.146 75.3167 151.315 75.2648L151.788 77.5196C151.588 77.578 151.416 77.6142 151.291 77.6405C148.926 78.1374 146.918 76.5158 146.322 73.6817Z" fill="white"/>
<path d="M147.319 84.9734C147.217 81.791 149.168 79.2627 152.606 79.1515C155.98 79.0424 158.059 81.4405 158.162 84.6229C158.265 87.8052 156.345 90.3325 152.971 90.4416C149.533 90.5528 147.422 88.1557 147.319 84.9734ZM149.382 84.9067C149.436 86.5698 150.74 87.7923 152.867 87.7235C154.962 87.6558 156.153 86.3527 156.099 84.6895C156.045 83.0264 154.773 81.8029 152.678 81.8706C150.551 81.9394 149.329 83.2435 149.382 84.9067Z" fill="white"/>
<path d="M147.28 90.2058L157.708 91.649L157.191 95.3894L149.62 98.5089L149.618 98.5248L156.634 99.415L156.296 101.856L145.867 100.413L146.293 97.3378L155.032 93.7176L155.034 93.7017L146.942 92.6465L147.28 90.2058Z" fill="white"/>
<path d="M143.986 104.873C145.028 101.41 147.067 101.021 148.921 101.579L148.247 103.816C147.16 103.489 146.321 103.721 145.814 105.406C145.302 107.107 145.799 107.675 146.443 107.868C146.872 107.997 147.203 107.896 147.461 107.54C147.748 107.141 148.215 106.146 148.591 105.34C149.044 104.39 149.547 103.439 150.106 102.972C150.713 102.453 151.519 102.328 152.484 102.619C154.384 103.19 155.254 105.073 154.378 107.984C153.414 111.186 151.768 111.827 149.5 111.144L150.169 108.923C151.318 109.269 152.126 108.86 152.541 107.481C152.952 106.118 152.621 105.383 151.947 105.181C151.457 105.033 151.14 105.088 150.88 105.394C150.597 105.726 150.11 106.733 149.714 107.549C149.189 108.628 148.746 109.43 148.245 109.931C147.645 110.536 146.81 110.702 145.86 110.416C144.144 109.9 142.902 108.473 143.986 104.873Z" fill="white"/>
<path d="M140.426 113.238C141.699 110.584 143.922 109.538 146.346 110.701L152.16 113.489L151.025 115.855L145.297 113.108C143.999 112.486 142.928 113.054 142.326 114.309C141.724 115.564 141.951 116.756 143.249 117.379L148.977 120.125L147.973 122.217L142.159 119.429C139.736 118.266 139.153 115.893 140.426 113.238Z" fill="white"/>
<path d="M137.618 118.433L146.384 124.265L144.93 126.45L137.883 121.761L135.224 125.758L133.506 124.614L137.618 118.433Z" fill="white"/>
<path d="M131.966 125.968L138.402 131.465L140.345 129.19L141.914 130.531L136.334 137.064L134.764 135.723L136.697 133.46L130.262 127.963L131.966 125.968Z" fill="white"/>
<path d="M122.237 135.22L124.191 136.359L127.358 133.587L126.487 131.5L128.51 129.73L132.386 140.328L129.93 142.478L119.938 137.233L122.237 135.22ZM128.023 135.174L125.675 137.229L129.878 139.674L129.902 139.653L128.023 135.174Z" fill="white"/>
<path d="M120.427 136.362L125.967 145.315L122.756 147.302L115.524 143.46L115.511 143.469L119.3 149.44L117.205 150.737L111.665 141.784L114.304 140.151L122.666 144.572L122.68 144.564L118.331 137.659L120.427 136.362Z" fill="white"/>
<path d="M106.195 143.519C109.194 142.271 112.096 143.247 113.399 146.379C114.714 149.54 113.361 152.287 110.363 153.534C107.704 154.641 105.245 153.896 104.317 151.666C104.225 151.444 104.129 151.172 104.088 151.033L106.201 150.154C106.253 150.323 106.315 150.47 106.346 150.544C106.893 151.859 108.137 152.225 109.452 151.678C111.047 151.014 111.687 149.344 110.887 147.424C110.082 145.489 108.436 144.822 106.87 145.474C105.452 146.064 104.915 147.188 105.425 148.415C105.449 148.474 105.486 148.562 105.569 148.719L103.441 149.604C103.347 149.418 103.279 149.255 103.23 149.137C102.302 146.907 103.521 144.631 106.195 143.519Z" fill="white"/>
<path d="M98.7915 145.814L99.7478 149.731L105.314 155.059L102.035 155.86L98.8097 152.365L98.7631 152.376L97.5426 156.957L94.6981 157.651L97.1987 150.354L96.2424 146.437L98.7915 145.814Z" fill="white"/>
<path d="M92.2404 146.957L92.491 149.344L90.1359 149.591L89.8854 147.204L92.2404 146.957Z" fill="white"/>
<circle opacity="0.5" cx="85" cy="85" r="51" stroke="white" stroke-width="1.5" stroke-linecap="round" stroke-dasharray="4 5"/>
</svg>
