<svg width="123" height="123" viewBox="0 0 123 123" fill="none" xmlns="http://www.w3.org/2000/svg">
<g opacity="0.2" clip-path="url(#clip0_2801_3312)">
<path d="M24.6563 59.3988C30.6054 60.5969 36.586 60.1034 42.585 58.4959L42.5879 58.4952C57.6359 54.4631 69.0963 42.6677 70.5841 29.2591C72.2373 29.1298 73.4598 28.7866 74.1835 27.9339C77.3582 24.1342 69.5991 14.1852 69.5225 14.0865C64.2482 7.38699 60.0954 11.1836 54.5504 15.9195C50.812 19.1141 49.2013 20.1339 48.336 22.1148C46.4521 26.505 50.5661 27.9611 55.2787 28.6481C52.4736 42.6026 39.1021 56.5853 24.7999 58.1902C24.4253 58.2325 24.1046 58.3937 24.0885 58.7667C24.0723 59.1396 24.2908 59.3227 24.6563 59.3988ZM41.1904 56.8446L41.8562 57.2277L41.5312 57.7885C41.2823 57.849 41.0325 57.9002 40.7824 57.9562L40.324 57.6916L41.0333 56.4631C41.0127 56.6145 41.0531 56.7653 41.1904 56.8446ZM46.6437 55.1151C46.6699 55.1426 46.6761 55.1833 46.7114 55.2037L47.6875 55.7672C47.3634 55.9042 47.0258 56.0198 46.6979 56.1484C46.6892 56.0284 46.6428 55.9138 46.5311 55.848L46.2991 55.7141L46.6437 55.1151ZM49.7234 54.075L50.4137 54.4736C49.9962 54.689 49.5658 54.8859 49.1384 55.0882L49.7234 54.075ZM51.2437 51.4418C51.2699 51.4693 51.2761 51.51 51.3113 51.5304L52.1705 52.0264L51.712 52.8206C51.607 53.0025 51.6689 53.2337 51.8508 53.3387C51.9417 53.3912 52.0433 53.4016 52.1385 53.3761C52.2336 53.3507 52.3164 53.2908 52.3689 53.1999L52.8274 52.4057L53.4097 52.7406C52.6868 53.1979 51.9469 53.633 51.1886 54.0463L50.1031 53.4196L51.2437 51.4418ZM54.3634 49.7432L55.7919 50.5667L55.7029 50.7207C55.6237 50.858 55.6644 51.0102 55.7572 51.1281C55.2247 51.5233 54.6813 51.9074 54.1234 52.278L53.2048 51.7477L54.3634 49.7432ZM59.6833 47.7499L58.6404 47.1478L59.3539 45.9119L60.3968 46.514L59.6833 47.7499ZM59.1496 48.3164C58.4166 49.0053 57.6501 49.6688 56.8529 50.3059L56.827 50.2909L58.2626 47.8043L59.1496 48.3164ZM46.0007 56.4152C45.9551 56.4322 45.9084 56.451 45.8627 56.4679L45.9206 56.3677L46.0007 56.4152ZM61.9329 45.3683L62.774 43.9116L63.0059 44.0455C62.6603 44.4942 62.3027 44.9335 61.9329 45.3683ZM67.6998 33.5456C67.7907 33.5981 67.8924 33.6085 67.9875 33.583C68.0797 33.5583 68.1654 33.4977 68.2179 33.4068C68.3229 33.2249 68.2609 32.9937 68.0791 32.8887L66.6613 32.0702L67.9677 29.8095L68.9958 30.4031C68.6484 32.6953 67.9993 34.9383 67.0808 37.1012L65.7113 36.3105L67.4062 33.3748L67.6998 33.5456ZM66.7828 37.8038C66.4688 38.4934 66.1233 39.1711 65.7557 39.8421L64.1297 38.9021C64.1854 38.87 64.2464 38.8458 64.2806 38.7864L65.3317 36.966L66.7828 37.8038ZM69.9546 28.0631C69.56 28.0715 69.2494 28.3697 69.2157 28.7536C69.1922 29.0344 69.1377 29.311 69.1041 29.5898L68.3466 29.1512L68.4355 28.9972C68.5405 28.8153 68.4786 28.5841 68.2967 28.4791C68.1153 28.3755 67.8832 28.4346 67.7786 28.6179L67.6897 28.7719L67.2555 28.5212L68.9504 25.5855L70.5388 26.5026L70.0064 27.4249C69.9014 27.6068 69.9633 27.838 70.1452 27.943C70.2361 27.9955 70.3377 28.0059 70.4329 27.9804C70.528 27.9549 70.6108 27.8951 70.6633 27.8042L71.1958 26.8819L72.3964 27.5751C71.8129 27.8679 71.0054 28.0388 69.9546 28.0631ZM72.4595 21.9096L71.7729 21.5132L72.0557 21.0233C72.2 21.3219 72.334 21.617 72.4595 21.9096ZM56.9156 28.142C56.988 27.7273 56.7049 27.3263 56.2786 27.2633L55.8527 27.2017C51.7035 26.6037 48.385 25.8569 49.7271 22.7224C50.4628 21.0367 52.2845 19.8678 55.5375 17.0919C61.6299 11.8877 64.2066 9.83103 68.3524 15.0997C69.5315 16.5845 70.7737 18.5042 71.7416 20.3954C71.6238 20.4065 71.5121 20.4521 71.4478 20.5635L71.1168 21.1369L68.7203 19.7508C68.5384 19.6458 68.3072 19.7078 68.2022 19.8896C68.0972 20.0715 68.1592 20.3027 68.341 20.4077L70.7386 21.7919L70.2436 22.6493C70.1386 22.8311 70.2005 23.0624 70.3824 23.1673C70.4733 23.2198 70.5749 23.2303 70.6701 23.2048C70.7652 23.1793 70.848 23.1195 70.9005 23.0285L71.3955 22.1712L72.8021 22.9833C72.828 22.9983 72.8576 22.9857 72.8864 22.9937C73.5251 24.7801 73.7129 26.3125 73.0704 27.0933L71.5762 26.2294L72.2147 25.1234L72.5395 25.3109C72.6304 25.3634 72.732 25.3738 72.8272 25.3483C72.9223 25.3228 73.0051 25.263 73.0576 25.1721C73.1626 24.9902 73.1006 24.759 72.9187 24.654L72.4233 24.3679C72.3907 24.3108 72.3643 24.2473 72.3031 24.2119C72.2418 24.1765 72.1736 24.1854 72.1078 24.1858L70.0202 22.9805C69.8383 22.8755 69.6071 22.9375 69.5021 23.1193C69.3971 23.3012 69.4591 23.5324 69.6409 23.6374L71.5578 24.7441L70.9193 25.8501L69.3308 24.933L69.423 24.7734C69.528 24.5916 69.466 24.3603 69.2841 24.2553C69.1041 24.1514 68.8721 24.2104 68.7661 24.3942L66.5994 28.1449C66.1221 27.8681 65.7725 28.5421 66.1956 28.7864L66.2364 28.81C66.1665 28.9824 66.2155 29.1826 66.381 29.2794C66.4719 29.3319 66.5736 29.3423 66.6687 29.3169C66.7463 29.2961 66.8074 29.2373 66.8599 29.1699L67.3108 29.4303L66.0044 31.6909L65.7558 31.5473C65.5758 31.4434 65.3438 31.5024 65.2377 31.6861C65.1327 31.868 65.1946 32.0992 65.3765 32.2042L65.6252 32.3478L65.5555 32.4684C65.4505 32.6503 65.5125 32.8815 65.6944 32.9865C65.7853 33.039 65.8869 33.0494 65.982 33.0239C66.0742 32.9992 66.1599 32.9386 66.2124 32.8477L66.2821 32.7271L66.7482 32.9974L65.0533 35.9331L64.8993 35.8442C64.7175 35.7392 64.4862 35.8012 64.3812 35.983C64.2762 36.1649 64.3382 36.3961 64.52 36.5011L64.6741 36.59L63.623 38.4104C63.563 38.5144 63.5701 38.6285 63.6123 38.7333C63.5172 38.7588 63.4325 38.8176 63.379 38.9103C63.274 39.0922 63.3359 39.3234 63.5178 39.4284L65.398 40.5152C64.815 41.5184 64.1573 42.4884 63.461 43.4373L63.153 43.2595L64.1825 41.4762C64.2875 41.2943 64.2256 41.0631 64.0437 40.9581C63.8619 40.8531 63.6306 40.915 63.5256 41.0969L62.496 42.8802L61.8633 42.5149C61.6814 42.4099 61.4502 42.4718 61.3452 42.6537C61.2402 42.8355 61.3021 43.0668 61.484 43.1718L62.1168 43.5371L60.7744 45.8623L59.7315 45.2601L59.9854 44.8204C60.0904 44.6385 60.0284 44.4073 59.8466 44.3023C59.6647 44.1973 59.4335 44.2592 59.3285 44.4411L59.0746 44.8809L59.017 44.8477C58.8352 44.7427 58.6039 44.8046 58.4989 44.9865C58.3939 45.1683 58.4559 45.3996 58.6378 45.5046L58.6953 45.5378L57.9818 46.7737L56.8665 46.1298C56.6846 46.0248 56.4534 46.0867 56.3484 46.2686C56.2434 46.4505 56.3054 46.6817 56.4872 46.7867L57.6025 47.4306L56.1668 49.9172L54.7384 49.0937L55.3865 47.971C55.4915 47.7891 55.4296 47.5579 55.2477 47.4529C55.0659 47.3479 54.8346 47.4099 54.7296 47.5917L52.5451 51.3755L51.6859 50.8794C51.6507 50.8591 51.6138 50.8736 51.5754 50.8651L52.0254 50.0857C52.1304 49.9039 52.0684 49.6726 51.8866 49.5676C51.7047 49.4626 51.4735 49.5246 51.3685 49.7064L49.439 53.0485C49.2591 52.9508 49.0333 53.0098 48.9304 53.1879C48.8276 53.3661 48.8894 53.591 49.064 53.698L48.3258 54.9766C48.2765 55.0619 48.2722 55.1572 48.291 55.2447L47.0866 54.5494C47.0514 54.529 47.0127 54.5426 46.9761 54.5351L47.8118 53.0877C47.9168 52.9058 47.8549 52.6746 47.673 52.5696C47.4926 52.4642 47.2614 52.5261 47.1549 52.7084L45.6375 55.3346L44.6517 54.7642C44.4713 54.6588 44.2401 54.7208 44.1336 54.903C44.0286 55.0849 44.0906 55.3161 44.2724 55.4211L45.2582 55.9915L44.7547 56.8699C44.3173 57.0169 43.8685 57.145 43.4223 57.2771C43.4104 57.2677 43.409 57.2509 43.3956 57.2419L42.889 56.9494L44.1929 54.6911C44.2979 54.5092 44.2359 54.278 44.0541 54.173C43.8726 54.0694 43.6406 54.1285 43.536 54.3118L42.2321 56.5701L41.5663 56.187C41.429 56.1077 41.2783 56.1481 41.1589 56.2412L41.6089 55.4619C41.7139 55.28 41.6519 55.0488 41.4701 54.9438C41.2882 54.8388 41.057 54.9007 40.952 55.0826L39.6642 57.3131L39.2559 57.0774C39.0741 56.9724 38.8429 57.0344 38.7379 57.2162C38.6329 57.3981 38.6948 57.6293 38.8767 57.7343L39.2849 57.97L39.0739 58.3356C35.8622 58.9123 32.6431 59.0752 29.4439 58.8203C42.5221 55.1701 54.5528 41.7569 56.9156 28.142Z" fill="white"/>
<path d="M72.8472 46.0218C73.1444 47.6754 76.0296 56.7218 79.085 66.2982C81.3264 73.3226 83.4418 79.9588 84.2778 82.8798C86.3446 90.1251 90.3279 90.6891 97.4295 89.1925C97.7814 89.1186 98.112 89.041 98.4208 88.9583C102.866 87.7673 103.332 85.5451 102.665 82.5771C101.01 75.2327 99.6467 69.0631 98.4974 63.8668C92.8111 38.1376 92.345 36.0351 88.0226 33.8537C82.9376 31.2853 70.7929 34.6258 72.8472 46.0218ZM97.1171 87.7108C94.1463 88.3374 91.9878 88.5126 90.3511 88.1355L90.6468 87.6234L91.0068 87.8312C91.0977 87.8837 91.1993 87.8941 91.2944 87.8686C91.3896 87.8431 91.4724 87.7833 91.5249 87.6924C91.6299 87.5105 91.5679 87.2793 91.386 87.1743L91.026 86.9664L92.1295 85.0551L93.6011 85.9047L93.1029 86.7676C92.9979 86.9494 93.0599 87.1807 93.2417 87.2857C93.3327 87.3382 93.4343 87.3486 93.5294 87.3231C93.6245 87.2976 93.7073 87.2378 93.7598 87.1469L94.258 86.284L95.0708 86.7532C95.1617 86.8057 95.2633 86.8161 95.3585 86.7907C95.4536 86.7652 95.5364 86.7053 95.5889 86.6144C95.6939 86.4326 95.6319 86.2013 95.4501 86.0963L94.6373 85.6271L95.9208 83.404L97.8934 84.5428L96.6013 86.7808C96.4963 86.9626 96.5582 87.1939 96.7401 87.2989C96.831 87.3514 96.9326 87.3618 97.0278 87.3363C97.1229 87.3108 97.2057 87.251 97.2582 87.16L98.5503 84.9221L100.746 86.1895C100.237 86.6961 99.3893 87.1286 98.0283 87.4933C97.7429 87.5698 97.439 87.6418 97.1171 87.7108ZM92.5077 84.4L93.7912 82.1769L95.2628 83.0265L93.9793 85.2496L92.5077 84.4ZM99.2294 82.2288L98.2701 83.8882L96.2975 82.7493L97.2553 81.0903L99.2294 82.2288ZM96.825 63.333C96.8883 63.6219 96.9499 63.8987 97.0148 64.1935C97.0935 64.5457 97.1751 64.9145 97.2546 65.2759L96.0911 64.6041L96.825 63.333ZM95.5824 57.7178L94.4412 57.0589L95.1575 55.816C95.2954 56.43 95.4369 57.0635 95.5824 57.7178ZM81.1839 34.9677C83.4377 34.3638 85.8536 34.4584 87.3389 35.2071C90.4912 36.7969 91.2791 38.5434 94.9223 54.7685C94.9043 54.789 94.8738 54.7924 94.8599 54.8166L93.7843 56.6797L93.4855 56.5072C93.3018 56.4011 93.0713 56.466 92.9674 56.646C92.8624 56.8278 92.9244 57.0591 93.1062 57.1641L93.405 57.3366L92.9443 58.1345C92.8393 58.3164 92.9013 58.5476 93.0831 58.6526C93.174 58.7051 93.2757 58.7155 93.3708 58.69C93.4659 58.6645 93.5487 58.6047 93.6012 58.5138L94.0619 57.7158L95.8044 58.7219C96.078 59.9536 96.3648 61.2524 96.6687 62.6267C96.5548 62.6054 96.4538 62.6325 96.3658 62.7078C96.3493 62.6934 96.3475 62.6688 96.327 62.657L94.3025 61.4882L95.5778 59.2814C95.6828 59.0995 95.6209 58.8683 95.439 58.7633C95.2575 58.6597 95.0255 58.7188 94.9209 58.9021L93.6456 61.1089L93.1613 60.8293C92.9794 60.7243 92.7482 60.7862 92.6432 60.9681C92.5382 61.1499 92.6001 61.3812 92.782 61.4862L93.2663 61.7658L93.1313 61.9996C93.0263 62.1815 93.0883 62.4127 93.2702 62.5177C93.3611 62.5702 93.4627 62.5806 93.5578 62.5551C93.65 62.5304 93.7357 62.4698 93.7882 62.3789L93.9232 62.1451L95.9478 63.3139C95.9515 63.3161 95.9569 63.313 95.9607 63.3152L95.4293 64.2356C95.2513 64.1452 95.0325 64.2007 94.9307 64.377C94.8289 64.5533 94.8903 64.7706 95.0575 64.8795L93.834 66.9987C93.729 67.1806 93.791 67.4118 93.9728 67.5168C94.0637 67.5693 94.1653 67.5797 94.2605 67.5542C94.3556 67.5287 94.4384 67.4689 94.4909 67.378L95.7101 65.2662L97.2002 66.1265C97.2782 66.1715 97.3645 66.1719 97.4459 66.1595C98.5016 70.9307 99.7286 76.47 101.181 82.9138C101.415 83.9521 101.536 84.8311 101.182 85.5754L98.9234 84.2715L99.8823 82.6107L100.01 82.6846C100.101 82.7371 100.203 82.7475 100.298 82.7221C100.393 82.6966 100.476 82.6367 100.528 82.5458C100.633 82.364 100.571 82.1327 100.39 82.0277L100.262 81.9538L100.653 81.2765C100.758 81.0946 100.696 80.8634 100.514 80.7584C100.332 80.6534 100.101 80.7154 99.9957 80.8972L99.6046 81.5745L97.5801 80.4057C97.5935 80.2625 97.5536 80.1194 97.4204 80.0438C97.2872 79.9681 97.1448 80.0047 97.0271 80.0864L94.1731 78.4386C93.9912 78.3336 93.76 78.3956 93.655 78.5774C93.55 78.7593 93.6119 78.9905 93.7938 79.0955L96.5959 80.7133L95.6381 82.3723L94.1665 81.5227L94.8511 80.3369C94.9561 80.155 94.8942 79.9238 94.7123 79.8188C94.5304 79.7138 94.2992 79.7758 94.1942 79.9576L93.5096 81.1434L92.3981 80.5017C92.2162 80.3967 91.985 80.4586 91.88 80.6405C91.775 80.8223 91.8369 81.0536 92.0188 81.1586L93.1303 81.8003L91.8468 84.0234L90.3604 83.1652C90.1786 83.0603 89.9473 83.1222 89.8424 83.3041C89.7374 83.4859 89.7993 83.7172 89.9812 83.8222L91.4676 84.6803L90.3641 86.5917L88.6902 85.6253C88.5084 85.5203 88.2771 85.5823 88.1721 85.7641C88.0672 85.946 88.1291 86.1772 88.311 86.2822L89.9848 87.2486L89.6002 87.9148C87.68 87.1822 86.5835 85.4667 85.7285 82.4692C84.8877 79.5243 82.7681 72.8783 80.5221 65.8426C77.7525 57.1574 74.6114 47.3137 74.3313 45.759C72.9093 37.8296 79.2155 35.4952 81.1839 34.9677Z" fill="white"/>
<path d="M68.6969 56.8247C63.9266 55.419 51.9111 58.7264 53.044 66.7772C53.198 67.8731 54.9295 72.9652 57.5518 80.6091C59.1944 85.3986 60.745 89.9211 61.3305 91.9132C63.1133 97.9813 68.7798 96.6841 73.7769 95.5412C74.1196 95.4619 74.4436 95.383 74.7465 95.3018C78.5956 94.2704 79.8872 92.8561 79.3528 90.259L73.9513 64.0001C73.5202 61.9055 72.7192 58.0088 68.6969 56.8247ZM62.7832 91.4863C62.189 89.462 60.6326 84.9239 58.9843 80.1186C56.9725 74.2499 54.6904 67.6003 54.5437 66.5667C53.6127 59.9661 64.4154 57.1437 68.2682 58.2807C70.1313 58.8293 71.1085 60.0937 71.7136 61.6084L71.0193 62.8109L70.7206 62.6384C70.5387 62.5334 70.3075 62.5954 70.2025 62.7772C70.0975 62.9591 70.1594 63.1903 70.3413 63.2953L70.6401 63.4678L70.1794 64.2657C70.0744 64.4476 70.1363 64.6788 70.3182 64.7838C70.4091 64.8363 70.5107 64.8467 70.6059 64.8212C70.701 64.7958 70.7838 64.7359 70.8363 64.645L71.297 63.8471L72.518 64.552L72.5864 64.8835C72.4254 64.8388 72.2482 64.88 72.1579 65.0344L70.884 67.2408L70.3978 66.9601C70.2159 66.8551 69.9847 66.9171 69.8797 67.0989C69.7747 67.2808 69.8367 67.512 70.0185 67.617L70.5047 67.8977L70.3687 68.1334C70.2637 68.3152 70.3256 68.5465 70.5075 68.6515C70.5984 68.704 70.7 68.7144 70.7952 68.6889C70.8874 68.6642 70.9731 68.6036 71.0256 68.5126L71.1616 68.277L73.188 69.4469C73.1917 69.4491 73.1957 69.4464 73.1994 69.4486L72.6691 70.3671C72.4912 70.2768 72.2705 70.3312 72.1706 70.5085C72.0698 70.683 72.1301 70.9021 72.2974 71.011L71.0738 73.1302C70.9688 73.3121 71.0308 73.5433 71.2127 73.6483C71.3036 73.7008 71.4052 73.7112 71.5003 73.6857C71.5955 73.6602 71.6783 73.6004 71.7308 73.5095L72.9496 71.3963L74.0578 72.0373L74.5918 74.633C74.5668 74.657 74.5294 74.6639 74.5112 74.6954L73.5427 76.3729L72.3064 75.6579C72.1246 75.5529 71.8933 75.6149 71.7883 75.7968C71.6833 75.9786 71.7453 76.2098 71.9272 76.3148L73.163 77.0284L72.0156 79.0158C71.9106 79.1977 71.9726 79.4289 72.1544 79.5339C72.2453 79.5864 72.347 79.5968 72.4421 79.5713C72.5372 79.5458 72.62 79.486 72.6725 79.3951L73.82 77.4076L75.0451 78.1162C75.1304 78.1655 75.2261 78.1712 75.3166 78.1517L75.6605 79.8274C75.5445 79.8396 75.4351 79.8878 75.3715 79.9958L74.7844 81.0127L72.2959 79.576C72.114 79.471 71.8828 79.533 71.7778 79.7148C71.6728 79.8967 71.7348 80.1279 71.9166 80.2329L74.4051 81.6696L72.9684 84.1581C72.8634 84.3399 72.9253 84.5712 73.1072 84.6762C73.1981 84.7286 73.2997 84.7391 73.3949 84.7136C73.49 84.6881 73.5728 84.6283 73.6253 84.5373L75.062 82.0489L76.2589 82.7399L77.1663 87.1508L76.8438 87.7094L74.8193 86.5405C74.8312 86.3977 74.7917 86.2561 74.6596 86.1786C74.5274 86.1011 74.384 86.1395 74.2663 86.2212L71.4123 84.5735C71.2304 84.4685 70.9992 84.5304 70.8942 84.7123C70.7892 84.8941 70.8511 85.1254 71.033 85.2304L73.8351 86.8481L72.8758 88.5075L71.4042 87.6579L72.0888 86.4721C72.1938 86.2903 72.1319 86.059 71.95 85.954C71.7682 85.849 71.5369 85.911 71.4319 86.0929L70.7473 87.2786L69.6358 86.6369C69.4539 86.5319 69.2227 86.5938 69.1177 86.7757C69.0127 86.9576 69.0747 87.1888 69.2565 87.2938L70.3681 87.9355L69.0846 90.1586L67.5982 89.3005C67.4163 89.1955 67.1851 89.2574 67.0801 89.4393C66.9751 89.6211 67.037 89.8524 67.2189 89.9574L68.7053 90.8156L67.6014 92.7254L65.9261 91.7594C65.7424 91.6534 65.5119 91.7183 65.408 91.8983C65.303 92.0801 65.365 92.3114 65.5468 92.4164L67.2221 93.3823L66.6157 94.4327C66.5107 94.6145 66.5727 94.8457 66.7545 94.9507C66.7954 94.9743 66.8418 94.9603 66.8864 94.9687C64.8596 94.7981 63.4802 93.8595 62.7832 91.4863ZM72.299 63.5472L71.6755 63.1872L72.0397 62.5563C72.136 62.8803 72.2217 63.2118 72.299 63.5472ZM76.1613 90.3957L77.1187 88.7353L77.2486 88.8103C77.3321 88.8585 77.4263 88.8646 77.5153 88.8455L77.8691 90.564C77.9287 90.8508 77.9813 91.141 77.958 91.4343L76.1613 90.3957ZM76.4637 88.3571L75.5062 90.0175L73.5337 88.8787L74.4929 87.2193L76.4637 88.3571ZM76.0531 81.7378L75.4389 81.3832L75.8375 80.6929L76.0531 81.7378ZM75.1381 77.2866L74.1969 76.742L74.8086 75.6824L75.1381 77.2866ZM73.3653 68.6684L71.5393 67.6142L72.7253 65.56L73.3653 68.6684ZM73.6676 70.1419L73.8524 71.0367L73.3273 70.7335L73.6676 70.1419ZM72.4989 89.1559L71.2154 91.379L69.7439 90.5294L71.0274 88.3063L72.4989 89.1559ZM73.4386 94.0617C70.8772 94.6476 68.7463 95.0665 67.0533 94.9711C67.1451 94.9449 67.2254 94.8873 67.2772 94.7997L67.8836 93.7494L68.2455 93.9583C68.3364 94.0108 68.4395 94.0208 68.5331 93.9957C68.6268 93.9706 68.711 93.9104 68.7635 93.8195C68.8685 93.6376 68.8066 93.4064 68.6247 93.3014L68.2629 93.0925L69.3653 91.183L70.8369 92.0326L70.3397 92.8936C70.2347 93.0755 70.2967 93.3067 70.4786 93.4117C70.5695 93.4642 70.6711 93.4746 70.7662 93.4492C70.8584 93.4244 70.9442 93.3638 70.9966 93.2729L71.4938 92.4119L72.3066 92.8811C72.3975 92.9336 72.4991 92.9441 72.5942 92.9186C72.6893 92.8931 72.7721 92.8332 72.8246 92.7423C72.9296 92.5605 72.8677 92.3292 72.6858 92.2242L71.873 91.755L73.1565 89.5319L75.1291 90.6707L73.837 92.9087C73.732 93.0905 73.794 93.3218 73.9759 93.4268C74.0668 93.4793 74.1684 93.4897 74.2635 93.4642C74.3587 93.4387 74.4415 93.3789 74.494 93.2879L75.786 91.05L77.6992 92.1546C77.2446 92.8113 76.1018 93.4579 73.4386 94.0617Z" fill="white"/>
<path d="M39.9745 78.0469C35.0207 79.8025 32.6025 82.0175 32.7828 84.6279C32.8353 85.3684 33.8275 87.9824 35.9199 93.3621C39.614 102.869 38.2576 104.797 50.4234 101.84C50.8238 101.742 51.2211 101.673 51.5914 101.574L51.6045 101.57C53.3988 101.089 56.7057 100.166 56.28 97.646C55.7411 94.4697 55.3074 91.7797 54.9449 89.5255C53.1576 78.3826 52.9247 76.9455 48.7911 76.5111C46.078 76.2264 42.5344 77.1335 39.9745 78.0469ZM51.1831 100.05C50.8231 100.147 50.4469 100.241 50.0567 100.336C46.7126 101.151 43.9532 101.741 42.1488 101.487L42.512 100.858L42.6345 100.929C42.7254 100.982 42.827 100.992 42.9221 100.966C43.0173 100.941 43.1 100.881 43.1525 100.79C43.2575 100.608 43.1956 100.377 43.0137 100.272L42.8913 100.201L43.5298 99.0954L45.7585 100.382C45.8494 100.435 45.951 100.445 46.0461 100.42C46.1413 100.394 46.224 100.334 46.2765 100.243C46.3815 100.061 46.3196 99.8302 46.1377 99.7252L45.9466 99.6149L47.093 97.6293L49.2994 98.9032L48.7583 99.8403C48.6533 100.022 48.7153 100.253 48.8971 100.358C48.9881 100.411 49.0897 100.421 49.1848 100.396C49.2799 100.37 49.3627 100.31 49.4152 100.22L49.9563 99.2824L50.1585 99.3992C50.2495 99.4517 50.3511 99.4621 50.4462 99.4366C50.5413 99.4112 50.6241 99.3513 50.6766 99.2604C50.7816 99.0785 50.7197 98.8473 50.5378 98.7423L50.3355 98.6255L51.228 97.0798L53.8816 98.6118C53.9725 98.6643 54.0741 98.6747 54.1693 98.6492C54.2644 98.6238 54.3472 98.5639 54.3997 98.473C54.5047 98.2911 54.4427 98.0599 54.2609 97.9549L51.6073 96.4228L52.9261 94.1385C53.0193 93.9771 52.9636 93.7865 52.826 93.6712L53.8429 94.2583C53.9338 94.3108 54.0355 94.3213 54.1306 94.2958C54.1496 94.2907 54.1606 94.2673 54.1788 94.2593C54.3644 95.3907 54.5615 96.5771 54.7806 97.869C54.9163 98.6859 53.8409 99.338 51.1831 100.05ZM54.0522 93.5058L51.059 91.7777L52.5879 89.1296L52.8662 89.2903C52.9572 89.3428 53.0588 89.3532 53.1539 89.3278C53.2359 89.3058 53.3028 89.2455 53.3542 89.1737C53.3865 89.3705 53.4145 89.545 53.4473 89.7495C53.6289 90.8899 53.829 92.1398 54.0522 93.5058ZM52.6871 85.1502C52.8633 86.1649 53.0557 87.3337 53.2711 88.6705C53.2577 88.6615 53.2574 88.6428 53.2426 88.6342L50.8172 87.2339L52.1864 84.8624L52.6871 85.1502ZM51.5751 80.1164C51.5132 80.1487 51.4476 80.1789 51.4101 80.2438L51.0951 80.7894L50.1023 80.2162C49.919 80.1116 49.6877 80.1735 49.5842 80.355C49.4792 80.5369 49.5412 80.7681 49.723 80.8731L50.7158 81.4463L49.8876 82.8807C49.7826 83.0626 49.8446 83.2938 50.0265 83.3988C50.1174 83.4513 50.219 83.4617 50.3141 83.4362C50.4093 83.4107 50.492 83.3509 50.5445 83.26L51.3727 81.8256L51.3894 81.8352C51.4803 81.8877 51.5834 81.8977 51.6771 81.8726C51.7708 81.8475 51.855 81.7873 51.9075 81.6964C52.0125 81.5145 51.9505 81.2833 51.7687 81.1783L51.752 81.1686L51.8463 81.0053C52.0091 81.619 52.1743 82.37 52.3503 83.2844C52.2599 83.3101 52.1782 83.3681 52.1264 83.4557L51.91 83.8306L51.5778 83.6388C51.3959 83.5338 51.1647 83.5958 51.0597 83.7776C50.9547 83.9595 51.0167 84.1907 51.1985 84.2957L51.5307 84.4875L50.004 87.1318C49.899 87.3137 49.961 87.5449 50.1428 87.6499C50.1484 87.6531 50.1568 87.6493 50.1623 87.6525C50.1941 87.7068 50.2183 87.7677 50.2758 87.8009L51.9292 88.7555L50.3747 91.4481C50.2243 91.4256 50.0717 91.465 49.9914 91.6041C49.911 91.7433 49.9537 91.8966 50.0479 92.0141L49.5754 92.8324C49.4704 93.0143 49.5324 93.2455 49.7142 93.3505C49.8052 93.403 49.9068 93.4134 50.0019 93.388C50.097 93.3625 50.1798 93.3026 50.2323 93.2117L50.6791 92.4379L52.724 93.6185C52.554 93.5575 52.3625 93.6041 52.2693 93.7655L50.9504 96.0498L49.902 95.4445C49.7201 95.3395 49.4889 95.4015 49.3839 95.5833C49.2789 95.7652 49.3409 95.9964 49.5227 96.1014L50.5712 96.7067L49.6787 98.2525L47.4723 96.9786L49.0344 94.2731C49.1394 94.0912 49.0774 93.86 48.8956 93.755C48.7137 93.65 48.4825 93.712 48.3775 93.8938L46.8154 96.5994L46.2068 96.248C46.0249 96.143 45.7937 96.2049 45.6887 96.3868C45.5837 96.5686 45.6456 96.7999 45.8275 96.9049L46.4362 97.2563L45.2898 99.2419L43.9092 98.4448L45.7798 95.2048C45.8848 95.0229 45.8228 94.7917 45.641 94.6867C45.4591 94.5817 45.2279 94.6436 45.1229 94.8255L43.2523 98.0655L41.928 97.2972C41.7461 97.1922 41.5149 97.2542 41.4099 97.436C41.3049 97.6179 41.3669 97.8491 41.5487 97.9541L42.8718 98.718L42.2333 99.824L41.1291 99.1865C40.9473 99.0815 40.7161 99.1435 40.6111 99.3253C40.3325 99.8078 41.334 100.179 41.8536 100.479L41.3801 101.3C39.9344 100.787 40.3693 100.618 37.3282 92.8106C36.0751 89.5857 34.3568 85.1693 34.293 84.5213C34.1653 82.6983 36.3047 80.9533 40.4789 79.4725C42.8237 78.6403 46.1783 77.754 48.6296 78.0101C50.1841 78.1739 50.9273 78.2665 51.5751 80.1164Z" fill="white"/>
<path d="M109.802 88.5346C109.426 88.4909 108.546 88.3863 95.6116 91.8521C75.0564 97.3599 39.4318 107.745 36.445 108.798C34.9323 109.328 33.3628 109.951 32.2297 111.172C31.0626 112.431 30.4556 114.714 31.5887 116.332C33.7882 119.465 37.3928 117.972 61.8716 111.191C72.5358 108.237 87.1316 104.157 107.445 98.714C117.177 96.0673 114.915 89.141 109.802 88.5346ZM111.143 95.5194C109.423 96.8556 111.678 95.8309 61.4667 109.732C40.4735 115.549 34.4153 117.726 32.8293 115.465C32.1759 114.531 32.5759 113.073 33.3513 112.238C34.2479 111.27 35.5646 110.734 36.9519 110.244C39.9263 109.198 75.4758 98.8255 96.0061 93.3244C107.275 90.3049 109.289 90.024 109.624 90.0441C112.862 90.4266 113.703 93.5284 111.143 95.5194Z" fill="white"/>
<path d="M95.872 78.5386C95.963 78.5911 96.0646 78.6015 96.1597 78.5761C96.2548 78.5506 96.3376 78.4907 96.3901 78.3998L97.8268 75.9113L99.0386 76.611C99.1295 76.6635 99.2311 76.6739 99.3263 76.6484C99.4185 76.6237 99.5042 76.5631 99.5567 76.4721C99.6617 76.2903 99.5997 76.059 99.4179 75.954L98.2061 75.2544L98.7932 74.2375C98.8982 74.0557 98.8362 73.8244 98.6544 73.7194C98.4725 73.6144 98.2413 73.6764 98.1363 73.8583L97.5492 74.8752L95.0607 73.4385C94.8807 73.3345 94.6487 73.3936 94.5426 73.5773C94.4376 73.7591 94.4996 73.9904 94.6815 74.0954L97.1699 75.5321L95.7332 78.0205C95.6282 78.2024 95.6902 78.4336 95.872 78.5386Z" fill="white"/>
<path d="M95.2047 73.4359C95.2984 73.4108 95.3826 73.3506 95.4351 73.2596L96.584 71.2718L97.8088 71.9789C97.8997 72.0314 98.0013 72.0418 98.0964 72.0163C98.1887 71.9916 98.2744 71.931 98.3269 71.8401C98.4319 71.6582 98.3699 71.427 98.188 71.322L96.9633 70.6149L97.9318 68.9374C98.0368 68.7555 97.9749 68.5243 97.793 68.4193C97.6111 68.3143 97.3799 68.3762 97.2749 68.5581L96.3064 70.2356L95.0701 69.5206C94.8901 69.4167 94.6581 69.4757 94.552 69.6595C94.447 69.8413 94.509 70.0725 94.6909 70.1775L95.9271 70.8925L94.7786 72.8818C94.6736 73.0637 94.7356 73.2949 94.9174 73.3999C95.0076 73.4495 95.111 73.461 95.2047 73.4359Z" fill="white"/>
<path d="M81.5927 60.4657C81.6576 60.6553 81.7976 60.5394 81.9893 60.488L82.0142 60.4814C82.2161 60.4272 82.3773 60.4201 82.309 60.2235L78.12 47.9329C77.051 44.7919 76.9636 42.8091 77.7967 41.3812C78.6712 39.8857 80.7141 38.9101 84.1863 38.2636C84.4361 38.2359 84.5313 38.041 84.4937 37.8362C84.4557 37.6299 84.2598 37.502 84.055 37.5396C80.2909 38.2439 78.1631 39.3301 77.1575 41.0505C76.2026 42.6852 76.2581 44.8067 77.4034 48.1735L81.5927 60.4657Z" fill="white"/>
</g>
<defs>
<clipPath id="clip0_2801_3312">
<rect width="100" height="100" fill="white" transform="translate(0 25.8818) rotate(-15)"/>
</clipPath>
</defs>
</svg>
