<svg width="105" height="155" viewBox="0 0 105 155" fill="none" xmlns="http://www.w3.org/2000/svg">
<g opacity="0.1">
<circle cx="102.5" cy="152.501" r="2.5" transform="rotate(180 102.5 152.501)" fill="#181818"/>
<circle cx="77.5" cy="152.502" r="2.5" transform="rotate(180 77.5 152.502)" fill="#181818"/>
<circle cx="52.5" cy="152.502" r="2.5" transform="rotate(180 52.5 152.502)" fill="#181818"/>
<circle cx="27.5" cy="152.502" r="2.5" transform="rotate(180 27.5 152.502)" fill="#181818"/>
<circle cx="2.5" cy="152.502" r="2.5" transform="rotate(180 2.5 152.502)" fill="#181818"/>
<circle cx="102.5" cy="127.501" r="2.5" transform="rotate(180 102.5 127.501)" fill="#181818"/>
<circle cx="77.5" cy="127.502" r="2.5" transform="rotate(180 77.5 127.502)" fill="#181818"/>
<circle cx="52.5" cy="127.502" r="2.5" transform="rotate(180 52.5 127.502)" fill="#181818"/>
<circle cx="27.5" cy="127.502" r="2.5" transform="rotate(180 27.5 127.502)" fill="#181818"/>
<circle cx="2.5" cy="127.502" r="2.5" transform="rotate(180 2.5 127.502)" fill="#181818"/>
<circle cx="102.5" cy="102.5" r="2.5" transform="rotate(180 102.5 102.5)" fill="#181818"/>
<circle cx="77.5" cy="102.502" r="2.5" transform="rotate(180 77.5 102.502)" fill="#181818"/>
<circle cx="52.5" cy="102.502" r="2.5" transform="rotate(180 52.5 102.502)" fill="#181818"/>
<circle cx="27.5" cy="102.502" r="2.5" transform="rotate(180 27.5 102.502)" fill="#181818"/>
<circle cx="2.5" cy="102.502" r="2.5" transform="rotate(180 2.5 102.502)" fill="#181818"/>
<circle cx="102.5" cy="77.5" r="2.5" transform="rotate(180 102.5 77.5)" fill="#181818"/>
<circle cx="77.5" cy="77.502" r="2.5" transform="rotate(180 77.5 77.502)" fill="#181818"/>
<circle cx="52.5" cy="77.502" r="2.5" transform="rotate(180 52.5 77.502)" fill="#181818"/>
<circle cx="27.5" cy="77.502" r="2.5" transform="rotate(180 27.5 77.502)" fill="#181818"/>
<circle cx="2.5" cy="77.502" r="2.5" transform="rotate(180 2.5 77.502)" fill="#181818"/>
<circle cx="102.5" cy="52.5" r="2.5" transform="rotate(180 102.5 52.5)" fill="#181818"/>
<circle cx="102.5" cy="27.5" r="2.5" transform="rotate(180 102.5 27.5)" fill="#181818"/>
<circle cx="102.5" cy="2.5" r="2.5" transform="rotate(180 102.5 2.5)" fill="#181818"/>
<circle cx="77.5" cy="52.502" r="2.5" transform="rotate(180 77.5 52.502)" fill="#181818"/>
<circle cx="77.5" cy="27.502" r="2.5" transform="rotate(180 77.5 27.502)" fill="#181818"/>
<circle cx="77.5" cy="2.50195" r="2.5" transform="rotate(180 77.5 2.50195)" fill="#181818"/>
<circle cx="52.5" cy="52.502" r="2.5" transform="rotate(180 52.5 52.502)" fill="#181818"/>
<circle cx="52.5" cy="27.502" r="2.5" transform="rotate(180 52.5 27.502)" fill="#181818"/>
<circle cx="52.5" cy="2.50195" r="2.5" transform="rotate(180 52.5 2.50195)" fill="#181818"/>
<circle cx="27.5" cy="52.502" r="2.5" transform="rotate(180 27.5 52.502)" fill="#181818"/>
<circle cx="27.5" cy="27.502" r="2.5" transform="rotate(180 27.5 27.502)" fill="#181818"/>
<circle cx="27.5" cy="2.50195" r="2.5" transform="rotate(180 27.5 2.50195)" fill="#181818"/>
<circle cx="2.5" cy="52.502" r="2.5" transform="rotate(180 2.5 52.502)" fill="#181818"/>
<circle cx="2.5" cy="27.502" r="2.5" transform="rotate(180 2.5 27.502)" fill="#181818"/>
<circle cx="2.5" cy="2.50195" r="2.5" transform="rotate(180 2.5 2.50195)" fill="#181818"/>
</g>
</svg>
