<svg width="222" height="222" viewBox="0 0 222 222" fill="none" xmlns="http://www.w3.org/2000/svg">
<g filter="url(#filter0_b_2801_5219)">
<circle cx="111" cy="111" r="111" fill="url(#paint0_linear_2801_5219)"/>
</g>
<circle cx="111" cy="111" r="61" fill="#E8112B"/>
<path d="M101.787 191.054L103.102 204.699L99.5848 204.031L99.0043 194.555L98.9454 194.544L94.8692 203.134L91.6666 202.525L91.0469 193.043L90.9879 193.031L87.0493 201.647L83.8663 201.042L90.1164 188.835L93.712 189.518L94.2866 198.382L94.3456 198.393L98.2507 190.381L101.787 191.054Z" fill="white"/>
<path d="M70.9228 180.902L70.4988 183.697L75.1776 186.101L77.2027 184.128L80.1915 185.663L69.6597 195.048L66.0305 193.184L67.5249 179.157L70.9228 180.902ZM73.6406 187.605L70.1715 185.823L69.2653 191.833L69.3009 191.851L73.6406 187.605Z" fill="white"/>
<path d="M59.871 173.318L53.014 181.375L55.8622 183.799L54.1901 185.764L46.0111 178.803L47.6832 176.838L50.5162 179.249L57.3731 171.192L59.871 173.318Z" fill="white"/>
<path d="M45.9261 158.384C48.3348 161.652 48.0149 165.466 44.6018 167.981C41.1564 170.52 37.4192 169.697 35.0104 166.429C32.8746 163.531 33.0454 160.324 35.4765 158.533C35.718 158.355 36.0196 158.157 36.1764 158.066L37.8732 160.369C37.6842 160.483 37.5232 160.602 37.4427 160.661C36.0098 161.717 35.9363 163.337 36.9924 164.769C38.2739 166.508 40.4916 166.787 42.5846 165.244C44.6936 163.69 45.012 161.492 43.7543 159.786C42.6151 158.24 41.0897 157.923 39.7535 158.908C39.6891 158.956 39.5925 159.027 39.4272 159.174L37.7186 156.855C37.916 156.685 38.0931 156.554 38.2219 156.459C40.653 154.668 43.7784 155.47 45.9261 158.384Z" fill="white"/>
<path d="M38.4894 147.18L26.2971 152.133L25.0626 149.094L29.7876 147.174L27.6648 141.949L22.9399 143.869L21.7054 140.83L33.8977 135.877L35.1322 138.916L30.0366 140.986L32.1594 146.211L37.2549 144.141L38.4894 147.18Z" fill="white"/>
<path d="M27.6756 105.667C27.6748 105.607 27.6736 105.507 27.6517 105.347L30.1118 105.337C30.1535 105.477 30.1961 105.696 30.1997 105.996C30.215 107.276 29.8699 108.521 29.1046 109.75C29.878 110.861 30.2933 112.136 30.3101 113.536C30.3499 116.855 28.3695 118.499 25.8497 118.53C24.1698 118.55 22.5184 117.609 22.1904 115.273C21.3343 115.603 20.636 115.752 20.096 115.758C18.2362 115.781 16.7619 114.598 16.7302 111.958C16.6998 109.419 18.065 108.182 19.9249 108.16C21.8648 108.137 23.1591 109.321 23.3062 111.58L23.3264 111.599C24.1203 111.09 24.9124 110.42 25.6034 109.672C24.7561 109.062 23.7504 108.594 22.6266 108.287L22.5952 105.668C24.3213 106.167 25.8498 106.869 27.0805 107.754C27.4916 107.009 27.683 106.287 27.6756 105.667ZM18.9679 111.752C18.9761 112.432 19.5199 112.745 20.2798 112.736C20.7598 112.73 21.2183 112.605 21.7559 112.398C21.58 111.08 21.0558 110.726 20.1158 110.738C19.4759 110.745 18.9597 111.072 18.9679 111.752ZM25.754 115.55C26.9939 115.536 27.9449 114.784 27.9279 113.364C27.9209 112.784 27.7942 112.226 27.5282 111.729C26.5996 112.68 25.4907 113.613 24.1992 114.329L24.2002 114.409C24.3495 115.187 24.934 115.56 25.754 115.55Z" fill="white"/>
<path d="M33.0908 88.4658L20.6709 84.1147L23.7523 75.3189L26.1872 76.1719L24.1902 81.8722L26.9838 82.8509L28.5311 78.4341L30.4186 79.0953L28.8713 83.5121L31.7403 84.5172L33.7968 78.647L36.2317 79.5001L33.0908 88.4658Z" fill="white"/>
<path d="M38.6542 73.9859L35.2296 66.5673L27.5543 66.9145L29.7466 63.3791L34.8838 63.4818L32.466 58.9938L34.4053 55.8663L37.5848 62.9211L45.6739 62.6657L43.4921 66.1841L38.1809 66.0205L40.72 70.6544L38.6542 73.9859Z" fill="white"/>
<path d="M49.7246 57.749L40.4212 48.4412L44.4244 44.44C46.8008 42.0646 49.3465 41.7541 51.5946 44.0032C53.6588 46.0685 53.7148 48.4444 51.2818 50.8762L49.3863 52.7708L52.0444 55.4302L49.7246 57.749ZM47.8311 51.2148L49.6275 49.4192C50.6036 48.4436 50.618 47.383 49.5293 46.2938C48.4689 45.2329 47.2809 45.2326 46.1776 46.3354L44.565 47.9472L47.8311 51.2148Z" fill="white"/>
<path d="M63.0729 45.5857L55.9349 34.5297L58.6905 32.7507L64.4291 41.6391L69.4698 38.3847L70.8692 40.5522L63.0729 45.5857Z" fill="white"/>
<path d="M83.3037 35.201C79.5552 36.5385 75.8007 35.1813 74.3556 31.1314C72.9375 27.1568 74.9982 23.7671 78.7467 22.4296C82.4952 21.0921 86.2363 22.4116 87.6544 26.3862C89.0995 30.4361 87.0522 33.8635 83.3037 35.201ZM82.4367 32.771C84.3957 32.072 85.3528 30.0529 84.4589 27.5476C83.5784 25.08 81.5728 24.1606 79.6138 24.8596C77.6547 25.5586 76.6841 27.54 77.5646 30.0076C78.4585 32.5129 80.4776 33.47 82.4367 32.771Z" fill="white"/>
<path d="M97.0304 31.1353L95.8021 18.0328L101.915 17.4597C105.38 17.1349 107.386 18.3931 107.618 20.8623C107.775 22.535 107.157 23.6575 105.956 24.1317L105.959 24.1715C107.282 24.3489 107.956 25.3302 108.094 26.8038L108.401 30.0694L105.135 30.3756L104.838 27.2095C104.726 26.0147 104.239 25.538 103.005 25.6538L99.8387 25.9506L100.296 30.8292L97.0304 31.1353ZM99.6539 23.9792L102.641 23.6992C104.015 23.5704 104.654 22.8878 104.54 21.6731C104.432 20.5182 103.65 19.8884 102.136 20.0303L99.3086 20.2954L99.6539 23.9792Z" fill="white"/>
<path d="M116.067 30.2673L117.703 17.2094L126.951 18.3679L126.63 20.9279L120.637 20.1771L120.269 23.1141L124.913 23.6959L124.664 25.6804L120.02 25.0986L119.642 28.115L125.814 28.8882L125.493 31.4482L116.067 30.2673Z" fill="white"/>
<path d="M147.406 39.3295C143.875 37.4922 142.316 33.8173 144.301 30.0028C146.249 26.2594 150.135 25.4635 153.665 27.3007C157.196 29.138 158.774 32.7775 156.826 36.5209C154.841 40.3354 150.936 41.1667 147.406 39.3295ZM148.597 37.0408C150.442 38.001 152.573 37.3288 153.801 34.9692C155.01 32.645 154.32 30.5496 152.474 29.5894C150.629 28.6292 148.517 29.2659 147.307 31.5901C146.079 33.9497 146.752 36.0807 148.597 37.0408Z" fill="white"/>
<path d="M164.051 50.7571C161.307 48.3056 160.824 45.2732 163.062 42.7674L168.432 36.7563L170.878 38.9414L165.588 44.863C164.389 46.2054 164.7 47.6894 165.997 48.8485C167.295 50.0077 168.804 50.1492 170.004 48.8068L175.293 42.8852L177.456 44.8172L172.086 50.8282C169.848 53.3341 166.796 53.2087 164.051 50.7571Z" fill="white"/>
<path d="M173.399 59.9331L184.223 52.449L187.715 57.4995C189.694 60.3619 189.579 62.7272 187.539 64.1376C186.157 65.093 184.876 65.1036 183.875 64.2884L183.842 64.3111C184.334 65.551 183.809 66.6196 182.591 67.4612L179.893 69.3266L178.028 66.6286L180.644 64.8202C181.631 64.1377 181.808 63.4801 181.103 62.4601L179.295 59.8444L175.264 62.631L173.399 59.9331ZM180.923 58.7184L182.629 61.186C183.414 62.3212 184.322 62.5443 185.326 61.8505C186.28 61.1908 186.446 60.2005 185.582 58.9503L183.967 56.6142L180.923 58.7184Z" fill="white"/>
<path d="M188.718 91.9082C187.764 87.962 189.536 84.5703 193.658 83.5737C197.818 82.5677 200.944 84.7747 201.898 88.721C202.745 92.2202 201.345 95.1102 198.409 95.82C198.118 95.8905 197.763 95.9557 197.583 95.9786L196.911 93.1987C197.13 93.1664 197.324 93.1194 197.421 93.0959C199.151 92.6775 199.847 91.2131 199.428 89.4829C198.921 87.3835 196.984 86.2674 194.457 86.8785C191.91 87.4943 190.765 89.3967 191.264 91.4573C191.715 93.3235 192.998 94.2066 194.612 93.8164C194.69 93.7976 194.806 93.7694 195.015 93.6983L195.692 96.4976C195.444 96.5781 195.23 96.6298 195.075 96.6674C192.14 97.3773 189.569 95.4268 188.718 91.9082Z" fill="white"/>
<path d="M190.953 111.877C191.025 107.897 193.621 104.864 197.92 104.942C202.14 105.019 204.583 108.144 204.511 112.124C204.438 116.103 201.882 119.137 197.663 119.06C193.364 118.982 190.88 115.856 190.953 111.877ZM193.532 111.924C193.494 114.003 195.045 115.612 197.705 115.66C200.325 115.708 201.893 114.156 201.931 112.077C201.969 109.997 200.458 108.389 197.838 108.341C195.179 108.293 193.57 109.844 193.532 111.924Z" fill="white"/>
<path d="M190.076 126.212L202.677 130.006L201.196 134.928L191.995 135.103L191.983 135.141L199.564 140.347L198.129 145.116L185.527 141.323L186.473 138.182L196.351 141.239L196.362 141.201L187.418 135.041L188.231 132.341L199.095 132.123L199.106 132.085L189.188 129.162L190.076 126.212Z" fill="white"/>
<path d="M182.287 147.924L193.521 154.779L190.572 159.611C188.822 162.479 186.421 163.38 183.707 161.724C181.214 160.203 180.6 157.907 182.392 154.97L183.788 152.683L180.578 150.724L182.287 147.924ZM185.666 153.829L184.343 155.997C183.624 157.175 183.86 158.209 185.174 159.011C186.455 159.792 187.609 159.513 188.422 158.181L189.61 156.235L185.666 153.829Z" fill="white"/>
<path d="M165.307 169.968L167.84 171.225L171.556 167.503L170.296 164.972L172.67 162.595L178.393 175.488L175.51 178.375L162.608 172.671L165.307 169.968ZM172.519 169.426L169.764 172.185L175.21 174.882L175.239 174.854L172.519 169.426Z" fill="white"/>
<path d="M157.482 176.586L164.213 187.895L160.157 190.308L151.202 185.351L151.184 185.361L155.791 192.906L153.145 194.482L146.414 183.173L149.748 181.189L160.104 186.895L160.121 186.885L154.836 178.161L157.482 176.586Z" fill="white"/>
<path d="M135.364 187.421L136.794 192.254L144.064 198.572L140.017 199.768L135.781 195.599L135.723 195.616L134.475 201.408L130.965 202.446L133.648 193.185L132.219 188.352L135.364 187.421Z" fill="white"/>
<path d="M119.946 190.768L120.229 193.755L117.282 194.034L116.999 191.047L119.946 190.768Z" fill="white"/>
<defs>
<filter id="filter0_b_2801_5219" x="-15" y="-15" width="252" height="252" filterUnits="userSpaceOnUse" color-interpolation-filters="sRGB">
<feFlood flood-opacity="0" result="BackgroundImageFix"/>
<feGaussianBlur in="BackgroundImageFix" stdDeviation="7.5"/>
<feComposite in2="SourceAlpha" operator="in" result="effect1_backgroundBlur_2801_5219"/>
<feBlend mode="normal" in="SourceGraphic" in2="effect1_backgroundBlur_2801_5219" result="shape"/>
</filter>
<linearGradient id="paint0_linear_2801_5219" x1="0" y1="0" x2="222" y2="222" gradientUnits="userSpaceOnUse">
<stop stop-color="#E8112B" stop-opacity="0.3"/>
<stop offset="1" stop-color="#E8112B" stop-opacity="0.1"/>
</linearGradient>
</defs>
</svg>
