<svg width="100" height="100" viewBox="0 0 100 100" fill="none" xmlns="http://www.w3.org/2000/svg">
<g opacity="0.2">
<path d="M67.6372 63.8788C67.4251 61.2576 67.1675 58.8182 66.7584 56.5606C66.016 52.0455 65.016 48.2273 64.016 45C61.9857 38.5455 59.9705 34.4091 58.5008 31.697C57.016 28.9849 56.0614 27.6818 55.4857 27.0606C54.9251 26.4394 54.713 26.4849 54.5463 26.5909C54.3645 26.697 54.2281 26.8485 54.4857 27.6515C54.7433 28.4394 55.4099 29.8788 56.6069 32.6212C57.7887 35.3788 59.5463 39.4849 61.3796 45.7879C62.2887 48.9394 63.1827 52.6515 63.8645 57.0303C64.2281 59.2121 64.4705 61.5606 64.6675 64.0758C64.713 65.3334 64.819 66.6364 64.8039 67.9849C64.819 69.3485 64.8342 70.6818 64.5917 71.894C64.4251 72.5152 64.2433 73.2121 63.9251 73.5758C63.6069 73.9546 63.3645 74.1061 62.8645 74.1212C61.7887 74.1212 60.1827 73.1667 58.8796 71.9697C56.1372 69.5758 54.1221 65.9546 52.2736 62.0455C51.8039 61.0606 51.3342 60.0606 50.8645 59.0606C50.5766 58.4243 50.3039 57.7728 50.016 57.1364C50.0766 57.1364 50.1372 57.1364 50.213 57.1212C50.8493 57.0152 51.8342 56.697 52.9099 55.7425C53.9554 54.8031 55.1827 53.2576 55.6524 50.7727C55.8948 49.4394 55.819 47.5152 54.8796 45.8334C54.0008 44.1212 52.3645 42.8485 50.7281 42.2424C49.0766 41.6364 47.4251 41.7424 46.3948 42.1212C46.016 42.2576 45.7281 42.4243 45.5008 42.5758C45.0918 40.7576 44.7281 38.9546 44.3948 37.1667C43.5917 33.0758 43.213 29.0758 43.4705 25.5455C43.5918 23.8182 43.9705 22.0909 44.819 21.1364L45.1524 20.8334L45.5918 20.5909C45.8948 20.4697 46.1978 20.3485 46.5008 20.3182C47.1221 20.2273 47.7433 20.3485 48.319 20.5758C49.4705 21.0758 50.4099 21.8788 51.1675 22.6364C51.9251 23.4091 52.5311 24.1212 53.0008 24.7273C53.9554 25.9394 54.4705 26.6364 54.5614 26.5758C54.6372 26.5303 54.3039 25.7273 53.5008 24.3788C53.0918 23.7121 52.5463 22.9091 51.8342 22.0303C51.1069 21.1667 50.1827 20.2121 48.8039 19.5C47.4402 18.8031 45.3493 18.7273 43.8342 20.1061C43.1221 20.8182 42.6675 21.697 42.3948 22.5909C42.2433 23.0303 42.1372 23.4849 42.0463 23.9394C41.1069 25.1515 39.6221 27.1818 37.7433 29.8485C36.1221 32.0909 34.1978 34.7879 31.7887 37.4546C29.3796 40.1061 26.3645 42.7879 22.6069 44.197C18.9099 45.7121 14.3796 45.2728 9.74327 46.7879C7.4857 47.5606 5.19782 48.8788 3.68267 51.0152C2.13721 53.1667 1.68267 55.7273 1.56145 58C1.31903 62.6061 2.22812 67.2273 4.516 70.9243C6.75842 74.6667 10.4402 77.1061 14.0463 77.7576C15.6827 78.0455 17.3948 77.9849 18.8948 77.5758C19.7887 77.3485 20.6069 77.0303 21.3796 76.6818C21.4099 78.9697 21.9099 83.7121 23.4251 89.0606C23.9554 90.9394 24.5766 92.8485 25.3342 94.8031C25.5463 95.3031 25.7887 95.8788 26.213 96.4394C26.6524 97.0152 27.2433 97.4546 27.8342 97.7425C29.016 98.3182 30.1524 98.4849 31.3493 98.4849C33.6978 98.4849 36.1978 97.2273 37.2736 95.0606C38.3493 93.0606 38.3039 90.5909 37.0766 88.8788C36.5463 88.1364 35.9705 87.6667 35.5463 87.2728C35.1069 86.8637 34.8342 86.5758 34.6372 86.2576C34.2281 85.5909 34.0918 84.7576 34.1827 84.0758C34.2584 83.4243 34.6675 82.5455 34.9251 81.5152C35.0614 81 35.1524 80.394 35.0614 79.7425C34.9857 79.1061 34.713 78.4546 34.3493 78C33.6069 77.0909 32.8948 76.7728 32.4857 76.4394C32.0918 76.1515 31.8342 75.8788 31.6069 75.5455C31.1524 74.8788 30.9554 74.197 30.8645 73.6515C30.6978 72.6212 30.7736 72.0303 30.7584 71.6515C33.9554 70.5 37.0614 70.3637 39.7584 70.5606C42.9251 70.8334 45.5766 71.5152 47.7736 72.1515C49.9705 72.7879 51.7281 73.4394 53.1524 73.9394C57.1675 75.4546 58.516 75.8182 59.016 75.7576C59.1827 75.8637 59.3342 75.9849 59.516 76.0758C60.4705 76.6061 61.5463 77.0758 62.8493 77.1061C63.5008 77.1212 64.213 76.9849 64.8342 76.6515C65.4705 76.3334 65.9554 75.8637 66.319 75.3788C67.0766 74.394 67.2887 73.4091 67.5311 72.5C67.8493 70.8485 67.819 69.3182 67.8039 67.9394C67.8039 66.5455 67.6978 65.197 67.6372 63.8788ZM46.6069 43.2728C47.516 43.2728 48.7281 43.5 49.8493 44.1667C50.9705 44.8334 51.9554 45.8788 52.3948 47.0303C52.8796 48.1667 52.8493 49.3485 52.6978 50.2576C52.3948 51.9243 51.6069 53.0455 50.9857 53.7728C50.3493 54.5 49.8039 54.8637 49.4554 55.1515C49.3796 55.2121 49.3342 55.2576 49.2584 55.3182C48.5614 53.5303 47.9251 51.7121 47.3645 49.8637C46.713 47.697 46.1524 45.5 45.6524 43.3182C45.9251 43.2879 46.2281 43.2576 46.6069 43.2728ZM30.8645 78.5C31.4402 78.9697 31.9705 79.3485 32.1524 79.6364C32.3039 79.894 32.3493 80.1061 32.1675 80.7879C32.0008 81.4546 31.516 82.3031 31.2887 83.6667C31.1069 84.9849 31.3039 86.4243 32.0918 87.7728C32.9402 89.1818 34.213 89.9243 34.6524 90.6061C35.1372 91.2424 35.2736 92.5455 34.6827 93.7121C34.1675 94.8182 32.8493 95.6515 31.2584 95.7273C30.4857 95.7728 29.5918 95.6515 28.9402 95.3788C28.6221 95.2424 28.3796 95.0758 28.1827 94.8485C27.9705 94.6212 27.7736 94.2576 27.5918 93.8485C26.7887 92.0606 26.0463 90.2122 25.4099 88.4546C23.516 83.2273 22.5311 78.5303 21.9857 76.4243C22.3039 76.2728 22.6069 76.1061 22.8948 75.9394C25.2281 74.6364 27.1221 73.2879 28.9705 72.3788C28.8645 72.7425 28.7736 73.197 28.7584 73.7576C28.7433 74.5758 28.8645 75.6212 29.4705 76.7879C29.7736 77.3637 30.2584 78 30.8645 78.5ZM48.5311 69.7728C46.2584 69.0152 43.4857 68.1818 40.016 67.8031C38.2736 67.6667 36.3645 67.5758 34.2887 67.8485C32.2281 68.1212 30.0311 68.6818 27.819 69.6818C25.6221 70.7121 23.6069 72.1515 21.4705 73.3334C19.319 74.5303 17.0311 75.3334 14.5615 74.8485C11.8645 74.3637 8.86448 72.4849 7.00085 69.4243C5.0766 66.3788 4.16751 62.3031 4.31903 58.1667C4.39479 56.1212 4.77357 54.0909 5.84933 52.5606C6.60691 51.4243 7.74327 50.5455 9.03115 49.8637C8.66751 51.1212 8.33418 53.2121 8.516 55.6364C8.71297 59.6515 10.1978 64.1818 11.4099 66.8788C12.4554 69.3485 13.6221 71.2879 14.8493 72.4849C16.0615 73.7273 17.3342 74.2576 18.1978 74.3485C19.0766 74.4546 19.516 74.2576 19.7281 74.0758C19.9402 73.894 19.9251 73.697 19.9099 73.5C19.8948 73.2879 19.8645 73.0909 19.6978 72.9243C19.5311 72.7425 19.2433 72.6061 18.7887 72.3334C17.9099 71.8637 16.1221 70.5 14.1524 65.697C13.0008 63.1061 11.319 59.0152 10.6221 55.3788C10.0766 52.8637 10.0463 50.6364 9.94024 49.4546C10.1675 49.3637 10.3796 49.2425 10.6069 49.1667C14.4705 47.7273 19.1978 48.0152 23.4099 46.197C27.5918 44.4546 30.6827 41.4243 33.0766 38.5909C35.4705 35.697 37.2584 32.894 38.7433 30.5303C40.0463 28.4243 41.0918 26.697 41.8493 25.3788V25.394C41.4251 29.1818 41.6827 33.3031 42.3645 37.5455C43.016 41.7576 43.8342 46.1667 45.0463 50.5455C45.6524 52.7273 46.3493 54.9091 47.1675 57.0455C47.5766 58.1061 48.016 59.1667 48.4705 60.197C48.9251 61.2121 49.3796 62.2121 49.8342 63.2121C51.3645 66.6061 53.1221 70.0152 55.5766 72.7424C55.1069 72.5 54.5917 72.2576 54.0008 71.9697C52.5463 71.3334 50.7887 70.5455 48.5311 69.7728Z" fill="white"/>
<path d="M62.697 26.0152C64.0304 24.6668 65.5758 23.0607 66.5152 22.0152C70.0152 18.2577 69.7728 17.8031 69.1667 17.1668C68.6364 16.591 67.9698 16.0455 64.288 20.0152C63.288 21.1213 61.9243 23.0152 61.0001 24.7577C60.0607 26.4849 59.5304 28.0001 59.8637 28.2274C60.2122 28.4546 61.3637 27.3637 62.697 26.0152Z" fill="white"/>
<path d="M66.1684 44.1519C66.5775 44.864 72.1533 42.4246 74.5775 41.0155C79.032 38.4397 78.7896 37.8034 78.3654 37.0913C77.9563 36.3791 77.5169 35.8488 73.0775 38.4246C70.6533 39.8337 65.7442 43.4397 66.1684 44.1519Z" fill="white"/>
<path d="M75.0003 67.2881C70.5306 66.5911 70.3336 67.2275 70.2124 68.0457C70.0912 68.8639 70.076 69.5305 74.5457 70.2427C77.0003 70.6214 82.3487 70.7881 82.4851 69.9699C82.6063 69.1669 77.4548 67.682 75.0003 67.2881Z" fill="white"/>
<path d="M90.3806 35.8032C90.3352 35.6214 90.2897 35.4093 90.1988 35.1517C90.0624 34.9245 89.9109 34.6669 89.7139 34.379C88.9412 33.182 86.4564 32.5002 84.5018 33.576C83.517 34.0457 82.5927 34.8032 81.9715 35.8487C81.3503 36.8638 81.0018 38.1517 81.1685 39.3942C81.3503 40.6214 81.8503 41.6669 82.5018 42.5457C83.1988 43.4093 84.0927 44.0154 84.9715 44.3487C86.5927 44.9548 88.3503 44.6366 89.4564 43.8335C90.5927 43.0154 91.1079 42.0457 91.4412 41.2426C92.0473 39.576 91.8958 38.379 91.7139 37.6214C91.2139 36.1063 90.6988 36.2881 90.3503 36.4093C89.9412 36.5608 89.7139 36.7729 89.6079 37.8184C89.517 38.3335 89.4109 39.1517 88.9261 40.1214C88.4109 41.0911 87.5321 42.0457 86.017 41.5305C85.623 41.379 85.1685 41.1063 84.7745 40.6669C84.4109 40.2123 84.0624 39.5911 83.9109 38.9851C83.623 37.7729 84.32 36.2123 85.5473 35.4245C86.7291 34.5608 88.123 34.6366 88.9261 35.2275C89.123 35.3942 89.3048 35.5305 89.4715 35.6669C89.623 35.8184 89.7442 35.9699 89.8503 36.0911C90.0776 36.3184 90.2594 36.4548 90.3503 36.4093C90.4412 36.3639 90.4564 36.1669 90.3806 35.8032Z" fill="white"/>
<path d="M97.3797 50.091C96.8645 49.2274 96.1978 48.5001 95.4857 47.8789C92.516 45.4547 89.0766 45.0759 86.819 45.1971C84.5009 45.3183 83.1978 46.0001 83.2584 46.1668C83.3191 46.4092 84.6675 46.1365 86.8039 46.3638C88.8797 46.5607 91.8948 47.3183 94.0615 49.4395C94.5766 49.985 95.0463 50.5607 95.3797 51.2426C95.7584 51.8941 95.9706 52.6971 96.0312 53.2274C96.016 53.7729 95.8645 53.985 95.3797 54.3032C94.8797 54.591 94.1675 54.8183 93.3948 54.9244C90.2887 55.3789 86.91 54.8941 84.3342 55.0153C82.1069 55.0456 80.1827 54.788 79.319 54.091C78.9251 53.8183 78.5615 53.2123 78.4251 52.8032C78.2887 52.3638 78.2887 51.9395 78.41 51.5001C78.6827 50.6213 79.2887 49.8486 79.8494 49.288C80.4251 48.7123 80.9554 48.3032 81.41 47.985C81.8494 47.6668 82.213 47.4547 82.5009 47.288C82.7887 47.1062 82.9706 46.9547 83.0918 46.8183C83.3342 46.5456 83.319 46.3486 83.2736 46.1516C83.2281 45.9547 83.1524 45.7729 82.7736 45.6971C82.5918 45.6668 82.3191 45.6668 81.9403 45.7123C81.5615 45.7426 81.0463 45.8335 80.4251 46.1062C79.8039 46.3638 79.0615 46.7577 78.2281 47.4092C77.41 48.0759 76.4403 49.0001 75.8039 50.6365C75.5009 51.4547 75.3948 52.5304 75.6827 53.5759C76.0009 54.6213 76.5009 55.5607 77.516 56.3941C79.5615 57.9244 81.9706 57.9698 84.3493 58.0001C85.6827 57.9698 86.9857 57.985 88.6221 58.0153C90.2433 58.0153 92.0009 58.0001 93.8948 57.6213C94.8342 57.4244 95.8494 57.1365 96.8494 56.4698C97.3494 56.1365 97.8342 55.6213 98.1524 55.0153C98.2736 54.6971 98.4251 54.3486 98.4706 54.0153C98.5009 53.682 98.5009 53.3638 98.5009 53.0304C98.3039 51.8486 97.91 50.9395 97.3797 50.091Z" fill="white"/>
<path d="M80.3046 11.0154C81.0015 11.879 81.8955 12.4851 82.7743 12.8184C84.3955 13.4245 86.153 13.1063 87.2591 12.3033C88.3955 11.4851 88.9106 10.5154 89.2439 9.71235C89.85 8.04568 89.6985 6.84871 89.5167 6.09114C89.0167 4.57599 88.5015 4.7578 88.153 4.87902C87.7439 5.03053 87.5167 5.24265 87.4106 6.28811C87.3197 6.80326 87.2136 7.62144 86.7288 8.59114C86.2136 9.56083 85.3349 10.5154 83.8197 10.0002C83.4258 9.84871 82.9712 9.57598 82.5773 9.13659C82.2136 8.68205 81.8652 8.06083 81.7136 7.45477C81.4258 6.24265 82.1227 4.68205 83.35 3.89417C84.5318 3.03053 85.9258 3.10629 86.7288 3.6972C86.9258 3.86386 87.1076 4.00023 87.2742 4.13659C87.4258 4.28811 87.547 4.43962 87.653 4.56083C87.8803 4.78811 88.0621 4.92447 88.153 4.87902C88.2439 4.84871 88.2591 4.63659 88.1833 4.28811C88.1379 4.10629 88.0924 3.89417 88.0015 3.63659C87.8652 3.40932 87.7136 3.15174 87.5167 2.86386C86.7439 1.66689 84.2591 0.985077 82.3046 2.06083C81.3197 2.53053 80.3955 3.28811 79.7743 4.33356C79.153 5.34871 78.8046 6.63659 78.9712 7.87901C79.153 9.10629 79.653 10.1366 80.3046 11.0154Z" fill="white"/>
<path d="M75.3031 24.879C77.3486 26.4093 79.7577 26.4547 82.1365 26.485C83.4698 26.4547 84.7728 26.4699 86.4092 26.5002C88.0304 26.5002 89.788 26.485 91.6819 26.1062C92.6213 25.9093 93.6365 25.6214 94.6365 24.9547C95.1365 24.6214 95.6213 24.1062 95.9395 23.5002C96.0607 23.182 96.2122 22.8335 96.2577 22.5002C96.288 22.1668 96.288 21.8487 96.288 21.5153C96.091 20.3032 95.6971 19.3941 95.1668 18.5456C94.6516 17.682 93.9849 16.9547 93.2728 16.3335C90.3031 13.9093 86.8637 13.5305 84.6062 13.6517C82.288 13.7729 80.9849 14.4547 81.0456 14.6214C81.1062 14.8638 82.4546 14.5911 84.591 14.8184C86.6668 15.0153 89.6819 15.7729 91.8486 17.8941C92.3637 18.4396 92.8334 19.0153 93.1668 19.6971C93.5456 20.3487 93.7577 21.1517 93.8183 21.682C93.8031 22.2275 93.6516 22.4396 93.1668 22.7578C92.6668 23.0456 91.9546 23.2729 91.1819 23.379C88.0759 23.8335 84.6971 23.3487 82.1213 23.4699C79.894 23.5002 77.9698 23.2426 77.1062 22.5456C76.7122 22.2729 76.3486 21.6668 76.2122 21.2578C76.0759 20.8184 76.0759 20.3941 76.1971 19.9547C76.4698 19.0759 77.0759 18.3032 77.6365 17.7426C78.2122 17.1668 78.7425 16.7578 79.1971 16.4396C79.6365 16.1214 80.0001 15.9093 80.288 15.7426C80.5759 15.5608 80.7577 15.4093 80.8789 15.2729C81.1213 15.0002 81.1062 14.8032 81.0607 14.6062C81.0152 14.4093 80.9395 14.2274 80.5607 14.1517C80.3789 14.1214 80.1062 14.1214 79.7274 14.1668C79.3486 14.1971 78.8334 14.2881 78.2122 14.5608C77.591 14.8184 76.8334 15.2123 76.0152 15.8638C75.1971 16.5305 74.2274 17.4547 73.591 19.0911C73.288 19.9093 73.1819 20.985 73.4698 22.0305C73.788 23.1062 74.2728 24.0456 75.3031 24.879Z" fill="white"/>
<path d="M4.5619 77.0307C4.31947 77.1519 5.51644 79.2125 8.10735 80.3185C10.6983 81.4549 13.0164 80.8337 12.9407 80.5761C12.9104 80.2731 10.8043 80.364 8.5316 79.3488C6.22857 78.3943 4.80432 76.8337 4.5619 77.0307Z" fill="white"/>
<path d="M3.89447 80.0004C3.65204 80.1368 4.66719 81.8489 6.89447 82.5459C7.97022 82.8792 9.03083 82.8641 9.74295 82.6974C10.4551 82.5307 10.8339 82.258 10.8036 82.1216C10.7126 81.8337 9.07628 82.1519 7.21265 81.5459C5.33386 80.9853 4.12174 79.8034 3.89447 80.0004Z" fill="white"/>
</g>
</svg>
