<svg width="228" height="205" viewBox="0 0 228 205" fill="none" xmlns="http://www.w3.org/2000/svg">
<path opacity="0.15" fill-rule="evenodd" clip-rule="evenodd" d="M224.764 109.541C231.633 134.887 228.125 154.074 208.844 171.862C188.59 190.547 168.77 183.292 141.421 186.429C122.073 188.648 106.02 201.3 86.5546 201.89C58.5109 202.741 22.0061 213.098 5.2264 190.562C-11.4923 168.108 17.1938 137.552 17.7937 109.541C18.3722 82.5312 -6.80738 53.1472 8.64351 31.0091C24.0435 8.94387 58.825 18.1717 85.1883 12.9781C107.523 8.57816 130.22 -6.24612 151.049 2.95527C171.622 12.0438 174.403 39.529 187.211 58.0483C199.598 75.96 219.064 88.5097 224.764 109.541Z" fill="#E8112B"/>
</svg>
