<svg width="100" height="100" viewBox="0 0 100 100" fill="none" xmlns="http://www.w3.org/2000/svg">
<g id="goal 1" opacity="0.05">
<g id="Group">
<g id="Group_2">
<path id="Vector" d="M40.1245 33.4198C36.3699 33.9516 33.682 38.591 34.6775 42.2198C36.4548 48.6879 45.9548 48.8804 47.7351 41.9364C48.2654 39.8713 47.8199 37.7152 46.5123 36.0319C44.9942 34.0743 42.6336 33.0682 40.1245 33.4198ZM41.3957 36.0228L40.629 35.2561L41.0139 34.8713C41.0411 34.8713 41.0699 34.8652 41.0987 34.8652C41.2623 34.8652 41.4184 34.9061 41.5805 34.9213L42.0396 35.3804L41.3957 36.0228ZM37.3578 36.841L39.1851 38.6682L38.0154 39.8395C37.8639 39.6879 36.6502 38.4485 36.4669 38.3379C36.8139 37.497 37.0214 37.2758 37.3578 36.841ZM37.4184 43.9728C37.0033 43.5531 36.6608 43.0667 36.4139 42.5349L37.6351 43.7561L37.4184 43.9728ZM36.2351 41.2864C36.1866 41.2379 36.1199 41.2304 36.0578 41.2137C35.973 40.547 36.029 39.8379 36.2245 39.1213L37.479 40.3758L36.4017 41.4546L36.2351 41.2864ZM41.2866 45.5743L41.1714 46.3334V45.5758C39.6563 45.5758 38.9017 45.1607 38.0033 44.4743L40.4593 42.0107C40.6078 41.8622 40.6033 41.6228 40.4548 41.4743C40.3063 41.3258 40.0654 41.3258 39.9169 41.4743L38.1714 43.2198L36.9381 41.9879L38.0154 40.9092L38.5245 41.4182C38.6714 41.5652 38.9108 41.5667 39.0593 41.4182C39.2078 41.2698 39.2078 41.0304 39.0593 40.8819L38.5502 40.3728L40.5502 38.3728C40.6987 38.2243 40.6987 37.9849 40.5502 37.8364C40.4017 37.6864 40.1623 37.6895 40.0139 37.8364L39.7199 38.1304L37.8472 36.2576C38.3366 35.7667 38.8836 35.3895 39.4608 35.1576L39.5563 35.2531L38.5517 36.2576C38.4033 36.4061 38.4033 36.6455 38.5517 36.794C38.6987 36.941 38.9381 36.9425 39.0881 36.794L40.0926 35.7895L40.8669 36.5637C41.023 36.7198 41.1245 36.6758 41.2623 36.6213C41.426 36.8395 41.6729 36.8137 41.8169 36.6682L42.573 35.9122L42.6684 36.0076C42.8154 36.1546 43.0548 36.1561 43.2048 36.0076C43.3533 35.8592 43.3533 35.6198 43.2048 35.4713L43.1093 35.3758L43.1214 35.3637C43.1381 35.347 43.1336 35.3213 43.1472 35.3016C43.982 35.6546 44.7351 36.2001 45.3154 36.9485C48.0699 40.5046 45.3987 45.4592 41.2866 45.5743Z" fill="white"/>
</g>
<g id="Group_3">
<path id="Vector_2" d="M97.9607 60.686C44.191 44.6966 48.388 46.2512 48.388 46.2512C48.2016 46.3845 48.0835 46.6239 48.0744 46.8345C48.0744 46.8375 48.0728 46.839 48.0728 46.8421C47.8607 53.1178 61.0138 87.5603 65.4107 97.833C65.6956 98.4981 66.6728 98.4178 66.8425 97.7148C68.8971 89.3603 71.2062 81.2178 73.2835 72.8163C81.4713 69.3193 89.7259 65.6557 98.041 62.1087C98.6895 61.8315 98.641 60.889 97.9607 60.686ZM57.5395 55.0996L58.3789 54.2603L60.5956 56.4769L59.6971 57.3754C58.9804 56.6209 58.2607 55.8618 57.5395 55.0996ZM71.8047 72.4815C71.5274 73.6042 71.238 74.7224 70.9516 75.8436C70.8274 75.8133 70.6971 75.8224 70.6001 75.9193L69.6138 76.9057L69.1774 76.4693C69.0289 76.3209 68.7895 76.3209 68.641 76.4693C68.4925 76.6178 68.4925 76.8572 68.641 77.0057L69.0774 77.4421L68.5122 78.0072C68.3638 78.1557 68.3638 78.3951 68.5122 78.5436C68.6592 78.6906 68.8986 78.6921 69.0486 78.5436L69.6138 77.9784L70.2471 78.6118C70.2032 78.7815 70.1592 78.9451 70.1153 79.1148C69.991 79.0845 69.8607 79.0936 69.7622 79.1906L68.4289 80.5239L67.8956 79.9906C67.7471 79.8421 67.5077 79.8421 67.3592 79.9906C67.2107 80.139 67.2107 80.3784 67.3592 80.5269L67.8925 81.0603L67.8077 81.1451C67.6592 81.2936 67.6592 81.533 67.8077 81.6815C67.8819 81.7557 67.9774 81.7921 68.0759 81.7921C68.1744 81.7921 68.2698 81.7557 68.3441 81.6815L68.4289 81.5966L68.9304 82.0981C69.0047 82.1724 69.1001 82.2087 69.1986 82.2087C69.241 82.2087 69.2744 82.1754 69.3138 82.1618C69.2759 82.3057 69.238 82.4512 69.2001 82.5966C69.0562 82.5163 68.8789 82.5118 68.7562 82.6345L67.4713 83.9193L66.4259 82.8739C66.2774 82.7254 66.038 82.7254 65.8895 82.8739C65.741 83.0224 65.741 83.2618 65.8895 83.4103L66.935 84.4557L65.2683 86.1224C65.1471 86.0981 65.0229 86.1103 64.9289 86.2042C64.7804 86.3527 64.7804 86.5921 64.9289 86.7406L66.7744 88.586L65.1335 90.2269L64.3138 89.4057C64.1668 89.2587 63.9274 89.2557 63.7774 89.4057C63.7183 89.4648 63.7001 89.5421 63.6895 89.6193C58.538 76.6148 51.2516 56.5936 49.8365 49.0709C57.8486 57.7951 64.5547 64.5072 71.8047 72.4815ZM62.1213 59.9284L62.4122 59.6375L64.4562 61.6815C64.4607 61.686 64.4683 61.6845 64.4744 61.689L64.1244 62.039C63.4562 61.336 62.785 60.6239 62.1213 59.9284ZM67.0456 65.1178L68.5259 63.6375L70.038 65.1512L68.5032 66.686C68.0153 66.1648 67.535 65.636 67.0456 65.1178ZM70.4653 77.7587L70.1486 77.4421L70.6804 76.9103C70.6077 77.1936 70.538 77.4769 70.4653 77.7587ZM69.4668 81.5603L68.9653 81.0587L69.8319 80.1921C69.7107 80.6527 69.591 81.1087 69.4698 81.5663C69.4668 81.5648 69.4683 81.5618 69.4668 81.5603ZM63.8425 90.0012L64.5971 90.7572L64.2729 91.0815C64.1304 90.7284 63.988 90.3678 63.8425 90.0012ZM65.9244 95.1421C65.5077 94.136 65.0547 93.0254 64.5804 91.8466L65.1335 91.2936C65.5047 91.6648 66.2668 92.639 66.6516 92.3178C66.4077 93.2587 66.1622 94.1981 65.9244 95.1421ZM66.7486 91.936C66.7319 91.8784 66.7259 91.8163 66.6804 91.7694L65.6683 90.7572L67.541 88.8845C67.2744 89.8981 67.0138 90.9148 66.7486 91.936ZM67.8304 87.786C67.7092 87.7603 67.5819 87.7709 67.488 87.8663L67.3092 88.0451L65.8607 86.5966L67.4698 84.9875L67.7168 85.2345C67.8638 85.3815 68.1032 85.383 68.2532 85.2345C68.4016 85.086 68.4016 84.8466 68.2532 84.6981L68.0062 84.4512L68.9622 83.4951C68.9607 83.4966 67.8304 87.786 67.8304 87.786ZM73.9713 70.8663L76.4304 68.4072L76.7213 68.6981C76.8713 68.8481 77.1107 68.8436 77.2577 68.6981C77.4062 68.5496 77.4062 68.3103 77.2577 68.1618L76.9668 67.8724L79.2865 65.5527C79.435 65.4042 79.435 65.1648 79.2865 65.0163C79.138 64.8678 78.8986 64.8678 78.7501 65.0163L76.4304 67.336L75.0653 65.9709C74.9168 65.8239 74.6774 65.8209 74.5289 65.9709C74.3804 66.1193 74.3804 66.3587 74.5289 66.5072L75.8941 67.8724L72.6259 71.1406C72.085 70.5466 71.5319 69.9618 70.9865 69.3709L71.6925 68.6648L72.9319 69.9042C73.0789 70.0512 73.3183 70.0527 73.4683 69.9042C73.6168 69.7557 73.6168 69.5163 73.4683 69.3678L72.2289 68.1284L73.5774 66.78C73.7259 66.6315 73.7259 66.3921 73.5774 66.2436C73.4289 66.0951 73.1895 66.0951 73.041 66.2436L71.6925 67.5921L70.9668 66.8663C70.8183 66.7178 70.5789 66.7178 70.4304 66.8663C70.2819 67.0148 70.2819 67.2542 70.4304 67.4027L71.1562 68.1284L70.4713 68.8133C69.9865 68.289 69.5032 67.7633 69.0153 67.2421L70.8077 65.4496C70.9562 65.3012 70.9562 65.0618 70.8077 64.9133C70.7804 64.886 70.741 64.889 70.7092 64.8724C70.6956 64.7981 70.6804 64.7224 70.6228 64.6648L69.0592 63.1012L69.085 63.0754C69.2335 62.9269 69.2335 62.6875 69.085 62.539C68.9365 62.3906 68.6971 62.3906 68.5486 62.539L68.5229 62.5648L67.191 61.233C67.0425 61.0845 66.8032 61.0845 66.6547 61.233C66.5062 61.3815 66.5062 61.6209 66.6547 61.7693L67.9865 63.1012L66.5213 64.5663C65.8925 63.8996 65.2698 63.2481 64.6425 62.586L66.5835 60.6451C66.7319 60.4966 66.7319 60.2572 66.5835 60.1087C66.435 59.9603 66.1956 59.9603 66.0471 60.1087L64.9956 61.1603C64.991 61.1557 64.9925 61.1481 64.988 61.1421L62.9441 59.0981L63.5122 58.53C63.6607 58.3815 63.6607 58.1421 63.5122 57.9936C63.3638 57.8451 63.1244 57.8451 62.9759 57.9936L62.4077 58.5618L61.7471 57.9012C61.3956 57.5496 60.8562 58.0815 61.2107 58.4375L61.8713 59.0981L61.5941 59.3754C61.4335 59.2072 60.385 58.0996 60.2138 57.9209L61.1819 56.9527C61.2077 56.9587 61.2289 56.983 61.2562 56.983C61.3532 56.983 61.4501 56.9466 61.5244 56.8724C61.6183 56.7784 61.6304 56.6512 61.6047 56.53L61.7138 56.4209C61.8622 56.2724 61.8622 56.033 61.7138 55.8845C61.5653 55.736 61.3259 55.736 61.1774 55.8845L61.1244 55.9375L58.9077 53.7209L60.0759 52.5527C60.2244 52.4042 60.2244 52.1648 60.0759 52.0163C59.9274 51.8678 59.688 51.8678 59.5395 52.0163L58.3713 53.1845L57.838 52.6512C57.6895 52.5027 57.4501 52.5027 57.3016 52.6512C57.1532 52.7996 57.1532 53.039 57.3016 53.1875L57.835 53.7209L57.0092 54.5466C55.0819 52.5103 53.1683 50.4557 51.2562 48.3784L95.5107 61.5375C88.3638 64.6103 82.7471 67.1042 73.9713 70.8663Z" fill="white"/>
</g>
<g id="Group_4">
<path id="Vector_3" d="M57.7591 41.8027C58.1561 41.9406 58.5864 41.7285 58.7227 41.333C61.2515 33.9921 55.5879 24.1694 42.8697 23.4254C24.2848 22.3194 21.65 42.0148 28.5833 51.3603C31.9621 55.9088 37.6591 58.2255 42.65 57.3512C43.0621 57.28 43.3394 56.8876 43.2667 56.477C43.1954 56.0648 42.797 55.7724 42.3924 55.8603C37.8379 56.6345 32.7818 54.477 29.7985 50.4588C23.6864 42.2239 25.4636 23.8951 42.7788 24.9391C54.4409 25.6194 59.503 34.4148 57.2879 40.8406C57.1545 41.2361 57.3636 41.6664 57.7591 41.8027Z" fill="white"/>
</g>
<g id="Group_5">
<path id="Vector_4" d="M43.1708 66.2544C33.6148 68.1135 23.1481 63.6574 17.7057 55.4256C5.98902 37.6998 19.7618 13.4983 41.9254 14.2922C58.939 14.9059 71.1057 31.1938 68.2011 40.6589C68.0784 41.0589 68.3011 41.4816 68.7027 41.6044C69.0966 41.7301 69.5269 41.5044 69.6481 41.1029C72.8527 30.6741 59.9981 13.4286 41.9784 12.7771C18.4557 11.9756 4.1466 37.665 16.4436 56.2589C22.2027 64.971 33.2936 69.715 43.4618 67.7422C43.8724 67.6619 44.1405 67.265 44.0617 66.8529C43.983 66.4407 43.5754 66.1816 43.1708 66.2544Z" fill="white"/>
</g>
<g id="Group_6">
<path id="Vector_5" d="M42.7287 78.7603C28.7272 79.3452 14.7075 71.4709 7.86358 59.2346C-5.65915 35.0467 10.6848 5.37394 37.7772 3.33303C61.3787 1.5194 84.6151 22.03 78.256 43.1573C78.1348 43.5588 78.3621 43.9815 78.7621 44.1012C79.1696 44.2255 79.5878 43.9952 79.706 43.5952C86.3908 21.3921 62.3454 -0.0306038 37.6621 1.82091C9.62266 3.93909 -7.59249 34.6906 6.54085 59.9739C13.6515 72.6876 28.2105 80.8527 42.7878 80.2739C43.206 80.2558 43.5318 79.9042 43.5151 79.4861C43.4999 79.0694 43.1469 78.7876 42.7287 78.7603Z" fill="white"/>
</g>
<g id="Group_7">
<path id="Vector_6" d="M56.9936 63.3054L59.2542 65.566L58.8497 65.9705C58.7012 66.119 58.7012 66.3584 58.8497 66.5069C58.9997 66.6569 59.2391 66.6524 59.386 66.5069L59.7906 66.1024L61.0148 67.3281C60.6527 67.6902 60.0997 68.0766 60.4512 68.4281C60.5982 68.5751 60.8375 68.5766 60.9875 68.4281L61.5512 67.8645L62.3921 68.7054L61.4754 69.6221C61.3269 69.7705 61.3269 70.0099 61.4754 70.1584C61.6224 70.3054 61.8618 70.3069 62.0118 70.1584L62.9285 69.2418L65.0497 71.363L64.3572 72.0554C64.2088 72.2039 64.2088 72.4433 64.3572 72.5918C64.5042 72.7387 64.7436 72.7402 64.8936 72.5918L65.586 71.8993L67.4315 73.7448C67.5785 73.8918 67.8179 73.8933 67.9679 73.7448C68.1163 73.5963 68.1163 73.3569 67.9679 73.2084L66.1224 71.363L67.0678 70.4175C67.2163 70.269 67.2163 70.0296 67.0678 69.8812C66.9194 69.7327 66.68 69.7327 66.5315 69.8812L65.586 70.8266L63.4648 68.7054L63.7603 68.4099C63.9088 68.2615 63.9088 68.0221 63.7603 67.8736C63.6118 67.7251 63.3724 67.7251 63.2239 67.8736L62.9285 68.169L62.0875 67.3281L62.733 66.6827C62.8815 66.5342 62.8815 66.2948 62.733 66.1463C62.5845 65.9978 62.3451 65.9978 62.1966 66.1463L61.5512 66.7918L60.3269 65.5675L60.8936 65.0008C61.0421 64.8524 61.0421 64.613 60.8936 64.4645C60.7451 64.3175 60.5057 64.3145 60.3572 64.4645L59.7906 65.0312L57.53 62.7705C57.3815 62.6221 57.1421 62.6221 56.9936 62.7705C56.8451 62.919 56.8466 63.1584 56.9936 63.3054Z" fill="white"/>
</g>
</g>
</g>
</svg>
