<svg width="100" height="100" viewBox="0 0 100 100" fill="none" xmlns="http://www.w3.org/2000/svg">
<g id="deal" opacity="0.05">
<g id="_x38_6">
<path id="Vector" d="M96.3103 56.0389C94.7928 56.4796 92.2237 57.96 90.6469 58.9478C85.4078 51.8803 79.9798 41.646 78.3429 33.0027C80.8754 32.3037 86.3401 29.9677 88.8438 28.8021C91.2577 34.4674 92.7712 39.2745 94.4082 42.4912C94.6828 43.0313 95.3456 43.2505 95.8917 42.9737C96.4346 42.6973 96.6507 42.0331 96.3742 41.4902C94.8739 38.5439 91.2878 28.427 90.395 26.7721C90.3901 26.7632 90.3812 26.7584 90.3762 26.7496C89.9483 25.7884 88.8381 25.7986 88.3934 26.5795C86.0469 27.7188 79.0602 30.6782 77.3688 30.9769C76.5384 30.7122 75.8372 31.4187 75.9526 32.1813C76.0514 32.8309 76.1749 33.4905 76.3158 34.1565C65.7448 37.2002 61.3607 30.8034 54.4941 32.042C53.1265 32.2895 51.7707 32.7372 50.4607 33.2735C42.6595 28.364 31.604 34.5678 25.7013 31.2026C23.8451 30.1295 21.9256 29.1016 19.9922 28.0609C20.1517 27.227 20.2907 26.6268 20.2208 26.3307C20.005 25.4095 8.71543 20.4089 8.47653 20.4254C8.46486 20.4232 8.45597 20.4155 8.44412 20.4137C7.84383 20.3225 7.28087 20.7419 7.19183 21.3443C6.59733 25.3811 3.30921 34.7878 2.3126 38.8801C2.16899 39.4718 2.53233 40.0685 3.12401 40.2128C3.73058 40.357 4.31557 39.9809 4.45673 39.4014C5.43406 35.3762 8.07774 27.9411 9.11847 23.0356C11.2515 24.0729 16.0379 26.2544 17.9147 27.181C16.9932 32.0442 14.4607 44.6469 11.3097 54.0144C10.2442 53.3801 8.90203 52.5686 7.97667 52.0242C6.89951 51.3924 5.7444 52.769 6.62267 53.7146C6.73155 54.256 6.8222 54.826 6.96555 55.3132C8.38659 56.3601 10.2887 57.5266 11.9168 58.2085C12.2714 58.0124 12.5371 57.3027 12.626 56.9073C14.0385 57.8173 15.448 59.0857 16.8605 59.9955C15.712 61.2096 15.8594 64.7396 18.3915 67.2102C19.4748 68.2672 21.078 68.868 22.5425 68.4862C21.8973 72.7313 25.8398 75.5653 29.4734 74.6265C29.422 78.5231 33.2659 81.4845 37.0636 80.1914C37.6 82.1647 39.1619 84.0197 41.1029 84.6631C43.0439 85.3066 45.296 84.914 46.9049 83.6518C47.1387 83.4683 47.3591 83.3145 47.5812 83.1577C50.5203 83.9817 53.5116 83.5571 56.1257 82.3641C59.3491 83.7636 62.8958 81.4254 63.3662 78.4901C66.6783 80.1027 70.422 77.4969 70.7694 74.5808C72.2907 75.0019 74.0079 74.6344 75.2237 73.6276C76.4394 72.6208 77.3517 70.6404 77.2215 69.0673C81.5773 66.5967 85.7358 64.2361 90.1909 61.7088C90.2094 61.7159 90.2293 61.7158 90.2482 61.7219C90.9869 62.6717 91.091 62.6617 91.4418 62.5649C92.8169 62.2274 95.7084 60.9426 96.9134 60.199C97.2443 59.381 97.2706 59.2533 97.4058 57.8431C98.1989 57.0007 97.3574 55.726 96.3103 56.0389ZM53.1412 79.378C53.3743 79.5814 53.6377 79.8098 53.9256 80.0399C52.4239 80.7656 51.0528 80.8344 50.2223 80.6109C49.0804 80.3027 47.4939 79.3021 46.7671 78.2575C47.0814 77.2581 47.578 76.3975 47.7702 75.1765C49.948 76.8579 51.5089 77.9543 53.1412 79.378ZM45.631 74.3236C45.6634 74.9411 45.4128 75.6268 45.0896 76.4354C44.3889 78.1936 44.4319 78.6387 44.3673 79.4225C44.3416 79.9845 44.3089 80.759 44.6142 81.4061C42.4592 82.1911 39.9507 80.2005 39.1733 78.2295C40.7548 76.4057 42.2072 74.4565 43.5152 72.4247C43.5189 72.4246 43.522 72.4265 43.5257 72.4264C44.5353 72.3668 45.5779 73.3154 45.631 74.3236ZM42.0222 70.7101C41.4412 71.5561 40.2343 73.6403 37.5109 76.7803C37.4147 76.8165 37.312 76.8339 37.2276 76.8971C36.4837 77.4514 35.4353 77.6173 34.5571 77.3186C33.6789 77.0192 32.9501 76.2487 32.6995 75.3554C32.4882 74.6033 32.4889 73.411 32.5952 72.5533C33.3583 71.6104 32.9786 71.6065 36.8686 67.2255L37.5888 66.412C37.6308 66.3643 37.6478 66.306 37.6801 66.2537C38.6397 66.1938 39.4086 66.283 40.0438 66.5455C41.3299 67.0769 42.2511 68.9611 42.0149 70.5774C42.0083 70.6231 42.0232 70.665 42.0222 70.7101ZM30.7901 71.3697C29.4155 71.9451 27.6901 71.6759 26.5881 70.6765C25.4428 69.6371 25.0103 67.8505 25.5371 66.3974C28.2457 63.934 30.3679 60.6925 33.2783 62.1567C34.6921 62.8698 35.5265 64.5005 35.4913 65.1159C35.4856 65.2178 35.5125 65.3114 35.5331 65.4067C34.3579 66.7328 31.625 69.7796 30.7901 71.3697ZM25.0483 63.8093C24.5974 64.2684 24.1626 64.6905 23.7464 65.0411C22.444 65.4765 20.7964 64.887 20.1377 63.6783C19.4481 62.4133 19.9112 60.6046 21.096 59.7909C23.941 59.5515 25.7536 62.3214 25.0483 63.8093ZM54.8861 34.2127C60.5545 33.1908 65.8976 39.4022 76.8356 36.3021C78.894 43.987 83.3059 52.3349 87.6914 58.616C83.2158 60.1007 79.6796 62.054 75.4587 65.3494C74.6956 63.5927 73.6003 62.4955 72.037 60.9748C66.5632 55.6375 60.1309 47.9899 53.4549 44.2517C53.633 44.2307 53.8069 44.2147 53.9598 44.2189C54.5709 44.2641 55.0764 43.7586 55.0951 43.1497C55.1138 42.5407 54.6348 42.0324 54.0259 42.0144C51.8516 41.929 48.6096 43.3493 47.0399 45.0037C44.4604 47.6959 42.979 51.7602 39.7717 52.9419C38.8181 53.2944 37.5572 53.2248 37.1069 52.5038C36.7357 51.8956 36.5562 50.5945 36.7228 49.7149C37.2412 46.8943 38.416 45.1279 40.1494 42.754C41.416 41.012 43.5042 39.3138 46.1825 37.8439C48.8437 36.3985 51.8602 34.7606 54.8861 34.2127ZM24.6026 33.1155C30.9339 36.7229 40.8778 31.5481 47.9271 34.4325C44.3834 36.2052 40.7086 38.2365 38.3664 41.4543C36.5138 43.9927 35.1553 46.0427 34.5542 49.3099C34.3216 50.5399 34.4767 52.4263 35.2299 53.6621C36.3116 55.3946 38.6874 55.6978 40.5357 55.0106C43.2108 54.0271 44.8889 51.6597 46.357 49.5102C47.9685 47.1464 48.6382 46.1816 50.5016 45.2311C57.3738 48.3051 63.7767 55.8524 69.2782 61.3539C70.6858 62.7615 71.1174 63.1142 72.1304 64.2276C75.2963 67.7048 73.6598 71.2918 71.0066 70.9293C69.0844 70.673 67.4815 68.8053 65.9816 67.4036C63.2767 64.8782 60.4511 62.1503 58.1059 59.3103C57.7196 58.84 57.0231 58.7739 56.5535 59.1624C56.0839 59.5502 56.0171 60.2453 56.4055 60.7149C58.8297 63.651 61.717 66.44 64.4766 69.0164C65.5737 70.0417 66.7746 71.3538 68.2527 72.2267C67.6143 74.6968 65.0378 76.0296 62.6993 75.2362C60.9806 74.651 60.2346 73.6619 52.8519 66.1678C52.4261 65.7348 51.7267 65.7291 51.2922 66.1563C50.8585 66.5836 50.8528 67.2822 51.2808 67.716C58.2187 74.75 58.9923 75.6948 60.5858 76.6558C60.1419 78.6712 58.7033 79.4338 57.5207 79.3607C56.5362 79.3435 55.5733 78.573 54.5917 77.7164C52.1094 75.5504 49.3148 73.7377 46.9193 71.6466C46.7956 71.5386 46.6539 71.4689 46.5063 71.4253C45.8818 70.8275 45.0933 70.4031 44.2366 70.2664C44.2976 68.0802 43.1396 65.4373 40.8868 64.5062C39.9292 64.1108 38.8397 63.9753 37.5272 64.0582C37.1119 62.6438 35.9351 61.026 34.272 60.1878C31.4257 58.751 29.0767 60.0589 27.1803 61.7247C26.3697 59.1351 23.7434 57.2294 20.8558 57.6085C20.7751 57.6193 20.708 57.6582 20.6345 57.6848C20.4763 57.6832 20.3218 57.7141 20.1714 57.7834C17.7855 55.9187 16.3333 55.18 13.7073 53.7713C16.2771 45.8637 18.405 36.064 19.5491 30.3296C21.2438 31.2413 22.9393 32.1536 24.6026 33.1155Z" fill="white"/>
<path id="Vector_2" d="M12.3748 31.0133C13.4513 30.5947 13.7214 29.2744 12.9112 28.4642C11.9373 27.4902 10.3198 28.1205 10.2594 29.496C10.2357 30.0367 10.4741 30.5393 10.8956 30.8417C11.3285 31.1529 11.8861 31.2029 12.3748 31.0133Z" fill="white"/>
<path id="Vector_3" d="M80.4589 35.2246C79.6686 37.3923 81.4538 39.9726 83.9285 39.3025C85.4286 38.8996 86.2637 37.5468 85.9592 36.013C85.3633 33.0082 81.3944 32.6582 80.4589 35.2246ZM83.3562 37.1727C83.0934 37.2395 82.9154 37.1978 82.7574 37.0262C82.4281 36.6674 82.3 35.7947 82.8967 35.7165C83.3802 35.6538 83.7124 36.0208 83.7957 36.4431C83.9113 37.0233 83.4934 37.1353 83.3562 37.1727Z" fill="white"/>
<path id="Vector_4" d="M43.6889 27.0591C43.9984 27.5809 44.6735 27.7567 45.2005 27.4461C45.7246 27.1352 45.8977 26.4588 45.5875 25.9346L41.9469 19.7865C41.6367 19.2616 40.961 19.0893 40.4361 19.3988C39.9119 19.709 39.7382 20.3854 40.0484 20.9096L43.6889 27.0591Z" fill="white"/>
<path id="Vector_5" d="M50.3076 27.0371C50.8426 27.0371 51.3129 26.6464 51.3962 26.1014L52.8984 16.3021C52.991 15.6996 52.5774 15.1366 51.9757 15.0447C51.3761 14.95 50.8103 15.365 50.7184 15.9674L49.2162 25.7668C49.1135 26.4345 49.6297 27.0371 50.3076 27.0371Z" fill="white"/>
<path id="Vector_6" d="M58.7435 25.8845L61.8743 21.1906C62.2125 20.6836 62.0753 19.9993 61.5684 19.6611C61.0614 19.3229 60.3771 19.4601 60.0389 19.967L56.9082 24.661C56.57 25.1679 56.7071 25.8522 57.2141 26.1904C57.7191 26.5278 58.4051 26.3922 58.7435 25.8845Z" fill="white"/>
</g>
</g>
</svg>
