<svg width="200" height="200" viewBox="0 0 200 200" fill="none" xmlns="http://www.w3.org/2000/svg">
<g opacity="0.05">
<path d="M190.625 56.25H171.875C171.046 56.25 170.251 56.5792 169.665 57.1653C169.079 57.7513 168.75 58.5462 168.75 59.375V178.125C168.75 178.954 169.079 179.749 169.665 180.335C170.251 180.921 171.046 181.25 171.875 181.25H190.625C191.454 181.25 192.249 180.921 192.835 180.335C193.421 179.749 193.75 178.954 193.75 178.125V59.375C193.75 58.5462 193.421 57.7513 192.835 57.1653C192.249 56.5792 191.454 56.25 190.625 56.25ZM187.5 175H175V62.5H187.5V175Z" fill="#E8112B"/>
<path d="M159.375 181.25C160.204 181.25 160.999 180.921 161.585 180.335C162.171 179.749 162.5 178.954 162.5 178.125V84.375C162.5 83.5462 162.171 82.7513 161.585 82.1653C160.999 81.5792 160.204 81.25 159.375 81.25H140.625C139.796 81.25 139.001 81.5792 138.415 82.1653C137.829 82.7513 137.5 83.5462 137.5 84.375V178.125C137.5 178.954 137.829 179.749 138.415 180.335C139.001 180.921 139.796 181.25 140.625 181.25H159.375ZM143.75 87.5H156.25V175H143.75V87.5Z" fill="#E8112B"/>
<path d="M128.125 181.25C128.954 181.25 129.749 180.921 130.335 180.335C130.921 179.749 131.25 178.954 131.25 178.125V106.25C131.25 105.421 130.921 104.626 130.335 104.04C129.749 103.454 128.954 103.125 128.125 103.125H109.375C108.546 103.125 107.751 103.454 107.165 104.04C106.579 104.626 106.25 105.421 106.25 106.25V178.125C106.25 178.954 106.579 179.749 107.165 180.335C107.751 180.921 108.546 181.25 109.375 181.25H128.125ZM112.5 109.375H125V175H112.5V109.375Z" fill="#E8112B"/>
<path d="M96.875 181.25C97.7038 181.25 98.4987 180.921 99.0847 180.335C99.6708 179.749 100 178.954 100 178.125V131.25C100 130.421 99.6708 129.626 99.0847 129.04C98.4987 128.454 97.7038 128.125 96.875 128.125H78.125C77.2962 128.125 76.5013 128.454 75.9153 129.04C75.3292 129.626 75 130.421 75 131.25V178.125C75 178.954 75.3292 179.749 75.9153 180.335C76.5013 180.921 77.2962 181.25 78.125 181.25H96.875ZM81.25 134.375H93.75V175H81.25V134.375Z" fill="#E8112B"/>
<path d="M65.625 181.25C66.4538 181.25 67.2487 180.921 67.8347 180.335C68.4208 179.749 68.75 178.954 68.75 178.125V143.75C68.75 142.921 68.4208 142.126 67.8347 141.54C67.2487 140.954 66.4538 140.625 65.625 140.625H46.875C46.0462 140.625 45.2513 140.954 44.6653 141.54C44.0792 142.126 43.75 142.921 43.75 143.75V178.125C43.75 178.954 44.0792 179.749 44.6653 180.335C45.2513 180.921 46.0462 181.25 46.875 181.25H65.625ZM50 146.875H62.5V175H50V146.875Z" fill="#E8112B"/>
<path d="M34.375 181.25C35.2038 181.25 35.9987 180.921 36.5847 180.335C37.1708 179.749 37.5 178.954 37.5 178.125V159.375C37.5 158.546 37.1708 157.751 36.5847 157.165C35.9987 156.579 35.2038 156.25 34.375 156.25H15.625C14.7962 156.25 14.0013 156.579 13.4153 157.165C12.8292 157.751 12.5 158.546 12.5 159.375V178.125C12.5 178.954 12.8292 179.749 13.4153 180.335C14.0013 180.921 14.7962 181.25 15.625 181.25H34.375ZM18.75 162.5H31.25V175H18.75V162.5Z" fill="#E8112B"/>
<path d="M84.375 56.25H90.625C91.4538 56.25 92.2487 55.9208 92.8347 55.3347C93.4208 54.7487 93.75 53.9538 93.75 53.125C93.75 52.2962 93.4208 51.5013 92.8347 50.9153C92.2487 50.3292 91.4538 50 90.625 50H87.5V46.875C87.5 46.0462 87.1708 45.2513 86.5847 44.6653C85.9987 44.0792 85.2038 43.75 84.375 43.75C83.5462 43.75 82.7513 44.0792 82.1653 44.6653C81.5792 45.2513 81.25 46.0462 81.25 46.875V50.5375C79.1659 51.2753 77.4096 52.726 76.2914 54.6332C75.1731 56.5404 74.7649 58.7814 75.1388 60.9604C75.5127 63.1395 76.6446 65.1162 78.3347 66.5416C80.0247 67.9669 82.1641 68.7491 84.375 68.75C85.2038 68.75 85.9987 69.0792 86.5847 69.6653C87.1708 70.2513 87.5 71.0462 87.5 71.875C87.5 72.7038 87.1708 73.4987 86.5847 74.0847C85.9987 74.6708 85.2038 75 84.375 75H78.125C77.2962 75 76.5013 75.3292 75.9153 75.9153C75.3292 76.5013 75 77.2962 75 78.125C75 78.9538 75.3292 79.7487 75.9153 80.3347C76.5013 80.9208 77.2962 81.25 78.125 81.25H81.25V84.375C81.25 85.2038 81.5792 85.9987 82.1653 86.5847C82.7513 87.1708 83.5462 87.5 84.375 87.5C85.2038 87.5 85.9987 87.1708 86.5847 86.5847C87.1708 85.9987 87.5 85.2038 87.5 84.375V80.7125C89.5841 79.9747 91.3404 78.524 92.4586 76.6168C93.5769 74.7096 93.9851 72.4686 93.6112 70.2896C93.2373 68.1105 92.1054 66.1338 90.4153 64.7084C88.7253 63.2831 86.5859 62.5009 84.375 62.5C83.5462 62.5 82.7513 62.1708 82.1653 61.5847C81.5792 60.9987 81.25 60.2038 81.25 59.375C81.25 58.5462 81.5792 57.7513 82.1653 57.1653C82.7513 56.5792 83.5462 56.25 84.375 56.25Z" fill="#E8112B"/>
<path d="M190.625 18.75H171.875C171.046 18.75 170.251 19.0792 169.665 19.6653C169.079 20.2513 168.75 21.0462 168.75 21.875C168.75 22.7038 169.079 23.4987 169.665 24.0847C170.251 24.6708 171.046 25 171.875 25H183.081L139.331 68.75H121.744C121.829 67.7191 121.875 66.6773 121.875 65.625C121.875 58.5037 119.847 51.5298 116.028 45.5188C112.21 39.5078 106.759 34.7083 100.313 31.6817C93.8668 28.6552 86.6921 27.5266 79.6281 28.428C72.5642 29.3295 65.9029 32.2237 60.4235 36.7721C54.944 41.3205 50.873 47.3351 48.6865 54.1124C46.4999 60.8897 46.2884 68.1494 48.0765 75.0425C49.8646 81.9356 53.5785 88.1771 58.7838 93.0369C63.9891 97.8967 70.4705 101.174 77.47 102.485L64.3309 115.625H40.6251C40.2147 115.625 39.8083 115.706 39.4292 115.863C39.05 116.02 38.7055 116.25 38.4153 116.54L7.16532 147.79C6.57925 148.376 6.25 149.171 6.25 150C6.25 150.829 6.57925 151.624 7.16532 152.21C7.75138 152.796 8.54626 153.125 9.37508 153.125C10.2039 153.125 10.9988 152.796 11.5848 152.21L41.9192 121.875H65.6251C66.0355 121.875 66.4418 121.794 66.821 121.637C67.2001 121.48 67.5446 121.25 67.8348 120.96L85.6954 103.099C93.775 102.804 101.544 99.91 107.848 94.8479C114.152 89.7857 118.655 82.8252 120.689 75H140.625C141.035 75 141.442 74.9192 141.821 74.7622C142.2 74.6051 142.545 74.3749 142.835 74.0848L187.5 29.4195V40.625C187.5 41.4538 187.829 42.2487 188.415 42.8347C189.001 43.4208 189.796 43.75 190.625 43.75C191.454 43.75 192.249 43.4208 192.835 42.8347C193.421 42.2487 193.75 41.4538 193.75 40.625V21.875C193.75 21.0462 193.421 20.2513 192.835 19.6653C192.249 19.0792 191.454 18.75 190.625 18.75ZM84.3751 96.875C78.1944 96.875 72.1525 95.0422 67.0135 91.6084C61.8745 88.1746 57.8691 83.294 55.5038 77.5839C53.1386 71.8737 52.5197 65.5903 53.7255 59.5284C54.9313 53.4665 57.9076 47.8983 62.278 43.5279C66.6484 39.1575 72.2166 36.1812 78.2785 34.9755C84.3404 33.7697 90.6237 34.3885 96.3339 36.7538C102.044 39.119 106.925 43.1244 110.359 48.2634C113.792 53.4025 115.625 59.4443 115.625 65.625C115.616 73.9101 112.32 81.8532 106.462 87.7117C100.603 93.5702 92.6602 96.8656 84.3751 96.875Z" fill="#E8112B"/>
</g>
</svg>
