<svg width="140" height="140" viewBox="0 0 140 140" fill="none" xmlns="http://www.w3.org/2000/svg">
<g opacity="0.15">
<path d="M56.1719 46.7878C50.9155 47.5323 47.1525 54.0275 48.5461 59.1078C51.0343 68.1632 64.3343 68.4326 66.8268 58.7111C67.5692 55.8199 66.9455 52.8014 65.1149 50.4447C62.9895 47.7041 59.6846 46.2956 56.1719 46.7878ZM57.9516 50.432L56.8783 49.3587L57.4171 48.8199C57.4552 48.8199 57.4955 48.8114 57.5358 48.8114C57.7649 48.8114 57.9834 48.8687 58.2104 48.8899L58.8531 49.5326L57.9516 50.432ZM52.2986 51.5775L54.8568 54.1356L53.2192 55.7753C53.0071 55.5632 51.308 53.8281 51.0513 53.6732C51.5371 52.4959 51.8277 52.1862 52.2986 51.5775ZM52.3834 61.562C51.8022 60.9744 51.3228 60.2935 50.9771 59.549L52.6868 61.2587L52.3834 61.562ZM50.7268 57.8011C50.6589 57.7332 50.5655 57.7226 50.4786 57.6993C50.3598 56.7659 50.4383 55.7732 50.7119 54.7699L52.4683 56.5262L50.9601 58.0365L50.7268 57.8011ZM57.7989 63.8041L57.6377 64.8668V63.8062C55.5165 63.8062 54.4601 63.225 53.2022 62.2641L56.6407 58.815C56.8486 58.6072 56.8422 58.272 56.6343 58.0641C56.4265 57.8562 56.0892 57.8562 55.8813 58.0641L53.4377 60.5078L51.711 58.7832L53.2192 57.2729L53.9319 57.9856C54.1377 58.1914 54.4728 58.1935 54.6807 57.9856C54.8886 57.7778 54.8886 57.4426 54.6807 57.2347L53.968 56.522L56.768 53.722C56.9758 53.5141 56.9758 53.179 56.768 52.9711C56.5601 52.7611 56.2249 52.7653 56.0171 52.9711L55.6055 53.3826L52.9837 50.7608C53.6689 50.0735 54.4346 49.5453 55.2428 49.2208L55.3765 49.3544L53.9701 50.7608C53.7622 50.9687 53.7622 51.3038 53.9701 51.5117C54.1758 51.7175 54.511 51.7196 54.721 51.5117L56.1274 50.1053L57.2113 51.1893C57.4298 51.4078 57.5719 51.3462 57.7649 51.2699C57.994 51.5753 58.3398 51.5393 58.5413 51.3356L59.5998 50.2772L59.7334 50.4108C59.9392 50.6165 60.2743 50.6187 60.4843 50.4108C60.6922 50.2029 60.6922 49.8678 60.4843 49.6599L60.3507 49.5262L60.3677 49.5093C60.391 49.4859 60.3846 49.4499 60.4037 49.4223C61.5725 49.9165 62.6268 50.6802 63.4392 51.7281C67.2955 56.7065 63.5558 63.6429 57.7989 63.8041Z" fill="white"/>
<path d="M137.147 84.9608C61.8698 62.5757 67.7455 64.752 67.7455 64.752C67.4846 64.9387 67.3192 65.2738 67.3065 65.5687C67.3065 65.5729 67.3043 65.575 67.3043 65.5793C67.0074 74.3653 85.4216 122.585 91.5774 136.967C91.9762 137.898 93.3443 137.785 93.5819 136.801C96.4583 125.105 99.691 113.705 102.599 101.943C114.062 97.0475 125.619 91.9184 137.26 86.9526C138.168 86.5644 138.1 85.245 137.147 84.9608ZM80.5577 77.1399L81.7328 75.9647L84.8361 79.0681L83.5783 80.326C82.5749 79.2696 81.5674 78.2069 80.5577 77.1399ZM100.529 101.474C100.141 103.046 99.7355 104.612 99.3346 106.181C99.1607 106.139 98.9783 106.152 98.8425 106.287L97.4616 107.668L96.8507 107.057C96.6428 106.85 96.3077 106.85 96.0998 107.057C95.8919 107.265 95.8919 107.601 96.0998 107.808L96.7107 108.419L95.9195 109.211C95.7116 109.418 95.7116 109.754 95.9195 109.961C96.1252 110.167 96.4604 110.169 96.6704 109.961L97.4616 109.17L98.3483 110.057C98.2868 110.294 98.2252 110.524 98.1637 110.761C97.9898 110.719 97.8074 110.731 97.6695 110.867L95.8028 112.734L95.0562 111.987C94.8483 111.779 94.5131 111.779 94.3052 111.987C94.0974 112.195 94.0974 112.53 94.3052 112.738L95.0519 113.485L94.9331 113.604C94.7252 113.811 94.7252 114.147 94.9331 114.354C95.0371 114.458 95.1707 114.509 95.3086 114.509C95.4465 114.509 95.5801 114.458 95.684 114.354L95.8028 114.236L96.5049 114.938C96.6089 115.042 96.7425 115.093 96.8804 115.093C96.9398 115.093 96.9865 115.046 97.0416 115.027C96.9886 115.228 96.9355 115.432 96.8825 115.636C96.681 115.523 96.4328 115.517 96.261 115.689L94.4622 117.487L92.9986 116.024C92.7907 115.816 92.4555 115.816 92.2477 116.024C92.0398 116.232 92.0398 116.567 92.2477 116.775L93.7113 118.238L91.378 120.572C91.2083 120.538 91.0343 120.555 90.9028 120.686C90.6949 120.894 90.6949 121.229 90.9028 121.437L93.4865 124.021L91.1892 126.318L90.0416 125.168C89.8359 124.963 89.5007 124.958 89.2907 125.168C89.208 125.251 89.1825 125.359 89.1677 125.467C81.9555 107.261 71.7546 79.2314 69.7734 68.6996C80.9904 80.9135 90.3789 90.3105 100.529 101.474ZM86.9722 83.9002L87.3795 83.4929L90.241 86.3544C90.2474 86.3608 90.258 86.3587 90.2665 86.365L89.7765 86.855C88.841 85.8708 87.9013 84.8738 86.9722 83.9002ZM93.8661 91.1653L95.9386 89.0929L98.0555 91.212L95.9068 93.3608C95.2237 92.6311 94.5513 91.8908 93.8661 91.1653ZM98.6537 108.863L98.2104 108.419L98.9549 107.675C98.8531 108.071 98.7555 108.468 98.6537 108.863ZM97.2558 114.185L96.5537 113.483L97.7671 112.269C97.5974 112.914 97.4298 113.553 97.2601 114.193C97.2559 114.191 97.258 114.187 97.2558 114.185ZM89.3819 126.002L90.4383 127.061L89.9843 127.514C89.7849 127.02 89.5855 126.515 89.3819 126.002ZM92.2965 133.199C91.7131 131.791 91.0789 130.236 90.4149 128.586L91.1892 127.811C91.7089 128.331 92.7759 129.695 93.3146 129.245C92.9731 130.563 92.6295 131.878 92.2965 133.199ZM93.4504 128.711C93.4271 128.63 93.4186 128.543 93.3549 128.477L91.938 127.061L94.5598 124.439C94.1865 125.858 93.8216 127.281 93.4504 128.711ZM94.9649 122.901C94.7952 122.865 94.6171 122.88 94.4855 123.013L94.2352 123.264L92.2074 121.236L94.4601 118.983L94.8058 119.329C95.0116 119.534 95.3468 119.537 95.5568 119.329C95.7646 119.121 95.7646 118.786 95.5568 118.578L95.211 118.232L96.5495 116.894C96.5474 116.896 94.9649 122.901 94.9649 122.901ZM103.562 99.2132L107.005 95.7705L107.412 96.1778C107.622 96.3878 107.957 96.3814 108.163 96.1778C108.371 95.9699 108.371 95.6347 108.163 95.4269L107.756 95.0217L111.003 91.7741C111.211 91.5663 111.211 91.2311 111.003 91.0232C110.796 90.8153 110.46 90.8153 110.253 91.0232L107.005 94.2708L105.094 92.3596C104.886 92.1538 104.551 92.1496 104.343 92.3596C104.135 92.5675 104.135 92.9026 104.343 93.1105L106.254 95.0217L101.679 99.5972C100.921 98.7657 100.147 97.9469 99.3834 97.1196L100.372 96.1311L102.107 97.8663C102.313 98.072 102.648 98.0741 102.858 97.8663C103.066 97.6584 103.066 97.3232 102.858 97.1154L101.123 95.3802L103.011 93.4923C103.219 93.2844 103.219 92.9493 103.011 92.7414C102.803 92.5335 102.468 92.5335 102.26 92.7414L100.372 94.6293L99.3559 93.6132C99.148 93.4053 98.8128 93.4053 98.6049 93.6132C98.3971 93.8211 98.3971 94.1563 98.6049 94.3641L99.621 95.3802L98.6622 96.339C97.9834 95.605 97.3068 94.869 96.6237 94.1393L99.1331 91.6299C99.341 91.422 99.341 91.0869 99.1331 90.879C99.0949 90.8408 99.0398 90.8451 98.9952 90.8217C98.9761 90.7178 98.9549 90.6117 98.8743 90.5311L96.6852 88.342L96.7213 88.306C96.9292 88.0981 96.9292 87.7629 96.7213 87.555C96.5134 87.3472 96.1783 87.3472 95.9704 87.555L95.9343 87.5911L94.0698 85.7266C93.8619 85.5187 93.5268 85.5187 93.3189 85.7266C93.111 85.9344 93.111 86.2696 93.3189 86.4775L95.1834 88.342L93.1322 90.3932C92.2519 89.4599 91.3801 88.5478 90.5019 87.6208L93.2192 84.9035C93.4271 84.6957 93.4271 84.3605 93.2192 84.1526C93.0113 83.9447 92.6761 83.9447 92.4683 84.1526L90.9961 85.6247C90.9898 85.6184 90.9919 85.6078 90.9855 85.5993L88.124 82.7378L88.9195 81.9423C89.1274 81.7344 89.1274 81.3993 88.9195 81.1914C88.7116 80.9835 88.3765 80.9835 88.1686 81.1914L87.3731 81.9869L86.4483 81.062C85.9562 80.5699 85.201 81.3144 85.6974 81.8129L86.6222 82.7378L86.234 83.126C86.0092 82.8905 84.5413 81.3399 84.3016 81.0896L85.6571 79.7341C85.6931 79.7426 85.7228 79.7766 85.761 79.7766C85.8968 79.7766 86.0325 79.7256 86.1365 79.6217C86.268 79.4902 86.2849 79.312 86.2489 79.1423L86.4016 78.9896C86.6095 78.7817 86.6095 78.4466 86.4016 78.2387C86.1937 78.0308 85.8586 78.0308 85.6507 78.2387L85.5765 78.3129L82.4731 75.2096L84.1086 73.5741C84.3165 73.3663 84.3165 73.0311 84.1086 72.8232C83.9007 72.6154 83.5655 72.6154 83.3577 72.8232L81.7222 74.4587L80.9755 73.712C80.7677 73.5041 80.4325 73.5041 80.2246 73.712C80.0168 73.9199 80.0168 74.255 80.2246 74.4629L80.9713 75.2096L79.8152 76.3657C77.1171 73.5147 74.438 70.6384 71.761 67.7302L133.717 86.1529C123.712 90.4547 115.848 93.9463 103.562 99.2132Z" fill="white"/>
<path d="M80.8623 58.5242C81.4181 58.7172 82.0205 58.4202 82.2114 57.8666C85.7517 47.5893 77.8226 33.8375 60.0172 32.796C33.9984 31.2475 30.3096 58.8211 40.0163 71.9048C44.7466 78.2727 52.7223 81.516 59.7096 80.2921C60.2866 80.1924 60.6748 79.643 60.5729 79.0681C60.4732 78.4912 59.9154 78.0818 59.349 78.2048C52.9726 79.2887 45.8941 76.2681 41.7175 70.6427C33.1605 59.1139 35.6487 33.4536 59.8899 34.9151C76.2169 35.8675 83.3038 48.1811 80.2026 57.1772C80.016 57.7308 80.3087 58.3333 80.8623 58.5242Z" fill="white"/>
<path d="M60.4376 92.7566C47.0591 95.3593 32.4058 89.1208 24.7864 77.5963C8.38307 52.7802 27.6649 18.8981 58.694 20.0096C82.5131 20.8687 99.5464 43.6718 95.48 56.923C95.3082 57.483 95.62 58.0748 96.1822 58.2466C96.7337 58.4227 97.3361 58.1066 97.5058 57.5445C101.992 42.9442 83.9958 18.8005 58.7682 17.8884C25.8364 16.7663 5.80368 52.7315 23.0194 78.763C31.0822 90.9599 46.6094 97.6014 60.8449 94.8396C61.4197 94.7272 61.7952 94.1714 61.6849 93.5945C61.5746 93.0175 61.004 92.6548 60.4376 92.7566Z" fill="white"/>
<path d="M59.8194 110.265C40.2173 111.084 20.5897 100.06 11.0082 82.9289C-7.92359 49.0658 14.9579 7.52401 52.8873 4.66673C85.9294 2.12764 118.46 30.8425 109.558 60.4207C109.388 60.9828 109.706 61.5746 110.266 61.7422C110.837 61.9161 111.422 61.5937 111.588 61.0337C120.946 29.9495 87.2828 -0.042357 52.7261 2.54976C13.471 5.51522 -10.6303 48.5673 9.15641 83.964C19.1113 101.763 39.494 113.194 59.9022 112.384C60.4876 112.359 60.9437 111.866 60.9203 111.281C60.8991 110.698 60.4049 110.303 59.8194 110.265Z" fill="white"/>
<path d="M79.7899 88.6283L82.9547 91.7932L82.3884 92.3595C82.1805 92.5674 82.1805 92.9026 82.3884 93.1104C82.5984 93.3204 82.9335 93.3141 83.1393 93.1104L83.7056 92.5441L85.4196 94.2601C84.9126 94.7671 84.1384 95.308 84.6305 95.8001C84.8362 96.0059 85.1714 96.008 85.3814 95.8001L86.1705 95.0111L87.3478 96.1883L86.0644 97.4717C85.8565 97.6795 85.8565 98.0147 86.0644 98.2226C86.2702 98.4283 86.6053 98.4304 86.8153 98.2226L88.0987 96.9392L91.0684 99.9089L90.099 100.878C89.8911 101.086 89.8911 101.421 90.099 101.629C90.3047 101.835 90.6399 101.837 90.8499 101.629L91.8193 100.66L94.4029 103.243C94.6087 103.449 94.9438 103.451 95.1538 103.243C95.3617 103.036 95.3617 102.7 95.1538 102.493L92.5702 99.9089L93.8938 98.5853C94.1017 98.3774 94.1017 98.0423 93.8938 97.8344C93.6859 97.6265 93.3508 97.6265 93.1429 97.8344L91.8193 99.158L88.8496 96.1883L89.2632 95.7747C89.4711 95.5668 89.4711 95.2317 89.2632 95.0238C89.0553 94.8159 88.7202 94.8159 88.5123 95.0238L88.0987 95.4374L86.9214 94.2601L87.825 93.3565C88.0329 93.1486 88.0329 92.8135 87.825 92.6056C87.6171 92.3977 87.282 92.3977 87.0741 92.6056L86.1705 93.5092L84.4565 91.7953L85.2499 91.002C85.4578 90.7941 85.4578 90.4589 85.2499 90.2511C85.042 90.0453 84.7068 90.0411 84.499 90.2511L83.7056 91.0444L80.5408 87.8795C80.3329 87.6717 79.9978 87.6717 79.7899 87.8795C79.582 88.0874 79.5841 88.4226 79.7899 88.6283Z" fill="white"/>
</g>
</svg>
