<svg width="498" height="460" viewBox="0 0 498 460" fill="none" xmlns="http://www.w3.org/2000/svg">
<path opacity="0.05" fill-rule="evenodd" clip-rule="evenodd" d="M272.08 402.516C214.44 408.378 167.375 473.471 111.693 457.479C55.006 441.198 12.1341 382.735 1.43719 324.785C-8.93332 268.603 39.5717 221.514 58.1643 167.489C76.294 114.808 62.243 43.0448 108.896 12.5352C155.748 -18.1042 217.396 15.5563 272.08 27.5952C314.499 36.9338 353.186 51.8001 390.224 74.4703C430.592 99.1786 483.358 118.685 495.561 164.384C507.732 209.962 463.486 249.464 448.936 294.34C434.366 339.277 450.7 402.439 410.378 427.103C369.443 452.141 319.832 397.66 272.08 402.516Z" fill="#E8112B"/>
</svg>
