<svg width="100" height="100" viewBox="0 0 100 100" fill="none" xmlns="http://www.w3.org/2000/svg">
<g id="growth-graph" opacity="0.05">
<g id="Group">
<g id="Group_2">
<path id="Vector" d="M15.1426 38.756C20.579 41.4529 26.4836 42.5241 32.6942 42.5241H32.6972C48.276 42.5241 62.3987 34.0969 67.3063 21.5302C68.9366 21.8332 70.2063 21.8181 71.126 21.1817C75.176 18.3332 70.2563 6.71504 70.2078 6.59989C66.8472 -1.23647 61.8532 1.35595 55.2714 4.49534C50.8336 6.61353 49.0139 7.18171 47.6654 8.8711C44.7093 12.6241 48.3063 15.0953 52.6805 16.9787C46.3593 29.7317 29.8245 39.7772 15.5942 37.6256C15.2214 37.5696 14.8699 37.6423 14.7578 37.9984C14.6457 38.3544 14.8093 38.5878 15.1426 38.756ZM31.7745 40.5681L32.3184 41.1105L31.8593 41.5681C31.6032 41.562 31.3487 41.5469 31.0926 41.5363L30.7184 41.162L31.7214 40.159C31.6623 40.2999 31.6623 40.4559 31.7745 40.5681ZM37.4896 40.309C37.5078 40.3423 37.5033 40.3832 37.532 40.412L38.329 41.209C37.9805 41.2575 37.6245 41.2817 37.2745 41.3211C37.2972 41.2029 37.282 41.0802 37.1911 40.9878L37.0017 40.7984L37.4896 40.309ZM40.7336 40.1014L41.2972 40.665C40.8381 40.765 40.3714 40.8438 39.9063 40.9287L40.7336 40.1014ZM42.8836 37.9514C42.9017 37.9847 42.8972 38.0256 42.926 38.0544L43.6275 38.756L42.979 39.4044C42.8305 39.5529 42.8305 39.7923 42.979 39.9408C43.0532 40.015 43.1487 40.0514 43.2472 40.0514C43.3457 40.0514 43.4411 40.015 43.5154 39.9408L44.1639 39.2923L44.6396 39.7666C43.8229 40.0211 42.9957 40.2499 42.1563 40.4529L41.2699 39.5666L42.8836 37.9514ZM46.3366 37.1181L47.5033 38.2832L47.3775 38.409C47.2654 38.5211 47.2654 38.6787 47.3245 38.8166C46.7078 39.0605 46.0836 39.2908 45.4487 39.5044L44.6987 38.7544L46.3366 37.1181ZM51.9911 36.5696L51.1396 35.7181L52.1487 34.709L53.0002 35.5605L51.9911 36.5696ZM51.329 36.9787C50.4426 37.4544 49.5305 37.8969 48.5957 38.306L48.5745 38.2847L50.6048 36.2544L51.329 36.9787ZM36.532 41.3984C36.4836 41.4029 36.4336 41.409 36.3851 41.4135L36.4669 41.3317L36.532 41.3984ZM54.7805 34.8514L55.9699 33.662L56.1593 33.8514C55.7093 34.1953 55.2502 34.5272 54.7805 34.8514ZM63.4108 24.9241C63.4851 24.9984 63.5805 25.0347 63.679 25.0347C63.7745 25.0347 63.8729 24.9984 63.9472 24.9241C64.0957 24.7756 64.0957 24.5363 63.9472 24.3878L62.7896 23.2302L64.6366 21.3847L65.476 22.2241C64.5472 24.3484 63.3396 26.3469 61.8926 28.1984L60.7745 27.0802L63.1714 24.6832L63.4108 24.9241ZM61.4229 28.7999C60.9411 29.3847 60.432 29.9499 59.9032 30.5029L58.576 29.1741C58.6381 29.1575 58.7033 29.1499 58.7517 29.1014L60.2381 27.615L61.4229 28.7999ZM67.0078 20.212C66.6245 20.1181 66.2472 20.3256 66.1154 20.6878C66.0199 20.9529 65.8957 21.2059 65.7911 21.4666L65.1729 20.8469L65.2987 20.7211C65.4472 20.5726 65.4472 20.3332 65.2987 20.1847C65.1502 20.0378 64.9108 20.0347 64.7623 20.1847L64.6366 20.3105L64.282 19.9559L66.679 17.559L67.976 18.8559L67.2229 19.609C67.0745 19.7575 67.0745 19.9969 67.2229 20.1453C67.2972 20.2196 67.3926 20.2559 67.4911 20.2559C67.5896 20.2559 67.6851 20.2196 67.7593 20.1453L68.5123 19.3923L69.4926 20.3726C68.8532 20.5044 68.029 20.4605 67.0078 20.212ZM71.0199 14.9166L70.4593 14.3559L70.8593 13.9559C70.9214 14.2817 70.9745 14.6014 71.0199 14.9166ZM54.3926 16.9135C54.5699 16.5317 54.4002 16.0711 54.0048 15.8999L53.6093 15.7302C49.7563 14.0787 46.7442 12.4984 48.8517 9.81807C49.9987 8.38019 52.0608 7.72262 55.9214 5.88322C63.1533 2.43322 66.1745 1.11353 68.8154 7.27565C69.5699 9.01504 70.2729 11.1908 70.7184 13.2681C70.6017 13.2484 70.482 13.2635 70.3911 13.3544L69.9229 13.8226L67.9669 11.8635C67.8184 11.715 67.579 11.715 67.4305 11.8635C67.282 12.012 67.282 12.2514 67.4305 12.3999L69.3881 14.3575L68.6881 15.0575C68.5396 15.2059 68.5396 15.4453 68.6881 15.5938C68.7623 15.6681 68.8578 15.7044 68.9563 15.7044C69.0548 15.7044 69.1502 15.6681 69.2245 15.5938L69.9245 14.8938L71.0729 16.0423C71.0942 16.0635 71.126 16.059 71.1517 16.0741C71.3063 17.965 71.0911 19.4938 70.2684 20.0817L69.0487 18.8605L69.9517 17.9575L70.2169 18.2226C70.2911 18.2969 70.3866 18.3332 70.4851 18.3332C70.5836 18.3332 70.679 18.2969 70.7532 18.2226C70.9017 18.0741 70.9017 17.8347 70.7532 17.6863L70.3487 17.2817C70.332 17.2181 70.3229 17.1499 70.2729 17.0999C70.2229 17.0499 70.1548 17.0408 70.0911 17.0241L68.3866 15.3196C68.2381 15.1711 67.9987 15.1711 67.8502 15.3196C67.7017 15.4681 67.7017 15.7075 67.8502 15.8559L69.4154 17.4211L68.5123 18.3241L67.2154 17.0272L67.3457 16.8969C67.4942 16.7484 67.4942 16.509 67.3457 16.3605C67.1987 16.2135 66.9593 16.2105 66.8093 16.3605L63.7457 19.4226C63.3563 19.0317 62.8442 19.5923 63.1896 19.9378L63.2229 19.9711C63.1108 20.1196 63.1063 20.3256 63.2411 20.462C63.3154 20.5363 63.4108 20.5726 63.5093 20.5726C63.5896 20.5726 63.6639 20.5317 63.732 20.4802L64.1002 20.8484L62.2532 22.6938L62.0502 22.4908C61.9032 22.3438 61.6639 22.3408 61.5139 22.4908C61.3654 22.6393 61.3654 22.8787 61.5139 23.0272L61.7169 23.2302L61.6184 23.3287C61.4699 23.4772 61.4699 23.7166 61.6184 23.865C61.6926 23.9393 61.7881 23.9756 61.8866 23.9756C61.982 23.9756 62.0805 23.9393 62.1548 23.865L62.2532 23.7666L62.6336 24.1484L60.2366 26.5453L60.1108 26.4196C59.9623 26.2711 59.7229 26.2711 59.5745 26.4196C59.426 26.5681 59.426 26.8075 59.5745 26.956L59.7002 27.0817L58.2139 28.5681C58.129 28.6529 58.1063 28.765 58.1199 28.8772C58.0214 28.8772 57.9245 28.912 57.8487 28.9878C57.7002 29.1363 57.7002 29.3756 57.8487 29.5241L59.3836 31.0605C58.5608 31.8787 57.6745 32.6453 56.7563 33.3817L56.5048 33.1302L57.9608 31.6741C58.1093 31.5256 58.1093 31.2863 57.9608 31.1378C57.8123 30.9893 57.5729 30.9893 57.4245 31.1378L55.9684 32.5938L55.4517 32.0772C55.3032 31.9287 55.0639 31.9287 54.9154 32.0772C54.7669 32.2256 54.7669 32.465 54.9154 32.6135L55.432 33.1302L53.5336 35.0287L52.682 34.1772L53.0411 33.8181C53.1896 33.6696 53.1896 33.4302 53.0411 33.2817C52.8926 33.1332 52.6532 33.1332 52.5048 33.2817L52.1457 33.6408L52.0987 33.5938C51.9502 33.4453 51.7108 33.4453 51.5623 33.5938C51.4139 33.7423 51.4139 33.9817 51.5623 34.1302L51.6093 34.1772L50.6002 35.1863L49.6896 34.2756C49.5411 34.1272 49.3017 34.1272 49.1532 34.2756C49.0048 34.4241 49.0048 34.6635 49.1532 34.812L50.0639 35.7226L48.0336 37.7529L46.8669 36.5878L47.7836 35.6711C47.932 35.5226 47.932 35.2832 47.7836 35.1347C47.6351 34.9863 47.3957 34.9863 47.2472 35.1347L44.1578 38.2241L43.4563 37.5226C43.4275 37.4938 43.3881 37.4984 43.3532 37.4802L43.9896 36.8438C44.1381 36.6953 44.1381 36.4559 43.9896 36.3075C43.8411 36.159 43.6017 36.159 43.4532 36.3075L40.7245 39.0363C40.576 38.8953 40.3426 38.8938 40.1972 39.0393C40.0517 39.1847 40.0532 39.4181 40.1942 39.5666L39.1502 40.6105C39.0805 40.6802 39.0517 40.7711 39.0472 40.8605L38.0639 39.8772C38.0351 39.8484 37.9942 39.8514 37.9608 39.8347L39.1426 38.6529C39.2911 38.5044 39.2911 38.265 39.1426 38.1166C38.9957 37.9681 38.7563 37.9681 38.6063 38.1166L36.4608 40.2605L35.6563 39.4544C35.5093 39.306 35.2699 39.306 35.1199 39.4544C34.9714 39.6029 34.9714 39.8423 35.1199 39.9908L35.9245 40.7969L35.2108 41.515C34.7502 41.5438 34.2836 41.5514 33.8184 41.5635C33.8093 41.5514 33.8123 41.5347 33.8017 41.5226L33.3881 41.109L35.232 39.265C35.3805 39.1166 35.3805 38.8772 35.232 38.7287C35.0836 38.5817 34.8442 38.5787 34.6957 38.7287L32.8517 40.5726L32.3078 40.0302C32.1957 39.9181 32.0396 39.9181 31.9002 39.9772L32.5366 39.3408C32.6851 39.1923 32.6851 38.9529 32.5366 38.8044C32.3881 38.6559 32.1487 38.6559 32.0002 38.8044L30.179 40.6256L29.8457 40.2923C29.6972 40.1438 29.4578 40.1438 29.3093 40.2923C29.1608 40.4408 29.1608 40.6802 29.3093 40.8287L29.6426 41.162L29.3442 41.4605C26.0926 41.1863 22.9411 40.5105 19.9169 39.4363C33.4942 39.2953 48.5866 29.4529 54.3926 16.9135Z" fill="white"/>
</g>
<g id="Group_3">
<path id="Vector_2" d="M65.1515 38.3076C65.0106 39.9818 65.456 49.4667 65.9287 59.5076C66.2757 66.8727 66.6015 73.8303 66.653 76.8682C66.7742 84.4015 70.4757 85.9773 77.7227 86.3697C78.0818 86.3894 78.4212 86.4 78.7409 86.4C83.3424 86.4 84.3681 84.3742 84.4924 81.3349C84.7939 73.8121 85.0742 67.5 85.309 62.1833C86.4757 35.8591 86.5696 33.7076 82.959 30.4818C78.7121 26.6849 66.1166 26.7682 65.1515 38.3076ZM77.8045 84.8576C74.7727 84.6939 72.6424 84.3046 71.159 83.5167L71.5772 83.0985L71.8712 83.3924C71.9454 83.4667 72.0409 83.503 72.1393 83.503C72.2378 83.503 72.3333 83.4667 72.4075 83.3924C72.556 83.2439 72.556 83.0046 72.4075 82.8561L72.1136 82.5621L73.6742 81.0015L74.8757 82.203L74.1712 82.9076C74.0227 83.0561 74.0227 83.2955 74.1712 83.4439C74.2454 83.5182 74.3409 83.5546 74.4393 83.5546C74.5378 83.5546 74.6333 83.5182 74.7075 83.4439L75.4121 82.7394L76.0757 83.403C76.1499 83.4773 76.2454 83.5136 76.3439 83.5136C76.4424 83.5136 76.5378 83.4773 76.6121 83.403C76.7606 83.2546 76.7606 83.0152 76.6121 82.8667L75.9484 82.203L77.7636 80.3879L79.3742 81.9985L77.5469 83.8258C77.3984 83.9743 77.3984 84.2136 77.5469 84.3621C77.6212 84.4364 77.7166 84.4727 77.8151 84.4727C77.9136 84.4727 78.009 84.4364 78.0833 84.3621L79.9106 82.5349L81.703 84.3273C81.0802 84.6849 80.1499 84.8833 78.7409 84.8833C78.4454 84.8833 78.1333 84.8742 77.8045 84.8576ZM74.209 80.4667L76.0242 78.6515L77.2257 79.853L75.4106 81.6682L74.209 80.4667ZM81.2636 80.1091L79.9075 81.4636L78.2969 79.853L79.6515 78.4985L81.2636 80.1091ZM83.8318 61.2349C83.8181 61.5303 83.806 61.8136 83.7924 62.1152C83.7772 62.4758 83.7606 62.853 83.7439 63.2227L82.7939 62.2727L83.8318 61.2349ZM84.0848 55.4894L83.153 54.5576L84.1666 53.5424C84.1409 54.1712 84.1136 54.8197 84.0848 55.4894ZM76.0651 29.7879C78.3984 29.7879 80.7075 30.5046 81.9484 31.6121C84.5818 33.9636 84.8909 35.8546 84.2105 52.4697C84.1878 52.4849 84.1575 52.4803 84.1378 52.5L82.6166 54.0212L82.3727 53.7773C82.2227 53.6273 81.9833 53.6303 81.8363 53.7773C81.6878 53.9258 81.6878 54.1652 81.8363 54.3136L82.0802 54.5576L81.4287 55.2091C81.2802 55.3576 81.2802 55.597 81.4287 55.7455C81.503 55.8197 81.5984 55.8561 81.6969 55.8561C81.7954 55.8561 81.8909 55.8197 81.9651 55.7455L82.6166 55.0939L84.0393 56.5167C83.9848 57.7773 83.9257 59.1061 83.8636 60.5121C83.759 60.4621 83.6545 60.4621 83.5499 60.5121C83.5378 60.4939 83.5424 60.4697 83.5257 60.453L81.8727 58.8L83.6757 56.9985C83.8242 56.85 83.8242 56.6106 83.6757 56.4621C83.5272 56.3152 83.2878 56.3121 83.1393 56.4621L81.3363 58.2636L80.9409 57.8682C80.7924 57.7197 80.553 57.7197 80.4045 57.8682C80.256 58.0167 80.256 58.2561 80.4045 58.4046L80.7999 58.8L80.609 58.9909C80.4606 59.1394 80.4606 59.3788 80.609 59.5273C80.6833 59.6015 80.7787 59.6379 80.8772 59.6379C80.9727 59.6379 81.0712 59.6015 81.1454 59.5273L81.3363 59.3364L82.9893 60.9894C82.9924 60.9924 82.9984 60.9909 83.0015 60.9939L82.2499 61.7455C82.1015 61.6121 81.8757 61.6091 81.7318 61.753C81.5878 61.897 81.5909 62.1227 81.7242 62.2712L79.9939 64.0015C79.8454 64.15 79.8454 64.3894 79.9939 64.5379C80.0681 64.6121 80.1636 64.6485 80.2621 64.6485C80.3605 64.6485 80.456 64.6121 80.5303 64.5379L82.2545 62.8136L83.4712 64.0303C83.5348 64.0939 83.6181 64.1167 83.6999 64.1258C83.4848 69.0076 83.2363 74.6758 82.9712 81.2758C82.9287 82.3394 82.8181 83.2197 82.2833 83.847L80.4393 82.003L81.7954 80.647L81.8999 80.7515C81.9742 80.8258 82.0696 80.8621 82.1681 80.8621C82.2666 80.8621 82.3621 80.8258 82.4363 80.7515C82.5848 80.603 82.5848 80.3636 82.4363 80.2152L82.3318 80.1106L82.8848 79.5576C83.0333 79.4091 83.0333 79.1697 82.8848 79.0212C82.7363 78.8727 82.4969 78.8727 82.3484 79.0212L81.7954 79.5742L80.1424 77.9212C80.1924 77.7864 80.1909 77.6379 80.0818 77.5303C79.9727 77.4227 79.8257 77.4212 79.6909 77.4697L77.3605 75.1394C77.2121 74.9909 76.9727 74.9909 76.8242 75.1394C76.6757 75.2879 76.6757 75.5273 76.8242 75.6758L79.1121 77.9636L77.7575 79.3182L76.556 78.1167L77.5242 77.1485C77.6727 77 77.6727 76.7606 77.5242 76.6121C77.3757 76.4636 77.1363 76.4636 76.9878 76.6121L76.0196 77.5803L75.1121 76.6727C74.9636 76.5243 74.7242 76.5243 74.5757 76.6727C74.4272 76.8212 74.4272 77.0606 74.5757 77.2091L75.4833 78.1167L73.6681 79.9318L72.4545 78.7182C72.306 78.5697 72.0666 78.5697 71.9181 78.7182C71.7696 78.8667 71.7696 79.1061 71.9181 79.2546L73.1318 80.4682L71.5712 82.0288L70.2045 80.6621C70.056 80.5136 69.8166 80.5136 69.6681 80.6621C69.5196 80.8106 69.5196 81.05 69.6681 81.1985L71.0348 82.5652L70.4909 83.1091C68.8257 81.9046 68.2106 79.9636 68.1606 76.847C68.1106 73.7849 67.7833 66.8167 67.4348 59.4394C67.0075 50.3333 66.5212 40.0121 66.653 38.4379C67.3318 30.4106 74.0272 29.7879 76.0651 29.7879Z" fill="white"/>
</g>
<g id="Group_4">
<path id="Vector_3" d="M58.3491 47.6676C54.1052 45.0752 41.6431 45.16 40.6537 53.2297C40.5188 54.3282 40.8734 59.6949 41.4279 67.757C41.7749 72.8085 42.1022 77.5782 42.1522 79.654C42.3037 85.9767 48.1128 86.1903 53.2355 86.3797C53.587 86.3918 53.9203 86.3994 54.234 86.3994C58.2188 86.3994 59.8325 85.3676 59.9885 82.7206L61.5673 55.9585C61.6931 53.8237 61.9279 49.8524 58.3491 47.6676ZM43.6658 79.6176C43.6158 77.5085 43.287 72.7221 42.9385 67.654C42.5143 61.4646 42.0309 54.4509 42.1567 53.4146C42.9658 46.7979 54.1309 46.8676 57.5582 48.9631C59.2158 49.9752 59.8325 51.4494 60.0249 53.0691L59.0431 54.0509L58.7991 53.807C58.6506 53.6585 58.4112 53.6585 58.2628 53.807C58.1143 53.9555 58.1143 54.1949 58.2628 54.3434L58.5067 54.5873L57.8552 55.2388C57.7067 55.3873 57.7067 55.6267 57.8552 55.7752C57.9294 55.8494 58.0249 55.8858 58.1234 55.8858C58.2219 55.8858 58.3173 55.8494 58.3916 55.7752L59.0431 55.1237L60.04 56.1206L60.0203 56.4585C59.8764 56.3737 59.6946 56.3676 59.5673 56.4934L57.7658 58.2949L57.3688 57.8979C57.2203 57.7494 56.9809 57.7494 56.8325 57.8979C56.684 58.0464 56.684 58.2858 56.8325 58.4343L57.2294 58.8312L57.037 59.0237C56.8885 59.1721 56.8885 59.4115 57.037 59.56C57.1113 59.6343 57.2067 59.6706 57.3052 59.6706C57.4006 59.6706 57.4991 59.6343 57.5734 59.56L57.7658 59.3676L59.4203 61.0221C59.4234 61.0252 59.4279 61.0237 59.4309 61.0267L58.6809 61.7767C58.5325 61.6434 58.3052 61.6388 58.1628 61.7843C58.0203 61.9267 58.0219 62.154 58.1552 62.3024L56.4249 64.0328C56.2764 64.1812 56.2764 64.4206 56.4249 64.5691C56.4991 64.6434 56.5946 64.6797 56.6931 64.6797C56.7916 64.6797 56.887 64.6434 56.9612 64.5691L58.6855 62.8434L59.59 63.7494L59.434 66.3949C59.4037 66.4115 59.3658 66.4085 59.34 66.4343L57.9703 67.804L56.9612 66.7934C56.8128 66.6449 56.5734 66.6449 56.4249 66.7934C56.2764 66.9418 56.2764 67.1812 56.4249 67.3297L57.434 68.3388L55.8112 69.9615C55.6628 70.11 55.6628 70.3494 55.8112 70.4979C55.8855 70.5721 55.9809 70.6085 56.0794 70.6085C56.1779 70.6085 56.2734 70.5721 56.3476 70.4979L57.9703 68.8752L58.9703 69.8767C59.04 69.9464 59.1309 69.9767 59.2234 69.9812L59.1219 71.6888C59.0067 71.6706 58.8885 71.6888 58.7991 71.7767L57.9688 72.607L55.937 70.5752C55.7885 70.4267 55.5491 70.4267 55.4006 70.5752C55.2522 70.7237 55.2522 70.9631 55.4006 71.1115L57.4325 73.1434L55.4006 75.1752C55.2522 75.3237 55.2522 75.5631 55.4006 75.7115C55.4749 75.7858 55.5703 75.8221 55.6688 75.8221C55.7673 75.8221 55.8628 75.7858 55.937 75.7115L57.9688 73.6797L58.9461 74.657L58.6809 79.1524L58.2249 79.6085L56.5719 77.9555C56.6203 77.8206 56.6188 77.6737 56.5113 77.5646C56.4037 77.4555 56.2552 77.4555 56.1203 77.504L53.79 75.1737C53.6416 75.0252 53.4022 75.0252 53.2537 75.1737C53.1052 75.3221 53.1052 75.5615 53.2537 75.71L55.5415 77.9979L54.1855 79.3524L52.984 78.1509L53.9522 77.1828C54.1006 77.0343 54.1006 76.7949 53.9522 76.6464C53.8037 76.4979 53.5643 76.4979 53.4158 76.6464L52.4476 77.6146L51.54 76.707C51.3916 76.5585 51.1522 76.5585 51.0037 76.707C50.8552 76.8555 50.8552 77.0949 51.0037 77.2434L51.9112 78.1509L50.0961 79.9661L48.8825 78.7524C48.734 78.604 48.4946 78.604 48.3461 78.7524C48.1976 78.9009 48.1976 79.1403 48.3461 79.2888L49.5597 80.5024L47.9991 82.0615L46.6309 80.6949C46.4809 80.5449 46.2416 80.5479 46.0946 80.6949C45.9461 80.8434 45.9461 81.0827 46.0946 81.2312L47.4628 82.5979L46.6052 83.4555C46.4567 83.604 46.4567 83.8434 46.6052 83.9918C46.6385 84.0252 46.687 84.0237 46.7279 84.0434C44.8143 83.354 43.7249 82.0903 43.6658 79.6176ZM60.0885 55.0934L59.5794 54.5843L60.0946 54.0691C60.1037 54.407 60.1006 54.7494 60.0885 55.0934ZM56.8703 82.0267L58.2249 80.6706L58.3309 80.7767C58.3991 80.8449 58.4885 80.8752 58.5794 80.8797L58.4764 82.6312C58.4597 82.9237 58.4355 83.2176 58.337 83.4949L56.8703 82.0267ZM57.69 80.1358L56.3355 81.4918L54.7249 79.8812L56.0809 78.5267L57.69 80.1358ZM59.0067 73.6358L58.5052 73.1343L59.0688 72.5706L59.0067 73.6358ZM59.2749 69.0994L58.5067 68.3297L59.3719 67.4646L59.2749 69.0994ZM59.7931 60.3161L58.3022 58.8252L59.9794 57.1479L59.7931 60.3161ZM59.7037 61.8176L59.6506 62.7297L59.2219 62.3009L59.7037 61.8176ZM53.6537 79.8812L51.8385 81.6964L50.637 80.4949L52.4522 78.6797L53.6537 79.8812ZM53.2916 84.863C50.6658 84.7661 48.4991 84.6191 46.8885 84.0888C46.984 84.0873 47.0764 84.0524 47.1491 83.9812L48.0067 83.1237L48.3022 83.4191C48.3764 83.4934 48.4734 83.5297 48.5703 83.5297C48.6673 83.5297 48.7643 83.4934 48.8385 83.4191C48.987 83.2706 48.987 83.0312 48.8385 82.8827L48.5431 82.5873L50.1022 81.0282L51.3037 82.2297L50.6006 82.9328C50.4522 83.0812 50.4522 83.3206 50.6006 83.4691C50.6749 83.5434 50.7703 83.5797 50.8688 83.5797C50.9643 83.5797 51.0628 83.5434 51.137 83.4691L51.84 82.7661L52.5037 83.4297C52.5779 83.504 52.6734 83.5403 52.7719 83.5403C52.8703 83.5403 52.9658 83.504 53.04 83.4297C53.1885 83.2812 53.1885 83.0418 53.04 82.8934L52.3764 82.2297L54.1916 80.4146L55.8022 82.0252L53.9749 83.8524C53.8264 84.0009 53.8264 84.2403 53.9749 84.3888C54.0491 84.4631 54.1446 84.4994 54.2431 84.4994C54.3416 84.4994 54.437 84.4631 54.5113 84.3888L56.3385 82.5615L57.9006 84.1237C57.2916 84.6403 56.0203 84.9691 53.2916 84.863Z" fill="white"/>
</g>
<g id="Group_5">
<path id="Vector_4" d="M25.1114 60.7332C19.872 61.1468 16.9629 62.6604 16.4614 65.2286C16.3205 65.9574 16.6023 68.7392 17.2311 74.4771C18.3386 84.6165 16.5295 86.1271 29.0462 86.4195C29.4583 86.4286 29.8599 86.465 30.2432 86.465H30.2568C32.1144 86.465 35.5477 86.4286 35.7886 83.8847C36.0902 80.6771 36.3674 77.9665 36.6008 75.6953C37.7583 64.4695 37.9053 63.021 34.025 61.5316C31.478 60.5544 27.8205 60.5135 25.1114 60.7332ZM30.2432 84.8877C29.8705 84.8877 29.4826 84.8816 29.0811 84.8725C25.6402 84.7938 22.822 84.6498 21.1447 83.9377L21.6583 83.4241L21.7583 83.5241C21.8326 83.5983 21.928 83.6347 22.0265 83.6347C22.125 83.6347 22.2205 83.5983 22.2947 83.5241C22.4432 83.3756 22.4432 83.1362 22.2947 82.9877L22.1947 82.8877L23.0977 81.9847L24.9174 83.8044C24.9917 83.8786 25.0871 83.915 25.1856 83.915C25.2841 83.915 25.3795 83.8786 25.4538 83.8044C25.6023 83.6559 25.6023 83.4165 25.4538 83.268L25.2977 83.1119L26.9189 81.4907L28.7205 83.2922L27.9553 84.0574C27.8068 84.2059 27.8068 84.4453 27.9553 84.5938C28.0296 84.668 28.125 84.7044 28.2235 84.7044C28.322 84.7044 28.4174 84.668 28.4917 84.5938L29.2568 83.8286L29.422 83.9938C29.4962 84.068 29.5917 84.1044 29.6902 84.1044C29.7886 84.1044 29.8841 84.068 29.9583 83.9938C30.1068 83.8453 30.1068 83.6059 29.9583 83.4574L29.7932 83.2922L31.0553 82.0301L33.222 84.1968C33.2962 84.271 33.3917 84.3074 33.4902 84.3074C33.5886 84.3074 33.6841 84.271 33.7583 84.1968C33.9068 84.0483 33.9068 83.8089 33.7583 83.6604L31.5917 81.4938L33.4568 79.6286C33.5886 79.4968 33.5841 79.2983 33.4811 79.1513L34.3114 79.9816C34.3856 80.0559 34.4811 80.0922 34.5796 80.0922C34.5992 80.0922 34.6159 80.0725 34.6356 80.0695C34.522 81.2104 34.4053 82.4074 34.2826 83.7119C34.2023 84.5362 32.9947 84.8877 30.2432 84.8877ZM34.7083 79.3089L32.2644 76.865L34.4265 74.7029L34.6538 74.9301C34.728 75.0044 34.8235 75.0407 34.922 75.0407C35.0068 75.0407 35.0871 74.9998 35.1553 74.9438C35.1356 75.1422 35.1174 75.318 35.0962 75.5241C34.9765 76.6725 34.8462 77.9316 34.7083 79.3089ZM35.5523 70.8847C35.4599 71.9104 35.3432 73.0892 35.2053 74.4362C35.1947 74.4241 35.1992 74.4059 35.1871 74.3938L33.2068 72.4135L35.1432 70.4771L35.5523 70.8847ZM35.7811 65.7347C35.7129 65.7498 35.6417 65.7619 35.5886 65.815L35.1432 66.2604L34.3326 65.4498C34.1826 65.3013 33.9432 65.3013 33.7962 65.4498C33.6477 65.5983 33.6477 65.8377 33.7962 65.9862L34.6068 66.7968L33.4356 67.968C33.2871 68.1165 33.2871 68.3559 33.4356 68.5044C33.5099 68.5786 33.6053 68.615 33.7038 68.615C33.8023 68.615 33.8977 68.5786 33.972 68.5044L35.1432 67.3332L35.1568 67.3468C35.2311 67.421 35.328 67.4574 35.425 67.4574C35.522 67.4574 35.6189 67.421 35.6932 67.3468C35.8417 67.1983 35.8417 66.9589 35.6932 66.8104L35.6796 66.7968L35.8129 66.6635C35.8114 67.2983 35.7765 68.0665 35.7099 68.9953C35.6159 68.9968 35.522 69.0316 35.4492 69.1029L35.1432 69.4089L34.872 69.1377C34.7235 68.9892 34.4841 68.9892 34.3356 69.1377C34.1871 69.2862 34.1871 69.5256 34.3356 69.6741L34.6068 69.9453L32.4477 72.1044C32.2992 72.2529 32.2992 72.4922 32.4477 72.6407C32.4523 72.6453 32.4614 72.6438 32.4659 72.6483C32.4826 72.7089 32.4902 72.7741 32.5371 72.821L33.8871 74.171L31.6886 76.3695C31.5492 76.3089 31.3917 76.3074 31.278 76.421C31.1644 76.5347 31.1659 76.6938 31.2265 76.8316L30.5583 77.4998C30.4099 77.6483 30.4099 77.8877 30.5583 78.0362C30.6326 78.1104 30.728 78.1468 30.8265 78.1468C30.925 78.1468 31.0205 78.1104 31.0947 78.0362L31.7265 77.4044L33.3962 79.0741C33.2477 78.971 33.0508 78.9665 32.9189 79.0983L31.0538 80.9635L30.1977 80.1074C30.0492 79.9589 29.8099 79.9589 29.6614 80.1074C29.5129 80.2559 29.5129 80.4953 29.6614 80.6438L30.5174 81.4998L29.2553 82.7619L27.4538 80.9604L29.6629 78.7513C29.8114 78.6029 29.8114 78.3635 29.6629 78.215C29.5144 78.0665 29.275 78.0665 29.1265 78.215L26.9174 80.4241L26.4205 79.9271C26.272 79.7786 26.0326 79.7786 25.8841 79.9271C25.7356 80.0756 25.7356 80.315 25.8841 80.4635L26.3811 80.9604L24.7599 82.5816L23.6326 81.4544L26.278 78.8089C26.4265 78.6604 26.4265 78.421 26.278 78.2725C26.1295 78.1241 25.8902 78.1241 25.7417 78.2725L23.0962 80.918L22.0159 79.8331C21.8674 79.6847 21.628 79.6847 21.4795 79.8331C21.3311 79.9816 21.3311 80.221 21.4795 80.3695L22.5599 81.4498L21.6568 82.3528L20.7553 81.4513C20.6068 81.3028 20.3674 81.3028 20.2189 81.4513C19.825 81.8453 20.6962 82.4635 21.1205 82.8877L20.4508 83.5574C19.1871 82.6877 19.6508 82.6377 18.7341 74.3089C18.3583 70.8695 17.8417 66.1589 17.9477 65.5165C18.2962 63.7225 20.8144 62.5907 25.2295 62.2407C27.7099 62.0438 31.1796 62.0559 33.4811 62.9377C34.9402 63.4983 35.6341 63.7801 35.7811 65.7347Z" fill="white"/>
</g>
<g id="Group_6">
<path id="Vector_5" d="M89.8444 88.936C89.4929 88.7966 88.6701 88.4678 75.2792 88.4678C53.9989 88.4678 16.9004 89.2784 13.7429 89.5223C12.1444 89.6435 10.4671 89.839 9.05651 90.7254C7.60348 91.639 6.4262 93.6875 7.10196 95.5435C8.4156 99.139 12.2838 98.6299 37.6838 98.4147C48.7489 98.3223 63.9035 98.1587 84.9338 98.1587C95.0186 98.1208 94.6262 90.845 89.8444 88.936ZM89.3323 96.0299C87.3247 96.8754 89.7686 96.4693 37.6701 96.9011C15.8868 97.086 9.47166 97.6208 8.52469 95.0269C8.1353 93.9556 8.89893 92.6511 9.86408 92.045C10.9808 91.342 12.3914 91.1647 13.858 91.0511C17.002 90.8102 54.0247 89.992 75.2792 89.992C86.9459 89.992 88.9641 90.242 89.2823 90.3481C92.3111 91.5557 92.3201 94.7693 89.3323 96.0299Z" fill="white"/>
</g>
<g id="Group_7">
<path id="Vector_6" d="M78.9786 75.6755C79.0528 75.7497 79.1482 75.7861 79.2467 75.7861C79.3452 75.7861 79.4407 75.7497 79.5149 75.6755L81.5467 73.6436L82.5361 74.633C82.6104 74.7073 82.7058 74.7436 82.8043 74.7436C82.8998 74.7436 82.9982 74.7073 83.0725 74.633C83.221 74.4846 83.221 74.2452 83.0725 74.0967L82.0831 73.1073L82.9134 72.277C83.0619 72.1285 83.0619 71.8891 82.9134 71.7406C82.7649 71.5921 82.5255 71.5921 82.377 71.7406L81.5467 72.5709L79.5149 70.5391C79.3679 70.3921 79.1286 70.3891 78.9786 70.5391C78.8301 70.6876 78.8301 70.927 78.9786 71.0755L81.0104 73.1073L78.9786 75.1391C78.8301 75.2876 78.8301 75.527 78.9786 75.6755Z" fill="white"/>
</g>
<g id="Group_8">
<path id="Vector_7" d="M79.653 70.5742C79.7499 70.5742 79.8469 70.5379 79.9212 70.4636L81.5454 68.8409L82.5454 69.8409C82.6196 69.9151 82.7151 69.9515 82.8136 69.9515C82.909 69.9515 83.0075 69.9151 83.0818 69.8409C83.2303 69.6924 83.2303 69.453 83.0818 69.3045L82.0818 68.3045L83.4515 66.9348C83.5999 66.7863 83.5999 66.547 83.4515 66.3985C83.303 66.25 83.0636 66.25 82.9151 66.3985L81.5454 67.7682L80.5363 66.7576C80.3893 66.6106 80.15 66.6076 80 66.7576C79.8515 66.906 79.8515 67.1454 80 67.2939L81.009 68.3045L79.3848 69.9288C79.2363 70.0773 79.2363 70.3167 79.3848 70.4651C79.459 70.5363 79.556 70.5742 79.653 70.5742Z" fill="white"/>
</g>
<g id="Group_9">
<path id="Vector_8" d="M69.8588 54.5223C69.8724 54.7223 70.0376 54.6465 70.2361 54.6465H70.2618C70.4709 54.6465 70.6285 54.6813 70.6134 54.4738L69.7482 41.5177C69.5285 38.2071 69.9573 36.2692 71.1315 35.1056C72.3634 33.8874 74.5891 33.4738 78.1103 33.748C78.3588 33.7859 78.5012 33.6223 78.5179 33.4147C78.5346 33.2056 78.3785 33.0313 78.1709 33.0147C74.3527 32.7207 72.0164 33.2192 70.5997 34.6207C69.2543 35.9526 68.7588 38.0162 68.9937 41.5647L69.8588 54.5223Z" fill="white"/>
</g>
</g>
</g>
</svg>
