<svg width="100" height="100" viewBox="0 0 100 100" fill="none" xmlns="http://www.w3.org/2000/svg">
<g opacity="0.2">
<path d="M96.3103 56.0395C94.7928 56.4802 92.2237 57.9606 90.6469 58.9484C85.4078 51.8809 79.9798 41.6466 78.3429 33.0033C80.8753 32.3043 86.3401 29.9683 88.8438 28.8027C91.2577 34.468 92.7712 39.2751 94.4082 42.4918C94.6828 43.032 95.3456 43.2511 95.8917 42.9744C96.4345 42.6979 96.6507 42.0337 96.3742 41.4908C94.8739 38.5445 91.2878 28.4276 90.3949 26.7727C90.3901 26.7638 90.3812 26.759 90.3762 26.7502C89.9483 25.789 88.8381 25.7992 88.3933 26.5801C86.0469 27.7194 79.0602 30.6788 77.3688 30.9775C76.5384 30.7128 75.8372 31.4193 75.9526 32.1819C76.0514 32.8315 76.1749 33.4911 76.3158 34.1571C65.7448 37.2008 61.3607 30.8041 54.4941 32.0426C53.1265 32.2901 51.7707 32.7379 50.4607 33.2741C42.6595 28.3646 31.604 34.5684 25.7013 31.2032C23.8451 30.1301 21.9256 29.1022 19.9922 28.0615C20.1517 27.2276 20.2907 26.6274 20.2208 26.3313C20.005 25.4101 8.71543 20.4095 8.47653 20.426C8.46486 20.4238 8.45597 20.4161 8.44412 20.4143C7.84382 20.3231 7.28087 20.7425 7.19183 21.3449C6.59733 25.3817 3.30921 34.7884 2.3126 38.8807C2.16899 39.4724 2.53233 40.0691 3.12401 40.2134C3.73058 40.3576 4.31557 39.9815 4.45673 39.402C5.43406 35.3768 8.07774 27.9417 9.11847 23.0362C11.2515 24.0736 16.0379 26.255 17.9147 27.1816C16.9932 32.0448 14.4607 44.6475 11.3097 54.015C10.2442 53.3807 8.90203 52.5692 7.97667 52.0248C6.89951 51.393 5.7444 52.7696 6.62267 53.7152C6.73155 54.2566 6.8222 54.8266 6.96555 55.3138C8.38659 56.3607 10.2887 57.5272 11.9168 58.2091C12.2714 58.013 12.5371 57.3033 12.626 56.908C14.0385 57.8179 15.448 59.0863 16.8605 59.9962C15.712 61.2102 15.8594 64.7402 18.3915 67.2108C19.4748 68.2679 21.078 68.8686 22.5425 68.4868C21.8973 72.7319 25.8398 75.5659 29.4734 74.6271C29.422 78.5237 33.2659 81.4851 37.0636 80.192C37.6 82.1653 39.1619 84.0203 41.1029 84.6637C43.0439 85.3072 45.296 84.9146 46.9049 83.6524C47.1387 83.4689 47.3591 83.3151 47.5812 83.1583C50.5203 83.9823 53.5116 83.5577 56.1257 82.3647C59.349 83.7642 62.8958 81.426 63.3662 78.4907C66.6783 80.1033 70.422 77.4975 70.7694 74.5814C72.2907 75.0026 74.0079 74.635 75.2237 73.6282C76.4393 72.6214 77.3517 70.6411 77.2215 69.068C81.5772 66.5973 85.7358 64.2367 90.1909 61.7095C90.2094 61.7165 90.2293 61.7164 90.2482 61.7225C90.9869 62.6723 91.091 62.6623 91.4418 62.5656C92.8169 62.228 95.7084 60.9432 96.9134 60.1996C97.2443 59.3816 97.2705 59.254 97.4058 57.8437C98.1989 57.0013 97.3574 55.7266 96.3103 56.0395ZM53.1412 79.3786C53.3743 79.582 53.6377 79.8104 53.9256 80.0405C52.4239 80.7663 51.0528 80.835 50.2223 80.6115C49.0804 80.3033 47.4939 79.3028 46.7671 78.2581C47.0814 77.2587 47.578 76.3981 47.7702 75.1771C49.948 76.8585 51.5089 77.9549 53.1412 79.3786ZM45.631 74.3242C45.6634 74.9417 45.4128 75.6275 45.0896 76.436C44.3889 78.1942 44.4319 78.6393 44.3673 79.4231C44.3416 79.9851 44.3089 80.7596 44.6142 81.4067C42.4592 82.1917 39.9507 80.2011 39.1733 78.2302C40.7548 76.4063 42.2072 74.4571 43.5152 72.4254C43.5189 72.4253 43.522 72.4271 43.5257 72.4271C44.5353 72.3675 45.5779 73.316 45.631 74.3242ZM42.0222 70.7107C41.4412 71.5567 40.2343 73.6409 37.5109 76.7809C37.4147 76.8171 37.312 76.8345 37.2276 76.8977C36.4837 77.452 35.4353 77.6179 34.5571 77.3192C33.6789 77.0198 32.9501 76.2493 32.6995 75.356C32.4882 74.6039 32.4889 73.4116 32.5952 72.5539C33.3583 71.611 32.9786 71.6071 36.8686 67.2261L37.5888 66.4126C37.6308 66.3649 37.6478 66.3066 37.6801 66.2543C38.6397 66.1944 39.4086 66.2836 40.0438 66.5461C41.3299 67.0775 42.2511 68.9617 42.0149 70.578C42.0083 70.6237 42.0231 70.6657 42.0222 70.7107ZM30.7901 71.3703C29.4155 71.9457 27.6901 71.6765 26.5881 70.6771C25.4428 69.6377 25.0103 67.8511 25.5371 66.398C28.2457 63.9347 30.3679 60.6931 33.2782 62.1573C34.6921 62.8704 35.5265 64.5011 35.4913 65.1165C35.4856 65.2184 35.5125 65.3121 35.5331 65.4073C34.3579 66.7334 31.625 69.7803 30.7901 71.3703ZM25.0483 63.8099C24.5974 64.269 24.1626 64.6911 23.7464 65.0417C22.444 65.4771 20.7964 64.8876 20.1377 63.6789C19.4481 62.414 19.9112 60.6053 21.096 59.7915C23.941 59.5521 25.7536 62.322 25.0483 63.8099ZM54.8861 34.2133C60.5545 33.1914 65.8976 39.4028 76.8356 36.3027C78.894 43.9876 83.3059 52.3355 87.6914 58.6166C83.2158 60.1013 79.6796 62.0546 75.4587 65.35C74.6956 63.5933 73.6003 62.4961 72.037 60.9754C66.5632 55.6381 60.1309 47.9905 53.4549 44.2523C53.633 44.2313 53.8069 44.2153 53.9598 44.2195C54.5709 44.2647 55.0764 43.7592 55.0951 43.1503C55.1138 42.5414 54.6348 42.033 54.0259 42.015C51.8516 41.9296 48.6096 43.3499 47.0399 45.0043C44.4604 47.6966 42.979 51.7608 39.7717 52.9425C38.8181 53.295 37.5572 53.2254 37.1069 52.5045C36.7357 51.8963 36.5562 50.5951 36.7228 49.7155C37.2412 46.895 38.416 45.1285 40.1494 42.7546C41.416 41.0126 43.5042 39.3144 46.1825 37.8445C48.8437 36.3991 51.8602 34.7612 54.8861 34.2133ZM24.6026 33.1161C30.9339 36.7235 40.8778 31.5487 47.9271 34.4331C44.3834 36.2058 40.7086 38.2371 38.3664 41.4549C36.5138 43.9933 35.1553 46.0433 34.5542 49.3105C34.3216 50.5406 34.4767 52.4269 35.2299 53.6627C36.3116 55.3952 38.6874 55.6984 40.5357 55.0112C43.2108 54.0277 44.8889 51.6603 46.357 49.5109C47.9685 47.147 48.6382 46.1822 50.5016 45.2318C57.3738 48.3057 63.7766 55.853 69.2782 61.3546C70.6858 62.7621 71.1174 63.1148 72.1304 64.2282C75.2963 67.7054 73.6598 71.2925 71.0066 70.9299C69.0844 70.6736 67.4815 68.8059 65.9816 67.4042C63.2767 64.8788 60.4511 62.1509 58.1059 59.311C57.7196 58.8406 57.0231 58.7746 56.5535 59.163C56.0839 59.5508 56.0171 60.2459 56.4055 60.7155C58.8297 63.6516 61.717 66.4406 64.4765 69.017C65.5737 70.0423 66.7746 71.3544 68.2527 72.2273C67.6143 74.6974 65.0378 76.0302 62.6993 75.2368C60.9806 74.6516 60.2346 73.6625 52.8519 66.1684C52.4261 65.7354 51.7267 65.7297 51.2922 66.1569C50.8585 66.5842 50.8528 67.2829 51.2807 67.7166C58.2187 74.7506 58.9923 75.6954 60.5858 76.6564C60.1419 78.6719 58.7033 79.4344 57.5207 79.3614C56.5362 79.3441 55.5733 78.5737 54.5917 77.717C52.1094 75.551 49.3148 73.7383 46.9192 71.6472C46.7956 71.5392 46.6539 71.4695 46.5063 71.4259C45.8818 70.8281 45.0933 70.4037 44.2366 70.267C44.2976 68.0808 43.1396 65.4379 40.8868 64.5068C39.9292 64.1114 38.8397 63.9759 37.5272 64.0588C37.1119 62.6445 35.9351 61.0266 34.272 60.1884C31.4257 58.7516 29.0767 60.0595 27.1803 61.7253C26.3697 59.1357 23.7434 57.23 20.8558 57.6091C20.7751 57.6199 20.708 57.6588 20.6345 57.6854C20.4763 57.6838 20.3218 57.7147 20.1714 57.784C17.7855 55.9193 16.3333 55.1806 13.7073 53.7719C16.2771 45.8643 18.405 36.0646 19.5491 30.3302C21.2438 31.242 22.9393 32.1542 24.6026 33.1161Z" fill="white"/>
<path d="M12.3729 31.0133C13.4493 30.5947 13.7195 29.2744 12.9093 28.4642C11.9354 27.4902 10.3178 28.1205 10.2575 29.496C10.2338 30.0367 10.4722 30.5393 10.8937 30.8417C11.3265 31.1529 11.8841 31.2029 12.3729 31.0133Z" fill="white"/>
<path d="M80.4589 35.2251C79.6686 37.3928 81.4538 39.9731 83.9285 39.3029C85.4286 38.9001 86.2637 37.5473 85.9592 36.0135C85.3633 33.0086 81.3944 32.6587 80.4589 35.2251ZM83.3562 37.1732C83.0934 37.24 82.9154 37.1983 82.7574 37.0267C82.4281 36.6678 82.3 35.7952 82.8967 35.7169C83.3802 35.6543 83.7124 36.0213 83.7957 36.4436C83.9113 37.0238 83.4934 37.1358 83.3562 37.1732Z" fill="white"/>
<path d="M43.6909 27.06C44.0003 27.5819 44.6754 27.7577 45.2024 27.4471C45.7266 27.1362 45.8996 26.4597 45.5894 25.9356L41.9489 19.7875C41.6387 19.2626 40.963 19.0903 40.4381 19.3998C39.9139 19.71 39.7401 20.3864 40.0503 20.9106L43.6909 27.06Z" fill="white"/>
<path d="M50.3076 27.0376C50.8426 27.0376 51.3129 26.6469 51.3962 26.1019L52.8984 16.3026C52.991 15.7001 52.5774 15.1371 51.9757 15.0452C51.3761 14.9504 50.8103 15.3655 50.7184 15.9679L49.2162 25.7673C49.1135 26.435 49.6297 27.0376 50.3076 27.0376Z" fill="white"/>
<path d="M58.7455 25.885L61.8762 21.1911C62.2145 20.6841 62.0773 19.9998 61.5704 19.6616C61.0634 19.3234 60.3791 19.4605 60.0409 19.9675L56.9101 24.6615C56.5719 25.1684 56.7091 25.8527 57.216 26.1909C57.7211 26.5283 58.407 26.3927 58.7455 25.885Z" fill="white"/>
</g>
</svg>
