<svg width="195" height="146" viewBox="0 0 195 146" fill="none" xmlns="http://www.w3.org/2000/svg">
<path d="M68.4776 57.2L70.4347 52.5989L66.8323 51.0666L64.4805 54.1962L68.4776 57.2ZM144.239 89.4253L142.282 94.0264L146.457 95.8022L148.629 91.819L144.239 89.4253ZM193 0L143.719 30.0784L194.408 57.7179L193 0ZM7.99714 146.004L72.4748 60.2038L64.4805 54.1962L0.00285554 139.996L7.99714 146.004ZM66.5205 61.8011L142.282 94.0264L146.196 84.8243L70.4347 52.5989L66.5205 61.8011ZM148.629 91.819L175.847 41.902L167.067 37.1147L139.849 87.0317L148.629 91.819Z" fill="#6152D9"/>
</svg>
