<svg width="224" height="222" viewBox="0 0 224 222" fill="none" xmlns="http://www.w3.org/2000/svg">
<mask id="mask0_3486_668" style="mask-type:alpha" maskUnits="userSpaceOnUse" x="0" y="0" width="224" height="222">
<rect width="224" height="222" fill="#D9D9D9"/>
</mask>
<g mask="url(#mask0_3486_668)">
<path d="M19.9188 130.744L7.59319 136.498L7.18271 133.981L16.2977 130.104L16.2782 129.984L6.3782 129.047L6.00475 126.757L15.0993 122.716L15.0808 122.602L5.20024 121.824L4.78976 119.306L18.3046 120.846L18.6812 123.155L10.0374 127.22L10.0538 127.321L19.5423 128.435L19.9188 130.744Z" fill="white"/>
<path d="M18.0547 111.363L18.0052 113.893L5.00686 109.03L5.06409 106.103L18.2427 101.744L18.1932 104.275L7.72062 107.567L7.71862 107.67L18.0547 111.363ZM12.9245 111.179L13.0594 104.277L14.9639 104.314L14.8289 111.216L12.9245 111.179Z" fill="white"/>
<path d="M7.73587 98.8021L5.76959 98.5095L7.30681 88.1787L9.27309 88.4712L8.67758 92.4733L19.6597 94.1075L19.3134 96.4341L8.33138 94.8L7.73587 98.8021Z" fill="white"/>
<path d="M15.4173 76.1347L14.7763 78.4378C14.3803 78.3983 14.012 78.4263 13.6714 78.5217C13.3267 78.616 13.0151 78.7659 12.7367 78.9715C12.4583 79.1771 12.221 79.434 12.0247 79.742C11.8254 80.0449 11.672 80.3892 11.5646 80.7751C11.3738 81.4607 11.3771 82.1163 11.5745 82.7418C11.7679 83.3663 12.1533 83.9203 12.7309 84.404C13.3043 84.8865 14.0652 85.2597 15.0135 85.5236C15.9783 85.7922 16.8328 85.8686 17.5772 85.7528C18.3186 85.6319 18.9307 85.3555 19.4136 84.9237C19.8936 84.4867 20.2284 83.9274 20.4181 83.2459C20.5232 82.8683 20.5722 82.5015 20.5651 82.1456C20.555 81.7845 20.488 81.4452 20.3641 81.1276C20.2413 80.8059 20.0613 80.5148 19.8242 80.2541C19.5883 79.9894 19.2953 79.7707 18.9452 79.5981L19.5986 77.2985C20.1739 77.5515 20.6844 77.8948 21.1299 78.3285C21.5765 78.758 21.937 79.2586 22.2113 79.8304C22.4816 80.401 22.6439 81.0257 22.6983 81.7043C22.7486 82.3818 22.6692 83.0962 22.4601 83.8475C22.1516 84.9559 21.6196 85.8739 20.8642 86.6014C20.1088 87.3289 19.177 87.8082 18.0687 88.0394C16.9605 88.2706 15.729 88.1976 14.3742 87.8206C13.0153 87.4424 11.9238 86.8665 11.0996 86.093C10.2713 85.3184 9.72169 84.4245 9.45076 83.4114C9.17984 82.3982 9.19749 81.3415 9.50372 80.2413C9.69911 79.5393 9.97931 78.914 10.3443 78.3653C10.7094 77.8167 11.1485 77.3595 11.6617 76.9936C12.1708 76.6266 12.7426 76.3678 13.3773 76.2171C14.009 76.0612 14.689 76.0337 15.4173 76.1347Z" fill="white"/>
<path d="M24.5328 77.388L12.542 72.1352L13.4936 69.9631L18.5698 72.1868L21.0038 66.6305L15.9276 64.4068L16.8817 62.2288L28.8725 67.4815L27.9184 69.6596L22.8247 67.4281L20.3906 72.9845L25.4844 75.2159L24.5328 77.388Z" fill="white"/>
<path d="M37.1802 44.4321C38.2904 45.3022 39.0782 46.2554 39.5437 47.2917C40.0086 48.322 40.1706 49.3587 40.0299 50.4016C39.8918 51.4413 39.4692 52.4122 38.762 53.3144C38.0549 54.2166 37.2117 54.8605 36.2325 55.2463C35.2526 55.6261 34.2056 55.715 33.0915 55.5132C31.9766 55.3053 30.8658 54.7676 29.759 53.9001C28.6489 53.0299 27.8614 52.0797 27.3966 51.0494C26.9311 50.0131 26.7674 48.9752 26.9054 47.9355C27.0461 46.8925 27.4701 45.92 28.1772 45.0178C28.8844 44.1156 29.7262 43.4733 30.7028 43.0909C31.682 42.7051 32.729 42.6161 33.8438 42.824C34.958 43.0259 36.0701 43.5619 37.1802 44.4321ZM35.7094 46.3086C34.928 45.6961 34.173 45.3019 33.4444 45.1261C32.7152 44.9444 32.0448 44.9603 31.4333 45.1741C30.8184 45.3852 30.2915 45.7708 29.8525 46.3309C29.4135 46.891 29.1649 47.4948 29.1068 48.1423C29.0453 48.7871 29.1886 49.4436 29.5367 50.1117C29.884 50.7737 30.4484 51.4111 31.2299 52.0236C32.0113 52.6361 32.7667 53.0332 33.4959 53.215C34.2244 53.3908 34.8961 53.3731 35.511 53.162C36.1225 52.9483 36.6478 52.5614 37.0868 52.0013C37.5258 51.4412 37.776 50.8387 37.8375 50.1938C37.8956 49.5463 37.751 48.8916 37.4037 48.2295C37.0556 47.5614 36.4909 46.9211 35.7094 46.3086Z" fill="white"/>
<path d="M43.0537 29.8863L44.801 28.2829L50.5835 34.5844C51.2174 35.2752 51.6116 36.0325 51.7662 36.8565C51.924 37.6776 51.8447 38.5051 51.5284 39.339C51.2092 40.1698 50.6572 40.9453 49.8722 41.6656C49.0841 42.3888 48.2626 42.8738 47.4075 43.1206C46.5495 43.3642 45.7183 43.3722 44.9137 43.1447C44.1092 42.9171 43.39 42.4579 42.7561 41.7672L36.9736 35.4657L38.7209 33.8623L44.3694 40.0178C44.7382 40.4197 45.1546 40.6969 45.6185 40.8496C46.0856 40.9993 46.5629 41.0153 47.0506 40.8975C47.5353 40.7766 47.999 40.513 48.4417 40.1067C48.8844 39.7005 49.1868 39.2611 49.3489 38.7885C49.5112 38.3099 49.5362 37.8329 49.4239 37.3576C49.3116 36.8823 49.071 36.4437 48.7023 36.0418L43.0537 29.8863Z" fill="white"/>
<path d="M56.5286 36.065L49.0304 25.3343L53.0544 22.5224C53.8788 21.9464 54.6705 21.6063 55.4295 21.5022C56.1921 21.3957 56.8972 21.5008 57.5448 21.8177C58.1936 22.1286 58.7571 22.6263 59.2355 23.311C59.7164 23.9991 59.987 24.699 60.0475 25.4105C60.1091 26.1161 59.9533 26.8046 59.5803 27.4759C59.2048 28.1438 58.6049 28.7657 57.7805 29.3418L54.9144 31.3445L53.7868 29.7307L56.3909 27.911C56.8729 27.5742 57.2212 27.232 57.4359 26.8845C57.6481 26.5335 57.7372 26.1775 57.7033 25.8165C57.6705 25.4495 57.521 25.0757 57.2549 24.6949C56.9889 24.3142 56.6868 24.0418 56.3487 23.8778C56.0081 23.7103 55.6353 23.6641 55.2302 23.7391C54.8228 23.8107 54.3763 24.0161 53.8907 24.3554L52.1093 25.6002L58.4725 34.7067L56.5286 36.065ZM58.6745 27.3291L64.7286 30.3352L62.5594 31.8509L56.5524 28.8119L58.6745 27.3291Z" fill="white"/>
<path d="M69.7678 13.5584L76.7543 21.8631L76.879 21.8133L76.2142 10.983L78.636 10.0155L79.2069 23.8844L76.4883 24.9705L67.3519 14.5235L69.7678 13.5584Z" fill="white"/>
<path d="M86.82 7.93501L90.027 20.627L87.7278 21.208L84.5209 8.51596L86.82 7.93501Z" fill="white"/>
<path d="M101.126 18.6853L96.7217 19.2134L95.1633 6.21559L99.6567 5.67685C100.947 5.52213 102.087 5.64943 103.076 6.05875C104.069 6.46334 104.873 7.12016 105.488 8.02921C106.104 8.93826 106.492 10.0676 106.654 11.4174C106.816 12.7713 106.704 13.965 106.317 14.9985C105.935 16.0315 105.303 16.8648 104.422 17.4984C103.545 18.1314 102.446 18.5271 101.126 18.6853ZM98.832 16.8938L100.768 16.6618C101.673 16.5532 102.409 16.2976 102.974 15.8951C103.539 15.4883 103.934 14.9366 104.16 14.24C104.385 13.5392 104.438 12.6917 104.318 11.6974C104.199 10.7031 103.948 9.89628 103.565 9.27699C103.181 8.65347 102.671 8.21458 102.036 7.96032C101.404 7.70131 100.648 7.62457 99.7677 7.73009L97.7621 7.97054L98.832 16.8938Z" fill="white"/>
<path d="M111.546 18.0313L111.951 4.94668L120.461 5.21004L120.4 7.19701L114.26 7.00701L114.15 10.5593L119.849 10.7356L119.788 12.7226L114.089 12.5463L113.978 16.1177L120.169 16.3093L120.108 18.2963L111.546 18.0313Z" fill="white"/>
<path d="M137.444 14.5397C137.196 15.9282 136.723 17.071 136.026 17.9681C135.334 18.8618 134.494 19.491 133.507 19.8557C132.524 20.2212 131.468 20.3031 130.34 20.1016C129.211 19.9 128.247 19.4572 127.448 18.7732C126.653 18.0857 126.083 17.2027 125.739 16.1239C125.4 15.0417 125.354 13.8085 125.601 12.4241C125.849 11.0356 126.319 9.89452 127.012 9.00089C127.709 8.10381 128.549 7.47252 129.532 7.10702C130.519 6.74228 131.577 6.6607 132.705 6.86229C133.834 7.06388 134.796 7.5063 135.591 8.18954C136.391 8.87354 136.961 9.75663 137.3 10.8388C137.644 11.9176 137.692 13.1512 137.444 14.5397ZM135.097 14.1204C135.271 13.143 135.265 12.2913 135.079 11.5654C134.898 10.8361 134.569 10.2515 134.094 9.81155C133.619 9.36745 133.031 9.08282 132.331 8.95767C131.63 8.83252 130.98 8.89607 130.381 9.14833C129.783 9.39639 129.27 9.83076 128.843 10.4514C128.421 11.0687 128.123 11.866 127.948 12.8434C127.774 13.8209 127.777 14.6742 127.959 15.4036C128.145 16.1295 128.475 16.7145 128.95 17.1586C129.426 17.5985 130.014 17.881 130.714 18.0062C131.415 18.1313 132.064 18.0699 132.663 17.8218C133.262 17.5696 133.772 17.1348 134.194 16.5176C134.621 15.8969 134.922 15.0978 135.097 14.1204Z" fill="white"/>
<path d="M153.478 13.4775L148.461 25.5688L146.27 24.6599L151.288 12.5686L153.478 13.4775Z" fill="white"/>
<path d="M171.236 22.7987L164.714 34.1495L162.885 33.0986L161.979 22.294L161.885 22.2399L157.443 29.9715L155.387 28.7901L161.908 17.4393L163.748 18.4966L164.646 29.3035L164.746 29.3608L169.191 21.6236L171.236 22.7987Z" fill="white"/>
<path d="M178.696 33.1069C178.99 32.6289 179.057 32.1313 178.897 31.614C178.74 31.0994 178.384 30.627 177.828 30.1967C177.437 29.8942 177.056 29.6937 176.685 29.5952C176.314 29.4968 175.976 29.4913 175.671 29.5788C175.366 29.6662 175.112 29.8384 174.908 30.0953C174.741 30.311 174.645 30.5359 174.62 30.7699C174.599 31.0066 174.631 31.247 174.717 31.4912C174.805 31.7321 174.925 31.9704 175.077 32.2062C175.228 32.442 175.391 32.6674 175.564 32.8822L176.347 33.8759C176.667 34.2694 176.948 34.6831 177.189 35.1172C177.433 35.5539 177.607 36.001 177.711 36.4586C177.818 36.9188 177.827 37.3809 177.737 37.8449C177.648 38.309 177.429 38.7651 177.083 39.2134C176.613 39.82 176.045 40.2343 175.377 40.4561C174.713 40.6746 173.987 40.6867 173.2 40.4925C172.418 40.2975 171.613 39.8792 170.784 39.2378C169.979 38.6145 169.376 37.9487 168.975 37.2404C168.579 36.5346 168.398 35.8134 168.435 35.0766C168.475 34.3425 168.748 33.6212 169.253 32.9128L171.098 34.3405C170.846 34.722 170.725 35.108 170.735 35.4985C170.746 35.8891 170.862 36.2646 171.084 36.6251C171.31 36.9881 171.618 37.3209 172.009 37.6234C172.417 37.939 172.821 38.1547 173.221 38.2707C173.628 38.3859 174.004 38.4017 174.348 38.3183C174.696 38.2314 174.986 38.041 175.219 37.747C175.424 37.4748 175.517 37.1911 175.497 36.8959C175.481 36.5973 175.378 36.2808 175.189 35.9464C175.007 35.6112 174.767 35.253 174.469 34.8718L173.526 33.6571C172.843 32.7783 172.425 31.9248 172.274 31.0966C172.129 30.2676 172.343 29.4824 172.917 28.7409C173.389 28.1309 173.967 27.7244 174.652 27.5216C175.341 27.3214 176.069 27.3166 176.838 27.5071C177.609 27.6943 178.357 28.0682 179.081 28.6288C179.816 29.1973 180.361 29.8234 180.715 30.5072C181.076 31.1903 181.24 31.8802 181.207 32.5769C181.177 33.2703 180.942 33.9124 180.5 34.5033L178.696 33.1069Z" fill="white"/>
<path d="M183.522 35.3726L184.917 33.9563L192.358 41.2857L190.963 42.702L188.08 39.8626L180.289 47.7728L178.613 46.1221L186.404 38.2119L183.522 35.3726Z" fill="white"/>
<path d="M183.522 51.5173L193.717 43.3057L196.797 47.1288C197.427 47.912 197.821 48.6787 197.976 49.4289C198.134 50.1824 198.078 50.8931 197.806 51.5608C197.54 52.2292 197.081 52.8254 196.431 53.3493C195.777 53.8759 195.097 54.1936 194.392 54.3024C193.692 54.4119 192.994 54.3034 192.299 53.9769C191.607 53.6478 190.946 53.0916 190.315 52.3084L188.122 49.5854L189.655 48.3504L191.648 50.8245C192.017 51.2825 192.382 51.6067 192.743 51.7972C193.108 51.985 193.469 52.0497 193.827 51.9913C194.191 51.9335 194.554 51.7589 194.915 51.4676C195.277 51.1762 195.528 50.8563 195.669 50.5077C195.813 50.1565 195.833 49.7814 195.731 49.3825C195.632 48.9808 195.396 48.5493 195.025 48.088L193.662 46.3955L185.01 53.3642L183.522 51.5173ZM192.384 53.0632L189.797 59.308L188.137 57.2471L190.76 51.0471L192.384 53.0632Z" fill="white"/>
<path d="M205.501 60.43L206.731 62.4573L199.42 66.8945C198.618 67.3809 197.798 67.6193 196.96 67.6096C196.124 67.6036 195.328 67.3639 194.572 66.8905C193.82 66.4149 193.167 65.7217 192.615 64.811C192.06 63.8966 191.745 62.996 191.67 62.1091C191.599 61.2201 191.754 60.4033 192.135 59.6589C192.515 58.9144 193.106 58.299 193.908 57.8126L201.219 53.3754L202.45 55.4027L195.308 59.7371C194.841 60.0201 194.488 60.3741 194.247 60.7992C194.009 61.228 193.9 61.693 193.92 62.1942C193.944 62.6933 194.112 63.1996 194.423 63.7133C194.735 64.2269 195.107 64.6095 195.538 64.8609C195.976 65.1137 196.439 65.2316 196.927 65.2145C197.415 65.1974 197.892 65.0474 198.359 64.7644L205.501 60.43Z" fill="white"/>
<path d="M209.213 79.3432L208.273 77.145C208.607 76.9282 208.877 76.6761 209.083 76.3887C209.293 76.0996 209.442 75.7877 209.531 75.4532C209.62 75.1187 209.644 74.7698 209.605 74.4066C209.571 74.0457 209.475 73.6811 209.318 73.3128C209.038 72.6584 208.626 72.1489 208.08 71.7842C207.539 71.4178 206.892 71.2264 206.139 71.2101C205.389 71.1921 204.562 71.3766 203.657 71.7636C202.736 72.1573 202.022 72.6321 201.513 73.1878C201.01 73.7458 200.705 74.3443 200.598 74.9832C200.497 75.6243 200.586 76.2701 200.864 76.9206C201.018 77.281 201.209 77.5979 201.437 77.8711C201.671 78.1466 201.935 78.3696 202.23 78.5399C202.527 78.7142 202.85 78.8289 203.198 78.884C203.548 78.9431 203.913 78.9305 204.294 78.8463L205.222 81.0495C204.615 81.2118 204.002 81.263 203.383 81.2032C202.766 81.1473 202.172 80.982 201.6 80.7073C201.032 80.431 200.515 80.045 200.048 79.5494C199.585 79.0522 199.201 78.445 198.894 77.728C198.442 76.6701 198.283 75.6211 198.417 74.581C198.552 73.5409 198.979 72.5842 199.7 71.7108C200.42 70.8374 201.427 70.1242 202.72 69.5714C204.017 69.0169 205.229 68.7837 206.355 68.872C207.486 68.9585 208.474 69.3124 209.319 69.9337C210.164 70.5549 210.811 71.3906 211.26 72.4407C211.546 73.1107 211.719 73.7739 211.777 74.4303C211.835 75.0867 211.778 75.7181 211.607 76.3245C211.439 76.9292 211.154 77.4888 210.753 78.0032C210.358 78.5199 209.844 78.9666 209.213 79.3432Z" fill="white"/>
<path d="M211.766 80.3963L213.676 79.8463L216.565 89.8833L214.655 90.4333L213.536 86.545L202.866 89.6166L202.215 87.3561L212.885 84.2845L211.766 80.3963Z" fill="white"/>
<path d="M217.136 94.506L204.243 96.7754L203.832 94.4398L216.725 92.1705L217.136 94.506Z" fill="white"/>
<path d="M212.27 114.895C210.861 114.966 209.642 114.763 208.611 114.286C207.584 113.813 206.782 113.137 206.204 112.257C205.626 111.382 205.309 110.372 205.251 109.227C205.193 108.082 205.407 107.043 205.893 106.11C206.384 105.18 207.116 104.426 208.09 103.848C209.067 103.274 210.259 102.951 211.663 102.88C213.072 102.809 214.289 103.01 215.316 103.483C216.347 103.96 217.151 104.636 217.729 105.512C218.307 106.391 218.625 107.403 218.683 108.548C218.74 109.693 218.526 110.73 218.04 111.659C217.554 112.593 216.821 113.346 215.843 113.921C214.87 114.499 213.679 114.824 212.27 114.895ZM212.15 112.514C213.142 112.464 213.97 112.266 214.635 111.921C215.305 111.58 215.801 111.128 216.122 110.566C216.448 110.003 216.593 109.366 216.557 108.656C216.521 107.945 216.312 107.326 215.932 106.799C215.555 106.272 215.016 105.87 214.316 105.594C213.619 105.322 212.775 105.211 211.783 105.262C210.792 105.312 209.961 105.507 209.291 105.848C208.626 106.193 208.131 106.647 207.805 107.21C207.483 107.772 207.341 108.409 207.377 109.12C207.413 109.83 207.619 110.449 207.995 110.976C208.376 111.503 208.915 111.903 209.611 112.175C210.312 112.451 211.158 112.564 212.15 112.514Z" fill="white"/>
<path d="M217.278 129.624L204.253 128.32L204.463 126.221L213.95 120.972L213.961 120.864L205.088 119.975L205.324 117.616L218.35 118.92L218.139 121.031L208.646 126.274L208.634 126.388L217.513 127.277L217.278 129.624Z" fill="white"/>
<path d="M202.926 132.718C203.012 132.34 203.219 132.046 203.546 131.836C203.874 131.627 204.228 131.567 204.609 131.659C204.984 131.739 205.274 131.945 205.479 132.276C205.683 132.606 205.742 132.961 205.657 133.339C205.573 133.704 205.368 133.992 205.041 134.202C204.713 134.415 204.361 134.482 203.986 134.401C203.733 134.339 203.518 134.22 203.339 134.044C203.16 133.872 203.032 133.668 202.954 133.432C202.88 133.201 202.871 132.963 202.926 132.718Z" fill="white"/>
<circle cx="112" cy="111" r="65" fill="#E8112B"/>
</g>
</svg>
