<svg width="140" height="140" viewBox="0 0 140 140" fill="none" xmlns="http://www.w3.org/2000/svg">
<g opacity="0.15">
<path d="M134.834 78.4552C132.71 79.0721 129.113 81.1448 126.905 82.5277C119.571 72.6332 111.971 58.3051 109.68 46.2045C113.225 45.226 120.876 41.9555 124.381 40.3237C127.76 48.2551 129.879 54.9851 132.171 59.4884C132.556 60.2446 133.483 60.5514 134.248 60.164C135.008 59.777 135.311 58.8471 134.924 58.0871C132.823 53.9622 127.802 39.7986 126.553 37.4817C126.546 37.4692 126.533 37.4625 126.526 37.4502C125.927 36.1045 124.373 36.1188 123.75 37.2121C120.465 38.8071 110.684 42.9502 108.316 43.3684C107.153 42.9979 106.172 43.987 106.333 45.0546C106.472 45.964 106.644 46.8874 106.842 47.8198C92.0423 52.0811 85.9045 43.1256 76.2913 44.8595C74.3767 45.2061 72.4786 45.8329 70.6446 46.5836C59.723 39.7104 44.2452 48.3957 35.9814 43.6844C33.3828 42.1821 30.6954 40.7429 27.9888 39.286C28.212 38.1186 28.4066 37.2782 28.3087 36.8637C28.0066 35.574 12.2012 28.5733 11.8667 28.5963C11.8504 28.5933 11.838 28.5825 11.8214 28.5799C10.981 28.4523 10.1928 29.0394 10.0682 29.8828C9.23587 35.5342 4.6325 48.7037 3.23726 54.4329C3.0362 55.2612 3.54487 56.0966 4.37323 56.2987C5.22243 56.5005 6.04141 55.974 6.23904 55.1627C7.6073 49.5274 11.3085 39.1183 12.7655 32.2506C15.7516 33.7029 22.4527 36.7569 25.0802 38.0541C23.7901 44.8627 20.2445 62.5064 15.8332 75.6209C14.3415 74.7329 12.4625 73.5968 11.1669 72.8346C9.65892 71.9501 8.04176 73.8773 9.27135 75.2012C9.42378 75.9592 9.5507 76.7571 9.75138 77.4392C11.7408 78.9049 14.4038 80.538 16.6831 81.4926C17.1796 81.2181 17.5515 80.2246 17.676 79.671C19.6536 80.945 21.6268 82.7207 23.6043 83.9945C21.9964 85.6942 22.2028 90.6362 25.7477 94.095C27.2643 95.5749 29.5087 96.416 31.5591 95.8814C30.6558 101.825 36.1753 105.792 41.2624 104.478C41.1904 109.933 46.5719 114.079 51.8886 112.269C52.6396 115.031 54.8262 117.628 57.5436 118.529C60.261 119.43 63.414 118.88 65.6664 117.113C65.9938 116.856 66.3023 116.641 66.6133 116.422C70.7281 117.575 74.9159 116.981 78.5756 115.311C83.0883 117.27 88.0537 113.996 88.7123 109.887C93.3492 112.145 98.5903 108.496 99.0767 104.414C101.207 105.003 103.611 104.489 105.313 103.079C107.015 101.67 108.292 98.8974 108.11 96.6951C114.208 93.2361 120.03 89.9312 126.267 86.3931C126.293 86.4031 126.321 86.4028 126.347 86.4114C127.381 87.7411 127.527 87.7271 128.018 87.5917C129.943 87.1191 133.991 85.3204 135.678 84.2794C136.142 83.1341 136.178 82.9554 136.368 80.9811C137.478 79.8018 136.3 78.0172 134.834 78.4552ZM74.3973 111.13C74.7236 111.415 75.0924 111.734 75.4955 112.057C73.3931 113.073 71.4735 113.169 70.3109 112.856C68.7122 112.424 66.491 111.024 65.4736 109.561C65.9135 108.162 66.6089 106.957 66.8779 105.248C69.9268 107.602 72.112 109.137 74.3973 111.13ZM63.8831 104.054C63.9283 104.918 63.5775 105.878 63.1251 107.01C62.1441 109.472 62.2043 110.095 62.1138 111.192C62.0778 111.979 62.0321 113.063 62.4595 113.969C59.4425 115.068 55.9306 112.281 54.8422 109.522C57.0563 106.969 59.0897 104.24 60.9209 101.395C60.926 101.395 60.9304 101.398 60.9356 101.398C62.349 101.314 63.8087 102.642 63.8831 104.054ZM58.8306 98.9949C58.0173 100.179 56.3276 103.097 52.5149 107.493C52.3802 107.544 52.2365 107.568 52.1182 107.657C51.0767 108.433 49.609 108.665 48.3796 108.247C47.1501 107.828 46.1297 106.749 45.7789 105.498C45.4831 104.445 45.4841 102.776 45.6329 101.575C46.7013 100.255 46.1696 100.25 51.6156 94.1165L52.6239 92.9775C52.6827 92.9108 52.7066 92.8291 52.7518 92.756C54.0952 92.672 55.1716 92.7969 56.061 93.1645C57.8614 93.9084 59.1512 96.5463 58.8205 98.8092C58.8112 98.8731 58.832 98.9318 58.8306 98.9949ZM43.1057 99.9184C41.1814 100.724 38.7658 100.347 37.2229 98.9479C35.6195 97.4927 35.0141 94.9915 35.7516 92.9571C39.5435 89.5084 42.5146 84.9703 46.5892 87.0202C48.5686 88.0184 49.7367 90.3014 49.6874 91.163C49.6794 91.3057 49.7171 91.4368 49.746 91.5701C48.1007 93.4267 44.2746 97.6923 43.1057 99.9184ZM35.0672 89.3337C34.436 89.9765 33.8272 90.5675 33.2445 91.0583C31.4212 91.6679 29.1145 90.8425 28.1924 89.1504C27.227 87.3794 27.8753 84.8473 29.534 83.708C33.5171 83.3728 36.0546 87.2507 35.0672 89.3337ZM76.8402 47.8985C84.7758 46.4679 92.2563 55.1638 107.569 50.8236C110.451 61.5826 116.628 73.2696 122.768 82.0631C116.502 84.1417 111.551 86.8763 105.642 91.4899C104.573 89.0306 103.04 87.4945 100.851 85.3655C93.1881 77.8933 84.1828 67.1866 74.8365 61.9531C75.0858 61.9237 75.3292 61.9014 75.5434 61.9072C76.3989 61.9705 77.1066 61.2628 77.1327 60.4103C77.1589 59.5578 76.4883 58.8461 75.6359 58.8209C72.5919 58.7013 68.053 60.6898 65.8554 63.0059C62.2442 66.7751 60.1703 72.465 55.6799 74.1194C54.3449 74.613 52.5797 74.5154 51.9493 73.5061C51.4296 72.6547 51.1783 70.8331 51.4115 69.6016C52.1373 65.6528 53.782 63.1798 56.2087 59.8564C57.9821 57.4176 60.9054 55.0401 64.6551 52.9822C68.3807 50.9586 72.6039 48.6655 76.8402 47.8985ZM34.4433 46.3624C43.3071 51.4128 57.2285 44.1681 67.0976 48.2063C62.1363 50.688 56.9917 53.5319 53.7126 58.0368C51.119 61.5905 49.217 64.4606 48.3755 69.0346C48.0498 70.7567 48.267 73.3976 49.3215 75.1277C50.8358 77.5532 54.162 77.9777 56.7496 77.0156C60.4947 75.6387 62.8441 72.3243 64.8994 69.3151C67.1555 66.0057 68.0931 64.655 70.7018 63.3244C80.3229 67.6279 89.2869 78.1941 96.9891 85.8963C98.9597 87.8669 99.564 88.3607 100.982 89.9194C105.414 94.7875 103.123 99.8093 99.4088 99.3018C96.7178 98.9429 94.4737 96.3282 92.3738 94.3658C88.5869 90.8302 84.6311 87.0111 81.3479 83.0352C80.807 82.3768 79.8319 82.2843 79.1745 82.8281C78.517 83.371 78.4235 84.3441 78.9674 85.0016C82.3612 89.1122 86.4035 93.0167 90.2668 96.6237C91.8028 98.0592 93.4841 99.896 95.5534 101.118C94.6596 104.576 91.0526 106.442 87.7787 105.331C85.3725 104.512 84.328 103.127 73.9922 92.6357C73.3961 92.0295 72.4169 92.0215 71.8087 92.6196C71.2015 93.2178 71.1935 94.1959 71.7927 94.8031C81.5058 104.651 82.5888 105.973 84.8198 107.319C84.1982 110.14 82.1843 111.208 80.5286 111.106C79.1503 111.082 77.8022 110.003 76.428 108.804C72.9527 105.771 69.0403 103.234 65.6866 100.306C65.5134 100.155 65.3151 100.057 65.1084 99.9962C64.2342 99.1593 63.1302 98.5651 61.9308 98.3737C62.0163 95.313 60.395 91.613 57.2412 90.3095C55.9005 89.7558 54.3752 89.5662 52.5377 89.6822C51.9562 87.7021 50.3087 85.4371 47.9805 84.2637C43.9955 82.2521 40.707 84.0832 38.052 86.4154C36.9172 82.7899 33.2403 80.1219 29.1977 80.6527C29.0848 80.6678 28.9908 80.7222 28.8879 80.7595C28.6664 80.7573 28.4502 80.8005 28.2396 80.8975C24.8993 78.287 22.8663 77.2527 19.1899 75.2806C22.7875 64.2099 25.7666 50.4904 27.3684 42.4622C29.741 43.7386 32.1147 45.0157 34.4433 46.3624Z" fill="white"/>
<path d="M17.3213 43.4191C18.8283 42.833 19.2065 40.9846 18.0722 39.8503C16.7087 38.4868 14.4442 39.3693 14.3597 41.2949C14.3265 42.0519 14.6603 42.7556 15.2504 43.1788C15.8564 43.6145 16.637 43.6846 17.3213 43.4191Z" fill="white"/>
<path d="M112.642 49.3146C111.536 52.3494 114.035 55.9618 117.5 55.0236C119.6 54.4597 120.769 52.5657 120.343 50.4184C119.508 46.2116 113.952 45.7217 112.642 49.3146ZM116.698 52.042C116.33 52.1354 116.081 52.0771 115.86 51.8369C115.399 51.3345 115.22 50.1128 116.055 50.0032C116.732 49.9155 117.197 50.4293 117.314 51.0206C117.475 51.8329 116.89 51.9897 116.698 52.042Z" fill="white"/>
<path d="M61.1657 37.8839C61.5989 38.6144 62.544 38.8606 63.2818 38.4257C64.0157 37.9904 64.2579 37.0434 63.8237 36.3096L58.7269 27.7023C58.2926 26.9675 57.3466 26.7262 56.6117 27.1595C55.8779 27.5938 55.6346 28.5407 56.0689 29.2746L61.1657 37.8839Z" fill="white"/>
<path d="M70.4311 37.8526C71.18 37.8526 71.8385 37.3057 71.9551 36.5427L74.0581 22.8236C74.1878 21.9801 73.6088 21.192 72.7663 21.0633C71.9269 20.9306 71.1348 21.5117 71.0061 22.3551L68.903 36.0742C68.7593 37.009 69.4819 37.8526 70.4311 37.8526Z" fill="white"/>
<path d="M82.2433 36.2391L86.6264 29.6676C87.0998 28.9579 86.9078 27.9998 86.1981 27.5263C85.4884 27.0529 84.5303 27.2449 84.0568 27.9546L79.6738 34.5261C79.2003 35.2359 79.3923 36.1939 80.1021 36.6674C80.8091 37.1397 81.7695 36.9499 82.2433 36.2391Z" fill="white"/>
</g>
</svg>
