<svg width="147" height="147" viewBox="0 0 147 147" fill="none" xmlns="http://www.w3.org/2000/svg">
<g opacity="0.15" clip-path="url(#clip0_2801_2324)">
<path d="M29.5875 71.2784C36.7265 72.716 43.9032 72.1238 51.102 70.1949L51.1055 70.194C69.1631 65.3555 82.9155 51.2011 84.7009 35.1107C86.6848 34.9556 88.1518 34.5437 89.0202 33.5204C92.8299 28.9609 83.519 17.0221 83.427 16.9037C77.0979 8.86419 72.1145 13.4201 65.4605 19.1032C60.9744 22.9368 59.0416 24.1605 58.0033 26.5375C55.7425 31.8058 60.6793 33.5531 66.3344 34.3775C62.9683 51.1229 46.9226 67.9022 29.7598 69.828C29.3104 69.8788 28.9255 70.0723 28.9062 70.5198C28.8868 70.9673 29.1489 71.187 29.5875 71.2784ZM49.4285 68.2133L50.2274 68.6731L49.8374 69.346C49.5387 69.4186 49.239 69.48 48.9389 69.5473L48.3888 69.2297L49.2399 67.7556C49.2152 67.9373 49.2637 68.1182 49.4285 68.2133ZM55.9725 66.1379C56.0039 66.1709 56.0113 66.2198 56.0537 66.2442L57.225 66.9204C56.8361 67.0849 56.4309 67.2236 56.0374 67.3779C56.0271 67.2339 55.9714 67.0963 55.8373 67.0174L55.559 66.8567L55.9725 66.1379ZM59.6681 64.8898L60.4965 65.3681C59.9954 65.6266 59.4789 65.8629 58.9661 66.1057L59.6681 64.8898ZM61.4924 61.73C61.5239 61.763 61.5313 61.8118 61.5736 61.8362L62.6046 62.4315L62.0544 63.3846C61.9284 63.6028 62.0027 63.8803 62.2209 64.0063C62.3301 64.0693 62.452 64.0818 62.5662 64.0512C62.6803 64.0206 62.7797 63.9488 62.8427 63.8397L63.3929 62.8866L64.0917 63.2885C63.2241 63.8372 62.3363 64.3594 61.4264 64.8554L60.1237 64.1033L61.4924 61.73ZM65.2361 59.6916L66.9502 60.6798L66.8435 60.8646C66.7484 61.0294 66.7973 61.2121 66.9086 61.3535C66.2696 61.8278 65.6176 62.2886 64.9481 62.7334L63.8458 62.097L65.2361 59.6916ZM71.62 57.2997L70.3685 56.5771L71.2247 55.0941L72.4762 55.8166L71.62 57.2997ZM70.9795 57.9795C70.0999 58.8062 69.1801 59.6023 68.2235 60.3669L68.1924 60.3489L69.9151 57.3649L70.9795 57.9795ZM55.2009 67.6981C55.1461 67.7184 55.09 67.741 55.0352 67.7613L55.1047 67.641L55.2009 67.6981ZM74.3195 54.4418L75.3288 52.6937L75.6071 52.8544C75.1923 53.3928 74.7633 53.92 74.3195 54.4418ZM81.2398 40.2545C81.3489 40.3175 81.4708 40.33 81.585 40.2994C81.6956 40.2698 81.7985 40.197 81.8615 40.0879C81.9875 39.8697 81.9131 39.5922 81.6949 39.4662L79.9936 38.484L81.5613 35.7713L82.7949 36.4835C82.3781 39.2342 81.5991 41.9257 80.497 44.5212L78.8536 43.5724L80.8875 40.0496L81.2398 40.2545ZM80.1393 45.3643C79.7625 46.1919 79.3479 47.0051 78.9068 47.8103L76.9556 46.6824C77.0225 46.6437 77.0956 46.6147 77.1368 46.5435L78.398 44.359L80.1393 45.3643ZM83.9456 33.6755C83.4721 33.6857 83.0992 34.0434 83.0589 34.5041C83.0306 34.8411 82.9652 35.173 82.9249 35.5075L82.0159 34.9812L82.1227 34.7964C82.2486 34.5782 82.1743 34.3007 81.9561 34.1747C81.7383 34.0504 81.4599 34.1213 81.3344 34.3413L81.2276 34.5261L80.7066 34.2253L82.7405 30.7024L84.6466 31.803L84.0077 32.9097C83.8817 33.1279 83.956 33.4054 84.1742 33.5314C84.2834 33.5944 84.4053 33.6069 84.5194 33.5763C84.6336 33.5457 84.7329 33.4739 84.7959 33.3648L85.4349 32.2581L86.8757 33.0899C86.1755 33.4413 85.2064 33.6463 83.9456 33.6755ZM86.9514 26.2914L86.1275 25.8157L86.4669 25.2278C86.64 25.5861 86.8008 25.9402 86.9514 26.2914ZM68.2987 33.7702C68.3856 33.2726 68.0459 32.7914 67.5343 32.7158L67.0233 32.6419C62.0442 31.9243 58.062 31.0281 59.6725 27.2667C60.5554 25.2438 62.7414 23.8412 66.645 20.5101C73.9559 14.2651 77.048 11.797 82.0229 18.1194C83.4378 19.9012 84.9284 22.2048 86.0899 24.4742C85.9485 24.4876 85.8145 24.5424 85.7374 24.676L85.3401 25.3641L82.4644 23.7008C82.2461 23.5748 81.9686 23.6491 81.8426 23.8674C81.7167 24.0856 81.791 24.3631 82.0092 24.4891L84.8863 26.1501L84.2923 27.1789C84.1663 27.3971 84.2407 27.6746 84.4589 27.8006C84.568 27.8636 84.6899 27.8761 84.8041 27.8455C84.9182 27.815 85.0176 27.7432 85.0806 27.634L85.6746 26.6053L87.3625 27.5798C87.3937 27.5978 87.4291 27.5826 87.4637 27.5922C88.2301 29.736 88.4555 31.5748 87.6845 32.5118L85.8914 31.4751L86.6577 30.1479L87.0474 30.3729C87.1565 30.4359 87.2784 30.4484 87.3926 30.4178C87.5067 30.3872 87.6061 30.3154 87.6691 30.2063C87.7951 29.9881 87.7207 29.7106 87.5025 29.5846L86.9079 29.2413C86.8689 29.1727 86.8371 29.0965 86.7637 29.0541C86.6902 29.0117 86.6083 29.0223 86.5294 29.0227L84.0242 27.5764C83.806 27.4504 83.5285 27.5248 83.4025 27.743C83.2765 27.9612 83.3509 28.2387 83.5691 28.3647L85.8694 29.6928L85.1032 31.0199L83.197 29.9194L83.3076 29.7279C83.4336 29.5097 83.3592 29.2322 83.141 29.1062C82.925 28.9815 82.6466 29.0523 82.5193 29.2728L79.9192 33.7736C79.3465 33.4415 78.927 34.2503 79.4347 34.5435L79.4837 34.5718C79.3998 34.7787 79.4586 35.0189 79.6572 35.1351C79.7663 35.1981 79.8883 35.2106 80.0024 35.18C80.0955 35.1551 80.1689 35.0846 80.2319 35.0037L80.773 35.3161L79.2053 38.0289L78.9069 37.8566C78.6909 37.7319 78.4125 37.8027 78.2852 38.0232C78.1592 38.2414 78.2336 38.5189 78.4518 38.6449L78.7502 38.8172L78.6666 38.9619C78.5406 39.1801 78.615 39.4576 78.8332 39.5836C78.9423 39.6466 79.0643 39.6591 79.1784 39.6285C79.2891 39.5989 79.3919 39.5261 79.4549 39.417L79.5385 39.2723L80.0979 39.5967L78.064 43.1195L77.8792 43.0128C77.6609 42.8868 77.3835 42.9612 77.2575 43.1794C77.1315 43.3976 77.2058 43.6751 77.4241 43.8011L77.6089 43.9078L76.3477 46.0923C76.2757 46.217 76.2841 46.3541 76.3348 46.4798C76.2206 46.5104 76.119 46.5809 76.0548 46.6922C75.9288 46.9104 76.0031 47.1879 76.2213 47.3139L78.4776 48.618C77.7781 49.8219 76.9888 50.9859 76.1532 52.1246L75.7835 51.9112L77.0191 49.7712C77.145 49.553 77.0707 49.2755 76.8525 49.1495C76.6342 49.0235 76.3568 49.0978 76.2308 49.3161L74.9953 51.456L74.2359 51.0176C74.0177 50.8916 73.7402 50.966 73.6142 51.1842C73.4882 51.4024 73.5626 51.6799 73.7808 51.8059L74.5401 52.2443L72.9292 55.0345L71.6778 54.312L71.9825 53.7842C72.1084 53.566 72.0341 53.2885 71.8159 53.1625C71.5976 53.0365 71.3202 53.1109 71.1942 53.3291L70.8895 53.8569L70.8204 53.817C70.6022 53.691 70.3247 53.7654 70.1987 53.9836C70.0727 54.2018 70.1471 54.4793 70.3653 54.6053L70.4343 54.6451L69.5781 56.1282L68.2398 55.3555C68.0216 55.2295 67.7441 55.3039 67.6181 55.5221C67.4921 55.7403 67.5664 56.0178 67.7847 56.1438L69.123 56.9165L67.4002 59.9004L65.686 58.9122L66.4639 57.565C66.5898 57.3468 66.5155 57.0693 66.2973 56.9433C66.079 56.8173 65.8016 56.8917 65.6756 57.1099L63.0541 61.6504L62.0231 61.0551C61.9808 61.0307 61.9366 61.0482 61.8905 61.0379L62.4305 60.1027C62.5565 59.8844 62.4821 59.607 62.2639 59.481C62.0457 59.355 61.7682 59.4293 61.6422 59.6475L59.3267 63.658C59.1109 63.5408 58.8399 63.6115 58.7165 63.8253C58.5931 64.0391 58.6673 64.3091 58.8768 64.4374L57.991 65.9717C57.9318 66.0741 57.9267 66.1884 57.9492 66.2935L56.504 65.4591C56.4617 65.4346 56.4152 65.4509 56.3714 65.4419L57.3742 63.705C57.5002 63.4868 57.4258 63.2093 57.2076 63.0833C56.9911 62.9568 56.7136 63.0312 56.5859 63.2499L54.7649 66.4013L53.582 65.7168C53.3656 65.5904 53.0881 65.6647 52.9603 65.8834C52.8343 66.1016 52.9087 66.3791 53.1269 66.5051L54.3098 67.1896L53.7057 68.2437C53.1807 68.4201 52.6422 68.5738 52.1068 68.7323C52.0925 68.7211 52.0908 68.7008 52.0748 68.6901L51.4668 68.3391L53.0315 65.6291C53.1575 65.4108 53.0831 65.1334 52.8649 65.0074C52.6471 64.8831 52.3687 64.954 52.2432 65.174L50.6785 67.884L49.8796 67.4242C49.7148 67.329 49.5339 67.3775 49.3907 67.4893L49.9307 66.554C50.0567 66.3358 49.9823 66.0583 49.7641 65.9323C49.5459 65.8063 49.2684 65.8807 49.1424 66.0989L47.597 68.7755L47.1071 68.4927C46.8889 68.3667 46.6114 68.4411 46.4854 68.6593C46.3594 68.8775 46.4338 69.155 46.652 69.281L47.1419 69.5638L46.8886 70.0025C43.0346 70.6945 39.1718 70.89 35.3327 70.5841C51.0265 66.2039 65.4634 50.108 68.2987 33.7702Z" fill="white"/>
<path d="M87.4163 55.2259C87.7729 57.2103 91.2351 68.066 94.9016 79.5577C97.5912 87.9869 100.13 95.9504 101.133 99.4556C103.613 108.15 108.393 108.827 116.915 107.031C117.337 106.942 117.734 106.849 118.105 106.75C123.438 105.321 123.998 102.654 123.198 99.0924C121.211 90.279 119.576 82.8755 118.197 76.64C111.373 45.7649 110.814 43.2419 105.627 40.6243C99.5247 37.5422 84.9511 41.5507 87.4163 55.2259ZM116.54 105.253C112.975 106.005 110.385 106.215 108.421 105.762L108.776 105.148L109.208 105.397C109.317 105.46 109.439 105.473 109.553 105.442C109.667 105.412 109.766 105.34 109.829 105.231C109.955 105.012 109.881 104.735 109.663 104.609L109.231 104.36L110.555 102.066L112.321 103.085L111.723 104.121C111.597 104.339 111.671 104.617 111.89 104.743C111.999 104.806 112.121 104.818 112.235 104.788C112.349 104.757 112.448 104.685 112.511 104.576L113.109 103.541L114.085 104.104C114.194 104.167 114.316 104.179 114.43 104.149C114.544 104.118 114.643 104.046 114.706 103.937C114.832 103.719 114.758 103.441 114.54 103.315L113.564 102.752L115.105 100.085L117.472 101.451L115.921 104.137C115.795 104.355 115.87 104.632 116.088 104.758C116.197 104.821 116.319 104.834 116.433 104.803C116.547 104.773 116.646 104.701 116.709 104.592L118.26 101.906L120.894 103.427C120.283 104.035 119.267 104.554 117.634 104.992C117.291 105.084 116.926 105.17 116.54 105.253ZM111.009 101.28L112.549 98.6121L114.315 99.6317L112.775 102.299L111.009 101.28ZM119.075 98.6744L117.924 100.666L115.557 99.299L116.706 97.3082L119.075 98.6744ZM116.19 75.9994C116.266 76.3461 116.34 76.6783 116.417 77.032C116.512 77.4547 116.61 77.8972 116.705 78.3309L115.309 77.5248L116.19 75.9994ZM114.698 69.2612L113.329 68.4705L114.189 66.979C114.354 67.7159 114.524 68.476 114.698 69.2612ZM97.4203 41.9611C100.125 41.2364 103.024 41.3499 104.806 42.2483C108.589 44.1561 109.535 46.2519 113.906 65.722C113.885 65.7466 113.848 65.7507 113.831 65.7797L112.541 68.0154L112.182 67.8084C111.962 67.6811 111.685 67.759 111.56 67.975C111.434 68.1932 111.509 68.4707 111.727 68.5967L112.086 68.8037L111.533 69.7612C111.407 69.9794 111.481 70.2569 111.699 70.3829C111.808 70.4459 111.93 70.4584 112.045 70.4278C112.159 70.3972 112.258 70.3254 112.321 70.2163L112.874 69.2588L114.965 70.466C115.293 71.9442 115.637 73.5027 116.002 75.1518C115.865 75.1263 115.744 75.1588 115.639 75.2492C115.619 75.2319 115.617 75.2024 115.592 75.1882L113.163 73.7856L114.693 71.1374C114.819 70.9192 114.745 70.6417 114.526 70.5157C114.309 70.3915 114.03 70.4623 113.905 70.6823L112.374 73.3305L111.793 72.9949C111.575 72.8689 111.297 72.9433 111.171 73.1615C111.045 73.3797 111.12 73.6572 111.338 73.7832L111.919 74.1188L111.757 74.3993C111.631 74.6176 111.706 74.8951 111.924 75.021C112.033 75.084 112.155 75.0965 112.269 75.066C112.38 75.0363 112.482 74.9636 112.545 74.8545L112.707 74.5739L115.137 75.9765C115.141 75.9791 115.148 75.9755 115.152 75.978L114.515 77.0825C114.301 76.9741 114.039 77.0407 113.916 77.2522C113.794 77.4638 113.868 77.7245 114.069 77.8552L112.6 80.3982C112.474 80.6165 112.549 80.894 112.767 81.02C112.876 81.0829 112.998 81.0955 113.112 81.0649C113.226 81.0343 113.326 80.9625 113.389 80.8534L114.852 78.3193L116.64 79.3516C116.733 79.4056 116.837 79.4061 116.935 79.3912C118.202 85.1166 119.674 91.7638 121.416 99.4963C121.698 100.742 121.843 101.797 121.418 102.69L118.708 101.126L119.858 99.1327L120.012 99.2214C120.121 99.2844 120.243 99.2969 120.357 99.2663C120.471 99.2357 120.571 99.1639 120.634 99.0548C120.76 98.8366 120.685 98.5591 120.467 98.4331L120.313 98.3444L120.783 97.5316C120.909 97.3134 120.834 97.0359 120.616 96.9099C120.398 96.7839 120.12 96.8582 119.994 97.0765L119.525 97.8892L117.096 96.4866C117.112 96.3148 117.064 96.1431 116.904 96.0523C116.744 95.9615 116.573 96.0054 116.432 96.1035L113.007 94.1262C112.789 94.0002 112.512 94.0745 112.386 94.2927C112.26 94.511 112.334 94.7885 112.552 94.9144L115.915 96.8558L114.765 98.8465L112.999 97.827L113.821 96.4041C113.947 96.1859 113.873 95.9084 113.654 95.7824C113.436 95.6564 113.159 95.7307 113.033 95.949L112.211 97.3719L110.877 96.6018C110.659 96.4758 110.382 96.5502 110.256 96.7684C110.13 96.9866 110.204 97.2641 110.422 97.3901L111.756 98.1602L110.216 100.828L108.432 99.7981C108.214 99.6721 107.936 99.7465 107.81 99.9647C107.684 100.183 107.759 100.46 107.977 100.586L109.761 101.616L108.436 103.91L106.428 102.75C106.21 102.624 105.932 102.699 105.806 102.917C105.68 103.135 105.755 103.412 105.973 103.538L107.981 104.698L107.52 105.498C105.216 104.618 103.9 102.56 102.874 98.9628C101.865 95.429 99.3213 87.4537 96.6261 79.0109C93.3026 68.5886 89.5333 56.7763 89.1972 54.9106C87.4908 45.3953 95.0582 42.594 97.4203 41.9611Z" fill="white"/>
<path d="M82.4355 68.1894C76.7111 66.5026 62.2925 70.4715 63.652 80.1324C63.8369 81.4476 65.9146 87.558 69.0614 96.7307C71.0325 102.478 72.8932 107.905 73.5958 110.296C75.7352 117.577 82.5349 116.021 88.5316 114.649C88.9428 114.554 89.3315 114.459 89.695 114.362C94.3139 113.124 95.8638 111.427 95.2226 108.311L88.7407 76.8C88.2235 74.2864 87.2623 69.6104 82.4355 68.1894ZM75.339 109.783C74.626 107.354 72.7583 101.908 70.7803 96.1421C68.3663 89.0996 65.6277 81.1202 65.4516 79.8799C64.3344 71.9591 77.2977 68.5722 81.9211 69.9366C84.1568 70.595 85.3294 72.1122 86.0555 73.9299L85.2224 75.3729L84.8639 75.1659C84.6457 75.0399 84.3682 75.1142 84.2422 75.3325C84.1162 75.5507 84.1906 75.8282 84.4088 75.9542L84.7673 76.1612L84.2145 77.1187C84.0885 77.3369 84.1628 77.6144 84.381 77.7404C84.4902 77.8034 84.6121 77.8159 84.7263 77.7853C84.8404 77.7547 84.9398 77.6829 85.0028 77.5738L85.5556 76.6163L87.0208 77.4622L87.1029 77.86C86.9097 77.8063 86.6971 77.8558 86.5886 78.0411L85.06 80.6888L84.4766 80.3519C84.2584 80.2259 83.9809 80.3003 83.8549 80.5185C83.7289 80.7367 83.8032 81.0142 84.0215 81.1402L84.6049 81.477L84.4416 81.7599C84.3156 81.9781 84.39 82.2556 84.6082 82.3816C84.7173 82.4446 84.8392 82.4571 84.9534 82.4265C85.064 82.3968 85.1669 82.3241 85.2299 82.215L85.3932 81.9322L87.8249 83.3361C87.8293 83.3387 87.8341 83.3355 87.8386 83.3381L87.2022 84.4403C86.9886 84.3319 86.7238 84.3972 86.6039 84.6101C86.483 84.8194 86.5554 85.0823 86.756 85.213L85.2878 87.7561C85.1618 87.9743 85.2362 88.2518 85.4544 88.3778C85.5635 88.4408 85.6855 88.4533 85.7996 88.4227C85.9138 88.3921 86.0131 88.3203 86.0761 88.2112L87.5387 85.6753L88.8686 86.4446L89.5093 89.5594C89.4794 89.5882 89.4345 89.5964 89.4127 89.6343L88.2505 91.6473L86.7669 90.7893C86.5487 90.6633 86.2712 90.7377 86.1452 90.9559C86.0192 91.1741 86.0936 91.4516 86.3118 91.5776L87.7949 92.4339L86.4179 94.8188C86.2919 95.037 86.3663 95.3145 86.5845 95.4405C86.6936 95.5035 86.8156 95.516 86.9297 95.4854C87.0439 95.4548 87.1432 95.383 87.2062 95.2739L88.5832 92.889L90.0533 93.7393C90.1558 93.7984 90.2705 93.8053 90.3791 93.7819L90.7918 95.7926C90.6526 95.8073 90.5213 95.8651 90.445 95.9947L89.7404 97.215L86.7543 95.491C86.5361 95.365 86.2586 95.4393 86.1326 95.6576C86.0066 95.8758 86.0809 96.1533 86.2992 96.2793L89.2853 98.0033L87.5613 100.989C87.4353 101.208 87.5096 101.485 87.7279 101.611C87.837 101.674 87.9589 101.687 88.0731 101.656C88.1872 101.626 88.2866 101.554 88.3496 101.445L90.0736 98.4585L91.5099 99.2877L92.5988 104.581L92.2118 105.251L89.7823 103.848C89.7967 103.677 89.7493 103.507 89.5907 103.414C89.4321 103.321 89.26 103.367 89.1188 103.465L85.6939 101.488C85.4757 101.362 85.1982 101.436 85.0722 101.655C84.9462 101.873 85.0206 102.15 85.2388 102.276L88.6013 104.218L87.4502 106.209L85.6843 105.189L86.5058 103.766C86.6318 103.548 86.5575 103.271 86.3392 103.145C86.121 103.019 85.8435 103.093 85.7175 103.311L84.896 104.734L83.5622 103.964C83.3439 103.838 83.0664 103.912 82.9404 104.131C82.8145 104.349 82.8888 104.626 83.107 104.752L84.4409 105.522L82.9007 108.19L81.117 107.16C80.8988 107.034 80.6213 107.109 80.4953 107.327C80.3693 107.545 80.4437 107.823 80.6619 107.949L82.4456 108.978L81.1209 111.27L79.1105 110.111C78.8901 109.984 78.6135 110.062 78.4888 110.278C78.3628 110.496 78.4372 110.773 78.6554 110.899L80.6658 112.059L79.9381 113.319C79.8121 113.537 79.8864 113.815 80.1047 113.941C80.1537 113.969 80.2094 113.952 80.2629 113.962C77.8307 113.758 76.1755 112.631 75.339 109.783ZM86.758 76.2564L86.0098 75.8245L86.4469 75.0674C86.5624 75.4562 86.6652 75.854 86.758 76.2564ZM91.3928 108.475L92.5417 106.482L92.6976 106.572C92.7978 106.63 92.9108 106.637 93.0176 106.614L93.4421 108.677C93.5136 109.021 93.5768 109.369 93.5488 109.721L91.3928 108.475ZM91.7556 106.028L90.6067 108.021L88.2396 106.654L89.3907 104.663L91.7556 106.028ZM91.263 98.0852L90.5259 97.6596L91.0042 96.8312L91.263 98.0852ZM90.1649 92.7437L89.0355 92.0901L89.7696 90.8186L90.1649 92.7437ZM88.0376 82.4019L85.8464 81.1369L87.2696 78.6718L88.0376 82.4019ZM88.4003 84.1701L88.6221 85.2438L87.992 84.88L88.4003 84.1701ZM86.998 106.987L85.4578 109.655L83.6919 108.635L85.2321 105.967L86.998 106.987ZM88.1255 112.874C85.0518 113.577 82.4948 114.08 80.4632 113.965C80.5734 113.934 80.6697 113.865 80.7319 113.759L81.4595 112.499L81.8938 112.75C82.0029 112.813 82.1266 112.825 82.239 112.795C82.3514 112.765 82.4525 112.692 82.5155 112.583C82.6415 112.365 82.5671 112.087 82.3489 111.961L81.9147 111.711L83.2376 109.419L85.0034 110.439L84.4069 111.472C84.2809 111.69 84.3553 111.968 84.5735 112.094C84.6826 112.157 84.8045 112.169 84.9187 112.139C85.0293 112.109 85.1322 112.036 85.1952 111.927L85.7917 110.894L86.7671 111.457C86.8762 111.52 86.9981 111.533 87.1123 111.502C87.2264 111.471 87.3258 111.4 87.3888 111.291C87.5148 111.072 87.4404 110.795 87.2222 110.669L86.2469 110.106L87.7871 107.438L90.1542 108.805L88.6037 111.49C88.4777 111.708 88.552 111.986 88.7703 112.112C88.8794 112.175 89.0013 112.187 89.1155 112.157C89.2296 112.126 89.329 112.054 89.392 111.945L90.9425 109.26L93.2383 110.585C92.6928 111.373 91.3214 112.149 88.1255 112.874Z" fill="white"/>
<path d="M47.9686 93.6559C42.0241 95.7627 39.1222 98.4206 39.3385 101.553C39.4016 102.442 40.5922 105.579 43.1031 112.034C47.536 123.443 45.9083 125.756 60.5073 122.207C60.9878 122.09 61.4645 122.007 61.9088 121.888L61.9247 121.884C64.0778 121.307 68.0461 120.198 67.5352 117.175C66.8885 113.363 66.368 110.135 65.9331 107.43C63.7883 94.0589 63.5088 92.3343 58.5485 91.8131C55.2928 91.4713 51.0405 92.5599 47.9686 93.6559ZM61.419 120.06C60.9869 120.176 60.5355 120.289 60.0672 120.403C56.0544 121.381 52.7431 122.089 50.5778 121.785L51.0136 121.03L51.1606 121.115C51.2697 121.178 51.3916 121.19 51.5058 121.159C51.6199 121.129 51.7193 121.057 51.7823 120.948C51.9083 120.73 51.8339 120.452 51.6157 120.326L51.4687 120.241L52.235 118.914L54.9094 120.458C55.0185 120.521 55.1404 120.534 55.2546 120.503C55.3687 120.473 55.4681 120.401 55.5311 120.292C55.6571 120.073 55.5827 119.796 55.3645 119.67L55.1351 119.538L56.5108 117.155L59.1584 118.684L58.5092 119.808C58.3832 120.026 58.4576 120.304 58.6758 120.43C58.7849 120.493 58.9068 120.505 59.021 120.475C59.1351 120.444 59.2345 120.372 59.2975 120.263L59.9467 119.139L60.1895 119.279C60.2986 119.342 60.4205 119.354 60.5347 119.324C60.6488 119.293 60.7482 119.221 60.8112 119.112C60.9372 118.894 60.8628 118.616 60.6446 118.49L60.4019 118.35L61.4728 116.495L64.6571 118.334C64.7663 118.397 64.8882 118.409 65.0023 118.379C65.1165 118.348 65.2158 118.276 65.2788 118.167C65.4048 117.949 65.3305 117.672 65.1123 117.546L61.9279 115.707L63.5106 112.966C63.6224 112.772 63.5555 112.544 63.3904 112.405L64.6107 113.11C64.7198 113.173 64.8418 113.185 64.9559 113.155C64.9787 113.149 64.9919 113.121 65.0138 113.111C65.2365 114.469 65.473 115.892 65.7359 117.442C65.8988 118.423 64.6083 119.205 61.419 120.06ZM64.8619 112.207L61.2701 110.133L63.1047 106.955L63.4387 107.148C63.5478 107.211 63.6698 107.224 63.7839 107.193C63.8823 107.167 63.9626 107.094 64.0243 107.008C64.0631 107.244 64.0966 107.454 64.136 107.699C64.3539 109.068 64.594 110.567 64.8619 112.207ZM63.2237 102.18C63.4352 103.398 63.666 104.8 63.9246 106.404C63.9085 106.394 63.9081 106.371 63.8903 106.361L60.9799 104.68L62.6229 101.835L63.2237 102.18ZM61.8894 96.1394C61.8151 96.1782 61.7363 96.2143 61.6913 96.2923L61.3133 96.947L60.122 96.2591C59.902 96.1336 59.6245 96.208 59.5003 96.4257C59.3743 96.6439 59.4486 96.9214 59.6668 97.0474L60.8582 97.7352L59.8644 99.4566C59.7384 99.6748 59.8127 99.9523 60.031 100.078C60.1401 100.141 60.262 100.154 60.3762 100.123C60.4903 100.093 60.5897 100.021 60.6527 99.9117L61.6465 98.1904L61.6665 98.2019C61.7756 98.2649 61.8993 98.277 62.0117 98.2469C62.1241 98.2167 62.2252 98.1445 62.2882 98.0354C62.4142 97.8171 62.3399 97.5396 62.1216 97.4137L62.1016 97.4021L62.2147 97.2061C62.4102 97.9425 62.6083 98.8437 62.8195 99.941C62.7111 99.9719 62.6131 100.041 62.5509 100.147L62.2912 100.596L61.8926 100.366C61.6743 100.24 61.3969 100.315 61.2709 100.533C61.1449 100.751 61.2192 101.029 61.4375 101.155L61.8361 101.385L60.004 104.558C59.878 104.776 59.9524 105.054 60.1706 105.18C60.1773 105.183 60.1873 105.179 60.194 105.183C60.2322 105.248 60.2612 105.321 60.3302 105.361L62.3143 106.506L60.4488 109.737C60.2684 109.71 60.0853 109.758 59.9889 109.925C59.8925 110.092 59.9436 110.276 60.0567 110.417L59.4897 111.399C59.3637 111.617 59.4381 111.894 59.6563 112.02C59.7654 112.083 59.8874 112.096 60.0015 112.065C60.1157 112.035 60.215 111.963 60.278 111.854L60.8141 110.925L63.2681 112.342C63.064 112.269 62.8342 112.325 62.7224 112.518L61.1398 115.26L59.8816 114.533C59.6634 114.407 59.3859 114.481 59.2599 114.7C59.1339 114.918 59.2083 115.195 59.4265 115.321L60.6846 116.048L59.6137 117.903L56.966 116.374L58.8405 113.127C58.9665 112.909 58.8921 112.632 58.6739 112.506C58.4557 112.38 58.1782 112.454 58.0522 112.672L56.1777 115.919L55.4473 115.497C55.2291 115.371 54.9516 115.446 54.8256 115.664C54.6996 115.882 54.774 116.16 54.9922 116.286L55.7226 116.707L54.347 119.09L52.6902 118.133L54.935 114.245C55.061 114.027 54.9866 113.75 54.7684 113.624C54.5501 113.498 54.2727 113.572 54.1467 113.79L51.9019 117.678L50.3128 116.756C50.0946 116.63 49.8171 116.705 49.6911 116.923C49.5651 117.141 49.6394 117.419 49.8577 117.545L51.4454 118.461L50.6791 119.789L49.3542 119.024C49.136 118.898 48.8585 118.972 48.7325 119.19C48.3982 119.769 49.6 120.215 50.2236 120.575L49.6553 121.559C47.9205 120.944 48.4424 120.742 44.7931 111.372C43.2893 107.502 41.2274 102.203 41.1508 101.425C40.9976 99.2377 43.5649 97.1436 48.5739 95.3667C51.3876 94.368 55.4132 93.3045 58.3547 93.6118C60.2201 93.8084 61.112 93.9195 61.8894 96.1394Z" fill="white"/>
<path d="M131.762 106.242C131.312 106.189 130.256 106.064 114.734 110.223C90.0681 116.832 47.3186 129.294 43.7343 130.557C41.9192 131.194 40.0357 131.941 38.676 133.407C37.2755 134.917 36.5471 137.657 37.9069 139.599C40.5462 143.358 44.8718 141.567 74.2464 133.429C87.0434 129.885 104.558 124.988 128.935 118.457C140.613 115.281 137.898 106.969 131.762 106.242ZM133.372 114.623C131.308 116.227 134.014 114.997 73.7604 131.678C48.5685 138.658 41.2988 141.271 39.3955 138.558C38.6115 137.437 39.0914 135.688 40.0219 134.686C41.0979 133.524 42.6779 132.881 44.3426 132.293C47.912 131.038 90.5713 118.591 115.208 111.989C128.731 108.366 131.148 108.029 131.549 108.053C135.435 108.512 136.444 112.234 133.372 114.623Z" fill="white"/>
<path d="M115.046 94.2464C115.155 94.3094 115.277 94.3219 115.391 94.2913C115.505 94.2607 115.605 94.1889 115.668 94.0798L117.392 91.0936L118.846 91.9331C118.955 91.9961 119.077 92.0087 119.191 91.9781C119.302 91.9484 119.405 91.8757 119.468 91.7666C119.594 91.5483 119.519 91.2709 119.301 91.1449L117.847 90.3053L118.551 89.085C118.677 88.8668 118.603 88.5893 118.385 88.4633C118.167 88.3373 117.889 88.4117 117.763 88.6299L117.059 89.8502L114.072 88.1262C113.856 88.0014 113.578 88.0723 113.451 88.2927C113.325 88.511 113.399 88.7885 113.617 88.9144L116.604 90.6385L114.879 93.6246C114.753 93.8429 114.828 94.1204 115.046 94.2464Z" fill="white"/>
<path d="M114.244 88.1233C114.356 88.0932 114.458 88.021 114.521 87.9118L115.899 85.5265L117.369 86.375C117.478 86.438 117.6 86.4505 117.714 86.4199C117.825 86.3903 117.928 86.3175 117.991 86.2084C118.117 85.9902 118.042 85.7127 117.824 85.5867L116.354 84.7382L117.517 82.7251C117.643 82.5069 117.568 82.2294 117.35 82.1034C117.132 81.9774 116.854 82.0518 116.728 82.27L115.566 84.2831L114.083 83.4251C113.867 83.3003 113.588 83.3712 113.461 83.5916C113.335 83.8099 113.409 84.0874 113.627 84.2133L115.111 85.0713L113.733 87.4585C113.607 87.6767 113.681 87.9542 113.899 88.0802C114.008 88.1397 114.132 88.1535 114.244 88.1233Z" fill="white"/>
<path d="M97.9097 72.5588C97.9876 72.7864 98.1555 72.6473 98.3856 72.5856L98.4154 72.5776C98.6578 72.5127 98.8513 72.5041 98.7692 72.2682L93.7425 57.5194C92.4596 53.7503 92.3548 51.3709 93.3544 49.6574C94.4039 47.8628 96.8553 46.6921 101.022 45.9164C101.322 45.8831 101.436 45.6492 101.391 45.4034C101.345 45.1559 101.11 45.0024 100.864 45.0475C96.3475 45.8927 93.7942 47.1961 92.5874 49.2606C91.4415 51.2222 91.5082 53.7681 92.8825 57.8082L97.9097 72.5588Z" fill="white"/>
</g>
<defs>
<clipPath id="clip0_2801_2324">
<rect width="120" height="120" fill="white" transform="translate(0 31.0581) rotate(-15)"/>
</clipPath>
</defs>
</svg>
