<svg width="140" height="140" viewBox="0 0 140 140" fill="none" xmlns="http://www.w3.org/2000/svg">
<g opacity="0.15">
<path d="M94.6901 89.4306C94.3932 85.7609 94.0326 82.3458 93.4598 79.1852C92.4204 72.864 91.0204 67.5185 89.6204 63.0003C86.778 53.964 83.9568 48.1731 81.8992 44.3761C79.8204 40.5791 78.4841 38.7549 77.678 37.8852C76.8932 37.0155 76.5962 37.0791 76.3629 37.2276C76.1083 37.3761 75.9174 37.5882 76.278 38.7124C76.6386 39.8155 77.572 41.8306 79.2477 45.67C80.9023 49.5306 83.3629 55.2791 85.9295 64.1034C87.2023 68.5155 88.4538 73.7124 89.4083 79.8428C89.9174 82.8973 90.2568 86.1852 90.5326 89.7064C90.5962 91.467 90.7447 93.2912 90.7235 95.1791C90.7447 97.0882 90.7659 98.9549 90.4265 100.652C90.1932 101.522 89.9386 102.497 89.4932 103.006C89.0477 103.537 88.7083 103.749 88.0083 103.77C86.5023 103.77 84.2538 102.434 82.4295 100.758C78.5901 97.4064 75.7689 92.3367 73.181 86.864C72.5235 85.4852 71.8659 84.0852 71.2083 82.6852C70.8053 81.7943 70.4235 80.8821 70.0204 79.9912C70.1053 79.9912 70.1901 79.9912 70.2962 79.97C71.1871 79.8215 72.5659 79.3761 74.072 78.0397C75.5356 76.7246 77.2538 74.5609 77.9113 71.0821C78.2507 69.2155 78.1447 66.5215 76.8295 64.167C75.5992 61.77 73.3083 59.9882 71.0174 59.1397C68.7053 58.2912 66.3932 58.4397 64.9507 58.97C64.4204 59.1609 64.0174 59.3943 63.6992 59.6064C63.1265 57.0609 62.6174 54.5367 62.1507 52.0337C61.0265 46.3064 60.4962 40.7064 60.8568 35.764C61.0265 33.3458 61.5568 30.9276 62.7447 29.5912L63.2113 29.167L63.8265 28.8276C64.2507 28.6579 64.675 28.4882 65.0992 28.4458C65.9689 28.3185 66.8386 28.4882 67.6447 28.8064C69.2568 29.5064 70.572 30.6306 71.6326 31.6912C72.6932 32.7731 73.5416 33.77 74.1992 34.6185C75.5356 36.3155 76.2568 37.2912 76.3841 37.2064C76.4901 37.1428 76.0235 36.0185 74.8992 34.1306C74.3265 33.1973 73.5629 32.0731 72.5659 30.8428C71.5477 29.6337 70.2538 28.2973 68.3235 27.3003C66.4144 26.3246 63.4871 26.2185 61.3659 28.1488C60.3689 29.1458 59.7326 30.3761 59.3507 31.6276C59.1386 32.2428 58.9901 32.8791 58.8629 33.5155C57.5477 35.2124 55.4689 38.0549 52.8386 41.7882C50.5689 44.9276 47.875 48.7034 44.5023 52.4367C41.1295 56.1488 36.9083 59.9034 31.6477 61.8761C26.472 63.9973 20.1295 63.3821 13.6386 65.5034C10.478 66.5852 7.27499 68.4306 5.15378 71.4215C2.99014 74.4337 2.35378 78.0185 2.18408 81.2003C1.84469 87.6488 3.11742 94.1185 6.32045 99.2943C9.45984 104.534 14.6144 107.949 19.6629 108.861C21.9538 109.264 24.3507 109.179 26.4507 108.606C27.7023 108.288 28.8477 107.843 29.9295 107.355C29.972 110.558 30.672 117.197 32.7932 124.685C33.5356 127.315 34.4053 129.988 35.4659 132.725C35.7629 133.425 36.1023 134.231 36.6962 135.015C37.3114 135.822 38.1386 136.437 38.9659 136.84C40.6204 137.646 42.2114 137.879 43.8871 137.879C47.175 137.879 50.675 136.119 52.181 133.085C53.6871 130.285 53.6235 126.828 51.9053 124.431C51.1629 123.391 50.3568 122.734 49.7629 122.182C49.1477 121.609 48.7659 121.206 48.4901 120.761C47.9174 119.828 47.7265 118.661 47.8538 117.706C47.9598 116.794 48.5326 115.564 48.8932 114.122C49.0841 113.4 49.2113 112.552 49.0841 111.64C48.978 110.749 48.5962 109.837 48.0871 109.2C47.0477 107.928 46.0507 107.482 45.478 107.015C44.9265 106.612 44.5659 106.231 44.2477 105.764C43.6114 104.831 43.3356 103.876 43.2083 103.112C42.975 101.67 43.081 100.843 43.0598 100.312C47.5356 98.7003 51.8841 98.5094 55.6598 98.7852C60.0932 99.167 63.8053 100.122 66.8811 101.012C69.9568 101.903 72.4174 102.815 74.4114 103.515C80.0326 105.637 81.9204 106.146 82.6204 106.061C82.8538 106.209 83.0659 106.379 83.3204 106.506C84.6568 107.249 86.1629 107.906 87.9871 107.949C88.8992 107.97 89.8962 107.779 90.7659 107.312C91.6568 106.867 92.3356 106.209 92.8447 105.531C93.9053 104.152 94.2023 102.773 94.5416 101.5C94.9871 99.1882 94.9447 97.0458 94.9235 95.1155C94.9235 93.164 94.775 91.2761 94.6901 89.4306ZM65.2477 60.5821C66.5204 60.5821 68.2174 60.9003 69.7871 61.8337C71.3568 62.767 72.7356 64.2306 73.3507 65.8428C74.0295 67.4337 73.9871 69.0882 73.775 70.3609C73.3507 72.6943 72.2477 74.264 71.378 75.2822C70.4871 76.3003 69.7235 76.8094 69.2356 77.2125C69.1295 77.2973 69.0659 77.3609 68.9598 77.4458C67.9841 74.9428 67.0932 72.3973 66.3083 69.8094C65.3962 66.7761 64.6114 63.7003 63.9114 60.6458C64.2932 60.6034 64.7174 60.5609 65.2477 60.5821ZM43.2083 109.9C44.0144 110.558 44.7568 111.088 45.0113 111.491C45.2235 111.852 45.2871 112.149 45.0326 113.103C44.7992 114.037 44.1204 115.225 43.8023 117.134C43.5477 118.979 43.8235 120.994 44.9265 122.882C46.1144 124.855 47.8962 125.894 48.5114 126.849C49.1901 127.74 49.381 129.564 48.5538 131.197C47.8326 132.746 45.9871 133.912 43.7598 134.019C42.678 134.082 41.4265 133.912 40.5144 133.531C40.0689 133.34 39.7295 133.106 39.4538 132.788C39.1568 132.47 38.881 131.961 38.6265 131.388C37.5023 128.885 36.4629 126.297 35.572 123.837C32.9204 116.519 31.5417 109.943 30.778 106.994C31.2235 106.782 31.6477 106.549 32.0507 106.315C35.3174 104.491 37.9689 102.603 40.5568 101.331C40.4083 101.84 40.281 102.476 40.2598 103.261C40.2386 104.406 40.4083 105.87 41.2568 107.503C41.681 108.309 42.3598 109.2 43.2083 109.9ZM67.9417 97.6822C64.7598 96.6215 60.878 95.4549 56.0204 94.9246C53.581 94.7337 50.9083 94.6064 48.0023 94.9882C45.1174 95.37 42.0417 96.1549 38.9447 97.5549C35.8689 98.9973 33.0477 101.012 30.0568 102.667C27.0447 104.343 23.8417 105.467 20.3841 104.788C16.6083 104.109 12.4083 101.479 9.79923 97.1943C7.10529 92.9306 5.83257 87.2246 6.04469 81.4337C6.15075 78.57 6.68105 75.7276 8.18711 73.5852C9.24772 71.9943 10.8386 70.764 12.6417 69.8094C12.1326 71.57 11.6659 74.4973 11.9204 77.8912C12.1962 83.5125 14.275 89.8549 15.972 93.6306C17.4356 97.0882 19.0689 99.8034 20.7871 101.479C22.4841 103.219 24.2659 103.961 25.475 104.088C26.7053 104.237 27.3204 103.961 27.6174 103.706C27.9144 103.452 27.8932 103.176 27.872 102.9C27.8507 102.603 27.8083 102.328 27.575 102.094C27.3417 101.84 26.9386 101.649 26.3023 101.267C25.072 100.609 22.5689 98.7003 19.8114 91.9761C18.1992 88.3488 15.8447 82.6215 14.8689 77.5306C14.1053 74.0094 14.0629 70.8912 13.9144 69.2367C14.2326 69.1094 14.5295 68.9397 14.8477 68.8337C20.2568 66.8185 26.875 67.2215 32.772 64.6761C38.6265 62.2367 42.9538 57.9943 46.3053 54.0276C49.6568 49.9761 52.1598 46.0518 54.2386 42.7428C56.0629 39.7943 57.5265 37.3761 58.5871 35.5306V35.5518C57.9932 40.8549 58.3538 46.6246 59.3083 52.564C60.2204 58.4609 61.3659 64.6337 63.0629 70.764C63.9114 73.8185 64.8871 76.8731 66.0326 79.864C66.6053 81.3488 67.2204 82.8337 67.8568 84.2761C68.4932 85.6973 69.1295 87.0973 69.7659 88.4973C71.9083 93.2488 74.3689 98.0215 77.8053 101.84C77.1477 101.5 76.4265 101.161 75.5992 100.758C73.5629 99.867 71.1023 98.764 67.9417 97.6822Z" fill="white"/>
<path d="M87.7747 36.4211C89.6414 34.5333 91.805 32.2848 93.1201 30.8211C98.0201 25.5605 97.6808 24.9242 96.8323 24.0333C96.0898 23.2272 95.1565 22.4636 90.002 28.0211C88.602 29.5696 86.6929 32.2211 85.3989 34.6605C84.0838 37.0787 83.3414 39.1999 83.808 39.5181C84.2959 39.8363 85.908 38.309 87.7747 36.4211Z" fill="white"/>
<path d="M92.6319 61.8123C93.2046 62.8093 101.011 59.3941 104.405 57.4214C110.641 53.8154 110.302 52.9244 109.708 51.9275C109.135 50.9305 108.52 50.1881 102.305 53.7941C98.9106 55.7669 92.0379 60.8154 92.6319 61.8123Z" fill="white"/>
<path d="M104.999 94.2034C98.7412 93.2276 98.4655 94.1185 98.2958 95.264C98.1261 96.4094 98.1049 97.3427 104.362 98.3397C107.799 98.87 115.287 99.1034 115.478 97.9579C115.647 96.8337 108.435 94.7549 104.999 94.2034Z" fill="white"/>
<path d="M126.529 50.1242C126.466 49.8697 126.402 49.5727 126.275 49.2121C126.084 48.8939 125.872 48.5333 125.596 48.1303C124.514 46.4546 121.035 45.5 118.299 47.0061C116.92 47.6636 115.626 48.7242 114.757 50.1879C113.887 51.6091 113.399 53.4121 113.632 55.1515C113.887 56.8697 114.587 58.3333 115.499 59.5636C116.475 60.7727 117.726 61.6212 118.957 62.0879C121.226 62.9364 123.687 62.4909 125.235 61.3667C126.826 60.2212 127.548 58.8636 128.014 57.7394C128.863 55.4061 128.651 53.7303 128.396 52.6697C127.696 50.5485 126.975 50.803 126.487 50.9727C125.914 51.1849 125.596 51.4818 125.448 52.9455C125.32 53.6667 125.172 54.8121 124.493 56.1697C123.772 57.5273 122.541 58.8636 120.42 58.1424C119.869 57.9303 119.232 57.5485 118.681 56.9333C118.172 56.297 117.684 55.4273 117.472 54.5788C117.069 52.8818 118.044 50.697 119.763 49.5939C121.417 48.3849 123.369 48.4909 124.493 49.3182C124.769 49.5515 125.023 49.7424 125.257 49.9333C125.469 50.1455 125.638 50.3576 125.787 50.5273C126.105 50.8455 126.36 51.0364 126.487 50.9727C126.614 50.9091 126.635 50.6333 126.529 50.1242Z" fill="white"/>
<path d="M136.329 70.1274C135.608 68.9183 134.675 67.9001 133.678 67.0304C129.52 63.6365 124.705 63.1061 121.544 63.2758C118.299 63.4455 116.475 64.4001 116.559 64.6334C116.644 64.9728 118.532 64.591 121.523 64.9092C124.429 65.1849 128.65 66.2455 131.684 69.2152C132.405 69.9789 133.063 70.7849 133.529 71.7395C134.059 72.6516 134.356 73.7758 134.441 74.5183C134.42 75.2819 134.208 75.5789 133.529 76.0243C132.829 76.4274 131.832 76.7455 130.75 76.894C126.402 77.5304 121.672 76.8516 118.066 77.0213C114.947 77.0637 112.253 76.7031 111.044 75.7274C110.493 75.3455 109.984 74.4971 109.793 73.9243C109.602 73.3092 109.602 72.7152 109.772 72.1001C110.153 70.8698 111.002 69.788 111.787 69.0031C112.593 68.1971 113.335 67.6243 113.972 67.1789C114.587 66.7334 115.096 66.4364 115.499 66.2031C115.902 65.9486 116.156 65.7365 116.326 65.5455C116.666 65.1637 116.644 64.888 116.581 64.6122C116.517 64.3364 116.411 64.0819 115.881 63.9758C115.626 63.9334 115.244 63.9334 114.714 63.9971C114.184 64.0395 113.463 64.1668 112.593 64.5486C111.723 64.9092 110.684 65.4607 109.517 66.3728C108.372 67.3062 107.014 68.6001 106.123 70.891C105.699 72.0364 105.55 73.5425 105.953 75.0062C106.399 76.4698 107.099 77.7849 108.52 78.9516C111.384 81.094 114.756 81.1577 118.087 81.2001C119.953 81.1577 121.778 81.1789 124.069 81.2213C126.338 81.2213 128.799 81.2001 131.45 80.6698C132.766 80.394 134.187 79.991 135.587 79.0577C136.287 78.591 136.966 77.8698 137.411 77.0213C137.581 76.5758 137.793 76.088 137.856 75.6213C137.899 75.1546 137.899 74.7092 137.899 74.2425C137.623 72.588 137.072 71.3152 136.329 70.1274Z" fill="white"/>
<path d="M112.423 15.4213C113.399 16.6304 114.65 17.4789 115.88 17.9456C118.15 18.7941 120.611 18.3486 122.159 17.2244C123.75 16.0789 124.471 14.7213 124.938 13.5971C125.786 11.2638 125.574 9.588 125.32 8.5274C124.62 6.40618 123.899 6.66073 123.411 6.83043C122.838 7.04255 122.52 7.33952 122.371 8.80315C122.244 9.52437 122.096 10.6698 121.417 12.0274C120.696 13.385 119.465 14.7213 117.344 14.0001C116.793 13.788 116.156 13.4062 115.605 12.791C115.096 12.1547 114.608 11.285 114.396 10.4365C113.993 8.73952 114.968 6.55467 116.686 5.45164C118.341 4.24255 120.293 4.34861 121.417 5.17588C121.693 5.40922 121.947 5.60012 122.18 5.79103C122.393 6.00315 122.562 6.21528 122.711 6.38497C123.029 6.70315 123.283 6.89406 123.411 6.83043C123.538 6.788 123.559 6.49103 123.453 6.00315C123.39 5.74861 123.326 5.45164 123.199 5.09103C123.008 4.77285 122.796 4.41225 122.52 4.00922C121.438 2.33346 117.959 1.37891 115.223 2.88497C113.844 3.54255 112.55 4.60315 111.68 6.06679C110.811 7.488 110.323 9.29103 110.556 11.0304C110.811 12.7486 111.511 14.191 112.423 15.4213Z" fill="white"/>
<path d="M105.424 34.8305C108.288 36.9729 111.661 37.0365 114.991 37.0789C116.858 37.0365 118.682 37.0577 120.973 37.1002C123.243 37.1002 125.703 37.0789 128.355 36.5486C129.67 36.2729 131.091 35.8698 132.491 34.9365C133.191 34.4698 133.87 33.7486 134.315 32.9002C134.485 32.4547 134.697 31.9668 134.761 31.5002C134.803 31.0335 134.803 30.588 134.803 30.1214C134.527 28.4244 133.976 27.1517 133.233 25.9638C132.512 24.7547 131.579 23.7365 130.582 22.8668C126.424 19.4729 121.609 18.9426 118.449 19.1123C115.203 19.282 113.379 20.2365 113.464 20.4698C113.549 20.8092 115.437 20.4274 118.427 20.7456C121.333 21.0214 125.555 22.082 128.588 25.0517C129.309 25.8153 129.967 26.6214 130.433 27.5759C130.964 28.488 131.261 29.6123 131.346 30.3547C131.324 31.1183 131.112 31.4153 130.433 31.8608C129.733 32.2638 128.736 32.582 127.655 32.7305C123.306 33.3668 118.576 32.688 114.97 32.8577C111.852 32.9001 109.158 32.5395 107.949 31.5638C107.397 31.182 106.888 30.3335 106.697 29.7608C106.506 29.1456 106.506 28.5517 106.676 27.9365C107.058 26.7062 107.906 25.6244 108.691 24.8395C109.497 24.0335 110.24 23.4608 110.876 23.0153C111.491 22.5698 112 22.2729 112.403 22.0395C112.806 21.785 113.061 21.5729 113.23 21.382C113.57 21.0001 113.549 20.7244 113.485 20.4486C113.421 20.1729 113.315 19.9183 112.785 19.8123C112.53 19.7698 112.149 19.7698 111.618 19.8335C111.088 19.8759 110.367 20.0032 109.497 20.385C108.627 20.7456 107.567 21.2971 106.421 22.2092C105.276 23.1426 103.918 24.4365 103.027 26.7274C102.603 27.8729 102.455 29.3789 102.858 30.8426C103.303 32.3486 103.982 33.6638 105.424 34.8305Z" fill="white"/>
<path d="M6.38471 107.843C6.04531 108.012 7.72107 110.897 11.3483 112.446C14.9756 114.037 18.2211 113.167 18.115 112.806C18.0726 112.382 15.1241 112.509 11.9423 111.088C8.71804 109.752 6.7241 107.567 6.38471 107.843Z" fill="white"/>
<path d="M5.45147 112C5.11208 112.191 6.53329 114.588 9.65147 115.564C11.1575 116.03 12.6424 116.009 13.6393 115.776C14.6363 115.542 15.1666 115.161 15.1242 114.97C14.9969 114.567 12.706 115.012 10.0969 114.164C7.46662 113.379 5.76965 111.724 5.45147 112Z" fill="white"/>
</g>
</svg>
