<svg width="210" height="190" viewBox="0 0 210 190" fill="none" xmlns="http://www.w3.org/2000/svg">
<path opacity="0.1" fill-rule="evenodd" clip-rule="evenodd" d="M99.565 0.727184C78.4276 0.901641 54.4848 -3.4826 38.4487 10.3465C22.6045 24.0102 26.8853 49.0505 20.4094 68.9889C13.9229 88.9601 -3.18437 106.456 0.517746 127.131C4.3658 148.621 21.3587 165.851 39.8198 177.388C57.4752 188.422 78.7857 188.207 99.565 189.03C121.29 189.891 143.692 192.61 162.837 182.263C183.561 171.063 203.395 153.402 208.271 130.282C213.029 107.731 195.647 87.6655 187.324 66.1819C179.611 46.2723 178.494 22.0697 161.416 9.33155C144.288 -3.44332 120.9 0.551094 99.565 0.727184Z" fill="#2F80ED"/>
</svg>
