<svg width="195" height="146" viewBox="0 0 195 146" fill="none" xmlns="http://www.w3.org/2000/svg">
<path d="M68.5596 57.2L70.5167 52.5989L66.9143 51.0666L64.5625 54.1962L68.5596 57.2ZM144.321 89.4253L142.364 94.0264L146.539 95.8022L148.711 91.819L144.321 89.4253ZM193.082 0L143.801 30.0784L194.49 57.7179L193.082 0ZM8.07918 146.004L72.5568 60.2038L64.5625 54.1962L0.0848868 139.996L8.07918 146.004ZM66.6026 61.8011L142.364 94.0264L146.278 84.8243L70.5167 52.5989L66.6026 61.8011ZM148.711 91.819L175.929 41.902L167.149 37.1147L139.931 87.0317L148.711 91.819Z" fill="#6152D9"/>
</svg>
