<svg width="469" height="522" viewBox="0 0 469 522" fill="none" xmlns="http://www.w3.org/2000/svg">
<path opacity="0.05" fill-rule="evenodd" clip-rule="evenodd" d="M250.609 7.40914C308.596 -8.31769 352.492 -0.28519 393.186 43.8581C435.934 90.2289 419.335 135.605 426.513 198.221C431.59 242.518 460.534 279.27 461.885 323.835C463.832 388.041 487.526 471.618 435.969 510.034C384.598 548.311 314.692 482.635 250.609 481.262C188.815 479.937 121.59 537.585 70.9428 502.211C20.4618 466.953 41.5732 387.322 29.6914 326.964C19.6252 275.829 -14.2899 223.864 6.76109 176.177C27.5539 129.076 90.4346 122.709 132.803 93.3859C173.782 65.0246 202.493 20.4591 250.609 7.40914Z" fill="#E8112B"/>
</svg>
