<svg width="120" height="120" viewBox="0 0 120 120" fill="none" xmlns="http://www.w3.org/2000/svg">
<g opacity="0.15">
<path d="M48.1462 40.104C43.6408 40.7422 40.4153 46.3095 41.6099 50.664C43.7426 58.4258 55.1426 58.6567 57.279 50.324C57.9153 47.8458 57.3808 45.2585 55.8117 43.2385C53.9899 40.8895 51.1571 39.6822 48.1462 40.104ZM49.6717 43.2276L48.7517 42.3076L49.2135 41.8458C49.2462 41.8458 49.2808 41.8385 49.3153 41.8385C49.5117 41.8385 49.699 41.8876 49.8935 41.9058L50.4444 42.4567L49.6717 43.2276ZM44.8262 44.2095L47.019 46.4022L45.6153 47.8076C45.4335 47.6258 43.9771 46.1385 43.7571 46.0058C44.1735 44.9967 44.4226 44.7313 44.8262 44.2095ZM44.899 52.7676C44.4008 52.264 43.9899 51.6804 43.6935 51.0422L45.159 52.5076L44.899 52.7676ZM43.479 49.544C43.4208 49.4858 43.3408 49.4767 43.2662 49.4567C43.1644 48.6567 43.2317 47.8058 43.4662 46.9458L44.9717 48.4513L43.679 49.7458L43.479 49.544ZM49.5408 54.6895L49.4026 55.6004V54.6913C47.5844 54.6913 46.679 54.1931 45.6008 53.3695L48.548 50.4131C48.7262 50.2349 48.7208 49.9476 48.5426 49.7695C48.3644 49.5913 48.0753 49.5913 47.8971 49.7695L45.8026 51.864L44.3226 50.3858L45.6153 49.0913L46.2262 49.7022C46.4026 49.8785 46.6899 49.8804 46.8681 49.7022C47.0462 49.524 47.0462 49.2367 46.8681 49.0585L46.2571 48.4476L48.6571 46.0476C48.8353 45.8695 48.8353 45.5822 48.6571 45.404C48.479 45.224 48.1917 45.2276 48.0135 45.404L47.6608 45.7567L45.4135 43.5095C46.0008 42.9204 46.6571 42.4676 47.3499 42.1895L47.4644 42.304L46.259 43.5095C46.0808 43.6876 46.0808 43.9749 46.259 44.1531C46.4353 44.3295 46.7226 44.3313 46.9026 44.1531L48.108 42.9476L49.0371 43.8767C49.2244 44.064 49.3462 44.0113 49.5117 43.9458C49.7081 44.2076 50.0044 44.1767 50.1771 44.0022L51.0844 43.0949L51.199 43.2095C51.3753 43.3858 51.6626 43.3876 51.8426 43.2095C52.0208 43.0313 52.0208 42.744 51.8426 42.5658L51.7281 42.4513L51.7426 42.4367C51.7626 42.4167 51.7571 42.3858 51.7735 42.3622C52.7753 42.7858 53.679 43.4404 54.3753 44.3385C57.6808 48.6058 54.4753 54.5513 49.5408 54.6895Z" fill="white"/>
<path d="M117.556 72.8239C53.0324 53.6366 58.0687 55.5021 58.0687 55.5021C57.8451 55.6621 57.7033 55.9493 57.6924 56.2021C57.6924 56.2057 57.6905 56.2075 57.6905 56.2112C57.436 63.7421 73.2196 105.073 78.496 117.4C78.8378 118.198 80.0105 118.102 80.2142 117.258C82.6796 107.233 85.4505 97.4621 87.9433 87.3803C97.7687 83.1839 107.674 78.7875 117.652 74.5312C118.431 74.1984 118.372 73.0675 117.556 72.8239ZM69.0505 66.1203L70.0578 65.113L72.7178 67.773L71.6396 68.8512C70.7796 67.9457 69.916 67.0348 69.0505 66.1203ZM86.1687 86.9784C85.836 88.3257 85.4887 89.6675 85.1451 91.013C84.996 90.9766 84.8396 90.9875 84.7233 91.1039L83.5396 92.2875L83.016 91.7639C82.8378 91.5857 82.5505 91.5857 82.3724 91.7639C82.1942 91.9421 82.1942 92.2294 82.3724 92.4075L82.896 92.9312L82.2178 93.6094C82.0396 93.7875 82.0396 94.0748 82.2178 94.253C82.3942 94.4294 82.6815 94.4312 82.8615 94.253L83.5396 93.5748L84.2996 94.3348C84.2469 94.5384 84.1942 94.7348 84.1415 94.9384C83.9924 94.9021 83.836 94.913 83.7178 95.0294L82.1178 96.6294L81.4778 95.9893C81.2996 95.8112 81.0124 95.8112 80.8342 95.9893C80.656 96.1675 80.656 96.4548 80.8342 96.633L81.4742 97.273L81.3724 97.3748C81.1942 97.553 81.1942 97.8403 81.3724 98.0184C81.4615 98.1075 81.576 98.1512 81.6942 98.1512C81.8124 98.1512 81.9269 98.1075 82.016 98.0184L82.1178 97.9166L82.7196 98.5184C82.8087 98.6075 82.9233 98.6512 83.0415 98.6512C83.0924 98.6512 83.1324 98.6112 83.1796 98.5948C83.1342 98.7675 83.0887 98.9421 83.0433 99.1166C82.8705 99.0203 82.6578 99.0148 82.5105 99.1621L80.9687 100.704L79.7142 99.4494C79.536 99.2712 79.2487 99.2712 79.0705 99.4494C78.8924 99.6275 78.8924 99.9148 79.0705 100.093L80.3251 101.348L78.3251 103.348C78.1796 103.318 78.0305 103.333 77.9178 103.446C77.7396 103.624 77.7396 103.911 77.9178 104.089L80.1324 106.304L78.1633 108.273L77.1796 107.288C77.0033 107.111 76.716 107.108 76.536 107.288C76.4651 107.358 76.4433 107.451 76.4305 107.544C70.2487 91.9384 61.5051 67.913 59.8069 58.8857C69.4215 69.3548 77.4687 77.4094 86.1687 86.9784ZM74.5487 71.9148L74.8978 71.5657L77.3505 74.0184C77.356 74.0239 77.3651 74.0221 77.3724 74.0275L76.9524 74.4475C76.1505 73.6039 75.3451 72.7494 74.5487 71.9148ZM80.4578 78.1421L82.2342 76.3657L84.0487 78.1821L82.2069 80.0239C81.6215 79.3984 81.0451 78.7639 80.4578 78.1421ZM84.5615 93.3112L84.1815 92.9312L84.8196 92.293C84.7324 92.633 84.6487 92.973 84.5615 93.3112ZM83.3633 97.873L82.7615 97.2712L83.8015 96.2312C83.656 96.7839 83.5124 97.3312 83.3669 97.8803C83.3633 97.8784 83.3651 97.8748 83.3633 97.873ZM76.6142 108.002L77.5196 108.909L77.1305 109.298C76.9596 108.875 76.7887 108.442 76.6142 108.002ZM79.1124 114.171C78.6124 112.964 78.0687 111.631 77.4996 110.217L78.1633 109.553C78.6087 109.998 79.5233 111.168 79.9851 110.782C79.6924 111.911 79.3978 113.038 79.1124 114.171ZM80.1015 110.324C80.0815 110.255 80.0742 110.18 80.0196 110.124L78.8051 108.909L81.0524 106.662C80.7324 107.878 80.4196 109.098 80.1015 110.324ZM81.3996 105.344C81.2542 105.313 81.1015 105.326 80.9887 105.44L80.7742 105.655L79.036 103.917L80.9669 101.986L81.2633 102.282C81.4396 102.458 81.7269 102.46 81.9069 102.282C82.0851 102.104 82.0851 101.817 81.9069 101.638L81.6105 101.342L82.7578 100.195C82.756 100.197 81.3996 105.344 81.3996 105.344ZM88.7687 85.0403L91.7196 82.0893L92.0687 82.4384C92.2487 82.6184 92.536 82.613 92.7124 82.4384C92.8905 82.2603 92.8905 81.973 92.7124 81.7948L92.3633 81.4475L95.1469 78.6639C95.3251 78.4857 95.3251 78.1984 95.1469 78.0203C94.9687 77.8421 94.6815 77.8421 94.5033 78.0203L91.7196 80.8039L90.0815 79.1657C89.9033 78.9894 89.616 78.9857 89.4378 79.1657C89.2596 79.3439 89.2596 79.6312 89.4378 79.8094L91.076 81.4475L87.1542 85.3694C86.5051 84.6566 85.8415 83.9548 85.1869 83.2457L86.0342 82.3984L87.5215 83.8857C87.6978 84.0621 87.9851 84.0639 88.1651 83.8857C88.3433 83.7075 88.3433 83.4203 88.1651 83.2421L86.6778 81.7548L88.296 80.1366C88.4742 79.9584 88.4742 79.6712 88.296 79.493C88.1178 79.3148 87.8305 79.3148 87.6524 79.493L86.0342 81.1112L85.1633 80.2403C84.9851 80.0621 84.6978 80.0621 84.5196 80.2403C84.3415 80.4184 84.3415 80.7057 84.5196 80.8839L85.3905 81.7548L84.5687 82.5766C83.9869 81.9475 83.4069 81.3166 82.8215 80.6912L84.9724 78.5403C85.1505 78.3621 85.1505 78.0748 84.9724 77.8966C84.9396 77.8639 84.8924 77.8675 84.8542 77.8475C84.8378 77.7584 84.8196 77.6675 84.7505 77.5984L82.8742 75.7221L82.9051 75.6912C83.0833 75.513 83.0833 75.2257 82.9051 75.0475C82.7269 74.8694 82.4396 74.8694 82.2615 75.0475L82.2305 75.0784L80.6324 73.4803C80.4542 73.3021 80.1669 73.3021 79.9887 73.4803C79.8105 73.6584 79.8105 73.9457 79.9887 74.1239L81.5869 75.7221L79.8287 77.4803C79.0742 76.6803 78.3269 75.8984 77.5742 75.1039L79.9033 72.7748C80.0815 72.5966 80.0815 72.3094 79.9033 72.1312C79.7251 71.953 79.4378 71.953 79.2596 72.1312L77.9978 73.393C77.9924 73.3875 77.9942 73.3784 77.9887 73.3712L75.536 70.9184L76.2178 70.2366C76.396 70.0584 76.396 69.7712 76.2178 69.593C76.0396 69.4148 75.7524 69.4148 75.5742 69.593L74.8924 70.2748L74.0996 69.4821C73.6778 69.0603 73.0305 69.6984 73.456 70.1257L74.2487 70.9184L73.916 71.2512C73.7233 71.0493 72.4651 69.7203 72.2596 69.5057L73.4215 68.3439C73.4524 68.3512 73.4778 68.3803 73.5105 68.3803C73.6269 68.3803 73.7433 68.3366 73.8324 68.2475C73.9451 68.1348 73.9596 67.9821 73.9287 67.8366L74.0596 67.7057C74.2378 67.5275 74.2378 67.2403 74.0596 67.0621C73.8815 66.8839 73.5942 66.8839 73.416 67.0621L73.3524 67.1257L70.6924 64.4657L72.0942 63.0639C72.2724 62.8857 72.2724 62.5984 72.0942 62.4203C71.916 62.2421 71.6287 62.2421 71.4505 62.4203L70.0487 63.8221L69.4087 63.1821C69.2305 63.0039 68.9433 63.0039 68.7651 63.1821C68.5869 63.3603 68.5869 63.6475 68.7651 63.8257L69.4051 64.4657L68.4142 65.4566C66.1014 63.013 63.8051 60.5475 61.5105 58.0548L114.616 73.8457C106.04 77.533 99.2996 80.5257 88.7687 85.0403Z" fill="white"/>
<path d="M69.3097 50.164C69.7861 50.3295 70.3025 50.0749 70.4661 49.6004C73.5006 40.7913 66.7043 29.004 51.4425 28.1113C29.1406 26.784 25.9788 50.4185 34.2988 61.6331C38.3534 67.0913 45.1897 69.8713 51.1788 68.8222C51.6734 68.7367 52.0061 68.2658 51.9188 67.7731C51.8334 67.2785 51.3552 66.9276 50.8697 67.0331C45.4043 67.9622 39.337 65.3731 35.757 60.5513C28.4225 50.6695 30.5552 28.6749 51.3334 29.9276C65.3279 30.744 71.4025 41.2985 68.7443 49.0095C68.5843 49.484 68.8352 50.0004 69.3097 50.164Z" fill="white"/>
<path d="M51.8023 79.5057C40.335 81.7366 27.775 76.3894 21.2441 66.5112C7.18409 45.2403 23.7114 16.1985 50.3077 17.1512C70.7241 17.8875 85.3241 37.433 81.8386 48.7912C81.6914 49.2712 81.9586 49.7785 82.4405 49.9257C82.9132 50.0766 83.4296 49.8057 83.575 49.3239C87.4205 36.8094 71.995 16.1148 50.3714 15.333C22.1441 14.3712 4.97318 45.1985 19.7295 67.5112C26.6405 77.9657 39.9495 83.6585 52.1514 81.2912C52.6441 81.1948 52.9659 80.7185 52.8714 80.2239C52.7768 79.7294 52.2877 79.4185 51.8023 79.5057Z" fill="white"/>
<path d="M51.2741 94.5129C34.4723 95.2147 17.6486 85.7656 9.4359 71.0819C-6.79137 42.0565 12.8214 6.44922 45.3323 4.00013C73.6541 1.82376 101.538 26.4365 93.9068 51.7892C93.7614 52.271 94.0341 52.7783 94.5141 52.9219C95.0032 53.071 95.505 52.7947 95.6468 52.3147C103.669 25.671 74.8141 -0.0362363 45.1941 2.18558C11.5468 4.7274 -9.11137 41.6292 7.84863 71.9692C16.3814 87.2256 33.8523 97.0238 51.345 96.3292C51.8468 96.3074 52.2377 95.8856 52.2177 95.3838C52.1995 94.8838 51.7759 94.5456 51.2741 94.5129Z" fill="white"/>
<path d="M68.3927 75.9674L71.1054 78.6801L70.62 79.1655C70.4418 79.3437 70.4418 79.631 70.62 79.8092C70.8 79.9892 71.0873 79.9837 71.2636 79.8092L71.7491 79.3237L73.2182 80.7946C72.7836 81.2292 72.12 81.6928 72.5418 82.1146C72.7182 82.291 73.0054 82.2928 73.1854 82.1146L73.8618 81.4383L74.8709 82.4473L73.7709 83.5473C73.5927 83.7255 73.5927 84.0128 73.7709 84.191C73.9473 84.3673 74.2345 84.3692 74.4145 84.191L75.5145 83.091L78.06 85.6364L77.2291 86.4673C77.0509 86.6455 77.0509 86.9328 77.2291 87.111C77.4054 87.2873 77.6927 87.2892 77.8727 87.111L78.7036 86.2801L80.9182 88.4946C81.0945 88.671 81.3818 88.6728 81.5618 88.4946C81.74 88.3164 81.74 88.0292 81.5618 87.851L79.3473 85.6364L80.4818 84.5019C80.66 84.3237 80.66 84.0364 80.4818 83.8583C80.3036 83.6801 80.0164 83.6801 79.8382 83.8583L78.7036 84.9928L76.1582 82.4473L76.5127 82.0928C76.6909 81.9146 76.6909 81.6273 76.5127 81.4492C76.3345 81.271 76.0473 81.271 75.8691 81.4492L75.5145 81.8037L74.5054 80.7946L75.28 80.0201C75.4582 79.8419 75.4582 79.5546 75.28 79.3764C75.1018 79.1983 74.8145 79.1983 74.6364 79.3764L73.8618 80.151L72.3927 78.6819L73.0727 78.0019C73.2509 77.8237 73.2509 77.5364 73.0727 77.3583C72.8945 77.1819 72.6073 77.1783 72.4291 77.3583L71.7491 78.0383L69.0364 75.3255C68.8582 75.1473 68.5709 75.1473 68.3927 75.3255C68.2145 75.5037 68.2164 75.791 68.3927 75.9674Z" fill="white"/>
</g>
</svg>
