<svg width="188" height="188" viewBox="0 0 188 188" fill="none" xmlns="http://www.w3.org/2000/svg">
<g filter="url(#filter0_b_2801_3424)">
<circle cx="94" cy="94" r="94" fill="url(#paint0_linear_2801_3424)"/>
</g>
<circle opacity="0.2" cx="94" cy="94" r="55" stroke="white" stroke-width="2" stroke-linecap="round" stroke-dasharray="4 6"/>
<path d="M88.1164 162.966L86.1532 174.646L81.0054 173.781C78.254 173.319 76.8119 171.908 77.1341 169.991C77.3519 168.695 78.1283 167.877 79.2234 167.769L79.2264 167.751C78.0138 167.255 77.3199 166.171 77.5675 164.698C77.9285 162.55 79.6492 161.543 82.5959 162.038L88.1164 162.966ZM84.0566 169.311L81.6247 168.902C80.5774 168.726 79.914 169.089 79.7678 169.959C79.6216 170.829 80.1179 171.46 81.3782 171.672L83.5971 172.045L84.0566 169.311ZM84.8502 164.589L82.2408 164.151C81.1757 163.972 80.453 164.471 80.2859 165.465C80.1487 166.281 80.6952 166.939 81.8136 167.127L84.352 167.554L84.8502 164.589Z" fill="white"/>
<path d="M66.3349 157.045C69.3679 158.376 70.6279 160.835 69.413 163.605L66.4986 170.247L63.7953 169.061L66.6663 162.517C67.3172 161.034 66.6371 159.851 65.2031 159.222C63.769 158.593 62.4381 158.893 61.7872 160.377L58.9162 166.921L56.5262 165.872L59.4405 159.229C60.6555 156.46 63.302 155.715 66.3349 157.045Z" fill="white"/>
<path d="M52.5643 148.983C55.8069 151.439 55.4178 153.741 54.1027 155.477L52.0079 153.89C52.7796 152.872 52.8635 151.897 51.2852 150.701C49.6926 149.494 48.8992 149.797 48.4426 150.399C48.1383 150.801 48.1148 151.19 48.3901 151.601C48.6975 152.06 49.5644 152.943 50.2666 153.655C51.0905 154.505 51.8962 155.409 52.1697 156.181C52.4788 157.025 52.2945 157.924 51.6097 158.828C50.2619 160.607 47.9354 160.787 45.2093 158.721C42.2106 156.45 42.1806 154.462 43.7893 152.339L45.8697 153.915C45.0545 154.991 45.1684 156.003 46.4597 156.981C47.7367 157.949 48.6406 157.888 49.1188 157.257C49.4667 156.798 49.5332 156.442 49.3119 156.048C49.0727 155.619 48.2023 154.711 47.4966 153.973C46.5653 152.997 45.8923 152.216 45.561 151.491C45.1583 150.621 45.3105 149.675 45.9844 148.785C47.2017 147.178 49.1926 146.428 52.5643 148.983Z" fill="white"/>
<path d="M44.3488 141.967L35.5688 149.916L33.5875 147.728L42.3675 139.778L44.3488 141.967Z" fill="white"/>
<path d="M37.9624 134.586L27.8224 140.706L25.6272 137.07L30.0387 128.982L30.0294 128.967L23.2646 133.155L21.8321 130.782L31.9721 124.662L33.7766 127.651L28.6986 137.003L28.7079 137.018L36.5299 132.213L37.9624 134.586Z" fill="white"/>
<path d="M30.0313 120.145L18.7239 123.67L16.2277 115.662L18.4445 114.971L20.0622 120.161L22.6055 119.368L21.352 115.347L23.0705 114.811L24.324 118.832L26.936 118.018L25.2701 112.674L27.4869 111.983L30.0313 120.145Z" fill="white"/>
<path d="M25.6499 99.2707C25.9235 103.329 23.9308 104.546 21.7577 104.693L21.581 102.071C22.8561 101.985 23.6471 101.408 23.514 99.4327C23.3796 97.4392 22.631 97.0387 21.8767 97.0895C21.3739 97.1234 21.0651 97.3607 20.9349 97.8385C20.7905 98.3715 20.6932 99.6048 20.6161 100.602C20.5152 101.782 20.3616 102.983 19.9586 103.695C19.5245 104.482 18.7251 104.933 17.5936 105.009C15.3667 105.16 13.7048 103.522 13.4748 100.109C13.2218 96.3559 14.7019 95.0293 17.3599 94.8502L17.5354 97.4543C16.1885 97.5451 15.4993 98.2951 15.6083 99.9114C15.716 101.51 16.3547 102.152 17.1449 102.099C17.7196 102.06 18.032 101.877 18.1837 101.452C18.351 100.989 18.465 99.7369 18.5589 98.7203C18.6848 97.3768 18.8325 96.3566 19.1625 95.6307C19.5546 94.7564 20.3684 94.2505 21.4819 94.1755C23.4933 94.0399 25.3655 95.0503 25.6499 99.2707Z" fill="white"/>
<path d="M26.3639 83.7227C25.7096 87.7377 23.4928 88.4707 21.3432 88.1203L21.7659 85.5266C23.0272 85.7321 23.9284 85.3501 24.2469 83.3959C24.5683 81.4239 23.93 80.864 23.1839 80.7424C22.6865 80.6613 22.3319 80.8224 22.0968 81.2582C21.8351 81.7445 21.4606 82.9236 21.1592 83.8775C20.7934 85.0033 20.3713 86.1382 19.8172 86.7409C19.2159 87.4089 18.335 87.6666 17.2158 87.4842C15.0128 87.1251 13.7658 85.1529 14.3159 81.7774C14.9211 78.0644 16.6635 77.1082 19.2929 77.5367L18.873 80.1127C17.5406 79.8956 16.6993 80.4698 16.4387 82.0687C16.181 83.6498 16.6573 84.4204 17.439 84.5478C18.0075 84.6405 18.3533 84.5327 18.5976 84.153C18.8654 83.7408 19.2606 82.5468 19.5826 81.578C20.01 80.298 20.3854 79.3379 20.8714 78.7059C21.4516 77.9433 22.3589 77.6352 23.4604 77.8147C25.4502 78.139 27.0443 79.5477 26.3639 83.7227Z" fill="white"/>
<path d="M35.0443 59.7774C33.1251 62.8868 29.8337 63.9012 26.5865 61.8968C23.3086 59.8736 22.7401 56.4767 24.6594 53.3673C26.3612 50.6102 29.0959 49.6753 31.4088 51.1029C31.6385 51.2447 31.9048 51.4302 32.0332 51.5306L30.6812 53.721C30.5221 53.6016 30.369 53.5071 30.2924 53.4598C28.9292 52.6184 27.5524 53.1012 26.7109 54.4644C25.6898 56.1186 26.2025 58.0639 28.1937 59.2929C30.2003 60.5315 32.1419 60.0589 33.1441 58.4353C34.0517 56.9648 33.8036 55.5848 32.5323 54.8001C32.471 54.7623 32.3791 54.7055 32.2012 54.6169L33.5626 52.4112C33.7712 52.5188 33.9397 52.6228 34.0622 52.6984C36.3751 54.1261 36.7556 57.0051 35.0443 59.7774Z" fill="white"/>
<path d="M47.5074 44.428C44.8933 46.877 41.3075 47.1039 38.6616 44.2797C36.065 41.508 36.5496 37.9708 39.1637 35.5218C41.7777 33.0729 45.339 32.8197 47.9356 35.5914C50.5815 38.4156 50.1214 41.9791 47.5074 44.428ZM45.9198 42.7335C47.286 41.4536 47.3515 39.4437 45.7148 37.6966C44.1027 35.9758 42.1173 35.9365 40.7512 37.2164C39.385 38.4962 39.2949 40.4799 40.907 42.2007C42.5438 43.9478 44.5537 44.0134 45.9198 42.7335Z" fill="white"/>
<path d="M55.4178 37.6914L49.6161 27.3656L53.3196 25.2848L61.2655 29.9461L61.2812 29.9373L57.3055 23.0452L59.7222 21.6874L65.5239 32.0132L62.4795 33.7237L53.2907 28.3567L53.275 28.3656L57.8345 36.3335L55.4178 37.6914Z" fill="white"/>
<path d="M74.9228 29.0609C71.0099 30.1735 69.4049 28.4778 68.8092 26.3828L71.337 25.6641C71.6866 26.8933 72.4151 27.547 74.3196 27.0055C76.2415 26.459 76.4774 25.6434 76.2706 24.9162C76.1328 24.4314 75.8364 24.1789 75.3419 24.151C74.7906 24.1207 73.564 24.2823 72.5724 24.4146C71.3978 24.5614 70.1911 24.6613 69.4101 24.4155C68.55 24.1548 67.9426 23.4667 67.6325 22.3759C67.022 20.229 68.2781 18.2625 71.5677 17.3271C75.1862 16.2982 76.7919 17.4697 77.5205 20.0322L75.01 20.746C74.6408 19.4475 73.7637 18.9296 72.2054 19.3727C70.6645 19.8108 70.1691 20.5693 70.3857 21.3311C70.5432 21.8851 70.7877 22.1524 71.2351 22.2123C71.7221 22.2797 72.9709 22.1305 73.9848 22.0106C75.3251 21.8541 76.3537 21.7861 77.1323 21.9577C78.0691 22.1592 78.7334 22.8499 79.0386 23.9233C79.59 25.8624 78.9915 27.904 74.9228 29.0609Z" fill="white"/>
<path d="M90.7027 26.5015C87.3936 26.6411 85.1799 24.9869 85.0525 21.9656L84.7468 14.7181L87.6962 14.5936L87.9973 21.7333C88.0656 23.3519 89.1968 24.1149 90.7614 24.0489C92.326 23.9829 93.3889 23.1273 93.3206 21.5088L93.0194 14.3691L95.6271 14.2591L95.9328 21.5067C96.0603 24.528 94.0117 26.3619 90.7027 26.5015Z" fill="white"/>
<path d="M101.81 26.7138L103.586 15.0037L106.505 15.4465L105.077 24.8608L110.416 25.6708L110.067 27.9665L101.81 26.7138Z" fill="white"/>
<path d="M114.241 29.4312L117.174 20.3724L113.972 19.3354L114.687 17.1263L123.883 20.1041L123.168 22.3132L119.983 21.2818L117.049 30.3407L114.241 29.4312Z" fill="white"/>
<path d="M123.151 32.9205L128.576 22.3919L131.2 23.7439L125.775 34.2726L123.151 32.9205Z" fill="white"/>
<path d="M131.725 37.5848L139.066 28.2901L142.4 30.923L141.113 40.0449L141.127 40.056L145.988 33.7567L148.163 35.4748L140.822 44.7695L138.082 42.6051L139.548 32.0653L139.534 32.0541L133.901 39.3028L131.725 37.5848Z" fill="white"/>
<path d="M147.531 52.851C145.468 50.1681 145.698 46.8352 148.652 44.5643C151.778 42.1618 155.242 42.8586 157.458 45.7413C159.279 48.1102 159.468 50.9845 157.328 52.6301C157.114 52.7947 156.874 52.9559 156.749 53.0294L155.181 50.9887C155.348 50.8823 155.491 50.7726 155.591 50.6958C156.704 49.8401 156.539 48.3552 155.683 47.2421C154.455 45.6438 152.44 45.4445 150.47 46.9584C148.601 48.3956 148.376 50.4072 149.495 51.8628C150.307 52.9188 151.761 53.4812 152.831 52.6584L152.974 52.5487L151.109 50.1227L152.436 49.1024L156.013 53.7546L151.261 57.4078L149.867 55.5954C150.221 55.3464 150.913 54.8593 151.513 54.3986L151.502 54.3843C150.195 54.9579 148.704 54.378 147.531 52.851Z" fill="white"/>
<path d="M159.097 75.5287C158.012 71.608 159.719 70.0151 161.818 69.4343L162.519 71.9671C161.287 72.3079 160.628 73.0318 161.156 74.9401C161.689 76.8657 162.503 77.1074 163.232 76.9058C163.717 76.7714 163.972 76.4768 164.003 75.9826C164.038 75.4315 163.885 74.2038 163.759 73.2112C163.621 72.0356 163.53 70.8282 163.781 70.049C164.048 69.1908 164.74 68.5883 165.833 68.2859C167.984 67.6906 169.942 68.9605 170.854 72.2567C171.857 75.8824 170.674 77.4797 168.107 78.1902L167.411 75.6747C168.712 75.3147 169.236 74.4413 168.804 72.88C168.377 71.336 167.622 70.8352 166.858 71.0464C166.303 71.2 166.034 71.4425 165.971 71.8896C165.9 72.3761 166.041 73.6259 166.153 74.6406C166.3 75.9819 166.361 77.011 166.184 77.7884C165.976 78.7238 165.28 79.3831 164.205 79.6807C162.262 80.2184 160.225 79.6055 159.097 75.5287Z" fill="white"/>
<path d="M161.848 87.5677L173.689 87.2949L173.882 95.6806L171.56 95.7341L171.435 90.2996L168.772 90.3609L168.869 94.5718L167.069 94.6133L166.972 90.4024L164.237 90.4654L164.366 96.0619L162.045 96.1154L161.848 87.5677Z" fill="white"/>
<path d="M161.419 104.045L173.055 106.255L172.023 111.684C171.439 114.761 169.85 116.181 167.657 115.765C166.172 115.483 165.355 114.668 165.245 113.511L165.21 113.504C164.726 114.603 163.709 114.942 162.401 114.693L159.501 114.142L160.052 111.242L162.863 111.776C163.924 111.978 164.458 111.676 164.666 110.579L165.201 107.768L160.868 106.945L161.419 104.045ZM166.951 108.1L166.447 110.753C166.215 111.973 166.646 112.696 167.725 112.901C168.75 113.096 169.49 112.577 169.746 111.233L170.223 108.722L166.951 108.1Z" fill="white"/>
<path d="M157.202 119.771L169.864 120.22L168.558 123.322L158.835 122.666L158.821 122.699L166.113 129.129L164.939 131.916L155.777 123.156L157.202 119.771Z" fill="white"/>
<path d="M151.519 131.009L161.352 137.611L159.707 140.062L149.873 133.46L151.519 131.009Z" fill="white"/>
<path d="M141.55 143.093C144.13 140.505 147.566 140.271 150.268 142.966C152.996 145.685 152.772 149.122 150.192 151.71C147.904 154.004 145.028 154.288 143.103 152.369C142.912 152.178 142.695 151.937 142.593 151.81L144.411 149.987C144.538 150.14 144.666 150.267 144.729 150.33C145.864 151.461 147.314 151.307 148.446 150.172C149.818 148.796 149.764 146.785 148.108 145.132C146.438 143.467 144.439 143.483 143.092 144.834C141.872 146.058 141.798 147.458 142.856 148.513C142.907 148.564 142.983 148.64 143.136 148.767L141.306 150.602C141.127 150.45 140.987 150.31 140.885 150.208C138.961 148.289 139.249 145.4 141.55 143.093Z" fill="white"/>
<path d="M133.798 150.171L139.947 160.293L132.779 164.648L131.573 162.664L136.219 159.841L134.836 157.565L131.236 159.752L130.301 158.213L133.901 156.026L132.48 153.688L127.696 156.595L126.491 154.61L133.798 150.171Z" fill="white"/>
<path d="M114.597 159.459C118.469 158.214 120.131 159.854 120.798 161.928L118.296 162.732C117.905 161.516 117.154 160.887 115.269 161.493C113.367 162.105 113.159 162.928 113.391 163.647C113.545 164.127 113.85 164.37 114.345 164.381C114.897 164.392 116.117 164.189 117.104 164.023C118.273 163.836 119.475 163.695 120.264 163.914C121.133 164.146 121.763 164.813 122.11 165.892C122.793 168.017 121.605 170.025 118.349 171.072C114.768 172.224 113.123 171.107 112.308 168.571L114.792 167.772C115.206 169.058 116.1 169.545 117.642 169.049C119.167 168.559 119.637 167.784 119.394 167.03C119.218 166.482 118.964 166.223 118.515 166.178C118.026 166.128 116.783 166.319 115.774 166.474C114.44 166.676 113.414 166.779 112.63 166.634C111.687 166.464 111 165.796 110.658 164.734C110.041 162.815 110.57 160.754 114.597 159.459Z" fill="white"/>
<path d="M103.913 162.199L104.232 164.88L101.586 165.195L101.267 162.514L103.913 162.199Z" fill="white"/>
<defs>
<filter id="filter0_b_2801_3424" x="-15" y="-15" width="218" height="218" filterUnits="userSpaceOnUse" color-interpolation-filters="sRGB">
<feFlood flood-opacity="0" result="BackgroundImageFix"/>
<feGaussianBlur in="BackgroundImageFix" stdDeviation="7.5"/>
<feComposite in2="SourceAlpha" operator="in" result="effect1_backgroundBlur_2801_3424"/>
<feBlend mode="normal" in="SourceGraphic" in2="effect1_backgroundBlur_2801_3424" result="shape"/>
</filter>
<linearGradient id="paint0_linear_2801_3424" x1="0" y1="0" x2="188" y2="188" gradientUnits="userSpaceOnUse">
<stop stop-color="#E8112B" stop-opacity="0.3"/>
<stop offset="1" stop-color="#E8112B" stop-opacity="0.1"/>
</linearGradient>
</defs>
</svg>
