<svg width="100" height="100" viewBox="0 0 100 100" fill="none" xmlns="http://www.w3.org/2000/svg">
<g opacity="0.15">
<path d="M40.1225 33.4198C36.368 33.9516 33.6801 38.591 34.6755 42.2198C36.4528 48.6879 45.9528 48.8804 47.7331 41.9364C48.2634 39.8713 47.818 37.7152 46.5104 36.0319C44.9922 34.0743 42.6316 33.0682 40.1225 33.4198ZM41.3937 36.0228L40.6271 35.2561L41.0119 34.8713C41.0392 34.8713 41.068 34.8652 41.0968 34.8652C41.2604 34.8652 41.4165 34.9061 41.5786 34.9213L42.0377 35.3804L41.3937 36.0228ZM37.3558 36.841L39.1831 38.6682L38.0134 39.8395C37.8619 39.6879 36.6483 38.4485 36.4649 38.3379C36.8119 37.497 37.0195 37.2758 37.3558 36.841ZM37.4165 43.9728C37.0013 43.5531 36.6589 43.0667 36.4119 42.5349L37.6331 43.7561L37.4165 43.9728ZM36.2331 41.2864C36.1846 41.2379 36.118 41.2304 36.0558 41.2137C35.971 40.547 36.0271 39.8379 36.2225 39.1213L37.4771 40.3758L36.3998 41.4546L36.2331 41.2864ZM41.2846 45.5743L41.1695 46.3334V45.5758C39.6543 45.5758 38.8998 45.1607 38.0013 44.4743L40.4574 42.0107C40.6058 41.8622 40.6013 41.6228 40.4528 41.4743C40.3043 41.3258 40.0634 41.3258 39.9149 41.4743L38.1695 43.2198L36.9361 41.9879L38.0134 40.9092L38.5225 41.4182C38.6695 41.5652 38.9089 41.5667 39.0574 41.4182C39.2058 41.2698 39.2058 41.0304 39.0574 40.8819L38.5483 40.3728L40.5483 38.3728C40.6968 38.2243 40.6968 37.9849 40.5483 37.8364C40.3998 37.6864 40.1604 37.6895 40.0119 37.8364L39.718 38.1304L37.8452 36.2576C38.3346 35.7667 38.8816 35.3895 39.4589 35.1576L39.5543 35.2531L38.5498 36.2576C38.4013 36.4061 38.4013 36.6455 38.5498 36.794C38.6968 36.941 38.9361 36.9425 39.0861 36.794L40.0907 35.7895L40.8649 36.5637C41.021 36.7198 41.1225 36.6758 41.2604 36.6213C41.424 36.8395 41.671 36.8137 41.8149 36.6682L42.571 35.9122L42.6665 36.0076C42.8134 36.1546 43.0528 36.1561 43.2028 36.0076C43.3513 35.8592 43.3513 35.6198 43.2028 35.4713L43.1074 35.3758L43.1195 35.3637C43.1361 35.347 43.1316 35.3213 43.1452 35.3016C43.9801 35.6546 44.7331 36.2001 45.3134 36.9485C48.068 40.5046 45.3968 45.4592 41.2846 45.5743Z" fill="white"/>
<path d="M97.9627 60.6865C44.193 44.6971 48.39 46.2516 48.39 46.2516C48.2036 46.385 48.0854 46.6244 48.0763 46.835C48.0763 46.838 48.0748 46.8395 48.0748 46.8426C47.8627 53.1183 61.0157 87.5607 65.4127 97.8335C65.6975 98.4986 66.6748 98.4183 66.8445 97.7153C68.899 89.3607 71.2081 81.2183 73.2854 72.8168C81.4733 69.3198 89.7278 65.6562 98.043 62.1092C98.6915 61.832 98.643 60.8895 97.9627 60.6865ZM57.5415 55.1001L58.3809 54.2607L60.5975 56.4774L59.699 57.3759C58.9824 56.6213 58.2627 55.8623 57.5415 55.1001ZM71.8066 72.482C71.5294 73.6047 71.24 74.7229 70.9536 75.8441C70.8294 75.8138 70.699 75.8229 70.6021 75.9198L69.6157 76.9062L69.1793 76.4698C69.0309 76.3214 68.7915 76.3214 68.643 76.4698C68.4945 76.6183 68.4945 76.8577 68.643 77.0062L69.0793 77.4426L68.5142 78.0077C68.3657 78.1562 68.3657 78.3956 68.5142 78.5441C68.6612 78.691 68.9006 78.6926 69.0506 78.5441L69.6157 77.9789L70.249 78.6123C70.2051 78.782 70.1612 78.9456 70.1172 79.1153C69.993 79.085 69.8627 79.0941 69.7642 79.191L68.4309 80.5244L67.8975 79.991C67.749 79.8426 67.5097 79.8426 67.3612 79.991C67.2127 80.1395 67.2127 80.3789 67.3612 80.5274L67.8945 81.0607L67.8097 81.1456C67.6612 81.2941 67.6612 81.5335 67.8097 81.682C67.8839 81.7562 67.9793 81.7926 68.0778 81.7926C68.1763 81.7926 68.2718 81.7562 68.346 81.682L68.4309 81.5971L68.9324 82.0986C69.0066 82.1729 69.1021 82.2092 69.2006 82.2092C69.243 82.2092 69.2763 82.1759 69.3157 82.1623C69.2778 82.3062 69.24 82.4517 69.2021 82.5971C69.0581 82.5168 68.8809 82.5123 68.7581 82.635L67.4733 83.9198L66.4278 82.8744C66.2793 82.7259 66.04 82.7259 65.8915 82.8744C65.743 83.0229 65.743 83.2623 65.8915 83.4107L66.9369 84.4562L65.2703 86.1229C65.149 86.0986 65.0248 86.1107 64.9309 86.2047C64.7824 86.3532 64.7824 86.5926 64.9309 86.741L66.7763 88.5865L65.1354 90.2274L64.3157 89.4062C64.1687 89.2592 63.9294 89.2562 63.7794 89.4062C63.7203 89.4653 63.7021 89.5426 63.6915 89.6198C58.54 76.6153 51.2536 56.5941 49.8384 49.0713C57.8506 57.7956 64.5566 64.5077 71.8066 72.482ZM62.1233 59.9289L62.4142 59.638L64.4581 61.682C64.4627 61.6865 64.4703 61.685 64.4763 61.6895L64.1263 62.0395C63.4581 61.3365 62.7869 60.6244 62.1233 59.9289ZM67.0475 65.1183L68.5278 63.638L70.04 65.1516L68.5051 66.6865C68.0172 66.1653 67.5369 65.6365 67.0475 65.1183ZM70.4672 77.7592L70.1506 77.4426L70.6824 76.9107C70.6097 77.1941 70.54 77.4774 70.4672 77.7592ZM69.4687 81.5607L68.9672 81.0592L69.8339 80.1926C69.7127 80.6532 69.593 81.1092 69.4718 81.5668C69.4687 81.5653 69.4703 81.5623 69.4687 81.5607ZM63.8445 90.0017L64.599 90.7577L64.2748 91.082C64.1324 90.7289 63.99 90.3683 63.8445 90.0017ZM65.9263 95.1426C65.5097 94.1365 65.0566 93.0259 64.5824 91.8471L65.1354 91.2941C65.5066 91.6653 66.2687 92.6395 66.6536 92.3183C66.4097 93.2592 66.1642 94.1986 65.9263 95.1426ZM66.7506 91.9365C66.7339 91.8789 66.7278 91.8168 66.6824 91.7698L65.6703 90.7577L67.543 88.885C67.2763 89.8986 67.0157 90.9153 66.7506 91.9365ZM67.8324 87.7865C67.7112 87.7607 67.5839 87.7714 67.49 87.8668L67.3112 88.0456L65.8627 86.5971L67.4718 84.988L67.7187 85.235C67.8657 85.382 68.1051 85.3835 68.2551 85.235C68.4036 85.0865 68.4036 84.8471 68.2551 84.6986L68.0081 84.4516L68.9642 83.4956C68.9627 83.4971 67.8324 87.7865 67.8324 87.7865ZM73.9733 70.8668L76.4324 68.4077L76.7233 68.6986C76.8733 68.8486 77.1127 68.8441 77.2597 68.6986C77.4081 68.5501 77.4081 68.3107 77.2597 68.1623L76.9687 67.8729L79.2884 65.5532C79.4369 65.4047 79.4369 65.1653 79.2884 65.0168C79.14 64.8683 78.9006 64.8683 78.7521 65.0168L76.4324 67.3365L75.0672 65.9713C74.9187 65.8244 74.6794 65.8213 74.5309 65.9713C74.3824 66.1198 74.3824 66.3592 74.5309 66.5077L75.896 67.8729L72.6278 71.141C72.0869 70.5471 71.5339 69.9623 70.9884 69.3713L71.6945 68.6653L72.9339 69.9047C73.0809 70.0517 73.3203 70.0532 73.4703 69.9047C73.6187 69.7562 73.6187 69.5168 73.4703 69.3683L72.2309 68.1289L73.5794 66.7804C73.7278 66.632 73.7278 66.3926 73.5794 66.2441C73.4309 66.0956 73.1915 66.0956 73.043 66.2441L71.6945 67.5926L70.9687 66.8668C70.8203 66.7183 70.5809 66.7183 70.4324 66.8668C70.2839 67.0153 70.2839 67.2547 70.4324 67.4032L71.1581 68.1289L70.4733 68.8138C69.9884 68.2895 69.5051 67.7638 69.0172 67.2426L70.8097 65.4501C70.9581 65.3016 70.9581 65.0623 70.8097 64.9138C70.7824 64.8865 70.743 64.8895 70.7112 64.8729C70.6975 64.7986 70.6824 64.7229 70.6248 64.6653L69.0612 63.1016L69.0869 63.0759C69.2354 62.9274 69.2354 62.688 69.0869 62.5395C68.9384 62.391 68.699 62.391 68.5506 62.5395L68.5248 62.5653L67.193 61.2335C67.0445 61.085 66.8051 61.085 66.6566 61.2335C66.5081 61.382 66.5081 61.6213 66.6566 61.7698L67.9884 63.1016L66.5233 64.5668C65.8945 63.9001 65.2718 63.2486 64.6445 62.5865L66.5854 60.6456C66.7339 60.4971 66.7339 60.2577 66.5854 60.1092C66.4369 59.9607 66.1975 59.9607 66.049 60.1092L64.9975 61.1607C64.993 61.1562 64.9945 61.1486 64.99 61.1426L62.946 59.0986L63.5142 58.5304C63.6627 58.382 63.6627 58.1426 63.5142 57.9941C63.3657 57.8456 63.1263 57.8456 62.9778 57.9941L62.4097 58.5623L61.749 57.9016C61.3975 57.5501 60.8581 58.082 61.2127 58.438L61.8733 59.0986L61.596 59.3759C61.4354 59.2077 60.3869 58.1001 60.2157 57.9213L61.1839 56.9532C61.2097 56.9592 61.2309 56.9835 61.2581 56.9835C61.3551 56.9835 61.4521 56.9471 61.5263 56.8729C61.6203 56.7789 61.6324 56.6517 61.6066 56.5304L61.7157 56.4213C61.8642 56.2729 61.8642 56.0335 61.7157 55.885C61.5672 55.7365 61.3278 55.7365 61.1794 55.885L61.1263 55.938L58.9097 53.7213L60.0778 52.5532C60.2263 52.4047 60.2263 52.1653 60.0778 52.0168C59.9293 51.8683 59.69 51.8683 59.5415 52.0168L58.3733 53.185L57.84 52.6516C57.6915 52.5032 57.4521 52.5032 57.3036 52.6516C57.1551 52.8001 57.1551 53.0395 57.3036 53.188L57.8369 53.7213L57.0112 54.5471C55.0839 52.5107 53.1703 50.4562 51.2581 48.3789L95.5127 61.538C88.3657 64.6107 82.7491 67.1047 73.9733 70.8668Z" fill="white"/>
<path d="M57.7591 41.8033C58.1561 41.9412 58.5864 41.7291 58.7227 41.3336C61.2515 33.9927 55.5879 24.17 42.8697 23.4261C24.2848 22.32 21.65 42.0155 28.5833 51.3609C31.9621 55.9094 37.6591 58.2261 42.65 57.3518C43.0621 57.2806 43.3394 56.8882 43.2667 56.4776C43.1955 56.0655 42.797 55.773 42.3924 55.8609C37.8379 56.6352 32.7818 54.4776 29.7985 50.4594C23.6864 42.2245 25.4636 23.8958 42.7788 24.9397C54.4409 25.62 59.503 34.4155 57.2879 40.8412C57.1545 41.2367 57.3636 41.667 57.7591 41.8033Z" fill="white"/>
<path d="M43.1689 66.2549C33.6128 68.114 23.1462 63.6579 17.7037 55.4261C5.98707 37.7003 19.7598 13.4988 41.9234 14.2927C58.9371 14.9064 71.1037 31.1943 68.1992 40.6594C68.0765 41.0594 68.2992 41.4821 68.7007 41.6049C69.0946 41.7306 69.5249 41.5049 69.6462 41.1033C72.8507 30.6746 59.9962 13.4291 41.9765 12.7776C18.4537 11.9761 4.14465 37.6655 16.4416 56.2594C22.2007 64.9715 33.2916 69.7155 43.4598 67.7427C43.8704 67.6624 44.1386 67.2655 44.0598 66.8533C43.981 66.4412 43.5734 66.1821 43.1689 66.2549Z" fill="white"/>
<path d="M42.7287 78.7608C28.7272 79.3456 14.7075 71.4714 7.86358 59.235C-5.65915 35.0472 10.6848 5.37443 37.7772 3.33352C61.3787 1.51988 84.6151 22.0305 78.256 43.1578C78.1348 43.5593 78.3621 43.982 78.7621 44.1017C79.1696 44.2259 79.5878 43.9956 79.706 43.5956C86.3908 21.3926 62.3454 -0.0301156 37.6621 1.8214C9.62266 3.93958 -7.59249 34.6911 6.54085 59.9744C13.6515 72.6881 28.2105 80.8532 42.7878 80.2744C43.206 80.2562 43.5318 79.9047 43.5151 79.4866C43.4999 79.0699 43.1469 78.7881 42.7287 78.7608Z" fill="white"/>
<path d="M56.9936 63.3064L59.2542 65.567L58.8497 65.9715C58.7012 66.12 58.7012 66.3594 58.8497 66.5079C58.9997 66.6579 59.2391 66.6533 59.386 66.5079L59.7906 66.1033L61.0148 67.3291C60.6527 67.6912 60.0997 68.0776 60.4512 68.4291C60.5982 68.5761 60.8375 68.5776 60.9875 68.4291L61.5512 67.8655L62.3921 68.7064L61.4754 69.623C61.3269 69.7715 61.3269 70.0109 61.4754 70.1594C61.6224 70.3064 61.8618 70.3079 62.0118 70.1594L62.9285 69.2427L65.0497 71.3639L64.3572 72.0564C64.2088 72.2049 64.2088 72.4442 64.3572 72.5927C64.5042 72.7397 64.7436 72.7412 64.8936 72.5927L65.586 71.9003L67.4315 73.7458C67.5785 73.8927 67.8179 73.8942 67.9678 73.7458C68.1163 73.5973 68.1163 73.3579 67.9678 73.2094L66.1224 71.3639L67.0678 70.4185C67.2163 70.27 67.2163 70.0306 67.0678 69.8821C66.9194 69.7336 66.68 69.7336 66.5315 69.8821L65.586 70.8276L63.4648 68.7064L63.7603 68.4109C63.9088 68.2624 63.9088 68.023 63.7603 67.8745C63.6118 67.7261 63.3724 67.7261 63.2239 67.8745L62.9285 68.17L62.0875 67.3291L62.733 66.6836C62.8815 66.5352 62.8815 66.2958 62.733 66.1473C62.5845 65.9988 62.3451 65.9988 62.1966 66.1473L61.5512 66.7927L60.3269 65.5685L60.8936 65.0018C61.0421 64.8533 61.0421 64.6139 60.8936 64.4655C60.7451 64.3185 60.5057 64.3155 60.3572 64.4655L59.7906 65.0321L57.53 62.7715C57.3815 62.623 57.1421 62.623 56.9936 62.7715C56.8451 62.92 56.8466 63.1594 56.9936 63.3064Z" fill="white"/>
</g>
</svg>
