<svg width="401" height="321" viewBox="0 0 401 321" fill="none" xmlns="http://www.w3.org/2000/svg">
<path opacity="0.1" d="M139.744 127.439C141.336 119.691 142.45 113.197 144.002 106.804C151.324 76.6075 163.262 48.6622 184.511 25.4375C195.037 13.9447 207.293 5.04118 222.832 1.53557C242.032 -2.90621 259.541 4.84201 266.764 23.2067C271.153 34.4297 273.757 46.2721 274.483 58.3027C275.538 76.3486 274.264 94.5139 273.946 112.64C273.946 116.285 273.568 119.91 273.389 123.555L275.518 125.347C275.955 123.732 276.625 122.189 277.507 120.766C298.558 97.0437 321.28 75.2531 351.124 63.0033C359.279 59.6516 367.801 57.278 376.512 55.9323C389.704 53.9404 399.254 60.9915 400.388 74.3367C401.045 82.9069 400.141 91.5253 397.722 99.7724C387.037 136.8 368.434 170.124 347.981 202.431C326.094 236.87 298.24 265.871 266.584 291.267C216.624 331.502 158.208 330.187 109.084 285.749C61.9245 243.439 26.8958 189.298 7.61181 128.913C1.65858 110.352 -0.539691 90.7898 1.14545 71.3689C3.53303 42.0293 21.8776 27.7678 50.8867 32.4884C76.3343 36.6314 94.6588 51.5104 108.467 71.8868C118.933 87.3434 127.17 104.294 136.322 120.607C137.396 122.34 138.172 124.312 139.744 127.439ZM203.155 206.873C188.809 207.949 176.453 211.972 168.734 224.799C162.406 235.257 165.152 242.407 176.692 246.112C191.973 251.012 218.116 243.224 228.144 230.775C233.238 224.481 232.541 219.74 226.871 213.844C219.907 206.574 210.834 208.626 203.055 206.873H203.155Z" fill="#E8112B"/>
</svg>
