<svg width="121" height="120" viewBox="0 0 121 120" fill="none" xmlns="http://www.w3.org/2000/svg">
<g opacity="0.15">
<path d="M82.1314 76.655C81.8769 73.5095 81.5678 70.5822 81.0769 67.8731C80.186 62.455 78.986 57.8731 77.786 54.0004C75.3496 46.255 72.9314 41.2913 71.1678 38.0368C69.386 34.7822 68.2405 33.2186 67.5496 32.4731C66.8769 31.7277 66.6224 31.7822 66.4224 31.9095C66.2042 32.0368 66.0405 32.2186 66.3496 33.1822C66.6587 34.1277 67.4587 35.855 68.8951 39.1459C70.3133 42.455 72.4223 47.3822 74.6224 54.9459C75.7133 58.7277 76.786 63.1822 77.6042 68.4368C78.0405 71.055 78.3314 73.8731 78.5678 76.8913C78.6224 78.4004 78.7496 79.9641 78.7314 81.5822C78.7496 83.2186 78.7678 84.8186 78.4769 86.2731C78.2769 87.0186 78.0587 87.855 77.6769 88.2913C77.2951 88.7459 77.0042 88.9277 76.4042 88.9459C75.1133 88.9459 73.186 87.8004 71.6224 86.3641C68.3314 83.4913 65.9133 79.1459 63.6951 74.455C63.1314 73.2731 62.5678 72.0731 62.0042 70.8731C61.6587 70.1095 61.3314 69.3277 60.986 68.5641C61.0587 68.5641 61.1314 68.5641 61.2224 68.5459C61.986 68.4186 63.1678 68.0368 64.4587 66.8913C65.7133 65.7641 67.186 63.9095 67.7496 60.9277C68.0405 59.3277 67.9496 57.0186 66.8224 55.0004C65.7678 52.9459 63.8042 51.4186 61.8405 50.6913C59.8587 49.9641 57.8769 50.0913 56.6405 50.5459C56.186 50.7095 55.8405 50.9095 55.5678 51.0913C55.0769 48.9095 54.6405 46.7459 54.2405 44.6004C53.2769 39.6913 52.8224 34.8913 53.1314 30.655C53.2769 28.5822 53.7314 26.5095 54.7496 25.3641L55.1496 25.0004L55.6769 24.7095C56.0405 24.5641 56.4042 24.4186 56.7678 24.3822C57.5133 24.2731 58.2587 24.4186 58.9496 24.6913C60.3314 25.2913 61.4587 26.255 62.3678 27.1641C63.2769 28.0913 64.0042 28.9459 64.5678 29.6731C65.7133 31.1277 66.3314 31.9641 66.4405 31.8913C66.5314 31.8368 66.1314 30.8731 65.1678 29.255C64.6769 28.455 64.0224 27.4913 63.1678 26.4368C62.2951 25.4004 61.186 24.255 59.5314 23.4004C57.8951 22.5641 55.386 22.4731 53.5678 24.1277C52.7133 24.9822 52.1678 26.0368 51.8405 27.1095C51.6587 27.6368 51.5314 28.1822 51.4224 28.7277C50.2951 30.1822 48.5133 32.6186 46.2587 35.8186C44.3133 38.5095 42.0042 41.7459 39.1133 44.9459C36.2224 48.1277 32.6042 51.3459 28.0951 53.0368C23.6587 54.855 18.2224 54.3277 12.6587 56.1459C9.94963 57.0731 7.20418 58.655 5.386 61.2186C3.53145 63.8004 2.986 66.8731 2.84054 69.6004C2.54963 75.1277 3.64054 80.6731 6.386 85.1095C9.0769 89.6004 13.4951 92.5277 17.8224 93.3095C19.786 93.655 21.8405 93.5822 23.6405 93.0913C24.7133 92.8186 25.6951 92.4368 26.6224 92.0186C26.6587 94.7641 27.2587 100.455 29.0769 106.873C29.7133 109.128 30.4587 111.419 31.3678 113.764C31.6224 114.364 31.9133 115.055 32.4224 115.728C32.9496 116.419 33.6587 116.946 34.3678 117.291C35.786 117.982 37.1496 118.182 38.586 118.182C41.4042 118.182 44.4042 116.673 45.6951 114.073C46.986 111.673 46.9314 108.71 45.4587 106.655C44.8224 105.764 44.1314 105.2 43.6224 104.728C43.0951 104.237 42.7678 103.891 42.5314 103.51C42.0405 102.71 41.8769 101.71 41.986 100.891C42.0769 100.11 42.5678 99.055 42.8769 97.8186C43.0405 97.2004 43.1496 96.4731 43.0405 95.6913C42.9496 94.9277 42.6224 94.1459 42.186 93.6004C41.2951 92.5095 40.4405 92.1277 39.9496 91.7277C39.4769 91.3822 39.1678 91.055 38.8951 90.655C38.3496 89.855 38.1133 89.0368 38.0042 88.3822C37.8042 87.1459 37.8951 86.4368 37.8769 85.9822C41.7133 84.6004 45.4405 84.4368 48.6769 84.6731C52.4769 85.0004 55.6587 85.8186 58.2951 86.5822C60.9314 87.3459 63.0405 88.1277 64.7496 88.7277C69.5678 90.5459 71.186 90.9822 71.786 90.9095C71.986 91.0368 72.1678 91.1822 72.386 91.2913C73.5314 91.9277 74.8223 92.4913 76.386 92.5277C77.1678 92.5459 78.0224 92.3822 78.7678 91.9822C79.5314 91.6004 80.1133 91.0368 80.5496 90.455C81.4587 89.2731 81.7133 88.0913 82.0042 87.0004C82.386 85.0186 82.3496 83.1822 82.3314 81.5277C82.3314 79.855 82.2042 78.2368 82.1314 76.655ZM56.8951 51.9277C57.986 51.9277 59.4405 52.2004 60.786 53.0004C62.1314 53.8004 63.3133 55.055 63.8405 56.4368C64.4224 57.8004 64.386 59.2186 64.2042 60.3095C63.8405 62.3095 62.8951 63.655 62.1496 64.5277C61.386 65.4004 60.7314 65.8368 60.3133 66.1822C60.2224 66.255 60.1678 66.3095 60.0769 66.3822C59.2405 64.2368 58.4769 62.055 57.8042 59.8368C57.0224 57.2368 56.3496 54.6004 55.7496 51.9822C56.0769 51.9459 56.4405 51.9095 56.8951 51.9277ZM38.0042 94.2004C38.6951 94.7641 39.3314 95.2186 39.5496 95.5641C39.7314 95.8731 39.786 96.1277 39.5678 96.9459C39.3678 97.7459 38.786 98.7641 38.5133 100.4C38.2951 101.982 38.5314 103.71 39.4769 105.328C40.4951 107.019 42.0224 107.91 42.5496 108.728C43.1314 109.491 43.2951 111.055 42.586 112.455C41.9678 113.782 40.386 114.782 38.4769 114.873C37.5496 114.928 36.4769 114.782 35.6951 114.455C35.3133 114.291 35.0224 114.091 34.786 113.819C34.5314 113.546 34.2951 113.11 34.0769 112.619C33.1133 110.473 32.2224 108.255 31.4587 106.146C29.186 99.8731 28.0042 94.2368 27.3496 91.7095C27.7314 91.5277 28.0951 91.3277 28.4405 91.1277C31.2405 89.564 33.5133 87.9459 35.7314 86.855C35.6042 87.2913 35.4951 87.8368 35.4769 88.5095C35.4587 89.4913 35.6042 90.7459 36.3314 92.1459C36.6951 92.8368 37.2769 93.6004 38.0042 94.2004ZM59.2042 83.7277C56.4769 82.8186 53.1496 81.8186 48.986 81.3641C46.8951 81.2004 44.6042 81.0913 42.1133 81.4186C39.6405 81.7459 37.0042 82.4186 34.3496 83.6186C31.7133 84.855 29.2951 86.5822 26.7314 88.0004C24.1496 89.4368 21.4042 90.4004 18.4405 89.8186C15.2042 89.2368 11.6042 86.9822 9.36781 83.3095C7.05872 79.655 5.96781 74.7641 6.14963 69.8004C6.24054 67.3459 6.69509 64.9095 7.986 63.0731C8.89509 61.7095 10.2587 60.655 11.8042 59.8368C11.3678 61.3459 10.9678 63.855 11.186 66.7641C11.4224 71.5822 13.2042 77.0186 14.6587 80.255C15.9133 83.2186 17.3133 85.5459 18.786 86.9822C20.2405 88.4731 21.7678 89.1095 22.8042 89.2186C23.8587 89.3459 24.386 89.1095 24.6405 88.8913C24.8951 88.6731 24.8769 88.4368 24.8587 88.2004C24.8405 87.9459 24.8042 87.7095 24.6042 87.5095C24.4042 87.2913 24.0587 87.1277 23.5133 86.8004C22.4587 86.2368 20.3133 84.6004 17.9496 78.8368C16.5678 75.7277 14.5496 70.8186 13.7133 66.455C13.0587 63.4368 13.0224 60.7641 12.8951 59.3459C13.1678 59.2368 13.4224 59.0913 13.6951 59.0004C18.3314 57.2731 24.0042 57.6186 29.0587 55.4368C34.0769 53.3459 37.786 49.7095 40.6587 46.3095C43.5314 42.8368 45.6769 39.4731 47.4587 36.6368C49.0224 34.1095 50.2769 32.0368 51.186 30.455V30.4731C50.6769 35.0186 50.986 39.9641 51.8042 45.055C52.586 50.1095 53.5678 55.4004 55.0224 60.655C55.7496 63.2731 56.586 65.8913 57.5678 68.455C58.0587 69.7277 58.586 71.0004 59.1314 72.2368C59.6769 73.455 60.2224 74.655 60.7678 75.855C62.6042 79.9277 64.7133 84.0186 67.6587 87.2913C67.0951 87.0004 66.4769 86.7095 65.7678 86.3641C64.0224 85.6004 61.9133 84.655 59.2042 83.7277Z" fill="white"/>
<path d="M76.2036 31.2182C77.8036 29.6 79.6582 27.6727 80.7855 26.4182C84.9855 21.9091 84.6946 21.3636 83.9673 20.6C83.3309 19.9091 82.5309 19.2546 78.1127 24.0182C76.9127 25.3455 75.2764 27.6182 74.1673 29.7091C73.04 31.7818 72.4036 33.6 72.8036 33.8727C73.2218 34.1455 74.6036 32.8364 76.2036 31.2182Z" fill="white"/>
<path d="M80.3669 52.9819C80.8578 53.8364 87.5488 50.9091 90.4578 49.2182C95.8033 46.1273 95.5124 45.3637 95.0033 44.5091C94.5124 43.6546 93.9851 43.0182 88.6578 46.1091C85.7487 47.8 79.8578 52.1273 80.3669 52.9819Z" fill="white"/>
<path d="M90.9683 80.7457C85.6046 79.9094 85.3683 80.673 85.2228 81.6548C85.0774 82.6366 85.0592 83.4366 90.4228 84.2912C93.3683 84.7457 99.7865 84.9457 99.9501 83.9639C100.096 83.0003 93.9137 81.2185 90.9683 80.7457Z" fill="white"/>
<path d="M109.423 42.964C109.368 42.7458 109.314 42.4913 109.205 42.1822C109.041 41.9094 108.859 41.6004 108.623 41.2549C107.695 39.8185 104.714 39.0004 102.368 40.2913C101.186 40.8549 100.077 41.764 99.3318 43.0185C98.5864 44.2367 98.1682 45.7822 98.3682 47.2731C98.5864 48.7458 99.1864 50.0004 99.9682 51.0549C100.805 52.0913 101.877 52.8185 102.932 53.2185C104.877 53.9458 106.986 53.564 108.314 52.6004C109.677 51.6185 110.295 50.4549 110.695 49.4913C111.423 47.4913 111.241 46.0549 111.023 45.1458C110.423 43.3276 109.805 43.5458 109.386 43.6913C108.895 43.8731 108.623 44.1276 108.495 45.3822C108.386 46.0004 108.259 46.9822 107.677 48.1458C107.059 49.3094 106.005 50.4549 104.186 49.8367C103.714 49.6549 103.168 49.3276 102.695 48.8004C102.259 48.2549 101.841 47.5094 101.659 46.7822C101.314 45.3276 102.15 43.4549 103.623 42.5094C105.041 41.4731 106.714 41.564 107.677 42.2731C107.914 42.4731 108.132 42.6367 108.332 42.8004C108.514 42.9822 108.659 43.164 108.786 43.3094C109.059 43.5822 109.277 43.7458 109.386 43.6913C109.495 43.6367 109.514 43.4004 109.423 42.964Z" fill="white"/>
<path d="M117.823 60.1094C117.205 59.0731 116.405 58.2004 115.55 57.4549C111.987 54.5458 107.86 54.0913 105.15 54.2367C102.369 54.3822 100.805 55.2004 100.878 55.4004C100.95 55.6913 102.569 55.364 105.132 55.6367C107.623 55.8731 111.241 56.7822 113.841 59.3276C114.46 59.9822 115.023 60.6731 115.423 61.4913C115.878 62.2731 116.132 63.2367 116.205 63.8731C116.187 64.5276 116.005 64.7822 115.423 65.164C114.823 65.5094 113.969 65.7822 113.041 65.9094C109.314 66.4549 105.26 65.8731 102.169 66.0185C99.4959 66.0549 97.1868 65.7458 96.1504 64.9094C95.6777 64.5822 95.2413 63.8549 95.0777 63.364C94.9141 62.8367 94.9141 62.3276 95.0595 61.8004C95.3868 60.7458 96.1141 59.8185 96.7868 59.1458C97.4777 58.4549 98.1141 57.964 98.6595 57.5822C99.1868 57.2004 99.6232 56.9458 99.9686 56.7458C100.314 56.5276 100.532 56.3458 100.678 56.1822C100.969 55.8549 100.95 55.6185 100.896 55.3822C100.841 55.1458 100.75 54.9276 100.296 54.8367C100.078 54.8004 99.7504 54.8004 99.2959 54.8549C98.8413 54.8913 98.2232 55.0004 97.4777 55.3276C96.7323 55.6367 95.8413 56.1094 94.8413 56.8913C93.8595 57.6913 92.6959 58.8004 91.9323 60.764C91.5686 61.7458 91.4413 63.0367 91.7868 64.2913C92.1686 65.5458 92.7686 66.6731 93.9868 67.6731C96.4413 69.5094 99.3323 69.564 102.187 69.6004C103.787 69.564 105.35 69.5822 107.314 69.6185C109.26 69.6185 111.369 69.6004 113.641 69.1458C114.769 68.9094 115.987 68.564 117.187 67.764C117.787 67.364 118.369 66.7458 118.75 66.0185C118.896 65.6367 119.078 65.2185 119.132 64.8185C119.169 64.4185 119.169 64.0367 119.169 63.6367C118.932 62.2185 118.46 61.1276 117.823 60.1094Z" fill="white"/>
<path d="M97.3315 13.2184C98.1678 14.2547 99.2406 14.982 100.295 15.382C102.241 16.1093 104.35 15.7274 105.677 14.7638C107.041 13.782 107.659 12.6184 108.059 11.6547C108.786 9.65472 108.604 8.21836 108.386 7.30927C107.786 5.49109 107.168 5.70927 106.75 5.85472C106.259 6.03654 105.986 6.29109 105.859 7.54563C105.75 8.16381 105.622 9.14563 105.041 10.3093C104.422 11.4729 103.368 12.6184 101.55 12.0002C101.077 11.8184 100.531 11.4911 100.059 10.9638C99.6224 10.4184 99.2042 9.6729 99.0224 8.94563C98.6769 7.49109 99.5133 5.61836 100.986 4.6729C102.404 3.63654 104.077 3.72745 105.041 4.43654C105.277 4.63654 105.495 4.80018 105.695 4.96381C105.877 5.14563 106.022 5.32745 106.15 5.4729C106.422 5.74563 106.641 5.90927 106.75 5.85472C106.859 5.81836 106.877 5.56381 106.786 5.14563C106.731 4.92745 106.677 4.6729 106.568 4.36381C106.404 4.09109 106.222 3.78199 105.986 3.43654C105.059 2.00018 102.077 1.18199 99.7315 2.4729C98.5497 3.03654 97.4406 3.94563 96.6951 5.20018C95.9497 6.41836 95.5315 7.96381 95.7315 9.45472C95.9497 10.9274 96.5497 12.1638 97.3315 13.2184Z" fill="white"/>
<path d="M91.3305 29.855C93.7851 31.6913 96.676 31.7459 99.5305 31.7822C101.131 31.7459 102.694 31.764 104.658 31.8004C106.603 31.8004 108.712 31.7822 110.985 31.3277C112.112 31.0913 113.331 30.7459 114.531 29.9459C115.131 29.5459 115.712 28.9277 116.094 28.2004C116.24 27.8186 116.421 27.4004 116.476 27.0004C116.512 26.6004 116.512 26.2186 116.512 25.8186C116.276 24.364 115.803 23.2731 115.167 22.255C114.549 21.2186 113.749 20.3459 112.894 19.6004C109.331 16.6913 105.203 16.2368 102.494 16.3822C99.7124 16.5277 98.1487 17.3459 98.2215 17.5459C98.2942 17.8368 99.9124 17.5095 102.476 17.7822C104.967 18.0186 108.585 18.9277 111.185 21.4731C111.803 22.1277 112.367 22.8186 112.767 23.6368C113.221 24.4186 113.476 25.3822 113.549 26.0186C113.531 26.6731 113.349 26.9277 112.767 27.3095C112.167 27.655 111.312 27.9277 110.385 28.055C106.658 28.6004 102.603 28.0186 99.5124 28.164C96.8396 28.2004 94.5305 27.8913 93.4942 27.055C93.0215 26.7277 92.5851 26.0004 92.4215 25.5095C92.2578 24.9822 92.2578 24.4731 92.4033 23.9459C92.7305 22.8913 93.4578 21.964 94.1306 21.2913C94.8215 20.6004 95.4578 20.1095 96.0033 19.7277C96.5305 19.3459 96.9669 19.0913 97.3124 18.8913C97.6578 18.6731 97.876 18.4913 98.0215 18.3277C98.3124 18.0004 98.2942 17.764 98.2396 17.5277C98.1851 17.2913 98.0942 17.0731 97.6396 16.9822C97.4215 16.9459 97.0942 16.9459 96.6396 17.0004C96.1851 17.0368 95.5669 17.1459 94.8215 17.4731C94.076 17.7822 93.1669 18.255 92.1851 19.0368C91.2033 19.8368 90.0396 20.9459 89.276 22.9095C88.9124 23.8913 88.7851 25.1822 89.1306 26.4368C89.5124 27.7277 90.0942 28.855 91.3305 29.855Z" fill="white"/>
<path d="M6.44108 92.4364C6.15017 92.5819 7.58653 95.0546 10.6956 96.3819C13.8047 97.7455 16.5865 97 16.4956 96.691C16.4593 96.3273 13.932 96.4364 11.2047 95.2182C8.44108 94.0728 6.73199 92.2 6.44108 92.4364Z" fill="white"/>
<path d="M5.63976 96.0004C5.34886 96.164 6.56704 98.2186 9.23976 99.0549C10.5307 99.4549 11.8034 99.4368 12.6579 99.2368C13.5125 99.0368 13.967 98.7095 13.9307 98.5459C13.8216 98.2004 11.8579 98.5822 9.62158 97.8549C7.36704 97.1822 5.91249 95.764 5.63976 96.0004Z" fill="white"/>
</g>
</svg>
