<svg width="187" height="121" viewBox="0 0 187 121" fill="none" xmlns="http://www.w3.org/2000/svg">
<g opacity="0.2">
<path fill-rule="evenodd" clip-rule="evenodd" d="M153.305 0.746833C149.328 2.13004 152.094 3.68615 143.363 2.47584C79.8216 -6.16921 6.85751 33.771 0.54662 81.2323C-0.404336 88.2348 10.9205 90.9148 15.8482 84.8633L18.2688 81.9239C15.416 95.2373 13.6878 100.079 24.5806 100.684C27.5199 100.857 29.3345 101.462 30.4584 102.672C35.1267 107.686 41.524 105.957 48.1807 97.8308C54.0594 90.6554 54.3187 90.4825 52.1574 95.4102C47.2298 106.562 46.4517 116.85 50.4284 118.925C55.0968 121.345 61.4941 120.654 63.2231 117.542C84.6629 78.9846 109.821 62.9048 118.466 56.7668C124.517 52.5307 136.88 40.8599 175.437 45.9605C185.206 47.2573 189.268 45.4418 185.551 41.3786C184.773 40.5141 183.649 38.958 183.13 37.9206C181.833 35.2406 173.275 32.4742 162.382 31.1774C130.309 27.3736 97.0262 41.2057 65.2988 68.3512C51.3803 80.3678 49.5639 85.2955 48.1807 84.0852C46.3653 82.4426 51.2065 75.5266 52.5897 73.4518C72.3004 43.9721 109.82 25.8175 153.218 25.5582C161.95 25.4717 167.223 25.2988 170.163 24.7801C177.424 23.3969 170.077 18.5557 163.334 18.5557C162.383 18.5557 160.567 17.7776 159.53 16.8266C150.712 9.219 108.523 16.6537 107.832 16.7402C83.7984 20.3711 65.3853 29.362 46.7119 45.1824C23.889 64.4609 21.0361 62.9048 28.9031 52.4443C54.4925 18.3828 95.7286 3.51325 144.227 9.13254C163.592 11.3803 167.311 10.8616 166.014 5.93387C165.149 2.47584 157.368 -0.722827 153.305 0.746833ZM94.4318 32.3013C71.8682 43.367 56.5664 52.8765 44.8091 67.9189C36.1641 78.9846 32.9654 77.4285 39.9679 66.8815C51.8981 49.0727 68.5831 35.4135 93.135 26.3362C103.855 22.3595 108.783 25.2988 94.4318 32.3013Z" fill="white"/>
</g>
</svg>
