<svg width="96" height="96" viewBox="0 0 96 96" fill="none" xmlns="http://www.w3.org/2000/svg">
<g opacity="0.15" clip-path="url(#clip0_2801_3549)">
<path d="M93.1875 68.0387H90.3789V2.8125C90.3789 1.25925 89.1197 0 87.5664 0H8.43356C6.88031 0 5.62106 1.25925 5.62106 2.8125V68.0387H2.8125C1.25925 68.0387 0 69.2979 0 70.8512V82.0832C0 83.6364 1.25925 84.8957 2.8125 84.8957H20.2916C19.6266 86.2397 19.251 87.7513 19.251 89.3498V93.1875C19.251 94.7408 20.5103 96 22.0635 96C23.6167 96 24.876 94.7408 24.876 93.1875V89.3498C24.876 86.8937 26.874 84.8957 29.3301 84.8957H66.6229C69.0789 84.8957 71.0769 86.8937 71.0769 89.3498V93.1875C71.0769 94.7408 72.3362 96 73.8894 96C75.4427 96 76.7019 94.7408 76.7019 93.1875V89.3498C76.7019 87.7515 76.3264 86.2397 75.6613 84.8957H93.1875C94.7408 84.8957 96 83.6364 96 82.0832V70.8512C96 69.2979 94.7409 68.0387 93.1875 68.0387ZM11.2461 5.625H84.7539V68.0387H11.2461V5.625ZM90.375 79.2709H5.625V73.6639H90.375V79.2709Z" fill="white"/>
<path d="M77.8257 54.2858C78.6275 53.3234 78.7677 51.6336 77.6388 50.5143L70.2624 43.1378C69.1642 42.0396 67.3833 42.0396 66.2849 43.1378C65.1866 44.236 65.1866 46.0169 66.2849 47.1153L68.8606 49.691H57.5941C53.855 49.691 50.813 46.649 50.813 42.9098V30.4836C50.813 23.6429 45.2476 18.0775 38.4067 18.0775H27.5262L30.0134 15.5901C31.1118 14.492 31.1118 12.7111 30.0134 11.6127C28.9152 10.5145 27.1344 10.5145 26.036 11.6127L18.7479 18.9008C17.81 19.8258 17.5139 21.6923 18.7479 22.8792L26.1245 30.2556C26.6737 30.8048 27.3935 31.0795 28.1131 31.0795C28.8327 31.0795 29.5527 30.8048 30.1017 30.2556C31.2001 29.1575 31.2001 27.3766 30.1017 26.2782L27.5261 23.7025H38.4065C42.1456 23.7025 45.1878 26.7445 45.1878 30.4836V42.9096C45.1878 49.7504 50.7532 55.3158 57.5939 55.3158H68.8604L66.3731 57.8031C65.2747 58.9013 65.2747 60.6822 66.3731 61.7806C66.9222 62.3298 67.6421 62.6045 68.3617 62.6045C69.0813 62.6045 69.8013 62.3298 70.3503 61.7806L77.6384 54.4925C77.7046 54.4268 77.7667 54.3578 77.8257 54.2858Z" fill="white"/>
<path d="M68.8898 29.9354C74.1683 29.9354 78.463 25.6409 78.463 20.3622C78.463 15.0836 74.1685 10.7891 68.8898 10.7891C63.6111 10.7891 59.3164 15.0836 59.3164 20.3622C59.3164 25.6409 63.6109 29.9354 68.8898 29.9354ZM68.8898 16.4141C71.0667 16.4141 72.838 18.1852 72.838 20.3622C72.838 22.5393 71.0668 24.3104 68.8898 24.3104C66.7127 24.3104 64.9414 22.5393 64.9414 20.3622C64.9414 18.1852 66.7125 16.4141 68.8898 16.4141Z" fill="white"/>
<path d="M32.2862 48.2422C31.1879 47.1439 29.4072 47.1439 28.3088 48.2422L25.5169 51.0341L22.725 48.2422C21.6269 47.1441 19.846 47.1441 18.7476 48.2422C17.6492 49.3404 17.6492 51.1213 18.7476 52.2197L21.5395 55.0116L18.7476 57.8034C17.6492 58.9016 17.6492 60.6825 18.7476 61.7809C19.2968 62.3302 20.0164 62.6047 20.7362 62.6047C21.4559 62.6047 22.1759 62.33 22.7249 61.7809L25.5167 58.989L28.3086 61.7809C28.8578 62.33 29.5776 62.6047 30.2972 62.6047C31.0169 62.6047 31.7369 62.33 32.2859 61.7809C33.3842 60.6827 33.3842 58.9018 32.2859 57.8034L29.494 55.0116L32.2859 52.2197C33.3846 51.1215 33.3846 49.3406 32.2862 48.2422Z" fill="white"/>
</g>
<defs>
<clipPath id="clip0_2801_3549">
<rect width="96" height="96" fill="white"/>
</clipPath>
</defs>
</svg>
