<svg width="487" height="450" viewBox="0 0 487 450" fill="none" xmlns="http://www.w3.org/2000/svg">
<path opacity="0.05" fill-rule="evenodd" clip-rule="evenodd" d="M266.256 393.766C209.85 399.5 163.792 463.179 109.302 447.534C53.8288 431.607 11.8748 374.415 1.40689 317.725C-8.74158 262.764 38.7249 216.699 56.9195 163.848C74.661 112.312 60.9109 42.1091 106.565 12.2627C152.414 -17.7107 212.742 15.2181 266.256 26.9954C307.766 36.1309 345.625 50.674 381.87 72.8514C421.373 97.0225 473.01 116.105 484.951 160.811C496.862 205.397 453.564 244.041 439.325 287.941C425.067 331.901 441.051 393.69 401.592 417.818C361.533 442.312 312.984 389.015 266.256 393.766Z" fill="#6152D9"/>
</svg>
