<svg width="100" height="100" viewBox="0 0 100 100" fill="none" xmlns="http://www.w3.org/2000/svg">
<g id="marketing" opacity="0.05">
<g id="Group">
<path id="Vector" d="M67.6372 63.8788C67.4251 61.2576 67.1675 58.8182 66.7584 56.5606C66.016 52.0455 65.016 48.2273 64.016 45C61.9857 38.5455 59.9705 34.4091 58.5008 31.697C57.016 28.9849 56.0615 27.6818 55.4857 27.0606C54.9251 26.4394 54.713 26.4849 54.5463 26.5909C54.3645 26.697 54.2281 26.8485 54.4857 27.6515C54.7433 28.4394 55.4099 29.8788 56.6069 32.6212C57.7887 35.3788 59.5463 39.4849 61.3796 45.7879C62.2887 48.9394 63.1827 52.6515 63.8645 57.0303C64.2281 59.2121 64.4705 61.5606 64.6675 64.0758C64.713 65.3334 64.819 66.6364 64.8039 67.9849C64.819 69.3485 64.8342 70.6818 64.5918 71.894C64.4251 72.5152 64.2433 73.2122 63.9251 73.5758C63.6069 73.9546 63.3645 74.1061 62.8645 74.1212C61.7887 74.1212 60.1827 73.1667 58.8796 71.9697C56.1372 69.5758 54.1221 65.9546 52.2736 62.0455C51.8039 61.0606 51.3342 60.0606 50.8645 59.0606C50.5766 58.4243 50.3039 57.7728 50.016 57.1364C50.0766 57.1364 50.1372 57.1364 50.213 57.1212C50.8493 57.0152 51.8342 56.697 52.9099 55.7425C53.9554 54.8031 55.1827 53.2576 55.6524 50.7728C55.8948 49.4394 55.819 47.5152 54.8796 45.8334C54.0008 44.1212 52.3645 42.8485 50.7281 42.2424C49.0766 41.6364 47.4251 41.7424 46.3948 42.1212C46.016 42.2576 45.7281 42.4243 45.5008 42.5758C45.0918 40.7576 44.7281 38.9546 44.3948 37.1667C43.5918 33.0758 43.213 29.0758 43.4705 25.5455C43.5918 23.8182 43.9705 22.0909 44.819 21.1364L45.1524 20.8334L45.5918 20.5909C45.8948 20.4697 46.1978 20.3485 46.5008 20.3182C47.1221 20.2273 47.7433 20.3485 48.319 20.5758C49.4705 21.0758 50.4099 21.8788 51.1675 22.6364C51.9251 23.4091 52.5312 24.1212 53.0008 24.7273C53.9554 25.9394 54.4705 26.6364 54.5615 26.5758C54.6372 26.5303 54.3039 25.7273 53.5009 24.3788C53.0918 23.7121 52.5463 22.9091 51.8342 22.0303C51.1069 21.1667 50.1827 20.2121 48.8039 19.5C47.4402 18.8031 45.3493 18.7273 43.8342 20.1061C43.1221 20.8182 42.6675 21.697 42.3948 22.5909C42.2433 23.0303 42.1372 23.4849 42.0463 23.9394C41.1069 25.1515 39.6221 27.1818 37.7433 29.8485C36.1221 32.0909 34.1978 34.7879 31.7887 37.4546C29.3796 40.1061 26.3645 42.7879 22.6069 44.197C18.9099 45.7121 14.3796 45.2728 9.74327 46.7879C7.4857 47.5606 5.19782 48.8788 3.68267 51.0152C2.13721 53.1667 1.68267 55.7273 1.56145 58C1.31903 62.6061 2.22812 67.2273 4.516 70.9243C6.75842 74.6667 10.4402 77.1061 14.0463 77.7576C15.6827 78.0455 17.3948 77.9849 18.8948 77.5758C19.7887 77.3485 20.6069 77.0303 21.3796 76.6818C21.4099 78.9697 21.9099 83.7122 23.4251 89.0606C23.9554 90.9394 24.5766 92.8485 25.3342 94.8031C25.5463 95.3031 25.7887 95.8788 26.213 96.4394C26.6524 97.0152 27.2433 97.4546 27.8342 97.7425C29.016 98.3182 30.1524 98.4849 31.3493 98.4849C33.6978 98.4849 36.1978 97.2273 37.2736 95.0606C38.3493 93.0606 38.3039 90.5909 37.0766 88.8788C36.5463 88.1364 35.9705 87.6667 35.5463 87.2728C35.1069 86.8637 34.8342 86.5758 34.6372 86.2576C34.2281 85.5909 34.0918 84.7576 34.1827 84.0758C34.2584 83.4243 34.6675 82.5455 34.9251 81.5152C35.0615 81 35.1524 80.394 35.0615 79.7425C34.9857 79.1061 34.713 78.4546 34.3493 78C33.6069 77.0909 32.8948 76.7728 32.4857 76.4394C32.0918 76.1515 31.8342 75.8788 31.6069 75.5455C31.1524 74.8788 30.9554 74.197 30.8645 73.6515C30.6978 72.6212 30.7736 72.0303 30.7584 71.6515C33.9554 70.5 37.0615 70.3637 39.7584 70.5606C42.9251 70.8334 45.5766 71.5152 47.7736 72.1515C49.9705 72.7879 51.7281 73.4394 53.1524 73.9394C57.1675 75.4546 58.516 75.8182 59.016 75.7576C59.1827 75.8637 59.3342 75.9849 59.516 76.0758C60.4705 76.6061 61.5463 77.0758 62.8493 77.1061C63.5008 77.1212 64.213 76.9849 64.8342 76.6515C65.4705 76.3334 65.9554 75.8637 66.319 75.3788C67.0766 74.394 67.2887 73.4091 67.5312 72.5C67.8493 70.8485 67.819 69.3182 67.8039 67.9394C67.8039 66.5455 67.6978 65.197 67.6372 63.8788ZM46.6069 43.2728C47.516 43.2728 48.7281 43.5 49.8493 44.1667C50.9705 44.8334 51.9554 45.8788 52.3948 47.0303C52.8796 48.1667 52.8493 49.3485 52.6978 50.2576C52.3948 51.9243 51.6069 53.0455 50.9857 53.7728C50.3493 54.5 49.8039 54.8637 49.4554 55.1515C49.3796 55.2122 49.3342 55.2576 49.2584 55.3182C48.5615 53.5303 47.9251 51.7121 47.3645 49.8637C46.713 47.697 46.1524 45.5 45.6524 43.3182C45.9251 43.2879 46.2281 43.2576 46.6069 43.2728ZM30.8645 78.5C31.4402 78.9697 31.9705 79.3485 32.1524 79.6364C32.3039 79.894 32.3493 80.1061 32.1675 80.7879C32.0008 81.4546 31.516 82.3031 31.2887 83.6667C31.1069 84.9849 31.3039 86.4243 32.0918 87.7728C32.9402 89.1818 34.213 89.9243 34.6524 90.6061C35.1372 91.2425 35.2736 92.5455 34.6827 93.7122C34.1675 94.8182 32.8493 95.6515 31.2584 95.7273C30.4857 95.7728 29.5918 95.6515 28.9402 95.3788C28.6221 95.2425 28.3796 95.0758 28.1827 94.8485C27.9705 94.6212 27.7736 94.2576 27.5918 93.8485C26.7887 92.0606 26.0463 90.2122 25.4099 88.4546C23.516 83.2273 22.5312 78.5303 21.9857 76.4243C22.3039 76.2728 22.6069 76.1061 22.8948 75.9394C25.2281 74.6364 27.1221 73.2879 28.9705 72.3788C28.8645 72.7425 28.7736 73.197 28.7584 73.7576C28.7433 74.5758 28.8645 75.6212 29.4705 76.7879C29.7736 77.3637 30.2584 78 30.8645 78.5ZM48.5311 69.7728C46.2584 69.0152 43.4857 68.1818 40.016 67.8031C38.2736 67.6667 36.3645 67.5758 34.2887 67.8485C32.2281 68.1212 30.0312 68.6819 27.819 69.6819C25.6221 70.7122 23.6069 72.1515 21.4705 73.3334C19.319 74.5303 17.0311 75.3334 14.5615 74.8485C11.8645 74.3637 8.86448 72.4849 7.00085 69.4243C5.07661 66.3788 4.16751 62.3031 4.31903 58.1667C4.39479 56.1212 4.77358 54.0909 5.84933 52.5606C6.60691 51.4243 7.74327 50.5455 9.03115 49.8637C8.66751 51.1212 8.33418 53.2122 8.516 55.6364C8.71297 59.6515 10.1978 64.1818 11.4099 66.8788C12.4554 69.3485 13.6221 71.2879 14.8493 72.4849C16.0615 73.7273 17.3342 74.2576 18.1978 74.3485C19.0766 74.4546 19.516 74.2576 19.7281 74.0758C19.9402 73.894 19.9251 73.697 19.9099 73.5C19.8948 73.2879 19.8645 73.0909 19.6978 72.9243C19.5312 72.7425 19.2433 72.6061 18.7887 72.3334C17.9099 71.8637 16.1221 70.5 14.1524 65.697C13.0008 63.1061 11.319 59.0152 10.6221 55.3788C10.0766 52.8637 10.0463 50.6364 9.94024 49.4546C10.1675 49.3637 10.3796 49.2425 10.6069 49.1667C14.4705 47.7273 19.1978 48.0152 23.4099 46.197C27.5918 44.4546 30.6827 41.4243 33.0766 38.5909C35.4705 35.697 37.2584 32.894 38.7433 30.5303C40.0463 28.4243 41.0918 26.697 41.8493 25.3788V25.394C41.4251 29.1818 41.6827 33.3031 42.3645 37.5455C43.016 41.7576 43.8342 46.1667 45.0463 50.5455C45.6524 52.7273 46.3493 54.9091 47.1675 57.0455C47.5766 58.1061 48.016 59.1667 48.4705 60.197C48.9251 61.2121 49.3796 62.2122 49.8342 63.2122C51.3645 66.6061 53.1221 70.0152 55.5766 72.7425C55.1069 72.5 54.5918 72.2576 54.0008 71.9697C52.5463 71.3334 50.7887 70.5455 48.5311 69.7728Z" fill="white"/>
<path id="Vector_2" d="M62.699 26.0152C64.0323 24.6668 65.5778 23.0607 66.5172 22.0152C70.0172 18.2577 69.7748 17.8031 69.1687 17.1668C68.6384 16.591 67.9717 16.0455 64.2899 20.0152C63.2899 21.1213 61.9263 23.0152 61.002 24.7577C60.0626 26.4849 59.5323 28.0001 59.8657 28.2274C60.2141 28.4546 61.3657 27.3637 62.699 26.0152Z" fill="white"/>
<path id="Vector_3" d="M66.1664 44.1509C66.5755 44.863 72.1513 42.4236 74.5755 41.0145C79.0301 38.4388 78.7877 37.8024 78.3634 37.0903C77.9543 36.3782 77.5149 35.8479 73.0755 38.4236C70.6513 39.8327 65.7422 43.4388 66.1664 44.1509Z" fill="white"/>
<path id="Vector_4" d="M75.0003 67.2876C70.5306 66.5907 70.3336 67.227 70.2124 68.0452C70.0912 68.8634 70.076 69.53 74.5457 70.2422C77.0003 70.621 82.3487 70.7876 82.4851 69.9694C82.6063 69.1664 77.4548 67.6816 75.0003 67.2876Z" fill="white"/>
<path id="Vector_5" d="M90.3787 35.8032C90.3332 35.6214 90.2877 35.4093 90.1968 35.1517C90.0605 34.9245 89.909 34.6669 89.712 34.379C88.9393 33.182 86.4544 32.5002 84.4999 33.576C83.515 34.0457 82.5908 34.8032 81.9696 35.8487C81.3483 36.8638 80.9999 38.1517 81.1665 39.3942C81.3483 40.6214 81.8484 41.6669 82.4999 42.5457C83.1968 43.4093 84.0908 44.0154 84.9696 44.3487C86.5908 44.9548 88.3484 44.6366 89.4544 43.8335C90.5908 43.0154 91.1059 42.0457 91.4393 41.2426C92.0453 39.576 91.8938 38.379 91.712 37.6214C91.212 36.1063 90.6968 36.2881 90.3484 36.4093C89.9393 36.5608 89.712 36.7729 89.6059 37.8184C89.515 38.3335 89.409 39.1517 88.9241 40.1214C88.409 41.0911 87.5302 42.0457 86.015 41.5305C85.6211 41.379 85.1665 41.1063 84.7726 40.6669C84.409 40.2123 84.0605 39.5911 83.909 38.9851C83.6211 37.7729 84.318 36.2123 85.5453 35.4245C86.7271 34.5608 88.1211 34.6366 88.9241 35.2275C89.1211 35.3942 89.3029 35.5305 89.4696 35.6669C89.6211 35.8184 89.7423 35.9699 89.8483 36.0911C90.0756 36.3184 90.2574 36.4548 90.3484 36.4093C90.4393 36.3639 90.4544 36.1669 90.3787 35.8032Z" fill="white"/>
<path id="Vector_6" d="M97.3777 50.0906C96.8625 49.2269 96.1959 48.4996 95.4838 47.8784C92.5141 45.4542 89.0747 45.0754 86.8171 45.1966C84.4989 45.3178 83.1959 45.9996 83.2565 46.1663C83.3171 46.4087 84.6656 46.136 86.8019 46.3633C88.8777 46.5603 91.8929 47.3178 94.0595 49.439C94.5747 49.9845 95.0444 50.5602 95.3777 51.2421C95.7565 51.8936 95.9686 52.6966 96.0292 53.2269C96.0141 53.7724 95.8626 53.9845 95.3777 54.3027C94.8777 54.5906 94.1656 54.8178 93.3929 54.9239C90.2868 55.3784 86.908 54.8936 84.3322 55.0148C82.105 55.0451 80.1807 54.7875 79.3171 54.0906C78.9232 53.8178 78.5595 53.2118 78.4232 52.8027C78.2868 52.3633 78.2868 51.939 78.408 51.4996C78.6807 50.6209 79.2868 49.8481 79.8474 49.2875C80.4232 48.7118 80.9535 48.3027 81.408 47.9845C81.8474 47.6663 82.211 47.4542 82.4989 47.2875C82.7868 47.1057 82.9686 46.9542 83.0898 46.8178C83.3322 46.5451 83.3171 46.3481 83.2716 46.1512C83.2262 45.9542 83.1504 45.7724 82.7716 45.6966C82.5898 45.6663 82.3171 45.6663 81.9383 45.7118C81.5595 45.7421 81.0444 45.833 80.4232 46.1057C79.8019 46.3633 79.0595 46.7572 78.2262 47.4087C77.408 48.0754 76.4383 48.9996 75.8019 50.636C75.4989 51.4542 75.3929 52.5299 75.6807 53.5754C75.9989 54.6209 76.4989 55.5603 77.5141 56.3936C79.5595 57.9239 81.9686 57.9693 84.3474 57.9996C85.6807 57.9693 86.9838 57.9845 88.6201 58.0148C90.2413 58.0148 91.9989 57.9996 93.8929 57.6209C94.8323 57.4239 95.8474 57.136 96.8474 56.4693C97.3474 56.136 97.8322 55.6209 98.1504 55.0148C98.2716 54.6966 98.4232 54.3481 98.4686 54.0148C98.4989 53.6815 98.4989 53.3633 98.4989 53.0299C98.3019 51.8481 97.908 50.939 97.3777 50.0906Z" fill="white"/>
<path id="Vector_7" d="M80.3046 11.0149C81.0015 11.8785 81.8955 12.4846 82.7743 12.8179C84.3955 13.424 86.153 13.1058 87.2591 12.3028C88.3955 11.4846 88.9106 10.5149 89.2439 9.71186C89.85 8.04519 89.6985 6.84822 89.5167 6.09065C89.0167 4.5755 88.5015 4.75732 88.153 4.87853C87.7439 5.03004 87.5167 5.24216 87.4106 6.28762C87.3197 6.80277 87.2136 7.62095 86.7288 8.59065C86.2136 9.56035 85.3349 10.5149 83.8197 9.99974C83.4258 9.84822 82.9712 9.5755 82.5773 9.1361C82.2136 8.68156 81.8652 8.06035 81.7136 7.45429C81.4258 6.24216 82.1227 4.68156 83.35 3.89368C84.5318 3.03004 85.9258 3.1058 86.7288 3.69671C86.9258 3.86338 87.1076 3.99974 87.2742 4.1361C87.4258 4.28762 87.547 4.43913 87.653 4.56035C87.8803 4.78762 88.0621 4.92398 88.153 4.87853C88.2439 4.84822 88.2591 4.6361 88.1833 4.28762C88.1379 4.1058 88.0924 3.89368 88.0015 3.6361C87.8652 3.40883 87.7136 3.15126 87.5167 2.86338C86.7439 1.66641 84.2591 0.984588 82.3046 2.06035C81.3197 2.53004 80.3955 3.28762 79.7743 4.33307C79.153 5.34822 78.8046 6.6361 78.9712 7.87853C79.153 9.1058 79.653 10.1361 80.3046 11.0149Z" fill="white"/>
<path id="Vector_8" d="M75.3031 24.879C77.3486 26.4093 79.7577 26.4547 82.1365 26.485C83.4698 26.4547 84.7728 26.4699 86.4092 26.5002C88.0304 26.5002 89.788 26.485 91.6819 26.1062C92.6213 25.9093 93.6365 25.6214 94.6365 24.9547C95.1365 24.6214 95.6213 24.1062 95.9395 23.5002C96.0607 23.182 96.2122 22.8335 96.2577 22.5002C96.288 22.1668 96.288 21.8487 96.288 21.5153C96.091 20.3032 95.6971 19.3941 95.1668 18.5456C94.6516 17.682 93.9849 16.9547 93.2728 16.3335C90.3031 13.9093 86.8637 13.5305 84.6062 13.6517C82.288 13.7729 80.9849 14.4547 81.0456 14.6214C81.1062 14.8638 82.4546 14.5911 84.591 14.8184C86.6668 15.0153 89.6819 15.7729 91.8486 17.8941C92.3637 18.4396 92.8334 19.0153 93.1668 19.6971C93.5456 20.3487 93.7577 21.1517 93.8183 21.682C93.8031 22.2275 93.6516 22.4396 93.1668 22.7578C92.6668 23.0456 91.9546 23.2729 91.1819 23.379C88.0759 23.8335 84.6971 23.3487 82.1213 23.4699C79.894 23.5002 77.9698 23.2426 77.1062 22.5456C76.7122 22.2729 76.3486 21.6668 76.2122 21.2578C76.0759 20.8184 76.0759 20.3941 76.1971 19.9547C76.4698 19.0759 77.0759 18.3032 77.6365 17.7426C78.2122 17.1668 78.7425 16.7578 79.1971 16.4396C79.6365 16.1214 80.0001 15.9093 80.288 15.7426C80.5759 15.5608 80.7577 15.4093 80.8789 15.2729C81.1213 15.0002 81.1062 14.8032 81.0607 14.6062C81.0152 14.4093 80.9395 14.2274 80.5607 14.1517C80.3789 14.1214 80.1062 14.1214 79.7274 14.1668C79.3486 14.1971 78.8334 14.2881 78.2122 14.5608C77.591 14.8184 76.8334 15.2123 76.0152 15.8638C75.1971 16.5305 74.2274 17.4547 73.591 19.0911C73.288 19.9093 73.1819 20.985 73.4698 22.0305C73.788 23.1062 74.2728 24.0456 75.3031 24.879Z" fill="white"/>
<path id="Vector_9" d="M4.5619 77.0297C4.31947 77.1509 5.51644 79.2115 8.10735 80.3176C10.6983 81.4539 13.0164 80.8327 12.9407 80.5751C12.9104 80.2721 10.8043 80.363 8.5316 79.3479C6.22857 78.3933 4.80432 76.8327 4.5619 77.0297Z" fill="white"/>
<path id="Vector_10" d="M3.89447 79.9994C3.65204 80.1358 4.66719 81.8479 6.89447 82.5449C7.97022 82.8782 9.03083 82.8631 9.74295 82.6964C10.4551 82.5297 10.8339 82.257 10.8036 82.1206C10.7126 81.8328 9.07628 82.151 7.21265 81.5449C5.33386 80.9843 4.12174 79.8025 3.89447 79.9994Z" fill="white"/>
</g>
</g>
</svg>
