<svg width="31" height="31" viewBox="0 0 31 31" fill="none" xmlns="http://www.w3.org/2000/svg">
<g clip-path="url(#clip0_2801_1711)">
<path d="M27.9161 18.5321C27.8426 18.5321 27.7693 18.5347 27.6964 18.5399V13.2739C29.4924 13.3485 31.0038 11.8798 30.9999 10.0654C31.0038 8.25103 29.4923 6.78216 27.6964 6.85681V4.39928C27.6964 3.89771 27.2898 3.49107 26.7882 3.49107H24.5525C24.7117 1.63846 23.2292 0.00811395 21.3842 0.0177409C19.5393 0.00805341 18.0565 1.63852 18.2159 3.49107H12.85C13.0149 1.64046 11.5344 0.0071452 9.69066 0.0171354C7.84706 0.0071452 6.36627 1.64052 6.53132 3.49107H4.20335C3.70178 3.49107 3.29515 3.89771 3.29515 4.39928V6.86517C1.50381 6.79076 -0.00374668 8.25569 7.22247e-06 10.0654C-0.00380723 11.8751 1.50381 13.3402 3.29515 13.2656V15.7315C3.29515 16.2331 3.70178 16.6397 4.20335 16.6397H6.53949C6.31971 18.5145 7.81588 20.2124 9.69066 20.1992C11.5652 20.2124 13.0618 18.5144 12.8418 16.6397H14.5876V27.0638C14.5876 27.5654 14.9942 27.972 15.4958 27.972H18.2476C18.4953 31.9884 24.1534 31.9854 24.3997 27.972H26.7882C27.2898 27.972 27.6964 27.5654 27.6964 27.0638V24.7398C29.4671 24.8736 30.9999 23.4313 30.9931 21.6399C30.9932 19.9262 29.6128 18.5321 27.9161 18.5321ZM19.4288 5.30748C20.1199 5.31596 20.5686 4.53417 20.2133 3.94172C19.6713 3.04345 20.3372 1.8204 21.3842 1.83415C22.4311 1.82034 23.0972 3.04357 22.5551 3.94172C22.1996 4.53436 22.6488 5.31596 23.3396 5.30748H25.88V8.01471C25.88 8.33192 26.0455 8.62617 26.3166 8.79086C26.5877 8.95549 26.9251 8.96693 27.2067 8.82077C28.0961 8.34366 29.1995 9.05049 29.1835 10.0653C29.1996 11.08 28.0959 11.7871 27.2067 11.3099C26.9251 11.1638 26.5877 11.1751 26.3166 11.3398C26.0455 11.5045 25.88 11.7988 25.88 12.116V14.8232H23.2856C22.9703 14.8232 22.6776 14.9867 22.5123 15.2552C22.347 15.5237 22.3327 15.8587 22.4746 16.1402C22.9449 17.0384 22.2728 18.1858 21.2631 18.1725C20.2537 18.1858 19.5812 17.0383 20.0516 16.1402C20.1935 15.8587 20.1793 15.5237 20.014 15.2552C19.8487 14.9867 19.5559 14.8232 19.2407 14.8232H16.404V13.2099C18.3337 13.6042 20.1969 12.05 20.177 10.0653C20.1969 8.08089 18.3335 6.52611 16.404 6.92069V5.30748H19.4288ZM14.5876 14.8233H11.5781C11.2447 14.8233 10.9381 15.006 10.7794 15.2992C10.6207 15.5923 10.6354 15.9489 10.8176 16.2281C11.4164 17.123 10.7662 18.3921 9.6906 18.3828C8.6151 18.3921 7.96477 17.1228 8.56364 16.228C8.74588 15.9489 8.76054 15.5923 8.60184 15.2991C8.44309 15.0059 8.13654 14.8233 7.80317 14.8233H5.11156V12.1068C5.11156 11.7893 4.94578 11.4949 4.67429 11.3303C4.40285 11.1656 4.06506 11.1547 3.78358 11.3014C2.89936 11.7777 1.80049 11.0752 1.81641 10.0654C1.80043 9.05582 2.89948 8.35293 3.78346 8.82931C4.065 8.97608 4.40279 8.96524 4.67423 8.80055C4.94572 8.63592 5.11156 8.34148 5.11156 8.02398V5.30748H7.74983C8.07611 5.30748 8.37727 5.1325 8.53881 4.84908C8.70035 4.5656 8.69751 4.21727 8.53131 3.93658C7.98481 3.04418 8.64586 1.81974 9.69066 1.83354C10.7353 1.81968 11.3966 3.0443 10.85 3.93658C10.6838 4.21733 10.681 4.56566 10.8425 4.84908C11.004 5.1325 11.3053 5.30748 11.6315 5.30748H14.5875V8.35741C14.5875 8.717 14.7997 9.04268 15.1286 9.18805C15.4574 9.33342 15.8412 9.27112 16.1071 9.02905C16.9728 8.23274 18.3694 8.88919 18.3605 10.0654C18.3695 11.2414 16.9726 11.8981 16.1071 11.1016C15.8411 10.8596 15.4574 10.7972 15.1286 10.9426C14.7997 11.088 14.5876 11.4138 14.5876 11.7733V14.8233ZM27.9161 22.9312C27.6862 22.9312 27.4613 22.8673 27.2661 22.7465C26.6704 22.3712 25.8744 22.815 25.88 23.5188V26.1555H23.3328C23.0313 26.1555 22.7493 26.3052 22.5804 26.5551C22.4116 26.8049 22.3776 27.1223 22.49 27.4021C22.8372 28.2171 22.2054 29.203 21.3236 29.1837C20.4421 29.203 19.8099 28.217 20.1573 27.4021C20.2696 27.1223 20.2358 26.8049 20.0669 26.5551C19.898 26.3053 19.6161 26.1555 19.3145 26.1555H16.4041V16.6397H18.0872C18.005 18.4549 19.4621 19.9942 21.2632 19.9891C23.0641 19.9942 24.5215 18.4549 24.4391 16.6397H25.8801V19.7608C25.8801 20.0902 26.0585 20.3938 26.3462 20.5542C26.6339 20.7145 26.9859 20.7065 27.2661 20.5331C28.0945 20.0103 29.189 20.6559 29.1768 21.6398C29.1768 22.3518 28.6112 22.9312 27.9161 22.9312Z" fill="white"/>
</g>
<defs>
<clipPath id="clip0_2801_1711">
<rect width="31" height="31" fill="white"/>
</clipPath>
</defs>
</svg>
