<svg width="120" height="120" viewBox="0 0 120 120" fill="none" xmlns="http://www.w3.org/2000/svg">
<g opacity="0.15">
<path d="M115.573 67.2471C113.752 67.7759 110.669 69.5525 108.777 70.7378C102.49 62.2568 95.9766 49.9756 94.0123 39.6036C97.0512 38.7649 103.609 35.9617 106.613 34.563C109.51 41.3613 111.326 47.1299 113.291 50.9899C113.62 51.6381 114.415 51.901 115.071 51.5689C115.722 51.2372 115.982 50.4401 115.65 49.7887C113.849 46.2531 109.546 34.1128 108.475 32.127C108.469 32.1162 108.458 32.1105 108.452 32.1C107.939 30.9465 106.607 30.9588 106.073 31.8959C103.257 33.263 94.873 36.8143 92.8433 37.1727C91.8468 36.8551 91.0054 37.7029 91.1439 38.618C91.2625 39.3975 91.4107 40.189 91.5798 40.9882C78.8946 44.6407 73.6336 36.9646 65.3937 38.4508C63.7526 38.7479 62.1257 39.2851 60.5536 39.9286C51.1922 34.0373 37.9255 41.4818 30.8423 37.4435C28.6149 36.1559 26.3115 34.9223 23.9915 33.6735C24.1829 32.6729 24.3496 31.9526 24.2657 31.5973C24.0067 30.4918 10.4593 24.4912 10.1726 24.5109C10.1586 24.5083 10.1479 24.499 10.1337 24.4969C9.41337 24.3875 8.73782 24.8907 8.63097 25.6136C7.91758 30.4577 3.97183 41.7458 2.77591 46.6565C2.60357 47.3665 3.03958 48.0826 3.7496 48.2558C4.47748 48.4288 5.17946 47.9775 5.34886 47.2821C6.52166 42.4519 9.69407 33.5298 10.9429 27.6432C13.5025 28.888 19.2463 31.5057 21.4984 32.6176C20.3926 38.4535 17.3536 53.5767 13.5725 64.8177C12.2939 64.0565 10.6832 63.0827 9.57278 62.4295C8.28019 61.6713 6.89406 63.3232 7.94799 64.4579C8.07864 65.1076 8.18743 65.7916 8.35944 66.3762C10.0647 67.6326 12.3473 69.0323 14.3009 69.8506C14.7264 69.6153 15.0453 68.7637 15.152 68.2893C16.847 69.3812 18.5384 70.9033 20.2334 71.9951C18.8552 73.4519 19.0321 77.6879 22.0706 80.6527C23.3705 81.9211 25.2943 82.642 27.0518 82.1838C26.2775 87.278 31.0085 90.6788 35.3689 89.5522C35.3072 94.2282 39.9199 97.7818 44.4771 96.2301C45.1208 98.5981 46.995 100.824 49.3242 101.596C51.6534 102.368 54.356 101.897 56.2866 100.383C56.5672 100.162 56.8317 99.9778 57.0982 99.7897C60.6252 100.779 64.2147 100.269 67.3516 98.8374C71.2196 100.517 75.4757 97.7109 76.0403 94.1886C80.0147 96.1237 84.5071 92.9967 84.924 89.4974C86.7496 90.0028 88.8103 89.5617 90.2692 88.3535C91.728 87.1454 92.8229 84.769 92.6666 82.8813C97.8935 79.9165 102.884 77.0837 108.23 74.0511C108.252 74.0596 108.276 74.0593 108.299 74.0667C109.185 75.2065 109.31 75.1945 109.731 75.0784C111.381 74.6733 114.851 73.1315 116.297 72.2393C116.694 71.2576 116.725 71.1045 116.888 69.4121C117.84 68.4013 116.83 66.8717 115.573 67.2471ZM63.7703 95.254C64.0499 95.4981 64.366 95.7722 64.7115 96.0483C62.9095 96.9192 61.2641 97.0017 60.2676 96.7335C58.8973 96.3636 56.9934 95.163 56.1213 93.9094C56.4984 92.7101 57.0944 91.6775 57.3251 90.2123C59.9384 92.2299 61.8114 93.5456 63.7703 95.254ZM54.758 89.1887C54.7968 89.9298 54.4961 90.7526 54.1083 91.7229C53.2675 93.8328 53.3191 94.3669 53.2415 95.3075C53.2107 95.9818 53.1715 96.9112 53.5378 97.6877C50.9519 98.6297 47.9416 96.2411 47.0087 93.8759C48.9065 91.6872 50.6495 89.3482 52.219 86.9101C52.2234 86.91 52.2272 86.9123 52.2316 86.9122C53.4431 86.8407 54.6943 87.9789 54.758 89.1887ZM50.4274 84.8526C49.7302 85.8678 48.2819 88.3688 45.0139 92.1368C44.8985 92.1802 44.7752 92.2011 44.6739 92.2769C43.7812 92.9422 42.5231 93.1412 41.4693 92.7828C40.4155 92.4234 39.5409 91.4989 39.2402 90.4269C38.9866 89.5244 38.9875 88.0936 39.115 87.0644C40.0308 85.9329 39.5751 85.9282 44.243 80.6711L45.1073 79.6948C45.1577 79.6376 45.1782 79.5676 45.2169 79.5049C46.3685 79.433 47.2911 79.54 48.0534 79.8551C49.5966 80.4927 50.7021 82.7537 50.4187 84.6934C50.4107 84.7482 50.4286 84.7985 50.4274 84.8526ZM36.9489 85.6441C35.2994 86.3345 33.2289 86.0115 31.9065 84.8123C30.5321 83.565 30.0132 81.4211 30.6453 79.6773C33.8956 76.7213 36.4422 72.8315 39.9347 74.5885C41.6313 75.4442 42.6326 77.401 42.5904 78.1395C42.5835 78.2618 42.6158 78.3742 42.6405 78.4885C41.2303 80.0798 37.9508 83.736 36.9489 85.6441ZM30.0587 76.5716C29.5177 77.1225 28.9959 77.629 28.4964 78.0498C26.9335 78.5723 24.9564 77.8648 24.1661 76.4144C23.3385 74.8965 23.8942 72.726 25.316 71.7495C28.73 71.4622 30.9051 74.7861 30.0587 76.5716ZM65.8641 41.0557C72.6661 39.8294 79.0779 47.283 92.2035 43.5629C94.6736 52.7849 99.9678 62.8023 105.23 70.3396C99.8597 72.1212 95.6163 74.4652 90.5513 78.4197C89.6355 76.3117 88.3211 74.9951 86.4452 73.1702C79.8766 66.7655 72.1578 57.5883 64.1467 53.1025C64.3604 53.0773 64.569 53.0581 64.7526 53.0631C65.4859 53.1174 66.0925 52.5107 66.1149 51.78C66.1373 51.0493 65.5625 50.4393 64.8319 50.4177C62.2227 50.3152 58.3323 52.0196 56.4486 54.0049C53.3533 57.2356 51.5756 62.1127 47.7268 63.5307C46.5825 63.9538 45.0694 63.8702 44.5291 63.0051C44.0836 62.2752 43.8682 60.7139 44.0681 59.6583C44.6903 56.2737 46.0999 54.1539 48.18 51.3053C49.7 49.2148 52.2058 47.177 55.4198 45.4131C58.6132 43.6786 62.233 41.7131 65.8641 41.0557ZM29.524 39.739C37.1215 44.0679 49.0541 37.8582 57.5133 41.3194C53.2608 43.4467 48.8511 45.8843 46.0405 49.7456C43.8174 52.7916 42.1871 55.2517 41.4659 59.1723C41.1867 60.6484 41.3728 62.912 42.2767 64.3949C43.5747 66.4739 46.4257 66.8378 48.6436 66.0132C51.8537 64.8329 53.8675 61.9921 55.6292 59.4127C57.563 56.5761 58.3666 55.4184 60.6027 54.2778C68.8493 57.9666 76.5328 67.0233 83.1346 73.6252C84.8237 75.3142 85.3417 75.7375 86.5572 77.0736C90.3563 81.2462 88.3925 85.5507 85.2087 85.1156C82.9021 84.808 80.9786 82.5668 79.1787 80.8848C75.9328 77.8543 72.5421 74.5808 69.7279 71.1729C69.2643 70.6085 68.4285 70.5292 67.8649 70.9953C67.3014 71.4607 67.2213 72.2948 67.6874 72.8583C70.5964 76.3817 74.0612 79.7284 77.3726 82.8201C78.6892 84.0505 80.1303 85.625 81.9041 86.6725C81.1379 89.6366 78.0462 91.2359 75.24 90.2839C73.1775 89.5817 72.2823 88.3947 63.423 79.4018C62.912 78.8822 62.0728 78.8753 61.5515 79.388C61.031 79.9007 61.0241 80.7391 61.5377 81.2596C69.8633 89.7005 70.7915 90.8342 72.7038 91.9874C72.171 94.4059 70.4448 95.321 69.0256 95.2334C67.8443 95.2127 66.6888 94.2881 65.5109 93.2601C62.532 90.6609 59.1785 88.4857 56.3039 85.9764C56.1555 85.8467 55.9855 85.7631 55.8083 85.7108C55.059 84.9934 54.1128 84.4842 53.0847 84.3202C53.1579 81.6967 51.7682 78.5252 49.065 77.4079C47.9158 76.9333 46.6084 76.7708 45.0334 76.8702C44.535 75.1731 43.1229 73.2316 41.1272 72.2258C37.7116 70.5016 34.8928 72.0711 32.6171 74.0701C31.6445 70.9626 28.4928 68.6757 25.0277 69.1307C24.9309 69.1436 24.8503 69.1903 24.7621 69.2222C24.5723 69.2203 24.387 69.2574 24.2065 69.3405C21.3434 67.1029 19.6008 66.2164 16.4496 64.526C19.5333 55.0368 22.0867 43.2773 23.4597 36.3959C25.4934 37.4901 27.528 38.5847 29.524 39.739Z" fill="white"/>
<path d="M14.8471 37.2159C16.1388 36.7136 16.463 35.1292 15.4907 34.157C14.322 32.9883 12.381 33.7447 12.3086 35.3952C12.2801 36.044 12.5662 36.6472 13.072 37.01C13.5915 37.3835 14.2605 37.4435 14.8471 37.2159Z" fill="white"/>
<path d="M96.5514 42.2701C95.6031 44.8713 97.7453 47.9677 100.715 47.1635C102.515 46.6801 103.517 45.0567 103.152 43.2162C102.437 39.6104 97.6741 39.1904 96.5514 42.2701ZM100.028 44.6078C99.7129 44.6879 99.4992 44.638 99.3096 44.432C98.9145 44.0014 98.7608 42.9542 99.4768 42.8603C100.057 42.7851 100.456 43.2255 100.556 43.7323C100.694 44.4286 100.193 44.563 100.028 44.6078Z" fill="white"/>
<path d="M52.4283 32.472C52.7996 33.0982 53.6097 33.3092 54.2421 32.9364C54.8711 32.5633 55.0788 31.7516 54.7065 31.1226L50.3379 23.7449C49.9656 23.115 49.1548 22.9082 48.5249 23.2796C47.8959 23.6519 47.6874 24.4636 48.0596 25.0926L52.4283 32.472Z" fill="white"/>
<path d="M60.3703 32.4451C61.0123 32.4451 61.5767 31.9763 61.6766 31.3223L63.4792 19.5631C63.5904 18.8401 63.0941 18.1646 62.372 18.0543C61.6525 17.9405 60.9735 18.4386 60.8632 19.1615L59.0606 30.9208C58.9374 31.722 59.5568 32.4451 60.3703 32.4451Z" fill="white"/>
<path d="M70.4954 31.0618L74.2523 25.4291C74.6581 24.8208 74.4935 23.9996 73.8852 23.5937C73.2769 23.1879 72.4557 23.3525 72.0498 23.9608L68.2929 29.5936C67.8871 30.2019 68.0517 31.0231 68.66 31.4289C69.2661 31.8337 70.0892 31.6711 70.4954 31.0618Z" fill="white"/>
</g>
</svg>
