<svg width="178" height="50" viewBox="0 0 178 50" fill="none" xmlns="http://www.w3.org/2000/svg">
<path fill-rule="evenodd" clip-rule="evenodd" d="M15.327 31.6134L0.754737 20.4224C-0.068433 24.8291 0.304127 29.376 1.83366 33.59C3.36319 37.804 5.99382 41.5313 9.45196 44.3841L15.327 31.6134Z" fill="#E8112B"/>
<path fill-rule="evenodd" clip-rule="evenodd" d="M1.66211 16.9652L21.5237 30.1886L16.5193 48.4829C17.0873 48.6977 17.665 48.892 18.2525 49.066L26.3285 28.4243L3.73968 12.4214C2.89636 13.8624 2.20032 15.3847 1.66211 16.9652Z" fill="#E8112B"/>
<path fill-rule="evenodd" clip-rule="evenodd" d="M5.66886 9.5862L32.5211 26.9975L27.5442 49.9999C28.1701 49.9466 28.7884 49.8703 29.399 49.7709L38.4512 25.6601L9.15218 5.96265C7.87268 7.0511 6.70544 8.26502 5.66797 9.5862" fill="#E8112B"/>
<path fill-rule="evenodd" clip-rule="evenodd" d="M11.9872 3.87562L44.6462 24.2342L40.0624 45.3356C43.2719 43.0153 45.8845 39.966 47.6852 36.4386C49.4859 32.9112 50.4233 29.0067 50.4201 25.0463C50.4201 11.2141 39.2069 3.33773e-05 25.3738 3.33773e-05C20.6335 -0.00772359 15.9894 1.33672 11.9863 3.87562" fill="#181818"/>
<path d="M168.123 22.8014H171.576V16.5458L177.601 7.11799H173.68L169.873 13.4143L166.134 7.11799H162.1L168.126 16.6143L168.123 22.8014ZM146.017 22.8014H149.421V12.8421L157.013 22.8069H159.947V7.13094H156.547V16.7828L149.202 7.13094H146.021L146.017 22.8014ZM133.163 16.2402L135.247 11.155L137.328 16.2402H133.163ZM126.982 22.8014H130.5L131.934 19.2829H138.561L139.995 22.8014H143.613L136.893 7.01243H133.704L126.982 22.8014ZM118.384 15.0236V10.231H121.047C122.773 10.231 123.847 11.0587 123.847 12.605V12.6495C123.847 13.9939 122.839 15.0236 121.115 15.0236H118.384ZM114.934 22.8014H118.384V18.0977H121.002C124.521 18.0977 127.341 16.218 127.341 12.5902V12.5458C127.341 9.34207 125.078 7.12539 121.339 7.12539H114.937L114.934 22.8014ZM95.4891 22.8014H98.8706V12.6347L103.243 19.2625H103.332L107.743 12.5662V22.8014H111.171V7.12539H107.458L103.337 13.7532L99.2169 7.12539H95.4983L95.4891 22.8014ZM84.1131 19.8903C81.3353 19.8903 79.365 17.6513 79.365 14.9624V14.918C79.365 12.231 81.2909 10.0365 84.0687 10.0365C86.8465 10.0365 88.815 12.2754 88.815 14.9624V15.0087C88.8242 17.6958 86.8983 19.8903 84.1224 19.8903H84.1131ZM84.0687 23.0699C88.9057 23.0699 92.4206 19.4199 92.4206 14.9624V14.918C92.4206 10.4624 88.9502 6.85687 84.1131 6.85687C79.2761 6.85687 75.7594 10.5069 75.7594 14.9624V15.0087C75.7686 19.4643 79.239 23.0699 84.0779 23.0699H84.0687ZM67.7205 23.0699C70.7427 23.0699 72.5353 21.9958 74.1464 20.2717L71.952 18.0495C70.7205 19.1606 69.6223 19.8847 67.8316 19.8847C65.1445 19.8847 63.2853 17.6458 63.2853 14.9569V14.9125C63.2853 12.2254 65.189 10.0309 67.8316 10.0309C69.3982 10.0309 70.6316 10.7032 71.8408 11.7995L74.0353 9.26983C72.5797 7.8365 70.8094 6.85132 67.8538 6.85132C63.039 6.85132 59.6797 10.5013 59.6797 14.9569V15.0032C59.6889 19.5088 63.1149 23.0699 67.7297 23.0699H67.7205Z" fill="#181818"/>
<path d="M159.991 42.8236H167.858V40.8014H162.25V38.6328H167.119V36.6106H162.25V34.5162H167.784V32.4921H159.991V42.8236ZM141.163 42.8236H143.406V36.2569L148.406 42.8236H150.339V32.4921H148.099V38.8532L143.25 32.4921H141.163V42.8236ZM129.126 42.8236H131.4V32.4921H129.136L129.126 42.8236ZM112.719 42.8236H120.141V40.7569H115V32.4921H112.728L112.719 42.8236ZM98.9502 43.0088C100.571 43.0141 102.139 42.4318 103.363 41.3699V36.8828H98.8873V38.8458H101.174V40.3273C100.543 40.7533 99.7945 40.9703 99.0336 40.9477C97.2039 40.9477 95.9058 39.5606 95.9058 37.6717V37.6421C95.9058 35.8865 97.2187 34.4236 98.8687 34.4236C100.065 34.4236 100.774 34.8088 101.571 35.4717L103.002 33.7458C101.924 32.831 100.804 32.3291 98.9428 32.3291C95.815 32.3291 93.528 34.7365 93.528 37.6717V37.7013C93.5298 40.7421 95.7428 43.0014 98.9595 43.0014L98.9502 43.0088ZM79.0094 38.4958L80.3816 35.1458L81.7538 38.4958H79.0094ZM74.9353 42.8199H77.2538L78.1983 40.5032H82.5668L83.5113 42.8199H85.8872L81.4594 32.4162H79.3612L74.9353 42.8199ZM62.8223 42.8199H65.1019V34.5884H68.2501V32.4921H59.6797V34.5884H62.8278L62.8223 42.8199Z" fill="#181818"/>
</svg>
