<svg width="182" height="50" viewBox="0 0 182 50" fill="none" xmlns="http://www.w3.org/2000/svg">
<path fill-rule="evenodd" clip-rule="evenodd" d="M42.2123 46.3141C12.4667 49.3961 -2.81194 27.8411 13.4997 8.1032C15.7815 5.33791 18.6806 2.61721 22.2416 0C18.3657 1.56997 13.6844 4.76701 10.0699 8.1032H0.316406V50H42.2123V46.3141Z" fill="#181818"/>
<path fill-rule="evenodd" clip-rule="evenodd" d="M25.2571 20.8822C26.1922 20.8822 27.1062 21.1595 27.8837 21.679C28.6612 22.1985 29.2672 22.9369 29.625 23.8008C29.9828 24.6646 30.0765 25.6152 29.894 26.5323C29.7116 27.4494 29.2613 28.2918 28.6001 28.953C27.939 29.6142 27.0966 30.0645 26.1795 30.2469C25.2624 30.4293 24.3118 30.3357 23.4479 29.9779C22.584 29.62 21.8456 29.0141 21.3262 28.2366C20.8067 27.4591 20.5294 26.545 20.5294 25.61C20.5294 24.3561 21.0275 23.1536 21.9141 22.267C22.8007 21.3803 24.0033 20.8822 25.2571 20.8822ZM16.5411 8.10303C5.95719 27.3459 19.8416 41.4765 42.2119 43.695C46.3904 44.0947 50.597 44.1031 54.777 43.7199C51.1251 43.116 46.3679 42.2882 42.2119 40.679V8.10303H16.5411Z" fill="#6152D9"/>
<path d="M172.48 22.8013H175.933V16.5458L181.957 7.11799H178.037L174.23 13.4143L170.491 7.11799H166.457L172.483 16.6143L172.48 22.8013ZM150.374 22.8013H153.778V12.8421L161.37 22.8069H164.304V7.13094H160.904V16.7828L153.559 7.13094H150.378L150.374 22.8013ZM137.52 16.2402L139.604 11.155L141.685 16.2402H137.52ZM131.339 22.8013H134.857L136.291 19.2828H142.919L144.352 22.8013H147.97L141.25 7.01243H138.061L131.339 22.8013ZM122.741 15.0235V10.2309H125.404C127.13 10.2309 128.204 11.0587 128.204 12.605V12.6495C128.204 13.9939 127.196 15.0235 125.472 15.0235H122.741ZM119.291 22.8013H122.741V18.0976H125.359C128.878 18.0976 131.698 16.218 131.698 12.5902V12.5458C131.698 9.34206 129.435 7.12539 125.696 7.12539H119.295L119.291 22.8013ZM99.8464 22.8013H103.228V12.6346L107.6 19.2624H107.689L112.1 12.5661V22.8013H115.528V7.12539H111.815L107.695 13.7532L103.574 7.12539H99.8556L99.8464 22.8013ZM88.4704 19.8902C85.6927 19.8902 83.7223 17.6513 83.7223 14.9624V14.918C83.7223 12.2309 85.6482 10.0365 88.426 10.0365C91.2038 10.0365 93.1723 12.2754 93.1723 14.9624V15.0087C93.1815 17.6957 91.2556 19.8902 88.4797 19.8902H88.4704ZM88.426 23.0698C93.263 23.0698 96.7778 19.4198 96.7778 14.9624V14.918C96.7778 10.4624 93.3075 6.85687 88.4704 6.85687C83.6334 6.85687 80.1167 10.5069 80.1167 14.9624V15.0087C80.126 19.4643 83.5964 23.0698 88.4353 23.0698H88.426ZM72.0778 23.0698C75.1001 23.0698 76.8927 21.9958 78.5038 20.2717L76.3093 18.0495C75.0778 19.1606 73.9797 19.8847 72.189 19.8847C69.5019 19.8847 67.6427 17.6458 67.6427 14.9569V14.9124C67.6427 12.2254 69.5464 10.0309 72.189 10.0309C73.7556 10.0309 74.989 10.7032 76.1982 11.7995L78.3927 9.26982C76.9371 7.83649 75.1667 6.85132 72.2112 6.85132C67.3964 6.85132 64.0371 10.5013 64.0371 14.9569V15.0032C64.0464 19.5087 67.4723 23.0698 72.0871 23.0698H72.0778Z" fill="#181818"/>
<path d="M164.348 42.8236H172.215V40.8013H166.607V38.6328H171.476V36.6106H166.607V34.5161H172.141V32.4921H164.348V42.8236ZM145.52 42.8236H147.763V36.2569L152.763 42.8236H154.696V32.4921H152.456V38.8532L147.607 32.4921H145.52V42.8236ZM133.483 42.8236H135.757V32.4921H133.493L133.483 42.8236ZM117.076 42.8236H124.498V40.7569H119.357V32.4921H117.085L117.076 42.8236ZM103.307 43.0087C104.928 43.014 106.496 42.4318 107.72 41.3699V36.8828H103.245V38.8458H105.532V40.3273C104.901 40.7532 104.152 40.9702 103.391 40.9476C101.561 40.9476 100.263 39.5606 100.263 37.6717V37.6421C100.263 35.8865 101.576 34.4236 103.226 34.4236C104.422 34.4236 105.132 34.8087 105.928 35.4717L107.359 33.7458C106.282 32.831 105.161 32.3291 103.3 32.3291C100.172 32.3291 97.8853 34.7365 97.8853 37.6717V37.7013C97.8871 40.7421 100.1 43.0013 103.317 43.0013L103.307 43.0087ZM83.3667 38.4958L84.739 35.1458L86.1112 38.4958H83.3667ZM79.2927 42.8198H81.6112L82.5556 40.5032H86.9241L87.8686 42.8198H90.2445L85.8167 32.4162H83.7186L79.2927 42.8198ZM67.1797 42.8198H69.4593V34.5884H72.6075V32.4921H64.0371V34.5884H67.1853L67.1797 42.8198Z" fill="#181818"/>
</svg>
