<svg width="186" height="50" viewBox="0 0 186 50" fill="none" xmlns="http://www.w3.org/2000/svg">
<path d="M11.8494 27.4617C13.368 40.6659 26.1013 49.0139 38.4274 49.4174C35.0662 50.1558 31.5888 50.1925 28.2128 49.5253C24.8368 48.8581 21.6348 47.5013 18.8072 45.5399C15.9796 43.5785 13.5872 41.0546 11.7797 38.1261C9.9722 35.1977 8.78853 31.9278 8.30273 28.5209C9.51388 28.2782 10.6999 27.9236 11.8455 27.4617" fill="#181818"/>
<path d="M33.0569 1.34077e-08C37.8676 -0.000157518 42.5761 1.38785 46.6175 3.99746C50.6589 6.60707 53.8614 10.3274 55.8407 14.712C57.82 19.0967 58.4921 23.9593 57.7762 28.7164C57.0604 33.4736 54.987 37.9231 51.805 41.531C46.0686 47.6575 37.476 48.3547 30.9605 43.0622C28.3189 40.9019 26.4515 37.9411 25.6401 34.6265C25.3832 33.5793 25.2396 32.5074 25.2116 31.4295C25.1504 29.1411 25.6559 26.8732 26.683 24.8273C27.5347 23.1235 28.7911 21.6545 30.3423 20.5489C31.952 19.4101 33.8656 18.779 35.837 18.7365C36.289 18.7252 36.7412 18.7429 37.1909 18.7895C36.6292 18.1205 35.9476 17.5621 35.1812 17.1428C33.2736 16.1144 31.0192 16.1442 28.9113 16.7923C24.6078 18.1154 20.726 20.4516 17.1332 22.6038C14.3329 24.2852 4.28522 30.1352 0 23.3964C2.84654 24.2736 5.43694 24.0464 8.13615 23.0988C8.61519 16.8169 11.4484 10.9475 16.069 6.66472C20.6895 2.38196 26.7567 0.00166056 33.0569 1.34077e-08ZM49.9436 38.0595C51.9258 35.4961 53.2984 32.515 53.9575 29.3423C54.6165 26.1695 54.5447 22.8884 53.7474 19.7476C52.9501 16.6067 51.4483 13.6886 49.3558 11.2143C47.2634 8.74003 44.6351 6.77454 41.6702 5.46683C38.7054 4.15911 35.4817 3.54346 32.2436 3.66655C29.0055 3.78965 25.8379 4.64825 22.9809 6.17728C20.1238 7.70631 17.6523 9.86565 15.7537 12.4916C13.8551 15.1176 12.5792 18.1414 12.0227 21.3337C13.0598 20.78 14.1335 20.156 15.2612 19.479C19.0312 17.215 23.1142 14.7604 27.8376 13.3112C30.8045 12.3992 34.0468 12.3944 36.9011 13.9323C40.9099 16.3397 42.6606 20.5662 42.3342 25.6873C39.9787 22.8879 37.1678 22.3371 35.9179 22.3679C34.6626 22.3959 33.4443 22.7983 32.4194 23.5235C31.3938 24.2419 30.5474 25.2674 29.932 26.4759C29.1751 27.9838 28.8023 29.6553 28.8468 31.3418C28.8686 32.1605 28.9787 32.9744 29.1751 33.7695C29.7977 36.3113 31.2301 38.5816 33.2562 40.2378C38.6768 44.6434 45.7681 43.7979 49.9436 38.0595Z" fill="#6152D9"/>
<path d="M175.849 22.8014H179.303V16.5458L185.327 7.11799H181.407L177.599 13.4143L173.86 7.11799H169.827L175.853 16.6143L175.849 22.8014ZM153.744 22.8014H157.147V12.8421L164.74 22.8069H167.673V7.13094H164.273V16.7828L156.929 7.13094H153.747L153.744 22.8014ZM140.89 16.2402L142.973 11.155L145.055 16.2402H140.89ZM134.708 22.8014H138.227L139.66 19.2828H146.288L147.721 22.8014H151.34L144.619 7.01243H141.431L134.708 22.8014ZM126.11 15.0236V10.231H128.773C130.499 10.231 131.573 11.0587 131.573 12.605V12.6495C131.573 13.9939 130.566 15.0236 128.842 15.0236H126.11ZM122.66 22.8014H126.11V18.0977H128.729C132.247 18.0977 135.068 16.218 135.068 12.5902V12.5458C135.068 9.34207 132.805 7.12539 129.066 7.12539H122.664L122.66 22.8014ZM103.216 22.8014H106.597V12.6347L110.969 19.2625H111.058L115.469 12.5662V22.8014H118.897V7.12539H115.184L111.064 13.7532L106.943 7.12539H103.225L103.216 22.8014ZM91.8397 19.8903C89.0619 19.8903 87.0915 17.6513 87.0915 14.9624V14.918C87.0915 12.231 89.0174 10.0365 91.7952 10.0365C94.573 10.0365 96.5415 12.2754 96.5415 14.9624V15.0087C96.5508 17.6958 94.6249 19.8903 91.8489 19.8903H91.8397ZM91.7952 23.0699C96.6323 23.0699 100.147 19.4199 100.147 14.9624V14.918C100.147 10.4624 96.6767 6.85687 91.8397 6.85687C87.0026 6.85687 83.4859 10.5069 83.4859 14.9624V15.0087C83.4952 19.4643 86.9656 23.0699 91.8045 23.0699H91.7952ZM75.447 23.0699C78.4692 23.0699 80.2618 21.9958 81.873 20.2717L79.6785 18.0495C78.447 19.1606 77.3489 19.8847 75.5581 19.8847C72.8711 19.8847 71.0118 17.6458 71.0118 14.9569V14.9125C71.0118 12.2254 72.9155 10.0309 75.5581 10.0309C77.1248 10.0309 78.3581 10.7032 79.5674 11.7995L81.7619 9.26983C80.3063 7.8365 78.5359 6.85132 75.5803 6.85132C70.7655 6.85132 67.4062 10.5013 67.4062 14.9569V15.0032C67.4155 19.5088 70.8414 23.0699 75.4563 23.0699H75.447Z" fill="#181818"/>
<path d="M167.718 42.8236H175.584V40.8014H169.977V38.6328H174.846V36.6106H169.977V34.5162H175.51V32.4921H167.718V42.8236ZM148.89 42.8236H151.132V36.2569L156.133 42.8236H158.066V32.4921H155.825V38.8532L150.977 32.4921H148.89V42.8236ZM136.853 42.8236H139.127V32.4921H136.862L136.853 42.8236ZM120.445 42.8236H127.868V40.7569H122.727V32.4921H120.455L120.445 42.8236ZM106.677 43.0088C108.298 43.0141 109.865 42.4318 111.09 41.3699V36.8828H106.614V38.8458H108.901V40.3273C108.27 40.7532 107.521 40.9702 106.76 40.9477C104.93 40.9477 103.632 39.5606 103.632 37.6717V37.6421C103.632 35.8865 104.945 34.4236 106.595 34.4236C107.792 34.4236 108.501 34.8088 109.297 35.4717L110.729 33.7458C109.651 32.831 108.53 32.3291 106.669 32.3291C103.542 32.3291 101.255 34.7365 101.255 37.6717V37.7013C101.256 40.7421 103.469 43.0014 106.686 43.0014L106.677 43.0088ZM86.7359 38.4958L88.1082 35.1458L89.4804 38.4958H86.7359ZM82.6619 42.8199H84.9804L85.9248 40.5032H90.2934L91.2378 42.8199H93.6138L89.186 32.4162H87.0878L82.6619 42.8199ZM70.5489 42.8199H72.8285V34.5884H75.9767V32.4921H67.4062V34.5884H70.5544L70.5489 42.8199Z" fill="#181818"/>
</svg>
