<svg width="188" height="50" viewBox="0 0 188 50" fill="none" xmlns="http://www.w3.org/2000/svg">
<path fill-rule="evenodd" clip-rule="evenodd" d="M18.3758 10.2896L54.1805 49.3868L19.4046 0L2.11914 21.6068L18.3758 10.2896Z" fill="#E8112B"/>
<path fill-rule="evenodd" clip-rule="evenodd" d="M16.7711 25.9763L48.358 50L17.8 16.9734L0.515625 29.9364L16.7711 25.9763Z" fill="#E8112B"/>
<path fill-rule="evenodd" clip-rule="evenodd" d="M53.2843 17.8425C54.6393 17.8425 55.9638 18.2443 57.0905 18.9971C58.2171 19.75 59.0952 20.82 59.6136 22.0718C60.1321 23.3237 60.2677 24.7012 60.0033 26.0301C59.7389 27.3591 59.0863 28.5798 58.1281 29.5378C57.1699 30.4958 55.9491 31.1482 54.6201 31.4124C53.2911 31.6766 51.9137 31.5408 50.6619 31.0221C49.4101 30.5035 48.3402 29.6252 47.5876 28.4984C46.835 27.3717 46.4334 26.0471 46.4336 24.6921C46.4339 22.8754 47.1558 21.1332 48.4405 19.8486C49.7252 18.5641 51.4676 17.8425 53.2843 17.8425Z" fill="#181818"/>
<path d="M177.838 22.8024H181.291V16.5468L187.315 7.11896H183.395L179.588 13.4153L175.849 7.11896H171.815L177.841 16.6153L177.838 22.8024ZM155.732 22.8024H159.136V12.8431L166.728 22.8079H169.662V7.13192H166.262V16.7838L158.917 7.13192H155.736L155.732 22.8024ZM142.878 16.2412L144.962 11.156L147.043 16.2412H142.878ZM136.697 22.8024H140.215L141.649 19.2838H148.276L149.71 22.8024H153.328L146.608 7.01341H143.419L136.697 22.8024ZM128.099 15.0246V10.2319H130.761C132.487 10.2319 133.562 11.0597 133.562 12.606V12.6505C133.562 13.9949 132.554 15.0246 130.83 15.0246H128.099ZM124.648 22.8024H128.099V18.0986H130.717C134.236 18.0986 137.056 16.219 137.056 12.5912V12.5468C137.056 9.34305 134.793 7.12637 131.054 7.12637H124.652L124.648 22.8024ZM105.204 22.8024H108.585V12.6357L112.958 19.2635H113.047L117.458 12.5671V22.8024H120.886V7.12637H117.173L113.052 13.7542L108.932 7.12637H105.213L105.204 22.8024ZM93.828 19.8913C91.0502 19.8913 89.0798 17.6523 89.0798 14.9634V14.919C89.0798 12.2319 91.0057 10.0375 93.7835 10.0375C96.5613 10.0375 98.5299 12.2764 98.5299 14.9634V15.0097C98.5391 17.6968 96.6132 19.8913 93.8372 19.8913H93.828ZM93.7835 23.0709C98.6206 23.0709 102.135 19.4209 102.135 14.9634V14.919C102.135 10.4634 98.665 6.85784 93.828 6.85784C88.9909 6.85784 85.4742 10.5079 85.4742 14.9634V15.0097C85.4835 19.4653 88.9539 23.0709 93.7928 23.0709H93.7835ZM77.4353 23.0709C80.4575 23.0709 82.2501 21.9968 83.8613 20.2727L81.6668 18.0505C80.4353 19.1616 79.3372 19.8857 77.5464 19.8857C74.8594 19.8857 73.0001 17.6468 73.0001 14.9579V14.9135C73.0001 12.2264 74.9038 10.0319 77.5464 10.0319C79.1131 10.0319 80.3464 10.7042 81.5557 11.8005L83.7502 9.27081C82.2946 7.83747 80.5242 6.85229 77.5686 6.85229C72.7538 6.85229 69.3945 10.5023 69.3945 14.9579V15.0042C69.4038 19.5098 72.8297 23.0709 77.4446 23.0709H77.4353Z" fill="#181818"/>
<path d="M169.706 42.8241H177.573V40.8019H171.965V38.6333H176.834V36.6111H171.965V34.5166H177.499V32.4926H169.706V42.8241ZM150.878 42.8241H153.121V36.2574L158.121 42.8241H160.054V32.4926H157.813V38.8537L152.965 32.4926H150.878V42.8241ZM138.841 42.8241H141.115V32.4926H138.85L138.841 42.8241ZM122.434 42.8241H129.856V40.7574H124.715V32.4926H122.443L122.434 42.8241ZM108.665 43.0093C110.286 43.0146 111.854 42.4323 113.078 41.3704V36.8833H108.602V38.8463H110.889V40.3278C110.258 40.7537 109.509 40.9707 108.748 40.9482C106.919 40.9482 105.621 39.5611 105.621 37.6722V37.6426C105.621 35.887 106.934 34.4241 108.584 34.4241C109.78 34.4241 110.489 34.8092 111.285 35.4722L112.717 33.7463C111.639 32.8314 110.519 32.3296 108.658 32.3296C105.53 32.3296 103.243 34.737 103.243 37.6722V37.7018C103.245 40.7426 105.458 43.0019 108.674 43.0019L108.665 43.0093ZM88.7242 38.4963L90.0965 35.1463L91.4687 38.4963H88.7242ZM84.6502 42.8204H86.9687L87.9131 40.5037H92.2817L93.2261 42.8204H95.6021L91.1743 32.4166H89.0761L84.6502 42.8204ZM72.5371 42.8204H74.8168V34.5889H77.9649V32.4926H69.3945V34.5889H72.5427L72.5371 42.8204Z" fill="#181818"/>
</svg>
