<svg width="186" height="50" viewBox="0 0 186 50" fill="none" xmlns="http://www.w3.org/2000/svg">
<path d="M176.036 22.8023H179.49V16.5467L185.514 7.11896H181.594L177.786 13.4152L174.047 7.11896H170.014L176.04 16.6153L176.036 22.8023ZM153.931 22.8023H157.334V12.843L164.927 22.8079H167.86V7.13192H164.46V16.7838L157.116 7.13192H153.934L153.931 22.8023ZM141.077 16.2412L143.16 11.156L145.242 16.2412H141.077ZM134.896 22.8023H138.414L139.847 19.2838H146.475L147.909 22.8023H151.527L144.807 7.01341H141.618L134.896 22.8023ZM126.297 15.0245V10.2319H128.96C130.686 10.2319 131.76 11.0597 131.76 12.606V12.6504C131.76 13.9949 130.753 15.0245 129.029 15.0245H126.297ZM122.847 22.8023H126.297V18.0986H128.916C132.434 18.0986 135.255 16.219 135.255 12.5912V12.5467C135.255 9.34304 132.992 7.12637 129.253 7.12637H122.851L122.847 22.8023ZM103.403 22.8023H106.784V12.6356L111.157 19.2634H111.246L115.657 12.5671V22.8023H119.084V7.12637H115.372L111.251 13.7542L107.131 7.12637H103.412L103.403 22.8023ZM92.0271 19.8912C89.2493 19.8912 87.2789 17.6523 87.2789 14.9634V14.9189C87.2789 12.2319 89.2049 10.0375 91.9826 10.0375C94.7604 10.0375 96.7289 12.2764 96.7289 14.9634V15.0097C96.7382 17.6967 94.8123 19.8912 92.0363 19.8912H92.0271ZM91.9826 23.0708C96.8197 23.0708 100.334 19.4208 100.334 14.9634V14.9189C100.334 10.4634 96.8641 6.85784 92.0271 6.85784C87.19 6.85784 83.6734 10.5078 83.6734 14.9634V15.0097C83.6826 19.4652 87.153 23.0708 91.9919 23.0708H91.9826ZM75.6345 23.0708C78.6567 23.0708 80.4493 21.9967 82.0604 20.2727L79.866 18.0504C78.6345 19.1615 77.5363 19.8856 75.7456 19.8856C73.0586 19.8856 71.1993 17.6467 71.1993 14.9579V14.9134C71.1993 12.2264 73.103 10.0319 75.7456 10.0319C77.3123 10.0319 78.5456 10.7041 79.7549 11.8004L81.9493 9.2708C80.4937 7.83747 78.7234 6.85229 75.7678 6.85229C70.953 6.85229 67.5938 10.5023 67.5938 14.9579V15.0042C67.603 19.5097 71.0289 23.0708 75.6438 23.0708H75.6345Z" fill="#181818"/>
<path d="M167.905 42.824H175.772V40.8018H170.164V38.6333H175.033V36.6111H170.164V34.5166H175.697V32.4926H167.905V42.824ZM149.077 42.824H151.32V36.2574L156.32 42.824H158.253V32.4926H156.012V38.8537L151.164 32.4926H149.077V42.824ZM137.04 42.824H139.314V32.4926H137.049L137.04 42.824ZM120.633 42.824H128.055V40.7574H122.914V32.4926H120.642L120.633 42.824ZM106.864 43.0092C108.485 43.0145 110.053 42.4323 111.277 41.3703V36.8833H106.801V38.8463H109.088V40.3278C108.457 40.7537 107.708 40.9707 106.947 40.9481C105.118 40.9481 103.82 39.5611 103.82 37.6722V37.6426C103.82 35.887 105.133 34.424 106.783 34.424C107.979 34.424 108.688 34.8092 109.484 35.4722L110.916 33.7463C109.838 32.8314 108.718 32.3296 106.857 32.3296C103.729 32.3296 101.442 34.737 101.442 37.6722V37.7018C101.444 40.7426 103.657 43.0018 106.873 43.0018L106.864 43.0092ZM86.9234 38.4963L88.2956 35.1463L89.6678 38.4963H86.9234ZM82.8493 42.8203H85.1678L86.1123 40.5037H90.4808L91.4252 42.8203H93.8012L89.3734 32.4166H87.2752L82.8493 42.8203ZM70.7363 42.8203H73.016V34.5889H76.1641V32.4926H67.5938V34.5889H70.7419L70.7363 42.8203Z" fill="#181818"/>
<path fill-rule="evenodd" clip-rule="evenodd" d="M40.5682 37.2979L20.8767 14.8796L17.9062 20.0246L36.6814 36.766L26.9584 50.0001H28.6164L40.5682 37.2979Z" fill="#E8112B"/>
<path fill-rule="evenodd" clip-rule="evenodd" d="M22.2676 12.4721L48.0223 36.7659L38.2994 50H58.3355L43.9015 24.9995L29.4685 0L22.2676 12.4721Z" fill="#181818"/>
<path fill-rule="evenodd" clip-rule="evenodd" d="M29.2285 37.2976L16.5836 22.3152L15.0343 24.9993L13.9199 26.9291L25.3281 36.7656L15.6051 49.9998H17.2767L29.2285 37.2976Z" fill="#E8112B"/>
<path fill-rule="evenodd" clip-rule="evenodd" d="M17.874 37.2976L12.5873 29.2366L0.599609 49.9998H5.92219L17.874 37.2976Z" fill="#E8112B"/>
</svg>
