<svg width="49" height="50" viewBox="0 0 49 50" fill="none" xmlns="http://www.w3.org/2000/svg">
<path fill-rule="evenodd" clip-rule="evenodd" d="M25.0018 41.2983V31.6965H15.3828V25.4253H25.0018H31.2559V31.6965V41.2983H25.0018Z" fill="#E8112B"/>
<path fill-rule="evenodd" clip-rule="evenodd" d="M33.7023 32.5967V22.9777H24.0996V16.7236H33.7023H39.9563V22.9777V32.5967H33.7023Z" fill="#181818"/>
<path fill-rule="evenodd" clip-rule="evenodd" d="M42.4027 23.8782V14.2756H32.8008V8.02148H40.6522H42.4027H48.6233H48.6738V8.05569V14.2756V16.0431V23.8782H42.4027Z" fill="#E8112B"/>
<path fill-rule="evenodd" clip-rule="evenodd" d="M42.4028 49.9999H25V43.7458H42.4028V26.3252H48.6739V43.7458V49.9999H42.4028Z" fill="#181818"/>
<path fill-rule="evenodd" clip-rule="evenodd" d="M15.2969 8.02148H30.3546V14.2756H15.2969V8.02148Z" fill="#E8112B"/>
<path fill-rule="evenodd" clip-rule="evenodd" d="M12.9338 31.6963H6.67969V16.6387H12.9338V31.6963Z" fill="#E8112B"/>
<path fill-rule="evenodd" clip-rule="evenodd" d="M6.67969 34.1431H16.2816H22.5527V40.3971V49.9998H16.2816V44.816L11.1157 49.9998L6.67969 45.5809L11.8634 40.3971H6.67969V34.1431Z" fill="#181818"/>
<path d="M12.9338 8.02148H6.67969V14.2756H12.9338V8.02148Z" fill="#E8112B"/>
<path d="M15.77 0H11.1133V4.65675H15.77V0Z" fill="#E8112B"/>
<path d="M7.47754 1.58008H0V9.05761H7.47754V1.58008Z" fill="#E8112B"/>
</svg>
