<svg width="559" height="225" viewBox="0 0 559 225" fill="none" xmlns="http://www.w3.org/2000/svg">
<path d="M198.719 169.864V150.051H203.126V169.864H198.719ZM219.994 169.864V153.737H214.522V150.051H229.872V153.737H224.4V169.864H219.994ZM265.048 170.224C263.713 170.224 262.408 169.989 261.131 169.519C259.864 169.039 258.726 168.314 257.718 167.344L260.065 164.465C260.766 165.098 261.568 165.588 262.47 165.933C263.382 166.269 264.27 166.437 265.134 166.437C266.094 166.437 266.809 166.26 267.28 165.905C267.76 165.549 268 165.069 268 164.465C268 163.821 267.736 163.351 267.208 163.053C266.68 162.756 265.979 162.425 265.105 162.06L262.528 160.966C261.846 160.678 261.198 160.298 260.584 159.828C259.969 159.348 259.47 158.758 259.086 158.057C258.702 157.347 258.51 156.511 258.51 155.551C258.51 154.467 258.813 153.483 259.417 152.6C260.022 151.707 260.857 151.001 261.923 150.483C262.989 149.955 264.203 149.691 265.566 149.691C266.756 149.691 267.904 149.907 269.007 150.339C270.111 150.771 271.071 151.376 271.887 152.153L269.583 155.033C268.23 154.006 266.891 153.492 265.566 153.492C264.779 153.492 264.15 153.651 263.68 153.967C263.219 154.284 262.989 154.731 262.989 155.307C262.989 155.931 263.277 156.401 263.853 156.718C264.428 157.035 265.153 157.366 266.027 157.711L268.547 158.719C269.766 159.218 270.726 159.89 271.427 160.735C272.137 161.58 272.492 162.713 272.492 164.133C272.492 165.228 272.199 166.236 271.614 167.157C271.028 168.079 270.179 168.823 269.065 169.389C267.961 169.946 266.622 170.224 265.048 170.224ZM284.133 169.864V150.051H296.531V153.737H288.539V157.798H295.321V161.513H288.539V166.193H296.833V169.864H284.133ZM309.007 169.864V150.051H316.121C317.522 150.051 318.799 150.238 319.951 150.612C321.103 150.987 322.024 151.62 322.715 152.513C323.407 153.406 323.752 154.635 323.752 156.199C323.752 157.706 323.407 158.94 322.715 159.9C322.024 160.85 321.103 161.556 319.951 162.017C318.799 162.468 317.522 162.693 316.121 162.693H313.413V169.864H309.007ZM313.413 159.209H315.761C318.208 159.209 319.432 158.206 319.432 156.199C319.432 155.201 319.12 154.51 318.496 154.126C317.872 153.742 316.961 153.55 315.761 153.55H313.413V159.209ZM319.764 169.864L315.3 161.513L318.367 158.719L324.659 169.864H319.764ZM339.18 169.864L333.305 150.051H337.942L340.246 159.353C340.524 160.447 340.788 161.508 341.038 162.535C341.287 163.553 341.561 164.609 341.859 165.703H341.974C342.281 164.609 342.55 163.553 342.78 162.535C343.011 161.508 343.27 160.447 343.558 159.353L346.049 150.051H350.556L344.436 169.864H339.18ZM360.944 169.864V150.051H365.35V169.864H360.944ZM386.596 170.224C384.925 170.224 383.394 169.84 382.002 169.072C380.61 168.304 379.492 167.172 378.647 165.674C377.812 164.167 377.395 162.305 377.395 160.087C377.395 158.446 377.644 156.982 378.143 155.695C378.642 154.409 379.324 153.319 380.188 152.427C381.052 151.534 382.046 150.857 383.169 150.396C384.292 149.926 385.477 149.691 386.725 149.691C388.002 149.691 389.144 149.94 390.152 150.44C391.17 150.939 392.01 151.539 392.672 152.24L390.34 154.918C389.85 154.467 389.322 154.116 388.756 153.867C388.189 153.617 387.551 153.492 386.841 153.492C385.919 153.492 385.084 153.751 384.335 154.27C383.596 154.788 383.006 155.527 382.564 156.487C382.132 157.447 381.916 158.594 381.916 159.929C381.916 161.983 382.358 163.581 383.241 164.724C384.124 165.866 385.295 166.437 386.754 166.437C387.58 166.437 388.314 166.289 388.957 165.991C389.6 165.684 390.172 165.257 390.671 164.709L392.989 167.316C392.135 168.304 391.17 169.039 390.095 169.519C389.02 169.989 387.853 170.224 386.596 170.224ZM404.241 169.864V150.051H416.639V153.737H408.648V157.798H415.43V161.513H408.648V166.193H416.942V169.864H404.241ZM435.163 170.224C433.829 170.224 432.523 169.989 431.247 169.519C429.979 169.039 428.842 168.314 427.834 167.344L430.181 164.465C430.882 165.098 431.683 165.588 432.586 165.933C433.498 166.269 434.386 166.437 435.25 166.437C436.21 166.437 436.925 166.26 437.395 165.905C437.875 165.549 438.115 165.069 438.115 164.465C438.115 163.821 437.851 163.351 437.323 163.053C436.795 162.756 436.094 162.425 435.221 162.06L432.643 160.966C431.962 160.678 431.314 160.298 430.699 159.828C430.085 159.348 429.586 158.758 429.202 158.057C428.818 157.347 428.626 156.511 428.626 155.551C428.626 154.467 428.928 153.483 429.533 152.6C430.138 151.707 430.973 151.001 432.038 150.483C433.104 149.955 434.318 149.691 435.682 149.691C436.872 149.691 438.019 149.907 439.123 150.339C440.227 150.771 441.187 151.376 442.003 152.153L439.699 155.033C438.345 154.006 437.006 153.492 435.682 153.492C434.894 153.492 434.266 153.651 433.795 153.967C433.334 154.284 433.104 154.731 433.104 155.307C433.104 155.931 433.392 156.401 433.968 156.718C434.544 157.035 435.269 157.366 436.142 157.711L438.662 158.719C439.881 159.218 440.841 159.89 441.542 160.735C442.252 161.58 442.608 162.713 442.608 164.133C442.608 165.228 442.315 166.236 441.729 167.157C441.144 168.079 440.294 168.823 439.181 169.389C438.077 169.946 436.737 170.224 435.163 170.224Z" fill="white"/>
<path d="M238.004 44.9172L238 24H312.085C322.86 25.1772 344.411 33.2905 344.411 56.3266C344.411 79.3627 322.86 87.476 312.085 88.6532L357.451 134.019H328.656L264.349 67.736H306.923C310.727 67.8265 318.333 65.6714 318.333 56.3266C318.333 46.9818 310.727 44.8267 306.923 44.9172H238.004Z" fill="url(#paint0_linear_1021_142)"/>
<path d="M259 64H238V134H259V64Z" fill="white"/>
<path d="M367.004 45.0266L367 24.1094H441.085C451.86 25.2865 473.411 33.3999 473.411 56.4359C473.411 79.472 451.86 87.5854 441.085 88.7625L486.451 134.128L486.027 162.499L393.349 67.8453H435.923C439.727 67.9359 447.333 65.7808 447.333 56.4359C447.333 47.0911 439.727 44.936 435.923 45.0266H367.004Z" fill="url(#paint1_linear_1021_142)"/>
<path d="M388 64H367V134H388V64Z" fill="url(#paint2_linear_1021_142)"/>
<path d="M115.929 97L69.8867 139.387C62.948 145.774 59 154.775 59 164.206V190.012L74.4623 174.5V151.118H97.7701L133.5 115.274L115.929 97Z" fill="white"/>
<path d="M143.5 102.207L129.207 116.5" stroke="white" stroke-width="4"/>
<path d="M226.108 29L164.715 92.1099V120.995L204.919 81.7909V134H226.108V29Z" fill="url(#paint3_linear_1021_142)"/>
<path d="M217.499 0.324219L168.23 49.5936C165.979 51.8441 164.715 54.8963 164.715 58.0789V81.9939L210.47 36.2392C214.97 31.7383 217.499 25.6338 217.499 19.2686V0.324219Z" fill="white"/>
<path d="M123.085 53.5232L160.111 92.1083V120.993L122.5 84.382V53.7586C122.5 53.4523 122.873 53.3022 123.085 53.5232Z" fill="white" stroke="white" stroke-width="0.543304"/>
<path d="M120.117 13.3984L160.112 53.1104V81.9959L120.117 42.0005L97.415 64.7024C92.9141 69.2033 86.8096 71.7319 80.4444 71.7319H61.5L120.117 13.3984Z" fill="white"/>
<path d="M73.5 63L58 77H14" stroke="white" stroke-width="4"/>
<path d="M15 76.5C15 80.6421 11.6421 84 7.5 84C3.35786 84 0 80.6421 0 76.5C0 72.3579 3.35786 69 7.5 69C11.6421 69 15 72.3579 15 76.5ZM5.16768 76.5C5.16768 77.7881 6.21189 78.8323 7.5 78.8323C8.78811 78.8323 9.83232 77.7881 9.83232 76.5C9.83232 75.2119 8.78811 74.1677 7.5 74.1677C6.21189 74.1677 5.16768 75.2119 5.16768 76.5Z" fill="white"/>
<path d="M124.001 55L85.0038 98.417L41.0039 98.9976" stroke="white" stroke-width="4"/>
<mask id="mask0_1021_142" style="mask-type:luminance" maskUnits="userSpaceOnUse" x="27" y="91" width="15" height="15">
<path d="M42 98.5C42 102.642 38.6421 106 34.5 106C30.3579 106 27 102.642 27 98.5C27 94.3579 30.3579 91 34.5 91C38.6421 91 42 94.3579 42 98.5ZM32.1677 98.5C32.1677 99.7881 33.2119 100.832 34.5 100.832C35.7881 100.832 36.8323 99.7881 36.8323 98.5C36.8323 97.2119 35.7881 96.1677 34.5 96.1677C33.2119 96.1677 32.1677 97.2119 32.1677 98.5Z" fill="white"/>
</mask>
<g mask="url(#mask0_1021_142)">
<path d="M42 98.5C42 102.642 38.6421 106 34.5 106C30.3579 106 27 102.642 27 98.5C27 94.3579 30.3579 91 34.5 91C38.6421 91 42 94.3579 42 98.5ZM32.1677 98.5C32.1677 99.7881 33.2119 100.832 34.5 100.832C35.7881 100.832 36.8323 99.7881 36.8323 98.5C36.8323 97.2119 35.7881 96.1677 34.5 96.1677C33.2119 96.1677 32.1677 97.2119 32.1677 98.5Z" fill="white" stroke="white" stroke-width="2"/>
</g>
<path d="M74.2109 204.708L113.208 161.291L157.208 160.711" stroke="white" stroke-width="4"/>
<mask id="mask1_1021_142" style="mask-type:luminance" maskUnits="userSpaceOnUse" x="63" y="201" width="15" height="16">
<path d="M78 208.707C78 204.565 74.6421 201.207 70.5 201.207C66.3579 201.207 63 204.565 63 208.707C63 212.849 66.3579 216.207 70.5 216.207C74.6421 216.207 78 212.849 78 208.707ZM68.1677 208.707C68.1677 207.419 69.2119 206.375 70.5 206.375C71.7881 206.375 72.8323 207.419 72.8323 208.707C72.8323 209.995 71.7881 211.04 70.5 211.04C69.2119 211.04 68.1677 209.995 68.1677 208.707Z" fill="white"/>
</mask>
<g mask="url(#mask1_1021_142)">
<path d="M78 208.707C78 204.565 74.6421 201.207 70.5 201.207C66.3579 201.207 63 204.565 63 208.707C63 212.849 66.3579 216.207 70.5 216.207C74.6421 216.207 78 212.849 78 208.707ZM68.1677 208.707C68.1677 207.419 69.2119 206.375 70.5 206.375C71.7881 206.375 72.8323 207.419 72.8323 208.707C72.8323 209.995 71.7881 211.04 70.5 211.04C69.2119 211.04 68.1677 209.995 68.1677 208.707Z" fill="white" stroke="white" stroke-width="2"/>
</g>
<mask id="mask2_1021_142" style="mask-type:luminance" maskUnits="userSpaceOnUse" x="153" y="153" width="15" height="16">
<path d="M168 160.707C168 156.565 164.642 153.207 160.5 153.207C156.358 153.207 153 156.565 153 160.707C153 164.849 156.358 168.207 160.5 168.207C164.642 168.207 168 164.849 168 160.707ZM158.168 160.707C158.168 159.419 159.212 158.375 160.5 158.375C161.788 158.375 162.832 159.419 162.832 160.707C162.832 161.995 161.788 163.04 160.5 163.04C159.212 163.04 158.168 161.995 158.168 160.707Z" fill="white"/>
</mask>
<g mask="url(#mask2_1021_142)">
<path d="M168 160.707C168 156.565 164.642 153.207 160.5 153.207C156.358 153.207 153 156.565 153 160.707C153 164.849 156.358 168.207 160.5 168.207C164.642 168.207 168 164.849 168 160.707ZM158.168 160.707C158.168 159.419 159.212 158.375 160.5 158.375C161.788 158.375 162.832 159.419 162.832 160.707C162.832 161.995 161.788 163.04 160.5 163.04C159.212 163.04 158.168 161.995 158.168 160.707Z" fill="white" stroke="white" stroke-width="2"/>
</g>
<path d="M474.211 88.7084L503.208 55.2915L547.208 54.7109" stroke="white" stroke-width="4"/>
<mask id="mask3_1021_142" style="mask-type:luminance" maskUnits="userSpaceOnUse" x="463" y="85" width="15" height="16">
<path d="M478 92.707C478 88.5649 474.642 85.207 470.5 85.207C466.358 85.207 463 88.5649 463 92.707C463 96.8491 466.358 100.207 470.5 100.207C474.642 100.207 478 96.8491 478 92.707ZM468.168 92.707C468.168 91.4189 469.212 90.3747 470.5 90.3747C471.788 90.3747 472.832 91.4189 472.832 92.707C472.832 93.9951 471.788 95.0393 470.5 95.0393C469.212 95.0393 468.168 93.9951 468.168 92.707Z" fill="white"/>
</mask>
<g mask="url(#mask3_1021_142)">
<path d="M478 92.707C478 88.5649 474.642 85.207 470.5 85.207C466.358 85.207 463 88.5649 463 92.707C463 96.8491 466.358 100.207 470.5 100.207C474.642 100.207 478 96.8491 478 92.707ZM468.168 92.707C468.168 91.4189 469.212 90.3747 470.5 90.3747C471.788 90.3747 472.832 91.4189 472.832 92.707C472.832 93.9951 471.788 95.0393 470.5 95.0393C469.212 95.0393 468.168 93.9951 468.168 92.707Z" fill="white" stroke="white" stroke-width="2"/>
</g>
<mask id="mask4_1021_142" style="mask-type:luminance" maskUnits="userSpaceOnUse" x="544" y="47" width="15" height="16">
<path d="M559 54.707C559 50.5649 555.642 47.207 551.5 47.207C547.358 47.207 544 50.5649 544 54.707C544 58.8491 547.358 62.207 551.5 62.207C555.642 62.207 559 58.8491 559 54.707ZM549.168 54.707C549.168 53.4189 550.212 52.3747 551.5 52.3747C552.788 52.3747 553.832 53.4189 553.832 54.707C553.832 55.9951 552.788 57.0393 551.5 57.0393C550.212 57.0393 549.168 55.9951 549.168 54.707Z" fill="white"/>
</mask>
<g mask="url(#mask4_1021_142)">
<path d="M559 54.707C559 50.5649 555.642 47.207 551.5 47.207C547.358 47.207 544 50.5649 544 54.707C544 58.8491 547.358 62.207 551.5 62.207C555.642 62.207 559 58.8491 559 54.707ZM549.168 54.707C549.168 53.4189 550.212 52.3747 551.5 52.3747C552.788 52.3747 553.832 53.4189 553.832 54.707C553.832 55.9951 552.788 57.0393 551.5 57.0393C550.212 57.0393 549.168 55.9951 549.168 54.707Z" fill="white" stroke="white" stroke-width="2"/>
</g>
<path d="M484.5 34L469 48" stroke="white" stroke-width="4"/>
<mask id="mask5_1021_142" style="mask-type:luminance" maskUnits="userSpaceOnUse" x="482" y="22" width="15" height="15">
<path d="M497 29.5C497 33.6421 493.642 37 489.5 37C485.358 37 482 33.6421 482 29.5C482 25.3579 485.358 22 489.5 22C493.642 22 497 25.3579 497 29.5ZM487.168 29.5C487.168 30.7881 488.212 31.8323 489.5 31.8323C490.788 31.8323 491.832 30.7881 491.832 29.5C491.832 28.2119 490.788 27.1677 489.5 27.1677C488.212 27.1677 487.168 28.2119 487.168 29.5Z" fill="white"/>
</mask>
<g mask="url(#mask5_1021_142)">
<path d="M497 29.5C497 33.6421 493.642 37 489.5 37C485.358 37 482 33.6421 482 29.5C482 25.3579 485.358 22 489.5 22C493.642 22 497 25.3579 497 29.5ZM487.168 29.5C487.168 30.7881 488.212 31.8323 489.5 31.8323C490.788 31.8323 491.832 30.7881 491.832 29.5C491.832 28.2119 490.788 27.1677 489.5 27.1677C488.212 27.1677 487.168 28.2119 487.168 29.5Z" fill="white" stroke="white" stroke-width="2"/>
</g>
<mask id="mask6_1021_142" style="mask-type:luminance" maskUnits="userSpaceOnUse" x="502" y="72" width="15" height="15">
<path d="M517 79.5C517 83.6421 513.642 87 509.5 87C505.358 87 502 83.6421 502 79.5C502 75.3579 505.358 72 509.5 72C513.642 72 517 75.3579 517 79.5ZM507.168 79.5C507.168 80.7881 508.212 81.8323 509.5 81.8323C510.788 81.8323 511.832 80.7881 511.832 79.5C511.832 78.2119 510.788 77.1677 509.5 77.1677C508.212 77.1677 507.168 78.2119 507.168 79.5Z" fill="white"/>
</mask>
<g mask="url(#mask6_1021_142)">
<path d="M517 79.5C517 83.6421 513.642 87 509.5 87C505.358 87 502 83.6421 502 79.5C502 75.3579 505.358 72 509.5 72C513.642 72 517 75.3579 517 79.5ZM507.168 79.5C507.168 80.7881 508.212 81.8323 509.5 81.8323C510.788 81.8323 511.832 80.7881 511.832 79.5C511.832 78.2119 510.788 77.1677 509.5 77.1677C508.212 77.1677 507.168 78.2119 507.168 79.5Z" fill="white" stroke="white" stroke-width="2"/>
</g>
<mask id="mask7_1021_142" style="mask-type:luminance" maskUnits="userSpaceOnUse" x="486" y="99" width="15" height="15">
<path d="M501 106.5C501 110.642 497.642 114 493.5 114C489.358 114 486 110.642 486 106.5C486 102.358 489.358 99 493.5 99C497.642 99 501 102.358 501 106.5ZM491.168 106.5C491.168 107.788 492.212 108.832 493.5 108.832C494.788 108.832 495.832 107.788 495.832 106.5C495.832 105.212 494.788 104.168 493.5 104.168C492.212 104.168 491.168 105.212 491.168 106.5Z" fill="white"/>
</mask>
<g mask="url(#mask7_1021_142)">
<path d="M501 106.5C501 110.642 497.642 114 493.5 114C489.358 114 486 110.642 486 106.5C486 102.358 489.358 99 493.5 99C497.642 99 501 102.358 501 106.5ZM491.168 106.5C491.168 107.788 492.212 108.832 493.5 108.832C494.788 108.832 495.832 107.788 495.832 106.5C495.832 105.212 494.788 104.168 493.5 104.168C492.212 104.168 491.168 105.212 491.168 106.5Z" fill="white" stroke="white" stroke-width="2"/>
</g>
<mask id="mask8_1021_142" style="mask-type:luminance" maskUnits="userSpaceOnUse" x="502" y="127" width="15" height="15">
<path d="M517 134.5C517 138.642 513.642 142 509.5 142C505.358 142 502 138.642 502 134.5C502 130.358 505.358 127 509.5 127C513.642 127 517 130.358 517 134.5ZM507.168 134.5C507.168 135.788 508.212 136.832 509.5 136.832C510.788 136.832 511.832 135.788 511.832 134.5C511.832 133.212 510.788 132.168 509.5 132.168C508.212 132.168 507.168 133.212 507.168 134.5Z" fill="white"/>
</mask>
<g mask="url(#mask8_1021_142)">
<path d="M517 134.5C517 138.642 513.642 142 509.5 142C505.358 142 502 138.642 502 134.5C502 130.358 505.358 127 509.5 127C513.642 127 517 130.358 517 134.5ZM507.168 134.5C507.168 135.788 508.212 136.832 509.5 136.832C510.788 136.832 511.832 135.788 511.832 134.5C511.832 133.212 510.788 132.168 509.5 132.168C508.212 132.168 507.168 133.212 507.168 134.5Z" fill="white" stroke="white" stroke-width="2"/>
</g>
<path d="M496 101.999L508.208 83.2891" stroke="white" stroke-width="4"/>
<path d="M495.5 111L505.708 130.21" stroke="white" stroke-width="4"/>
<path d="M507 170.5C507 174.642 503.642 178 499.5 178C495.358 178 492 174.642 492 170.5C492 166.358 495.358 163 499.5 163C503.642 163 507 166.358 507 170.5ZM497.168 170.5C497.168 171.788 498.212 172.832 499.5 172.832C500.788 172.832 501.832 171.788 501.832 170.5C501.832 169.212 500.788 168.168 499.5 168.168C498.212 168.168 497.168 169.212 497.168 170.5Z" fill="white"/>
<path d="M498 109.499L506.497 96.9986L540.497 96.418" stroke="white" stroke-width="4"/>
<mask id="mask9_1021_142" style="mask-type:luminance" maskUnits="userSpaceOnUse" x="537" y="89" width="15" height="15">
<path d="M552 96.5C552 92.3579 548.642 89 544.5 89C540.358 89 537 92.3579 537 96.5C537 100.642 540.358 104 544.5 104C548.642 104 552 100.642 552 96.5ZM542.168 96.5C542.168 95.2119 543.212 94.1677 544.5 94.1677C545.788 94.1677 546.832 95.2119 546.832 96.5C546.832 97.7881 545.788 98.8323 544.5 98.8323C543.212 98.8323 542.168 97.7881 542.168 96.5Z" fill="white"/>
</mask>
<g mask="url(#mask9_1021_142)">
<path d="M552 96.5C552 92.3579 548.642 89 544.5 89C540.358 89 537 92.3579 537 96.5C537 100.642 540.358 104 544.5 104C548.642 104 552 100.642 552 96.5ZM542.168 96.5C542.168 95.2119 543.212 94.1677 544.5 94.1677C545.788 94.1677 546.832 95.2119 546.832 96.5C546.832 97.7881 545.788 98.8323 544.5 98.8323C543.212 98.8323 542.168 97.7881 542.168 96.5Z" fill="white" stroke="white" stroke-width="2"/>
</g>
<defs>
<linearGradient id="paint0_linear_1021_142" x1="297.725" y1="24" x2="297.725" y2="134.019" gradientUnits="userSpaceOnUse">
<stop offset="0.294855" stop-color="white"/>
<stop offset="0.559593" stop-color="white"/>
</linearGradient>
<linearGradient id="paint1_linear_1021_142" x1="426.725" y1="24.1094" x2="426.725" y2="162.499" gradientUnits="userSpaceOnUse">
<stop offset="0.19" stop-color="white"/>
<stop offset="0.632196" stop-color="white"/>
</linearGradient>
<linearGradient id="paint2_linear_1021_142" x1="377.5" y1="64" x2="377.5" y2="134" gradientUnits="userSpaceOnUse">
<stop offset="0.19" stop-color="white"/>
<stop offset="0.632196" stop-color="white"/>
</linearGradient>
<linearGradient id="paint3_linear_1021_142" x1="195.411" y1="29" x2="195.411" y2="134" gradientUnits="userSpaceOnUse">
<stop offset="0.5" stop-color="white"/>
<stop offset="1" stop-color="white"/>
</linearGradient>
</defs>
</svg>
