<svg width="161" height="52" viewBox="0 0 161 52" fill="none" xmlns="http://www.w3.org/2000/svg">
<g clip-path="url(#clip0_1115_96)">
<mask id="mask0_1115_96" style="mask-type:luminance" maskUnits="userSpaceOnUse" x="-52" y="0" width="212" height="50">
<path d="M159.938 0H-51.062V50H159.938V0Z" fill="white"/>
</mask>
<g mask="url(#mask0_1115_96)">
<path d="M10.213 25.25C8.9463 25.25 7.763 25.025 6.663 24.575C5.563 24.1083 4.5963 23.4667 3.763 22.65C2.9297 21.8333 2.2797 20.8833 1.813 19.8C1.363 18.7 1.138 17.5167 1.138 16.25C1.138 15 1.363 13.8333 1.813 12.75C2.2797 11.6667 2.9213 10.725 3.738 9.925C4.5713 9.10833 5.538 8.475 6.638 8.025C7.738 7.575 8.9213 7.35 10.188 7.35C11.0713 7.35 11.9297 7.475 12.763 7.725C13.613 7.975 14.3797 8.325 15.063 8.775C15.7463 9.225 16.3047 9.74167 16.738 10.325L14.988 12.15C14.488 11.6667 13.9713 11.2667 13.438 10.95C12.9213 10.6333 12.388 10.3917 11.838 10.225C11.288 10.0583 10.738 9.975 10.188 9.975C9.288 9.975 8.4547 10.1333 7.688 10.45C6.938 10.7667 6.2713 11.2083 5.688 11.775C5.1213 12.3417 4.6797 13.0083 4.363 13.775C4.0463 14.525 3.888 15.35 3.888 16.25C3.888 17.1167 4.0547 17.9417 4.388 18.725C4.7213 19.4917 5.1797 20.1667 5.763 20.75C6.363 21.3333 7.0463 21.7917 7.813 22.125C8.5963 22.4583 9.4213 22.625 10.288 22.625C10.938 22.625 11.5547 22.5333 12.138 22.35C12.7213 22.15 13.238 21.875 13.688 21.525C14.138 21.175 14.488 20.775 14.738 20.325C14.988 19.8583 15.113 19.3667 15.113 18.85V18.35L15.488 18.7H10.138V16.025H17.888C17.9213 16.2083 17.9463 16.3917 17.963 16.575C17.9797 16.7417 17.988 16.9083 17.988 17.075C18.0047 17.225 18.013 17.375 18.013 17.525C18.013 18.675 17.813 19.725 17.413 20.675C17.013 21.6083 16.4547 22.4167 15.738 23.1C15.038 23.7833 14.213 24.3167 13.263 24.7C12.3297 25.0667 11.313 25.25 10.213 25.25ZM26.7786 25.25C25.4953 25.25 24.3453 24.9583 23.3286 24.375C22.3286 23.775 21.537 22.9667 20.9536 21.95C20.3703 20.9167 20.0786 19.7417 20.0786 18.425C20.0786 17.1083 20.3703 15.9417 20.9536 14.925C21.537 13.8917 22.3286 13.0833 23.3286 12.5C24.3453 11.9 25.4953 11.6 26.7786 11.6C28.0453 11.6 29.1786 11.9 30.1786 12.5C31.1953 13.0833 31.9953 13.8917 32.5786 14.925C33.162 15.9417 33.4536 17.1083 33.4536 18.425C33.4536 19.7417 33.162 20.9167 32.5786 21.95C31.9953 22.9667 31.1953 23.775 30.1786 24.375C29.1786 24.9583 28.0453 25.25 26.7786 25.25ZM26.7786 22.9C27.562 22.9 28.262 22.7083 28.8786 22.325C29.4953 21.925 29.9786 21.3917 30.3286 20.725C30.6786 20.0417 30.8453 19.275 30.8286 18.425C30.8453 17.5583 30.6786 16.7917 30.3286 16.125C29.9786 15.4417 29.4953 14.9083 28.8786 14.525C28.262 14.1417 27.562 13.95 26.7786 13.95C25.9953 13.95 25.287 14.15 24.6536 14.55C24.037 14.9333 23.5536 15.4667 23.2036 16.15C22.8536 16.8167 22.687 17.575 22.7036 18.425C22.687 19.275 22.8536 20.0417 23.2036 20.725C23.5536 21.3917 24.037 21.925 24.6536 22.325C25.287 22.7083 25.9953 22.9 26.7786 22.9ZM51.741 25.25C50.475 25.25 49.291 25.025 48.1913 24.575C47.0913 24.1083 46.1247 23.4667 45.2913 22.65C44.458 21.8333 43.808 20.8833 43.3413 19.8C42.8913 18.7 42.6663 17.5167 42.6663 16.25C42.6663 15 42.8913 13.8333 43.3413 12.75C43.808 11.6667 44.4497 10.725 45.2663 9.925C46.0997 9.10833 47.0663 8.475 48.1663 8.025C49.266 7.575 50.45 7.35 51.716 7.35C52.6 7.35 53.458 7.475 54.291 7.725C55.141 7.975 55.908 8.325 56.591 8.775C57.275 9.225 57.833 9.74167 58.266 10.325L56.516 12.15C56.016 11.6667 55.5 11.2667 54.966 10.95C54.45 10.6333 53.916 10.3917 53.366 10.225C52.816 10.0583 52.266 9.975 51.716 9.975C50.816 9.975 49.983 10.1333 49.216 10.45C48.4663 10.7667 47.7997 11.2083 47.2163 11.775C46.6497 12.3417 46.208 13.0083 45.8913 13.775C45.5747 14.525 45.4163 15.35 45.4163 16.25C45.4163 17.1167 45.583 17.9417 45.9163 18.725C46.2497 19.4917 46.708 20.1667 47.2913 20.75C47.8913 21.3333 48.5747 21.7917 49.341 22.125C50.125 22.4583 50.95 22.625 51.816 22.625C52.466 22.625 53.083 22.5333 53.666 22.35C54.25 22.15 54.766 21.875 55.216 21.525C55.666 21.175 56.016 20.775 56.266 20.325C56.516 19.8583 56.641 19.3667 56.641 18.85V18.35L57.016 18.7H51.666V16.025H59.416C59.45 16.2083 59.475 16.3917 59.491 16.575C59.508 16.7417 59.516 16.9083 59.516 17.075C59.533 17.225 59.541 17.375 59.541 17.525C59.541 18.675 59.341 19.725 58.941 20.675C58.541 21.6083 57.983 22.4167 57.266 23.1C56.566 23.7833 55.741 24.3167 54.791 24.7C53.858 25.0667 52.841 25.25 51.741 25.25ZM68.532 25.25C67.182 25.25 65.982 24.9667 64.932 24.4C63.899 23.8167 63.082 23.025 62.482 22.025C61.899 21.025 61.607 19.875 61.607 18.575C61.607 17.5417 61.774 16.6 62.107 15.75C62.44 14.9 62.899 14.1667 63.482 13.55C64.082 12.9167 64.79 12.4333 65.607 12.1C66.44 11.75 67.34 11.575 68.307 11.575C69.157 11.575 69.949 11.7417 70.682 12.075C71.415 12.3917 72.049 12.8333 72.582 13.4C73.132 13.9667 73.549 14.6417 73.832 15.425C74.132 16.1917 74.274 17.0333 74.257 17.95L74.232 19.05H63.507L62.932 17H72.007L71.632 17.425V16.825C71.582 16.275 71.399 15.7833 71.082 15.35C70.765 14.9167 70.365 14.575 69.882 14.325C69.399 14.075 68.874 13.95 68.307 13.95C67.407 13.95 66.649 14.125 66.032 14.475C65.415 14.8083 64.949 15.3083 64.632 15.975C64.315 16.625 64.157 17.4333 64.157 18.4C64.157 19.3167 64.349 20.1167 64.732 20.8C65.115 21.4667 65.657 21.9833 66.357 22.35C67.057 22.7167 67.865 22.9 68.782 22.9C69.432 22.9 70.032 22.7917 70.582 22.575C71.149 22.3583 71.757 21.9667 72.407 21.4L73.707 23.225C73.307 23.625 72.815 23.975 72.232 24.275C71.665 24.575 71.057 24.8167 70.407 25C69.774 25.1667 69.149 25.25 68.532 25.25ZM78.68 25V8.525H81.255V25H78.68ZM75.955 14.375V11.875H84.305V14.375H75.955ZM91.578 25.25C90.495 25.25 89.503 24.95 88.603 24.35C87.72 23.75 87.011 22.9333 86.478 21.9C85.945 20.8667 85.678 19.7 85.678 18.4C85.678 17.0833 85.945 15.9167 86.478 14.9C87.028 13.8667 87.761 13.0583 88.678 12.475C89.611 11.8917 90.653 11.6 91.803 11.6C92.486 11.6 93.111 11.7 93.678 11.9C94.245 12.1 94.736 12.3833 95.153 12.75C95.586 13.1 95.936 13.5083 96.203 13.975C96.486 14.4417 96.661 14.9417 96.728 15.475L96.153 15.275V11.875H98.753V25H96.153V21.875L96.753 21.7C96.653 22.15 96.445 22.5917 96.128 23.025C95.828 23.4417 95.436 23.8167 94.953 24.15C94.486 24.4833 93.961 24.75 93.378 24.95C92.811 25.15 92.211 25.25 91.578 25.25ZM92.253 22.875C93.036 22.875 93.728 22.6833 94.328 22.3C94.928 21.9167 95.395 21.3917 95.728 20.725C96.078 20.0417 96.253 19.2667 96.253 18.4C96.253 17.55 96.078 16.7917 95.728 16.125C95.395 15.4583 94.928 14.9333 94.328 14.55C93.728 14.1667 93.036 13.975 92.253 13.975C91.486 13.975 90.803 14.1667 90.203 14.55C89.62 14.9333 89.153 15.4583 88.803 16.125C88.47 16.7917 88.303 17.55 88.303 18.4C88.303 19.2667 88.47 20.0417 88.803 20.725C89.153 21.3917 89.62 21.9167 90.203 22.3C90.803 22.6833 91.486 22.875 92.253 22.875ZM106.948 25.25C106.382 25.25 105.84 25.175 105.323 25.025C104.807 24.875 104.323 24.6583 103.873 24.375C103.44 24.0917 103.048 23.7583 102.698 23.375C102.348 22.975 102.048 22.5417 101.798 22.075L103.498 20.3C103.848 20.8 104.165 21.2 104.448 21.5C104.748 21.8 105.032 22.0333 105.298 22.2C105.565 22.3667 105.832 22.4833 106.098 22.55C106.365 22.6 106.648 22.625 106.948 22.625C107.548 22.625 108.073 22.4917 108.523 22.225C108.973 21.9417 109.323 21.5583 109.573 21.075C109.823 20.5917 109.948 20.0417 109.948 19.425V10H106.748V7.5H115.348V10H112.648V19.675C112.648 20.475 112.507 21.2167 112.223 21.9C111.957 22.5667 111.565 23.15 111.048 23.65C110.548 24.15 109.948 24.5417 109.248 24.825C108.565 25.1083 107.798 25.25 106.948 25.25ZM123.043 25.25C121.76 25.25 120.61 24.9583 119.593 24.375C118.593 23.775 117.802 22.9667 117.218 21.95C116.635 20.9167 116.343 19.7417 116.343 18.425C116.343 17.1083 116.635 15.9417 117.218 14.925C117.802 13.8917 118.593 13.0833 119.593 12.5C120.61 11.9 121.76 11.6 123.043 11.6C124.31 11.6 125.443 11.9 126.443 12.5C127.46 13.0833 128.26 13.8917 128.843 14.925C129.427 15.9417 129.718 17.1083 129.718 18.425C129.718 19.7417 129.427 20.9167 128.843 21.95C128.26 22.9667 127.46 23.775 126.443 24.375C125.443 24.9583 124.31 25.25 123.043 25.25ZM123.043 22.9C123.827 22.9 124.527 22.7083 125.143 22.325C125.76 21.925 126.243 21.3917 126.593 20.725C126.943 20.0417 127.11 19.275 127.093 18.425C127.11 17.5583 126.943 16.7917 126.593 16.125C126.243 15.4417 125.76 14.9083 125.143 14.525C124.527 14.1417 123.827 13.95 123.043 13.95C122.26 13.95 121.552 14.15 120.918 14.55C120.302 14.9333 119.818 15.4667 119.468 16.15C119.118 16.8167 118.952 17.575 118.968 18.425C118.952 19.275 119.118 20.0417 119.468 20.725C119.818 21.3917 120.302 21.925 120.918 22.325C121.552 22.7083 122.26 22.9 123.043 22.9ZM139.424 25.25C138.857 25.25 138.291 25.1583 137.724 24.975C137.174 24.7917 136.666 24.55 136.199 24.25C135.749 23.9333 135.366 23.5917 135.049 23.225C134.749 22.8417 134.549 22.4583 134.449 22.075L135.099 21.725V24.925H132.524V6.5H135.099V14.875L134.699 14.65C134.782 14.2667 134.966 13.9 135.249 13.55C135.532 13.1833 135.891 12.8583 136.324 12.575C136.774 12.275 137.257 12.0417 137.774 11.875C138.291 11.6917 138.816 11.6 139.349 11.6C140.532 11.6 141.582 11.8917 142.499 12.475C143.416 13.0583 144.141 13.8667 144.674 14.9C145.207 15.9167 145.474 17.0833 145.474 18.4C145.474 19.7167 145.207 20.8917 144.674 21.925C144.157 22.9583 143.441 23.775 142.524 24.375C141.607 24.9583 140.574 25.25 139.424 25.25ZM138.999 22.9C139.766 22.9 140.449 22.7083 141.049 22.325C141.649 21.925 142.124 21.3917 142.474 20.725C142.824 20.0417 142.999 19.2667 142.999 18.4C142.999 17.55 142.824 16.7917 142.474 16.125C142.141 15.4417 141.674 14.9083 141.074 14.525C140.474 14.1417 139.782 13.95 138.999 13.95C138.216 13.95 137.524 14.1417 136.924 14.525C136.324 14.9083 135.849 15.4417 135.499 16.125C135.149 16.7917 134.974 17.55 134.974 18.4C134.974 19.2667 135.149 20.0417 135.499 20.725C135.849 21.3917 136.324 21.925 136.924 22.325C137.524 22.7083 138.216 22.9 138.999 22.9Z" fill="white"/>
<path fill-rule="evenodd" clip-rule="evenodd" d="M152.21 17V9.741H144.938V5H152.21H156.938V9.741V17H152.21Z" fill="white"/>
</g>
<path d="M44.7045 40V34.1818H45.375V36.3295H45.4318C45.4811 36.2538 45.5492 36.1572 45.6364 36.0398C45.7254 35.9205 45.8523 35.8144 46.017 35.7216C46.1837 35.6269 46.4091 35.5795 46.6932 35.5795C47.0606 35.5795 47.3845 35.6714 47.6648 35.8551C47.9451 36.0388 48.1638 36.2992 48.321 36.6364C48.4782 36.9735 48.5568 37.3712 48.5568 37.8295C48.5568 38.2917 48.4782 38.6922 48.321 39.0312C48.1638 39.3684 47.946 39.6297 47.6676 39.8153C47.3892 39.9991 47.0682 40.0909 46.7045 40.0909C46.4242 40.0909 46.1998 40.0445 46.0312 39.9517C45.8627 39.857 45.733 39.75 45.642 39.6307C45.5511 39.5095 45.4811 39.4091 45.4318 39.3295H45.3523V40H44.7045ZM45.3636 37.8182C45.3636 38.1477 45.4119 38.4384 45.5085 38.6903C45.6051 38.9403 45.7462 39.1364 45.9318 39.2784C46.1174 39.4186 46.3447 39.4886 46.6136 39.4886C46.8939 39.4886 47.1278 39.4148 47.3153 39.267C47.5047 39.1174 47.6468 38.9167 47.7415 38.6648C47.8381 38.411 47.8864 38.1288 47.8864 37.8182C47.8864 37.5114 47.839 37.2348 47.7443 36.9886C47.6515 36.7405 47.5104 36.5445 47.321 36.4006C47.1335 36.2547 46.8977 36.1818 46.6136 36.1818C46.3409 36.1818 46.1117 36.2509 45.9261 36.3892C45.7405 36.5256 45.6004 36.7169 45.5057 36.9631C45.411 37.2074 45.3636 37.4924 45.3636 37.8182ZM49.858 41.6364C49.7443 41.6364 49.643 41.6269 49.554 41.608C49.465 41.5909 49.4034 41.5739 49.3693 41.5568L49.5398 40.9659C49.7027 41.0076 49.8466 41.0227 49.9716 41.0114C50.0966 41 50.2074 40.9441 50.304 40.8438C50.4025 40.7453 50.4924 40.5852 50.5739 40.3636L50.6989 40.0227L49.0852 35.6364H49.8125L51.017 39.1136H51.0625L52.267 35.6364H52.9943L51.142 40.6364C51.0587 40.8617 50.9555 41.0483 50.8324 41.196C50.7093 41.3456 50.5663 41.4564 50.4034 41.5284C50.2424 41.6004 50.0606 41.6364 49.858 41.6364ZM56.2202 34.1818H57.0611L59.0384 39.0114H59.1065L61.0838 34.1818H61.9247V40H61.2656V35.5795H61.2088L59.3906 40H58.7543L56.9361 35.5795H56.8793V40H56.2202V34.1818ZM63.3374 40V34.1818H65.3033C65.7578 34.1818 66.1309 34.2595 66.4226 34.4148C66.7143 34.5682 66.9302 34.7794 67.0703 35.0483C67.2105 35.3172 67.2805 35.6231 67.2805 35.9659C67.2805 36.3087 67.2105 36.6127 67.0703 36.8778C66.9302 37.143 66.7152 37.3513 66.4254 37.5028C66.1357 37.6525 65.7654 37.7273 65.3146 37.7273H63.7237V37.0909H65.2919C65.6025 37.0909 65.8525 37.0455 66.0419 36.9545C66.2332 36.8636 66.3714 36.7348 66.4567 36.5682C66.5438 36.3996 66.5874 36.1989 66.5874 35.9659C66.5874 35.733 66.5438 35.5294 66.4567 35.3551C66.3696 35.1809 66.2304 35.0464 66.0391 34.9517C65.8478 34.8551 65.5949 34.8068 65.2805 34.8068H64.0419V40H63.3374ZM66.076 37.3864L67.5078 40H66.6896L65.2805 37.3864H66.076ZM68.4545 40V34.1818H70.4205C70.875 34.1818 71.2481 34.2595 71.5398 34.4148C71.8314 34.5682 72.0473 34.7794 72.1875 35.0483C72.3277 35.3172 72.3977 35.6231 72.3977 35.9659C72.3977 36.3087 72.3277 36.6127 72.1875 36.8778C72.0473 37.143 71.8324 37.3513 71.5426 37.5028C71.2528 37.6525 70.8826 37.7273 70.4318 37.7273H68.8409V37.0909H70.4091C70.7197 37.0909 70.9697 37.0455 71.1591 36.9545C71.3504 36.8636 71.4886 36.7348 71.5739 36.5682C71.661 36.3996 71.7045 36.1989 71.7045 35.9659C71.7045 35.733 71.661 35.5294 71.5739 35.3551C71.4867 35.1809 71.3475 35.0464 71.1562 34.9517C70.965 34.8551 70.7121 34.8068 70.3977 34.8068H69.1591V40H68.4545ZM71.1932 37.3864L72.625 40H71.8068L70.3977 37.3864H71.1932ZM80.5036 36H79.799C79.7573 35.7973 79.6844 35.6193 79.5803 35.4659C79.478 35.3125 79.353 35.1837 79.2053 35.0795C79.0594 34.9735 78.8975 34.8939 78.7195 34.8409C78.5414 34.7879 78.3558 34.7614 78.1626 34.7614C77.8104 34.7614 77.4912 34.8504 77.2053 35.0284C76.9212 35.2064 76.6948 35.4688 76.5263 35.8153C76.3596 36.1619 76.2763 36.5871 76.2763 37.0909C76.2763 37.5947 76.3596 38.0199 76.5263 38.3665C76.6948 38.7131 76.9212 38.9754 77.2053 39.1534C77.4912 39.3314 77.8104 39.4205 78.1626 39.4205C78.3558 39.4205 78.5414 39.3939 78.7195 39.3409C78.8975 39.2879 79.0594 39.2093 79.2053 39.1051C79.353 38.9991 79.478 38.8693 79.5803 38.7159C79.6844 38.5606 79.7573 38.3826 79.799 38.1818H80.5036C80.4505 38.4792 80.3539 38.7453 80.2138 38.9801C80.0736 39.215 79.8994 39.4148 79.6911 39.5795C79.4827 39.7424 79.2488 39.8665 78.9893 39.9517C78.7318 40.0369 78.4562 40.0795 78.1626 40.0795C77.6664 40.0795 77.2251 39.9583 76.8388 39.7159C76.4524 39.4735 76.1484 39.1288 75.9268 38.6818C75.7053 38.2348 75.5945 37.7045 75.5945 37.0909C75.5945 36.4773 75.7053 35.947 75.9268 35.5C76.1484 35.053 76.4524 34.7083 76.8388 34.4659C77.2251 34.2235 77.6664 34.1023 78.1626 34.1023C78.4562 34.1023 78.7318 34.1449 78.9893 34.2301C79.2488 34.3153 79.4827 34.4403 79.6911 34.6051C79.8994 34.768 80.0736 34.9669 80.2138 35.2017C80.3539 35.4347 80.4505 35.7008 80.5036 36ZM83.3239 40.0909C82.9299 40.0909 82.5843 39.9972 82.2869 39.8097C81.9915 39.6222 81.7604 39.3598 81.5938 39.0227C81.429 38.6856 81.3466 38.2917 81.3466 37.8409C81.3466 37.3864 81.429 36.9896 81.5938 36.6506C81.7604 36.3116 81.9915 36.0483 82.2869 35.8608C82.5843 35.6733 82.9299 35.5795 83.3239 35.5795C83.7178 35.5795 84.0625 35.6733 84.358 35.8608C84.6553 36.0483 84.8864 36.3116 85.0511 36.6506C85.2178 36.9896 85.3011 37.3864 85.3011 37.8409C85.3011 38.2917 85.2178 38.6856 85.0511 39.0227C84.8864 39.3598 84.6553 39.6222 84.358 39.8097C84.0625 39.9972 83.7178 40.0909 83.3239 40.0909ZM83.3239 39.4886C83.6231 39.4886 83.8693 39.4119 84.0625 39.2585C84.2557 39.1051 84.3987 38.9034 84.4915 38.6534C84.5843 38.4034 84.6307 38.1326 84.6307 37.8409C84.6307 37.5492 84.5843 37.2775 84.4915 37.0256C84.3987 36.7737 84.2557 36.5701 84.0625 36.4148C83.8693 36.2595 83.6231 36.1818 83.3239 36.1818C83.0246 36.1818 82.7784 36.2595 82.5852 36.4148C82.392 36.5701 82.2491 36.7737 82.1562 37.0256C82.0634 37.2775 82.017 37.5492 82.017 37.8409C82.017 38.1326 82.0634 38.4034 82.1562 38.6534C82.2491 38.9034 82.392 39.1051 82.5852 39.2585C82.7784 39.4119 83.0246 39.4886 83.3239 39.4886ZM86.995 37.375V40H86.3246V35.6364H86.9723V36.3182H87.0291C87.1314 36.0966 87.2867 35.9186 87.495 35.7841C87.7034 35.6477 87.9723 35.5795 88.3018 35.5795C88.5973 35.5795 88.8558 35.6402 89.0774 35.7614C89.299 35.8807 89.4714 36.0625 89.5945 36.3068C89.7176 36.5492 89.7791 36.8561 89.7791 37.2273V40H89.1087V37.2727C89.1087 36.9299 89.0196 36.6629 88.8416 36.4716C88.6636 36.2784 88.4193 36.1818 88.1087 36.1818C87.8946 36.1818 87.7034 36.2282 87.5348 36.321C87.3681 36.4138 87.2365 36.5492 87.1399 36.7273C87.0433 36.9053 86.995 37.1212 86.995 37.375ZM94.0952 36.6136L93.4929 36.7841C93.455 36.6837 93.3991 36.5862 93.3253 36.4915C93.2533 36.3949 93.1548 36.3153 93.0298 36.2528C92.9048 36.1903 92.7448 36.1591 92.5497 36.1591C92.2827 36.1591 92.0601 36.2206 91.8821 36.3438C91.706 36.465 91.6179 36.6193 91.6179 36.8068C91.6179 36.9735 91.6785 37.1051 91.7997 37.2017C91.9209 37.2983 92.1103 37.3788 92.3679 37.4432L93.0156 37.6023C93.4058 37.697 93.6965 37.8419 93.8878 38.0369C94.0791 38.2301 94.1747 38.4792 94.1747 38.7841C94.1747 39.0341 94.1027 39.2576 93.9588 39.4545C93.8168 39.6515 93.6179 39.8068 93.3622 39.9205C93.1065 40.0341 92.8092 40.0909 92.4702 40.0909C92.0251 40.0909 91.6567 39.9943 91.3651 39.8011C91.0734 39.608 90.8887 39.3258 90.8111 38.9545L91.4474 38.7955C91.508 39.0303 91.6226 39.2064 91.7912 39.3239C91.9616 39.4413 92.1842 39.5 92.4588 39.5C92.7713 39.5 93.0194 39.4337 93.2031 39.3011C93.3887 39.1667 93.4815 39.0057 93.4815 38.8182C93.4815 38.6667 93.4285 38.5398 93.3224 38.4375C93.2164 38.3333 93.0535 38.2557 92.8338 38.2045L92.1065 38.0341C91.7069 37.9394 91.4134 37.7926 91.2259 37.5938C91.0402 37.393 90.9474 37.142 90.9474 36.8409C90.9474 36.5947 91.0166 36.3769 91.1548 36.1875C91.295 35.9981 91.4853 35.8494 91.7259 35.7415C91.9683 35.6335 92.2429 35.5795 92.5497 35.5795C92.9815 35.5795 93.3205 35.6742 93.5668 35.8636C93.8149 36.053 93.991 36.303 94.0952 36.6136ZM97.9339 38.2159V35.6364H98.6044V40H97.9339V39.2614H97.8885C97.7862 39.483 97.6271 39.6714 97.4112 39.8267C97.1953 39.9801 96.9226 40.0568 96.593 40.0568C96.3203 40.0568 96.0779 39.9972 95.8658 39.8778C95.6536 39.7566 95.487 39.5748 95.3658 39.3324C95.2446 39.0881 95.1839 38.7803 95.1839 38.4091V35.6364H95.8544V38.3636C95.8544 38.6818 95.9434 38.9356 96.1214 39.125C96.3014 39.3144 96.5305 39.4091 96.8089 39.4091C96.9756 39.4091 97.1451 39.3665 97.3175 39.2812C97.4917 39.196 97.6375 39.0653 97.755 38.8892C97.8743 38.7131 97.9339 38.4886 97.9339 38.2159ZM100.503 34.1818V40H99.8324V34.1818H100.503ZM103.629 35.6364V36.2045H101.367V35.6364H103.629ZM102.026 34.5909H102.697V38.75C102.697 38.9394 102.724 39.0814 102.779 39.1761C102.836 39.2689 102.908 39.3314 102.995 39.3636C103.084 39.3939 103.178 39.4091 103.276 39.4091C103.35 39.4091 103.411 39.4053 103.458 39.3977C103.505 39.3883 103.543 39.3807 103.572 39.375L103.708 39.9773C103.663 39.9943 103.599 40.0114 103.518 40.0284C103.436 40.0473 103.333 40.0568 103.208 40.0568C103.019 40.0568 102.833 40.0161 102.651 39.9347C102.471 39.8532 102.322 39.7292 102.202 39.5625C102.085 39.3958 102.026 39.1856 102.026 38.9318V34.5909ZM105.921 40.1023C105.645 40.1023 105.394 40.0502 105.168 39.946C104.943 39.84 104.764 39.6875 104.631 39.4886C104.499 39.2879 104.433 39.0455 104.433 38.7614C104.433 38.5114 104.482 38.3087 104.58 38.1534C104.679 37.9962 104.81 37.8731 104.975 37.7841C105.14 37.6951 105.322 37.6288 105.521 37.5852C105.721 37.5398 105.923 37.5038 106.126 37.4773C106.391 37.4432 106.606 37.4176 106.771 37.4006C106.937 37.3816 107.058 37.3504 107.134 37.3068C107.212 37.2633 107.251 37.1875 107.251 37.0795V37.0568C107.251 36.7765 107.174 36.5587 107.021 36.4034C106.869 36.2481 106.639 36.1705 106.33 36.1705C106.01 36.1705 105.759 36.2405 105.577 36.3807C105.396 36.5208 105.268 36.6705 105.194 36.8295L104.558 36.6023C104.671 36.3371 104.823 36.1307 105.012 35.983C105.203 35.8333 105.412 35.7292 105.637 35.6705C105.864 35.6098 106.088 35.5795 106.308 35.5795C106.448 35.5795 106.609 35.5966 106.79 35.6307C106.974 35.6629 107.151 35.7301 107.322 35.8324C107.494 35.9347 107.637 36.089 107.751 36.2955C107.864 36.5019 107.921 36.7784 107.921 37.125V40H107.251V39.4091H107.217C107.171 39.5038 107.095 39.6051 106.989 39.7131C106.883 39.821 106.742 39.9129 106.566 39.9886C106.39 40.0644 106.175 40.1023 105.921 40.1023ZM106.023 39.5C106.289 39.5 106.512 39.4479 106.694 39.3438C106.878 39.2396 107.016 39.1051 107.109 38.9403C107.203 38.7756 107.251 38.6023 107.251 38.4205V37.8068C107.222 37.8409 107.16 37.8722 107.063 37.9006C106.969 37.9271 106.859 37.9508 106.734 37.9716C106.611 37.9905 106.49 38.0076 106.373 38.0227C106.257 38.036 106.164 38.0473 106.092 38.0568C105.917 38.0795 105.754 38.1165 105.603 38.1676C105.453 38.2169 105.332 38.2917 105.239 38.392C105.148 38.4905 105.103 38.625 105.103 38.7955C105.103 39.0284 105.189 39.2045 105.362 39.3239C105.536 39.4413 105.756 39.5 106.023 39.5ZM109.815 37.375V40H109.145V35.6364H109.793V36.3182H109.849C109.952 36.0966 110.107 35.9186 110.315 35.7841C110.524 35.6477 110.793 35.5795 111.122 35.5795C111.418 35.5795 111.676 35.6402 111.898 35.7614C112.119 35.8807 112.292 36.0625 112.415 36.3068C112.538 36.5492 112.599 36.8561 112.599 37.2273V40H111.929V37.2727C111.929 36.9299 111.84 36.6629 111.662 36.4716C111.484 36.2784 111.24 36.1818 110.929 36.1818C110.715 36.1818 110.524 36.2282 110.355 36.321C110.188 36.4138 110.057 36.5492 109.96 36.7273C109.864 36.9053 109.815 37.1212 109.815 37.375ZM115.597 40.0909C115.188 40.0909 114.836 39.9943 114.54 39.8011C114.245 39.608 114.018 39.3419 113.859 39.0028C113.7 38.6638 113.62 38.2765 113.62 37.8409C113.62 37.3977 113.701 37.0066 113.864 36.6676C114.029 36.3267 114.258 36.0606 114.552 35.8693C114.847 35.6761 115.192 35.5795 115.586 35.5795C115.893 35.5795 116.169 35.6364 116.415 35.75C116.662 35.8636 116.863 36.0227 117.021 36.2273C117.178 36.4318 117.275 36.6705 117.313 36.9432H116.643C116.592 36.7443 116.478 36.5682 116.302 36.4148C116.128 36.2595 115.893 36.1818 115.597 36.1818C115.336 36.1818 115.107 36.25 114.91 36.3864C114.715 36.5208 114.562 36.7112 114.452 36.9574C114.344 37.2017 114.29 37.4886 114.29 37.8182C114.29 38.1553 114.344 38.4489 114.45 38.6989C114.558 38.9489 114.709 39.143 114.904 39.2812C115.101 39.4195 115.332 39.4886 115.597 39.4886C115.772 39.4886 115.93 39.4583 116.072 39.3977C116.214 39.3371 116.334 39.25 116.433 39.1364C116.531 39.0227 116.601 38.8864 116.643 38.7273H117.313C117.275 38.9848 117.182 39.2169 117.032 39.4233C116.884 39.6278 116.688 39.7907 116.444 39.9119C116.201 40.0312 115.919 40.0909 115.597 40.0909ZM118.725 41.6364C118.612 41.6364 118.51 41.6269 118.421 41.608C118.332 41.5909 118.271 41.5739 118.237 41.5568L118.407 40.9659C118.57 41.0076 118.714 41.0227 118.839 41.0114C118.964 41 119.075 40.9441 119.171 40.8438C119.27 40.7453 119.36 40.5852 119.441 40.3636L119.566 40.0227L117.952 35.6364H118.68L119.884 39.1136H119.93L121.134 35.6364H121.862L120.009 40.6364C119.926 40.8617 119.823 41.0483 119.7 41.196C119.576 41.3456 119.433 41.4564 119.271 41.5284C119.11 41.6004 118.928 41.6364 118.725 41.6364Z" fill="white"/>
</g>
<defs>
<clipPath id="clip0_1115_96">
<rect width="160.571" height="51.4768" fill="white"/>
</clipPath>
</defs>
</svg>
