<svg width="161" height="52" viewBox="0 0 161 52" fill="none" xmlns="http://www.w3.org/2000/svg">
<g clip-path="url(#clip0_1115_179)">
<mask id="mask0_1115_179" style="mask-type:luminance" maskUnits="userSpaceOnUse" x="-52" y="0" width="212" height="50">
<path d="M159.938 0H-51.062V50H159.938V0Z" fill="white"/>
</mask>
<g mask="url(#mask0_1115_179)">
<path d="M10.213 25.25C8.9463 25.25 7.763 25.025 6.663 24.575C5.563 24.1083 4.5963 23.4667 3.763 22.65C2.9297 21.8333 2.2797 20.8833 1.813 19.8C1.363 18.7 1.138 17.5167 1.138 16.25C1.138 15 1.363 13.8333 1.813 12.75C2.2797 11.6667 2.9213 10.725 3.738 9.925C4.5713 9.10833 5.538 8.475 6.638 8.025C7.738 7.575 8.9213 7.35 10.188 7.35C11.0713 7.35 11.9297 7.475 12.763 7.725C13.613 7.975 14.3797 8.325 15.063 8.775C15.7463 9.225 16.3047 9.74167 16.738 10.325L14.988 12.15C14.488 11.6667 13.9713 11.2667 13.438 10.95C12.9213 10.6333 12.388 10.3917 11.838 10.225C11.288 10.0583 10.738 9.975 10.188 9.975C9.288 9.975 8.4547 10.1333 7.688 10.45C6.938 10.7667 6.2713 11.2083 5.688 11.775C5.1213 12.3417 4.6797 13.0083 4.363 13.775C4.0463 14.525 3.888 15.35 3.888 16.25C3.888 17.1167 4.0547 17.9417 4.388 18.725C4.7213 19.4917 5.1797 20.1667 5.763 20.75C6.363 21.3333 7.0463 21.7917 7.813 22.125C8.5963 22.4583 9.4213 22.625 10.288 22.625C10.938 22.625 11.5547 22.5333 12.138 22.35C12.7213 22.15 13.238 21.875 13.688 21.525C14.138 21.175 14.488 20.775 14.738 20.325C14.988 19.8583 15.113 19.3667 15.113 18.85V18.35L15.488 18.7H10.138V16.025H17.888C17.9213 16.2083 17.9463 16.3917 17.963 16.575C17.9797 16.7417 17.988 16.9083 17.988 17.075C18.0047 17.225 18.013 17.375 18.013 17.525C18.013 18.675 17.813 19.725 17.413 20.675C17.013 21.6083 16.4547 22.4167 15.738 23.1C15.038 23.7833 14.213 24.3167 13.263 24.7C12.3297 25.0667 11.313 25.25 10.213 25.25ZM26.7786 25.25C25.4953 25.25 24.3453 24.9583 23.3286 24.375C22.3286 23.775 21.537 22.9667 20.9536 21.95C20.3703 20.9167 20.0786 19.7417 20.0786 18.425C20.0786 17.1083 20.3703 15.9417 20.9536 14.925C21.537 13.8917 22.3286 13.0833 23.3286 12.5C24.3453 11.9 25.4953 11.6 26.7786 11.6C28.0453 11.6 29.1786 11.9 30.1786 12.5C31.1953 13.0833 31.9953 13.8917 32.5786 14.925C33.162 15.9417 33.4536 17.1083 33.4536 18.425C33.4536 19.7417 33.162 20.9167 32.5786 21.95C31.9953 22.9667 31.1953 23.775 30.1786 24.375C29.1786 24.9583 28.0453 25.25 26.7786 25.25ZM26.7786 22.9C27.562 22.9 28.262 22.7083 28.8786 22.325C29.4953 21.925 29.9786 21.3917 30.3286 20.725C30.6786 20.0417 30.8453 19.275 30.8286 18.425C30.8453 17.5583 30.6786 16.7917 30.3286 16.125C29.9786 15.4417 29.4953 14.9083 28.8786 14.525C28.262 14.1417 27.562 13.95 26.7786 13.95C25.9953 13.95 25.287 14.15 24.6536 14.55C24.037 14.9333 23.5536 15.4667 23.2036 16.15C22.8536 16.8167 22.687 17.575 22.7036 18.425C22.687 19.275 22.8536 20.0417 23.2036 20.725C23.5536 21.3917 24.037 21.925 24.6536 22.325C25.287 22.7083 25.9953 22.9 26.7786 22.9ZM51.741 25.25C50.475 25.25 49.291 25.025 48.1913 24.575C47.0913 24.1083 46.1247 23.4667 45.2913 22.65C44.458 21.8333 43.808 20.8833 43.3413 19.8C42.8913 18.7 42.6663 17.5167 42.6663 16.25C42.6663 15 42.8913 13.8333 43.3413 12.75C43.808 11.6667 44.4497 10.725 45.2663 9.925C46.0997 9.10833 47.0663 8.475 48.1663 8.025C49.266 7.575 50.45 7.35 51.716 7.35C52.6 7.35 53.458 7.475 54.291 7.725C55.141 7.975 55.908 8.325 56.591 8.775C57.275 9.225 57.833 9.74167 58.266 10.325L56.516 12.15C56.016 11.6667 55.5 11.2667 54.966 10.95C54.45 10.6333 53.916 10.3917 53.366 10.225C52.816 10.0583 52.266 9.975 51.716 9.975C50.816 9.975 49.983 10.1333 49.216 10.45C48.4663 10.7667 47.7997 11.2083 47.2163 11.775C46.6497 12.3417 46.208 13.0083 45.8913 13.775C45.5747 14.525 45.4163 15.35 45.4163 16.25C45.4163 17.1167 45.583 17.9417 45.9163 18.725C46.2497 19.4917 46.708 20.1667 47.2913 20.75C47.8913 21.3333 48.5747 21.7917 49.341 22.125C50.125 22.4583 50.95 22.625 51.816 22.625C52.466 22.625 53.083 22.5333 53.666 22.35C54.25 22.15 54.766 21.875 55.216 21.525C55.666 21.175 56.016 20.775 56.266 20.325C56.516 19.8583 56.641 19.3667 56.641 18.85V18.35L57.016 18.7H51.666V16.025H59.416C59.45 16.2083 59.475 16.3917 59.491 16.575C59.508 16.7417 59.516 16.9083 59.516 17.075C59.533 17.225 59.541 17.375 59.541 17.525C59.541 18.675 59.341 19.725 58.941 20.675C58.541 21.6083 57.983 22.4167 57.266 23.1C56.566 23.7833 55.741 24.3167 54.791 24.7C53.858 25.0667 52.841 25.25 51.741 25.25ZM68.532 25.25C67.182 25.25 65.982 24.9667 64.932 24.4C63.899 23.8167 63.082 23.025 62.482 22.025C61.899 21.025 61.607 19.875 61.607 18.575C61.607 17.5417 61.774 16.6 62.107 15.75C62.44 14.9 62.899 14.1667 63.482 13.55C64.082 12.9167 64.79 12.4333 65.607 12.1C66.44 11.75 67.34 11.575 68.307 11.575C69.157 11.575 69.949 11.7417 70.682 12.075C71.415 12.3917 72.049 12.8333 72.582 13.4C73.132 13.9667 73.549 14.6417 73.832 15.425C74.132 16.1917 74.274 17.0333 74.257 17.95L74.232 19.05H63.507L62.932 17H72.007L71.632 17.425V16.825C71.582 16.275 71.399 15.7833 71.082 15.35C70.765 14.9167 70.365 14.575 69.882 14.325C69.399 14.075 68.874 13.95 68.307 13.95C67.407 13.95 66.649 14.125 66.032 14.475C65.415 14.8083 64.949 15.3083 64.632 15.975C64.315 16.625 64.157 17.4333 64.157 18.4C64.157 19.3167 64.349 20.1167 64.732 20.8C65.115 21.4667 65.657 21.9833 66.357 22.35C67.057 22.7167 67.865 22.9 68.782 22.9C69.432 22.9 70.032 22.7917 70.582 22.575C71.149 22.3583 71.757 21.9667 72.407 21.4L73.707 23.225C73.307 23.625 72.815 23.975 72.232 24.275C71.665 24.575 71.057 24.8167 70.407 25C69.774 25.1667 69.149 25.25 68.532 25.25ZM78.68 25V8.525H81.255V25H78.68ZM75.955 14.375V11.875H84.305V14.375H75.955ZM91.578 25.25C90.495 25.25 89.503 24.95 88.603 24.35C87.72 23.75 87.011 22.9333 86.478 21.9C85.945 20.8667 85.678 19.7 85.678 18.4C85.678 17.0833 85.945 15.9167 86.478 14.9C87.028 13.8667 87.761 13.0583 88.678 12.475C89.611 11.8917 90.653 11.6 91.803 11.6C92.486 11.6 93.111 11.7 93.678 11.9C94.245 12.1 94.736 12.3833 95.153 12.75C95.586 13.1 95.936 13.5083 96.203 13.975C96.486 14.4417 96.661 14.9417 96.728 15.475L96.153 15.275V11.875H98.753V25H96.153V21.875L96.753 21.7C96.653 22.15 96.445 22.5917 96.128 23.025C95.828 23.4417 95.436 23.8167 94.953 24.15C94.486 24.4833 93.961 24.75 93.378 24.95C92.811 25.15 92.211 25.25 91.578 25.25ZM92.253 22.875C93.036 22.875 93.728 22.6833 94.328 22.3C94.928 21.9167 95.395 21.3917 95.728 20.725C96.078 20.0417 96.253 19.2667 96.253 18.4C96.253 17.55 96.078 16.7917 95.728 16.125C95.395 15.4583 94.928 14.9333 94.328 14.55C93.728 14.1667 93.036 13.975 92.253 13.975C91.486 13.975 90.803 14.1667 90.203 14.55C89.62 14.9333 89.153 15.4583 88.803 16.125C88.47 16.7917 88.303 17.55 88.303 18.4C88.303 19.2667 88.47 20.0417 88.803 20.725C89.153 21.3917 89.62 21.9167 90.203 22.3C90.803 22.6833 91.486 22.875 92.253 22.875ZM106.948 25.25C106.382 25.25 105.84 25.175 105.323 25.025C104.807 24.875 104.323 24.6583 103.873 24.375C103.44 24.0917 103.048 23.7583 102.698 23.375C102.348 22.975 102.048 22.5417 101.798 22.075L103.498 20.3C103.848 20.8 104.165 21.2 104.448 21.5C104.748 21.8 105.032 22.0333 105.298 22.2C105.565 22.3667 105.832 22.4833 106.098 22.55C106.365 22.6 106.648 22.625 106.948 22.625C107.548 22.625 108.073 22.4917 108.523 22.225C108.973 21.9417 109.323 21.5583 109.573 21.075C109.823 20.5917 109.948 20.0417 109.948 19.425V10H106.748V7.5H115.348V10H112.648V19.675C112.648 20.475 112.507 21.2167 112.223 21.9C111.957 22.5667 111.565 23.15 111.048 23.65C110.548 24.15 109.948 24.5417 109.248 24.825C108.565 25.1083 107.798 25.25 106.948 25.25ZM123.043 25.25C121.76 25.25 120.61 24.9583 119.593 24.375C118.593 23.775 117.802 22.9667 117.218 21.95C116.635 20.9167 116.343 19.7417 116.343 18.425C116.343 17.1083 116.635 15.9417 117.218 14.925C117.802 13.8917 118.593 13.0833 119.593 12.5C120.61 11.9 121.76 11.6 123.043 11.6C124.31 11.6 125.443 11.9 126.443 12.5C127.46 13.0833 128.26 13.8917 128.843 14.925C129.427 15.9417 129.718 17.1083 129.718 18.425C129.718 19.7417 129.427 20.9167 128.843 21.95C128.26 22.9667 127.46 23.775 126.443 24.375C125.443 24.9583 124.31 25.25 123.043 25.25ZM123.043 22.9C123.827 22.9 124.527 22.7083 125.143 22.325C125.76 21.925 126.243 21.3917 126.593 20.725C126.943 20.0417 127.11 19.275 127.093 18.425C127.11 17.5583 126.943 16.7917 126.593 16.125C126.243 15.4417 125.76 14.9083 125.143 14.525C124.527 14.1417 123.827 13.95 123.043 13.95C122.26 13.95 121.552 14.15 120.918 14.55C120.302 14.9333 119.818 15.4667 119.468 16.15C119.118 16.8167 118.952 17.575 118.968 18.425C118.952 19.275 119.118 20.0417 119.468 20.725C119.818 21.3917 120.302 21.925 120.918 22.325C121.552 22.7083 122.26 22.9 123.043 22.9ZM139.424 25.25C138.857 25.25 138.291 25.1583 137.724 24.975C137.174 24.7917 136.666 24.55 136.199 24.25C135.749 23.9333 135.366 23.5917 135.049 23.225C134.749 22.8417 134.549 22.4583 134.449 22.075L135.099 21.725V24.925H132.524V6.5H135.099V14.875L134.699 14.65C134.782 14.2667 134.966 13.9 135.249 13.55C135.532 13.1833 135.891 12.8583 136.324 12.575C136.774 12.275 137.257 12.0417 137.774 11.875C138.291 11.6917 138.816 11.6 139.349 11.6C140.532 11.6 141.582 11.8917 142.499 12.475C143.416 13.0583 144.141 13.8667 144.674 14.9C145.207 15.9167 145.474 17.0833 145.474 18.4C145.474 19.7167 145.207 20.8917 144.674 21.925C144.157 22.9583 143.441 23.775 142.524 24.375C141.607 24.9583 140.574 25.25 139.424 25.25ZM138.999 22.9C139.766 22.9 140.449 22.7083 141.049 22.325C141.649 21.925 142.124 21.3917 142.474 20.725C142.824 20.0417 142.999 19.2667 142.999 18.4C142.999 17.55 142.824 16.7917 142.474 16.125C142.141 15.4417 141.674 14.9083 141.074 14.525C140.474 14.1417 139.782 13.95 138.999 13.95C138.216 13.95 137.524 14.1417 136.924 14.525C136.324 14.9083 135.849 15.4417 135.499 16.125C135.149 16.7917 134.974 17.55 134.974 18.4C134.974 19.2667 135.149 20.0417 135.499 20.725C135.849 21.3917 136.324 21.925 136.924 22.325C137.524 22.7083 138.216 22.9 138.999 22.9Z" fill="white"/>
<path fill-rule="evenodd" clip-rule="evenodd" d="M152.21 17V9.741H144.938V5H152.21H156.938V9.741V17H152.21Z" fill="#6152D9"/>
</g>
<path d="M42.7045 42V36.1818H44.7386C45.1439 36.1818 45.4782 36.2519 45.7415 36.392C46.0047 36.5303 46.2008 36.7169 46.3295 36.9517C46.4583 37.1847 46.5227 37.4432 46.5227 37.7273C46.5227 37.9773 46.4782 38.1837 46.3892 38.3466C46.3021 38.5095 46.1866 38.6383 46.0426 38.733C45.9006 38.8277 45.7462 38.8977 45.5795 38.9432V39C45.7576 39.0114 45.9366 39.0739 46.1165 39.1875C46.2964 39.3011 46.447 39.464 46.5682 39.6761C46.6894 39.8883 46.75 40.1477 46.75 40.4545C46.75 40.7462 46.6837 41.0085 46.5511 41.2415C46.4186 41.4744 46.2093 41.6591 45.9233 41.7955C45.6373 41.9318 45.2652 42 44.8068 42H42.7045ZM43.4091 41.375H44.8068C45.267 41.375 45.5938 41.286 45.7869 41.108C45.982 40.928 46.0795 40.7102 46.0795 40.4545C46.0795 40.2576 46.0294 40.0758 45.929 39.9091C45.8286 39.7405 45.6856 39.6061 45.5 39.5057C45.3144 39.4034 45.0947 39.3523 44.8409 39.3523H43.4091V41.375ZM43.4091 38.7386H44.7159C44.928 38.7386 45.1193 38.697 45.2898 38.6136C45.4621 38.5303 45.5985 38.4129 45.6989 38.2614C45.8011 38.1098 45.8523 37.9318 45.8523 37.7273C45.8523 37.4716 45.7633 37.2547 45.5852 37.0767C45.4072 36.8968 45.125 36.8068 44.7386 36.8068H43.4091V38.7386ZM48.2486 43.6364C48.1349 43.6364 48.0336 43.6269 47.9446 43.608C47.8556 43.5909 47.794 43.5739 47.7599 43.5568L47.9304 42.9659C48.0933 43.0076 48.2372 43.0227 48.3622 43.0114C48.4872 43 48.598 42.9441 48.6946 42.8438C48.7931 42.7453 48.883 42.5852 48.9645 42.3636L49.0895 42.0227L47.4759 37.6364H48.2031L49.4077 41.1136H49.4531L50.6577 37.6364H51.3849L49.5327 42.6364C49.4493 42.8617 49.3461 43.0483 49.223 43.196C49.0999 43.3456 48.9569 43.4564 48.794 43.5284C48.633 43.6004 48.4512 43.6364 48.2486 43.6364ZM54.6108 36.1818H55.4517L57.429 41.0114H57.4972L59.4744 36.1818H60.3153V42H59.6562V37.5795H59.5994L57.7812 42H57.1449L55.3267 37.5795H55.2699V42H54.6108V36.1818ZM61.728 42V36.1818H63.6939C64.1484 36.1818 64.5215 36.2595 64.8132 36.4148C65.1049 36.5682 65.3208 36.7794 65.4609 37.0483C65.6011 37.3172 65.6712 37.6231 65.6712 37.9659C65.6712 38.3087 65.6011 38.6127 65.4609 38.8778C65.3208 39.143 65.1058 39.3513 64.8161 39.5028C64.5263 39.6525 64.156 39.7273 63.7053 39.7273H62.1143V39.0909H63.6825C63.9931 39.0909 64.2431 39.0455 64.4325 38.9545C64.6238 38.8636 64.7621 38.7348 64.8473 38.5682C64.9344 38.3996 64.978 38.1989 64.978 37.9659C64.978 37.733 64.9344 37.5294 64.8473 37.3551C64.7602 37.1809 64.621 37.0464 64.4297 36.9517C64.2384 36.8551 63.9856 36.8068 63.6712 36.8068H62.4325V42H61.728ZM64.4666 39.3864L65.8984 42H65.0803L63.6712 39.3864H64.4666ZM66.8452 42V36.1818H68.8111C69.2656 36.1818 69.6387 36.2595 69.9304 36.4148C70.2221 36.5682 70.438 36.7794 70.5781 37.0483C70.7183 37.3172 70.7884 37.6231 70.7884 37.9659C70.7884 38.3087 70.7183 38.6127 70.5781 38.8778C70.438 39.143 70.223 39.3513 69.9332 39.5028C69.6435 39.6525 69.2732 39.7273 68.8224 39.7273H67.2315V39.0909H68.7997C69.1103 39.0909 69.3603 39.0455 69.5497 38.9545C69.741 38.8636 69.8793 38.7348 69.9645 38.5682C70.0516 38.3996 70.0952 38.1989 70.0952 37.9659C70.0952 37.733 70.0516 37.5294 69.9645 37.3551C69.8774 37.1809 69.7382 37.0464 69.5469 36.9517C69.3556 36.8551 69.1027 36.8068 68.7884 36.8068H67.5497V42H66.8452ZM69.5838 39.3864L71.0156 42H70.1974L68.7884 39.3864H69.5838ZM78.8942 38H78.1896C78.148 37.7973 78.075 37.6193 77.9709 37.4659C77.8686 37.3125 77.7436 37.1837 77.5959 37.0795C77.45 36.9735 77.2881 36.8939 77.1101 36.8409C76.9321 36.7879 76.7464 36.7614 76.5533 36.7614C76.201 36.7614 75.8819 36.8504 75.5959 37.0284C75.3118 37.2064 75.0855 37.4688 74.9169 37.8153C74.7502 38.1619 74.6669 38.5871 74.6669 39.0909C74.6669 39.5947 74.7502 40.0199 74.9169 40.3665C75.0855 40.7131 75.3118 40.9754 75.5959 41.1534C75.8819 41.3314 76.201 41.4205 76.5533 41.4205C76.7464 41.4205 76.9321 41.3939 77.1101 41.3409C77.2881 41.2879 77.45 41.2093 77.5959 41.1051C77.7436 40.9991 77.8686 40.8693 77.9709 40.7159C78.075 40.5606 78.148 40.3826 78.1896 40.1818H78.8942C78.8411 40.4792 78.7446 40.7453 78.6044 40.9801C78.4643 41.215 78.29 41.4148 78.0817 41.5795C77.8733 41.7424 77.6394 41.8665 77.38 41.9517C77.1224 42.0369 76.8468 42.0795 76.5533 42.0795C76.0571 42.0795 75.6158 41.9583 75.2294 41.7159C74.843 41.4735 74.5391 41.1288 74.3175 40.6818C74.0959 40.2348 73.9851 39.7045 73.9851 39.0909C73.9851 38.4773 74.0959 37.947 74.3175 37.5C74.5391 37.053 74.843 36.7083 75.2294 36.4659C75.6158 36.2235 76.0571 36.1023 76.5533 36.1023C76.8468 36.1023 77.1224 36.1449 77.38 36.2301C77.6394 36.3153 77.8733 36.4403 78.0817 36.6051C78.29 36.768 78.4643 36.9669 78.6044 37.2017C78.7446 37.4347 78.8411 37.7008 78.8942 38ZM81.7145 42.0909C81.3205 42.0909 80.9749 41.9972 80.6776 41.8097C80.3821 41.6222 80.151 41.3598 79.9844 41.0227C79.8196 40.6856 79.7372 40.2917 79.7372 39.8409C79.7372 39.3864 79.8196 38.9896 79.9844 38.6506C80.151 38.3116 80.3821 38.0483 80.6776 37.8608C80.9749 37.6733 81.3205 37.5795 81.7145 37.5795C82.1084 37.5795 82.4531 37.6733 82.7486 37.8608C83.0459 38.0483 83.277 38.3116 83.4418 38.6506C83.6084 38.9896 83.6918 39.3864 83.6918 39.8409C83.6918 40.2917 83.6084 40.6856 83.4418 41.0227C83.277 41.3598 83.0459 41.6222 82.7486 41.8097C82.4531 41.9972 82.1084 42.0909 81.7145 42.0909ZM81.7145 41.4886C82.0137 41.4886 82.2599 41.4119 82.4531 41.2585C82.6463 41.1051 82.7893 40.9034 82.8821 40.6534C82.9749 40.4034 83.0213 40.1326 83.0213 39.8409C83.0213 39.5492 82.9749 39.2775 82.8821 39.0256C82.7893 38.7737 82.6463 38.5701 82.4531 38.4148C82.2599 38.2595 82.0137 38.1818 81.7145 38.1818C81.4152 38.1818 81.169 38.2595 80.9759 38.4148C80.7827 38.5701 80.6397 38.7737 80.5469 39.0256C80.4541 39.2775 80.4077 39.5492 80.4077 39.8409C80.4077 40.1326 80.4541 40.4034 80.5469 40.6534C80.6397 40.9034 80.7827 41.1051 80.9759 41.2585C81.169 41.4119 81.4152 41.4886 81.7145 41.4886ZM85.3857 39.375V42H84.7152V37.6364H85.3629V38.3182H85.4197C85.522 38.0966 85.6773 37.9186 85.8857 37.7841C86.094 37.6477 86.3629 37.5795 86.6925 37.5795C86.9879 37.5795 87.2464 37.6402 87.468 37.7614C87.6896 37.8807 87.862 38.0625 87.9851 38.3068C88.1082 38.5492 88.1697 38.8561 88.1697 39.2273V42H87.4993V39.2727C87.4993 38.9299 87.4103 38.6629 87.2322 38.4716C87.0542 38.2784 86.8099 38.1818 86.4993 38.1818C86.2853 38.1818 86.094 38.2282 85.9254 38.321C85.7588 38.4138 85.6271 38.5492 85.5305 38.7273C85.4339 38.9053 85.3857 39.1212 85.3857 39.375ZM92.4858 38.6136L91.8835 38.7841C91.8456 38.6837 91.7898 38.5862 91.7159 38.4915C91.6439 38.3949 91.5455 38.3153 91.4205 38.2528C91.2955 38.1903 91.1354 38.1591 90.9403 38.1591C90.6733 38.1591 90.4508 38.2206 90.2727 38.3438C90.0966 38.465 90.0085 38.6193 90.0085 38.8068C90.0085 38.9735 90.0691 39.1051 90.1903 39.2017C90.3116 39.2983 90.5009 39.3788 90.7585 39.4432L91.4062 39.6023C91.7964 39.697 92.0871 39.8419 92.2784 40.0369C92.4697 40.2301 92.5653 40.4792 92.5653 40.7841C92.5653 41.0341 92.4934 41.2576 92.3494 41.4545C92.2074 41.6515 92.0085 41.8068 91.7528 41.9205C91.4972 42.0341 91.1998 42.0909 90.8608 42.0909C90.4157 42.0909 90.0473 41.9943 89.7557 41.8011C89.464 41.608 89.2794 41.3258 89.2017 40.9545L89.8381 40.7955C89.8987 41.0303 90.0133 41.2064 90.1818 41.3239C90.3523 41.4413 90.5748 41.5 90.8494 41.5C91.1619 41.5 91.41 41.4337 91.5938 41.3011C91.7794 41.1667 91.8722 41.0057 91.8722 40.8182C91.8722 40.6667 91.8191 40.5398 91.7131 40.4375C91.607 40.3333 91.4441 40.2557 91.2244 40.2045L90.4972 40.0341C90.0975 39.9394 89.804 39.7926 89.6165 39.5938C89.4309 39.393 89.3381 39.142 89.3381 38.8409C89.3381 38.5947 89.4072 38.3769 89.5455 38.1875C89.6856 37.9981 89.8759 37.8494 90.1165 37.7415C90.3589 37.6335 90.6335 37.5795 90.9403 37.5795C91.3722 37.5795 91.7112 37.6742 91.9574 37.8636C92.2055 38.053 92.3816 38.303 92.4858 38.6136ZM96.3246 40.2159V37.6364H96.995V42H96.3246V41.2614H96.2791C96.1768 41.483 96.0178 41.6714 95.8018 41.8267C95.5859 41.9801 95.3132 42.0568 94.9837 42.0568C94.7109 42.0568 94.4685 41.9972 94.2564 41.8778C94.0443 41.7566 93.8776 41.5748 93.7564 41.3324C93.6352 41.0881 93.5746 40.7803 93.5746 40.4091V37.6364H94.245V40.3636C94.245 40.6818 94.334 40.9356 94.5121 41.125C94.692 41.3144 94.9212 41.4091 95.1996 41.4091C95.3662 41.4091 95.5357 41.3665 95.7081 41.2812C95.8823 41.196 96.0282 41.0653 96.1456 40.8892C96.2649 40.7131 96.3246 40.4886 96.3246 40.2159ZM98.8935 36.1818V42H98.223V36.1818H98.8935ZM102.019 37.6364V38.2045H99.7578V37.6364H102.019ZM100.417 36.5909H101.087V40.75C101.087 40.9394 101.115 41.0814 101.17 41.1761C101.227 41.2689 101.299 41.3314 101.386 41.3636C101.475 41.3939 101.568 41.4091 101.667 41.4091C101.741 41.4091 101.801 41.4053 101.849 41.3977C101.896 41.3883 101.934 41.3807 101.962 41.375L102.099 41.9773C102.053 41.9943 101.99 42.0114 101.908 42.0284C101.827 42.0473 101.724 42.0568 101.599 42.0568C101.409 42.0568 101.224 42.0161 101.042 41.9347C100.862 41.8532 100.712 41.7292 100.593 41.5625C100.476 41.3958 100.417 41.1856 100.417 40.9318V36.5909ZM104.312 42.1023C104.035 42.1023 103.784 42.0502 103.559 41.946C103.334 41.84 103.155 41.6875 103.022 41.4886C102.889 41.2879 102.823 41.0455 102.823 40.7614C102.823 40.5114 102.872 40.3087 102.971 40.1534C103.069 39.9962 103.201 39.8731 103.366 39.7841C103.531 39.6951 103.712 39.6288 103.911 39.5852C104.112 39.5398 104.314 39.5038 104.516 39.4773C104.781 39.4432 104.996 39.4176 105.161 39.4006C105.328 39.3816 105.449 39.3504 105.525 39.3068C105.603 39.2633 105.641 39.1875 105.641 39.0795V39.0568C105.641 38.7765 105.565 38.5587 105.411 38.4034C105.26 38.2481 105.03 38.1705 104.721 38.1705C104.401 38.1705 104.15 38.2405 103.968 38.3807C103.786 38.5208 103.658 38.6705 103.585 38.8295L102.948 38.6023C103.062 38.3371 103.213 38.1307 103.403 37.983C103.594 37.8333 103.802 37.7292 104.028 37.6705C104.255 37.6098 104.478 37.5795 104.698 37.5795C104.838 37.5795 104.999 37.5966 105.181 37.6307C105.365 37.6629 105.542 37.7301 105.712 37.8324C105.885 37.9347 106.028 38.089 106.141 38.2955C106.255 38.5019 106.312 38.7784 106.312 39.125V42H105.641V41.4091H105.607C105.562 41.5038 105.486 41.6051 105.38 41.7131C105.274 41.821 105.133 41.9129 104.957 41.9886C104.781 42.0644 104.566 42.1023 104.312 42.1023ZM104.414 41.5C104.679 41.5 104.903 41.4479 105.085 41.3438C105.268 41.2396 105.406 41.1051 105.499 40.9403C105.594 40.7756 105.641 40.6023 105.641 40.4205V39.8068C105.613 39.8409 105.55 39.8722 105.454 39.9006C105.359 39.9271 105.249 39.9508 105.124 39.9716C105.001 39.9905 104.881 40.0076 104.763 40.0227C104.648 40.036 104.554 40.0473 104.482 40.0568C104.308 40.0795 104.145 40.1165 103.994 40.1676C103.844 40.2169 103.723 40.2917 103.63 40.392C103.539 40.4905 103.494 40.625 103.494 40.7955C103.494 41.0284 103.58 41.2045 103.752 41.3239C103.926 41.4413 104.147 41.5 104.414 41.5ZM108.206 39.375V42H107.536V37.6364H108.183V38.3182H108.24C108.342 38.0966 108.498 37.9186 108.706 37.7841C108.914 37.6477 109.183 37.5795 109.513 37.5795C109.808 37.5795 110.067 37.6402 110.288 37.7614C110.51 37.8807 110.682 38.0625 110.805 38.3068C110.929 38.5492 110.99 38.8561 110.99 39.2273V42H110.32V39.2727C110.32 38.9299 110.231 38.6629 110.053 38.4716C109.875 38.2784 109.63 38.1818 109.32 38.1818C109.106 38.1818 108.914 38.2282 108.746 38.321C108.579 38.4138 108.447 38.5492 108.351 38.7273C108.254 38.9053 108.206 39.1212 108.206 39.375ZM113.988 42.0909C113.579 42.0909 113.227 41.9943 112.931 41.8011C112.636 41.608 112.408 41.3419 112.249 41.0028C112.09 40.6638 112.011 40.2765 112.011 39.8409C112.011 39.3977 112.092 39.0066 112.255 38.6676C112.42 38.3267 112.649 38.0606 112.942 37.8693C113.238 37.6761 113.583 37.5795 113.977 37.5795C114.283 37.5795 114.56 37.6364 114.806 37.75C115.052 37.8636 115.254 38.0227 115.411 38.2273C115.568 38.4318 115.666 38.6705 115.704 38.9432H115.033C114.982 38.7443 114.869 38.5682 114.692 38.4148C114.518 38.2595 114.283 38.1818 113.988 38.1818C113.727 38.1818 113.497 38.25 113.3 38.3864C113.105 38.5208 112.953 38.7112 112.843 38.9574C112.735 39.2017 112.681 39.4886 112.681 39.8182C112.681 40.1553 112.734 40.4489 112.84 40.6989C112.948 40.9489 113.1 41.143 113.295 41.2812C113.492 41.4195 113.723 41.4886 113.988 41.4886C114.162 41.4886 114.32 41.4583 114.462 41.3977C114.604 41.3371 114.725 41.25 114.823 41.1364C114.922 41.0227 114.992 40.8864 115.033 40.7273H115.704C115.666 40.9848 115.572 41.2169 115.423 41.4233C115.275 41.6278 115.079 41.7907 114.835 41.9119C114.592 42.0312 114.31 42.0909 113.988 42.0909ZM117.116 43.6364C117.002 43.6364 116.901 43.6269 116.812 43.608C116.723 43.5909 116.661 43.5739 116.627 43.5568L116.798 42.9659C116.96 43.0076 117.104 43.0227 117.229 43.0114C117.354 43 117.465 42.9441 117.562 42.8438C117.66 42.7453 117.75 42.5852 117.832 42.3636L117.957 42.0227L116.343 37.6364H117.07L118.275 41.1136H118.32L119.525 37.6364H120.252L118.4 42.6364C118.317 42.8617 118.213 43.0483 118.09 43.196C117.967 43.3456 117.824 43.4564 117.661 43.5284C117.5 43.6004 117.318 43.6364 117.116 43.6364Z" fill="white"/>
</g>
<defs>
<clipPath id="clip0_1115_179">
<rect width="160.571" height="51.4768" fill="white"/>
</clipPath>
</defs>
</svg>
