<svg width="161" height="52" viewBox="0 0 161 52" fill="none" xmlns="http://www.w3.org/2000/svg">
<g clip-path="url(#clip0_1115_140)">
<mask id="mask0_1115_140" style="mask-type:luminance" maskUnits="userSpaceOnUse" x="-52" y="0" width="212" height="50">
<path d="M159.938 0H-51.062V50H159.938V0Z" fill="white"/>
</mask>
<g mask="url(#mask0_1115_140)">
<path d="M10.213 25.25C8.9463 25.25 7.763 25.025 6.663 24.575C5.563 24.1083 4.5963 23.4667 3.763 22.65C2.9297 21.8333 2.2797 20.8833 1.813 19.8C1.363 18.7 1.138 17.5167 1.138 16.25C1.138 15 1.363 13.8333 1.813 12.75C2.2797 11.6667 2.9213 10.725 3.738 9.925C4.5713 9.10833 5.538 8.475 6.638 8.025C7.738 7.575 8.9213 7.35 10.188 7.35C11.0713 7.35 11.9297 7.475 12.763 7.725C13.613 7.975 14.3797 8.325 15.063 8.775C15.7463 9.225 16.3047 9.74167 16.738 10.325L14.988 12.15C14.488 11.6667 13.9713 11.2667 13.438 10.95C12.9213 10.6333 12.388 10.3917 11.838 10.225C11.288 10.0583 10.738 9.975 10.188 9.975C9.288 9.975 8.4547 10.1333 7.688 10.45C6.938 10.7667 6.2713 11.2083 5.688 11.775C5.1213 12.3417 4.6797 13.0083 4.363 13.775C4.0463 14.525 3.888 15.35 3.888 16.25C3.888 17.1167 4.0547 17.9417 4.388 18.725C4.7213 19.4917 5.1797 20.1667 5.763 20.75C6.363 21.3333 7.0463 21.7917 7.813 22.125C8.5963 22.4583 9.4213 22.625 10.288 22.625C10.938 22.625 11.5547 22.5333 12.138 22.35C12.7213 22.15 13.238 21.875 13.688 21.525C14.138 21.175 14.488 20.775 14.738 20.325C14.988 19.8583 15.113 19.3667 15.113 18.85V18.35L15.488 18.7H10.138V16.025H17.888C17.9213 16.2083 17.9463 16.3917 17.963 16.575C17.9797 16.7417 17.988 16.9083 17.988 17.075C18.0047 17.225 18.013 17.375 18.013 17.525C18.013 18.675 17.813 19.725 17.413 20.675C17.013 21.6083 16.4547 22.4167 15.738 23.1C15.038 23.7833 14.213 24.3167 13.263 24.7C12.3297 25.0667 11.313 25.25 10.213 25.25ZM26.7786 25.25C25.4953 25.25 24.3453 24.9583 23.3286 24.375C22.3286 23.775 21.537 22.9667 20.9536 21.95C20.3703 20.9167 20.0786 19.7417 20.0786 18.425C20.0786 17.1083 20.3703 15.9417 20.9536 14.925C21.537 13.8917 22.3286 13.0833 23.3286 12.5C24.3453 11.9 25.4953 11.6 26.7786 11.6C28.0453 11.6 29.1786 11.9 30.1786 12.5C31.1953 13.0833 31.9953 13.8917 32.5786 14.925C33.162 15.9417 33.4536 17.1083 33.4536 18.425C33.4536 19.7417 33.162 20.9167 32.5786 21.95C31.9953 22.9667 31.1953 23.775 30.1786 24.375C29.1786 24.9583 28.0453 25.25 26.7786 25.25ZM26.7786 22.9C27.562 22.9 28.262 22.7083 28.8786 22.325C29.4953 21.925 29.9786 21.3917 30.3286 20.725C30.6786 20.0417 30.8453 19.275 30.8286 18.425C30.8453 17.5583 30.6786 16.7917 30.3286 16.125C29.9786 15.4417 29.4953 14.9083 28.8786 14.525C28.262 14.1417 27.562 13.95 26.7786 13.95C25.9953 13.95 25.287 14.15 24.6536 14.55C24.037 14.9333 23.5536 15.4667 23.2036 16.15C22.8536 16.8167 22.687 17.575 22.7036 18.425C22.687 19.275 22.8536 20.0417 23.2036 20.725C23.5536 21.3917 24.037 21.925 24.6536 22.325C25.287 22.7083 25.9953 22.9 26.7786 22.9ZM51.741 25.25C50.475 25.25 49.291 25.025 48.1913 24.575C47.0913 24.1083 46.1247 23.4667 45.2913 22.65C44.458 21.8333 43.808 20.8833 43.3413 19.8C42.8913 18.7 42.6663 17.5167 42.6663 16.25C42.6663 15 42.8913 13.8333 43.3413 12.75C43.808 11.6667 44.4497 10.725 45.2663 9.925C46.0997 9.10833 47.0663 8.475 48.1663 8.025C49.266 7.575 50.45 7.35 51.716 7.35C52.6 7.35 53.458 7.475 54.291 7.725C55.141 7.975 55.908 8.325 56.591 8.775C57.275 9.225 57.833 9.74167 58.266 10.325L56.516 12.15C56.016 11.6667 55.5 11.2667 54.966 10.95C54.45 10.6333 53.916 10.3917 53.366 10.225C52.816 10.0583 52.266 9.975 51.716 9.975C50.816 9.975 49.983 10.1333 49.216 10.45C48.4663 10.7667 47.7997 11.2083 47.2163 11.775C46.6497 12.3417 46.208 13.0083 45.8913 13.775C45.5747 14.525 45.4163 15.35 45.4163 16.25C45.4163 17.1167 45.583 17.9417 45.9163 18.725C46.2497 19.4917 46.708 20.1667 47.2913 20.75C47.8913 21.3333 48.5747 21.7917 49.341 22.125C50.125 22.4583 50.95 22.625 51.816 22.625C52.466 22.625 53.083 22.5333 53.666 22.35C54.25 22.15 54.766 21.875 55.216 21.525C55.666 21.175 56.016 20.775 56.266 20.325C56.516 19.8583 56.641 19.3667 56.641 18.85V18.35L57.016 18.7H51.666V16.025H59.416C59.45 16.2083 59.475 16.3917 59.491 16.575C59.508 16.7417 59.516 16.9083 59.516 17.075C59.533 17.225 59.541 17.375 59.541 17.525C59.541 18.675 59.341 19.725 58.941 20.675C58.541 21.6083 57.983 22.4167 57.266 23.1C56.566 23.7833 55.741 24.3167 54.791 24.7C53.858 25.0667 52.841 25.25 51.741 25.25ZM68.532 25.25C67.182 25.25 65.982 24.9667 64.932 24.4C63.899 23.8167 63.082 23.025 62.482 22.025C61.899 21.025 61.607 19.875 61.607 18.575C61.607 17.5417 61.774 16.6 62.107 15.75C62.44 14.9 62.899 14.1667 63.482 13.55C64.082 12.9167 64.79 12.4333 65.607 12.1C66.44 11.75 67.34 11.575 68.307 11.575C69.157 11.575 69.949 11.7417 70.682 12.075C71.415 12.3917 72.049 12.8333 72.582 13.4C73.132 13.9667 73.549 14.6417 73.832 15.425C74.132 16.1917 74.274 17.0333 74.257 17.95L74.232 19.05H63.507L62.932 17H72.007L71.632 17.425V16.825C71.582 16.275 71.399 15.7833 71.082 15.35C70.765 14.9167 70.365 14.575 69.882 14.325C69.399 14.075 68.874 13.95 68.307 13.95C67.407 13.95 66.649 14.125 66.032 14.475C65.415 14.8083 64.949 15.3083 64.632 15.975C64.315 16.625 64.157 17.4333 64.157 18.4C64.157 19.3167 64.349 20.1167 64.732 20.8C65.115 21.4667 65.657 21.9833 66.357 22.35C67.057 22.7167 67.865 22.9 68.782 22.9C69.432 22.9 70.032 22.7917 70.582 22.575C71.149 22.3583 71.757 21.9667 72.407 21.4L73.707 23.225C73.307 23.625 72.815 23.975 72.232 24.275C71.665 24.575 71.057 24.8167 70.407 25C69.774 25.1667 69.149 25.25 68.532 25.25ZM78.68 25V8.525H81.255V25H78.68ZM75.955 14.375V11.875H84.305V14.375H75.955ZM91.578 25.25C90.495 25.25 89.503 24.95 88.603 24.35C87.72 23.75 87.011 22.9333 86.478 21.9C85.945 20.8667 85.678 19.7 85.678 18.4C85.678 17.0833 85.945 15.9167 86.478 14.9C87.028 13.8667 87.761 13.0583 88.678 12.475C89.611 11.8917 90.653 11.6 91.803 11.6C92.486 11.6 93.111 11.7 93.678 11.9C94.245 12.1 94.736 12.3833 95.153 12.75C95.586 13.1 95.936 13.5083 96.203 13.975C96.486 14.4417 96.661 14.9417 96.728 15.475L96.153 15.275V11.875H98.753V25H96.153V21.875L96.753 21.7C96.653 22.15 96.445 22.5917 96.128 23.025C95.828 23.4417 95.436 23.8167 94.953 24.15C94.486 24.4833 93.961 24.75 93.378 24.95C92.811 25.15 92.211 25.25 91.578 25.25ZM92.253 22.875C93.036 22.875 93.728 22.6833 94.328 22.3C94.928 21.9167 95.395 21.3917 95.728 20.725C96.078 20.0417 96.253 19.2667 96.253 18.4C96.253 17.55 96.078 16.7917 95.728 16.125C95.395 15.4583 94.928 14.9333 94.328 14.55C93.728 14.1667 93.036 13.975 92.253 13.975C91.486 13.975 90.803 14.1667 90.203 14.55C89.62 14.9333 89.153 15.4583 88.803 16.125C88.47 16.7917 88.303 17.55 88.303 18.4C88.303 19.2667 88.47 20.0417 88.803 20.725C89.153 21.3917 89.62 21.9167 90.203 22.3C90.803 22.6833 91.486 22.875 92.253 22.875ZM106.948 25.25C106.382 25.25 105.84 25.175 105.323 25.025C104.807 24.875 104.323 24.6583 103.873 24.375C103.44 24.0917 103.048 23.7583 102.698 23.375C102.348 22.975 102.048 22.5417 101.798 22.075L103.498 20.3C103.848 20.8 104.165 21.2 104.448 21.5C104.748 21.8 105.032 22.0333 105.298 22.2C105.565 22.3667 105.832 22.4833 106.098 22.55C106.365 22.6 106.648 22.625 106.948 22.625C107.548 22.625 108.073 22.4917 108.523 22.225C108.973 21.9417 109.323 21.5583 109.573 21.075C109.823 20.5917 109.948 20.0417 109.948 19.425V10H106.748V7.5H115.348V10H112.648V19.675C112.648 20.475 112.507 21.2167 112.223 21.9C111.957 22.5667 111.565 23.15 111.048 23.65C110.548 24.15 109.948 24.5417 109.248 24.825C108.565 25.1083 107.798 25.25 106.948 25.25ZM123.043 25.25C121.76 25.25 120.61 24.9583 119.593 24.375C118.593 23.775 117.802 22.9667 117.218 21.95C116.635 20.9167 116.343 19.7417 116.343 18.425C116.343 17.1083 116.635 15.9417 117.218 14.925C117.802 13.8917 118.593 13.0833 119.593 12.5C120.61 11.9 121.76 11.6 123.043 11.6C124.31 11.6 125.443 11.9 126.443 12.5C127.46 13.0833 128.26 13.8917 128.843 14.925C129.427 15.9417 129.718 17.1083 129.718 18.425C129.718 19.7417 129.427 20.9167 128.843 21.95C128.26 22.9667 127.46 23.775 126.443 24.375C125.443 24.9583 124.31 25.25 123.043 25.25ZM123.043 22.9C123.827 22.9 124.527 22.7083 125.143 22.325C125.76 21.925 126.243 21.3917 126.593 20.725C126.943 20.0417 127.11 19.275 127.093 18.425C127.11 17.5583 126.943 16.7917 126.593 16.125C126.243 15.4417 125.76 14.9083 125.143 14.525C124.527 14.1417 123.827 13.95 123.043 13.95C122.26 13.95 121.552 14.15 120.918 14.55C120.302 14.9333 119.818 15.4667 119.468 16.15C119.118 16.8167 118.952 17.575 118.968 18.425C118.952 19.275 119.118 20.0417 119.468 20.725C119.818 21.3917 120.302 21.925 120.918 22.325C121.552 22.7083 122.26 22.9 123.043 22.9ZM139.424 25.25C138.857 25.25 138.291 25.1583 137.724 24.975C137.174 24.7917 136.666 24.55 136.199 24.25C135.749 23.9333 135.366 23.5917 135.049 23.225C134.749 22.8417 134.549 22.4583 134.449 22.075L135.099 21.725V24.925H132.524V6.5H135.099V14.875L134.699 14.65C134.782 14.2667 134.966 13.9 135.249 13.55C135.532 13.1833 135.891 12.8583 136.324 12.575C136.774 12.275 137.257 12.0417 137.774 11.875C138.291 11.6917 138.816 11.6 139.349 11.6C140.532 11.6 141.582 11.8917 142.499 12.475C143.416 13.0583 144.141 13.8667 144.674 14.9C145.207 15.9167 145.474 17.0833 145.474 18.4C145.474 19.7167 145.207 20.8917 144.674 21.925C144.157 22.9583 143.441 23.775 142.524 24.375C141.607 24.9583 140.574 25.25 139.424 25.25ZM138.999 22.9C139.766 22.9 140.449 22.7083 141.049 22.325C141.649 21.925 142.124 21.3917 142.474 20.725C142.824 20.0417 142.999 19.2667 142.999 18.4C142.999 17.55 142.824 16.7917 142.474 16.125C142.141 15.4417 141.674 14.9083 141.074 14.525C140.474 14.1417 139.782 13.95 138.999 13.95C138.216 13.95 137.524 14.1417 136.924 14.525C136.324 14.9083 135.849 15.4417 135.499 16.125C135.149 16.7917 134.974 17.55 134.974 18.4C134.974 19.2667 135.149 20.0417 135.499 20.725C135.849 21.3917 136.324 21.925 136.924 22.325C137.524 22.7083 138.216 22.9 138.999 22.9Z" fill="white"/>
<path fill-rule="evenodd" clip-rule="evenodd" d="M152.21 17V9.741H144.938V5H152.21H156.938V9.741V17H152.21Z" fill="black"/>
</g>
<path d="M37.7045 39V33.1818H39.7386C40.1439 33.1818 40.4782 33.2519 40.7415 33.392C41.0047 33.5303 41.2008 33.7169 41.3295 33.9517C41.4583 34.1847 41.5227 34.4432 41.5227 34.7273C41.5227 34.9773 41.4782 35.1837 41.3892 35.3466C41.3021 35.5095 41.1866 35.6383 41.0426 35.733C40.9006 35.8277 40.7462 35.8977 40.5795 35.9432V36C40.7576 36.0114 40.9366 36.0739 41.1165 36.1875C41.2964 36.3011 41.447 36.464 41.5682 36.6761C41.6894 36.8883 41.75 37.1477 41.75 37.4545C41.75 37.7462 41.6837 38.0085 41.5511 38.2415C41.4186 38.4744 41.2093 38.6591 40.9233 38.7955C40.6373 38.9318 40.2652 39 39.8068 39H37.7045ZM38.4091 38.375H39.8068C40.267 38.375 40.5938 38.286 40.7869 38.108C40.982 37.928 41.0795 37.7102 41.0795 37.4545C41.0795 37.2576 41.0294 37.0758 40.929 36.9091C40.8286 36.7405 40.6856 36.6061 40.5 36.5057C40.3144 36.4034 40.0947 36.3523 39.8409 36.3523H38.4091V38.375ZM38.4091 35.7386H39.7159C39.928 35.7386 40.1193 35.697 40.2898 35.6136C40.4621 35.5303 40.5985 35.4129 40.6989 35.2614C40.8011 35.1098 40.8523 34.9318 40.8523 34.7273C40.8523 34.4716 40.7633 34.2547 40.5852 34.0767C40.4072 33.8968 40.125 33.8068 39.7386 33.8068H38.4091V35.7386ZM43.2486 40.6364C43.1349 40.6364 43.0336 40.6269 42.9446 40.608C42.8556 40.5909 42.794 40.5739 42.7599 40.5568L42.9304 39.9659C43.0933 40.0076 43.2372 40.0227 43.3622 40.0114C43.4872 40 43.598 39.9441 43.6946 39.8438C43.7931 39.7453 43.883 39.5852 43.9645 39.3636L44.0895 39.0227L42.4759 34.6364H43.2031L44.4077 38.1136H44.4531L45.6577 34.6364H46.3849L44.5327 39.6364C44.4493 39.8617 44.3461 40.0483 44.223 40.196C44.0999 40.3456 43.9569 40.4564 43.794 40.5284C43.633 40.6004 43.4512 40.6364 43.2486 40.6364ZM49.6108 33.1818H50.4517L52.429 38.0114H52.4972L54.4744 33.1818H55.3153V39H54.6562V34.5795H54.5994L52.7812 39H52.1449L50.3267 34.5795H50.2699V39H49.6108V33.1818ZM56.728 39V33.1818H58.6939C59.1484 33.1818 59.5215 33.2595 59.8132 33.4148C60.1049 33.5682 60.3208 33.7794 60.4609 34.0483C60.6011 34.3172 60.6712 34.6231 60.6712 34.9659C60.6712 35.3087 60.6011 35.6127 60.4609 35.8778C60.3208 36.143 60.1058 36.3513 59.8161 36.5028C59.5263 36.6525 59.156 36.7273 58.7053 36.7273H57.1143V36.0909H58.6825C58.9931 36.0909 59.2431 36.0455 59.4325 35.9545C59.6238 35.8636 59.7621 35.7348 59.8473 35.5682C59.9344 35.3996 59.978 35.1989 59.978 34.9659C59.978 34.733 59.9344 34.5294 59.8473 34.3551C59.7602 34.1809 59.621 34.0464 59.4297 33.9517C59.2384 33.8551 58.9856 33.8068 58.6712 33.8068H57.4325V39H56.728ZM59.4666 36.3864L60.8984 39H60.0803L58.6712 36.3864H59.4666ZM61.8452 39V33.1818H63.8111C64.2656 33.1818 64.6387 33.2595 64.9304 33.4148C65.2221 33.5682 65.438 33.7794 65.5781 34.0483C65.7183 34.3172 65.7884 34.6231 65.7884 34.9659C65.7884 35.3087 65.7183 35.6127 65.5781 35.8778C65.438 36.143 65.223 36.3513 64.9332 36.5028C64.6435 36.6525 64.2732 36.7273 63.8224 36.7273H62.2315V36.0909H63.7997C64.1103 36.0909 64.3603 36.0455 64.5497 35.9545C64.741 35.8636 64.8793 35.7348 64.9645 35.5682C65.0516 35.3996 65.0952 35.1989 65.0952 34.9659C65.0952 34.733 65.0516 34.5294 64.9645 34.3551C64.8774 34.1809 64.7382 34.0464 64.5469 33.9517C64.3556 33.8551 64.1027 33.8068 63.7884 33.8068H62.5497V39H61.8452ZM64.5838 36.3864L66.0156 39H65.1974L63.7884 36.3864H64.5838ZM73.8942 35H73.1896C73.148 34.7973 73.075 34.6193 72.9709 34.4659C72.8686 34.3125 72.7436 34.1837 72.5959 34.0795C72.45 33.9735 72.2881 33.8939 72.1101 33.8409C71.9321 33.7879 71.7464 33.7614 71.5533 33.7614C71.201 33.7614 70.8819 33.8504 70.5959 34.0284C70.3118 34.2064 70.0855 34.4688 69.9169 34.8153C69.7502 35.1619 69.6669 35.5871 69.6669 36.0909C69.6669 36.5947 69.7502 37.0199 69.9169 37.3665C70.0855 37.7131 70.3118 37.9754 70.5959 38.1534C70.8819 38.3314 71.201 38.4205 71.5533 38.4205C71.7464 38.4205 71.9321 38.3939 72.1101 38.3409C72.2881 38.2879 72.45 38.2093 72.5959 38.1051C72.7436 37.9991 72.8686 37.8693 72.9709 37.7159C73.075 37.5606 73.148 37.3826 73.1896 37.1818H73.8942C73.8411 37.4792 73.7446 37.7453 73.6044 37.9801C73.4643 38.215 73.29 38.4148 73.0817 38.5795C72.8733 38.7424 72.6394 38.8665 72.38 38.9517C72.1224 39.0369 71.8468 39.0795 71.5533 39.0795C71.0571 39.0795 70.6158 38.9583 70.2294 38.7159C69.843 38.4735 69.5391 38.1288 69.3175 37.6818C69.0959 37.2348 68.9851 36.7045 68.9851 36.0909C68.9851 35.4773 69.0959 34.947 69.3175 34.5C69.5391 34.053 69.843 33.7083 70.2294 33.4659C70.6158 33.2235 71.0571 33.1023 71.5533 33.1023C71.8468 33.1023 72.1224 33.1449 72.38 33.2301C72.6394 33.3153 72.8733 33.4403 73.0817 33.6051C73.29 33.768 73.4643 33.9669 73.6044 34.2017C73.7446 34.4347 73.8411 34.7008 73.8942 35ZM76.7145 39.0909C76.3205 39.0909 75.9749 38.9972 75.6776 38.8097C75.3821 38.6222 75.151 38.3598 74.9844 38.0227C74.8196 37.6856 74.7372 37.2917 74.7372 36.8409C74.7372 36.3864 74.8196 35.9896 74.9844 35.6506C75.151 35.3116 75.3821 35.0483 75.6776 34.8608C75.9749 34.6733 76.3205 34.5795 76.7145 34.5795C77.1084 34.5795 77.4531 34.6733 77.7486 34.8608C78.0459 35.0483 78.277 35.3116 78.4418 35.6506C78.6084 35.9896 78.6918 36.3864 78.6918 36.8409C78.6918 37.2917 78.6084 37.6856 78.4418 38.0227C78.277 38.3598 78.0459 38.6222 77.7486 38.8097C77.4531 38.9972 77.1084 39.0909 76.7145 39.0909ZM76.7145 38.4886C77.0137 38.4886 77.2599 38.4119 77.4531 38.2585C77.6463 38.1051 77.7893 37.9034 77.8821 37.6534C77.9749 37.4034 78.0213 37.1326 78.0213 36.8409C78.0213 36.5492 77.9749 36.2775 77.8821 36.0256C77.7893 35.7737 77.6463 35.5701 77.4531 35.4148C77.2599 35.2595 77.0137 35.1818 76.7145 35.1818C76.4152 35.1818 76.169 35.2595 75.9759 35.4148C75.7827 35.5701 75.6397 35.7737 75.5469 36.0256C75.4541 36.2775 75.4077 36.5492 75.4077 36.8409C75.4077 37.1326 75.4541 37.4034 75.5469 37.6534C75.6397 37.9034 75.7827 38.1051 75.9759 38.2585C76.169 38.4119 76.4152 38.4886 76.7145 38.4886ZM80.3857 36.375V39H79.7152V34.6364H80.3629V35.3182H80.4197C80.522 35.0966 80.6773 34.9186 80.8857 34.7841C81.094 34.6477 81.3629 34.5795 81.6925 34.5795C81.9879 34.5795 82.2464 34.6402 82.468 34.7614C82.6896 34.8807 82.862 35.0625 82.9851 35.3068C83.1082 35.5492 83.1697 35.8561 83.1697 36.2273V39H82.4993V36.2727C82.4993 35.9299 82.4103 35.6629 82.2322 35.4716C82.0542 35.2784 81.8099 35.1818 81.4993 35.1818C81.2853 35.1818 81.094 35.2282 80.9254 35.321C80.7588 35.4138 80.6271 35.5492 80.5305 35.7273C80.4339 35.9053 80.3857 36.1212 80.3857 36.375ZM87.4858 35.6136L86.8835 35.7841C86.8456 35.6837 86.7898 35.5862 86.7159 35.4915C86.6439 35.3949 86.5455 35.3153 86.4205 35.2528C86.2955 35.1903 86.1354 35.1591 85.9403 35.1591C85.6733 35.1591 85.4508 35.2206 85.2727 35.3438C85.0966 35.465 85.0085 35.6193 85.0085 35.8068C85.0085 35.9735 85.0691 36.1051 85.1903 36.2017C85.3116 36.2983 85.5009 36.3788 85.7585 36.4432L86.4062 36.6023C86.7964 36.697 87.0871 36.8419 87.2784 37.0369C87.4697 37.2301 87.5653 37.4792 87.5653 37.7841C87.5653 38.0341 87.4934 38.2576 87.3494 38.4545C87.2074 38.6515 87.0085 38.8068 86.7528 38.9205C86.4972 39.0341 86.1998 39.0909 85.8608 39.0909C85.4157 39.0909 85.0473 38.9943 84.7557 38.8011C84.464 38.608 84.2794 38.3258 84.2017 37.9545L84.8381 37.7955C84.8987 38.0303 85.0133 38.2064 85.1818 38.3239C85.3523 38.4413 85.5748 38.5 85.8494 38.5C86.1619 38.5 86.41 38.4337 86.5938 38.3011C86.7794 38.1667 86.8722 38.0057 86.8722 37.8182C86.8722 37.6667 86.8191 37.5398 86.7131 37.4375C86.607 37.3333 86.4441 37.2557 86.2244 37.2045L85.4972 37.0341C85.0975 36.9394 84.804 36.7926 84.6165 36.5938C84.4309 36.393 84.3381 36.142 84.3381 35.8409C84.3381 35.5947 84.4072 35.3769 84.5455 35.1875C84.6856 34.9981 84.8759 34.8494 85.1165 34.7415C85.3589 34.6335 85.6335 34.5795 85.9403 34.5795C86.3722 34.5795 86.7112 34.6742 86.9574 34.8636C87.2055 35.053 87.3816 35.303 87.4858 35.6136ZM91.3246 37.2159V34.6364H91.995V39H91.3246V38.2614H91.2791C91.1768 38.483 91.0178 38.6714 90.8018 38.8267C90.5859 38.9801 90.3132 39.0568 89.9837 39.0568C89.7109 39.0568 89.4685 38.9972 89.2564 38.8778C89.0443 38.7566 88.8776 38.5748 88.7564 38.3324C88.6352 38.0881 88.5746 37.7803 88.5746 37.4091V34.6364H89.245V37.3636C89.245 37.6818 89.334 37.9356 89.5121 38.125C89.692 38.3144 89.9212 38.4091 90.1996 38.4091C90.3662 38.4091 90.5357 38.3665 90.7081 38.2812C90.8823 38.196 91.0282 38.0653 91.1456 37.8892C91.2649 37.7131 91.3246 37.4886 91.3246 37.2159ZM93.8935 33.1818V39H93.223V33.1818H93.8935ZM97.0192 34.6364V35.2045H94.7578V34.6364H97.0192ZM95.4169 33.5909H96.0874V37.75C96.0874 37.9394 96.1148 38.0814 96.1697 38.1761C96.2266 38.2689 96.2985 38.3314 96.3857 38.3636C96.4747 38.3939 96.5684 38.4091 96.6669 38.4091C96.7408 38.4091 96.8014 38.4053 96.8487 38.3977C96.8961 38.3883 96.9339 38.3807 96.9624 38.375L97.0987 38.9773C97.0533 38.9943 96.9898 39.0114 96.9084 39.0284C96.8269 39.0473 96.7237 39.0568 96.5987 39.0568C96.4093 39.0568 96.2237 39.0161 96.0419 38.9347C95.862 38.8532 95.7124 38.7292 95.593 38.5625C95.4756 38.3958 95.4169 38.1856 95.4169 37.9318V33.5909ZM99.3118 39.1023C99.0353 39.1023 98.7843 39.0502 98.5589 38.946C98.3336 38.84 98.1546 38.6875 98.022 38.4886C97.8894 38.2879 97.8232 38.0455 97.8232 37.7614C97.8232 37.5114 97.8724 37.3087 97.9709 37.1534C98.0694 36.9962 98.201 36.8731 98.3658 36.7841C98.5305 36.6951 98.7124 36.6288 98.9112 36.5852C99.112 36.5398 99.3137 36.5038 99.5163 36.4773C99.7815 36.4432 99.9964 36.4176 100.161 36.4006C100.328 36.3816 100.449 36.3504 100.525 36.3068C100.603 36.2633 100.641 36.1875 100.641 36.0795V36.0568C100.641 35.7765 100.565 35.5587 100.411 35.4034C100.26 35.2481 100.03 35.1705 99.7209 35.1705C99.4008 35.1705 99.1499 35.2405 98.968 35.3807C98.7862 35.5208 98.6584 35.6705 98.5845 35.8295L97.9482 35.6023C98.0618 35.3371 98.2133 35.1307 98.4027 34.983C98.594 34.8333 98.8023 34.7292 99.0277 34.6705C99.255 34.6098 99.4785 34.5795 99.6982 34.5795C99.8383 34.5795 99.9993 34.5966 100.181 34.6307C100.365 34.6629 100.542 34.7301 100.712 34.8324C100.885 34.9347 101.028 35.089 101.141 35.2955C101.255 35.5019 101.312 35.7784 101.312 36.125V39H100.641V38.4091H100.607C100.562 38.5038 100.486 38.6051 100.38 38.7131C100.274 38.821 100.133 38.9129 99.9567 38.9886C99.7805 39.0644 99.5656 39.1023 99.3118 39.1023ZM99.4141 38.5C99.6792 38.5 99.9027 38.4479 100.085 38.3438C100.268 38.2396 100.406 38.1051 100.499 37.9403C100.594 37.7756 100.641 37.6023 100.641 37.4205V36.8068C100.613 36.8409 100.55 36.8722 100.454 36.9006C100.359 36.9271 100.249 36.9508 100.124 36.9716C100.001 36.9905 99.8809 37.0076 99.7635 37.0227C99.648 37.036 99.5542 37.0473 99.4822 37.0568C99.308 37.0795 99.1451 37.1165 98.9936 37.1676C98.844 37.2169 98.7228 37.2917 98.63 37.392C98.5391 37.4905 98.4936 37.625 98.4936 37.7955C98.4936 38.0284 98.5798 38.2045 98.7521 38.3239C98.9264 38.4413 99.147 38.5 99.4141 38.5ZM103.206 36.375V39H102.536V34.6364H103.183V35.3182H103.24C103.342 35.0966 103.498 34.9186 103.706 34.7841C103.914 34.6477 104.183 34.5795 104.513 34.5795C104.808 34.5795 105.067 34.6402 105.288 34.7614C105.51 34.8807 105.682 35.0625 105.805 35.3068C105.929 35.5492 105.99 35.8561 105.99 36.2273V39H105.32V36.2727C105.32 35.9299 105.231 35.6629 105.053 35.4716C104.875 35.2784 104.63 35.1818 104.32 35.1818C104.106 35.1818 103.914 35.2282 103.746 35.321C103.579 35.4138 103.447 35.5492 103.351 35.7273C103.254 35.9053 103.206 36.1212 103.206 36.375ZM108.988 39.0909C108.579 39.0909 108.227 38.9943 107.931 38.8011C107.636 38.608 107.408 38.3419 107.249 38.0028C107.09 37.6638 107.011 37.2765 107.011 36.8409C107.011 36.3977 107.092 36.0066 107.255 35.6676C107.42 35.3267 107.649 35.0606 107.942 34.8693C108.238 34.6761 108.583 34.5795 108.977 34.5795C109.283 34.5795 109.56 34.6364 109.806 34.75C110.052 34.8636 110.254 35.0227 110.411 35.2273C110.568 35.4318 110.666 35.6705 110.704 35.9432H110.033C109.982 35.7443 109.869 35.5682 109.692 35.4148C109.518 35.2595 109.283 35.1818 108.988 35.1818C108.727 35.1818 108.497 35.25 108.3 35.3864C108.105 35.5208 107.953 35.7112 107.843 35.9574C107.735 36.2017 107.681 36.4886 107.681 36.8182C107.681 37.1553 107.734 37.4489 107.84 37.6989C107.948 37.9489 108.1 38.143 108.295 38.2812C108.492 38.4195 108.723 38.4886 108.988 38.4886C109.162 38.4886 109.32 38.4583 109.462 38.3977C109.604 38.3371 109.725 38.25 109.823 38.1364C109.922 38.0227 109.992 37.8864 110.033 37.7273H110.704C110.666 37.9848 110.572 38.2169 110.423 38.4233C110.275 38.6278 110.079 38.7907 109.835 38.9119C109.592 39.0312 109.31 39.0909 108.988 39.0909ZM112.116 40.6364C112.002 40.6364 111.901 40.6269 111.812 40.608C111.723 40.5909 111.661 40.5739 111.627 40.5568L111.798 39.9659C111.96 40.0076 112.104 40.0227 112.229 40.0114C112.354 40 112.465 39.9441 112.562 39.8438C112.66 39.7453 112.75 39.5852 112.832 39.3636L112.957 39.0227L111.343 34.6364H112.07L113.275 38.1136H113.32L114.525 34.6364H115.252L113.4 39.6364C113.317 39.8617 113.213 40.0483 113.09 40.196C112.967 40.3456 112.824 40.4564 112.661 40.5284C112.5 40.6004 112.318 40.6364 112.116 40.6364Z" fill="white"/>
</g>
<defs>
<clipPath id="clip0_1115_140">
<rect width="160.571" height="51.4768" fill="white"/>
</clipPath>
</defs>
</svg>
