<svg xmlns="http://www.w3.org/2000/svg" fill="none" viewBox="51.062 0 160.571 51.47679324894515" style="max-height: 500px" width="160.571" height="51.47679324894515">
<g clip-path="url(#clip0_1011_2796)">
<path fill="white" d="M61.275 25.25C60.0083 25.25 58.825 25.025 57.725 24.575C56.625 24.1083 55.6583 23.4667 54.825 22.65C53.9917 21.8333 53.3417 20.8833 52.875 19.8C52.425 18.7 52.2 17.5167 52.2 16.25C52.2 15 52.425 13.8333 52.875 12.75C53.3417 11.6667 53.9833 10.725 54.8 9.925C55.6333 9.10833 56.6 8.475 57.7 8.025C58.8 7.575 59.9833 7.35 61.25 7.35C62.1333 7.35 62.9917 7.475 63.825 7.725C64.675 7.975 65.4417 8.325 66.125 8.775C66.8083 9.225 67.3667 9.74167 67.8 10.325L66.05 12.15C65.55 11.6667 65.0333 11.2667 64.5 10.95C63.9833 10.6333 63.45 10.3917 62.9 10.225C62.35 10.0583 61.8 9.975 61.25 9.975C60.35 9.975 59.5167 10.1333 58.75 10.45C58 10.7667 57.3333 11.2083 56.75 11.775C56.1833 12.3417 55.7417 13.0083 55.425 13.775C55.1083 14.525 54.95 15.35 54.95 16.25C54.95 17.1167 55.1167 17.9417 55.45 18.725C55.7833 19.4917 56.2417 20.1667 56.825 20.75C57.425 21.3333 58.1083 21.7917 58.875 22.125C59.6583 22.4583 60.4833 22.625 61.35 22.625C62 22.625 62.6167 22.5333 63.2 22.35C63.7833 22.15 64.3 21.875 64.75 21.525C65.2 21.175 65.55 20.775 65.8 20.325C66.05 19.8583 66.175 19.3667 66.175 18.85V18.35L66.55 18.7H61.2V16.025H68.95C68.9833 16.2083 69.0083 16.3917 69.025 16.575C69.0417 16.7417 69.05 16.9083 69.05 17.075C69.0667 17.225 69.075 17.375 69.075 17.525C69.075 18.675 68.875 19.725 68.475 20.675C68.075 21.6083 67.5167 22.4167 66.8 23.1C66.1 23.7833 65.275 24.3167 64.325 24.7C63.3917 25.0667 62.375 25.25 61.275 25.25ZM77.8406 25.25C76.5573 25.25 75.4073 24.9583 74.3906 24.375C73.3906 23.775 72.599 22.9667 72.0156 21.95C71.4323 20.9167 71.1406 19.7417 71.1406 18.425C71.1406 17.1083 71.4323 15.9417 72.0156 14.925C72.599 13.8917 73.3906 13.0833 74.3906 12.5C75.4073 11.9 76.5573 11.6 77.8406 11.6C79.1073 11.6 80.2406 11.9 81.2406 12.5C82.2573 13.0833 83.0573 13.8917 83.6406 14.925C84.224 15.9417 84.5156 17.1083 84.5156 18.425C84.5156 19.7417 84.224 20.9167 83.6406 21.95C83.0573 22.9667 82.2573 23.775 81.2406 24.375C80.2406 24.9583 79.1073 25.25 77.8406 25.25ZM77.8406 22.9C78.624 22.9 79.324 22.7083 79.9406 22.325C80.5573 21.925 81.0406 21.3917 81.3906 20.725C81.7406 20.0417 81.9073 19.275 81.8906 18.425C81.9073 17.5583 81.7406 16.7917 81.3906 16.125C81.0406 15.4417 80.5573 14.9083 79.9406 14.525C79.324 14.1417 78.624 13.95 77.8406 13.95C77.0573 13.95 76.349 14.15 75.7156 14.55C75.099 14.9333 74.6156 15.4667 74.2656 16.15C73.9156 16.8167 73.749 17.575 73.7656 18.425C73.749 19.275 73.9156 20.0417 74.2656 20.725C74.6156 21.3917 75.099 21.925 75.7156 22.325C76.349 22.7083 77.0573 22.9 77.8406 22.9ZM102.803 25.25C101.537 25.25 100.353 25.025 99.2533 24.575C98.1533 24.1083 97.1867 23.4667 96.3533 22.65C95.52 21.8333 94.87 20.8833 94.4033 19.8C93.9533 18.7 93.7283 17.5167 93.7283 16.25C93.7283 15 93.9533 13.8333 94.4033 12.75C94.87 11.6667 95.5117 10.725 96.3283 9.925C97.1617 9.10833 98.1283 8.475 99.2283 8.025C100.328 7.575 101.512 7.35 102.778 7.35C103.662 7.35 104.52 7.475 105.353 7.725C106.203 7.975 106.97 8.325 107.653 8.775C108.337 9.225 108.895 9.74167 109.328 10.325L107.578 12.15C107.078 11.6667 106.562 11.2667 106.028 10.95C105.512 10.6333 104.978 10.3917 104.428 10.225C103.878 10.0583 103.328 9.975 102.778 9.975C101.878 9.975 101.045 10.1333 100.278 10.45C99.5283 10.7667 98.8617 11.2083 98.2783 11.775C97.7117 12.3417 97.27 13.0083 96.9533 13.775C96.6367 14.525 96.4783 15.35 96.4783 16.25C96.4783 17.1167 96.645 17.9417 96.9783 18.725C97.3117 19.4917 97.77 20.1667 98.3533 20.75C98.9533 21.3333 99.6367 21.7917 100.403 22.125C101.187 22.4583 102.012 22.625 102.878 22.625C103.528 22.625 104.145 22.5333 104.728 22.35C105.312 22.15 105.828 21.875 106.278 21.525C106.728 21.175 107.078 20.775 107.328 20.325C107.578 19.8583 107.703 19.3667 107.703 18.85V18.35L108.078 18.7H102.728V16.025H110.478C110.512 16.2083 110.537 16.3917 110.553 16.575C110.57 16.7417 110.578 16.9083 110.578 17.075C110.595 17.225 110.603 17.375 110.603 17.525C110.603 18.675 110.403 19.725 110.003 20.675C109.603 21.6083 109.045 22.4167 108.328 23.1C107.628 23.7833 106.803 24.3167 105.853 24.7C104.92 25.0667 103.903 25.25 102.803 25.25ZM119.594 25.25C118.244 25.25 117.044 24.9667 115.994 24.4C114.961 23.8167 114.144 23.025 113.544 22.025C112.961 21.025 112.669 19.875 112.669 18.575C112.669 17.5417 112.836 16.6 113.169 15.75C113.502 14.9 113.961 14.1667 114.544 13.55C115.144 12.9167 115.852 12.4333 116.669 12.1C117.502 11.75 118.402 11.575 119.369 11.575C120.219 11.575 121.011 11.7417 121.744 12.075C122.477 12.3917 123.111 12.8333 123.644 13.4C124.194 13.9667 124.611 14.6417 124.894 15.425C125.194 16.1917 125.336 17.0333 125.319 17.95L125.294 19.05H114.569L113.994 17H123.069L122.694 17.425V16.825C122.644 16.275 122.461 15.7833 122.144 15.35C121.827 14.9167 121.427 14.575 120.944 14.325C120.461 14.075 119.936 13.95 119.369 13.95C118.469 13.95 117.711 14.125 117.094 14.475C116.477 14.8083 116.011 15.3083 115.694 15.975C115.377 16.625 115.219 17.4333 115.219 18.4C115.219 19.3167 115.411 20.1167 115.794 20.8C116.177 21.4667 116.719 21.9833 117.419 22.35C118.119 22.7167 118.927 22.9 119.844 22.9C120.494 22.9 121.094 22.7917 121.644 22.575C122.211 22.3583 122.819 21.9667 123.469 21.4L124.769 23.225C124.369 23.625 123.877 23.975 123.294 24.275C122.727 24.575 122.119 24.8167 121.469 25C120.836 25.1667 120.211 25.25 119.594 25.25ZM129.742 25V8.525H132.317V25H129.742ZM127.017 14.375V11.875H135.367V14.375H127.017ZM142.64 25.25C141.557 25.25 140.565 24.95 139.665 24.35C138.782 23.75 138.073 22.9333 137.54 21.9C137.007 20.8667 136.74 19.7 136.74 18.4C136.74 17.0833 137.007 15.9167 137.54 14.9C138.09 13.8667 138.823 13.0583 139.74 12.475C140.673 11.8917 141.715 11.6 142.865 11.6C143.548 11.6 144.173 11.7 144.74 11.9C145.307 12.1 145.798 12.3833 146.215 12.75C146.648 13.1 146.998 13.5083 147.265 13.975C147.548 14.4417 147.723 14.9417 147.79 15.475L147.215 15.275V11.875H149.815V25H147.215V21.875L147.815 21.7C147.715 22.15 147.507 22.5917 147.19 23.025C146.89 23.4417 146.498 23.8167 146.015 24.15C145.548 24.4833 145.023 24.75 144.44 24.95C143.873 25.15 143.273 25.25 142.64 25.25ZM143.315 22.875C144.098 22.875 144.79 22.6833 145.39 22.3C145.99 21.9167 146.457 21.3917 146.79 20.725C147.14 20.0417 147.315 19.2667 147.315 18.4C147.315 17.55 147.14 16.7917 146.79 16.125C146.457 15.4583 145.99 14.9333 145.39 14.55C144.79 14.1667 144.098 13.975 143.315 13.975C142.548 13.975 141.865 14.1667 141.265 14.55C140.682 14.9333 140.215 15.4583 139.865 16.125C139.532 16.7917 139.365 17.55 139.365 18.4C139.365 19.2667 139.532 20.0417 139.865 20.725C140.215 21.3917 140.682 21.9167 141.265 22.3C141.865 22.6833 142.548 22.875 143.315 22.875ZM158.01 25.25C157.444 25.25 156.902 25.175 156.385 25.025C155.869 24.875 155.385 24.6583 154.935 24.375C154.502 24.0917 154.11 23.7583 153.76 23.375C153.41 22.975 153.11 22.5417 152.86 22.075L154.56 20.3C154.91 20.8 155.227 21.2 155.51 21.5C155.81 21.8 156.094 22.0333 156.36 22.2C156.627 22.3667 156.894 22.4833 157.16 22.55C157.427 22.6 157.71 22.625 158.01 22.625C158.61 22.625 159.135 22.4917 159.585 22.225C160.035 21.9417 160.385 21.5583 160.635 21.075C160.885 20.5917 161.01 20.0417 161.01 19.425V10H157.81V7.5H166.41V10H163.71V19.675C163.71 20.475 163.569 21.2167 163.285 21.9C163.019 22.5667 162.627 23.15 162.11 23.65C161.61 24.15 161.01 24.5417 160.31 24.825C159.627 25.1083 158.86 25.25 158.01 25.25ZM174.105 25.25C172.822 25.25 171.672 24.9583 170.655 24.375C169.655 23.775 168.864 22.9667 168.28 21.95C167.697 20.9167 167.405 19.7417 167.405 18.425C167.405 17.1083 167.697 15.9417 168.28 14.925C168.864 13.8917 169.655 13.0833 170.655 12.5C171.672 11.9 172.822 11.6 174.105 11.6C175.372 11.6 176.505 11.9 177.505 12.5C178.522 13.0833 179.322 13.8917 179.905 14.925C180.489 15.9417 180.78 17.1083 180.78 18.425C180.78 19.7417 180.489 20.9167 179.905 21.95C179.322 22.9667 178.522 23.775 177.505 24.375C176.505 24.9583 175.372 25.25 174.105 25.25ZM174.105 22.9C174.889 22.9 175.589 22.7083 176.205 22.325C176.822 21.925 177.305 21.3917 177.655 20.725C178.005 20.0417 178.172 19.275 178.155 18.425C178.172 17.5583 178.005 16.7917 177.655 16.125C177.305 15.4417 176.822 14.9083 176.205 14.525C175.589 14.1417 174.889 13.95 174.105 13.95C173.322 13.95 172.614 14.15 171.98 14.55C171.364 14.9333 170.88 15.4667 170.53 16.15C170.18 16.8167 170.014 17.575 170.03 18.425C170.014 19.275 170.18 20.0417 170.53 20.725C170.88 21.3917 171.364 21.925 171.98 22.325C172.614 22.7083 173.322 22.9 174.105 22.9ZM190.486 25.25C189.919 25.25 189.353 25.1583 188.786 24.975C188.236 24.7917 187.728 24.55 187.261 24.25C186.811 23.9333 186.428 23.5917 186.111 23.225C185.811 22.8417 185.611 22.4583 185.511 22.075L186.161 21.725V24.925H183.586V6.5H186.161V14.875L185.761 14.65C185.844 14.2667 186.028 13.9 186.311 13.55C186.594 13.1833 186.953 12.8583 187.386 12.575C187.836 12.275 188.319 12.0417 188.836 11.875C189.353 11.6917 189.878 11.6 190.411 11.6C191.594 11.6 192.644 11.8917 193.561 12.475C194.478 13.0583 195.203 13.8667 195.736 14.9C196.269 15.9167 196.536 17.0833 196.536 18.4C196.536 19.7167 196.269 20.8917 195.736 21.925C195.219 22.9583 194.503 23.775 193.586 24.375C192.669 24.9583 191.636 25.25 190.486 25.25ZM190.061 22.9C190.828 22.9 191.511 22.7083 192.111 22.325C192.711 21.925 193.186 21.3917 193.536 20.725C193.886 20.0417 194.061 19.2667 194.061 18.4C194.061 17.55 193.886 16.7917 193.536 16.125C193.203 15.4417 192.736 14.9083 192.136 14.525C191.536 14.1417 190.844 13.95 190.061 13.95C189.278 13.95 188.586 14.1417 187.986 14.525C187.386 14.9083 186.911 15.4417 186.561 16.125C186.211 16.7917 186.036 17.55 186.036 18.4C186.036 19.2667 186.211 20.0417 186.561 20.725C186.911 21.3917 187.386 21.925 187.986 22.325C188.586 22.7083 189.278 22.9 190.061 22.9Z"/>
<path fill="white" d="M92.82 43.1C92.3333 43.1 91.8867 43.0133 91.48 42.84C91.0733 42.6667 90.72 42.42 90.42 42.1C90.12 41.7733 89.8867 41.39 89.72 40.95C89.56 40.51 89.48 40.0267 89.48 39.5C89.48 39 89.5667 38.5367 89.74 38.11C89.92 37.6767 90.1667 37.2967 90.48 36.97C90.7933 36.6433 91.1567 36.39 91.57 36.21C91.9833 36.03 92.43 35.94 92.91 35.94C93.25 35.94 93.58 35.9933 93.9 36.1C94.2267 36.2 94.52 36.3433 94.78 36.53C95.0467 36.71 95.2633 36.9167 95.43 37.15L94.71 37.9C94.5167 37.7067 94.32 37.5467 94.12 37.42C93.9267 37.2867 93.7267 37.1867 93.52 37.12C93.32 37.0533 93.1167 37.02 92.91 37.02C92.5833 37.02 92.2767 37.0833 91.99 37.21C91.71 37.33 91.4633 37.5 91.25 37.72C91.0433 37.94 90.88 38.2033 90.76 38.51C90.64 38.81 90.58 39.14 90.58 39.5C90.58 39.88 90.6367 40.2267 90.75 40.54C90.87 40.8467 91.0367 41.11 91.25 41.33C91.4633 41.55 91.7167 41.72 92.01 41.84C92.31 41.9533 92.64 42.01 93 42.01C93.22 42.01 93.4367 41.98 93.65 41.92C93.8633 41.86 94.0633 41.7733 94.25 41.66C94.4367 41.5467 94.6067 41.4133 94.76 41.26L95.3 42.14C95.1467 42.32 94.9367 42.4833 94.67 42.63C94.41 42.7767 94.1167 42.8933 93.79 42.98C93.47 43.06 93.1467 43.1 92.82 43.1ZM98.5271 43.1C98.0938 43.1 97.6971 42.98 97.3371 42.74C96.9838 42.5 96.7004 42.1733 96.4871 41.76C96.2738 41.3467 96.1671 40.88 96.1671 40.36C96.1671 39.8333 96.2738 39.3667 96.4871 38.96C96.7071 38.5467 97.0004 38.2233 97.3671 37.99C97.7404 37.7567 98.1571 37.64 98.6171 37.64C98.8904 37.64 99.1404 37.68 99.3671 37.76C99.5938 37.84 99.7904 37.9533 99.9571 38.1C100.13 38.24 100.27 38.4033 100.377 38.59C100.49 38.7767 100.56 38.9767 100.587 39.19L100.357 39.11V37.75H101.397V43H100.357V41.75L100.597 41.68C100.557 41.86 100.474 42.0367 100.347 42.21C100.227 42.3767 100.07 42.5267 99.8771 42.66C99.6904 42.7933 99.4804 42.9 99.2471 42.98C99.0204 43.06 98.7804 43.1 98.5271 43.1ZM98.7971 42.15C99.1104 42.15 99.3871 42.0733 99.6271 41.92C99.8671 41.7667 100.054 41.5567 100.187 41.29C100.327 41.0167 100.397 40.7067 100.397 40.36C100.397 40.02 100.327 39.7167 100.187 39.45C100.054 39.1833 99.8671 38.9733 99.6271 38.82C99.3871 38.6667 99.1104 38.59 98.7971 38.59C98.4904 38.59 98.2171 38.6667 97.9771 38.82C97.7438 38.9733 97.5571 39.1833 97.4171 39.45C97.2838 39.7167 97.2171 40.02 97.2171 40.36C97.2171 40.7067 97.2838 41.0167 97.4171 41.29C97.5571 41.5567 97.7438 41.7667 97.9771 41.92C98.2171 42.0733 98.4904 42.15 98.7971 42.15ZM102.835 43V37.75H103.875V39.4L103.775 39C103.849 38.7467 103.972 38.5167 104.145 38.31C104.325 38.1033 104.529 37.94 104.755 37.82C104.989 37.7 105.229 37.64 105.475 37.64C105.589 37.64 105.695 37.65 105.795 37.67C105.902 37.69 105.985 37.7133 106.045 37.74L105.775 38.86C105.695 38.8267 105.605 38.8 105.505 38.78C105.412 38.7533 105.319 38.74 105.225 38.74C105.045 38.74 104.872 38.7767 104.705 38.85C104.545 38.9167 104.402 39.0133 104.275 39.14C104.155 39.26 104.059 39.4033 103.985 39.57C103.912 39.73 103.875 39.9067 103.875 40.1V43H102.835ZM109.094 43.1C108.554 43.1 108.074 42.9867 107.654 42.76C107.24 42.5267 106.914 42.21 106.674 41.81C106.44 41.41 106.324 40.95 106.324 40.43C106.324 40.0167 106.39 39.64 106.524 39.3C106.657 38.96 106.84 38.6667 107.074 38.42C107.314 38.1667 107.597 37.9733 107.924 37.84C108.257 37.7 108.617 37.63 109.004 37.63C109.344 37.63 109.66 37.6967 109.954 37.83C110.247 37.9567 110.5 38.1333 110.714 38.36C110.934 38.5867 111.1 38.8567 111.214 39.17C111.334 39.4767 111.39 39.8133 111.384 40.18L111.374 40.62H107.084L106.854 39.8H110.484L110.334 39.97V39.73C110.314 39.51 110.24 39.3133 110.114 39.14C109.987 38.9667 109.827 38.83 109.634 38.73C109.44 38.63 109.23 38.58 109.004 38.58C108.644 38.58 108.34 38.65 108.094 38.79C107.847 38.9233 107.66 39.1233 107.534 39.39C107.407 39.65 107.344 39.9733 107.344 40.36C107.344 40.7267 107.42 41.0467 107.574 41.32C107.727 41.5867 107.944 41.7933 108.224 41.94C108.504 42.0867 108.827 42.16 109.194 42.16C109.454 42.16 109.694 42.1167 109.914 42.03C110.14 41.9433 110.384 41.7867 110.644 41.56L111.164 42.29C111.004 42.45 110.807 42.59 110.574 42.71C110.347 42.83 110.104 42.9267 109.844 43C109.59 43.0667 109.34 43.1 109.094 43.1ZM114.953 43.1C114.413 43.1 113.933 42.9867 113.513 42.76C113.1 42.5267 112.773 42.21 112.533 41.81C112.3 41.41 112.183 40.95 112.183 40.43C112.183 40.0167 112.25 39.64 112.383 39.3C112.517 38.96 112.7 38.6667 112.933 38.42C113.173 38.1667 113.457 37.9733 113.783 37.84C114.117 37.7 114.477 37.63 114.863 37.63C115.203 37.63 115.52 37.6967 115.813 37.83C116.107 37.9567 116.36 38.1333 116.573 38.36C116.793 38.5867 116.96 38.8567 117.073 39.17C117.193 39.4767 117.25 39.8133 117.243 40.18L117.233 40.62H112.943L112.713 39.8H116.343L116.193 39.97V39.73C116.173 39.51 116.1 39.3133 115.973 39.14C115.847 38.9667 115.687 38.83 115.493 38.73C115.3 38.63 115.09 38.58 114.863 38.58C114.503 38.58 114.2 38.65 113.953 38.79C113.707 38.9233 113.52 39.1233 113.393 39.39C113.267 39.65 113.203 39.9733 113.203 40.36C113.203 40.7267 113.28 41.0467 113.433 41.32C113.587 41.5867 113.803 41.7933 114.083 41.94C114.363 42.0867 114.687 42.16 115.053 42.16C115.313 42.16 115.553 42.1167 115.773 42.03C116 41.9433 116.243 41.7867 116.503 41.56L117.023 42.29C116.863 42.45 116.667 42.59 116.433 42.71C116.207 42.83 115.963 42.9267 115.703 43C115.45 43.0667 115.2 43.1 114.953 43.1ZM118.363 43V37.75H119.403V39.4L119.303 39C119.376 38.7467 119.499 38.5167 119.673 38.31C119.853 38.1033 120.056 37.94 120.283 37.82C120.516 37.7 120.756 37.64 121.003 37.64C121.116 37.64 121.223 37.65 121.323 37.67C121.429 37.69 121.513 37.7133 121.573 37.74L121.303 38.86C121.223 38.8267 121.133 38.8 121.033 38.78C120.939 38.7533 120.846 38.74 120.753 38.74C120.573 38.74 120.399 38.7767 120.233 38.85C120.073 38.9167 119.929 39.0133 119.803 39.14C119.683 39.26 119.586 39.4033 119.513 39.57C119.439 39.73 119.403 39.9067 119.403 40.1V43H118.363ZM128.299 43.1C127.812 43.1 127.365 43.0133 126.959 42.84C126.552 42.6667 126.199 42.42 125.899 42.1C125.599 41.7733 125.365 41.39 125.199 40.95C125.039 40.51 124.959 40.0267 124.959 39.5C124.959 39 125.045 38.5367 125.219 38.11C125.399 37.6767 125.645 37.2967 125.959 36.97C126.272 36.6433 126.635 36.39 127.049 36.21C127.462 36.03 127.909 35.94 128.389 35.94C128.729 35.94 129.059 35.9933 129.379 36.1C129.705 36.2 129.999 36.3433 130.259 36.53C130.525 36.71 130.742 36.9167 130.909 37.15L130.189 37.9C129.995 37.7067 129.799 37.5467 129.599 37.42C129.405 37.2867 129.205 37.1867 128.999 37.12C128.799 37.0533 128.595 37.02 128.389 37.02C128.062 37.02 127.755 37.0833 127.469 37.21C127.189 37.33 126.942 37.5 126.729 37.72C126.522 37.94 126.359 38.2033 126.239 38.51C126.119 38.81 126.059 39.14 126.059 39.5C126.059 39.88 126.115 40.2267 126.229 40.54C126.349 40.8467 126.515 41.11 126.729 41.33C126.942 41.55 127.195 41.72 127.489 41.84C127.789 41.9533 128.119 42.01 128.479 42.01C128.699 42.01 128.915 41.98 129.129 41.92C129.342 41.86 129.542 41.7733 129.729 41.66C129.915 41.5467 130.085 41.4133 130.239 41.26L130.779 42.14C130.625 42.32 130.415 42.4833 130.149 42.63C129.889 42.7767 129.595 42.8933 129.269 42.98C128.949 43.06 128.625 43.1 128.299 43.1ZM134.346 43.1C133.832 43.1 133.372 42.9833 132.966 42.75C132.566 42.51 132.249 42.1867 132.016 41.78C131.782 41.3667 131.666 40.8967 131.666 40.37C131.666 39.8433 131.782 39.3767 132.016 38.97C132.249 38.5567 132.566 38.2333 132.966 38C133.372 37.76 133.832 37.64 134.346 37.64C134.852 37.64 135.306 37.76 135.706 38C136.112 38.2333 136.432 38.5567 136.666 38.97C136.899 39.3767 137.016 39.8433 137.016 40.37C137.016 40.8967 136.899 41.3667 136.666 41.78C136.432 42.1867 136.112 42.51 135.706 42.75C135.306 42.9833 134.852 43.1 134.346 43.1ZM134.346 42.16C134.659 42.16 134.939 42.0833 135.186 41.93C135.432 41.77 135.626 41.5567 135.766 41.29C135.906 41.0167 135.972 40.71 135.966 40.37C135.972 40.0233 135.906 39.7167 135.766 39.45C135.626 39.1767 135.432 38.9633 135.186 38.81C134.939 38.6567 134.659 38.58 134.346 38.58C134.032 38.58 133.749 38.66 133.496 38.82C133.249 38.9733 133.056 39.1867 132.916 39.46C132.776 39.7267 132.709 40.03 132.716 40.37C132.709 40.71 132.776 41.0167 132.916 41.29C133.056 41.5567 133.249 41.77 133.496 41.93C133.749 42.0833 134.032 42.16 134.346 42.16ZM138.138 43V37.75H139.168V38.83L138.988 38.95C139.055 38.7167 139.185 38.5033 139.378 38.31C139.571 38.11 139.801 37.95 140.068 37.83C140.335 37.7033 140.608 37.64 140.888 37.64C141.288 37.64 141.621 37.72 141.888 37.88C142.155 38.0333 142.355 38.27 142.488 38.59C142.621 38.91 142.688 39.3133 142.688 39.8V43H141.658V39.87C141.658 39.57 141.618 39.3233 141.538 39.13C141.458 38.93 141.335 38.7867 141.168 38.7C141.001 38.6067 140.795 38.5667 140.548 38.58C140.348 38.58 140.165 38.6133 139.998 38.68C139.831 38.74 139.685 38.8267 139.558 38.94C139.438 39.0533 139.341 39.1867 139.268 39.34C139.201 39.4867 139.168 39.6467 139.168 39.82V43H138.658C138.571 43 138.485 43 138.398 43C138.311 43 138.225 43 138.138 43ZM145.835 43.1C145.395 43.1 144.999 43.0233 144.645 42.87C144.292 42.7167 143.999 42.49 143.765 42.19L144.465 41.59C144.665 41.8233 144.882 41.9933 145.115 42.1C145.355 42.2 145.625 42.25 145.925 42.25C146.045 42.25 146.155 42.2367 146.255 42.21C146.362 42.1767 146.452 42.13 146.525 42.07C146.605 42.01 146.665 41.94 146.705 41.86C146.745 41.7733 146.765 41.68 146.765 41.58C146.765 41.4067 146.702 41.2667 146.575 41.16C146.509 41.1133 146.402 41.0633 146.255 41.01C146.115 40.95 145.932 40.89 145.705 40.83C145.319 40.73 145.002 40.6167 144.755 40.49C144.509 40.3633 144.319 40.22 144.185 40.06C144.085 39.9333 144.012 39.7967 143.965 39.65C143.919 39.4967 143.895 39.33 143.895 39.15C143.895 38.93 143.942 38.73 144.035 38.55C144.135 38.3633 144.269 38.2033 144.435 38.07C144.609 37.93 144.809 37.8233 145.035 37.75C145.269 37.6767 145.515 37.64 145.775 37.64C146.022 37.64 146.265 37.6733 146.505 37.74C146.752 37.8067 146.979 37.9033 147.185 38.03C147.392 38.1567 147.565 38.3067 147.705 38.48L147.115 39.13C146.989 39.0033 146.849 38.8933 146.695 38.8C146.549 38.7 146.399 38.6233 146.245 38.57C146.092 38.5167 145.952 38.49 145.825 38.49C145.685 38.49 145.559 38.5033 145.445 38.53C145.332 38.5567 145.235 38.5967 145.155 38.65C145.082 38.7033 145.025 38.77 144.985 38.85C144.945 38.93 144.925 39.02 144.925 39.12C144.932 39.2067 144.952 39.29 144.985 39.37C145.025 39.4433 145.079 39.5067 145.145 39.56C145.219 39.6133 145.329 39.67 145.475 39.73C145.622 39.79 145.809 39.8467 146.035 39.9C146.369 39.9867 146.642 40.0833 146.855 40.19C147.075 40.29 147.249 40.4067 147.375 40.54C147.509 40.6667 147.602 40.8133 147.655 40.98C147.709 41.1467 147.735 41.3333 147.735 41.54C147.735 41.84 147.649 42.11 147.475 42.35C147.309 42.5833 147.082 42.7667 146.795 42.9C146.509 43.0333 146.189 43.1 145.835 43.1ZM150.71 43.1C150.337 43.1 150.01 43.0133 149.73 42.84C149.457 42.6667 149.244 42.4233 149.09 42.11C148.944 41.7967 148.87 41.4233 148.87 40.99V37.75H149.9V40.71C149.9 41.0167 149.947 41.2833 150.04 41.51C150.14 41.73 150.28 41.9 150.46 42.02C150.647 42.14 150.87 42.2 151.13 42.2C151.324 42.2 151.5 42.17 151.66 42.11C151.82 42.0433 151.957 41.9533 152.07 41.84C152.19 41.7267 152.284 41.59 152.35 41.43C152.417 41.27 152.45 41.0967 152.45 40.91V37.75H153.48V43H152.45V41.9L152.63 41.78C152.55 42.0267 152.414 42.25 152.22 42.45C152.034 42.65 151.81 42.81 151.55 42.93C151.29 43.0433 151.01 43.1 150.71 43.1ZM154.945 43V35.6H155.975V43H154.945ZM158.056 43V36.41H159.086V43H158.056ZM156.966 38.75V37.75H160.306V38.75H156.966Z"/>
<path fill="#6152D9" d="M203.272 17V9.741H196V5H203.272H208V9.741V17H203.272Z" clip-rule="evenodd" fill-rule="evenodd"/>
<path fill="#6152D9" d="M24.9998 41.295V31.6931H15.3809V25.4219H24.9998H31.2539V31.6931V41.295H24.9998Z" clip-rule="evenodd" fill-rule="evenodd"/>
<path fill="white" d="M33.7023 32.5997V22.9807H24.0996V16.7266H33.7023H39.9563V22.9807V32.5997H33.7023Z" clip-rule="evenodd" fill-rule="evenodd"/>
<path fill="#6152D9" d="M42.4027 23.8802V14.2776H32.8008V8.02344H40.6522H42.4027H48.6233H48.6738V8.05765V14.2776V16.0451V23.8802H42.4027Z" clip-rule="evenodd" fill-rule="evenodd"/>
<path fill="white" d="M42.4028 50.0028H25V43.7487H42.4028V26.3281H48.6739V43.7487V50.0028H42.4028Z" clip-rule="evenodd" fill-rule="evenodd"/>
<path fill="#6152D9" d="M15.2949 8.02344H30.3526V14.2776H15.2949V8.02344Z" clip-rule="evenodd" fill-rule="evenodd"/>
<path fill="#6152D9" d="M12.9338 31.6982H6.67969V16.6406H12.9338V31.6982Z" clip-rule="evenodd" fill-rule="evenodd"/>
<path fill="white" d="M6.67969 34.1406H16.2816H22.5527V40.3946V49.9973H16.2816V44.8135L11.1157 49.9973L6.67969 45.5784L11.8634 40.3946H6.67969V34.1406Z" clip-rule="evenodd" fill-rule="evenodd"/>
<path fill="#6152D9" d="M12.9338 8.02344H6.67969V14.2776H12.9338V8.02344Z"/>
<path fill="#6152D9" d="M15.772 0H11.1152V4.65675H15.772V0Z"/>
<path fill="#6152D9" d="M7.47754 1.57812H0V9.05565H7.47754V1.57812Z"/>
</g>
<defs>
<clipPath id="clip0_1011_2796">
<rect fill="white" height="50" width="211"/>
</clipPath>
</defs>
</svg>