<svg width="19" height="19" viewBox="0 0 19 19" fill="none" xmlns="http://www.w3.org/2000/svg">
<path d="M0.828245 0.512867C0.792429 0.541014 0.761729 0.60937 0.761729 0.661643C0.761729 0.721958 2.01529 2.33035 3.9954 4.80727C5.77597 7.03087 7.30583 8.94887 7.39793 9.0695C7.60259 9.33891 7.61794 9.54398 7.44909 9.77719C7.38258 9.86566 5.85784 11.7756 4.06192 14.0193C2.266 16.263 0.771962 18.1489 0.741263 18.2132C0.674747 18.3539 0.746379 18.4585 0.925459 18.4746C1.02267 18.4826 3.20745 17.409 9.77202 14.1198C14.5662 11.7193 18.5418 9.70884 18.6083 9.65254C18.7618 9.51583 18.7516 9.38314 18.5828 9.23838C18.3576 9.05744 1.22222 0.492762 1.04314 0.476678C0.961275 0.468636 0.858944 0.48472 0.828245 0.512867Z" fill="#6152D9"/>
</svg>
